<?xml version="1.0" encoding="utf-8"?>
<!-- Generator: Adobe Illustrator 16.0.0, SVG Export Plug-In . SVG Version: 6.00 Build 0)  -->
<!DOCTYPE svg PUBLIC "-//W3C//DTD SVG 1.1//EN" "http://www.w3.org/Graphics/SVG/1.1/DTD/svg11.dtd">
<svg version="1.1" id="Layer_1" xmlns="http://www.w3.org/2000/svg" xmlns:xlink="http://www.w3.org/1999/xlink" x="0px" y="0px"
	 width="500px" height="500px" viewBox="0 0 500 500" enable-background="new 0 0 500 500" xml:space="preserve">
<path fill-rule="evenodd" clip-rule="evenodd" fill="#FFFFFF" d="M357.415,349.407c6.27-2.951,11.984-5.57,17.63-8.332
	c1.812-0.887,0.995-2.783,0.996-4.219c0.051-22.232,0.035-44.457,0.035-66.688c0-1.707,0-3.408,0-5.963
	c6.025,3.086,11.348,6.691,17.219,8.623c10.529,3.451,13.396,9.938,12.754,20.738c-1.04,17.504-0.354,35.117-0.206,52.682
	c0.025,3.006-0.745,4.686-3.55,6.098c-24.333,12.25-48.608,24.625-72.838,37.096c-3.53,1.822-4.27,1.23-4.261-2.678
	c0.106-48.502,0.11-97.002,0-145.499c-0.013-4.354,1.112-4.229,4.299-2.327c7.988,4.759,16.065,9.368,24.223,13.821
	c2.747,1.5,3.805,3.205,3.789,6.453c-0.153,28.13-0.09,56.267-0.09,84.403C357.415,345.286,357.415,346.954,357.415,349.407z"/>
<path fill="#FFC969" d="M258.471,485.534c-6.222,0-12.443,0-18.663,0c-1.389-1.537-3.414-1.305-5.146-1.725
	c-6.376-1.557-12.57-3.646-18.245-6.891c-45.961-26.279-91.973-52.479-137.743-79.086c-17.362-10.09-28.155-25.418-32.351-45.23
	c-0.369-1.732,0.018-3.795-1.572-5.193c0-64.396,0-128.789,0-193.185c1.155-0.653,0.968-1.873,1.164-2.89
	c4.237-22.085,16.606-38.115,36.262-48.709c45.82-24.704,91.585-49.512,137.499-74.039c20.094-10.736,40.646-10.745,60.732-0.002
	c46.734,24.98,93.382,50.114,139.905,75.476c16.736,9.126,27.643,23.265,32.712,41.782c0.851,3.093,0.773,6.418,2.363,9.317
	c0,63.771,0,127.541,0,191.314c-0.276,0.533-0.723,1.041-0.812,1.605c-3.719,24.053-17.138,41.027-38.001,52.842
	c-26.506,15.012-52.548,30.863-79.351,45.311C311.406,460.149,288.08,479.196,258.471,485.534z M428.649,251.055
	c0-28.302-0.121-56.599,0.046-84.899c0.106-18.457-7.851-31.759-24.076-40.47c-45.171-24.251-90.294-48.594-135.397-72.979
	c-12.81-6.925-25.433-6.98-38.244-0.053c-45.237,24.451-90.5,48.871-135.792,73.229c-15.707,8.446-23.648,21.38-23.639,39.266
	c0.035,57.225,0.034,114.443,0,171.664c-0.009,17.799,7.805,30.91,23.189,39.717c43.958,25.17,87.9,50.367,131.83,75.598
	c15.846,9.105,31.547,8.895,47.339-0.186c43.251-24.844,86.473-49.736,129.848-74.359c16.888-9.59,25.199-23.518,24.981-43.035
	C428.421,306.722,428.649,278.888,428.649,251.055z"/>
<path fill-rule="evenodd" clip-rule="evenodd" fill="#3A2D40" d="M428.656,251.408c0,27.829-0.233,55.665,0.078,83.493
	c0.223,19.516-8.085,33.443-24.979,43.027c-43.374,24.629-86.599,49.525-129.845,74.369c-15.797,9.072-31.491,9.291-47.344,0.186
	c-43.923-25.234-87.868-50.428-131.825-75.602c-15.385-8.807-23.199-21.918-23.189-39.717c0.035-57.221,0.036-114.442,0-171.663
	c-0.009-17.886,7.931-30.819,23.641-39.266c45.291-24.36,90.549-48.778,135.791-73.232c12.812-6.925,25.434-6.87,38.245,0.055
	c45.099,24.388,90.224,48.726,135.399,72.978c16.223,8.712,24.185,22.017,24.072,40.472
	C428.528,194.806,428.656,223.108,428.656,251.408z M250.106,403.188c-4.94-2.588-9.808-5.336-14.857-7.691
	c-2.378-1.102-3.005-2.506-2.963-4.982c0.151-8.387-0.092-16.791,0.141-25.178c0.079-2.77-0.967-3.797-3.389-4.43
	c-12.115-3.168-24.248-6.295-36.282-9.746c-3.3-0.947-4.045-0.334-4,2.967c0.152,10.721,0.02,21.453,0.07,32.176
	c0.027,5.416-1.563,11.855,0.819,15.957c2.375,4.086,8.738,5.928,13.453,8.576c15.64,8.807,31.323,17.529,46.996,26.281
	c0.569-0.18,1.195-0.268,1.712-0.551c18.928-10.578,37.811-21.238,56.817-31.674c2.675-1.475,2.665-3.381,2.665-5.748
	c-0.023-25.486-0.016-50.969-0.016-76.459c0-9.133,0.016-9.18-8.505-11.83c-17.563-5.447-35.136-10.836-52.704-16.252
	c-5.109-1.715-10.18-3.592-15.352-5.086c-2.564-0.732-3.31-1.951-3.292-4.566c0.129-15.389,0.129-30.778-0.004-46.169
	c-0.024-2.627,1.038-3.855,3.188-4.965c5.229-2.705,10.335-5.637,15.496-8.476c4.615,2.533,9.14,5.237,13.874,7.526
	c2.658,1.289,3.396,3.001,3.353,5.81c-0.149,10.253,0.033,20.512-0.124,30.767c-0.037,2.633,0.846,3.791,3.303,4.637
	c12.279,4.219,24.538,8.514,36.715,13.02c3.332,1.234,4.159,0.736,4.125-2.885c-0.16-16.934-0.16-33.873,0.009-50.807
	c0.036-3.1-0.955-4.658-3.663-6.065c-17.988-9.379-35.869-18.946-53.809-28.412c-1.184-0.625-2.231-1.77-3.806-1.4
	c-0.585,0.128-1.235,0.14-1.746,0.41c-18.919,9.955-37.79,19.999-56.769,29.842c-2.665,1.381-2.778,3.236-2.774,5.655
	c0.038,26.425-0.012,52.855,0.064,79.279c0.011,4.316-1.799,9.672,0.81,12.662c2.344,2.691,7.541,2.967,11.531,4.15
	c16.279,4.855,32.584,9.648,48.881,14.461c4.977,1.59,9.929,3.256,14.945,4.736c2.101,0.611,2.878,1.598,2.854,3.891
	c-0.129,12.391-0.1,24.783-0.017,37.178c0.009,1.936-0.571,3.1-2.271,4.08C260.372,396.89,255.258,400.071,250.106,403.188z
	 M357.415,349.407c0-2.453,0-4.121,0-5.791c0-28.137-0.063-56.273,0.09-84.403c0.016-3.248-1.042-4.953-3.789-6.453
	c-8.157-4.454-16.234-9.062-24.223-13.821c-3.187-1.901-4.312-2.026-4.299,2.327c0.11,48.497,0.106,96.997,0,145.499
	c-0.009,3.908,0.73,4.5,4.261,2.678c24.229-12.471,48.505-24.846,72.838-37.096c2.805-1.412,3.575-3.092,3.55-6.098
	c-0.147-17.564-0.834-35.178,0.206-52.682c0.643-10.801-2.225-17.287-12.754-20.738c-5.871-1.932-11.193-5.537-17.219-8.623
	c0,2.555,0,4.256,0,5.963c0,22.23,0.016,44.455-0.035,66.688c-0.001,1.436,0.816,3.332-0.996,4.219
	C369.399,343.837,363.685,346.456,357.415,349.407z M123.076,184.838c0-14.984,0-29.031,0-43.704
	c-8.548,5.033-16.463,9.85-24.546,14.362c-2.948,1.647-3.968,3.591-3.952,6.985c0.142,30.318,0.076,60.635,0.11,90.954
	c0.002,1.48-0.531,3.088,0.761,4.701c8.451-4.494,16.856-9.088,25.385-13.43c2.537-1.288,3.522-2.767,3.479-5.688
	c-0.182-11.971-0.086-23.942-0.065-35.915c0.003-1.632-0.481-3.402,1.575-4.433c3.667-1.858,7.265-3.867,11.458-6.111
	c0,15.128,0,29.499,0,44.588c8.859-4.68,17.091-9.216,25.511-13.373c2.973-1.464,3.859-3.261,3.85-6.466
	c-0.116-31.874-0.064-63.746-0.094-95.62c-0.001-1.336,0.433-2.777-0.706-4.388c-8.536,4.975-17.002,10.044-25.617,14.842
	c-2.542,1.418-3.324,3.088-3.291,5.903c0.143,11.968,0.065,23.943,0.059,35.914c-0.002,1.807,0.408,3.668-1.863,4.734
	C131.375,180.459,127.725,182.452,123.076,184.838z M244.443,73.259c-1.905,0.922-3.284,1.532-4.61,2.239
	c-19.563,10.409-39.075,20.908-58.713,31.163c-2.917,1.524-3.891,3.166-3.879,6.398c0.12,32.956,0.071,65.911,0.071,98.867
	c0,1.308,0,2.615,0,4.56c8.364-4.419,15.949-8.578,23.684-12.426c2.625-1.308,3.431-2.908,3.397-5.761
	c-0.149-13.213-0.089-26.43-0.025-39.645c0.006-1.408-0.781-3.148,1.07-4.174c4.145-2.298,8.263-4.633,13.044-7.315
	c0,16.356,0,31.811,0,47.91c7.802-4.016,14.994-7.89,22.354-11.414c2.791-1.338,3.696-2.94,3.685-6.034
	c-0.122-33.423-0.076-66.848-0.076-100.271C244.443,76.174,244.443,74.993,244.443,73.259z M333.999,117.004
	c0,34.661,0.021,68.53-0.051,102.404c-0.004,2.149,1.089,2.954,2.697,3.788c5.499,2.851,10.914,5.886,16.452,8.656
	c3.192,1.598,6.107,3.896,10.188,4.76c0-14.792,0-29.139,0-43.987c3.612,1.932,6.664,3.733,9.861,5.221
	c2.277,1.06,3.064,2.468,2.999,5.027c-0.197,7.77-0.096,15.545-0.066,23.318c0.025,5.436-1.741,12.009,0.696,15.988
	c2.532,4.125,9.141,5.791,14.015,8.437c4.819,2.618,9.697,5.116,14.981,7.899c0-16.394-0.165-31.938,0.102-47.479
	c0.082-4.853-0.657-8.819-4.973-11.547c-2.278-1.439-1.938-2.813-0.221-4.721c2.1-2.32,5.188-4.019,5.136-7.917
	c-0.128-8.708-0.044-17.413-0.037-26.119c0-1.41,0.037-2.707-1.489-3.599c-8.904-5.22-17.764-10.512-27.383-16.22
	c0,15.002,0,29.138,0,43.776c-3.605-1.85-6.522-3.625-9.646-4.872c-3.14-1.254-3.839-3.312-3.788-6.476
	c0.167-11.813,0.048-23.63,0.087-35.446c0.005-2.097-0.101-3.767-2.334-5.03C352.334,127.855,343.577,122.611,333.999,117.004z
	 M174.5,237.416c-0.625-0.144-0.816-0.258-0.918-0.202c-25.574,13.637-51.125,27.314-76.732,40.887
	c-2.107,1.115-2.194,2.67-2.192,4.598c0.021,21.301,0.063,42.605-0.046,63.906c-0.013,2.703,0.871,4.203,3.237,5.465
	c7.931,4.238,15.822,8.557,23.563,13.127c3.727,2.203,3.896,0.596,3.877-2.58c-0.087-14.465-0.043-28.922-0.03-43.387
	c0.002-1.613,0.14-3.23,0.228-5.25c8.448,3.285,16.372,6.33,24.263,9.449c1.964,0.775,3.604,0.967,5.585-0.336
	c5.434-3.584,11.014-6.961,16.628-10.271c1.799-1.059,2.594-2.211,2.583-4.387C174.47,284.804,174.5,261.171,174.5,237.416z
	 M322.819,216.501c0-8.679-0.086-16.575,0.06-24.472c0.036-2.16-1.055-2.96-2.67-3.758c-6.946-3.412-13.935-6.747-20.766-10.384
	c-3.463-1.842-3.845-0.446-3.636,2.567c0.15,2.21,0.031,4.438,0.031,7.178c-3.384-1.723-5.897-3.281-8.606-4.317
	c-3.617-1.38-4.48-3.747-4.447-7.47c0.176-22.384,0.075-44.77,0.121-67.149c0-1.445-0.562-3.034,0.662-4.597
	c1.137,0.529,2.177,1.179,3.323,1.521c7.359,2.216,10.812,6.762,9.19,14.664c-0.318,1.539-0.532,3.381,1.467,4.481
	c8.23,4.535,16.418,9.154,25.271,14.107c0-8.314-0.179-15.873,0.087-23.417c0.103-3.216-0.99-4.946-3.737-6.509
	c-19.544-11.102-38.989-22.372-58.488-33.538c-1.143-0.651-2.176-1.776-4.041-1.528c0,35.254,0.009,70.488-0.025,105.725
	c0,1.648,0.689,2.462,2.09,3.199C279.819,193.865,300.909,204.976,322.819,216.501z"/>
<path fill-rule="evenodd" clip-rule="evenodd" fill="#FFFFFF" d="M250.074,343.991c-0.003-16.461-0.003-32.924-0.01-49.387
	c17.568,5.416,35.141,10.805,52.704,16.252c8.521,2.65,8.505,2.697,8.505,11.83c0,25.49-0.008,50.973,0.016,76.459
	c0,2.367,0.01,4.273-2.665,5.748c-19.007,10.436-37.89,21.096-56.817,31.674c-0.517,0.283-1.143,0.371-1.712,0.551
	c0.006-11.311,0.01-22.617,0.012-33.93c5.151-3.117,10.266-6.299,15.479-9.312c1.699-0.98,2.279-2.145,2.271-4.08
	c-0.083-12.395-0.112-24.787,0.017-37.178c0.024-2.293-0.753-3.279-2.854-3.891C260.003,347.247,255.051,345.581,250.074,343.991z"
	/>
<path fill-rule="evenodd" clip-rule="evenodd" fill="#FFFFFF" d="M333.999,117.004c9.578,5.607,18.335,10.851,27.226,15.861
	c2.233,1.263,2.339,2.933,2.334,5.03c-0.039,11.816,0.08,23.633-0.087,35.446c-0.051,3.164,0.648,5.221,3.788,6.476
	c3.124,1.247,6.041,3.022,9.646,4.872c0-14.638,0-28.774,0-43.776c9.619,5.708,18.479,11,27.383,16.22
	c1.526,0.892,1.489,2.188,1.489,3.599c-0.007,8.707-0.091,17.411,0.037,26.119c0.053,3.898-3.036,5.597-5.136,7.917
	c-1.718,1.908-2.058,3.282,0.221,4.721c4.315,2.728,5.055,6.694,4.973,11.547c-0.267,15.541-0.102,31.086-0.102,47.479
	c-5.284-2.783-10.162-5.281-14.981-7.899c-4.874-2.646-11.482-4.312-14.015-8.437c-2.438-3.979-0.671-10.552-0.696-15.988
	c-0.029-7.772-0.131-15.548,0.066-23.318c0.065-2.56-0.722-3.967-2.999-5.027c-3.197-1.488-6.249-3.289-9.861-5.221
	c0,14.848,0,29.194,0,43.987c-4.08-0.864-6.995-3.162-10.188-4.76c-5.538-2.771-10.953-5.806-16.452-8.656
	c-1.608-0.834-2.701-1.638-2.697-3.788C334.021,185.535,333.999,151.665,333.999,117.004z"/>
<path fill-rule="evenodd" clip-rule="evenodd" fill="#FFFFFF" d="M322.819,216.501c-21.91-11.526-43-22.636-64.115-33.693
	c-1.4-0.737-2.09-1.551-2.09-3.199c0.034-35.237,0.025-70.471,0.025-105.725c1.865-0.248,2.898,0.877,4.041,1.528
	c19.499,11.166,38.944,22.436,58.488,33.538c2.747,1.563,3.84,3.293,3.737,6.509c-0.266,7.543-0.087,15.102-0.087,23.417
	c-8.853-4.953-17.04-9.572-25.271-14.107c-1.999-1.1-1.785-2.942-1.467-4.481c1.621-7.902-1.831-12.448-9.19-14.664
	c-1.146-0.342-2.187-0.992-3.323-1.521c-1.224,1.563-0.662,3.152-0.662,4.597c-0.046,22.379,0.055,44.765-0.121,67.149
	c-0.033,3.724,0.83,6.09,4.447,7.47c2.709,1.036,5.223,2.594,8.606,4.317c0-2.741,0.119-4.968-0.031-7.178
	c-0.209-3.013,0.173-4.41,3.636-2.567c6.831,3.637,13.819,6.972,20.766,10.384c1.615,0.797,2.706,1.598,2.67,3.758
	C322.733,199.926,322.819,207.823,322.819,216.501z"/>
<path fill-rule="evenodd" clip-rule="evenodd" fill="#FFFFFF" d="M250.101,225.342c-0.006-9.27-0.015-18.541-0.023-27.81
	c1.574-0.37,2.622,0.774,3.806,1.4c17.939,9.466,35.82,19.033,53.809,28.412c2.708,1.408,3.699,2.966,3.663,6.065
	c-0.169,16.934-0.169,33.873-0.009,50.807c0.034,3.621-0.793,4.119-4.125,2.885c-12.177-4.506-24.436-8.801-36.715-13.02
	c-2.457-0.846-3.34-2.004-3.303-4.637c0.157-10.255-0.025-20.513,0.124-30.767c0.043-2.809-0.694-4.521-3.353-5.81
	C259.24,230.579,254.716,227.875,250.101,225.342z"/>
<g>
	<path fill-rule="evenodd" clip-rule="evenodd" fill="#84BFF4" d="M123.076,184.838c4.648-2.387,8.299-4.379,12.054-6.146
		c2.271-1.065,1.861-2.927,1.863-4.734c0.007-11.971,0.084-23.946-0.059-35.914c-0.033-2.815,0.748-4.484,3.291-5.903
		c8.615-4.797,17.082-9.867,25.617-14.842c1.139,1.611,0.705,3.052,0.706,4.388c0.03,31.874-0.022,63.746,0.094,95.62
		c0.009,3.206-0.876,5.002-3.85,6.466c-8.42,4.157-16.652,8.693-25.511,13.373c0-15.089,0-29.46,0-44.588
		c-4.193,2.245-7.791,4.253-11.458,6.111c-2.057,1.031-1.572,2.801-1.575,4.433c-0.021,11.973-0.117,23.944,0.065,35.915
		c0.042,2.921-0.943,4.4-3.479,5.688c-8.529,4.342-16.934,8.936-25.385,13.43c-1.292-1.613-0.758-3.221-0.761-4.701
		c-0.034-30.319,0.032-60.636-0.11-90.954c-0.016-3.395,1.004-5.338,3.952-6.985c8.083-4.512,15.998-9.329,24.546-14.362
		C123.076,155.808,123.076,169.854,123.076,184.838z"/>
	<path fill-rule="evenodd" clip-rule="evenodd" fill="#84BFF4" d="M250.101,225.342c-5.161,2.839-10.268,5.771-15.496,8.476
		c-2.149,1.11-3.212,2.338-3.188,4.965c0.133,15.391,0.133,30.78,0.004,46.169c-0.018,2.615,0.728,3.834,3.292,4.566
		c5.172,1.494,10.242,3.371,15.352,5.086c0.007,16.463,0.007,32.926,0.01,49.387c-16.297-4.812-32.602-9.605-48.881-14.461
		c-3.99-1.184-9.187-1.459-11.531-4.15c-2.609-2.99-0.799-8.346-0.81-12.662c-0.077-26.424-0.026-52.854-0.064-79.279
		c-0.004-2.419,0.109-4.274,2.774-5.655c18.979-9.843,37.85-19.887,56.769-29.842c0.511-0.271,1.161-0.282,1.746-0.41
		C250.086,206.801,250.095,216.072,250.101,225.342z"/>
	<path fill-rule="evenodd" clip-rule="evenodd" fill="#84BFF4" d="M244.422,73.562c0,1.735,0,2.918,0,4.096
		c0,33.427-0.046,66.848,0.073,100.27c0.018,3.097-0.89,4.7-3.681,6.036c-7.36,3.524-14.555,7.398-22.36,11.415
		c0-16.097,0-31.552,0-47.909c-4.781,2.682-8.9,5.014-13.043,7.312c-1.845,1.026-1.059,2.766-1.068,4.181
		c-0.062,13.211-0.121,26.426,0.029,39.639c0.029,2.852-0.776,4.452-3.4,5.76c-7.734,3.851-15.316,8.01-23.68,12.426
		c0-1.942,0-3.25,0-4.558c0-32.957,0.047-65.913-0.073-98.868c-0.01-3.231,0.962-4.874,3.88-6.398
		c19.635-10.256,39.15-20.753,58.708-31.164C241.137,75.094,242.518,74.484,244.422,73.562z M204.166,140.156
		c4.361-2.398,8.104-4.497,11.896-6.513c0.921-0.49,1.471-1.077,1.471-2.126c0-9.201,0-18.403,0-28.254
		c-4.337,2.653-7.876,4.841-11.444,6.984c-1.109,0.669-1.958,1.348-1.949,2.851C204.19,121.896,204.166,130.693,204.166,140.156z"/>
	<path fill-rule="evenodd" clip-rule="evenodd" fill="#84BFF4" d="M174.5,237.416c0,23.755-0.03,47.388,0.047,71.019
		c0.01,2.176-0.785,3.328-2.583,4.387c-5.614,3.311-11.194,6.688-16.628,10.271c-1.981,1.303-3.622,1.111-5.585,0.336
		c-7.892-3.119-15.815-6.164-24.263-9.449c-0.088,2.02-0.226,3.637-0.228,5.25c-0.014,14.465-0.057,28.922,0.03,43.387
		c0.019,3.176-0.15,4.783-3.877,2.58c-7.741-4.57-15.632-8.889-23.563-13.127c-2.366-1.262-3.25-2.762-3.237-5.465
		c0.109-21.301,0.066-42.605,0.046-63.906c-0.002-1.928,0.085-3.482,2.192-4.598c25.607-13.572,51.159-27.25,76.732-40.887
		C173.684,237.158,173.875,237.272,174.5,237.416z M149.141,274.589c-7.824,3.549-15.001,6.748-22.117,10.07
		c-2.569,1.197-3.355,10.605-0.866,11.703c7.5,3.299,15.15,6.248,22.983,9.438C149.141,295.132,149.141,285.216,149.141,274.589z"/>
	<path fill-rule="evenodd" clip-rule="evenodd" fill="#84BFF4" d="M250.106,403.188c-0.002,11.312-0.006,22.619-0.012,33.93
		c-15.673-8.752-31.356-17.475-46.996-26.281c-4.715-2.648-11.078-4.49-13.453-8.576c-2.382-4.102-0.792-10.541-0.819-15.957
		c-0.05-10.723,0.083-21.455-0.07-32.176c-0.046-3.301,0.7-3.914,4-2.967c12.035,3.451,24.167,6.578,36.282,9.746
		c2.422,0.633,3.468,1.66,3.389,4.43c-0.232,8.387,0.011,16.791-0.141,25.178c-0.042,2.477,0.585,3.881,2.963,4.982
		C240.299,397.853,245.166,400.601,250.106,403.188z"/>
</g>
<path fill-rule="evenodd" clip-rule="evenodd" fill="#3A2D40" d="M204.184,139.854c0-9.463,0.023-18.262-0.023-27.06
	c-0.005-1.502,0.842-2.183,1.952-2.848c3.563-2.146,7.106-4.333,11.441-6.987c0,9.851,0.004,19.052,0,28.253
	c0,1.047-0.548,1.634-1.469,2.125C212.295,135.354,208.547,137.456,204.184,139.854z"/>
<path fill-rule="evenodd" clip-rule="evenodd" fill="#3A2D40" d="M149.141,274.589c0,10.627,0,20.543,0,31.211
	c-7.833-3.189-15.483-6.139-22.983-9.438c-2.489-1.098-1.703-10.506,0.866-11.703C134.14,281.337,141.316,278.138,149.141,274.589z"
	/>
</svg>
