<?xml version="1.0" encoding="utf-8"?>
<!-- Generator: Adobe Illustrator 20.1.0, SVG Export Plug-In . SVG Version: 6.00 Build 0)  -->
<svg version="1.1" id="Layer_1" xmlns="http://www.w3.org/2000/svg" xmlns:xlink="http://www.w3.org/1999/xlink" x="0px" y="0px"
	 viewBox="0 0 500 300" style="enable-background:new 0 0 500 300;" xml:space="preserve">
<style type="text/css">
	.st0{fill:#FFFFFF;}
	.st1{display:none;}
	.st2{display:inline;fill:#FFFFFF;}
</style>
<g>
	<g>
		<path class="st0" d="M224.9,241c-6.2,0-11.8,2.5-16,6.6c-4.1,4.1-6.6,9.7-6.6,16c0,6.2,2.5,11.8,6.6,16c4.1,4.1,9.7,6.6,16,6.6
			c6.2,0,11.8-2.5,16-6.6c4.1-4.1,6.6-9.7,6.6-16c0-6.2-2.5-11.8-6.6-16C236.7,243.5,231.1,241,224.9,241 M242.6,245.7L242.6,245.7
			 M224.9,238.2c13.9,0,25.2,11.3,25.2,25.2c0,13.9-11.3,25.2-25.2,25.2c-13.9,0-25.2-11.3-25.2-25.2
			C199.8,249.5,211,238.2,224.9,238.2 M207.2,245.7L207.2,245.7"/>
		<path class="st0" d="M212.9,263.2c0-1.5-1-2.2-2.4-2.2h-0.8v4.6h0.8C211.9,265.5,212.9,264.8,212.9,263.2 M228,264.9l-6.2,4.9
			l-5.7-4.5c-0.8,2-2.8,3.4-5,3.4h-4.9v-10.8h4.9c2.5,0,4.3,1.7,5,3.4l5.7-4.5l2.1,1.7l-5.2,4.1l1,0.8l5.2-4.1l2.1,1.7l-5.2,4.1
			l1,0.8l5.2-4.1V258h3.8v7.7h3.8v3.2H228L228,264.9L228,264.9z M240.3,265.5h3.8v3.2h-7.6v-10.8h3.8L240.3,265.5L240.3,265.5z"/>
		<rect x="262.2" y="238.2" class="st0" width="1.3" height="50.4"/>
	</g>
	<g class="st1">
		<path class="st2" d="M262.7,250.2l15.5-2.1v15h-15.5 M280.2,247.8l20.6-2.9v18.2h-20.6 M262.7,264.8h15.5v15.1l-15.5-2.2
			 M280.2,264.9h20.6V283l-20.6-2.9"/>
		<path class="st2" d="M313.3,252.3c1,0,1.8,0,2.8,0c1.4,5.3,2.9,10.6,4.3,16c0.3,1.1,0.6,2.2,0.7,3.4c1.5-6.4,3.6-12.9,5.3-19.3
			c0.8,0,1.7,0,2.4,0c1.3,4.6,2.5,9.2,3.8,13.9c0.4,1.8,1.1,3.6,1.3,5.6c1.4-6.4,3.4-12.9,4.9-19.3c1,0,1.8,0,2.8,0
			c-2,7.4-4.1,14.7-6.2,22.1h-2.8c-1.5-5.3-2.9-10.6-4.5-16c-0.3-0.8-0.4-1.7-0.4-2.7c-0.1,0.7-0.3,1.5-0.4,2.2
			c-1.5,5.5-3.1,10.8-4.5,16.2c-1,0-2,0-2.9,0C317.6,267.1,315.4,259.7,313.3,252.3"/>
		<path class="st2" d="M343.5,252.4c0.1-1,1-1.5,1.8-1.4c1,0.1,1.5,1,1.4,1.8c-0.1,1-1,1.5-1.8,1.4c-0.7-0.1-1.4-0.7-1.4-1.4
			 M343.8,258.6h2.5v15.8h-2.5"/>
		<path class="st2" d="M353,261.1c1.4-2.5,4.8-3.8,7.4-2.5c2.1,0.8,2.9,3.4,2.9,5.5c0.1,3.5,0,7,0,10.5c-0.8,0-1.7,0-2.5,0
			c0-3.4,0.1-6.7,0-10.1c0-1.7-0.7-3.6-2.5-4.1c-2.7-0.8-5.3,1.5-5.3,4.2c-0.1,3.4,0,6.6,0,9.9h-2.5c0-5.3,0-10.6,0-15.8h2.5
			C353,259.4,353,260.3,353,261.1"/>
		<path class="st2" d="M378.5,251c0.8,0,1.7,0,2.5,0v23.4h-2.5c0-0.8,0-1.7,0-2.5c-1.8,3.2-6.7,3.9-9.4,1.5c-2-1.7-2.5-4.5-2.5-7
			c0-2.5,0.8-5.2,2.9-6.9c2.7-2.1,7.3-2.1,9.1,1.1C378.5,257.5,378.5,254.3,378.5,251 M373.2,260.3c-2,0.3-3.4,2.1-3.8,4.1
			c-0.6,2.2-0.4,4.9,1,6.9c1.5,2.1,5,2.1,6.7,0.1c1.1-1.1,1.4-2.8,1.4-4.5c0-1.7,0.1-3.5-1-4.9C376.7,260.6,374.8,260,373.2,260.3"
			/>
		<path class="st2" d="M390.8,258.2c2.2-0.1,4.8,0.1,6.4,1.8c2,1.8,2.5,4.5,2.4,7c0,2.2-0.8,4.5-2.5,6c-3.4,3.1-9.8,2.4-11.9-1.8
			c-1.7-3.6-1.4-8.5,1.8-11.2C388,258.9,389.4,258.5,390.8,258.2 M390.4,260.4c-3.6,1.1-4.3,5.9-3.2,9.1c1,2.8,4.5,4.1,7,2.8
			c1.7-0.8,2.5-2.8,2.7-4.5c0.1-2.1,0-4.5-1.4-6.2C394.2,260.3,392.1,260,390.4,260.4"/>
		<path class="st2" d="M400.6,258.6h2.7c1,3.8,2.1,7.6,3.1,11.3c0.3,0.7,0.3,1.4,0.4,2.2c1.1-4.6,2.7-9,4.1-13.6h2.2
			c1.1,4.5,2.5,9,3.5,13.6c1-4.5,2.4-9,3.5-13.4c0.8,0,1.7,0,2.5,0c-1.5,5.3-3.1,10.6-4.8,16h-2.7c-1.1-4.3-2.7-8.5-3.5-12.9
			c-1.1,4.3-2.7,8.5-3.9,12.9h-2.4C403.7,269.2,402.1,263.9,400.6,258.6"/>
		<path class="st2" d="M428.9,258.2c1.5-0.1,3.2,0,4.6,0.6c0.4,0.8,0.1,1.8,0.1,2.7c-1.8-1.1-4.2-1.8-6.2-0.7
			c-1.3,0.7-1.4,2.8-0.1,3.6c1.8,1.1,4.2,1.5,5.7,3.1c1.8,1.7,1.4,5-0.7,6.3c-2.5,1.7-5.9,1.4-8.5,0.3c0-1,0-1.8,0-2.8
			c2,1.4,4.6,2.2,6.9,1.3c1.3-0.7,1.4-2.7,0.3-3.5c-1.8-1.4-4.3-1.5-6-3.2c-1.5-1.7-1.3-4.6,0.4-5.9
			C426.3,258.7,427.6,258.5,428.9,258.2"/>
		<path class="st2" d="M446.2,252c0.3,0,0.7-0.1,0.8-0.1c0,7.6,0,15.1,0,22.7h-2.5c0-6.3,0-12.6,0-18.9c-1.5,1.1-3.2,2-5.2,2.5
			c0-0.8,0-1.7,0-2.5C442,254.8,444.3,253.6,446.2,252"/>
		<path class="st2" d="M456.3,252c2.2-0.4,4.6,0.4,5.9,2.2c1.8,2.7,2,5.9,2.1,9c0,3.2-0.4,6.7-2.5,9.4c-2,2.5-5.7,3.1-8.4,1.3
			c-2.1-1.5-2.9-4.1-3.2-6.4c-0.4-3.6-0.4-7.3,0.8-10.8C451.8,254.3,453.8,252.3,456.3,252 M455.9,254.3c-2.2,0.8-2.8,3.5-3.2,5.7
			c-0.3,2.9-0.4,6,0.3,9c0.4,1.4,1.1,2.9,2.5,3.6c1.7,0.8,3.8,0.1,4.6-1.5c1.4-2.4,1.4-5.2,1.4-7.8c0-2.5-0.1-5.3-1.5-7.6
			C459.2,254.1,457.4,253.6,455.9,254.3"/>
	</g>
	<g>
		<g>
			<polygon class="st0" points="291.1,262.9 313.1,262.9 313.1,243.6 291.1,246.6 			"/>
			<polygon class="st0" points="290.4,262.9 290.4,246.7 273.5,249.1 273.5,262.9 			"/>
			<polygon class="st0" points="290.4,263.5 273.5,263.5 273.5,277.4 290.4,279.7 			"/>
			<polygon class="st0" points="291.1,263.5 291.1,279.7 313.1,282.8 313.1,263.5 			"/>
		</g>
		<g>
			<path class="st0" d="M360.6,253c0,0.6-0.1,0.8-0.6,1.3c-0.3,0.3-0.7,0.6-1.3,0.6c-0.4,0-0.8-0.1-1.3-0.4
				c-0.3-0.3-0.6-0.7-0.6-1.3c0-0.4,0.1-0.8,0.6-1.3c0.3-0.3,0.7-0.6,1.3-0.6s1,0.1,1.3,0.6C360.4,252.2,360.6,252.6,360.6,253z"/>
		</g>
		<g>
			<path class="st0" d="M355.2,251.7l-6.6,23.2h-3.2l-5.2-18.3l0,0l-5.2,18.3h-3.2l-6.9-23.2h2.9l5.5,19.5l0,0l5.6-19.5h2.7
				l5.3,19.5l0,0l5.2-19.5H355.2z"/>
			<path class="st0" d="M360.1,275h-2.7v-16.7h2.7V275z"/>
			<path class="st0" d="M378.1,275h-2.7v-9.5c0-3.5-1.3-5.3-3.9-5.3c-1.3,0-2.4,0.6-3.4,1.5c-0.8,1-1.3,2.2-1.3,3.8v9.5h-2.7v-16.7
				h2.7v2.8l0,0c1.3-2.1,3.1-3.2,5.5-3.2c1.8,0,3.2,0.6,4.2,1.8c1,1.1,1.4,2.9,1.4,5V275H378.1z"/>
			<path class="st0" d="M396.5,275h-2.7v-2.8l0,0c-1.3,2.1-3.2,3.2-5.7,3.2c-2.1,0-3.8-0.7-5-2.2c-1.3-1.5-1.8-3.5-1.8-6
				c0-2.8,0.7-4.9,2.1-6.6s3.2-2.5,5.6-2.5c2.2,0,3.9,0.8,5,2.7l0,0v-10.2h2.7V275H396.5z M393.9,267.6v-2.4c0-1.4-0.4-2.5-1.4-3.4
				c-1-0.8-2.1-1.4-3.4-1.4c-1.5,0-2.9,0.6-3.8,1.8c-1,1.1-1.4,2.8-1.4,4.9c0,2,0.4,3.4,1.4,4.5c0.8,1.1,2.1,1.7,3.6,1.7
				c1.4,0,2.7-0.6,3.6-1.5C393.3,270.5,393.9,269.1,393.9,267.6z"/>
			<path class="st0" d="M416.4,266.7c0,2.7-0.7,4.8-2.2,6.3c-1.5,1.5-3.5,2.4-6,2.4c-2.5,0-4.5-0.8-5.9-2.4
				c-1.5-1.5-2.2-3.6-2.2-6.2c0-2.8,0.7-4.9,2.2-6.4c1.5-1.5,3.6-2.4,6.3-2.4c2.5,0,4.5,0.7,5.9,2.2
				C415.7,261.8,416.4,263.9,416.4,266.7z M413.6,266.7c0-2.1-0.4-3.6-1.4-4.8s-2.2-1.7-3.9-1.7c-1.7,0-3.1,0.6-4.1,1.7
				c-1,1.1-1.5,2.8-1.5,4.8s0.6,3.5,1.5,4.6c1,1.1,2.4,1.7,4.1,1.7c1.7,0,3.1-0.6,4.1-1.7C413.2,270.4,413.6,268.8,413.6,266.7z"/>
			<path class="st0" d="M440.6,258.5l-5,16.7h-2.8l-3.6-13l0,0l-4.1,12.9h-2.7l-5-16.7h2.8l3.6,13.4h0.1l4.1-13.4h2.4l3.8,13.4h0.1
				l3.6-13.4h2.7V258.5z"/>
			<path class="st0" d="M452,270.6c0,1.4-0.6,2.7-1.7,3.5c-1.1,0.8-2.7,1.4-4.5,1.4c-1.5,0-2.9-0.3-4.2-1v-2.8
				c1.3,1.1,2.8,1.5,4.3,1.5c2.1,0,3.2-0.8,3.2-2.4c0-0.6-0.1-1.1-0.6-1.5c-0.4-0.4-1.4-1-2.8-1.5c-1.5-0.6-2.5-1.3-3.1-2
				c-0.6-0.7-1-1.7-1-2.8c0-1.4,0.6-2.5,1.7-3.5c1.1-1,2.5-1.4,4.2-1.4c1.3,0,2.5,0.3,3.6,0.8v2.7c-1.1-0.8-2.4-1.1-3.8-1.1
				c-0.8,0-1.5,0.3-2.1,0.7c-0.6,0.4-0.8,1-0.8,1.7c0,0.7,0.1,1.3,0.6,1.7c0.4,0.4,1.3,0.8,2.5,1.4c1.5,0.7,2.7,1.4,3.4,2.1
				C451.7,268.5,452,269.5,452,270.6z"/>
		</g>
	</g>
	<g>
		<path class="st0" d="M59.1,259.9c0,1.5-0.6,2.8-1.7,3.6s-2.7,1.3-4.6,1.3h-2.5v6.9h-1.1v-16.5h4.1
			C57.1,255.1,59.1,256.6,59.1,259.9 M50.3,263.8h2.2c1.8,0,3.2-0.3,4.1-1c0.8-0.6,1.3-1.5,1.3-2.9c0-1.3-0.4-2.2-1.1-2.8
			c-0.8-0.6-2-1-3.6-1h-2.8L50.3,263.8L50.3,263.8z"/>
		<path class="st0" d="M76.5,263.4c0,2.7-0.7,4.8-2,6.2c-1.3,1.5-3.1,2.2-5.5,2.2c-2.2,0-4.1-0.7-5.5-2.2c-1.3-1.5-2-3.6-2-6.3
			c0-2.7,0.7-4.8,2-6.2c1.3-1.5,3.1-2.2,5.5-2.2c2.2,0,4.1,0.7,5.5,2.2C75.9,258.6,76.5,260.7,76.5,263.4 M63,263.4
			c0,2.4,0.6,4.2,1.5,5.5c1.1,1.3,2.5,2,4.5,2c2,0,3.5-0.7,4.6-2s1.5-3.1,1.5-5.5c0-2.4-0.6-4.2-1.5-5.5c-1.1-1.3-2.5-2-4.5-2
			c-2,0-3.5,0.7-4.5,2C63.6,259.2,63,261,63,263.4"/>
		<path class="st0" d="M93.4,271.6h-1l-3.6-12.7c-0.3-1-0.6-2-0.7-2.5c-0.1,0.7-0.3,1.4-0.6,2.2c-0.3,0.8-1.4,5.2-3.6,13h-1
			l-4.5-16.5h1.3l2.9,10.6c0.1,0.4,0.3,0.8,0.3,1.3c0.1,0.4,0.1,0.7,0.3,1c0.1,0.3,0.1,0.6,0.3,1c0,0.3,0.1,0.6,0.1,0.8
			c0.1-1,0.6-2.5,1.1-4.6l2.8-10.1h1.3l3.4,11.5c0.4,1.3,0.7,2.4,0.8,3.2c0.1-0.6,0.3-1.1,0.4-1.7c0.1-0.6,1.3-4.9,3.5-13H98
			L93.4,271.6z"/>
		<polygon class="st0" points="109.9,271.6 100.9,271.6 100.9,255.1 109.9,255.1 109.9,256.2 102.1,256.2 102.1,262.4 109.5,262.4 
			109.5,263.5 102.1,263.5 102.1,270.5 109.9,270.5 		"/>
		<path class="st0" d="M114.8,264.5v7.1h-1.1v-16.5h3.9c2.1,0,3.5,0.4,4.5,1.1c1,0.7,1.4,2,1.4,3.4c0,1.1-0.3,2.1-0.8,2.8
			c-0.6,0.7-1.5,1.3-2.7,1.7l4.5,7.6h-1.4l-4.2-7.1L114.8,264.5L114.8,264.5z M114.8,263.5h3.1c1.4,0,2.5-0.3,3.2-1
			c0.7-0.6,1.1-1.5,1.1-2.8s-0.4-2.2-1.1-2.8c-0.7-0.6-2-0.8-3.6-0.8h-2.8v7.4H114.8z"/>
		<polygon class="st0" points="136.4,271.6 127.4,271.6 127.4,255.1 136.4,255.1 136.4,256.2 128.5,256.2 128.5,262.4 135.9,262.4 
			135.9,263.5 128.5,263.5 128.5,270.5 136.4,270.5 		"/>
		<path class="st0" d="M152.7,263.2c0,2.8-0.7,4.9-2.2,6.3c-1.4,1.4-3.6,2.1-6.4,2.1h-3.9v-16.5h4.5c2.7,0,4.6,0.7,6,2.1
			C152,258.6,152.7,260.6,152.7,263.2 M151.5,263.2c0-2.4-0.6-4.2-1.8-5.3c-1.3-1.3-2.9-1.8-5.3-1.8h-3.1v14.4h2.8
			C149,270.6,151.5,268.1,151.5,263.2"/>
		<path class="st0" d="M162.5,255.1h4.5c2.1,0,3.5,0.3,4.5,1c1,0.7,1.4,1.7,1.4,3.1c0,1-0.3,1.8-0.8,2.4c-0.6,0.7-1.4,1-2.5,1.3l0,0
			c1.3,0.1,2.2,0.6,2.9,1.3c0.6,0.7,1,1.5,1,2.7c0,1.5-0.6,2.7-1.5,3.5c-1,0.8-2.4,1.3-4.3,1.3h-5L162.5,255.1L162.5,255.1z
			 M163.6,262.5h3.6c1.5,0,2.7-0.3,3.4-0.8s1.1-1.3,1.1-2.4s-0.4-2-1.3-2.4c-0.8-0.6-2-0.7-3.5-0.7h-3.4V262.5z M163.6,263.5v7.1
			h3.9c3.1,0,4.6-1.3,4.6-3.8c0-2.2-1.5-3.4-4.9-3.4H163.6z"/>
		<polygon class="st0" points="180.7,264.2 185.6,255.1 186.9,255.1 181.3,265.2 181.3,271.6 180.2,271.6 180.2,265.3 174.6,255.1 
			176,255.1 		"/>
	</g>
	<g>
		<path class="st0" d="M34.7,188.2c0.6,0.3,1,0.6,1.4,0.8c0.4,0.4,0.7,0.8,0.8,1.4c0.3,0.6,0.3,1.1,0.3,1.7v20.4
			c0,0.1,0,0.4-0.1,0.4c-0.1,0.1-0.3,0.1-0.4,0.1h-5c-0.1,0-0.3,0-0.4-0.1c-0.1-0.1-0.1-0.3-0.1-0.4v-18.5H27v18.5
			c0,0.1,0,0.4-0.1,0.4c-0.1,0.1-0.3,0.1-0.4,0.1h-4.6c-0.1,0-0.4,0-0.4-0.1c-0.1-0.1-0.1-0.3-0.1-0.4v-18.5h-4.1v18.5
			c0,0.4-0.3,0.7-0.7,0.7h-5c-0.4,0-0.7-0.3-0.7-0.7v-23.9c0-0.4,0.3-0.7,0.7-0.7h21.8C33.8,187.8,34.3,187.9,34.7,188.2"/>
		<path class="st0" d="M60.1,187.8c0.6,0,1.1,0.1,1.7,0.3c0.6,0.3,1,0.6,1.4,0.8c0.4,0.4,0.7,0.8,0.8,1.4c0.3,0.6,0.3,1.1,0.3,1.7
			v20.4c0,0.1,0,0.4-0.1,0.4c-0.1,0.1-0.3,0.1-0.4,0.1h-5c-0.1,0-0.4,0-0.4-0.1c-0.1-0.1-0.1-0.3-0.1-0.4V206c0-0.1,0-0.4-0.1-0.4
			c-0.1-0.1-0.3-0.1-0.4-0.1h-7.1c-0.1,0-0.4,0-0.4,0.1c-0.1,0.1-0.1,0.3-0.1,0.4v6.4c0,0.4-0.3,0.7-0.7,0.7h-5
			c-0.4,0-0.7-0.3-0.7-0.7V192c0-0.6,0.1-1.1,0.3-1.7c0.3-0.6,0.6-1,0.8-1.4c0.4-0.4,0.8-0.7,1.4-0.8c0.6-0.3,1.1-0.3,1.7-0.3H60.1z
			 M57.8,193.5h-8.5v6.3h8.5V193.5z"/>
		<path class="st0" d="M87.1,188.1c0.1,0.1,0.1,0.3,0.1,0.4v20.4c0,0.6-0.1,1.1-0.3,1.7c-0.3,0.6-0.6,1-0.8,1.4
			c-0.4,0.4-0.8,0.7-1.4,0.8c-0.6,0.3-1.1,0.3-1.7,0.3H72.1c-0.6,0-1.1-0.1-1.7-0.3c-0.6-0.3-1-0.6-1.4-0.8
			c-0.4-0.4-0.7-0.8-0.8-1.4c-0.3-0.6-0.3-1.1-0.3-1.7v-7.7c0-0.4,0.3-0.7,0.7-0.7h5c0.4,0,0.7,0.3,0.7,0.7v5.2c0,0.1,0,0.3,0.1,0.4
			c0.1,0.1,0.3,0.1,0.4,0.1h5.2c0.1,0,0.4,0,0.4-0.1c0.1-0.1,0.1-0.3,0.1-0.4v-17.8c0-0.1,0-0.4,0.1-0.4c0.1-0.1,0.3-0.1,0.4-0.1h5
			C86.7,187.8,87,187.9,87.1,188.1"/>
		<path class="st0" d="M109.9,187.8c0.6,0,1.1,0.1,1.7,0.3c0.6,0.3,1,0.6,1.4,0.8c0.4,0.4,0.7,0.8,0.8,1.4c0.3,0.6,0.3,1.1,0.3,1.7
			v16.8c0,0.6-0.1,1.1-0.3,1.7c-0.3,0.6-0.6,1-0.8,1.4c-0.4,0.4-0.8,0.7-1.4,0.8c-0.6,0.3-1.1,0.3-1.7,0.3H97.2
			c-0.6,0-1.1-0.1-1.7-0.3c-0.6-0.3-1-0.6-1.4-0.8c-0.4-0.4-0.7-0.8-0.8-1.4c-0.3-0.6-0.3-1.1-0.3-1.7V192c0-0.6,0.1-1.1,0.3-1.7
			c0.3-0.6,0.6-1,0.8-1.4c0.3-0.4,0.8-0.7,1.4-0.8c0.6-0.3,1.1-0.3,1.7-0.3H109.9z M107.7,193.9h-8.5v13h8.5V193.9z"/>
		<path class="st0" d="M141.8,212.6c0.1,0.1,0.1,0.3,0,0.4c-0.1,0.1-0.1,0.1-0.4,0.1h-5.7c-0.1,0-0.4,0-0.6-0.1
			c-0.1-0.1-0.3-0.3-0.4-0.4l-3.8-6.9c0-0.1-0.1-0.1-0.3-0.1h-4.3c-0.1,0-0.1,0-0.1,0.1v6.7c0,0.4-0.3,0.7-0.7,0.7h-5
			c-0.4,0-0.7-0.3-0.7-0.7v-23.9c0-0.4,0.3-0.7,0.7-0.7h16.4c0.6,0,1.1,0.1,1.7,0.3c0.6,0.3,1,0.6,1.4,0.8c0.4,0.4,0.7,0.8,0.8,1.4
			c0.3,0.6,0.3,1.1,0.3,1.7v9.5c0,1-0.3,1.7-0.8,2.5c-0.6,0.7-1.3,1.3-2.1,1.5h-0.1c-0.1,0-0.1,0.1-0.1,0.3v0.1L141.8,212.6z
			 M134.7,193.7H126v6.2h8.7V193.7z"/>
		<path class="st0" d="M175.8,207c0.1,0,0.3,0,0.4,0.1c0.1,0.1,0.1,0.3,0.1,0.4v4.8c0,0.1,0,0.4-0.1,0.4c-0.1,0.1-0.3,0.1-0.4,0.1
			h-15.5c-0.4,0-0.7-0.3-0.7-0.7v-23.9c0-0.4,0.3-0.7,0.7-0.7h5c0.4,0,0.7,0.3,0.7,0.7V206c0,0.1,0,0.3,0.1,0.4
			c0.1,0.1,0.3,0.1,0.4,0.1h9.2V207z"/>
		<path class="st0" d="M199.2,188.1c0.1,0.1,0.1,0.3,0.1,0.4v2.1v1.1v1.4c0,0.1,0,0.3-0.1,0.4c-0.1,0.1-0.3,0.1-0.4,0.1h-2.5h-7.6
			h-2c-0.1,0-0.1,0-0.1,0.1v3.9c0,0.1,0,0.1,0.1,0.1h10.4c0.1,0,0.3,0,0.4,0.1c0.1,0.1,0.1,0.3,0.1,0.4v3.6c0,0.1,0,0.4-0.1,0.4
			c-0.1,0.1-0.3,0.1-0.4,0.1h-10.4c-0.1,0-0.1,0-0.1,0.1v1.8l0,0v2.1c0,0.1,0,0.1,0.1,0.1h1.5h8.1h2.4c0.1,0,0.4,0,0.4,0.1
			c0.1,0.1,0.1,0.3,0.1,0.4v1.4v1.8v1.3c0,0.1,0,0.4-0.1,0.4c-0.1,0.1-0.3,0.1-0.4,0.1h-2.1H183h-2.1c-0.4,0-0.7-0.3-0.7-0.7v-1.3
			v-21v-1.7c0-0.1,0-0.4,0.1-0.4c0.1-0.1,0.3-0.1,0.4-0.1h2.7h14.1h1.1C198.9,187.8,199.1,187.9,199.2,188.1"/>
		<path class="st0" d="M222.1,187.8c0.6,0,1.1,0.1,1.7,0.3c0.6,0.3,1,0.6,1.4,0.8c0.4,0.4,0.7,0.8,0.8,1.4c0.3,0.6,0.3,1.1,0.3,1.7
			v20.4c0,0.1,0,0.4-0.1,0.4c-0.1,0.1-0.3,0.1-0.4,0.1h-5.2c-0.1,0-0.4,0-0.4-0.1c-0.1-0.1-0.1-0.3-0.1-0.4V206c0-0.1,0-0.4-0.1-0.4
			c-0.1-0.1-0.3-0.1-0.4-0.1h-7.3c-0.1,0-0.4,0-0.4,0.1c-0.1,0.1-0.1,0.3-0.1,0.4v6.4c0,0.4-0.3,0.7-0.7,0.7h-5
			c-0.4,0-0.7-0.3-0.7-0.7V192c0-0.6,0.1-1.1,0.3-1.7c0.3-0.6,0.6-1,0.8-1.4c0.4-0.4,0.8-0.7,1.4-0.8c0.6-0.3,1.1-0.3,1.7-0.3H222.1
			z M219.9,193.5h-8.5v6.3h8.5V193.5z"/>
		<path class="st0" d="M253.1,199.5c0.1,0.1,0.1,0.3,0.1,0.4v8.8c0,0.6-0.1,1.1-0.3,1.7c-0.3,0.6-0.6,1-0.8,1.4
			c-0.4,0.4-0.8,0.7-1.4,0.8c-0.6,0.3-1.1,0.3-1.7,0.3h-12.7c-0.6,0-1.1-0.1-1.7-0.3c-0.6-0.3-1-0.6-1.4-0.8
			c-0.4-0.4-0.7-0.8-0.8-1.4c-0.3-0.6-0.3-1.1-0.3-1.7V192c0-0.6,0.1-1.1,0.3-1.7c0.3-0.6,0.6-1,0.8-1.4c0.4-0.4,0.8-0.7,1.4-0.8
			c0.6-0.3,1.1-0.3,1.7-0.3h15c0.1,0,0.4,0,0.4,0.1c0.1,0.1,0.1,0.3,0.1,0.4v4.8c0,0.1,0,0.4-0.1,0.4c-0.1,0.1-0.3,0.1-0.4,0.1h-12
			c-0.1,0-0.4,0-0.4,0.1c-0.1,0.1-0.1,0.3-0.1,0.4V206c0,0.1,0,0.3,0.1,0.4c0.1,0.1,0.3,0.1,0.4,0.1h7.1c0.1,0,0.3,0,0.4-0.1
			c0.1-0.1,0.1-0.3,0.1-0.4v-6.3c0-0.1,0-0.4,0.1-0.4c0.1-0.1,0.3-0.1,0.4-0.1h5C252.7,199.3,252.9,199.4,253.1,199.5"/>
		<path class="st0" d="M279.7,188.1c0.1,0.1,0.1,0.3,0.1,0.4v20.4c0,0.6-0.1,1.1-0.3,1.7c-0.3,0.6-0.6,1-0.8,1.4
			c-0.4,0.4-0.8,0.7-1.4,0.8c-0.6,0.3-1.1,0.3-1.7,0.3h-12.7c-0.6,0-1.1-0.1-1.7-0.3c-0.6-0.3-1-0.6-1.4-0.8
			c-0.4-0.4-0.7-0.8-0.8-1.4c-0.3-0.6-0.3-1.1-0.3-1.7v-20.4c0-0.4,0.3-0.7,0.7-0.7h5c0.4,0,0.7,0.3,0.7,0.7v17.8
			c0,0.1,0,0.3,0.1,0.4c0.1,0.1,0.3,0.1,0.4,0.1h7.1c0.1,0,0.3,0,0.4-0.1c0.1-0.1,0.1-0.3,0.1-0.4v-17.8c0-0.1,0-0.4,0.1-0.4
			c0.1-0.1,0.3-0.1,0.4-0.1h5C279.4,187.8,279.5,187.9,279.7,188.1"/>
		<path class="st0" d="M304.7,188.1c0.1,0.1,0.1,0.3,0.1,0.4v2.1v1.1v1.4c0,0.1,0,0.3-0.1,0.4c-0.1,0.1-0.3,0.1-0.4,0.1h-2.5h-7.6
			h-2c-0.1,0-0.1,0-0.1,0.1v3.9c0,0.1,0,0.1,0.1,0.1h10.4c0.1,0,0.3,0,0.4,0.1c0.1,0.1,0.1,0.3,0.1,0.4v3.6c0,0.1,0,0.4-0.1,0.4
			c-0.1,0.1-0.3,0.1-0.4,0.1h-10.4c-0.1,0-0.1,0-0.1,0.1v1.8l0,0v2.1c0,0.1,0,0.1,0.1,0.1h1.5h8.1h2.4c0.1,0,0.4,0,0.4,0.1
			c0.1,0.1,0.1,0.3,0.1,0.4v1.4v1.8v1.3c0,0.1,0,0.4-0.1,0.4c-0.1,0.1-0.3,0.1-0.4,0.1h-2.1h-13.7h-2.1c-0.4,0-0.7-0.3-0.7-0.7v-1.3
			v-21v-1.7c0-0.1,0-0.4,0.1-0.4c0.1-0.1,0.3-0.1,0.4-0.1h2.7H303h1.1C304.4,187.8,304.6,187.9,304.7,188.1"/>
		<path class="st0" d="M343.5,187.8c0.1,0,0.4,0,0.4,0.1c0.1,0.1,0.1,0.3,0.1,0.4v23.9c0,0.1,0,0.4-0.1,0.4
			c-0.1,0.1-0.3,0.1-0.4,0.1h-5c-0.1,0-0.4,0-0.4-0.1c-0.1-0.1-0.1-0.3-0.1-0.4v-8.4c0-0.1,0-0.3-0.1-0.4c-0.1-0.1-0.3-0.1-0.4-0.1
			h-7.1c-0.1,0-0.4,0-0.4,0.1c-0.1,0.1-0.1,0.3-0.1,0.4v8.4c0,0.4-0.3,0.7-0.7,0.7h-5c-0.4,0-0.7-0.3-0.7-0.7v-23.9
			c0-0.4,0.3-0.7,0.7-0.7h5c0.4,0,0.7,0.3,0.7,0.7v8.1c0,0.4,0.3,0.7,0.7,0.7h7.1c0.1,0,0.3,0,0.4-0.1c0.1-0.1,0.1-0.3,0.1-0.4v-8.1
			c0-0.1,0-0.4,0.1-0.4c0.1-0.1,0.3-0.1,0.4-0.1h4.9V187.8z"/>
		<path class="st0" d="M366.9,187.8c0.6,0,1.1,0.1,1.7,0.3c0.6,0.3,1,0.6,1.4,0.8c0.4,0.4,0.7,0.8,0.8,1.4c0.3,0.6,0.3,1.1,0.3,1.7
			v20.4c0,0.1,0,0.4-0.1,0.4c-0.1,0.1-0.3,0.1-0.4,0.1h-5c-0.1,0-0.4,0-0.4-0.1c-0.1-0.1-0.1-0.3-0.1-0.4V206c0-0.1,0-0.4-0.1-0.4
			c-0.1-0.1-0.3-0.1-0.4-0.1h-7.1c-0.1,0-0.4,0-0.4,0.1c-0.1,0.1-0.1,0.3-0.1,0.4v6.4c0,0.4-0.3,0.7-0.7,0.7h-5
			c-0.4,0-0.7-0.3-0.7-0.7V192c0-0.6,0.1-1.1,0.3-1.7c0.3-0.6,0.6-1,0.8-1.4c0.4-0.4,0.8-0.7,1.4-0.8c0.6-0.3,1.1-0.3,1.7-0.3H366.9
			z M364.8,193.5h-8.5v6.3h8.5V193.5z"/>
		<path class="st0" d="M383.2,194.1c-0.1,0.1-0.1,0.3-0.1,0.4v11.8c0,0.1,0,0.3,0.1,0.4c0.1,0.1,0.3,0.1,0.4,0.1h11.6
			c0.1,0,0.4,0,0.4,0.1c0.1,0.1,0.1,0.3,0.1,0.4v4.8c0,0.1,0,0.4-0.1,0.4c-0.1,0.1-0.3,0.1-0.4,0.1h-7.6h-6.2h-0.7
			c-0.6,0-1.1-0.1-1.7-0.3c-0.6-0.3-1-0.6-1.4-0.8c-0.4-0.4-0.7-0.8-0.8-1.4c-0.3-0.6-0.3-1.1-0.3-1.7v-0.7v-2.7v-8.4v-2.4v-2.8
			c0-0.6,0.1-1.1,0.3-1.7c0.3-0.6,0.6-1,0.8-1.4c0.4-0.4,0.8-0.7,1.4-0.8c0.6-0.3,1.1-0.3,1.7-0.3h0.7h13.7c0.1,0,0.4,0,0.4,0.1
			c0.1,0.1,0.1,0.3,0.1,0.4v4.8c0,0.1,0,0.4-0.1,0.4c-0.1,0.1-0.3,0.1-0.4,0.1h-11.6C383.5,193.9,383.4,194.1,383.2,194.1"/>
		<path class="st0" d="M416.1,198.4c-0.1,0.1-0.1,0.1,0,0.3l8.4,13.9c0.1,0.1,0.1,0.3,0,0.4c-0.1,0.1-0.1,0.1-0.4,0.1h-6
			c-0.1,0-0.4,0-0.6-0.1c-0.1-0.1-0.3-0.3-0.4-0.4l-5.5-9.8c-0.1-0.1-0.1-0.1-0.1,0l-2.9,3.2c-0.1,0.1-0.3,0.3-0.3,0.6
			c-0.1,0.3-0.1,0.4-0.1,0.7v5.3c0,0.4-0.3,0.7-0.7,0.7h-4.9c-0.4,0-0.7-0.3-0.7-0.7v-23.9c0-0.4,0.3-0.7,0.7-0.7h5
			c0.4,0,0.7,0.3,0.7,0.7v10.8l9.4-10.9c0.1-0.1,0.3-0.3,0.6-0.4c0.3-0.1,0.4-0.1,0.6-0.1h6c0.1,0,0.3,0,0.3,0.1
			c0,0.1,0,0.3-0.1,0.4L416.1,198.4z"/>
		<path class="st0" d="M435.7,212.4c0,0.4-0.3,0.7-0.7,0.7h-5c-0.4,0-0.7-0.3-0.7-0.7v-23.9c0-0.4,0.3-0.7,0.7-0.7h5
			c0.4,0,0.7,0.3,0.7,0.7V212.4z"/>
		<path class="st0" d="M459.9,188.2c0.6,0.3,1,0.6,1.4,0.8c0.4,0.4,0.7,0.8,0.8,1.4c0.3,0.6,0.3,1.1,0.3,1.7v20.4
			c0,0.1,0,0.4-0.1,0.4c-0.1,0.1-0.3,0.1-0.4,0.1h-5c-0.1,0-0.3,0-0.4-0.1c-0.1-0.1-0.1-0.3-0.1-0.4v-17.8c0-0.1,0-0.3-0.1-0.4
			c-0.1-0.1-0.3-0.1-0.4-0.1h-7.1c-0.1,0-0.4,0-0.4,0.1c-0.1,0.1-0.1,0.3-0.1,0.4v17.8c0,0.4-0.3,0.7-0.7,0.7h-5
			c-0.4,0-0.7-0.3-0.7-0.7v-23.9c0-0.4,0.3-0.7,0.7-0.7h16.4C459,187.8,459.5,187.9,459.9,188.2"/>
		<path class="st0" d="M489.2,199.5c0.1,0.1,0.1,0.3,0.1,0.4v8.8c0,0.6-0.1,1.1-0.3,1.7c-0.3,0.6-0.6,1-0.8,1.4
			c-0.4,0.4-0.8,0.7-1.4,0.8c-0.6,0.3-1.1,0.3-1.7,0.3h-12.7c-0.6,0-1.1-0.1-1.7-0.3c-0.6-0.3-1-0.6-1.4-0.8
			c-0.4-0.4-0.7-0.8-0.8-1.4c-0.3-0.6-0.3-1.1-0.3-1.7V192c0-0.6,0.1-1.1,0.3-1.7c0.3-0.6,0.6-1,0.8-1.4c0.4-0.4,0.8-0.7,1.4-0.8
			c0.6-0.3,1.1-0.3,1.7-0.3h15c0.1,0,0.4,0,0.4,0.1c0.1,0.1,0.1,0.3,0.1,0.4v4.8c0,0.1,0,0.4-0.1,0.4c-0.1,0.1-0.3,0.1-0.4,0.1h-12
			c-0.1,0-0.4,0-0.4,0.1c-0.1,0.1-0.1,0.3-0.1,0.4V206c0,0.1,0,0.3,0.1,0.4c0.1,0.1,0.3,0.1,0.4,0.1h7.1c0.1,0,0.3,0,0.4-0.1
			s0.1-0.3,0.1-0.4v-6.3c0-0.1,0-0.4,0.1-0.4c0.1-0.1,0.3-0.1,0.4-0.1h5C488.9,199.3,489,199.4,489.2,199.5"/>
	</g>
	<g>
		<g>
			<path class="st0" d="M163.1,13.7c3.2,1.4,6,3.4,8.4,5.7c2.4,2.4,4.2,5.2,5.7,8.4c1.4,3.2,2.1,6.7,2.1,10.4v132.7
				c0,1.3-0.4,2.2-1.3,3.1s-1.8,1.3-3.1,1.3h-31.8c-1.3,0-2.2-0.4-2.9-1.3c-0.7-0.8-1.1-1.8-1.1-3.1V50.2h-25.6v120.6
				c0,1.3-0.4,2.2-1.1,3.1c-0.7,0.8-1.8,1.3-2.9,1.3H80.7c-1.3,0-2.2-0.4-3.1-1.3s-1.3-1.8-1.3-3.1V50.2H50.7v120.6
				c0,2.9-1.4,4.3-4.3,4.3H14.9c-2.9,0-4.3-1.4-4.3-4.3V15.9c0-2.9,1.4-4.3,4.3-4.3h137.7C156.4,11.6,159.7,12.3,163.1,13.7"/>
			<path class="st0" d="M163.1,13.7c3.2,1.4,6,3.4,8.4,5.7c2.4,2.4,4.2,5.2,5.7,8.4c1.4,3.2,2.1,6.7,2.1,10.4v11.8l-40.2,0.3h-25.6
				H76.5H50.8l-40.2-0.3V15.8c0-2.9,1.4-4.3,4.3-4.3h137.7C156.4,11.6,159.7,12.3,163.1,13.7"/>
			<path class="st0" d="M317.7,135.4c1.3,0,2.4,0.4,3.1,1.3c0.8,0.8,1.3,2,1.3,3.2v30.9c0,1.3-0.4,2.2-1.3,3.2
				c-0.8,0.8-1.8,1.3-3.1,1.3H209c-3.1,0-4.6-1.5-4.6-4.5V16.1c0-2.9,1.5-4.5,4.6-4.5h33.3c3.1,0,4.6,1.5,4.6,4.5v115.3
				c0,1.3,0.4,2.2,1.4,3.1c0.8,0.8,2,1.1,3.2,1.1h66.2V135.4z"/>
			<path class="st0" d="M246.6,175.2H209c-3.1,0-4.6-1.5-4.6-4.5V16.1c0-2.9,1.5-4.5,4.6-4.5h33.3c3.1,0,4.6,1.5,4.6,4.5v115.3
				C246.9,132.5,246.6,175.2,246.6,175.2"/>
			<path class="st0" d="M484.8,11.6c1.3,0,2.4,0.4,3.2,1.3c0.8,0.8,1.4,2,1.4,3.2v155.2c0,1.3-0.4,2.2-1.4,3.2
				c-0.8,0.8-2,1.3-3.2,1.3H451c-1.3,0-2.4-0.4-3.2-1.3c-0.8-0.8-1.4-2-1.4-3.2v-54.2c0-1.3-0.4-2.2-1.3-3.1
				c-0.8-0.8-1.8-1.1-3.2-1.1h-47.4c-1.3,0-2.4,0.4-3.2,1.1c-0.8,0.8-1.4,1.8-1.4,3.1v54.2c0,2.9-1.5,4.5-4.6,4.5h-33.6
				c-3.1,0-4.6-1.5-4.6-4.5V16.1c0-2.9,1.5-4.5,4.6-4.5h33.6c3.1,0,4.6,1.5,4.6,4.5v52.5c0,2.9,1.5,4.5,4.6,4.5h47.4
				c1.3,0,2.4-0.4,3.2-1.3c0.8-0.8,1.3-2,1.3-3.2V16.1c0-1.3,0.4-2.2,1.4-3.2c0.8-0.8,2-1.3,3.2-1.3H484.8z"/>
			<path class="st0" d="M390,117.1v54.2c0,2.9-1.5,4.5-4.6,4.5h-33.6c-3.1,0-4.6-1.5-4.6-4.5V16.1c0-2.9,1.5-4.5,4.6-4.5h33.6
				c3.1,0,4.6,1.5,4.6,4.5v52.5V117.1z"/>
			<path class="st0" d="M484.8,11.6c1.3,0,2.4,0.4,3.2,1.3c0.8,0.8,1.4,2,1.4,3.2v155.2c0,1.3-0.4,2.2-1.4,3.2
				c-0.8,0.8-2,1.3-3.2,1.3H451c-1.3,0-2.4-0.4-3.2-1.3c-0.8-0.8-1.4-2-1.4-3.2v-54.2V68.5V16.1c0-1.3,0.4-2.2,1.4-3.2
				c0.8-0.8,2-1.3,3.2-1.3H484.8z"/>
		</g>
	</g>
</g>
</svg>
