<?xml version="1.0" encoding="utf-8"?>
<!-- Generator: Adobe Illustrator 16.0.0, SVG Export Plug-In . SVG Version: 6.00 Build 0)  -->
<!DOCTYPE svg PUBLIC "-//W3C//DTD SVG 1.1//EN" "http://www.w3.org/Graphics/SVG/1.1/DTD/svg11.dtd">
<svg version="1.1" id="Layer_1" xmlns="http://www.w3.org/2000/svg" xmlns:xlink="http://www.w3.org/1999/xlink" x="0px" y="0px"
	 width="500px" height="72.591px" viewBox="0 215.5 500 72.591" enable-background="new 0 215.5 500 72.591" xml:space="preserve">
<g>
	<path fill="#FFFFFF" stroke="#FFFFFF" stroke-miterlimit="10" d="M43.507,219.999c2.123,2.37,4.26,4.73,6.36,7.119
		c0.492,0.562,0.97,0.438,1.556,0.246c2.615-0.857,5.252-1.644,7.853-2.546c0.961-0.333,1.242-0.11,1.429,0.856
		c0.505,2.608,1.18,5.185,1.673,7.795c0.197,1.022,0.704,1.417,1.659,1.606c2.653,0.523,5.286,1.151,7.942,1.673
		c0.838,0.162,0.977,0.422,0.698,1.247c-0.899,2.653-1.655,5.351-2.551,8.004c-0.263,0.782-0.108,1.227,0.479,1.743
		c2.106,1.853,4.145,3.78,6.264,5.62c0.64,0.559,0.672,0.846,0.017,1.418c-1.964,1.719-3.821,3.566-5.813,5.254
		c-0.937,0.796-1.216,1.486-0.761,2.695c0.88,2.348,1.533,4.781,2.353,7.154c0.334,0.966,0.34,1.42-0.876,1.635
		c-2.616,0.459-5.19,1.146-7.79,1.677c-0.866,0.177-1.285,0.519-1.454,1.449c-0.478,2.612-1.125,5.191-1.638,7.796
		c-0.199,1.004-0.463,1.38-1.596,0.968c-2.448-0.883-4.976-1.558-7.441-2.401c-0.944-0.324-1.541-0.249-2.233,0.576
		c-1.674,2.004-3.531,3.851-5.228,5.836c-0.699,0.823-1.087,0.948-1.847,0.055c-1.657-1.954-3.481-3.768-5.147-5.712
		c-0.727-0.851-1.364-1.096-2.458-0.696c-2.446,0.894-4.964,1.598-7.43,2.445c-0.9,0.309-1.275,0.164-1.469-0.82
		c-0.528-2.652-1.197-5.278-1.711-7.933c-0.175-0.91-0.579-1.282-1.458-1.452c-2.658-0.517-5.294-1.133-7.95-1.663
		c-0.877-0.172-1.179-0.42-0.838-1.402c0.893-2.55,1.606-5.163,2.477-7.726c0.291-0.85,0.224-1.39-0.491-1.999
		c-1.981-1.7-3.886-3.491-5.835-5.231c-0.31-0.276-0.523-0.721-1.039-0.701c0-0.194,0-0.385,0-0.58
		c2.58-1.955,4.794-4.314,7.226-6.436c0.547-0.474,0.296-0.922,0.131-1.432c-0.841-2.616-1.616-5.256-2.529-7.846
		c-0.337-0.968-0.111-1.262,0.824-1.45c2.649-0.535,5.27-1.198,7.922-1.7c0.92-0.175,1.277-0.597,1.446-1.455
		c0.495-2.51,1.099-4.997,1.569-7.51c0.225-1.197,0.514-1.715,1.908-1.187c2.388,0.905,4.879,1.528,7.29,2.37
		c0.93,0.326,1.481,0.153,2.112-0.576c1.994-2.297,4.065-4.528,6.104-6.781C43.316,219.999,43.412,219.999,43.507,219.999z
		 M43.295,277.832c13.097,0.004,23.812-10.693,23.747-23.713c-0.064-12.91-10.729-23.58-23.603-23.61
		c-12.879-0.029-23.706,10.683-23.715,23.469C19.718,267.158,30.26,277.827,43.295,277.832z"/>
	<path fill="#FFFFFF" stroke="#FFFFFF" stroke-miterlimit="10" d="M490.496,243.02c0.098-0.02,0.191-0.041,0.291-0.062
		c0,2.905,0,5.812,0,8.72c-0.099-0.02-0.194-0.039-0.291-0.056C490.496,248.754,490.496,245.886,490.496,243.02z"/>
	<path fill="#FFFFFF" stroke="#FFFFFF" stroke-miterlimit="10" d="M282.995,262.604c1.45-6.11,2.902-12.217,4.349-18.324
		c0.994-4.189,1.997-8.372,2.968-12.564c0.196-0.857,0.519-1.272,1.521-1.239c2.564,0.086,5.133,0.064,7.698,0.013
		c1.001-0.018,1.383,0.124,1.07,1.28c-4.069,15.017-8.103,30.043-12.115,45.077c-0.22,0.827-0.601,1.025-1.406,1.01
		c-2.663-0.052-5.329-0.082-7.991,0.01c-1.029,0.031-1.396-0.299-1.635-1.269c-2.392-9.763-4.835-19.516-7.266-29.272
		c-0.107-0.419-0.232-0.833-0.448-1.603c-0.952,3.856-1.826,7.388-2.698,10.923c-1.65,6.713-3.32,13.422-4.914,20.146
		c-0.204,0.855-0.528,1.073-1.345,1.059c-2.712-0.044-5.424-0.061-8.136,0.009c-1.041,0.028-1.479-0.249-1.758-1.324
		c-3.207-12.298-6.484-24.578-9.74-36.863c-0.718-2.708-1.371-5.438-2.158-8.128c-0.271-0.943,0.007-1.06,0.829-1.051
		c2.712,0.033,5.429,0.084,8.136-0.022c1.104-0.043,1.377,0.434,1.585,1.34c1.932,8.432,3.891,16.859,5.851,25.288
		c0.403,1.741,0.821,3.478,1.326,5.616c0.867-3.348,1.649-6.327,2.412-9.314c1.853-7.254,3.714-14.514,5.524-21.78
		c0.22-0.872,0.571-1.16,1.465-1.137c2.423,0.062,4.847,0.09,7.263-0.008c1.105-0.047,1.484,0.366,1.726,1.365
		c2.401,9.812,4.843,19.612,7.274,29.416c0.114,0.465,0.248,0.922,0.375,1.385C282.833,262.631,282.914,262.612,282.995,262.604z"/>
	<path fill="#FFFFFF" stroke="#FFFFFF" stroke-miterlimit="10" d="M133.328,277.833c-3.291,0-6.429-0.021-9.567,0.02
		c-0.731,0.011-0.865-0.405-1.048-0.927c-1.019-2.868-2.079-5.72-3.071-8.598c-0.26-0.751-0.615-1.029-1.444-1.021
		c-5.328,0.042-10.654,0.042-15.978,0.001c-0.865-0.007-1.268,0.248-1.556,1.08c-0.979,2.832-2.065,5.624-3.079,8.442
		c-0.231,0.639-0.454,1.046-1.28,1.031c-2.998-0.062-6-0.026-9.002-0.026c-0.252-0.503,0.083-0.863,0.221-1.229
		c5.63-14.915,11.283-29.819,16.884-44.745c0.387-1.027,0.828-1.418,1.944-1.383c2.662,0.089,5.329,0.084,7.99,0
		c1.004-0.029,1.439,0.317,1.775,1.227c4.844,13.04,9.726,26.069,14.595,39.1C131.57,273.098,132.422,275.401,133.328,277.833z
		 M110.251,242.371c-2.177,5.936-4.219,11.487-6.288,17.116c4.201,0,8.255,0,12.458,0
		C114.389,253.846,112.385,248.287,110.251,242.371z"/>
	<path fill="#FFFFFF" stroke="#FFFFFF" stroke-miterlimit="10" d="M405.506,247.825c3.858-4.893,8.774-5.916,14.353-4.773
		c4.991,1.024,7.811,4.7,8.137,10.599c0.429,7.737,0.078,15.483,0.193,23.229c0.01,0.775-0.267,0.981-1.008,0.971
		c-2.467-0.039-4.938-0.065-7.405,0.011c-0.969,0.027-1.086-0.354-1.079-1.178c0.028-6.003,0.024-12.004,0.005-18.01
		c-0.004-1.011-0.104-2.024-0.229-3.029c-0.573-4.713-3.142-6.152-7.938-5.244c-3.035,0.572-4.604,2.846-4.889,6.698
		c-0.317,4.254-0.083,8.516-0.133,12.772c-0.026,2.276-0.042,4.551,0.011,6.827c0.022,0.867-0.199,1.184-1.122,1.161
		c-2.226-0.069-4.453-0.08-6.679,0c-1.032,0.035-1.288-0.294-1.283-1.297c0.039-7.409,0.021-14.817,0.021-22.221
		c0-7.455,0.03-14.911-0.031-22.365c-0.008-1.24,0.368-1.551,1.55-1.497c2.079,0.091,4.163,0.076,6.243,0.003
		c1.007-0.034,1.32,0.26,1.308,1.288c-0.05,4.84-0.021,9.68-0.021,14.523C405.506,246.804,405.506,247.315,405.506,247.825z"/>
	<path fill="#FFFFFF" stroke="#FFFFFF" stroke-miterlimit="10" d="M357.215,274.355c-4.621,3.863-9.848,4.551-15.395,3.458
		c-4.653-0.921-7.495-4.335-7.685-8.908c-0.221-5.388,2.021-8.749,6.864-10.246c3.302-1.021,6.729-1.324,10.139-1.729
		c1.106-0.13,2.206-0.324,3.248-0.714c1.327-0.5,2.431-1.196,2.466-2.856c0.046-2.031-0.652-3.58-2.263-4.17
		c-2.482-0.908-5.021-0.971-7.475,0.188c-1.324,0.627-2.041,1.768-2.258,3.181c-0.148,0.952-0.574,1.213-1.528,1.18
		c-2.32-0.077-4.647-0.059-6.971-0.006c-0.913,0.022-1.257-0.127-1.11-1.18c0.63-4.512,3.298-7.407,7.387-8.885
		c5.771-2.089,11.697-2.065,17.507-0.134c4.392,1.458,6.209,4.292,6.211,8.901c0.003,5.955-0.005,11.91,0.003,17.864
		c0.003,2.135,0.067,4.269,0.812,6.301c0.274,0.744-0.067,0.822-0.652,0.82c-2.614-0.007-5.229-0.013-7.845,0.004
		c-0.58,0.004-0.901-0.204-1.002-0.793C357.55,275.918,357.39,275.214,357.215,274.355z M356.803,260.931
		c-2.12,0.995-4.265,1.259-6.416,1.528c-1.483,0.187-2.963,0.459-4.32,1.135c-1.285,0.64-2.152,1.605-2.393,3.062
		c-0.469,2.858,0.781,4.593,3.715,5.135c4.469,0.824,8.063-0.913,9.058-4.454C357.021,265.277,356.876,263.163,356.803,260.931z"/>
	<path fill="#FFFFFF" stroke="#FFFFFF" stroke-miterlimit="10" d="M453.056,263.013c-3.68,0-7.358,0.063-11.037-0.035
		c-1.248-0.033-1.307,0.479-1.182,1.432c0.512,3.875,2.339,6.163,5.591,6.939c4.03,0.96,7.687-0.305,9.722-3.436
		c0.337-0.52,0.664-0.726,1.266-0.718c2.081,0.029,4.167,0.046,6.243,0c1.005-0.025,1.115,0.266,0.789,1.18
		c-2.278,6.341-6.881,9.662-13.465,10.239c-5.892,0.514-11.308-0.691-15.424-5.346c-7.115-8.028-6.074-25.467,7.659-29.809
		c10.613-3.352,20.58,3.016,21.988,14.058c0.179,1.392,0.264,2.787,0.318,4.19c0.041,1.115-0.385,1.351-1.432,1.33
		C460.414,262.973,456.732,263.013,453.056,263.013z M448.284,256.952c2.219,0,4.438,0.011,6.659-0.01
		c0.407-0.003,0.989,0.253,0.866-0.665c-0.517-3.912-3.158-6.356-7.102-6.469c-4.068-0.117-7.043,2.213-7.813,6.061
		c-0.16,0.818-0.026,1.122,0.873,1.1C443.937,256.919,446.11,256.952,448.284,256.952z"/>
	<path fill="#FFFFFF" stroke="#FFFFFF" stroke-miterlimit="10" d="M319.062,263.013c-3.727,0-7.454,0.032-11.182-0.022
		c-0.953-0.015-1.126,0.3-1.046,1.165c0.375,3.866,2.232,6.302,5.526,7.147c4.076,1.036,7.785-0.229,9.834-3.43
		c0.348-0.542,0.707-0.68,1.285-0.676c2.032,0.021,4.069,0.066,6.098-0.01c1.247-0.049,1.191,0.41,0.841,1.354
		c-2.265,6.133-6.745,9.421-13.143,10.033c-6.452,0.624-12.278-0.759-16.425-6.228c-5.892-7.767-5.033-22.896,6.263-28.042
		c9.201-4.191,21.873-1.071,24.117,13.229c0.218,1.391,0.265,2.789,0.309,4.193c0.034,0.995-0.256,1.329-1.298,1.309
		C326.518,262.974,322.79,263.013,319.062,263.013z M314.237,256.952c2.269,0,4.541,0,6.808,0.002c0.5,0,0.919,0.075,0.787-0.745
		c-0.63-3.982-3.227-6.335-7.165-6.402c-4.084-0.066-7.047,2.295-7.754,6.133c-0.137,0.738-0.049,1.051,0.808,1.029
		C309.89,256.919,312.064,256.952,314.237,256.952z"/>
	<path fill="#FFFFFF" stroke="#FFFFFF" stroke-miterlimit="10" d="M228.882,273.728c-2.246,2.671-5.043,4.113-8.412,4.479
		c-2.084,0.229-4.157,0.077-6.177-0.519c-4.539-1.339-6.266-4.797-6.882-9.117c-0.391-2.748-0.266-5.507-0.275-8.267
		c-0.015-5.228,0.049-10.459-0.042-15.688c-0.024-1.348,0.392-1.622,1.623-1.56c1.98,0.103,3.974,0.101,5.952,0
		c1.188-0.062,1.562,0.257,1.552,1.494c-0.066,6.053-0.028,12.107-0.032,18.161c0,1.315,0.135,2.612,0.444,3.884
		c0.661,2.73,2.024,4.012,4.462,4.245c3.1,0.293,5.51-0.835,6.619-3.147c1.032-2.154,1.13-4.493,1.151-6.809
		c0.047-5.476,0.041-10.947-0.008-16.418c-0.01-1.043,0.199-1.452,1.341-1.407c2.224,0.095,4.454,0.059,6.683,0.012
		c0.801-0.016,1.078,0.206,1.076,1.051c-0.026,10.753-0.026,21.5,0,32.254c0.002,0.838-0.264,1.073-1.072,1.058
		c-2.324-0.047-4.651-0.051-6.975,0.002c-0.858,0.018-1.095-0.307-1.042-1.104C228.926,275.466,228.882,274.596,228.882,273.728z"/>
	<path fill="#FFFFFF" stroke="#FFFFFF" stroke-miterlimit="10" d="M161.757,255.213c-0.39,0-0.781-0.04-1.163,0.01
		c-2.141,0.262-3.469-0.095-4.439-2.582c-1.619-4.172-8.263-4.523-11.269-0.866c-2.812,3.417-2.918,7.449-2.44,11.569
		c0.148,1.247,0.52,2.456,1.072,3.597c1.507,3.111,4.008,4.51,7.54,4.204c2.972-0.257,5.269-2.213,6.017-5.435
		c0.294-1.271,0.827-1.57,2.023-1.519c2.076,0.092,4.166,0.079,6.245,0.006c1.016-0.035,1.228,0.296,1.076,1.245
		c-1.088,6.861-6.3,11.87-13.252,12.663c-5.067,0.583-9.869-0.077-14.038-3.277c-4.1-3.151-6.004-7.494-6.357-12.539
		c-0.302-4.277,0.333-8.428,2.574-12.165c3.485-5.819,8.912-8.1,15.446-7.946c4.561,0.107,8.796,1.313,12.11,4.743
		c1.99,2.061,3.061,4.533,3.425,7.357c0.093,0.719-0.071,0.963-0.795,0.945C164.274,255.187,163.015,255.212,161.757,255.213z"/>
	<path fill="#FFFFFF" stroke="#FFFFFF" stroke-miterlimit="10" d="M198.872,255.213c-0.29,0-0.585-0.021-0.871,0.004
		c-2.165,0.188-3.668,0.076-4.691-2.652c-1.542-4.101-8.211-4.413-11.187-0.84c-2.832,3.398-2.939,7.438-2.477,11.559
		c0.131,1.148,0.459,2.27,0.933,3.339c1.473,3.327,3.975,4.816,7.628,4.522c3.058-0.246,5.308-2.175,6.092-5.519
		c0.286-1.23,0.816-1.482,1.949-1.435c2.077,0.09,4.164,0.086,6.243,0.004c1.098-0.042,1.294,0.338,1.125,1.335
		c-1.143,6.824-6.274,11.741-13.183,12.569c-3.306,0.396-6.583,0.293-9.735-0.896c-6.639-2.511-10.024-7.581-10.665-14.427
		c-0.546-5.876,0.62-11.414,4.965-15.809c3.922-3.975,8.848-5.143,14.242-4.709c4.763,0.38,8.951,1.987,11.953,5.947
		c1.382,1.826,2.045,3.917,2.353,6.157c0.094,0.668-0.125,0.865-0.753,0.854C201.488,255.197,200.181,255.212,198.872,255.213z"/>
	<path fill="#FFFFFF" stroke="#FFFFFF" stroke-miterlimit="10" d="M374.778,261.126c0-3.292-0.052-6.584,0.028-9.874
		c0.027-1.127-0.326-1.502-1.384-1.322c-0.144,0.023-0.291,0.012-0.435,0.002c-1.289-0.088-3.052,0.561-3.738-0.266
		c-0.65-0.789-0.223-2.487-0.231-3.784c-0.019-2.344-0.004-2.344,2.332-2.344c3.428,0,3.428,0,3.428-3.459
		c0-1.888,0.028-3.775-0.012-5.663c-0.021-0.756,0.111-1.137,1.005-1.117c2.468,0.056,4.939,0.056,7.406,0
		c0.895-0.02,1.019,0.361,1.007,1.117c-0.033,2.663,0.021,5.327-0.033,7.986c-0.016,0.878,0.204,1.196,1.124,1.156
		c1.646-0.073,3.293,0.012,4.936-0.034c0.7-0.02,0.921,0.211,0.902,0.906c-0.044,1.546-0.051,3.099,0.002,4.646
		c0.023,0.741-0.288,0.881-0.939,0.867c-1.694-0.033-3.39,0.014-5.084-0.022c-0.669-0.015-0.937,0.172-0.933,0.891
		c0.024,5.519-0.033,11.04,0.037,16.558c0.03,2.628,1.326,3.586,4.241,3.427c2.662-0.142,2.662-0.142,2.662,2.478
		c0,1.21-0.052,2.423,0.018,3.629c0.046,0.764-0.261,1.028-0.956,1.073c-3.381,0.226-6.774,0.483-10.1-0.405
		c-3.509-0.94-5.249-3.236-5.278-6.859C374.757,267.517,374.778,264.322,374.778,261.126z"/>
	<path fill="#FFFFFF" stroke="#FFFFFF" stroke-miterlimit="10" d="M490.496,243.02c0,2.866,0,5.734,0,8.603
		c-1.105-0.064-2.212-0.183-3.318-0.179c-4.972,0.018-8.268,2.992-8.895,7.932c-0.424,3.327-0.177,6.669-0.229,10.001
		c-0.041,2.466-0.037,4.934,0.008,7.403c0.014,0.798-0.196,1.091-1.038,1.073c-2.422-0.056-4.843-0.061-7.258,0
		c-0.897,0.023-1.154-0.233-1.138-1.13c0.053-3.142,0.022-6.288,0.022-9.436c0-7.5,0.021-15-0.023-22.498
		c-0.006-1.023,0.271-1.313,1.286-1.274c2.174,0.078,4.352,0.063,6.529,0.003c0.879-0.025,1.199,0.208,1.156,1.125
		c-0.07,1.528-0.021,3.062-0.021,4.652c0.657-0.145,0.685-0.656,0.899-0.983c2.467-3.686,5.87-5.633,10.339-5.646
		C489.4,242.665,489.979,242.695,490.496,243.02z"/>
	<path fill="#FFFFFF" stroke="#FFFFFF" stroke-miterlimit="10" d="M43.385,233.237c11.791,0,21.086,9.266,21.146,21.076
		c0.06,11.753-9.402,21.204-21.219,21.195c-11.7-0.007-21.084-9.446-21.068-21.195C22.262,242.542,31.598,233.237,43.385,233.237z"
		/>
</g>
</svg>
