<?xml version="1.0" encoding="utf-8"?>
<!-- Generator: Adobe Illustrator 16.0.0, SVG Export Plug-In . SVG Version: 6.00 Build 0)  -->
<!DOCTYPE svg PUBLIC "-//W3C//DTD SVG 1.1//EN" "http://www.w3.org/Graphics/SVG/1.1/DTD/svg11.dtd">
<svg version="1.1" id="Layer_1" xmlns="http://www.w3.org/2000/svg" xmlns:xlink="http://www.w3.org/1999/xlink" x="0px" y="0px"
	 width="500px" height="132.798px" viewBox="0 188.5 500 132.798" enable-background="new 0 188.5 500 132.798"
	 xml:space="preserve">
<g>
	<path fill="#FFFFFF" d="M41.791,273.383c0-2.595,0.021-5.189-0.015-7.785c-0.009-0.642,0.193-0.809,0.81-0.785
		c1.258,0.045,2.519,0.002,3.779,0.021c0.417,0.006,0.584-0.122,0.574-0.56c-0.025-1.008-0.031-2.018,0.002-3.022
		c0.016-0.487-0.184-0.59-0.621-0.582c-1.31,0.021-2.621-0.009-3.93,0.017c-0.456,0.01-0.614-0.125-0.608-0.596
		c0.023-1.812,0.021-3.628,0.001-5.441c-0.005-0.431,0.14-0.569,0.565-0.562c1.285,0.021,2.57-0.016,3.854,0.02
		c0.542,0.014,0.772-0.111,0.742-0.705c-0.048-0.955-0.035-1.916-0.003-2.873c0.016-0.474-0.159-0.603-0.61-0.592
		c-1.184,0.025-2.368,0.009-3.552,0.009c-0.987-0.001-0.988-0.001-0.988-0.953c0-5.141-0.016-10.28,0.018-15.419
		c0.005-0.713-0.207-0.876-0.881-0.859c-1.687,0.041-3.375-0.018-5.063,0.007c-0.537,0.008-0.76-0.101-0.74-0.698
		c0.045-1.359,0.042-2.721,0-4.081c-0.017-0.562,0.189-0.671,0.693-0.646c1.306,0.064,2.615,0.072,3.922,0.126
		c0.447,0.019,0.631-0.111,0.617-0.589c-0.03-1.007-0.037-2.016,0.002-3.022c0.021-0.53-0.204-0.612-0.664-0.617
		c-1.358-0.014-2.717,0.026-4.074-0.108c-0.34-0.034-0.493-0.106-0.49-0.478c0.015-1.486,0.012-2.973,0.002-4.459
		c-0.002-0.35,0.082-0.438,0.474-0.435c3.526,0.031,7.053,0.026,10.58,0.022c0.527-0.001,1.056-0.092,1.581-0.067
		c0.527,0.025,0.691-0.154,0.685-0.683c-0.025-2.292-0.011-4.585-0.011-6.878c0-0.806,0.045-1.616-0.014-2.417
		c-0.048-0.656,0.226-0.797,0.814-0.806c1.862-0.028,3.724-0.083,5.584-0.165c4.297-0.189,8.591-0.437,12.874-0.851
		c0.481-0.046,0.688,0.047,0.681,0.578c-0.024,1.713-0.028,3.427,0.003,5.139c0.009,0.476-0.179,0.622-0.6,0.643
		c-1.23,0.061-2.46,0.155-3.691,0.189c-0.531,0.015-0.753,0.153-0.725,0.737c0.051,1.056,0.026,2.116,0.008,3.174
		c-0.007,0.387,0.111,0.531,0.517,0.511c3.468-0.166,6.936-0.318,10.405-0.468c0.519-0.022,0.637-0.276,0.634-0.77
		c-0.022-3.225,0.007-6.45-0.028-9.674c-0.006-0.593,0.204-0.779,0.737-0.835c5.753-0.599,11.477-1.419,17.18-2.384
		c0.412-0.07,0.536,0.021,0.532,0.436c-0.016,1.637-0.016,3.275,0,4.913c0.003,0.354-0.126,0.479-0.464,0.524
		c-1.295,0.175-2.584,0.403-3.883,0.55c-0.571,0.065-0.85,0.211-0.815,0.859c0.056,1.03,0.04,2.066,0.004,3.098
		c-0.018,0.521,0.168,0.656,0.656,0.583c1.293-0.191,2.591-0.348,3.885-0.537c0.371-0.054,0.687-0.083,0.606,0.434
		c-0.116,0.737,0.291,0.723,0.84,0.677c3.187-0.268,6.371-0.494,9.546,0.184c4.046,0.863,7.62,2.491,9.919,6.134
		c1.29,2.043,1.983,4.32,2.311,6.711c0.579,4.217,0.515,8.394-0.971,12.434c-1.316,3.577-3.526,6.529-6.54,8.882
		c-2.57,2.008-5.533,3.203-8.569,4.262c-0.689,0.239-1.367,0.518-2.068,0.713c-0.455,0.129-0.587,0.361-0.571,0.81
		c0.03,0.83,0.03,1.663,0,2.494c-0.016,0.454,0.097,0.649,0.596,0.723c3.141,0.464,6.227,1.152,9.189,2.339
		c0.553,0.223,0.763,0.486,0.741,1.1c-0.052,1.484,0.008,2.973-0.03,4.457c-0.014,0.549,0.188,0.666,0.687,0.684
		c2.162,0.069,4.322,0.193,6.484,0.257c0.459,0.015,0.723,0.167,0.967,0.542c1.706,2.621,2.699,5.508,3.126,8.582
		c0.609,4.376,0.518,8.729-0.637,13.025c-1.604,5.97-5.534,9.574-11.373,11.285c-3.662,1.072-7.381,1.15-11.139,0.796
		c-0.701-0.066-1.406-0.091-2.107-0.158c-0.465-0.045-0.396,0.271-0.397,0.536c-0.004,1.336-0.002,2.671-0.002,4.006
		c0,2.143-0.015,4.283,0.01,6.425c0.007,0.556-0.142,0.667-0.694,0.573c-5.23-0.889-10.479-1.656-15.755-2.221
		c-1.986-0.213-1.988-0.192-1.988-2.189c0-2.822-0.012-5.645,0.011-8.466c0.004-0.497-0.104-0.705-0.641-0.74
		c-2.233-0.149-4.464-0.334-6.694-0.526c-0.485-0.043-0.599,0.145-0.594,0.594c0.019,1.839-0.016,3.679,0.021,5.518
		c0.012,0.59-0.171,0.737-0.731,0.674c-1.274-0.146-2.559-0.209-3.83-0.375c-0.518-0.066-0.607,0.105-0.599,0.551
		c0.019,1.008-0.006,2.016,0.012,3.022c0.007,0.425-0.132,0.573-0.575,0.541c-4.04-0.301-8.086-0.479-12.136-0.551
		c-0.628-0.011-0.738-0.222-0.734-0.781c0.023-3.073-0.004-6.147,0.025-9.222c0.005-0.59-0.151-0.77-0.751-0.77
		c-2.24,0-4.48-0.076-6.72-0.076c-0.562-0.002-0.747-0.146-0.72-0.717c0.047-0.955-0.006-1.916,0.021-2.873
		c0.012-0.437-0.149-0.565-0.569-0.555c-1.334,0.038-2.672,0.001-4.002,0.09c-0.535,0.035-0.583-0.141-0.583-0.566
		c0.01-3.25,0.016-6.5-0.005-9.75c-0.003-0.526,0.21-0.625,0.673-0.621c1.763,0.02,3.528-0.016,5.291,0.021
		c0.579,0.012,0.717-0.171,0.711-0.727C41.775,278.674,41.791,276.027,41.791,273.383z M64.813,274.551
		c0,3.1,0.023,6.198-0.018,9.297c-0.01,0.693,0.256,0.868,0.862,0.87c0.932,0.005,1.864,0.028,2.794,0.071
		c4.674,0.216,9.339,0.661,14.026,0.568c2.546-0.051,5.081-0.211,7.515-1.051c1.844-0.638,3.116-1.877,3.832-3.699
		c0.671-1.711,0.696-3.487,0.63-5.281c-0.16-4.374-2.291-7.326-6.374-8.896c-2.783-1.072-5.699-1.43-8.638-1.625
		c-4.623-0.306-9.254-0.367-13.887-0.393c-0.605-0.003-0.761,0.18-0.756,0.768C64.827,268.305,64.813,271.428,64.813,274.551z
		 M64.813,240.302c0,3.2,0.011,6.399-0.011,9.598c-0.004,0.529,0.135,0.682,0.676,0.657c3.493-0.154,6.992-0.184,10.478-0.474
		c2.329-0.193,4.666-0.359,6.923-1.042c3.421-1.034,6.249-2.842,7.712-6.247c1.126-2.621,1.155-5.377,0.667-8.156
		c-0.399-2.274-1.711-3.75-3.874-4.494c-2.133-0.734-4.353-0.808-6.565-0.721c-5.152,0.202-10.302,0.494-15.454,0.713
		c-0.599,0.026-0.555,0.326-0.555,0.718C64.814,234.004,64.813,237.153,64.813,240.302z M112.87,238.092
		c0-0.654-0.016-1.309,0.006-1.963c0.013-0.378-0.077-0.552-0.502-0.505c-1.398,0.154-2.799,0.291-4.201,0.413
		c-0.321,0.028-0.43,0.146-0.427,0.463c0.012,1.333,0.011,2.667,0.001,4.001c-0.002,0.354,0.119,0.501,0.488,0.474
		c1.353-0.102,2.707-0.203,4.062-0.269c0.463-0.023,0.604-0.205,0.582-0.651C112.846,239.402,112.87,238.746,112.87,238.092z
		 M112.87,225.28c0-0.678-0.001-1.356,0-2.035c0-0.265,0.02-0.493-0.394-0.427c-1.386,0.219-2.776,0.414-4.167,0.598
		c-0.425,0.057-0.583,0.227-0.57,0.679c0.035,1.229,0.028,2.461,0.004,3.691c-0.009,0.461,0.126,0.63,0.603,0.568
		c1.367-0.178,2.737-0.338,4.108-0.48c0.388-0.04,0.425-0.253,0.42-0.561C112.863,226.636,112.87,225.958,112.87,225.28z
		 M112.87,283.037c0-0.68-0.007-1.357,0.003-2.037c0.004-0.286-0.046-0.471-0.392-0.501c-1.425-0.13-2.848-0.278-4.271-0.426
		c-0.306-0.032-0.466,0.046-0.462,0.397c0.012,1.356,0.009,2.715,0.003,4.072c-0.001,0.307,0.116,0.451,0.433,0.484
		c1.348,0.145,2.696,0.287,4.039,0.472c0.567,0.078,0.689-0.144,0.657-0.653C112.841,284.246,112.87,283.641,112.87,283.037z
		 M55.116,224.729c0,0.553,0.025,1.107-0.008,1.658c-0.026,0.439,0.143,0.573,0.563,0.545c1.377-0.09,2.754-0.18,4.133-0.222
		c0.466-0.014,0.604-0.163,0.591-0.615c-0.028-1.005-0.04-2.012,0.003-3.016c0.024-0.558-0.19-0.676-0.693-0.644
		c-1.303,0.083-2.607,0.154-3.912,0.173c-0.575,0.008-0.742,0.221-0.687,0.764C55.152,223.82,55.116,224.276,55.116,224.729z
		 M53.681,224.915c0.018,0,0.036,0,0.053,0c0-0.528-0.027-1.057,0.008-1.583c0.031-0.467-0.137-0.615-0.599-0.59
		c-1.354,0.071-2.708,0.121-4.063,0.149c-0.426,0.009-0.576,0.171-0.57,0.584c0.015,1.056,0.019,2.111-0.002,3.167
		c-0.008,0.418,0.177,0.509,0.545,0.494c0.929-0.038,1.863,0.002,2.785-0.093c0.614-0.063,1.482,0.238,1.778-0.22
		C53.912,226.363,53.681,225.564,53.681,224.915z M57.818,302.372c0,0.01,0,0.021,0,0.03c0.703,0,1.406-0.014,2.107,0.005
		c0.35,0.009,0.493-0.105,0.487-0.472c-0.017-1.104-0.015-2.209-0.001-3.313c0.004-0.325-0.112-0.438-0.437-0.437
		c-1.456,0.006-2.912,0-4.368-0.021c-0.364-0.005-0.479,0.14-0.475,0.489c0.014,1.054,0.021,2.109-0.003,3.162
		c-0.01,0.44,0.174,0.568,0.58,0.56C56.412,302.359,57.115,302.372,57.818,302.372z M49.702,280.943c0-0.004,0-0.008,0-0.012
		c0.73,0,1.461-0.016,2.19,0.008c0.39,0.013,0.535-0.121,0.527-0.52c-0.02-1.057-0.018-2.115,0-3.172
		c0.006-0.374-0.088-0.543-0.501-0.535c-1.385,0.025-2.77,0.03-4.154,0.016c-0.45-0.004-0.629,0.144-0.618,0.607
		c0.025,1.007,0.025,2.016,0,3.021c-0.012,0.449,0.108,0.631,0.594,0.597C48.391,280.91,49.047,280.943,49.702,280.943z
		 M81.829,290.541c0,0.708,0.004,1.287-0.001,1.866c-0.002,0.276,0.032,0.475,0.394,0.497c1.429,0.092,2.858,0.199,4.285,0.326
		c0.413,0.035,0.522-0.117,0.517-0.504c-0.017-1.106-0.021-2.215,0.002-3.322c0.009-0.437-0.173-0.561-0.577-0.575
		c-0.854-0.033-1.706-0.149-2.558-0.149c-0.667,0.002-1.525-0.427-1.941,0.02C81.546,289.127,81.875,289.996,81.829,290.541z
		 M55.041,259.504c0.729,0,1.458-0.013,2.187,0.005c0.355,0.009,0.487-0.12,0.482-0.479c-0.015-1.104-0.014-2.211,0-3.315
		c0.005-0.354-0.117-0.489-0.477-0.483c-1.407,0.02-2.814,0.024-4.222,0.019c-0.346-0.001-0.496,0.097-0.49,0.467
		c0.017,1.104,0.016,2.212,0,3.317c-0.005,0.359,0.13,0.486,0.484,0.478C53.684,259.491,54.363,259.504,55.041,259.504z
		 M73.76,290.21c0-0.553-0.013-1.106,0.005-1.659c0.012-0.345-0.1-0.49-0.467-0.501c-1.405-0.039-2.811-0.099-4.215-0.166
		c-0.325-0.016-0.521,0.024-0.516,0.425c0.018,1.131,0.01,2.264,0.003,3.396c-0.001,0.271,0.077,0.409,0.381,0.422
		c1.456,0.052,2.911,0.119,4.366,0.188c0.322,0.015,0.452-0.123,0.445-0.442C73.75,291.316,73.759,290.764,73.76,290.21z
		 M48.317,238.016c0,0.006,0,0.013,0,0.019c0.704,0,1.409-0.009,2.113,0.004c0.336,0.006,0.509-0.09,0.504-0.465
		c-0.015-1.082-0.011-2.164-0.003-3.246c0.002-0.324-0.141-0.44-0.455-0.444c-1.407-0.019-2.814-0.044-4.221-0.084
		c-0.375-0.011-0.547,0.092-0.54,0.504c0.021,1.082,0.018,2.164,0.001,3.246c-0.005,0.366,0.135,0.481,0.486,0.472
		C46.908,238.002,47.613,238.016,48.317,238.016z M44.624,291.688c0.556,0,1.236-0.02,1.914,0.008
		c0.404,0.016,0.587-0.08,0.574-0.535c-0.03-1.057-0.023-2.113-0.002-3.169c0.007-0.392-0.119-0.536-0.518-0.521
		c-1.406,0.054-2.813,0.091-4.22,0.111c-0.379,0.005-0.465,0.175-0.461,0.509c0.011,1.082,0.014,2.164-0.001,3.245
		c-0.006,0.422,0.183,0.501,0.56,0.467C43.144,291.743,43.822,291.729,44.624,291.688z M49.749,275.561c0-0.011,0-0.021,0-0.029
		c0.705,0,1.41-0.021,2.113,0.008c0.429,0.018,0.569-0.135,0.559-0.561c-0.024-1.006-0.029-2.015,0.001-3.02
		c0.015-0.482-0.181-0.596-0.62-0.585c-1.357,0.028-2.716,0.037-4.074,0.03c-0.388-0.002-0.536,0.125-0.529,0.521
		c0.019,1.031,0.022,2.063-0.001,3.095c-0.01,0.447,0.188,0.56,0.589,0.547C48.441,275.545,49.095,275.561,49.749,275.561z
		 M55.796,239.207c-0.705,0-1.41,0.02-2.113-0.008c-0.428-0.017-0.57,0.133-0.56,0.56c0.025,1.005,0.021,2.012,0.001,3.018
		c-0.007,0.4,0.089,0.594,0.54,0.587c1.383-0.022,2.768-0.018,4.151-0.003c0.391,0.004,0.535-0.139,0.528-0.528
		c-0.017-1.006-0.032-2.014,0.006-3.019c0.02-0.528-0.205-0.637-0.667-0.615C57.055,239.229,56.425,239.207,55.796,239.207z"/>
	<path fill="#FFFFFF" d="M464.367,256.104c0,0.556,0,0.901,0,1.25c0,5.846-0.009,11.69,0.014,17.537
		c0.002,0.611-0.137,0.816-0.783,0.81c-2.82-0.036-5.645-0.031-8.466-0.003c-0.569,0.006-0.717-0.158-0.717-0.721
		c0.017-11.517,0.018-23.031-0.002-34.546c-0.001-0.622,0.196-0.749,0.771-0.743c2.646,0.028,5.291,0.021,7.938,0.004
		c0.44-0.002,0.728,0.123,1.01,0.487c4.6,5.931,9.214,11.848,13.827,17.768c0.12,0.154,0.204,0.347,0.502,0.451
		c0.013-0.283,0.034-0.541,0.034-0.799c0.002-5.645,0.002-11.289,0.002-16.933c0-0.965,0.001-0.966,0.996-0.966
		c2.747,0,5.493,0.012,8.24-0.011c0.521-0.004,0.686,0.134,0.686,0.673c-0.015,11.542-0.016,23.081,0.001,34.622
		c0.001,0.572-0.161,0.722-0.723,0.715c-2.419-0.03-4.838-0.035-7.257,0.003c-0.6,0.01-0.962-0.197-1.313-0.651
		c-4.646-5.988-9.307-11.968-13.964-17.947C464.947,256.823,464.726,256.552,464.367,256.104z"/>
	<path fill="#FFFFFF" d="M172.911,256.87c1.124,0.453,2.149,0.858,3.094,1.442c3.032,1.871,4.11,4.679,3.903,8.103
		c-0.308,5.096-4.042,7.762-8.577,8.774c-1.626,0.363-3.279,0.496-4.945,0.496c-5.944-0.007-11.889-0.013-17.833,0.012
		c-0.629,0.003-0.794-0.166-0.793-0.795c0.019-11.484,0.015-22.971,0.011-34.457c0-0.423-0.049-0.764,0.591-0.76
		c6.271,0.031,12.543,0.005,18.814,0.057c1.993,0.016,3.962,0.347,5.799,1.182c3.179,1.445,5.175,3.78,5.352,7.395
		c0.188,3.829-1.509,6.569-4.899,8.298C173.295,256.686,173.16,256.749,172.911,256.87z M162.441,261.1
		c-1.593,0-2.905,0.033-4.213-0.015c-0.622-0.022-0.759,0.201-0.748,0.776c0.034,1.688,0.043,3.378-0.004,5.064
		c-0.018,0.631,0.209,0.741,0.774,0.734c2.318-0.028,4.636-0.016,6.955-0.012c0.787,0.002,1.561-0.096,2.31-0.321
		c1-0.304,1.835-0.837,2.213-1.882c0.695-1.915-0.304-3.614-2.449-4.135C165.589,260.902,163.864,261.189,162.441,261.1z
		 M161.296,254.042c0.428,0,0.856,0,1.285,0c1.333,0.002,2.673,0.08,3.95-0.431c0.915-0.364,1.594-0.955,1.827-1.952
		c0.411-1.759-0.454-3.223-2.295-3.623c-2.708-0.589-5.47-0.202-8.207-0.282c-0.362-0.011-0.366,0.263-0.365,0.527
		c0.001,1.738,0.013,3.477-0.008,5.214c-0.005,0.435,0.14,0.563,0.563,0.555C159.13,254.025,160.213,254.042,161.296,254.042z"/>
	<path fill="#FFFFFF" d="M251.532,257.604c0.004,9.314-6.632,17.076-15.853,18.508c-5.96,0.927-11.437-0.229-16.174-4.076
		c-3.826-3.105-6.025-7.171-6.553-12.084c-0.671-6.245,1.256-11.585,5.851-15.872c3.341-3.117,7.383-4.706,11.937-5.009
		c4.922-0.329,9.444,0.813,13.429,3.77C248.926,246.369,251.529,251.654,251.532,257.604z M223.067,257.766
		c-0.032,1.104,0.212,2.358,0.646,3.577c2.288,6.416,10.562,8.165,15.131,3.16c2.134-2.337,2.74-5.167,2.4-8.278
		c-0.586-5.382-5.846-9.193-11.095-7.982C225.901,249.222,223.103,252.908,223.067,257.766z"/>
	<path fill="#FFFFFF" d="M357.777,257.646c0-5.721,0.009-11.439-0.015-17.159c-0.002-0.615,0.146-0.812,0.787-0.805
		c2.821,0.035,5.646,0.037,8.466,0c0.653-0.009,0.777,0.208,0.773,0.812c-0.026,3.981-0.004,7.961-0.025,11.942
		c-0.002,0.539,0.104,0.736,0.696,0.731c3.779-0.028,7.559-0.026,11.338-0.001c0.577,0.004,0.712-0.171,0.709-0.725
		c-0.021-3.957,0.002-7.913-0.024-11.867c-0.006-0.655,0.113-0.91,0.851-0.897c2.821,0.048,5.645,0.031,8.465,0.009
		c0.519-0.004,0.689,0.129,0.688,0.669c-0.016,11.564-0.015,23.129-0.002,34.694c0.001,0.49-0.138,0.646-0.636,0.643
		c-2.896-0.021-5.795-0.022-8.691,0c-0.537,0.006-0.675-0.164-0.672-0.686c0.019-4.031-0.013-8.062,0.029-12.094
		c0.008-0.756-0.221-0.902-0.928-0.896c-3.703,0.037-7.407,0.029-11.11,0.004c-0.567-0.004-0.717,0.15-0.714,0.715
		c0.024,4.057-0.001,8.113,0.027,12.17c0.005,0.629-0.165,0.799-0.792,0.791c-2.796-0.034-5.594-0.045-8.39,0.005
		c-0.741,0.013-0.849-0.252-0.846-0.898C357.786,269.085,357.777,263.365,357.777,257.646z"/>
	<path fill="#FFFFFF" d="M434.188,275.684c-0.337,0-0.561,0-0.783,0c-3.073,0-6.146-0.014-9.219,0.014
		c-0.531,0.004-0.802-0.146-0.996-0.653c-0.659-1.713-1.385-3.399-2.053-5.108c-0.179-0.459-0.396-0.658-0.926-0.654
		c-4.181,0.023-8.361,0.025-12.542-0.002c-0.537-0.002-0.734,0.207-0.909,0.662c-0.654,1.713-1.364,3.406-2.021,5.119
		c-0.179,0.465-0.406,0.645-0.929,0.639c-2.996-0.029-5.993-0.014-8.99-0.016c-0.866,0-0.872-0.006-0.528-0.818
		c4.336-10.26,8.673-20.52,13.011-30.777c0.577-1.366,1.168-2.728,1.729-4.101c0.145-0.354,0.334-0.489,0.725-0.486
		c2.871,0.016,5.743,0.024,8.613-0.005c0.546-0.006,0.664,0.31,0.825,0.691c3.463,8.2,6.932,16.396,10.396,24.594
		c1.438,3.404,2.874,6.811,4.312,10.216C433.979,275.178,434.054,275.361,434.188,275.684z M413.988,251.357
		c-1.311,3.315-2.537,6.444-3.787,9.564c-0.195,0.486-0.02,0.555,0.407,0.553c2.236-0.011,4.475-0.017,6.712,0.002
		c0.539,0.004,0.586-0.187,0.402-0.627c-0.393-0.951-0.757-1.914-1.133-2.871C415.748,255.835,414.905,253.689,413.988,251.357z"/>
	<path fill="#FFFFFF" d="M274.464,276.432c-5.452-0.053-9.942-1.707-13.593-5.312c-3.18-3.141-4.9-7.01-5.305-11.473
		c-0.418-4.636,0.563-8.922,3.234-12.744c3.045-4.355,7.282-6.87,12.516-7.659c3.853-0.581,7.625-0.217,11.236,1.335
		c2.775,1.193,4.973,3.112,6.822,5.468c0.29,0.369,0.236,0.578-0.12,0.851c-2.22,1.698-4.435,3.404-6.63,5.133
		c-0.402,0.316-0.592,0.154-0.854-0.15c-1.336-1.551-2.871-2.836-4.887-3.405c-5.008-1.413-9.82,1.578-10.848,6.75
		c-0.54,2.727-0.284,5.364,1.102,7.819c2.941,5.214,9.473,5.196,12.996,2.218c0.695-0.588,1.346-1.219,1.914-1.924
		c0.275-0.342,0.469-0.391,0.852-0.113c2.199,1.599,4.421,3.168,6.645,4.733c0.303,0.213,0.398,0.358,0.146,0.702
		c-3.291,4.438-7.59,7.126-13.162,7.609C275.729,276.342,274.925,276.396,274.464,276.432z"/>
	<path fill="#FFFFFF" d="M319.072,257.846c0.002-9.503,6.332-17.083,15.542-18.556c5.32-0.851,10.385-0.067,14.842,3.248
		c1.363,1.014,2.518,2.237,3.547,3.587c0.24,0.314,0.221,0.466-0.099,0.71c-2.239,1.714-4.465,3.444-6.686,5.185
		c-0.354,0.277-0.55,0.246-0.849-0.109c-1.508-1.798-3.303-3.176-5.678-3.608c-4.042-0.736-7.601,1.026-9.308,4.766
		c-1.64,3.593-1.44,7.179,0.687,10.521c2.579,4.055,8.395,4.915,12.312,1.93c0.847-0.646,1.607-1.381,2.271-2.207
		c0.271-0.34,0.455-0.349,0.79-0.106c2.206,1.589,4.42,3.167,6.643,4.731c0.341,0.24,0.407,0.412,0.139,0.771
		c-3.304,4.426-7.604,7.072-13.177,7.589c-3.477,0.322-6.843-0.017-10.037-1.45c-5.62-2.523-9.048-6.873-10.465-12.84
		C319.21,260.58,319.026,259.136,319.072,257.846z"/>
	<path fill="#FFFFFF" d="M323.393,275.684c-2.187,0-4.176-0.016-6.164,0.012c-0.455,0.006-0.604-0.286-0.798-0.572
		c-2.71-4.004-5.419-8.008-8.127-12.014c-0.507-0.748-0.503-0.75-1.083-0.104c-0.875,0.975-1.74,1.957-2.633,2.915
		c-0.312,0.336-0.453,0.683-0.449,1.146c0.018,2.646-0.005,5.293,0.02,7.938c0.004,0.511-0.117,0.696-0.665,0.69
		c-2.897-0.024-5.796-0.022-8.693,0c-0.497,0.002-0.644-0.145-0.642-0.639c0.012-11.566,0.013-23.133-0.002-34.699
		c-0.002-0.542,0.172-0.674,0.688-0.67c2.872,0.022,5.745,0.029,8.617-0.004c0.602-0.007,0.698,0.208,0.695,0.742
		c-0.02,4.535-0.01,9.07-0.01,13.608c0.287,0.091,0.353-0.16,0.465-0.293c3.8-4.472,7.599-8.943,11.38-13.43
		c0.372-0.441,0.752-0.639,1.345-0.627c2.01,0.039,4.021,0.015,6.27,0.015c-5.729,4.726-8.593,10.716-8.73,17.884
		C314.732,264.874,317.725,270.835,323.393,275.684z"/>
	<path fill="#FFFFFF" d="M184.432,257.68c0-5.718,0.011-11.435-0.015-17.152c-0.003-0.651,0.141-0.857,0.826-0.847
		c2.795,0.042,5.591,0.04,8.387,0.002c0.68-0.009,0.883,0.157,0.881,0.865c-0.026,8.487-0.007,16.976-0.033,25.463
		c-0.002,0.714,0.152,0.927,0.899,0.921c5.238-0.035,10.477-0.009,15.715-0.031c0.619-0.004,0.814,0.146,0.804,0.787
		c-0.038,2.442-0.03,4.887-0.004,7.328c0.005,0.529-0.153,0.68-0.68,0.678c-8.689-0.015-17.378-0.018-26.066,0.007
		c-0.657,0.002-0.724-0.253-0.723-0.794C184.437,269.163,184.432,263.421,184.432,257.68z"/>
	<path fill="#FFFFFF" d="M437.826,257.662c0-5.717,0.012-11.433-0.018-17.148c-0.004-0.675,0.182-0.84,0.843-0.831
		c2.818,0.038,5.641,0.033,8.46,0.002c0.604-0.006,0.812,0.118,0.811,0.773c-0.021,11.483-0.02,22.965-0.001,34.448
		c0.001,0.627-0.161,0.8-0.789,0.792c-2.846-0.034-5.69-0.035-8.536,0.001c-0.65,0.008-0.785-0.204-0.783-0.812
		C437.835,269.145,437.826,263.402,437.826,257.662z"/>
	<path fill="#FFFFFF" d="M106.391,318.602c0,0.729-0.014,1.459,0.005,2.188c0.011,0.417-0.07,0.594-0.554,0.471
		c-1.386-0.353-2.781-0.674-4.18-0.971c-0.395-0.084-0.55-0.238-0.545-0.645c0.017-1.434,0.018-2.867,0-4.299
		c-0.005-0.443,0.139-0.588,0.577-0.492c1.397,0.308,2.796,0.608,4.199,0.883c0.415,0.082,0.517,0.293,0.504,0.679
		C106.375,317.143,106.391,317.872,106.391,318.602z"/>
	<path fill="#FFFFFF" d="M106.391,196.204c0,0.729-0.012,1.459,0.005,2.188c0.008,0.351-0.074,0.544-0.467,0.62
		c-1.405,0.271-2.803,0.577-4.201,0.883c-0.474,0.104-0.62-0.061-0.613-0.535c0.023-1.409,0.013-2.818,0.004-4.227
		c-0.002-0.335,0.049-0.565,0.447-0.649c1.449-0.307,2.896-0.624,4.332-0.985c0.482-0.122,0.499,0.086,0.495,0.44
		C106.384,194.694,106.391,195.449,106.391,196.204z"/>
	<path fill="#FFFFFF" d="M99.868,197.614c0,0.729-0.008,1.458,0.004,2.188c0.005,0.289-0.065,0.482-0.382,0.538
		c-1.482,0.265-2.966,0.521-4.441,0.815c-0.421,0.084-0.459-0.082-0.457-0.418c0.01-1.433,0.013-2.866-0.001-4.299
		c-0.004-0.372,0.132-0.528,0.5-0.599c1.404-0.268,2.806-0.548,4.201-0.862c0.515-0.116,0.602,0.076,0.584,0.526
		C99.848,196.205,99.868,196.91,99.868,197.614z"/>
	<path fill="#FFFFFF" d="M94.596,316.182c0-0.68,0.019-1.358-0.006-2.037c-0.016-0.42,0.104-0.613,0.555-0.527
		c1.43,0.271,2.861,0.535,4.292,0.798c0.322,0.06,0.444,0.226,0.439,0.567c-0.019,1.459-0.021,2.918,0,4.377
		c0.006,0.441-0.176,0.505-0.548,0.427c-1.424-0.302-2.847-0.61-4.279-0.874c-0.41-0.075-0.465-0.275-0.458-0.617
		C94.606,317.59,94.596,316.886,94.596,316.182z"/>
	<path fill="#FFFFFF" d="M88.093,199.673c0-0.68,0.014-1.361-0.006-2.041c-0.011-0.364,0.094-0.531,0.485-0.594
		c1.365-0.219,2.725-0.47,4.083-0.733c0.52-0.101,0.721,0.026,0.705,0.594c-0.036,1.334-0.022,2.671-0.004,4.006
		c0.005,0.392-0.097,0.6-0.517,0.662c-1.418,0.207-2.837,0.418-4.245,0.68c-0.469,0.087-0.51-0.094-0.504-0.458
		C88.102,201.084,88.093,200.378,88.093,199.673z"/>
	<path fill="#FFFFFF" d="M86.846,314.822c0,0.703-0.014,1.408,0.005,2.111c0.01,0.379-0.134,0.481-0.496,0.42
		c-1.435-0.242-2.87-0.482-4.311-0.688c-0.384-0.056-0.503-0.197-0.499-0.572c0.017-1.356,0.016-2.716,0.001-4.073
		c-0.004-0.386,0.086-0.539,0.514-0.473c1.364,0.215,2.731,0.406,4.101,0.58c0.506,0.064,0.75,0.244,0.697,0.811
		C86.802,313.561,86.846,314.193,86.846,314.822z"/>
	<path fill="#FFFFFF" d="M68.287,202.213c0-0.428,0-0.855,0-1.283c0-1.161,0-1.165,1.128-1.28c1.249-0.128,2.501-0.233,3.748-0.385
		c0.38-0.046,0.506,0.059,0.504,0.421c-0.006,1.358-0.008,2.717,0.001,4.076c0.002,0.347-0.145,0.491-0.486,0.522
		c-1.476,0.135-2.951,0.278-4.425,0.436c-0.389,0.042-0.481-0.126-0.474-0.469C68.297,203.572,68.288,202.893,68.287,202.213z"/>
	<path fill="#FFFFFF" d="M67.014,202.433c0,0.227,0,0.454,0,0.68c0,1.776,0,1.778-1.747,1.899c-1.004,0.069-2.01,0.123-3.014,0.203
		c-0.398,0.032-0.606-0.046-0.598-0.512c0.023-1.285,0.019-2.57,0.001-3.855c-0.005-0.383,0.128-0.537,0.511-0.565
		c1.431-0.104,2.861-0.219,4.29-0.354c0.436-0.041,0.582,0.108,0.563,0.538C66.993,201.122,67.013,201.778,67.014,202.433z"/>
	<path fill="#FFFFFF" d="M67.013,312.384c0,0.604-0.023,1.21,0.008,1.812c0.025,0.484-0.112,0.675-0.636,0.621
		c-1.401-0.141-2.806-0.241-4.211-0.34c-0.387-0.025-0.52-0.191-0.516-0.567c0.013-1.283,0.014-2.567,0-3.851
		c-0.004-0.371,0.083-0.564,0.505-0.531c1.479,0.121,2.958,0.227,4.439,0.326c0.331,0.022,0.419,0.191,0.415,0.492
		C67.005,311.025,67.013,311.704,67.013,312.384z"/>
	<path fill="#FFFFFF" d="M60.39,202.883c0,0.653-0.018,1.307,0.006,1.959c0.014,0.389-0.122,0.512-0.515,0.529
		c-1.428,0.062-2.856,0.145-4.281,0.261c-0.488,0.04-0.604-0.133-0.597-0.583c0.022-1.23,0.028-2.462-0.002-3.693
		c-0.013-0.503,0.184-0.642,0.655-0.659c1.429-0.051,2.859-0.121,4.284-0.234c0.431-0.035,0.455,0.145,0.451,0.461
		C60.384,201.577,60.39,202.23,60.39,202.883z"/>
	<path fill="#FFFFFF" d="M74.921,201.549c0-0.402,0-0.804,0-1.207c0-1.31,0-1.304,1.275-1.462c1.12-0.139,2.24-0.283,3.356-0.447
		c0.449-0.066,0.691-0.026,0.674,0.541c-0.041,1.306-0.02,2.614-0.008,3.921c0.003,0.339-0.042,0.577-0.455,0.621
		c-1.397,0.148-2.794,0.303-4.188,0.49c-0.553,0.074-0.699-0.127-0.664-0.648C74.953,202.758,74.921,202.153,74.921,201.549z"/>
	<path fill="#FFFFFF" d="M80.213,313.867c0,0.652-0.015,1.308,0.006,1.96c0.012,0.373-0.072,0.567-0.499,0.508
		c-1.49-0.21-2.98-0.412-4.474-0.597c-0.333-0.041-0.326-0.243-0.326-0.477c0-1.356,0.009-2.714-0.005-4.07
		c-0.004-0.361,0.115-0.5,0.48-0.455c1.469,0.182,2.938,0.354,4.408,0.522c0.362,0.041,0.423,0.255,0.415,0.572
		C80.202,312.511,80.213,313.189,80.213,313.867z"/>
	<path fill="#FFFFFF" d="M60.39,311.865c0,0.654-0.02,1.31,0.007,1.963c0.018,0.414-0.147,0.518-0.532,0.488
		c-1.428-0.103-2.858-0.195-4.288-0.262c-0.424-0.02-0.575-0.18-0.57-0.593c0.014-1.258,0.014-2.517,0-3.774
		c-0.005-0.418,0.128-0.59,0.571-0.559c1.403,0.1,2.807,0.186,4.212,0.242c0.436,0.018,0.639,0.126,0.61,0.605
		C60.361,310.605,60.39,311.236,60.39,311.865z"/>
	<path fill="#FFFFFF" d="M44.021,308.791c1.047,0.074,1.826-0.029,2.604,0.089c0.324,0.05,0.491,0.104,0.485,0.481
		c-0.019,1.309-0.016,2.617-0.002,3.925c0.004,0.373-0.147,0.466-0.497,0.454c-1.431-0.049-2.863-0.084-4.295-0.102
		c-0.375-0.004-0.541-0.099-0.535-0.508c0.02-1.283,0.02-2.566,0-3.849c-0.007-0.421,0.182-0.509,0.548-0.497
		C42.984,308.805,43.638,308.791,44.021,308.791z"/>
	<path fill="#FFFFFF" d="M48.444,311.27c0-0.629,0.007-1.256-0.003-1.885c-0.005-0.296,0.062-0.477,0.412-0.463
		c1.503,0.059,3.007,0.109,4.511,0.15c0.307,0.009,0.375,0.16,0.374,0.428c-0.005,1.33-0.013,2.661,0.004,3.992
		c0.005,0.41-0.223,0.435-0.528,0.423c-1.454-0.054-2.907-0.11-4.361-0.147c-0.348-0.008-0.417-0.17-0.412-0.466
		C48.451,312.624,48.444,311.945,48.444,311.27z"/>
	<path fill="#FFFFFF" d="M37.798,205.915c-0.704,0-1.409-0.011-2.113,0.005c-0.36,0.008-0.56-0.069-0.554-0.495
		c0.02-1.309,0.016-2.617,0.001-3.925c-0.004-0.366,0.14-0.488,0.49-0.479c1.457,0.037,2.914,0.068,4.372,0.085
		c0.364,0.004,0.466,0.157,0.462,0.503c-0.015,1.283-0.021,2.567,0.002,3.85c0.007,0.427-0.186,0.5-0.547,0.491
		c-0.704-0.018-1.409-0.005-2.113-0.005C37.798,205.935,37.798,205.925,37.798,205.915z"/>
	<path fill="#FFFFFF" d="M44.426,205.944c-0.705,0-1.41-0.016-2.114,0.006c-0.39,0.013-0.533-0.121-0.528-0.518
		c0.018-1.283,0.018-2.567,0-3.851c-0.005-0.374,0.16-0.475,0.494-0.478c1.433-0.011,2.867,0.05,4.297-0.083
		c0.375-0.035,0.542,0.089,0.535,0.502c-0.021,1.283-0.024,2.567,0.001,3.85c0.009,0.447-0.164,0.561-0.574,0.547
		c-0.704-0.024-1.409-0.006-2.113-0.006C44.426,205.925,44.426,205.935,44.426,205.944z"/>
	<path fill="#FFFFFF" d="M106.391,208.701c0,0.628-0.022,1.256,0.008,1.883c0.019,0.384-0.131,0.526-0.493,0.583
		c-1.386,0.218-2.771,0.449-4.151,0.697c-0.524,0.095-0.65-0.117-0.639-0.601c0.024-1.155,0.03-2.311-0.003-3.465
		c-0.014-0.471,0.146-0.671,0.603-0.748c1.359-0.228,2.715-0.474,4.067-0.741c0.462-0.091,0.644,0.012,0.617,0.509
		C106.365,207.443,106.391,208.073,106.391,208.701z"/>
	<path fill="#FFFFFF" d="M106.391,306.074c0,0.654-0.015,1.311,0.005,1.965c0.012,0.386-0.151,0.486-0.501,0.422
		c-1.458-0.27-2.918-0.533-4.378-0.799c-0.299-0.055-0.399-0.237-0.397-0.537c0.011-1.26,0.017-2.52-0.002-3.779
		c-0.006-0.428,0.184-0.523,0.555-0.459c1.437,0.246,2.872,0.502,4.312,0.728c0.331,0.052,0.414,0.2,0.409,0.495
		C106.384,304.766,106.391,305.42,106.391,306.074z"/>
	<path fill="#FFFFFF" d="M112.871,207.392c0,0.628-0.029,1.257,0.01,1.883c0.028,0.46-0.121,0.673-0.586,0.751
		c-1.334,0.224-2.663,0.479-3.992,0.735c-0.387,0.075-0.611,0.045-0.602-0.449c0.025-1.28,0.028-2.562-0.002-3.841
		c-0.01-0.438,0.203-0.562,0.558-0.632c1.376-0.271,2.757-0.524,4.124-0.838c0.47-0.108,0.502,0.07,0.494,0.434
		C112.86,206.086,112.871,206.739,112.871,207.392z"/>
	<path fill="#FFFFFF" d="M112.871,307.386c0,0.679-0.012,1.356,0.004,2.034c0.008,0.35-0.119,0.425-0.451,0.354
		c-1.42-0.301-2.845-0.59-4.27-0.869c-0.333-0.064-0.453-0.23-0.45-0.566c0.013-1.306,0.018-2.611-0.001-3.917
		c-0.006-0.429,0.15-0.502,0.54-0.426c1.328,0.261,2.659,0.503,3.993,0.731c0.458,0.08,0.695,0.25,0.648,0.776
		C112.829,306.127,112.871,306.758,112.871,307.386z"/>
	<path fill="#FFFFFF" d="M112.871,201.192c0,0.655-0.021,1.312,0.008,1.965c0.017,0.378-0.124,0.53-0.486,0.601
		c-1.406,0.274-2.811,0.558-4.208,0.873c-0.387,0.087-0.484-0.008-0.48-0.381c0.013-1.31,0.016-2.621-0.002-3.931
		c-0.005-0.376,0.131-0.512,0.499-0.59c1.402-0.298,2.796-0.63,4.188-0.97c0.379-0.093,0.496,0.017,0.485,0.393
		C112.857,199.832,112.871,200.512,112.871,201.192z"/>
	<path fill="#FFFFFF" d="M99.87,203.839c0,0.453-0.057,0.915,0.013,1.356c0.123,0.786-0.168,1.106-0.955,1.2
		c-1.221,0.145-2.431,0.385-3.642,0.604c-0.509,0.092-0.724-0.029-0.703-0.6c0.04-1.131,0.023-2.264,0.005-3.396
		c-0.006-0.406,0.06-0.622,0.543-0.695c1.415-0.214,2.821-0.483,4.223-0.772c0.418-0.086,0.537,0.003,0.521,0.416
		C99.853,202.581,99.87,203.21,99.87,203.839z"/>
	<path fill="#FFFFFF" d="M99.868,305.039c0,0.604-0.021,1.207,0.008,1.809c0.02,0.42-0.118,0.502-0.521,0.43
		c-1.407-0.248-2.82-0.465-4.231-0.686c-0.375-0.058-0.549-0.206-0.539-0.631c0.031-1.205,0.014-2.411,0.009-3.616
		c-0.001-0.31,0.013-0.538,0.447-0.468c1.434,0.236,2.871,0.464,4.312,0.654c0.425,0.056,0.54,0.227,0.522,0.625
		C99.848,303.783,99.868,304.412,99.868,305.039z"/>
	<path fill="#FFFFFF" d="M99.87,310.965c0,0.631-0.004,1.26,0.001,1.891c0.002,0.285-0.008,0.473-0.41,0.392
		c-1.454-0.293-2.914-0.56-4.376-0.806c-0.374-0.062-0.504-0.203-0.498-0.582c0.02-1.209,0.024-2.42-0.001-3.629
		c-0.009-0.467,0.169-0.553,0.587-0.478c1.41,0.254,2.823,0.496,4.24,0.715c0.346,0.054,0.473,0.187,0.462,0.532
		C99.855,309.654,99.87,310.311,99.87,310.965z"/>
	<path fill="#FFFFFF" d="M94.596,210.568c0-0.579,0.032-1.16-0.01-1.736c-0.034-0.458,0.15-0.603,0.576-0.667
		c1.366-0.204,2.728-0.44,4.089-0.676c0.428-0.074,0.645-0.007,0.629,0.516c-0.037,1.207-0.022,2.416-0.005,3.624
		c0.005,0.355-0.077,0.545-0.467,0.599c-1.468,0.204-2.932,0.432-4.396,0.659c-0.364,0.056-0.424-0.131-0.419-0.431
		C94.604,211.827,94.596,211.198,94.596,210.568z"/>
	<path fill="#FFFFFF" d="M17.976,244.303c0.654,0,1.31,0.031,1.961-0.01c0.546-0.033,0.687,0.188,0.67,0.699
		c-0.033,1.031-0.025,2.064-0.002,3.097c0.01,0.434-0.087,0.645-0.58,0.624c-1.407-0.058-2.815-0.092-4.223-0.102
		c-0.423-0.002-0.574-0.125-0.563-0.559c0.025-1.081,0.029-2.165-0.001-3.247c-0.014-0.487,0.185-0.598,0.624-0.58
		c0.704,0.028,1.409,0.007,2.114,0.007C17.976,244.256,17.976,244.279,17.976,244.303z"/>
	<path fill="#FFFFFF" d="M17.846,270.505c-0.477,0-0.954-0.002-1.431,0c-1.167,0.004-1.167,0.005-1.167-1.2
		c0-0.88,0.012-1.76-0.005-2.639c-0.008-0.374,0.092-0.539,0.505-0.538c1.406,0.001,2.813-0.019,4.218-0.062
		c0.493-0.017,0.659,0.148,0.643,0.647c-0.034,1.028-0.035,2.062,0,3.091c0.017,0.508-0.173,0.658-0.654,0.639
		c-0.702-0.029-1.406-0.008-2.109-0.008C17.846,270.459,17.846,270.48,17.846,270.505z"/>
	<path fill="#FFFFFF" d="M15.248,295.664c0-0.528,0.033-1.061-0.01-1.585c-0.038-0.476,0.17-0.616,0.599-0.636
		c1.406-0.063,2.812-0.135,4.217-0.229c0.452-0.029,0.557,0.162,0.55,0.57c-0.019,1.082-0.016,2.164-0.001,3.246
		c0.005,0.365-0.085,0.544-0.498,0.562c-1.431,0.065-2.862,0.155-4.291,0.266c-0.436,0.033-0.592-0.103-0.572-0.535
		C15.268,296.771,15.249,296.218,15.248,295.664z"/>
	<path fill="#FFFFFF" d="M17.908,217.038c0.726,0.044,1.452,0.112,2.178,0.122c0.395,0.005,0.524,0.143,0.519,0.53
		c-0.018,1.104-0.015,2.209-0.002,3.314c0.004,0.361-0.064,0.555-0.499,0.527c-1.452-0.092-2.905-0.157-4.359-0.216
		c-0.391-0.016-0.509-0.188-0.503-0.564c0.018-1.104,0.023-2.209-0.002-3.313c-0.01-0.438,0.144-0.583,0.567-0.542
		c0.698,0.068,1.399,0.108,2.1,0.16C17.907,217.049,17.907,217.043,17.908,217.038z"/>
	<path fill="#FFFFFF" d="M17.85,275.966c-0.705,0-1.41-0.013-2.114,0.007c-0.351,0.01-0.498-0.104-0.493-0.473
		c0.015-1.133,0.012-2.266,0.001-3.398c-0.003-0.33,0.078-0.504,0.46-0.51c1.483-0.018,2.967-0.052,4.45-0.103
		c0.339-0.013,0.448,0.11,0.446,0.429c-0.007,1.158-0.011,2.314,0.002,3.475c0.004,0.359-0.14,0.493-0.49,0.487
		c-0.754-0.012-1.509-0.004-2.263-0.004C17.85,275.906,17.85,275.938,17.85,275.966z"/>
	<path fill="#FFFFFF" d="M17.374,227.907c0.904,0.043,1.808,0.104,2.712,0.122c0.396,0.008,0.523,0.161,0.518,0.543
		c-0.017,1.107-0.018,2.215,0,3.322c0.007,0.399-0.144,0.532-0.531,0.515c-1.432-0.062-2.864-0.111-4.296-0.156
		c-0.36-0.011-0.544-0.122-0.536-0.533c0.022-1.132,0.018-2.265,0.002-3.396c-0.006-0.412,0.157-0.51,0.548-0.479
		c0.524,0.042,1.055,0.011,1.582,0.011C17.374,227.872,17.374,227.889,17.374,227.907z"/>
	<path fill="#FFFFFF" d="M17.919,237.696c-0.728,0-1.457-0.013-2.185,0.005c-0.355,0.009-0.495-0.117-0.491-0.478
		c0.013-1.157,0.011-2.315,0.001-3.472c-0.002-0.332,0.141-0.438,0.456-0.426c1.507,0.058,3.015,0.107,4.522,0.152
		c0.248,0.008,0.373,0.099,0.373,0.354c-0.002,1.208-0.004,2.416,0.002,3.623c0.001,0.358-0.198,0.389-0.492,0.381
		c-0.728-0.019-1.458-0.006-2.186-0.006C17.92,237.785,17.92,237.74,17.919,237.696z"/>
	<path fill="#FFFFFF" d="M73.666,301.761c0,0.075,0.006,0.151,0,0.228c-0.056,0.619,0.281,1.451-0.153,1.798
		c-0.351,0.278-1.149,0.011-1.748-0.037c-1.003-0.08-2.003-0.19-3.007-0.261c-0.356-0.022-0.479-0.157-0.475-0.508
		c0.014-1.133,0.021-2.268-0.002-3.399c-0.008-0.427,0.18-0.515,0.546-0.485c1.455,0.113,2.91,0.223,4.366,0.321
		c0.353,0.024,0.483,0.19,0.477,0.53C73.657,300.551,73.665,301.156,73.666,301.761z"/>
	<path fill="#FFFFFF" d="M20.598,300.822c0,0.555-0.018,1.109,0.006,1.662c0.017,0.387-0.123,0.523-0.513,0.545
		c-1.382,0.076-2.764,0.162-4.141,0.291c-0.583,0.056-0.737-0.135-0.714-0.698c0.042-1.03,0.024-2.063,0.006-3.097
		c-0.007-0.401,0.094-0.575,0.542-0.596c1.407-0.062,2.812-0.164,4.217-0.273c0.457-0.036,0.638,0.104,0.605,0.58
		C20.57,299.764,20.598,300.294,20.598,300.822z"/>
	<path fill="#FFFFFF" d="M73.666,307.191c0,0.377,0,0.754,0,1.133c0,1.137,0,1.135-1.097,1.021c-1.25-0.131-2.499-0.271-3.751-0.375
		c-0.42-0.035-0.549-0.193-0.54-0.605c0.025-1.082,0.023-2.165,0.001-3.247c-0.008-0.408,0.084-0.606,0.541-0.56
		c1.475,0.152,2.951,0.293,4.428,0.418c0.333,0.027,0.426,0.174,0.419,0.478C73.657,306.033,73.666,306.611,73.666,307.191z"/>
	<path fill="#FFFFFF" d="M44.386,216.68c-0.703,0-1.407-0.011-2.109,0.005c-0.348,0.008-0.497-0.108-0.492-0.474
		c0.015-1.13,0.016-2.262,0-3.392c-0.005-0.381,0.176-0.462,0.507-0.462c1.432,0,2.864-0.005,4.295-0.031
		c0.389-0.007,0.532,0.114,0.524,0.513c-0.021,1.105-0.022,2.211,0,3.316c0.008,0.417-0.169,0.512-0.54,0.502
		c-0.728-0.019-1.458-0.005-2.186-0.005C44.386,216.661,44.386,216.671,44.386,216.68z"/>
	<path fill="#FFFFFF" d="M37.88,212.361c0.678,0,1.356,0.012,2.034-0.005c0.364-0.009,0.554,0.074,0.545,0.497
		c-0.023,1.13-0.015,2.261-0.004,3.392c0.003,0.322-0.116,0.445-0.44,0.441c-1.482-0.02-2.964-0.028-4.446-0.03
		c-0.326,0-0.438-0.142-0.435-0.456c0.01-1.13,0.013-2.261-0.001-3.392c-0.004-0.36,0.134-0.486,0.487-0.479
		c0.753,0.017,1.507,0.005,2.261,0.005C37.88,212.342,37.88,212.351,37.88,212.361z"/>
	<path fill="#FFFFFF" d="M37.797,275.645c-0.728,0-1.457-0.013-2.185,0.006c-0.36,0.009-0.484-0.133-0.48-0.486
		c0.014-1.13,0.011-2.262,0.001-3.393c-0.003-0.318,0.122-0.448,0.442-0.448c1.482-0.003,2.964-0.011,4.446-0.03
		c0.331-0.004,0.437,0.133,0.434,0.448c-0.01,1.13-0.02,2.262,0.004,3.392c0.009,0.432-0.197,0.496-0.552,0.488
		c-0.703-0.016-1.407-0.004-2.111-0.004C37.797,275.625,37.797,275.635,37.797,275.645z"/>
	<path fill="#FFFFFF" d="M24.481,270.373c-0.678,0-1.357-0.03-2.033,0.01c-0.483,0.028-0.597-0.156-0.585-0.605
		c0.027-1.053,0.021-2.107,0.002-3.162c-0.007-0.396,0.076-0.596,0.533-0.59c1.405,0.015,2.812,0.004,4.217-0.028
		c0.451-0.011,0.547,0.171,0.539,0.575c-0.021,1.08-0.025,2.16,0.001,3.238c0.011,0.438-0.148,0.565-0.566,0.551
		c-0.702-0.026-1.406-0.008-2.108-0.008C24.481,270.359,24.481,270.366,24.481,270.373z"/>
	<path fill="#FFFFFF" d="M37.73,254.176c-0.704,0-1.407-0.013-2.11,0.006c-0.353,0.008-0.492-0.119-0.487-0.479
		c0.015-1.104,0.016-2.212-0.001-3.316c-0.006-0.382,0.112-0.54,0.513-0.536c1.432,0.016,2.864,0.017,4.296,0
		c0.392-0.005,0.527,0.129,0.52,0.521c-0.02,1.105-0.023,2.212,0,3.316c0.009,0.424-0.181,0.502-0.544,0.492
		C39.187,254.163,38.458,254.176,37.73,254.176z"/>
	<path fill="#FFFFFF" d="M31.094,254.146c-0.68,0-1.36-0.017-2.039,0.006c-0.407,0.015-0.591-0.101-0.58-0.549
		c0.026-1.08,0.019-2.164,0.003-3.246c-0.005-0.375,0.099-0.543,0.508-0.538c1.435,0.019,2.869,0.019,4.304,0
		c0.4-0.006,0.522,0.136,0.516,0.523c-0.019,1.107-0.02,2.216,0,3.322c0.007,0.397-0.132,0.528-0.524,0.517
		c-0.729-0.023-1.459-0.007-2.188-0.007C31.094,254.166,31.094,254.156,31.094,254.146z"/>
	<path fill="#FFFFFF" d="M24.496,259.59c-0.704,0-1.408-0.016-2.111,0.006c-0.395,0.014-0.526-0.137-0.52-0.525
		c0.019-1.105,0.019-2.213,0-3.317c-0.006-0.387,0.119-0.532,0.516-0.528c1.433,0.018,2.865,0.017,4.297,0.002
		c0.363-0.004,0.478,0.131,0.473,0.483c-0.015,1.131-0.021,2.263,0.002,3.394c0.009,0.426-0.188,0.502-0.548,0.492
		C25.904,259.578,25.2,259.59,24.496,259.59z"/>
	<path fill="#FFFFFF" d="M31.15,264.93c-0.73,0-1.46-0.014-2.189,0.006c-0.357,0.01-0.486-0.117-0.481-0.479
		c0.016-1.132,0.016-2.266,0-3.396c-0.005-0.371,0.154-0.477,0.497-0.475c1.434,0.01,2.869,0.014,4.303-0.002
		c0.385-0.004,0.535,0.114,0.527,0.516c-0.021,1.106-0.023,2.215,0,3.321c0.009,0.425-0.18,0.504-0.544,0.495
		c-0.704-0.02-1.409-0.006-2.113-0.006C31.149,264.916,31.15,264.923,31.15,264.93z"/>
	<path fill="#FFFFFF" d="M37.73,264.91c-0.704,0-1.407-0.012-2.11,0.005c-0.352,0.008-0.493-0.116-0.488-0.479
		c0.015-1.129,0.016-2.261,0-3.391c-0.005-0.385,0.182-0.461,0.51-0.459c1.432,0.008,2.864,0.014,4.296-0.003
		c0.391-0.005,0.528,0.128,0.521,0.521c-0.02,1.104-0.023,2.211,0,3.315c0.009,0.423-0.179,0.504-0.543,0.495
		C39.188,264.896,38.459,264.91,37.73,264.91z"/>
	<path fill="#FFFFFF" d="M37.805,239.122c0.703,0,1.407,0.012,2.11-0.005c0.364-0.009,0.554,0.074,0.545,0.496
		c-0.023,1.13-0.015,2.261-0.004,3.392c0.003,0.322-0.115,0.443-0.44,0.441c-1.482-0.011-2.965-0.007-4.447-0.003
		c-0.264,0.001-0.432-0.069-0.431-0.375c0.004-1.181,0.007-2.362-0.003-3.542c-0.003-0.356,0.199-0.407,0.484-0.405
		C36.347,239.125,37.076,239.122,37.805,239.122z"/>
	<path fill="#FFFFFF" d="M24.53,244.413c0.702,0,1.405,0.016,2.107-0.006c0.394-0.013,0.524,0.133,0.517,0.523
		c-0.02,1.104-0.013,2.208-0.003,3.312c0.002,0.313-0.027,0.522-0.435,0.515c-1.405-0.027-2.811-0.034-4.216-0.027
		c-0.471,0.002-0.661-0.146-0.641-0.655c0.041-1.053,0.029-2.108,0.004-3.162c-0.01-0.428,0.132-0.573,0.559-0.556
		c0.702,0.028,1.405,0.008,2.107,0.008C24.53,244.381,24.53,244.397,24.53,244.413z"/>
	<path fill="#FFFFFF" d="M24.595,271.428c0.678,0,1.356,0.018,2.034-0.007c0.381-0.013,0.536,0.097,0.527,0.505
		c-0.024,1.079-0.014,2.16-0.005,3.239c0.002,0.308-0.023,0.503-0.421,0.536c-1.503,0.128-3.01,0.061-4.513,0.111
		c-0.268,0.01-0.344-0.139-0.343-0.377c0.003-1.181,0.011-2.361-0.005-3.541c-0.006-0.418,0.257-0.433,0.543-0.435
		c0.728-0.006,1.457-0.002,2.185-0.002C24.595,271.448,24.595,271.438,24.595,271.428z"/>
	<path fill="#FFFFFF" d="M27.147,219.703c0,0.327,0,0.653,0,0.98c0,1.188,0,1.176-1.169,1.11c-1.152-0.064-2.306-0.133-3.459-0.134
		c-0.551,0-0.673-0.205-0.656-0.707c0.033-0.979,0.039-1.961-0.002-2.939c-0.022-0.542,0.103-0.764,0.697-0.723
		c1.352,0.093,2.707,0.141,4.062,0.167c0.448,0.009,0.555,0.183,0.535,0.587C27.127,218.596,27.147,219.15,27.147,219.703z"/>
	<path fill="#FFFFFF" d="M27.147,300.533c0,0.252,0,0.504,0,0.755c0,1.405,0,1.396-1.368,1.44c-1.105,0.035-2.21,0.082-3.313,0.156
		c-0.46,0.03-0.618-0.111-0.604-0.583c0.031-1.057,0.022-2.114,0.003-3.171c-0.007-0.406,0.114-0.589,0.55-0.602
		c1.382-0.039,2.763-0.1,4.143-0.18c0.468-0.026,0.628,0.133,0.597,0.598C27.12,299.475,27.147,300.005,27.147,300.533z"/>
	<path fill="#FFFFFF" d="M21.872,284.314c0.051-0.555-0.282-1.414,0.122-1.851c0.409-0.44,1.281-0.133,1.949-0.17
		c0.851-0.047,1.705-0.062,2.555-0.119c0.462-0.03,0.681,0.078,0.661,0.608c-0.04,1.054-0.017,2.109-0.009,3.166
		c0.003,0.334-0.019,0.58-0.465,0.587c-1.43,0.021-2.86,0.059-4.288,0.126c-0.466,0.021-0.549-0.176-0.532-0.572
		C21.89,285.539,21.872,284.984,21.872,284.314z"/>
	<path fill="#FFFFFF" d="M31.164,287.454c0.703,0,1.406,0.015,2.109-0.006c0.37-0.013,0.544,0.077,0.535,0.495
		c-0.024,1.104-0.015,2.209-0.004,3.313c0.003,0.308-0.078,0.451-0.419,0.458c-1.479,0.028-2.959,0.073-4.438,0.129
		c-0.373,0.014-0.471-0.143-0.467-0.486c0.014-1.105,0.022-2.211-0.004-3.315c-0.011-0.448,0.174-0.56,0.58-0.546
		c0.702,0.021,1.406,0.006,2.108,0.006C31.164,287.486,31.164,287.471,31.164,287.454z"/>
	<path fill="#FFFFFF" d="M31.23,276.721c0.679,0,1.359,0.016,2.038-0.006c0.367-0.011,0.549,0.069,0.539,0.492
		c-0.025,1.107-0.016,2.215-0.004,3.322c0.003,0.316-0.097,0.445-0.429,0.449c-1.458,0.023-2.915,0.062-4.372,0.111
		c-0.395,0.014-0.529-0.131-0.522-0.521c0.018-1.082,0.022-2.164-0.002-3.245c-0.009-0.427,0.145-0.593,0.562-0.585
		c0.729,0.013,1.459,0.003,2.189,0.003C31.23,276.734,31.23,276.729,31.23,276.721z"/>
	<path fill="#FFFFFF" d="M24.278,291.964c-0.651,0.036-1.305,0.056-1.955,0.113c-0.334,0.028-0.457-0.081-0.455-0.41
		c0.008-1.156,0.011-2.313-0.001-3.47c-0.003-0.318,0.112-0.454,0.433-0.463c1.456-0.036,2.912-0.078,4.368-0.135
		c0.351-0.014,0.492,0.094,0.485,0.463c-0.018,1.106-0.019,2.213,0.001,3.319c0.006,0.356-0.108,0.484-0.468,0.495
		c-0.802,0.023-1.604,0.088-2.405,0.137C24.28,291.997,24.279,291.98,24.278,291.964z"/>
	<path fill="#FFFFFF" d="M37.775,302.425c-0.705,0-1.41-0.017-2.114,0.007c-0.38,0.012-0.541-0.096-0.532-0.507
		c0.023-1.082,0.021-2.165,0.001-3.247c-0.008-0.4,0.141-0.515,0.526-0.517c1.382-0.009,2.765-0.037,4.147-0.083
		c0.461-0.016,0.683,0.081,0.661,0.615c-0.042,1.031-0.039,2.064-0.001,3.097c0.019,0.515-0.17,0.647-0.649,0.624
		c-0.678-0.034-1.359-0.01-2.039-0.01C37.775,302.412,37.775,302.418,37.775,302.425z"/>
	<path fill="#FFFFFF" d="M44.411,302.404c-0.68,0-1.36-0.024-2.038,0.01c-0.476,0.023-0.603-0.161-0.592-0.609
		c0.026-1.058,0.026-2.115,0-3.172c-0.011-0.441,0.16-0.564,0.574-0.553c1.432,0.042,2.865,0.066,4.298,0.084
		c0.306,0.004,0.459,0.084,0.456,0.424c-0.013,1.133-0.018,2.266,0.002,3.398c0.007,0.398-0.187,0.447-0.51,0.441
		c-0.729-0.014-1.459-0.004-2.189-0.004C44.411,302.418,44.411,302.412,44.411,302.404z"/>
	<path fill="#FFFFFF" d="M31.142,228.382c0.73,0,1.46,0.009,2.19-0.004c0.36-0.006,0.478,0.145,0.472,0.498
		c-0.017,1.108-0.021,2.216,0.001,3.324c0.008,0.405-0.144,0.523-0.529,0.51c-1.458-0.051-2.916-0.084-4.375-0.114
		c-0.274-0.005-0.419-0.088-0.417-0.389c0.007-1.158,0.011-2.317-0.002-3.475c-0.005-0.42,0.249-0.414,0.545-0.411
		c0.705,0.007,1.41,0.002,2.114,0.002C31.142,228.343,31.142,228.363,31.142,228.382z"/>
	<path fill="#FFFFFF" d="M31.188,265.986c0.679,0,1.359,0.017,2.037-0.008c0.394-0.014,0.597,0.062,0.583,0.526
		c-0.031,1.081-0.019,2.163-0.005,3.245c0.004,0.341-0.087,0.493-0.462,0.496c-1.432,0.01-2.864,0.038-4.296,0.081
		c-0.421,0.013-0.578-0.124-0.568-0.56c0.025-1.08,0.021-2.162,0.002-3.244c-0.006-0.389,0.123-0.537,0.52-0.524
		c0.729,0.022,1.458,0.006,2.188,0.006C31.188,266,31.188,265.993,31.188,265.986z"/>
	<path fill="#FFFFFF" d="M30.673,302.575c-0.553,0-1.107-0.022-1.658,0.008c-0.381,0.021-0.544-0.077-0.536-0.49
		c0.022-1.079,0.019-2.161,0.001-3.241c-0.006-0.373,0.092-0.513,0.5-0.543c1.404-0.108,2.811-0.078,4.215-0.125
		c0.434-0.016,0.633,0.073,0.615,0.569c-0.038,1.056-0.024,2.111-0.005,3.166c0.007,0.377-0.091,0.53-0.501,0.535
		C32.427,302.463,31.55,302.529,30.673,302.575z"/>
	<path fill="#FFFFFF" d="M24.813,227.152c-0.877-0.047-1.653-0.103-2.431-0.127c-0.374-0.012-0.527-0.14-0.519-0.538
		c0.023-1.081,0.027-2.163-0.001-3.243c-0.012-0.47,0.211-0.539,0.597-0.522c1.404,0.06,2.81,0.113,4.215,0.149
		c0.352,0.009,0.483,0.128,0.478,0.488c-0.017,1.106-0.017,2.212,0,3.319c0.005,0.357-0.119,0.491-0.478,0.48
		C26.022,227.138,25.368,227.152,24.813,227.152z"/>
	<path fill="#FFFFFF" d="M24.458,243.29c-0.704,0-1.407-0.013-2.11,0.005c-0.359,0.009-0.485-0.131-0.481-0.485
		c0.014-1.13,0.02-2.262-0.002-3.392c-0.008-0.436,0.215-0.49,0.562-0.479c1.43,0.044,2.86,0.085,4.29,0.109
		c0.327,0.005,0.437,0.126,0.434,0.446c-0.012,1.131-0.017,2.262,0.002,3.393c0.007,0.395-0.185,0.453-0.509,0.447
		c-0.728-0.014-1.457-0.005-2.186-0.005C24.458,243.316,24.458,243.303,24.458,243.29z"/>
	<path fill="#FFFFFF" d="M27.147,279.102c-0.081,0.569,0.315,1.49-0.162,1.891c-0.408,0.342-1.294,0.109-1.969,0.138
		c-0.877,0.034-1.754,0.062-2.63,0.114c-0.396,0.021-0.527-0.133-0.521-0.521c0.019-1.104,0.019-2.211,0-3.315
		c-0.007-0.396,0.134-0.513,0.523-0.524c1.455-0.047,2.913,0.055,4.365-0.104c0.371-0.04,0.4,0.188,0.396,0.47
		C27.142,277.825,27.147,278.402,27.147,279.102z"/>
	<path fill="#FFFFFF" d="M31,217.646c0.754,0,1.509,0.007,2.263-0.003c0.358-0.005,0.553,0.082,0.543,0.506
		c-0.025,1.107-0.023,2.215-0.001,3.322c0.008,0.41-0.152,0.52-0.533,0.505c-1.457-0.056-2.914-0.102-4.371-0.131
		c-0.343-0.007-0.421-0.159-0.419-0.461c0.009-1.133,0.012-2.266-0.001-3.398c-0.004-0.361,0.096-0.458,0.482-0.425
		c0.674,0.056,1.357,0.016,2.036,0.016C31,217.6,31,217.623,31,217.646z"/>
	<path fill="#FFFFFF" d="M33.798,305.682c0,0.553-0.021,1.107,0.006,1.659c0.02,0.403-0.142,0.507-0.526,0.515
		c-1.381,0.025-2.762,0.072-4.141,0.145c-0.474,0.025-0.68-0.084-0.663-0.607c0.036-1.056,0.025-2.112,0.003-3.168
		c-0.009-0.426,0.143-0.572,0.565-0.578c1.331-0.021,2.663-0.045,3.991-0.127c0.653-0.041,0.836,0.197,0.773,0.807
		C33.761,304.771,33.798,305.229,33.798,305.682z"/>
	<path fill="#FFFFFF" d="M33.798,295.1c-0.085,0.569,0.318,1.489-0.166,1.892c-0.412,0.342-1.294,0.114-1.968,0.142
		c-0.853,0.033-1.705,0.059-2.557,0.105c-0.423,0.023-0.648-0.065-0.632-0.567c0.034-1.08,0.024-2.161,0.003-3.241
		c-0.008-0.4,0.151-0.521,0.527-0.527c1.405-0.023,2.811-0.055,4.215-0.112c0.477-0.021,0.613,0.159,0.585,0.608
		C33.773,293.923,33.798,294.452,33.798,295.1z"/>
	<path fill="#FFFFFF" d="M37.821,233.803c0.705,0,1.409,0.018,2.113-0.007c0.392-0.014,0.531,0.117,0.524,0.516
		c-0.021,1.106-0.018,2.214-0.002,3.321c0.005,0.353-0.106,0.5-0.473,0.49c-1.482-0.039-2.964-0.067-4.447-0.083
		c-0.359-0.004-0.401-0.199-0.4-0.483c0.005-1.107,0.014-2.214-0.004-3.321c-0.006-0.381,0.164-0.465,0.5-0.458
		c0.729,0.016,1.459,0.005,2.188,0.005C37.821,233.79,37.821,233.796,37.821,233.803z"/>
	<path fill="#FFFFFF" d="M31.124,237.997c-0.704,0-1.409-0.016-2.113,0.006c-0.386,0.012-0.538-0.113-0.531-0.514
		c0.02-1.107,0.016-2.214,0.001-3.322c-0.004-0.35,0.107-0.501,0.475-0.491c1.457,0.042,2.915,0.071,4.372,0.09
		c0.349,0.004,0.483,0.124,0.477,0.486c-0.019,1.107-0.018,2.215,0,3.322c0.006,0.372-0.145,0.476-0.491,0.467
		c-0.729-0.018-1.459-0.005-2.189-0.005C31.124,238.023,31.124,238.01,31.124,237.997z"/>
	<path fill="#FFFFFF" d="M44.48,303.502c0.729,0,1.458,0.01,2.187-0.005c0.326-0.007,0.443,0.12,0.44,0.44
		c-0.011,1.133-0.014,2.265,0.002,3.396c0.005,0.354-0.109,0.521-0.473,0.483c-1.454-0.149-2.913-0.051-4.369-0.09
		c-0.348-0.011-0.488-0.119-0.482-0.481c0.017-1.081,0.026-2.163-0.004-3.243c-0.012-0.464,0.194-0.539,0.587-0.527
		c0.703,0.022,1.408,0.008,2.112,0.008C44.48,303.488,44.48,303.495,44.48,303.502z"/>
	<path fill="#FFFFFF" d="M31.077,248.751c-0.703,0-1.407-0.013-2.11,0.005c-0.35,0.01-0.492-0.104-0.486-0.47
		c0.017-1.13,0.008-2.261,0.004-3.391c-0.001-0.279,0.022-0.498,0.401-0.462c1.428,0.14,2.86,0.052,4.29,0.051
		c0.496,0,0.649,0.146,0.632,0.639c-0.034,1.003-0.032,2.01,0,3.013c0.015,0.479-0.11,0.677-0.623,0.646
		c-0.701-0.042-1.406-0.011-2.109-0.011C31.077,248.765,31.077,248.758,31.077,248.751z"/>
	<path fill="#FFFFFF" d="M37.771,280.971c-0.705,0-1.411-0.02-2.115,0.008c-0.397,0.016-0.531-0.121-0.523-0.518
		c0.02-1.082,0.023-2.166-0.001-3.249c-0.01-0.422,0.175-0.501,0.541-0.5c1.436,0.009,2.872,0.003,4.307-0.017
		c0.359-0.006,0.483,0.121,0.478,0.479c-0.016,1.108-0.018,2.218,0.001,3.325c0.007,0.38-0.155,0.467-0.495,0.459
		c-0.73-0.018-1.461-0.006-2.191-0.006C37.771,280.96,37.771,280.965,37.771,280.971z"/>
	<path fill="#FFFFFF" d="M44.431,207.002c0.73,0,1.461,0.013,2.191-0.005c0.351-0.009,0.493,0.104,0.487,0.472
		c-0.017,1.108-0.018,2.217,0,3.325c0.006,0.371-0.138,0.47-0.487,0.468c-1.436-0.008-2.872-0.001-4.307,0.021
		c-0.381,0.005-0.541-0.105-0.532-0.511c0.021-1.083,0.022-2.167,0-3.249c-0.009-0.411,0.151-0.518,0.532-0.506
		c0.705,0.022,1.41,0.006,2.116,0.006C44.431,207.016,44.431,207.009,44.431,207.002z"/>
	<path fill="#FFFFFF" d="M37.728,259.506c-0.703-0.001-1.406-0.013-2.109,0.006c-0.352,0.008-0.491-0.115-0.486-0.477
		c0.015-1.105,0.02-2.21-0.002-3.314c-0.008-0.421,0.183-0.498,0.545-0.494c1.406,0.015,2.812,0.015,4.218,0.002
		c0.402-0.004,0.579,0.112,0.566,0.557c-0.03,1.054-0.025,2.109-0.002,3.163c0.009,0.415-0.106,0.585-0.546,0.565
		C39.186,259.482,38.457,259.506,37.728,259.506z"/>
</g>
</svg>
