<?xml version="1.0" encoding="utf-8"?>
<!-- Generator: Adobe Illustrator 16.0.0, SVG Export Plug-In . SVG Version: 6.00 Build 0)  -->
<!DOCTYPE svg PUBLIC "-//W3C//DTD SVG 1.1//EN" "http://www.w3.org/Graphics/SVG/1.1/DTD/svg11.dtd">
<svg version="1.1" id="Layer_1" xmlns="http://www.w3.org/2000/svg" xmlns:xlink="http://www.w3.org/1999/xlink" x="0px" y="0px"
	 width="500px" height="347px" viewBox="0 80.5 500 347" enable-background="new 0 80.5 500 347" xml:space="preserve">
<g>
	<path fill="#FFFFFF" stroke="#FFFFFF" stroke-miterlimit="10" d="M220.347,156.071c0.165-2.258,0.056-4.523,0.205-6.785
		c0.687-10.466,3.807-20.139,9.533-28.897c10.227-15.641,24.718-25.238,42.757-29.649c5.162-1.26,10.418-1.841,15.738-1.817
		c5.316,0.021,9.203,3.845,9.232,9.179c0.024,5.817,0.037,11.625-0.011,17.435c-0.04,4.673-3.655,8.523-8.312,8.686
		c-7.768,0.267-12.654,5.292-14.721,11.698c-0.759,2.348-1.047,4.767-1.252,7.209c-0.072,0.837,0.137,1.119,1.047,1.117
		c11.949-0.034,23.903-0.014,35.854-0.029c2.799-0.006,5.129,0.99,6.994,3.059c1.535,1.702,2.277,3.745,2.281,6.011
		c0.018,25.438,0.021,50.874-0.004,76.312c-0.005,5.25-4.052,9.088-9.488,9.104c-6.979,0.022-13.961,0.004-20.943,0.008
		c-0.434,0-0.871,0.056-1.305,0.088c-0.049-0.012-0.074-0.04-0.081-0.088c0.101-0.273,0.226-0.54,0.291-0.821
		c1.604-6.653,2.394-13.379,2.03-20.245c-0.168-3.136-0.437-6.255-1.004-9.332c-1.73-9.345-5.256-17.953-10.777-25.721
		c-5.703-8.025-12.893-14.363-21.557-19.025c-6.219-3.349-12.816-5.62-19.78-6.759c-5.517-0.9-11.07-1.324-16.661-0.665
		L220.347,156.071z"/>
	<path fill="#FFFFFF" stroke="#FFFFFF" stroke-miterlimit="10" d="M287.955,238.798c-7.137,24.896-22.699,42.296-46.601,52.208
		c-6.379,2.645-13.086,4.057-19.954,4.751c-0.889,0.091-1.012-0.192-1.01-0.983c0.023-10.93-0.002-21.855,0.04-32.781
		c0.005-1.109-0.234-1.379-1.366-1.325c-11.635,0.53-22.307-2.373-31.689-9.374c-10.253-7.649-16.402-17.915-18.5-30.499
		c-3.918-23.504,8.565-46.037,27.872-57.28c7.307-4.258,15.163-6.767,23.598-7.442l0.072,0.072
		c-0.008,0.367-0.025,0.729-0.025,1.097c-0.001,23.891-0.001,47.785,0,71.679c0,6.034,3.792,9.824,9.833,9.824
		c18.851,0.002,37.701,0,56.554-0.004c0.367,0,0.727-0.018,1.094-0.03C287.882,238.758,287.906,238.786,287.955,238.798z"/>
	<path fill="#FFFFFF" stroke="#FFFFFF" stroke-miterlimit="10" d="M96.426,360.204c4.677-4.963,10.131-7.79,16.581-8.75
		c13.6-2.022,26.023,5.854,29.765,19.138c2.907,10.311,1.862,20.176-4.978,28.729c-7.968,9.964-18.557,13.763-30.933,10.749
		c-12.479-3.038-19.911-11.431-22.609-23.978c-0.355-1.641-0.474-3.325-0.475-5.012c-0.003-14.729-0.01-29.461,0.003-44.188
		c0.001-4.567,3.885-7.468,8.29-6.238c2.768,0.771,4.346,2.988,4.353,6.207c0.017,7.312,0.005,14.625,0.005,21.933
		C96.426,359.182,96.426,359.564,96.426,360.204z M131.475,380.787c-0.024-9.65-7.86-17.446-17.531-17.438
		c-9.619,0.008-17.477,7.926-17.425,17.551c0.051,9.615,7.856,17.366,17.486,17.363
		C123.678,398.262,131.498,390.439,131.475,380.787z"/>
	<path fill="#FFFFFF" stroke="#FFFFFF" stroke-miterlimit="10" d="M232.029,401.394c-2.827,3.077-5.941,5.311-9.546,6.838
		c-15.159,6.41-34.194-0.978-37.637-20.562c-1.504-8.549-0.294-16.574,4.648-23.859c6.765-9.972,19.119-15.054,30.687-12.668
		c12.339,2.549,21.629,11.881,23.939,24.02c0.34,1.801,0.538,3.617,0.544,5.443c0.024,7.778,0.033,15.562,0.001,23.346
		c-0.018,5.021-4.476,7.922-9.026,5.896c-2.338-1.04-3.47-2.922-3.605-5.426C231.988,403.511,232.029,402.6,232.029,401.394z
		 M231.925,380.841c0.029-9.581-7.786-17.452-17.372-17.489c-9.665-0.041-17.539,7.74-17.592,17.39
		c-0.054,9.647,7.77,17.508,17.435,17.527C224.084,398.283,231.892,390.52,231.925,380.841z"/>
	<path fill="#FFFFFF" stroke="#FFFFFF" stroke-miterlimit="10" d="M331.711,351.311c10.598,0.213,19.17,4.496,24.727,14.054
		c2.509,4.323,3.503,9.097,3.66,14.053c0.117,3.804-2.311,6.247-6.147,6.259c-4.388,0.01-8.771,0.004-13.152,0.004
		c-8.332,0-16.664,0-24.998,0c-1.315,0-1.315,0.004-1.045,1.332c1.312,6.43,6.236,11.206,12.822,12.541
		c6.572,1.334,12.358-0.229,17.444-4.549c0.949-0.806,1.933-1.55,3.146-1.939c3.221-1.035,6.578,0.593,7.219,3.593
		c0.457,2.139-0.102,4.028-1.678,5.614c-4.723,4.766-10.437,7.546-17.053,8.407c-6.146,0.803-12.22,0.452-17.894-2.272
		c-9.414-4.528-14.955-11.992-16.371-22.391c-0.877-6.457-0.406-12.818,2.521-18.718c4.418-8.907,11.731-14.01,21.526-15.581
		C328.102,351.445,329.779,351.373,331.711,351.311z M331.24,376.486c5.188,0,10.373-0.021,15.561,0.019
		c0.828,0.009,0.945-0.248,0.814-0.983c-1.004-5.487-3.906-9.506-9.074-11.768c-3.494-1.523-7.146-1.632-10.85-1.046
		c-6.593,1.046-11.755,6.085-12.976,12.571c-0.164,0.869-0.147,1.256,0.969,1.236C320.867,376.445,326.055,376.486,331.24,376.486z"
		/>
	<path fill="#FFFFFF" stroke="#FFFFFF" stroke-miterlimit="10" d="M281.275,364.456c-0.547,0-0.896,0-1.246,0
		c-7.895,0-15.785,0.01-23.68-0.005c-2.728-0.006-5.146-1.819-5.828-4.309c-0.686-2.496,0.4-5.205,2.672-6.656
		c0.91-0.584,1.91-0.896,2.998-0.896c12.539,0.002,25.069,0.004,37.604,0.004c0.965,0,1.89,0.188,2.772,0.551
		c3.24,1.323,4.541,4.408,3.351,7.974c-0.563,1.698-1.599,3.099-2.812,4.389c-9.938,10.521-19.873,21.043-29.809,31.566
		c-0.195,0.212-0.388,0.425-0.621,0.687c0.401,0.306,0.807,0.166,1.174,0.166c8.953,0.012,17.907,0.003,26.862,0.012
		c3.091,0.005,5.535,1.824,6.166,4.556c0.908,3.89-1.854,7.298-5.976,7.318c-5.336,0.03-10.67,0.007-16.008,0.011
		c-7.822,0-15.644-0.004-23.463,0.004c-0.916,0-1.828-0.053-2.715-0.279c-3.768-0.961-5.514-4.187-4.383-8.059
		c0.483-1.65,1.421-3.021,2.581-4.274c9.854-10.597,19.699-21.2,29.547-31.8C280.701,365.152,280.92,364.881,281.275,364.456z"/>
	<path fill="#FFFFFF" stroke="#FFFFFF" stroke-miterlimit="10" d="M364.266,390.009c0-4.385-0.032-8.772,0.007-13.157
		c0.125-13.15,10.54-24.317,23.622-25.381c13.97-1.13,25.968,8.366,28.064,22.237c0.17,1.118,0.246,2.259,0.25,3.388
		c0.021,8.916,0.025,17.838,0.008,26.753c-0.008,4.155-3.498,7.106-7.59,6.462c-2.893-0.458-5.047-3.207-5.053-6.519
		c-0.015-8.81-0.021-17.614,0-26.423c0.01-3.234-0.967-6.104-2.979-8.615c-3.397-4.249-9.141-5.958-14.418-4.311
		c-5.131,1.603-8.83,6.263-9.233,11.632c-0.052,0.692-0.066,1.387-0.066,2.081c-0.006,8.515,0.014,17.031-0.01,25.547
		c-0.013,4.292-3.414,7.245-7.541,6.609c-2.816-0.436-5.041-3.107-5.06-6.158C364.242,399.44,364.262,394.723,364.266,390.009z"/>
	<path fill="#FFFFFF" stroke="#FFFFFF" stroke-miterlimit="10" d="M161.834,361.229c1.777-2.506,3.722-4.746,6.156-6.558
		c4.584-3.403,9.689-4.005,15.095-2.754c4.055,0.937,5.981,5.929,3.215,9.767c-1.076,1.49-2.858,1.555-4.475,1.654
		c-1.921,0.121-3.87-0.117-5.798-0.025c-4.21,0.196-7.416,2.219-9.673,5.733c-2.188,3.411-3.231,7.231-3.869,11.187
		c-0.812,5.045-0.635,10.129-0.644,15.205c-0.006,2.849,0.016,5.697-0.006,8.551c-0.026,3.553-2.852,6.38-6.399,6.434
		c-3.296,0.054-5.991-2.604-6.191-6.11c-0.019-0.293-0.015-0.584-0.015-0.877c0-14.837,0.007-29.669-0.01-44.51
		c-0.006-1.907,0.418-3.608,1.751-5.026c1.741-1.856,4.191-2.435,6.619-1.551c2.393,0.871,4.155,3.187,4.238,5.611
		C161.864,359.05,161.834,360.139,161.834,361.229z"/>
</g>
</svg>
