<?xml version="1.0" encoding="utf-8"?>
<!-- Generator: Adobe Illustrator 16.0.0, SVG Export Plug-In . SVG Version: 6.00 Build 0)  -->
<!DOCTYPE svg PUBLIC "-//W3C//DTD SVG 1.1//EN" "http://www.w3.org/Graphics/SVG/1.1/DTD/svg11.dtd">
<svg version="1.1" id="Layer_1" xmlns="http://www.w3.org/2000/svg" xmlns:xlink="http://www.w3.org/1999/xlink" x="0px" y="0px"
	 width="500px" height="363px" viewBox="0 52.5 500 363" enable-background="new 0 52.5 500 363" xml:space="preserve">
<g>
	<path fill="#FFFFFF" d="M164.571,323.811c3.253,0,5.547-0.078,7.835,0.013c24.714,0.963,49.438,0.78,74.158,0.438
		c17.872-0.247,34.694-4.159,49.102-15.519c17.887-14.102,28.545-32.309,31.501-55.002c1.894-14.537-0.825-28.138-7.808-40.914
		c-1.069-1.955-0.771-2.93,0.764-4.34c9.361-8.608,18.095-17.801,24.057-29.178c7.52-14.344,10.947-29.468,7.493-45.629
		c-4.164-19.485-19.839-33.919-39.771-36.725c-15.693-2.209-31.492-1.288-47.244-1.365c-33.054-0.162-66.109-0.012-99.164,0.01
		c-1.36,0.001-2.719,0-4.761,0c3.234-5.626,7.407-9.737,11.914-13.499c13.813-11.526,30.074-17.785,47.529-20.752
		c35.417-6.021,69.658-1.801,101.521,15.116c35.529,18.864,58.247,48.678,70.213,86.851c4.784,15.26,6.976,30.968,6.607,46.934
		c-1.631,71.149-50.96,130.929-121.218,143.294c-36.093,6.352-69.829,0.129-100.634-20.193
		C172.682,330.721,168.763,327.958,164.571,323.811z"/>
	<path fill="#FFFFFF" d="M125.523,275.952c-8.398-16.54-13.817-33.046-16.221-50.538c-3.005-21.865-0.781-43.317,5.037-64.476
		c0.674-2.452-0.011-3.86-1.869-5.39c-10.068-8.29-20.043-16.693-30.047-25.062c-1.498-1.253-2.976-2.531-5.155-4.387
		c1.907,0,2.956,0,4.004,0c68.344,0,136.688,0.009,205.033-0.02c4.481-0.001,8.94,0.236,13.379,0.777
		c12.278,1.497,19.531,9.813,20.743,22.502c2.034,21.285-15.971,38.928-33.929,42.297c-7.963,1.495-16.087,1.267-24.137,1.305
		c-27.337,0.13-54.674-0.033-82.011,0.032c-2.864,0.007-3.208-0.739-2.559-3.388c2.297-9.389,4.264-18.856,6.491-28.262
		c0.479-2.024,0.088-2.66-2.007-2.643c-8.697,0.071-17.399,0.167-26.092-0.051c-2.783-0.07-2.936,1.626-3.357,3.385
		c-5.061,21.09-10.099,42.187-15.152,63.278C133.691,241.938,129.697,258.561,125.523,275.952z"/>
	<path fill="#FFFFFF" d="M223.02,225.271c16.146,0,32.291,0.019,48.436-0.017c3-0.007,5.979,0.222,8.858,0.956
		c9.543,2.433,15.399,8.485,16.463,18.348c1.738,16.133-5.514,38.62-28.043,44.409c-5.803,1.49-11.782,1.555-17.728,1.861
		c-28.551,1.479-57.105,0.373-85.658,0.064c-2.98-0.031-5.964-0.106-8.94,0c-1.99,0.069-2.673-0.522-2.18-2.572
		c4.865-20.232,9.737-40.465,14.439-60.734c0.565-2.437,1.866-2.398,3.679-2.396c16.891,0.026,33.781,0.016,50.672,0.016
		C223.02,225.228,223.02,225.249,223.02,225.271z"/>
	<path fill="#FFFFFF" d="M252.939,386.369c0,7.222-0.051,14.093,0.033,20.964c0.021,2.002-0.481,2.856-2.699,2.877
		c-2.37,0.022-2.917-0.87-2.896-3.062c0.092-9.812,0.012-19.621,0.072-29.433c0.008-1.334-0.791-3.276,1.389-3.696
		c1.955-0.375,3.851-0.42,5.142,1.823c3.465,6.021,7.108,11.938,10.692,17.892c0.937,1.554,1.914,3.082,3.458,5.561
		c0-8.062,0.012-15.062-0.008-22.061c-0.005-1.772-0.288-3.383,2.491-3.437c2.896-0.053,2.79,1.522,2.778,3.534
		c-0.045,9.812,0.013,19.621-0.062,29.432c-0.008,1.157,0.89,3.062-1.265,3.279c-1.865,0.189-3.83,0.648-5.172-1.709
		c-3.615-6.354-7.476-12.573-11.238-18.844C255.043,388.471,254.633,387.281,252.939,386.369z"/>
	<path fill="#FFFFFF" d="M98.333,410.136c-8.986,0-8.986,0-8.986-9.152c0-7.946,0.07-15.896-0.042-23.841
		c-0.033-2.375,0.662-3.398,3.155-3.3c3.595,0.146,7.201-0.024,10.8,0.058c3.444,0.078,6.922,0.549,8.462,4.185
		c1.75,4.132,2.219,8.503-0.486,12.42c-0.97,1.404-1.036,1.874-0.008,3.278c2.752,3.759,2.265,8.072,0.651,12.048
		c-1.506,3.71-4.962,4.519-8.704,4.321C101.565,410.065,99.947,410.136,98.333,410.136z M100.62,404.894
		c2.133-0.449,5.335,1.238,6.66-2.485c1.634-4.6-0.544-7.739-5.458-7.803c-0.99-0.013-1.998,0.117-2.967-0.022
		c-3.405-0.496-4.529,0.833-4.382,4.298C94.728,404.885,94.525,404.894,100.62,404.894z M100.413,389.288
		c6.159,0,6.243-0.009,6.96-2.837c0.602-2.375,0.55-4.709-1.367-6.528c-0.837-0.794-10.29-0.784-10.936-0.114
		c-0.236,0.244-0.349,0.633-0.455,0.976C92.857,386.445,94.797,389.288,100.413,389.288z"/>
	<path fill="#FFFFFF" d="M333.339,402.968c1.28-5.919,2.458-10.977,3.438-16.071c0.411-2.149,1.46-2.871,3.565-2.754
		c1.923,0.107,3.524-0.08,3.995,2.631c0.899,5.185,2.253,10.289,4.073,15.399c1.071-5.106,2.351-10.187,3.138-15.338
		c0.462-3.021,2.352-2.832,4.311-2.604c2.885,0.338,1.006,2.442,0.812,3.406c-1.341,6.67-3.038,13.267-4.426,19.925
		c-0.519,2.479-1.983,2.663-4.019,2.613c-1.949-0.048-3.558,0.066-4.041-2.576c-0.864-4.732-2.108-9.397-3.879-14.231
		c-1.02,4.368-2.088,8.726-3.036,13.106c-0.507,2.331-1.063,3.896-4.189,3.812c-2.884-0.078-3.787-1.121-4.312-3.666
		c-1.316-6.423-2.888-12.794-4.308-19.196c-0.267-1.196-1.276-2.873,1.005-3.173c1.792-0.234,3.689-0.555,4.146,2.249
		c0.755,4.638,1.794,9.229,2.74,13.836C332.474,400.914,332.768,401.46,333.339,402.968z"/>
	<path fill="#FFFFFF" d="M423.861,409.797c-9.099,2.273-9.61-6.88-15.09-9.854c0,2.771-0.097,5.323,0.026,7.866
		c0.105,2.175-1.088,2.361-2.797,2.361c-1.725,0.001-2.797-0.229-2.781-2.385c0.077-10.438,0.065-20.875,0.007-31.312
		c-0.011-1.979,0.841-2.576,2.683-2.623c2.036-0.054,2.931,0.623,2.896,2.775c-0.092,5.801-0.03,11.604-0.03,18.055
		c2.985-2.322,4.727-4.849,6.421-7.322c2.136-3.117,4.855-3.78,8.734-2.775c-2.874,3.729-5.498,7.289-8.301,10.702
		c-1.254,1.524-1.273,2.526,0.062,4.082C418.492,402.627,421.017,406.127,423.861,409.797z"/>
	<path fill="#FFFFFF" d="M218.792,394.326c1.759-2.188,3.678-4.268,5.237-6.59c2.135-3.176,4.834-4.366,9.025-3.135
		c-2.687,3.445-5.16,6.793-7.826,9.979c-1.575,1.882-1.96,3.232-0.029,5.305c2.762,2.964,5.046,6.373,7.782,9.913
		c-3.698,0.688-6.499,0.727-8.589-2.688c-1.581-2.581-3.79-4.776-6.497-8.1c0,3.523-0.089,5.93,0.028,8.321
		c0.099,2.011-0.473,2.929-2.699,2.863c-1.962-0.06-2.912-0.434-2.891-2.684c0.097-10.312,0.085-20.627,0.008-30.938
		c-0.017-2.231,1.016-2.721,2.959-2.729c1.935-0.008,2.637,0.775,2.617,2.674c-0.064,5.826-0.024,11.652-0.024,17.48
		C218.193,394.109,218.492,394.218,218.792,394.326z"/>
	<path fill="#FFFFFF" d="M291.896,399.533c-1.489,0.001-2.984-0.08-4.467,0.024c-1.207,0.089-2.979-0.639-3.064,1.604
		c-0.077,2.01,0.797,3.498,2.879,3.637c2.842,0.19,5.708,0.167,8.557,0.062c1.881-0.069,2.662,0.507,2.672,2.503
		c0.01,2.037-0.555,2.929-2.744,2.811c-2.971-0.161-5.959,0.031-8.934-0.062c-4.386-0.14-7.436-2.573-7.857-6.917
		c-0.381-3.928-0.439-7.972,0.068-11.872c0.736-5.633,4.453-7.592,12.211-7.141c5.297,0.307,8.16,3.26,8.254,8.515
		C299.592,399.533,299.592,399.533,291.896,399.533z M288.908,395.423c1.619-1.282,4.939,1.786,5.273-2.092
		c0.303-3.511-2.671-3.758-5.148-3.881c-2.795-0.14-5.18,1.061-4.915,4.17C284.402,396.953,287.387,394.307,288.908,395.423z"/>
	<path fill="#FFFFFF" d="M177.684,396.431c0.448-5.044-0.243-6.038-4.763-6.737c-1.581-0.242-3.208-0.34-4.806-0.276
		c-1.917,0.074-2.959-0.294-2.948-2.603c0.01-2.236,0.927-2.854,2.902-2.64c0.368,0.041,0.744,0.007,1.116,0.005
		c11.763-0.053,13.97,2.12,13.97,13.756c0,3.104,0.03,6.206-0.009,9.311c-0.035,2.697-2.05,4.216-3.84,2.551
		c-1.878-1.746-2.949-0.675-4.474-0.122c-4.861,1.762-10.31-0.168-11.762-4.13c-1.103-3.008-0.958-5.93,1.267-8.363
		c2.628-2.871,6.073-3.104,9.623-2.318C175.144,395.122,176.234,395.805,177.684,396.431z M172.431,404.91
		c1.775-0.531,5.271,0.634,5.295-2.569c0.023-2.925-3.4-2.126-5.398-2.435c-1.781-0.274-4.102-0.253-4.208,2.386
		C168.01,405.004,170.237,404.855,172.431,404.91z"/>
	<path fill="#FFFFFF" d="M381.489,397.594c0.679,12.154-2.061,12.843-12.604,12.56c-5.553-0.15-7.992-2.396-8.118-7.875
		c-0.075-3.354-0.088-6.712,0.003-10.062c0.146-5.399,2.668-7.903,8.108-8.021C379.026,383.973,382.286,384.312,381.489,397.594z
		 M376.3,397.587c-0.104-7.819,1.136-7.493-5.957-7.709c-3.344-0.103-4.472,1.239-4.394,4.291c0.062,2.479-0.072,4.969,0.08,7.44
		c0.092,1.48,0.506,2.873,2.406,3.271c6.159,1.286,7.86-0.011,7.862-6.177C376.3,398.331,376.3,397.959,376.3,397.587z"/>
	<path fill="#FFFFFF" d="M125.363,410.136c-1.615,0-3.237-0.097-4.843,0.024c-2.001,0.148-2.901-0.433-2.905-2.656
		c-0.004-2.254,0.951-2.723,2.926-2.641c2.853,0.117,5.714,0.014,8.571,0.023c1.61,0.008,2.626-0.617,2.679-2.356
		c0.054-1.771-0.636-2.871-2.567-2.869c-1.242,0.001-2.485,0.003-3.727-0.021c-5.247-0.09-7.851-2.688-7.815-7.787
		c0.033-4.734,2.789-7.524,7.702-7.658c3.104-0.082,6.215,0.078,9.316-0.045c2.26-0.09,2.687,1.062,2.701,2.979
		c0.014,1.956-0.815,2.644-2.695,2.593c-2.855-0.078-5.714-0.033-8.571,0.012c-1.429,0.021-2.804,0.223-2.802,2.162
		c0.002,1.756,1.11,2.395,2.622,2.508c1.236,0.094,2.483,0.031,3.725,0.052c5.083,0.087,7.741,2.842,7.68,7.951
		c-0.059,4.997-2.595,7.609-7.524,7.723C128.346,410.163,126.854,410.135,125.363,410.136z"/>
	<path fill="#FFFFFF" d="M435.529,410.136c-1.614,0-3.237-0.099-4.846,0.025c-2.016,0.155-2.884-0.46-2.893-2.669
		c-0.008-2.271,0.979-2.707,2.938-2.629c2.854,0.112,5.715,0.014,8.569,0.023c1.614,0.006,2.619-0.633,2.668-2.37
		c0.051-1.772-0.651-2.86-2.579-2.856c-1.242,0.004-2.482,0.005-3.727-0.02c-5.242-0.092-7.846-2.695-7.804-7.8
		c0.037-4.731,2.797-7.516,7.712-7.646c3.104-0.082,6.216,0.078,9.314-0.045c2.271-0.09,2.672,1.084,2.688,2.992
		c0.018,1.969-0.843,2.629-2.708,2.58c-2.854-0.076-5.714-0.033-8.57,0.012c-1.435,0.021-2.799,0.235-2.788,2.176
		c0.01,1.758,1.126,2.384,2.634,2.496c1.236,0.092,2.483,0.029,3.728,0.051c5.076,0.087,7.733,2.853,7.667,7.964
		c-0.066,4.996-2.603,7.601-7.535,7.709C438.512,410.162,437.021,410.135,435.529,410.136z"/>
	<path fill="#FFFFFF" d="M316.507,410.133c-5.118-0.077-8.018-2.676-8.479-7.878c-0.221-2.458-0.008-4.951-0.092-7.426
		c-0.074-2.276,0.98-5.058-2.982-5.507c-1.377-0.157-0.766-2.117-0.846-3.292c-0.062-0.946,0.232-1.854,1.361-1.798
		c2.723,0.138,2.521-1.688,2.486-3.467c-0.02-0.867-0.044-1.738,0.016-2.603c0.193-2.812,2.712-3.414,4.52-3.485
		c1.809-0.07,0.744,2.157,0.945,3.35c0.186,1.084,0.119,2.229,0.022,3.336c-0.175,2.023,0.538,3.009,2.706,2.837
		c2.019-0.16,3.97-0.345,3.945,2.815c-0.023,2.941-1.816,2.819-3.711,2.664c-2.307-0.189-3.097,0.799-2.951,3.021
		c0.134,2.097,0.107,4.213,0.008,6.312c-0.168,3.488,0.291,6.229,4.862,5.938c2.483-0.158,1.7,1.999,1.667,3.275
		C319.934,410.147,319.719,410.182,316.507,410.133z"/>
	<path fill="#FFFFFF" d="M154.064,410.136c-5.244-0.089-8.131-2.714-8.589-7.923c-0.205-2.336,0.031-4.707-0.093-7.054
		c-0.123-2.335,1.187-5.339-3.008-5.861c-1.352-0.168-0.731-2.134-0.809-3.312c-0.063-0.959,0.277-1.815,1.403-1.762
		c2.754,0.133,2.449-1.766,2.44-3.504c-0.004-0.867-0.05-1.738,0.022-2.602c0.236-2.79,2.748-3.396,4.554-3.442
		c1.762-0.045,0.685,2.19,0.909,3.396c0.178,0.957,0.132,1.984,0.018,2.963c-0.282,2.41,0.662,3.459,3.124,3.156
		c2.11-0.26,3.555,0.14,3.525,2.869c-0.027,2.604-1.493,2.844-3.379,2.621c-2.707-0.318-3.489,0.932-3.284,3.435
		c0.162,1.969,0.119,3.965,0.013,5.939c-0.19,3.526,0.372,6.177,4.906,5.899c2.473-0.149,1.607,2.032,1.635,3.312
		C157.511,411.055,155.267,409.816,154.064,410.136z"/>
	<path fill="#FFFFFF" d="M200.947,410.135c-1.366-0.002-2.733,0.033-4.097-0.008c-4.548-0.14-7.443-2.32-8.081-6.673
		c-0.593-4.044-0.601-8.19,0.006-12.237c0.66-4.396,2.958-6.488,7.501-6.919c3.201-0.303,6.45-0.053,9.677-0.124
		c2.233-0.049,2.216,1.428,2.26,3.002c0.045,1.662-0.53,2.573-2.345,2.536c-2.606-0.054-5.215,0.045-7.822-0.004
		c-2.83-0.053-4.098,1.326-3.995,4.092c0.004,0.123-0.008,0.248-0.008,0.372c-0.07,12.129-0.541,10.667,10.139,10.746
		c1.765,0.014,4.065-0.937,4.1,2.537c0.034,3.388-2.119,2.623-3.983,2.675C203.183,410.162,202.064,410.136,200.947,410.135z"/>
	<path fill="#FFFFFF" d="M386.851,397.134c0-3.35-0.032-6.7,0.013-10.049c0.034-2.595,2.483-4.351,3.882-2.659
		c2.243,2.719,3.771,0.493,5.533,0.098c3.397-0.767,4.431,0.185,3.812,3.504c-0.333,1.783-1.66,1.832-2.783,1.748
		c-4.257-0.317-5.267,1.795-4.997,5.632c0.285,4.074-0.013,8.187,0.095,12.275c0.052,2.021-0.812,2.508-2.668,2.502
		c-1.928-0.006-3.023-0.338-2.922-2.633C386.966,404.085,386.852,400.606,386.851,397.134z"/>
</g>
</svg>
