<?xml version="1.0" encoding="utf-8"?>
<!-- Generator: Adobe Illustrator 16.0.0, SVG Export Plug-In . SVG Version: 6.00 Build 0)  -->
<!DOCTYPE svg PUBLIC "-//W3C//DTD SVG 1.1//EN" "http://www.w3.org/Graphics/SVG/1.1/DTD/svg11.dtd">
<svg version="1.1" id="Layer_1" xmlns="http://www.w3.org/2000/svg" xmlns:xlink="http://www.w3.org/1999/xlink" x="0px" y="0px"
	 width="500px" height="170px" viewBox="0 166.5 500 170" enable-background="new 0 166.5 500 170" xml:space="preserve">
<g>
	<path fill="#FFFFFF" d="M319.275,283.746c-18.199,12.898-39.699,26.398-62.801,40.6l-0.898,0.5c-0.301,0.2-0.4,0.602-0.2,1
		c0.2,0.301,0.601,0.4,1,0.2l0.8-0.399c19.6-10.199,42.2-22.399,64.8-34.899c0.102-0.101,0.2-0.101,0.4-0.2
		C321.076,288.445,319.976,286.146,319.275,283.746z M438.476,187.246c-28.6-31.601-212.7-3.2-291,13.899l-1.8,0.4
		c-0.4,0.1-0.6,0.4-0.6,0.8c0.1,0.4,0.4,0.601,0.8,0.601l1.8-0.4c64.8-11.5,199.7-27.5,228.8,1.3c8.9,8.8,6.7,20.101-3.5,33.4
		c5.5,3.6,9.5,9.2,11.301,16.201C424.275,226.746,451.176,201.345,438.476,187.246z"/>
	<g>
		<path fill="#FFFFFF" d="M330.876,275.445c0.399,11.101,7.399,20.199,16.6,20.199c17.801,0,25.301-21.799,24.801-36.398
			c-0.399-11.101-7.601-20.201-16.7-20.201C340.176,239.045,330.376,260.746,330.876,275.445L330.876,275.445z M321.476,274.846
			c-0.699-19,14.2-38.3,35.801-38.3c14.399,0,23.899,9.6,24.399,24.3c0.7,20-13.2,38.301-35.8,38.301
			C331.476,299.146,321.976,289.546,321.476,274.846z M117.176,269.846c-0.8,0.301-1.8,0.602-3,0.801
			c-1.2,0.301-3.5,0.699-6.7,1.199c-2.2,0.4-3.8,0.801-4.7,1.5c-0.9,0.602-1.4,1.4-1.5,2.301c-0.2,1,0.1,1.801,1,2.399
			c0.9,0.601,2.3,0.899,4.3,0.899c1.5,0,3-0.199,4.5-0.699s2.7-1.102,3.7-1.9c0.7-0.6,1.2-1.398,1.6-2.3
			C116.476,273.346,116.775,271.945,117.176,269.846z M135.976,258.146c-0.1,1.699-0.4,3.301-0.8,5.899l-3.2,17.8
			c-0.3,1.602,0.3,2.801,1.8,3.7l-0.1,0.7h-18.2l-0.2-4.5c-2.6,1.6-5.8,2.898-8.7,3.699c-2.9,0.699-5.2,1.101-8.7,1.101
			c-5.9,0-9.2-0.601-11.5-2.601c-2.4-2.1-3.5-3.5-3.4-6.399c0.1-1.7,0.9-3.8,2.2-5.3c1.3-1.5,3-2.5,4.8-3.4c1.9-0.898,4.1-1.5,7.3-2
			c3.2-0.5,7.7-1,13.7-1.5c3.1-0.3,5.1-1,6-1.3c1.3-0.5,1.7-1,1.9-2c0.3-1.8-0.2-2.899-2.7-3.399c-6.5-1.301-18.8,0.801-25.1,2.399
			l3.4-9.3c8.3-1.201,16.2-2,24.4-2C131.875,249.645,136.076,253.346,135.976,258.146L135.976,258.146z M188.576,286.246l6.3-35.602
			h17.4l-6.3,35.602H188.576z M195.875,242.446c0.5-2.9,5.1-5.301,10.3-5.301c5.2,0,8.9,2.4,8.4,5.301c-0.5,2.899-5.2,5.3-10.3,5.3
			C199.076,247.746,195.275,245.345,195.875,242.446z M274.076,269.945c-0.801,0.301-1.801,0.601-3,0.801
			c-1.2,0.3-3.5,0.699-6.801,1.199c-2.199,0.4-3.801,0.801-4.699,1.5c-0.801,0.601-1.301,1.4-1.5,2.301c-0.2,1,0.199,1.8,1,2.398
			c0.898,0.602,2.3,0.9,4.398,0.9c1.5,0,3-0.2,4.5-0.7s2.7-1.1,3.7-1.899c0.7-0.601,1.2-1.399,1.5-2.301
			C273.376,273.445,273.676,272.046,274.076,269.945L274.076,269.945z M292.775,258.246c-0.101,1.699-0.399,3.3-0.899,5.898
			l-3.101,17.801c-0.301,1.601,0.301,2.801,1.801,3.699l-0.102,0.602h-18.199l-0.101-4.5c-2.7,1.6-5.899,2.898-8.7,3.699
			c-2.898,0.801-5.199,1.101-8.699,1.101c-5.9,0-9.2-0.601-11.5-2.601c-2.4-2.1-3.5-3.5-3.4-6.399c0.1-1.7,0.9-3.8,2.2-5.3
			c1.3-1.5,3-2.5,4.8-3.4c1.9-0.898,4.1-1.5,7.3-2.1c3.2-0.5,7.7-1,13.7-1.5c3.1-0.3,5-1,5.898-1.3c1.302-0.5,1.802-1,2-2.101
			c0.302-1.801-0.299-2.899-2.698-3.399c-6.601-1.302-18.802,0.8-25.101,2.399l3.4-9.301c8.399-1.201,16.101-2,24.399-2
			C288.676,249.746,292.876,253.445,292.775,258.246L292.775,258.246z M80.576,273.445c-5.7,1.101-8.8,1.601-14.4,1.601
			c-8.3,0-14.9-4.101-14.6-11.7c0.3-5,6.2-15.701,21.4-15.701c4.8,0,8.5,0.801,13.5,3.701l2.2-12.3c-6.8-2.6-11.3-3-17.2-2.9
			c-19.9,0.2-39,9.2-41.3,27.601c-2.4,18.7,20.4,23.399,30.5,23.3c5.8,0,11.9-0.3,17.6-0.8L80.576,273.445z M221.875,250.446
			l1.2-7.2l18.2-4l-1.9,11.2h8.9l-1.7,7.201h-8.6l-5.2,28.601c0,0-17.5-0.101-17.6,0l5.2-28.5h-6.6l1.3-7.201h6.8V250.446
			L221.875,250.446z M310.476,286.246h-17.8l8.9-49.601l17.3,0.5 M165.576,259.046c-2.3,0-4.3,0.7-6.2,2.101
			c-1.8,1.399-3,3.399-3.4,6.101c-0.5,3.101-0.2,5.3,1,6.7c1.2,1.398,3,2.1,5.4,2.1c1.6,0,3.2-0.3,4.4-0.9
			c1.5-0.799,2.5-1.6,3.4-2.898c1-1.4,1.6-2.9,1.9-4.7c0.5-2.8,0.1-4.899-1.2-6.3C169.576,259.746,167.875,259.046,165.576,259.046
			L165.576,259.046z M133.875,298.546l8.5-47.701h15.3l-1.2,6.101c1.3-1.801,3.4-3.301,6.4-4.5c2.9-1.199,6.3-2.101,9.9-2.101
			c4,0,6.4,0.2,9.4,1.8c3,1.602,5,3.801,6.2,6.801c1.1,2.899,1.4,6.101,0.8,9.699c-1,5.9-3.9,10.5-8.6,13.9
			c-4.7,3.4-8.9,4.3-14.8,4.3c-2.1,0-3.9-0.2-5.4-0.6c-1.4-0.4-2.6-0.8-3.5-1.4c-0.8-0.6-1.7-1.3-2.9-2.6l-2.8,16.3L133.875,298.546
			L133.875,298.546z M449.676,263.445c-0.101-2.899-1.5-4.801-4.5-4.801c-7.101,0-14.7,14-16,19.602
			C440.775,278.246,449.876,271.246,449.676,263.445z M451.176,285.346l1.399,0.9c-3.5,7.1-10.601,12.8-18.899,12.8
			c-6.8,0-12.399-4.5-12.7-13c-0.5-15.2,13.7-29.399,25.4-29.399c5,0,9.699,2.199,9.899,7.601
			c0.399,12.101-16.601,15.8-27.801,16.101c-0.399,1.299-0.5,2.5-0.399,4.5c0.2,5,3.2,9.299,9.5,9.299
			C442.976,293.945,448.376,289.646,451.176,285.346z"/>
		<path fill="#FFFFFF" d="M381.376,263.046c1.199-0.2,3.199-0.399,4-0.399c1.3,0,2.5,0.199,2.5,1.5c0,0.801-1.301,6.199-1.601,7.399
			l-2.7,12c-1.101,4.899-2.3,10-3.3,14.101h7l3.899-18.899c12-12.399,16.601-16.5,19.399-16.5c1.301,0,2.101,0.7,2.2,2.2
			c0.101,2.199-1.301,7.199-1.801,8.6l-4,13.801c-0.899,3.101-1.6,5.899-1.5,7.899c0.101,3,2,4.399,4.7,4.399
			c5.101,0,8.8-5.301,12-10.5l-0.899-1.699c-1.301,2.1-4.301,6.699-6.7,6.699c-0.8,0-1.5-0.5-1.5-1.801
			c-0.101-1.6,0.601-4,1.101-5.6l4.399-16.2c1.2-4.5,1.801-7.3,1.7-8.899c-0.101-3-1.899-4.399-4.601-4.399
			c-4.601,0-10.7,3.3-23.601,18.2h-0.199l1.6-7.2c0.9-4,1.7-8.101,2.601-10.899c-4.5,1.601-10.8,3.399-14.8,4.199L381.376,263.046
			L381.376,263.046z"/>
	</g>
	<path fill="#FFFFFF" d="M457.376,250.145c0-3.6,2.899-6.199,6.3-6.199c3.399,0,6.2,2.6,6.2,6.199c0,3.601-2.9,6.201-6.2,6.201
		C460.176,256.346,457.376,253.746,457.376,250.145z M463.676,255.346c2.8,0,5-2.199,5-5.201c0-2.899-2.2-5.1-5-5.1s-5,2.2-5,5.1
		C458.575,253.146,460.775,255.346,463.676,255.346z M462.275,253.746h-1.101v-7.101h2.7c1.699,0,2.5,0.601,2.5,2
		c0,1.301-0.801,1.801-1.9,2l2,3.102h-1.199l-1.899-3.102h-1.2v3.102H462.275z M463.575,249.746c0.899,0,1.7-0.101,1.7-1.2
		c0-0.9-0.801-1-1.601-1h-1.5v2.2H463.575z"/>
</g>
</svg>
