<?xml version="1.0" encoding="utf-8"?>
<!-- Generator: Adobe Illustrator 16.0.0, SVG Export Plug-In . SVG Version: 6.00 Build 0)  -->
<!DOCTYPE svg PUBLIC "-//W3C//DTD SVG 1.1//EN" "http://www.w3.org/Graphics/SVG/1.1/DTD/svg11.dtd">
<svg version="1.1" id="Layer_1" xmlns="http://www.w3.org/2000/svg" xmlns:xlink="http://www.w3.org/1999/xlink" x="0px" y="0px"
	 width="500px" height="134px" viewBox="0 193.5 500 134" enable-background="new 0 193.5 500 134" xml:space="preserve">
<g>
	<path fill="#FFFFFF" stroke="#FFFFFF" stroke-miterlimit="10" d="M46.86,219.346c4.818-4.868,10.05-9.24,15.888-12.835
		c11.726-7.22,22.142-6.552,33.27,2.068c9.271,7.184,16.861,16.017,24.342,24.947c1.557,1.858,2.982,3.727,5.463,4.638
		c2.177,0.797,3.64,2.732,4.046,5.017c0.458,2.562,1.904,4.416,3.476,6.284c1.287,1.53,2.536,3.09,4.243,5.171
		c0-2.587,0-4.548,0-6.513c0-3.418,0.081-6.843-0.038-10.256c-0.051-1.515,0.464-1.882,1.877-1.798
		c1.948,0.119,3.91,0.095,5.861,0.005c1.198-0.056,1.572,0.353,1.535,1.534c-0.075,2.493-0.024,4.989-0.024,7.92
		c2.291-2.846,4.267-5.391,6.337-7.858c3.018-3.595,6.387-6.809,10.501-9.16c0.145,0.131,0.294,0.261,0.442,0.392
		c-2.807,2.066-5.503,4.262-7.928,7.067c1.545,0.464,3.067,0.319,4.499,0.174c1.952-0.198,2.257,0.56,2.235,2.318
		c-0.096,7.955-0.043,15.913-0.043,23.869c0.001,5.248,1.571,6.806,6.901,6.812c7.47,0.008,14.937,0.086,22.403-0.057
		c1.942-0.036,2.381,0.566,2.188,2.311c-0.139,1.242-0.118,2.519-0.004,3.765c0.136,1.461-0.169,2.036-1.861,1.991
		c-9.34-0.254-18.698,0.361-28.028-0.416c-6.733-0.557-9.996-3.659-10.545-10.401c-0.67-8.211-0.148-16.457-0.272-24.686
		c-0.009-0.737,0-1.473,0-2.677c-2.624,3.071-4.554,6.011-6.49,8.945c-0.364,0.558-0.331,1.197-0.331,1.825
		c-0.004,4.814,0.001,9.63-0.005,14.447c-0.002,0.779,0.073,1.479,0.646,2.125c11.675,13.225,24.148,25.537,39.441,34.64
		c3.054,1.817,6.19,3.468,9.514,4.764c7.291,2.849,14.443,2.507,21.507-0.76c7.074-3.271,15.263-11.224,18.816-18.382
		c-0.892-0.299-1.768-0.594-3.035-1.02c3.895-0.758,7.437-1.445,10.98-2.127c0.348-0.066,0.724-0.097,0.967,0.219
		c1.671,2.158,3.329,4.328,5.255,6.836c-3.296-0.625-3.271-0.607-5.18,1.918c-6.539,8.668-14.38,15.627-25.254,18.188
		c-10.68,2.514-20.942,0.574-30.774-3.826c-11.523-5.158-21.384-12.768-30.56-21.324c-4.169-3.885-8.058-8.051-11.885-12.268
		c-0.189,0.166-0.362,0.242-0.369,0.331c-0.272,3.604-0.269,3.614-4.045,3.601c-1.671-0.006-3.907,0.584-4.867-0.258
		c-1.123-0.986-0.297-3.277-0.348-4.996c-0.069-2.154-0.018-4.312-0.018-6.797c-1.358,1.221-1.779,2.625-2.435,3.859
		c-6.276,11.803-11.954,23.929-18.974,35.335c-2.674,4.342-5.572,8.515-9.279,12.071c-6.569,6.305-15.583,5.947-21.591-0.905
		c-5.213-5.949-7.565-13.233-9.583-20.666c-0.311-1.144-0.548-2.306-0.813-3.46c-0.077-0.339-0.034-0.896-0.225-0.989
		c-2.837-1.399-0.035-2.544,0.211-3.741c0.17-0.841,0.838-1.576,1.387-2.539c1.445,1.719,2.81,3.338,4.175,4.957
		c0.108,0.101-0.911-0.063-0.672,1.111c1.588,7.818,3.446,15.532,8.21,22.152c2.133,2.965,4.786,5.251,8.706,5.49
		c2.393,0.146,4.342-0.821,6.127-2.248c4.373-3.492,7.525-8.025,10.516-12.652c7.654-11.824,13.939-24.438,20.876-36.674
		c0.955-1.684,2.799-3.348,2.539-5.104c-0.241-1.629-2.078-3.024-3.221-4.517c-0.756-0.989-1.526-1.965-2.293-2.952
		c-0.811,0.325-0.472,0.976-0.479,1.446c-0.063,3.767,0.07,7.541-0.148,11.3c-0.354,6.058-3.146,9.139-9.107,10.204
		c-2.05,0.363-4.158,0.548-6.238,0.541c-6.693-0.018-13.396,0.33-20.079-0.291c-7.197-0.666-10.379-3.567-10.91-10.727
		c-0.475-6.395-0.511-12.848,0.027-19.237c0.575-6.83,3.756-9.781,10.585-10.371c6.823-0.589,13.668-0.121,20.502-0.262
		c0.73-0.017,1.501,0.206,2.476-0.336c-3.051-3.796-5.993-7.56-9.044-11.23c-4.555-5.474-9.375-10.702-14.876-15.256
		c-9.476-7.843-16.82-8.606-27.721-2.908c-6.276,3.281-11.872,7.543-17.314,12.028c-0.532,0.437-1.094,0.84-1.64,1.258
		C47.14,219.612,47,219.479,46.86,219.346z M107.27,269.134c3.065,0,6.13,0.062,9.194-0.017c3.363-0.09,4.94-1.469,5.134-4.773
		c0.3-5.072,0.29-10.164,0.015-15.241c-0.181-3.312-1.697-4.876-5.013-4.952c-6.195-0.14-12.397-0.14-18.591,0.024
		c-3.24,0.084-4.579,1.461-4.681,4.692c-0.167,5.144-0.188,10.301-0.038,15.449c0.101,3.47,1.496,4.688,4.996,4.793
		C101.278,269.197,104.276,269.128,107.27,269.134z"/>
	<path fill="#FFFFFF" stroke="#FFFFFF" stroke-miterlimit="10" d="M61.069,277.107c-4.785-0.241-10.653,0.41-16.492-0.405
		c-6.402-0.896-9.641-4.438-9.864-10.886c-0.214-6.131-0.216-12.266,0.001-18.397c0.23-6.56,3.493-10.087,10.036-10.954
		c5.562-0.735,11.147-0.254,16.72-0.347c5.094-0.086,10.19,0.054,15.281-0.061c1.631-0.039,2.043,0.473,1.918,2.001
		c-0.159,1.932,0.624,4.513-0.354,5.656c-1.137,1.328-3.791,0.399-5.78,0.416c-7.327,0.055-14.652,0.014-21.979,0.025
		c-5.293,0.006-6.667,1.4-6.67,6.713c0,4.118-0.014,8.235,0.004,12.353c0.019,4.293,1.579,5.881,5.995,5.91
		c7.324,0.053,14.651,0.016,21.978,0.016c1.746,0,3.499,0.1,5.233-0.032c1.37-0.103,1.682,0.424,1.563,1.659
		c-0.197,2.06,0.875,4.814-0.419,5.998c-1.123,1.021-3.837,0.318-5.848,0.332C68.973,277.126,65.552,277.107,61.069,277.107z"/>
	<path fill="#FFFFFF" stroke="#FFFFFF" stroke-miterlimit="10" d="M351.152,269.171c0.301-1.646,0.721-3.688,1.037-5.746
		c0.176-1.131,0.932-1.021,1.692-0.971c1.242,0.083,0.482,0.925,0.422,1.368c-0.237,1.648-0.635,3.277-0.867,4.926
		c-0.153,1.091-0.366,2.398,1.181,2.675c1.461,0.261,2.164-0.771,2.457-2.007c0.451-1.891,0.895-3.794,1.141-5.719
		c0.144-1.12,0.623-1.357,1.596-1.26c1.525,0.155,0.607,1.146,0.521,1.697c-0.301,1.918-0.629,3.844-1.143,5.717
		c-0.689,2.5-2.607,3.729-5.013,3.432C352.008,273.018,351.076,271.879,351.152,269.171z"/>
	<path fill="#FFFFFF" stroke="#FFFFFF" stroke-miterlimit="10" d="M278.713,262.449c2.755-0.023,4.198,0.904,4.418,2.641
		c0.287,2.225-0.996,4.027-3.529,4.253c-1.891,0.167-2.718,0.896-2.688,2.688c0.022,1.296-0.737,1.519-1.735,1.287
		c-1.175-0.271-0.412-1.103-0.324-1.646c0.375-2.262,1.024-4.498,1.192-6.771C276.2,262.809,277.266,262.342,278.713,262.449z
		 M278.037,266.501c-0.301,0.922-0.162,1.375,0.637,1.317c1.234-0.09,2.115-0.623,2.232-1.969c0.086-1.002-0.398-1.597-1.412-1.639
		C277.484,264.126,278.451,265.906,278.037,266.501z"/>
	<path fill="#FFFFFF" stroke="#FFFFFF" stroke-miterlimit="10" d="M314.623,273.374c-0.391-0.04-0.777,0.007-1.076-0.134
		c-0.643-0.311-1.873,0.082-1.713-1.264c0.182-1.512,1.191-0.879,2.014-0.73c0.979,0.176,2.082,0.359,2.56-0.745
		c0.453-1.056-0.603-1.392-1.283-1.825c-2.207-1.41-2.744-2.709-1.791-4.378c0.883-1.55,3.975-2.364,5.623-1.562
		c0.539,0.261,0.555,0.548,0.34,0.947c-0.207,0.381-0.121,1.062-0.861,0.963c-0.207-0.024-0.409-0.084-0.614-0.117
		c-0.91-0.147-2.023-0.36-2.41,0.637c-0.445,1.143,0.77,1.464,1.516,1.885c1.496,0.844,2.365,1.949,1.793,3.751
		C318.074,272.835,316.346,273.125,314.623,273.374z"/>
	<path fill="#FFFFFF" stroke="#FFFFFF" stroke-miterlimit="10" d="M283.172,246.527c-0.115,3.619-2.072,6.161-5.129,6.651
		c-2.381,0.385-4.249-0.845-4.868-3.192c-0.837-3.174,1.058-7.105,3.911-8.128C280.6,240.6,283.291,242.663,283.172,246.527z
		 M281.759,246.281c0-1.452-0.22-2.863-1.782-3.418c-1.697-0.606-3.15-0.019-4.211,1.406c-0.979,1.32-1.435,2.868-1.354,4.492
		c0.071,1.431,0.512,2.766,2.147,3.197c1.588,0.417,2.881-0.122,3.838-1.396C281.34,249.308,281.77,247.858,281.759,246.281z"/>
	<path fill="#FFFFFF" stroke="#FFFFFF" stroke-miterlimit="10" d="M471.271,252.684c-0.804-0.297-1.181,0.271-1.688,0.406
		c-1.609,0.428-2.934-0.377-3.25-2.018c-0.727-3.773,2.945-7.06,6.629-5.991c0.846,0.246,1.127,0.543,0.928,1.43
		c-0.512,2.306-0.821,4.663-1.446,6.937c-0.703,2.562-3.111,3.742-5.566,2.943c-0.354-0.115-0.936-0.072-0.881-0.666
		c0.074-0.793,0.654-0.476,1.111-0.438C470.025,255.532,470.469,255.259,471.271,252.684z M467.703,250.076
		c-0.025,0.809,0.127,1.564,0.963,1.898c0.803,0.318,1.496-0.017,2.08-0.578c1.305-1.254,1.397-2.979,1.686-4.602
		c0.15-0.866-0.643-0.755-1.139-0.779C469.359,245.923,467.678,247.845,467.703,250.076z M471.391,252.154
		c-0.049-0.053-0.096-0.104-0.141-0.154c-0.049,0.049-0.096,0.1-0.145,0.148c0.069,0.053,0.141,0.104,0.211,0.156
		C471.342,252.255,471.365,252.204,471.391,252.154z"/>
	<path fill="#FFFFFF" stroke="#FFFFFF" stroke-miterlimit="10" d="M368.732,267.77c-0.252,1.418-0.578,3.061-0.832,4.713
		c-0.185,1.207-1.082,0.873-1.771,0.845c-1.084-0.05-0.404-0.821-0.363-1.226c0.113-1.106,0.39-2.199,0.519-3.305
		c0.076-0.648,0.365-1.549-0.584-1.75c-0.795-0.165-1.285,0.551-1.496,1.217c-0.375,1.188-0.697,2.406-0.875,3.639
		c-0.154,1.078-0.512,1.617-1.697,1.461c-1.563-0.209-0.537-1.17-0.471-1.711c0.213-1.726,0.703-3.422,0.85-5.148
		c0.113-1.302,1.195-1.523,1.607-1.033c0.91,1.094,1.533,0.281,2.281,0.062C367.549,265.05,368.719,265.874,368.732,267.77z"/>
	<path fill="#FFFFFF" stroke="#FFFFFF" stroke-miterlimit="10" d="M330.916,265.385c2.32,0.012,2.502,0.275,2.055,2.62
		c-0.271,1.427-0.518,2.866-0.625,4.313c-0.061,0.832-0.518,1.358-1.102,0.979c-1.293-0.84-2.408-0.089-3.613-0.007
		c-1.422,0.102-2.418-1.256-2.295-2.857C325.562,267.46,327.869,265.373,330.916,265.385z M327.684,270.066
		c0.103,0.595,0.054,1.586,0.97,1.429c1.832-0.313,1.733-2.042,2.051-3.399c0.098-0.419,0.317-1.102-0.508-0.996
		C328.541,267.312,328.023,268.58,327.684,270.066z"/>
	<path fill="#FFFFFF" stroke="#FFFFFF" stroke-miterlimit="10" d="M308.012,267.775c-0.252,1.416-0.574,3.059-0.83,4.709
		c-0.186,1.214-1.088,0.871-1.774,0.842c-1.08-0.053-0.398-0.824-0.357-1.229c0.109-1.106,0.388-2.197,0.517-3.304
		c0.074-0.647,0.365-1.551-0.586-1.748c-0.795-0.162-1.283,0.556-1.494,1.22c-0.375,1.188-0.699,2.408-0.873,3.641
		c-0.154,1.083-0.521,1.613-1.703,1.453c-1.562-0.209-0.531-1.172-0.467-1.713c0.217-1.725,0.705-3.42,0.852-5.147
		c0.113-1.308,1.213-1.517,1.609-1.028c0.91,1.114,1.539,0.273,2.281,0.06C306.838,265.053,308.004,265.875,308.012,267.775z"/>
	<path fill="#FFFFFF" stroke="#FFFFFF" stroke-miterlimit="10" d="M296.393,268.598c0.025-0.83,0.056-1.379-0.533-1.554
		c-0.536-0.162-0.924,0.204-1.229,0.604c-0.971,1.291-0.918,2.889-1.281,4.361c-0.156,0.639-0.035,1.411-1.137,1.365
		c-0.906-0.037-1.436-0.046-1.154-1.232c0.447-1.896,0.814-3.822,1.041-5.757c0.117-1.006,0.797-1.366,1.322-0.959
		c1.057,0.817,1.875,0.32,2.869,0.052c1.525-0.414,2.633,0.549,2.477,2.17c-0.151,1.59-0.559,3.153-0.77,4.742
		c-0.154,1.164-0.967,0.984-1.707,0.947c-1.258-0.057-0.473-0.912-0.432-1.354C295.982,270.742,296.242,269.51,296.393,268.598z"/>
	<path fill="#FFFFFF" stroke="#FFFFFF" stroke-miterlimit="10" d="M262.564,265.391c2.354-0.035,2.597,0.278,2.168,2.521
		c-0.276,1.425-0.59,2.867-0.629,4.309c-0.039,1.387-1.236,1.451-1.604,1.045c-0.854-0.949-1.441-0.399-2.227-0.129
		c-1.789,0.615-3.31-0.652-3.211-2.606C257.215,267.588,259.521,265.434,262.564,265.391z M261.837,267.083
		c-1.192,0.204-1.842,1.06-2.194,2.155c-0.248,0.783-0.518,1.738,0.431,2.193c0.875,0.42,1.45-0.308,1.727-1.016
		c0.406-1.044,1.028-2.1,0.483-3.292C262.255,267.064,262.021,267.098,261.837,267.083z"/>
	<path fill="#FFFFFF" stroke="#FFFFFF" stroke-miterlimit="10" d="M415.277,269.953c1.793-1.247,0.608-5.124,4.496-4.48
		c-1.574,2.993-2.771,6.022-4.627,8.711c-0.597,0.866-1.343,1.621-2.32,2.039c-0.353,0.149-0.91,0.764-1.201,0.025
		c-0.197-0.491-0.779-1.289,0.045-1.643c2.596-1.109,2.051-3.043,1.506-5.047c-0.254-0.936-0.475-1.889-0.615-2.847
		c-0.067-0.471-0.782-1.323,0.462-1.325c0.67-0.005,1.579-0.392,1.694,0.875C414.832,267.491,415.082,268.707,415.277,269.953z"/>
	<path fill="#FFFFFF" stroke="#FFFFFF" stroke-miterlimit="10" d="M285.234,270.527c0.729,1.371,1.811,1.103,2.82,0.92
		c0.532-0.098,0.928-0.233,1.014,0.517c0.07,0.593-0.108,0.904-0.691,1.054c-1.68,0.426-3.41,0.7-4.637-0.806
		c-1.281-1.571-0.824-3.332,0.219-4.839c1.061-1.535,2.572-2.307,4.518-1.789c0.99,0.266,1.531,0.971,1.625,1.946
		c0.107,1.092-0.427,1.927-1.457,2.253C287.607,270.115,286.51,270.259,285.234,270.527z M285.443,268.727
		c1.041-0.084,1.998,0.215,2.516-0.776c0.212-0.408-0.047-0.837-0.518-0.908C286.375,266.878,285.838,267.5,285.443,268.727z"/>
	<path fill="#FFFFFF" stroke="#FFFFFF" stroke-miterlimit="10" d="M341.777,270.518c0.647,1.328,1.705,1.084,2.705,0.969
		c0.43-0.051,0.938-0.473,1.096,0.371c0.127,0.687-0.084,1.024-0.771,1.188c-1.688,0.401-3.407,0.64-4.602-0.907
		c-1.172-1.523-0.75-3.215,0.219-4.677c1.037-1.56,2.531-2.358,4.476-1.909c1.088,0.252,1.684,1.01,1.746,2.075
		c0.065,1.095-0.546,1.896-1.556,2.209C344.051,270.157,342.951,270.285,341.777,270.518z M342.037,268.639
		c0.977,0.051,1.959,0.348,2.471-0.793c0.152-0.342-0.078-0.697-0.449-0.771C342.875,266.836,342.334,267.506,342.037,268.639z"/>
	<path fill="#FFFFFF" stroke="#FFFFFF" stroke-miterlimit="10" d="M384.084,270.508c0.623,1.398,1.713,1.081,2.717,0.969
		c0.447-0.052,0.935-0.424,1.078,0.406c0.123,0.708-0.143,1.006-0.805,1.168c-1.613,0.396-3.265,0.608-4.463-0.775
		c-1.271-1.467-0.902-3.162,0.016-4.662c0.979-1.598,2.439-2.446,4.396-2.102c1.084,0.191,1.756,0.862,1.896,1.943
		c0.16,1.206-0.482,2.047-1.564,2.396C386.322,270.184,385.217,270.289,384.084,270.508z M384.211,268.76
		c1.07-0.162,2.107,0.264,2.594-0.933c0.142-0.353-0.1-0.683-0.471-0.763C385.252,266.829,384.725,267.464,384.211,268.76z"/>
	<path fill="#FFFFFF" stroke="#FFFFFF" stroke-miterlimit="10" d="M377.158,270.438c1.938-1.535,0.893-5.463,5.059-5.029
		c-1.445,2.645-2.754,5.109-4.139,7.535c-0.43,0.75-1.269,0.351-1.922,0.379c-0.756,0.033-0.597-0.622-0.67-1.059
		c-0.32-1.854-0.648-3.705-0.906-5.564c-0.066-0.479-0.701-1.311,0.529-1.332c0.848-0.014,1.692-0.147,1.713,1.164
		C376.844,267.798,377.031,269.062,377.158,270.438z"/>
	<path fill="#FFFFFF" stroke="#FFFFFF" stroke-miterlimit="10" d="M208.108,252.1c0.068,0,0.141-0.012,0.208,0.002
		c0.732,0.149,2.04-0.805,2.094,0.172c0.066,1.188-1.498,0.854-2.336,0.932c-2.698,0.248-4.475-1.154-4.954-3.691
		c-0.833-4.388,3.278-8.735,7.539-7.917c0.497,0.096,1.464-0.08,1.376,0.81c-0.106,1.024-0.929,0.448-1.469,0.402
		c-3.852-0.327-6.666,2.602-6.042,6.3C204.871,251.168,205.999,252.109,208.108,252.1z"/>
	<path fill="#FFFFFF" stroke="#FFFFFF" stroke-miterlimit="10" d="M434.812,251.73c-1.095,1.045-2.25,2.158-3.812,1.135
		c-1.668-1.098-1.322-2.781-0.768-4.331c0.918-2.56,3.379-4.002,5.903-3.611c0.914,0.143,1.533,0.251,1.172,1.538
		c-0.477,1.73-0.61,3.553-0.95,5.324c-0.101,0.509,0.463,1.382-0.619,1.449C434.332,253.324,435.576,252.074,434.812,251.73z
		 M431.271,250.172c-0.021,1.535,0.752,2.229,1.965,1.773c1.319-0.495,2.864-3.693,2.643-5.344
		c-0.123-0.927-0.787-0.595-1.236-0.556C432.877,246.199,431.293,248.179,431.271,250.172z"/>
	<path fill="#FFFFFF" stroke="#FFFFFF" stroke-miterlimit="10" d="M364.557,251.686c-0.319,0.289-0.637,0.652-1.026,0.903
		c-0.84,0.54-1.726,0.95-2.732,0.397c-0.963-0.529-1.281-1.389-1.303-2.438c-0.066-3.378,3.047-6.145,6.311-5.626
		c0.939,0.151,1.494,0.301,1.152,1.554c-0.473,1.732-0.611,3.554-0.949,5.325c-0.098,0.507,0.461,1.39-0.635,1.435
		C364.027,253.292,365.146,252.105,364.557,251.686z M360.922,250.225c0.006,1.505,0.818,2.196,2.016,1.707
		c1.298-0.529,2.882-3.854,2.593-5.383c-0.168-0.896-0.843-0.54-1.285-0.494C362.477,246.232,360.916,248.235,360.922,250.225z"/>
	<path fill="#FFFFFF" stroke="#FFFFFF" stroke-miterlimit="10" d="M464.465,247.886c-0.25,1.317-0.557,2.888-0.84,4.462
		c-0.09,0.502-0.15,0.978-0.844,0.898c-0.976-0.107-0.551-0.788-0.478-1.254c0.22-1.372,0.537-2.729,0.732-4.105
		c0.1-0.675,0.133-1.442-0.711-1.764c-0.74-0.281-1.347,0.026-1.9,0.509c-0.828,0.717-1.276,1.629-1.467,2.693
		c-0.199,1.094-0.414,2.185-0.631,3.276c-0.094,0.491-0.41,0.697-0.898,0.633c-0.649-0.084-0.473-0.521-0.396-0.933
		c0.401-2.188,0.795-4.378,1.188-6.569c0.088-0.495,0.56-1.229,0.802-0.81c0.922,1.594,1.733,0.311,2.562,0.078
		C463.439,244.481,464.592,245.514,464.465,247.886z"/>
	<path fill="#FFFFFF" stroke="#FFFFFF" stroke-miterlimit="10" d="M451.496,247.779c-0.256,1.372-0.592,3.077-0.887,4.79
		c-0.086,0.514-0.328,0.709-0.824,0.681c-0.824-0.049-0.582-0.647-0.51-1.067c0.229-1.371,0.561-2.727,0.768-4.101
		c0.107-0.734,0.236-1.601-0.717-1.961c-0.828-0.313-1.469,0.113-2.049,0.665c-0.736,0.701-1.125,1.573-1.306,2.555
		c-0.2,1.096-0.41,2.188-0.629,3.28c-0.1,0.498-0.43,0.685-0.912,0.614c-0.655-0.101-0.448-0.543-0.377-0.945
		c0.4-2.189,0.795-4.38,1.189-6.569c0.092-0.499,0.562-1.22,0.812-0.789c0.933,1.603,1.736,0.287,2.564,0.062
		C450.402,244.509,451.545,245.459,451.496,247.779z"/>
	<path fill="#FFFFFF" stroke="#FFFFFF" stroke-miterlimit="10" d="M410.029,247.869c-0.263,1.387-0.599,3.023-0.867,4.67
		c-0.107,0.66-0.465,0.796-1.01,0.678c-0.621-0.136-0.4-0.652-0.341-1.007c0.242-1.438,0.57-2.864,0.789-4.307
		c0.104-0.674,0.138-1.445-0.698-1.775c-0.734-0.29-1.347,0.013-1.904,0.494c-0.828,0.714-1.281,1.625-1.475,2.687
		c-0.201,1.093-0.412,2.187-0.628,3.28c-0.094,0.483-0.396,0.709-0.891,0.651c-0.643-0.079-0.492-0.502-0.416-0.924
		c0.42-2.256,0.832-4.514,1.234-6.774c0.106-0.621,0.793-0.974,0.938-0.553c0.511,1.486,1.166,0.536,1.797,0.261
		C408.756,244.297,410.164,245.248,410.029,247.869z"/>
	<path fill="#FFFFFF" stroke="#FFFFFF" stroke-miterlimit="10" d="M394.113,247.886c-0.248,1.317-0.556,2.888-0.838,4.462
		c-0.089,0.502-0.15,0.977-0.843,0.898c-0.977-0.107-0.553-0.788-0.479-1.254c0.219-1.372,0.535-2.729,0.733-4.105
		c0.101-0.675,0.132-1.442-0.715-1.764c-0.735-0.281-1.344,0.026-1.899,0.509c-0.824,0.719-1.273,1.63-1.467,2.693
		c-0.197,1.094-0.412,2.187-0.628,3.276c-0.096,0.491-0.413,0.697-0.899,0.633c-0.652-0.084-0.471-0.521-0.396-0.933
		c0.402-2.188,0.798-4.378,1.191-6.569c0.088-0.495,0.557-1.229,0.801-0.81c0.924,1.594,1.73,0.311,2.562,0.078
		C393.09,244.481,394.244,245.514,394.113,247.886z"/>
	<path fill="#FFFFFF" stroke="#FFFFFF" stroke-miterlimit="10" d="M341.779,247.815c-0.25,1.349-0.584,2.984-0.857,4.63
		c-0.098,0.582-0.305,0.895-0.932,0.791c-0.812-0.137-0.474-0.733-0.406-1.139c0.225-1.373,0.551-2.729,0.756-4.102
		c0.101-0.672,0.185-1.451-0.611-1.828c-0.807-0.388-1.469-0.009-2.071,0.532c-0.758,0.679-1.183,1.533-1.371,2.518
		c-0.207,1.094-0.41,2.188-0.615,3.281c-0.108,0.577-0.436,0.865-1.031,0.709c-0.649-0.17-0.33-0.642-0.268-1.005
		c0.387-2.192,0.789-4.383,1.18-6.574c0.078-0.436,0.504-1.036,0.695-0.732c1.041,1.656,1.984,0.191,2.943,0.021
		C340.854,244.619,341.859,245.609,341.779,247.815z"/>
	<path fill="#FFFFFF" stroke="#FFFFFF" stroke-miterlimit="10" d="M332.57,247.786c-0.23,1.239-0.525,2.812-0.824,4.384
		c-0.098,0.521-0.045,1.189-0.898,1.071c-0.957-0.136-0.514-0.814-0.438-1.276c0.207-1.307,0.522-2.595,0.709-3.901
		c0.104-0.736,0.231-1.602-0.734-1.949c-0.834-0.304-1.459,0.142-2.049,0.681c-1.186,1.077-1.264,2.584-1.586,3.998
		c-0.154,0.677-0.232,1.372-0.412,2.042c-0.109,0.398-0.488,0.445-0.852,0.389c-0.479-0.07-0.474-0.375-0.398-0.76
		c0.437-2.326,0.861-4.654,1.279-6.981c0.092-0.515,0.664-0.867,0.813-0.56c0.754,1.55,1.545,0.419,2.328,0.147
		C331.385,244.42,332.629,245.378,332.57,247.786z"/>
	<path fill="#FFFFFF" stroke="#FFFFFF" stroke-miterlimit="10" d="M308.695,247.857c-0.261,1.375-0.599,3.011-0.863,4.657
		c-0.105,0.646-0.428,0.815-0.992,0.711c-0.645-0.123-0.426-0.636-0.367-0.99c0.236-1.369,0.564-2.724,0.771-4.098
		c0.111-0.734,0.264-1.609-0.656-1.996c-0.916-0.384-1.588,0.146-2.213,0.75c-1.145,1.107-1.186,2.622-1.516,4.032
		c-0.144,0.606-0.217,1.234-0.357,1.841c-0.096,0.407-0.434,0.508-0.809,0.478c-0.43-0.035-0.574-0.269-0.494-0.696
		c0.449-2.392,0.881-4.789,1.336-7.182c0.104-0.547,0.775-0.696,0.891-0.39c0.572,1.539,1.305,0.462,1.963,0.199
		C307.467,244.341,308.818,245.316,308.695,247.857z"/>
	<path fill="#FFFFFF" stroke="#FFFFFF" stroke-miterlimit="10" d="M290.547,248.083c-0.014-0.916,0.062-1.587-0.645-1.917
		c-0.725-0.343-1.346-0.069-1.916,0.396c-0.848,0.693-1.332,1.592-1.531,2.653c-0.207,1.094-0.41,2.189-0.615,3.283
		c-0.109,0.572-0.432,0.867-1.029,0.711c-0.65-0.167-0.336-0.637-0.27-1.002c0.385-2.191,0.787-4.38,1.178-6.571
		c0.077-0.436,0.5-1.042,0.693-0.738c1.044,1.632,1.979,0.163,2.947,0.03c1.51-0.21,2.508,0.399,2.574,1.963
		c0.084,1.961-0.609,3.835-0.886,5.759c-0.082,0.572-0.44,0.625-0.889,0.584c-0.653-0.062-0.519-0.551-0.447-0.93
		C289.989,250.799,290.303,249.304,290.547,248.083z"/>
	<path fill="#FFFFFF" stroke="#FFFFFF" stroke-miterlimit="10" d="M227.462,247.806c-0.252,1.345-0.579,2.98-0.857,4.625
		c-0.096,0.564-0.279,0.903-0.921,0.809c-0.814-0.127-0.487-0.721-0.421-1.129c0.231-1.44,0.552-2.865,0.771-4.308
		c0.093-0.611,0.095-1.292-0.607-1.634c-0.719-0.349-1.344-0.082-1.917,0.384c-0.85,0.689-1.337,1.587-1.539,2.648
		c-0.207,1.094-0.408,2.188-0.616,3.281c-0.106,0.567-0.406,0.865-1.019,0.736c-0.498-0.105-0.407-0.447-0.341-0.796
		c0.429-2.326,0.858-4.652,1.278-6.979c0.097-0.541,0.721-0.796,0.835-0.504c0.65,1.651,1.458,0.432,2.157,0.176
		C226.25,244.396,227.545,245.34,227.462,247.806z"/>
	<path fill="#FFFFFF" stroke="#FFFFFF" stroke-miterlimit="10" d="M397.543,273.348c-0.461-0.082-0.943-0.141-1.414-0.258
		c-0.434-0.109-1.025-0.104-0.762-0.879c0.209-0.604,0.459-0.982,1.18-0.656c0.244,0.11,0.541,0.102,0.814,0.151
		c0.504,0.091,1.018,0.104,1.233-0.451c0.229-0.595-0.268-0.873-0.672-1.127c-1.078-0.673-2.297-1.312-1.649-2.892
		c0.704-1.721,2.258-1.879,3.838-1.768c0.473,0.034,1.237-0.049,1.194,0.777c-0.043,0.816-0.555,0.997-1.305,0.786
		c-0.545-0.155-1.186-0.193-1.473,0.394c-0.287,0.59,0.307,0.842,0.703,1.073c1.112,0.651,2.243,1.31,1.721,2.89
		C400.416,273.014,398.93,273.096,397.543,273.348z"/>
	<path fill="#FFFFFF" stroke="#FFFFFF" stroke-miterlimit="10" d="M410.006,263.502c0.291,0.659-0.801,2.104,1.062,1.965
		c0.442-0.033,0.202,0.545,0.184,0.862c-0.031,0.468-0.25,0.637-0.748,0.767c-1.217,0.317-2.242,3.321-1.348,4.117
		c0.576,0.514,1.104,0.852,0.688,1.607c-0.354,0.638-1.067,0.541-1.68,0.455c-0.818-0.118-1.459-0.539-1.576-1.414
		c-0.061-0.465,0.107-0.959,0.125-1.439c0.045-1.299,0.896-2.533-0.178-3.936C406.002,265.792,408.455,263.691,410.006,263.502z"/>
	<path fill="#FFFFFF" stroke="#FFFFFF" stroke-miterlimit="10" d="M337.994,263.383c0.197,0.85-0.734,2.204,1.067,2.092
		c0.416-0.027,0.179,0.555,0.162,0.871c-0.028,0.486-0.276,0.623-0.766,0.75c-1.225,0.317-2.232,3.334-1.314,4.127
		c0.603,0.52,1.087,0.873,0.662,1.612c-0.356,0.627-1.071,0.531-1.682,0.437c-0.824-0.123-1.482-0.551-1.557-1.43
		c-0.054-0.605,0.211-1.234,0.186-1.849c-0.051-1.089,0.986-2.149-0.244-3.327C333.889,266.072,336.184,263.775,337.994,263.383z"/>
	<path fill="#FFFFFF" stroke="#FFFFFF" stroke-miterlimit="10" d="M323.658,263.457c0.52,0.561-0.814,2.127,1.088,1.988
		c0.479-0.037,0.293,0.503,0.252,0.82c-0.051,0.422-0.154,0.683-0.695,0.83c-1.229,0.342-2.315,3.278-1.457,4.075
		c0.617,0.569,1.25,0.954,0.652,1.763c-0.393,0.527-1.111,0.45-1.736,0.314c-0.832-0.18-1.375-0.662-1.463-1.531
		c-0.035-0.338,0.088-0.688,0.09-1.031c0.004-1.361,1.097-2.67-0.125-4.133C319.73,265.912,322.168,263.705,323.658,263.457z"/>
	<path fill="#FFFFFF" stroke="#FFFFFF" stroke-miterlimit="10" d="M270.154,263.387c0.193,0.848-0.723,2.197,1.072,2.09
		c0.412-0.025,0.176,0.557,0.157,0.873c-0.024,0.488-0.278,0.623-0.766,0.745c-1.226,0.315-2.229,3.339-1.312,4.128
		c0.605,0.521,1.082,0.879,0.66,1.613c-0.357,0.626-1.072,0.53-1.686,0.436c-0.82-0.123-1.479-0.553-1.555-1.431
		c-0.052-0.604,0.215-1.235,0.186-1.848c-0.046-1.091,0.984-2.149-0.242-3.329C266.053,266.068,268.348,263.773,270.154,263.387z"/>
	<path fill="#FFFFFF" stroke="#FFFFFF" stroke-miterlimit="10" d="M425.105,253.273c-1.638-0.141-2.816-0.654-3.22-2.303
		c-0.596-2.442,1.205-5.47,3.64-6c1.366-0.295,2.588-0.013,3.065,1.432c0.498,1.502-0.385,2.378-1.742,2.793
		c-0.719,0.22-1.495,0.252-2.241,0.409c-0.537,0.116-1.423-0.319-1.472,0.664c-0.045,0.827,0.435,1.429,1.269,1.702
		c0.77,0.252,1.514,0.081,2.266-0.063c0.297-0.058,0.674-0.378,0.842,0.17c0.131,0.43-0.133,0.661-0.496,0.757
		C426.344,253.01,425.662,253.146,425.105,253.273z M423.328,248.567c1.146,0.083,2.111,0.111,3.021-0.27
		c0.668-0.28,1.271-0.712,0.957-1.556c-0.299-0.809-1.032-0.832-1.737-0.65C424.396,246.393,423.768,247.243,423.328,248.567z"/>
	<path fill="#FFFFFF" stroke="#FFFFFF" stroke-miterlimit="10" d="M313.818,252.107c0.227-0.012,0.303-0.033,0.366-0.015
		c0.65,0.197,1.742-0.878,1.871,0.13c0.125,0.967-1.254,0.838-1.987,0.946c-2.445,0.36-3.986-1.304-3.613-3.775
		c0.348-2.302,1.881-4.116,3.822-4.456c1.387-0.243,2.586,0.136,2.979,1.589c0.375,1.382-0.438,2.26-1.727,2.645
		c-0.726,0.216-1.5,0.253-2.238,0.433c-0.574,0.138-1.592-0.399-1.543,0.797c0.033,0.831,0.549,1.413,1.404,1.604
		C313.424,252.064,313.699,252.09,313.818,252.107z M312.004,248.554c1.021,0.111,1.969,0.116,2.883-0.228
		c0.674-0.254,1.324-0.668,1.06-1.506c-0.291-0.927-1.113-0.938-1.881-0.692C312.934,246.488,312.273,247.307,312.004,248.554z"/>
	<path fill="#FFFFFF" stroke="#FFFFFF" stroke-miterlimit="10" d="M237.603,252.107c0.246-0.014,0.394-0.06,0.521-0.023
		c0.599,0.168,1.551-0.882,1.728,0.086c0.182,0.994-1.083,0.836-1.732,0.96c-2.657,0.503-4.308-1.209-3.843-3.882
		c0.402-2.302,2.001-4.09,3.936-4.34c1.299-0.166,2.433,0.209,2.821,1.566c0.393,1.383-0.373,2.266-1.658,2.682
		c-0.652,0.211-1.366,0.229-2.025,0.43c-0.632,0.193-1.801-0.467-1.801,0.76C235.549,251.598,236.511,252.096,237.603,252.107z
		 M235.708,248.578c1.193,0.064,2.227,0.108,3.193-0.349c0.597-0.281,1.071-0.718,0.833-1.451c-0.232-0.713-0.868-0.844-1.52-0.738
		C236.915,246.252,236.232,247.143,235.708,248.578z"/>
	<path fill="#FFFFFF" stroke="#FFFFFF" stroke-miterlimit="10" d="M216.917,244.856c1.236,0.075,2.215,0.594,2.416,1.878
		c0.183,1.182-0.515,1.948-1.59,2.401c-0.855,0.363-1.756,0.387-2.655,0.486c-0.492,0.054-1.245-0.268-1.324,0.587
		c-0.07,0.755,0.327,1.353,1.017,1.674c0.8,0.372,1.633,0.212,2.458,0.042c0.295-0.062,0.67-0.389,0.878,0.098
		c0.168,0.388-0.028,0.672-0.417,0.791c-1.352,0.418-2.725,0.77-4.019-0.119c-1.251-0.858-1.443-2.105-1.169-3.512
		C212.988,246.721,214.899,244.821,216.917,244.856z M213.962,248.578c1.158,0.066,2.183,0.107,3.149-0.339
		c0.597-0.276,1.081-0.713,0.854-1.445c-0.224-0.714-0.858-0.864-1.51-0.755C215.077,246.273,214.386,247.208,213.962,248.578z"/>
	<path fill="#FFFFFF" stroke="#FFFFFF" stroke-miterlimit="10" d="M343.588,249.784c0.016-2.628,2.057-4.903,4.424-4.931
		c1.877-0.024,3.336,1.564,3.269,3.562c-0.082,2.521-2.316,4.874-4.588,4.83C344.82,253.209,343.576,251.818,343.588,249.784z
		 M349.863,248.235c-0.125-1.055-0.412-2.118-1.853-2.22c-1.522-0.113-2.969,1.646-2.998,3.615c-0.018,1.308,0.32,2.396,1.888,2.447
		C348.383,252.131,349.852,250.242,349.863,248.235z"/>
	<path fill="#FFFFFF" stroke="#FFFFFF" stroke-miterlimit="10" d="M255.652,249.672c0.072-2.623,2.189-4.876,4.533-4.819
		c1.812,0.044,3.174,1.535,3.16,3.466c-0.017,2.583-2.378,5.057-4.705,4.926C256.775,253.139,255.596,251.727,255.652,249.672z
		 M261.926,248.28c-0.025-1.348-0.795-2.255-1.926-2.273c-1.525-0.026-2.93,1.742-2.926,3.699c0.002,1.324,0.396,2.373,1.965,2.371
		C260.518,252.07,261.959,250.135,261.926,248.28z"/>
	<path fill="#FFFFFF" stroke="#FFFFFF" stroke-miterlimit="10" d="M377.926,249.788c0.017-2.628,2.051-4.904,4.42-4.935
		c1.877-0.024,3.338,1.563,3.271,3.561c-0.078,2.518-2.314,4.873-4.588,4.831C379.162,253.209,377.914,251.822,377.926,249.788z
		 M384.195,248.143c-0.15-1.095-0.521-2.114-1.965-2.131c-1.527-0.017-2.906,1.788-2.884,3.74c0.019,1.334,0.445,2.357,2.011,2.322
		C382.836,252.037,384.258,250.07,384.195,248.143z"/>
	<path fill="#FFFFFF" stroke="#FFFFFF" stroke-miterlimit="10" d="M354.965,251.381c1.539-2.48,2.24-4.688,3.678-6.454
		c0.134-0.166,0.646-0.023,1.246-0.023c-1.467,2.69-2.852,5.21-4.211,7.743c-0.271,0.508-0.666,0.67-1.19,0.595
		c-0.541-0.079-0.601-0.539-0.666-0.933c-0.357-2.121-0.688-4.244-1.029-6.365c-0.072-0.447-0.414-0.991,0.416-1.083
		c0.652-0.072,0.822,0.357,0.9,0.885C354.361,247.439,354.623,249.135,354.965,251.381z"/>
	<path fill="#FFFFFF" stroke="#FFFFFF" stroke-miterlimit="10" d="M389.863,272.279c0.311-1.993,0.637-3.983,0.914-5.98
		c0.096-0.672,0.463-1.212,1.051-0.891c1.125,0.617,2.117,0.617,3.209,0.021c0.215-0.117,0.561,0.073,0.473,0.453
		c-0.123,0.535-0.199,1.48-0.438,1.526c-2.974,0.575-2.586,3.131-3.027,5.112c-0.246,1.109-0.932,0.766-1.553,0.822
		C389.588,273.43,389.668,272.863,389.863,272.279z"/>
	<path fill="#FFFFFF" stroke="#FFFFFF" stroke-miterlimit="10" d="M250.773,252.288c0.289-1.601,0.586-3.033,0.787-4.478
		c0.092-0.651,0.803-1.497-0.396-1.929c-0.104-0.037-0.177-0.499-0.158-0.505c1.839-0.751,1.377-3.433,3.386-4.032
		c0.709-0.21,1.682-0.713,1.987,0.175c0.33,0.974-0.782,0.618-1.291,0.775c-0.938,0.295-1.264,1.041-1.417,1.892
		c-0.193,1.079,0.702,0.519,1.104,0.676c0.279,0.109,0.557,0.195,0.429,0.525c-0.091,0.224-0.358,0.562-0.517,0.546
		c-1.728-0.186-1.576,1.114-1.771,2.157c-0.269,1.439-0.567,2.87-0.804,4.312c-0.092,0.567-0.262,0.916-0.905,0.838
		C250.347,253.139,250.869,252.518,250.773,252.288z"/>
	<path fill="#FFFFFF" stroke="#FFFFFF" stroke-miterlimit="10" d="M417.607,253.249c-3.086,0-3.072,0.002-2.5-3
		c0.479-2.528,0.932-5.062,1.401-7.591c0.097-0.52,0.017-1.237,0.859-1.138c1.11,0.131,0.529,0.988,0.453,1.448
		c-0.396,2.401-0.816,4.802-1.377,7.167c-0.326,1.377-0.226,2.116,1.438,1.848c0.543-0.09,1.117-0.064,1.666,0.004
		c0.396,0.048,1.094-0.356,1.111,0.449c0.018,0.734-0.555,0.848-1.174,0.818C418.861,253.229,418.236,253.249,417.607,253.249z"/>
	<path fill="#FFFFFF" stroke="#FFFFFF" stroke-miterlimit="10" d="M369.133,251.002c0.207-1.11,0.451-2.337,0.656-3.569
		c0.09-0.542,0.617-1.231-0.441-1.469c-0.512-0.115-0.369-0.726-0.18-0.778c1.086-0.295,1.256-1.173,1.615-2.029
		c0.123-0.291,1.141-1.015,1.123,0.386c-0.006,0.49-0.638,1.335,0.588,1.31c0.793-0.016,1.674,0.735,0.641,0.937
		c-3.475,0.673-1.676,3.544-2.559,5.237c-0.101,0.187,0.021,0.557,0.146,0.787c0.242,0.451,1.509,0.049,1.009,1.105
		c-0.246,0.52-0.857,0.354-1.324,0.26c-0.875-0.18-1.304-0.738-1.273-1.637C369.137,251.402,369.133,251.266,369.133,251.002z"/>
	<path fill="#FFFFFF" stroke="#FFFFFF" stroke-miterlimit="10" d="M232.344,242.741c0.387,0.841-0.753,2.463,1.277,2.131
		c0.318-0.051,0.487,0.172,0.443,0.51c-0.054,0.41-0.299,0.655-0.695,0.596c-1.183-0.185-1.731,0.431-1.659,1.486
		c0.104,1.546-1.707,3.224,0.271,4.621c0.254,0.179,0.44,0.298,0.404,0.597c-0.052,0.43-0.382,0.551-0.75,0.555
		c-1.232,0.006-2.066-0.482-1.927-1.844c0.125-1.242,0.419-2.463,0.574-3.702c0.08-0.632,0.847-1.532-0.527-1.775
		c-0.075-0.015-0.094-0.345-0.143-0.528C231.208,245.27,230.636,242.982,232.344,242.741z"/>
	<path fill="#FFFFFF" stroke="#FFFFFF" stroke-miterlimit="10" d="M296.592,242.179c-0.611,3.343-1.225,6.688-1.844,10.028
		c-0.102,0.557-0.209,1.188-0.998,1.007c-0.766-0.175-0.375-0.797-0.303-1.198c0.596-3.345,1.232-6.683,1.854-10.021
		c0.092-0.496,0.182-0.99,0.867-0.905C296.988,241.192,296.668,241.729,296.592,242.179z"/>
	<path fill="#FFFFFF" stroke="#FFFFFF" stroke-miterlimit="10" d="M322.092,253.24c-0.811,0.014-0.645-0.531-0.557-1.006
		c0.604-3.285,1.221-6.567,1.826-9.853c0.096-0.517,0.233-0.978,0.897-0.869c0.818,0.13,0.443,0.688,0.365,1.119
		c-0.58,3.218-1.174,6.436-1.748,9.655C322.793,252.775,322.818,253.305,322.092,253.24z"/>
	<path fill="#FFFFFF" stroke="#FFFFFF" stroke-miterlimit="10" d="M373.074,266.52c-0.365,1.965-0.799,3.92-1.068,5.899
		c-0.168,1.222-0.99,0.94-1.682,0.903c-1.215-0.067-0.484-0.896-0.412-1.36c0.293-1.91,0.711-3.802,0.992-5.713
		c0.155-1.062,0.879-0.847,1.541-0.87C373.414,265.342,373.105,266.009,373.074,266.52z"/>
	<path fill="#FFFFFF" stroke="#FFFFFF" stroke-miterlimit="10" d="M405.318,266.49c-0.357,1.955-0.812,3.841-1.027,5.755
		c-0.146,1.294-0.945,1.157-1.752,1.081c-1.199-0.12-0.445-0.934-0.377-1.395c0.291-1.91,0.701-3.802,0.994-5.711
		c0.16-1.068,0.916-0.82,1.563-0.839C405.701,265.355,405.311,266.061,405.318,266.49z"/>
	<path fill="#FFFFFF" stroke="#FFFFFF" stroke-miterlimit="10" d="M439.424,253.24c-0.77,0.052-0.715-0.43-0.621-0.948
		c0.398-2.248,0.822-4.488,1.176-6.745c0.134-0.842,1.033-0.868,1.089-0.574c0.424,2.314,1.164-0.014,1.717,0.139
		c0.322,0.088,0.789-0.487,1.08,0.006c0.125,0.212-0.031,0.876-0.179,0.917c-3.256,0.921-2.834,3.88-3.495,6.234
		C440.064,252.705,440.18,253.311,439.424,253.24z"/>
	<path fill="#FFFFFF" stroke="#FFFFFF" stroke-miterlimit="10" d="M269.732,245.22c-0.076,0.446-0.021,0.864-0.445,0.966
		c-2.395,0.581-2.473,2.634-3.021,4.485c-0.262,0.875,0.34,2.769-1.262,2.422c-1.115-0.239-0.062-1.755,0.004-2.674
		c0.119-1.579,0.512-3.136,0.77-4.704c0.066-0.403,0.004-0.837,0.615-0.866c0.543-0.026,0.533,0.234,0.676,0.693
		c0.379,1.216,0.646-0.11,0.996-0.153C268.619,245.316,269.127,244.531,269.732,245.22z"/>
	<path fill="#FFFFFF" stroke="#FFFFFF" stroke-miterlimit="10" d="M244.428,244.866c0.776,2.013,1.693,0.015,2.562,0.062
		c0.178,0.011,0.504,0.136,0.501,0.188c-0.026,0.327-0.061,0.893-0.215,0.934c-3.074,0.833-2.801,3.585-3.417,5.832
		c-0.158,0.58,0.087,1.621-1.05,1.324c-1.009-0.263-0.311-1.04-0.235-1.54c0.278-1.917,0.657-3.815,0.99-5.723
		C243.653,245.432,243.475,244.737,244.428,244.866z"/>
	<path fill="#FFFFFF" stroke="#FFFFFF" stroke-miterlimit="10" d="M401.541,245.824c-0.414,2.215-0.826,4.322-1.197,6.434
		c-0.108,0.619-0.278,1.118-1.021,0.963c-0.775-0.164-0.398-0.794-0.328-1.184c0.367-2.115,0.815-4.216,1.19-6.329
		c0.101-0.545,0.23-0.917,0.884-0.856C401.918,244.928,401.529,245.514,401.541,245.824z"/>
	<path fill="#FFFFFF" stroke="#FFFFFF" stroke-miterlimit="10" d="M297.617,252.25c0.436-2.308,0.873-4.48,1.248-6.664
		c0.109-0.647,0.438-0.811,0.988-0.713c0.647,0.112,0.422,0.615,0.356,0.978c-0.396,2.178-0.832,4.35-1.224,6.529
		c-0.1,0.558-0.295,0.925-0.922,0.86C297.211,253.148,297.744,252.503,297.617,252.25z"/>
	<path fill="#FFFFFF" stroke="#FFFFFF" stroke-miterlimit="10" d="M373.832,252.227c0.424-2.223,0.857-4.395,1.234-6.578
		c0.104-0.597,0.338-0.885,0.938-0.789c0.816,0.125,0.457,0.728,0.385,1.134c-0.373,2.111-0.799,4.214-1.184,6.326
		c-0.094,0.516-0.205,0.949-0.865,0.922C373.492,253.204,373.852,252.605,373.832,252.227z"/>
	<path fill="#FFFFFF" stroke="#FFFFFF" stroke-miterlimit="10" d="M455.992,245.751c-0.426,2.264-0.836,4.371-1.209,6.483
		c-0.104,0.604-0.246,1.127-1.002,0.99c-0.793-0.141-0.424-0.772-0.354-1.166c0.369-2.115,0.812-4.216,1.193-6.329
		c0.096-0.528,0.188-0.922,0.86-0.883C456.363,244.897,455.932,245.504,455.992,245.751z"/>
	<path fill="#FFFFFF" stroke="#FFFFFF" stroke-miterlimit="10" d="M164.08,228.903c-0.148-0.131-0.297-0.261-0.442-0.392
		c3.937-2.717,8.161-4.153,12.946-3.046C171.917,224.718,167.979,226.741,164.08,228.903z"/>
	<path fill="#FFFFFF" stroke="#FFFFFF" stroke-miterlimit="10" d="M405.959,263.374c-0.064,0.651-0.48,1.123-1.182,1.128
		c-0.707,0.008-1.189-0.453-1.107-1.193c0.074-0.695,0.562-1.121,1.283-1.097C405.604,262.236,405.939,262.648,405.959,263.374z"/>
	<path fill="#FFFFFF" stroke="#FFFFFF" stroke-miterlimit="10" d="M372.541,264.529c-0.604-0.018-1.064-0.395-1.115-0.971
		c-0.076-0.8,0.418-1.318,1.236-1.345c0.646-0.021,1.035,0.386,1.049,1.036C373.723,263.986,373.275,264.378,372.541,264.529z"/>
	<path fill="#FFFFFF" stroke="#FFFFFF" stroke-miterlimit="10" d="M188.17,236.803c-0.956-1.447-1.911-2.891-2.866-4.333
		C186.731,233.643,187.559,235.199,188.17,236.803z"/>
	<path fill="#FFFFFF" stroke="#FFFFFF" stroke-miterlimit="10" d="M46.86,219.346c0.14,0.133,0.28,0.266,0.422,0.397
		c-1.086,1.001-2.169,2.002-3.254,3.003C44.632,221.264,45.702,220.263,46.86,219.346z"/>
	<path fill="#FFFFFF" stroke="#FFFFFF" stroke-miterlimit="10" d="M42.401,223.315c0.288-0.048,0.574-0.095,0.861-0.145
		c-0.007,0.066,0.009,0.15-0.027,0.191c-0.297,0.355-0.566,0.044-0.843-0.042C42.392,223.318,42.401,223.315,42.401,223.315z"/>
	<path fill="#FFFFFF" stroke="#FFFFFF" stroke-miterlimit="10" d="M40.767,224.986c0.031,0.184,0.032,0.178,0.013,0
		C40.783,224.987,40.767,224.986,40.767,224.986z"/>
	<path fill="#FFFFFF" stroke="#FFFFFF" stroke-miterlimit="10" d="M41.256,224.639c0.096,0.479-0.15,0.473-0.49,0.347
		c0,0,0.016,0.001,0.013,0c0.173-0.102,0.353-0.201,0.53-0.3L41.256,224.639z"/>
	<path fill="#FFFFFF" stroke="#FFFFFF" stroke-miterlimit="10" d="M41.31,224.686c0.101-0.181,0.207-0.363,0.31-0.543l-0.007-0.013
		c0.049,0.283,0.207,0.64-0.352,0.512C41.256,224.639,41.31,224.686,41.31,224.686z"/>
	<path fill="#FFFFFF" stroke="#FFFFFF" stroke-miterlimit="10" d="M41.619,224.142c0.262-0.035,0.538-0.058,0.422-0.45v-0.001
		c-0.003,0.169,0.053,0.363-0.015,0.499c-0.157,0.326-0.269-0.05-0.411-0.059C41.612,224.129,41.619,224.142,41.619,224.142z"/>
	<path fill="#FFFFFF" stroke="#FFFFFF" stroke-miterlimit="10" d="M42.041,223.692c0.325,0.069,0.426-0.076,0.363-0.376
		c-0.003-0.001-0.012,0.002-0.013,0.002c0.075,0.129,0.247,0.308,0.21,0.385C42.436,224.038,42.229,223.823,42.041,223.692
		L42.041,223.692z"/>
	<path fill="#FFFFFF" stroke="#FFFFFF" stroke-miterlimit="10" d="M471.391,252.154c-0.024,0.05-0.049,0.101-0.073,0.15
		c-0.07-0.054-0.142-0.104-0.211-0.156c0.049-0.049,0.096-0.101,0.145-0.148C471.295,252.05,471.342,252.102,471.391,252.154z"/>
</g>
</svg>
