<?xml version="1.0" encoding="utf-8"?>
<!-- Generator: Adobe Illustrator 16.0.0, SVG Export Plug-In . SVG Version: 6.00 Build 0)  -->
<!DOCTYPE svg PUBLIC "-//W3C//DTD SVG 1.1//EN" "http://www.w3.org/Graphics/SVG/1.1/DTD/svg11.dtd">
<svg version="1.1" id="Layer_1" xmlns="http://www.w3.org/2000/svg" xmlns:xlink="http://www.w3.org/1999/xlink" x="0px" y="0px"
	 width="500px" height="246px" viewBox="0 128.5 500 246" enable-background="new 0 128.5 500 246" xml:space="preserve">
<g>
	<path fill="#FFFFFF" d="M336.915,134.434c3.181,1.191,6.574,0.878,9.857,1.353c12.382,1.792,24.39,4.682,35.032,11.616
		c6.544,4.262,11.703,9.759,14.144,17.382c2.823,8.823,1.229,17.235-2.664,25.347c-5.059,10.543-12.732,19.017-21.453,26.612
		c-17.449,15.194-37.521,25.92-58.894,34.406c-22.521,8.939-45.824,14.742-69.913,17.363c-2.8,0.305-5.627,0.354-8.728,0.537
		c10.319-36.1,20.584-72.008,30.939-108.234c-4.903,1.209-9.406,2.707-13.9,4.236c-20.074,6.83-39.191,15.648-56.828,27.506
		c-10.88,7.316-20.903,15.617-29.033,26c-4.387,5.604-8.055,11.639-9.89,18.595c-3.607,13.67,1.342,25.526,13.731,33.321
		c10.064,6.332,21.252,9.239,32.858,10.813c21.592,2.927,42.974,1.034,64.258-2.957c1.674-0.313,3.328-0.886,5.756-0.683
		c-6.525,2.152-12.512,3.834-18.553,5.313c-14.524,3.558-29.232,5.996-44.17,6.828c-14.965,0.834-29.859,0.305-44.51-3.241
		c-8.596-2.08-16.87-5.023-24.101-10.27c-14.095-10.226-17.89-24.946-10.587-40.763c5.357-11.602,13.795-20.742,23.396-28.901
		c15.647-13.299,33.409-23.073,52.233-31.031c17.412-7.36,35.432-12.74,53.988-16.312c9.188-1.769,18.442-3.048,27.79-3.618
		c1.612-0.098,2.2,0.042,1.646,1.943c-9.508,32.601-18.942,65.221-28.395,97.839c-0.783,2.702-1.568,5.406-2.431,8.379
		c3.036-0.438,5.711-1.492,8.42-2.356c25.969-8.304,50.501-19.49,72.159-36.335c9.992-7.772,18.98-16.519,25.24-27.704
		c4.128-7.376,6.507-15.187,4.819-23.715c-1.745-8.826-7.282-14.989-14.626-19.678c-8.689-5.547-18.388-8.382-28.452-10.036
		c-20.715-3.404-41.354-2.2-61.956,1.164c-3.515,0.574-6.981,1.604-10.611,1.453c8.605-2.88,17.357-5.163,26.225-7.025
		c11.014-2.313,22.124-3.883,33.351-4.646c0.444-0.03,0.972,0.099,1.178-0.504C321.801,134.434,329.358,134.434,336.915,134.434z"/>
	<path fill="#FFFFFF" d="M490.895,339.425c-2.339,5.863-7.453,7.78-13.564,9.153c4.63,1.32,5.42,4.789,5.943,8.349
		c0.399,2.71,0.846,5.401,1.702,8.364c-4.026,0-7.903,0.006-11.778-0.005c-0.915-0.002-1.121-0.644-1.245-1.409
		c-0.391-2.396-0.805-4.789-1.239-7.179c-0.627-3.444-1.916-4.806-5.331-5.274c-1.703-0.232-3.455-0.076-5.182-0.172
		c-1.074-0.059-1.247,0.611-1.486,1.422c-1.044,3.532-2.201,7.032-3.201,10.577c-0.418,1.483-1.012,2.199-2.728,2.097
		c-2.902-0.177-5.821-0.084-8.733-0.033c-1.196,0.021-1.463-0.231-1.065-1.481c3.367-10.606,6.669-21.237,9.956-31.87
		c0.302-0.976,0.646-1.756,1.798-1.845c9.015-0.695,18.031-1.435,26.979,0.62c4.197,0.965,7.751,2.785,9.179,7.271
		C490.895,338.48,490.895,338.952,490.895,339.425z M465.394,345.546c0.314,0,0.63,0.003,0.941-0.001
		c3.419-0.044,6.745-0.498,9.519-2.714c2.737-2.188,2.372-5.022-0.746-6.447c-1.829-0.835-3.801-0.918-5.748-0.987
		c-5.237-0.188-5.239-0.156-6.694,4.719c-0.111,0.375-0.197,0.757-0.315,1.129C460.98,345.549,460.979,345.549,465.394,345.546z"/>
	<path fill="#FFFFFF" d="M193.067,354.475c0.483-0.361,0.685-0.726,0.759-1.24c1.065-7.414,3.808-14.381,5.741-21.563
		c0.391-1.452,1.01-2.231,2.75-2.108c2.663,0.189,5.349,0.067,8.024,0.041c1.02-0.011,1.616-0.004,1.175,1.4
		c-3.432,10.917-6.795,21.854-10.132,32.801c-0.364,1.193-0.971,1.559-2.181,1.521c-2.831-0.084-5.676-0.172-8.496,0.021
		c-2.031,0.139-3.072-0.654-4.001-2.38c-4.26-7.897-9.223-15.425-12.475-24.485c-2.063,8.904-4.668,17.006-7.196,25.133
		c-0.419,1.348-0.936,1.742-2.245,1.707c-2.832-0.076-5.666-0.049-8.499-0.012c-1.066,0.015-1.355-0.229-1-1.361
		c3.44-10.998,6.826-22.014,10.218-33.027c0.299-0.973,0.886-1.338,1.913-1.327c3.936,0.044,7.872,0.062,11.807-0.012
		c1.064-0.021,1.526,0.476,1.975,1.278C185.498,338.557,190.292,345.995,193.067,354.475z"/>
	<path fill="#FFFFFF" d="M9.105,364.634c2.338-7.499,4.672-14.967,6.996-22.438c1.07-3.441,2.118-6.893,3.182-10.336
		c0.273-0.883,0.398-1.721,1.734-1.812c10.049-0.687,20.105-1.353,30.043,0.897c4.396,0.996,8.589,2.643,11.387,6.494
		c3.545,4.881,2.375,12.609-2.501,17.896c-5.128,5.562-11.815,7.862-18.967,9.013c-10.309,1.658-20.683,1.287-31.049,0.517
		C9.711,364.848,9.498,364.745,9.105,364.634z M23.38,359.109c4.639,0.233,9.036,0.351,13.368-0.564
		c4.62-0.977,8.862-2.722,11.857-6.645c5.362-7.019,2.641-14.213-5.95-15.832c-3.589-0.676-7.188-0.558-10.8-0.411
		c-0.696,0.028-1.189,0.181-1.421,0.928C28.109,344.045,25.766,351.5,23.38,359.109z"/>
	<path fill="#FFFFFF" d="M332.693,343.467c2.909,0,5.821-0.054,8.729,0.024c1.233,0.032,1.803-0.372,2.152-1.583
		c0.997-3.46,2.229-6.854,3.184-10.323c0.441-1.603,1.198-2.092,2.814-2.013c2.825,0.138,5.663,0.098,8.492,0.015
		c1.408-0.042,1.824,0.333,1.38,1.746c-3.38,10.76-6.742,21.526-10.037,32.312c-0.396,1.293-0.956,1.733-2.299,1.686
		c-2.906-0.104-5.826-0.141-8.729,0.007c-1.881,0.097-1.833-0.64-1.378-2.034c1.215-3.723,2.314-7.484,3.521-11.211
		c0.428-1.32,0.418-1.972-1.322-1.943c-5.819,0.095-11.643,0.082-17.462,0.002c-1.388-0.021-1.91,0.514-2.256,1.761
		c-1.064,3.848-2.276,7.655-3.352,11.5c-0.395,1.409-1.047,2.011-2.613,1.93c-2.823-0.147-5.662-0.094-8.491-0.021
		c-1.444,0.037-1.965-0.188-1.446-1.832c3.342-10.609,6.604-21.244,9.832-31.889c0.455-1.502,1.107-2.14,2.787-2.035
		c2.82,0.174,5.665,0.144,8.489,0.012c1.736-0.081,1.754,0.574,1.31,1.908c-1.139,3.418-2.129,6.888-3.311,10.289
		c-0.495,1.429-0.145,1.757,1.272,1.718C326.871,343.411,329.782,343.467,332.693,343.467z"/>
	<path fill="#FFFFFF" d="M78.854,365.298c1.35-1.717,2.433-3.11,3.534-4.491c7.881-9.885,15.785-19.752,23.624-29.668
		c0.869-1.101,1.738-1.588,3.149-1.559c4.09,0.087,8.184,0.068,12.275,0.008c1.218-0.02,1.792,0.271,2.035,1.596
		c1.945,10.562,3.946,21.113,6.001,31.656c0.363,1.858,0.115,2.654-2.054,2.508c-2.977-0.199-5.978-0.08-8.967-0.033
		c-1.074,0.017-1.699-0.092-1.779-1.453c-0.124-2.106-0.644-4.188-0.816-6.295c-0.102-1.24-0.585-1.592-1.761-1.58
		c-4.563,0.049-9.129,0.058-13.692-0.008c-1.092-0.016-1.767,0.404-2.333,1.231c-0.487,0.711-1.139,1.342-1.486,2.113
		c-2.416,5.366-6.644,6.877-12.168,6.016C82.754,365.079,81.018,365.298,78.854,365.298z M102.75,350.239c2.857,0,5.138,0,7.419,0
		c4.946,0,4.928,0.003,4.241-4.824c-0.448-3.147-0.835-6.306-1.323-10.022C109.906,340.805,106.301,345.211,102.75,350.239z"/>
	<path fill="#FFFFFF" d="M226.974,365.298c1.721-2.18,3.108-3.946,4.508-5.704c7.53-9.462,15.083-18.906,22.573-28.402
		c0.926-1.172,1.896-1.646,3.383-1.611c4.013,0.093,8.028,0.083,12.041,0c1.211-0.023,1.85,0.246,2.086,1.516
		c2.045,10.948,4.125,21.893,6.213,32.834c0.193,1.01-0.047,1.407-1.155,1.389c-3.383-0.057-6.771-0.07-10.153,0.009
		c-1.24,0.028-1.646-0.466-1.763-1.604c-0.214-2.104-0.565-4.197-0.788-6.302c-0.111-1.06-0.541-1.45-1.646-1.437
		c-4.644,0.056-9.289,0.05-13.933,0.002c-1.011-0.01-1.571,0.438-2.104,1.201c-1.033,1.479-2.344,2.803-3.176,4.383
		c-1.633,3.103-3.975,4.209-7.448,3.791C232.978,365.044,230.276,365.298,226.974,365.298z M261.176,335.457
		c-3.172,5.372-6.779,9.837-10.27,14.781c3.962,0,7.49-0.025,11.018,0.017c1.062,0.013,1.336-0.325,1.172-1.389
		C262.438,344.607,261.866,340.337,261.176,335.457z"/>
	<path fill="#FFFFFF" d="M398.24,343.656c6.39,0,12.521,0.053,18.648-0.035c1.694-0.023,1.954,0.348,1.41,1.957
		c-1.499,4.423-1.426,4.447-6.176,4.447c-4.562,0-9.124,0.08-13.682-0.043c-1.646-0.045-2.432,0.481-2.812,2.05
		c-0.535,2.19-1.23,4.344-1.913,6.702c7.652,0,15.17,0,22.732,0c0,0.377,0.044,0.601-0.007,0.799
		c-1.492,5.765-1.494,5.765-7.449,5.765c-9.819,0-19.641,0-29.79,0c1.021-3.349,1.965-6.476,2.932-9.595
		c2.525-8.155,5.103-16.295,7.547-24.475c0.364-1.221,0.808-1.645,2.053-1.64c10.381,0.037,20.761,0.037,31.142,0.001
		c1.354-0.004,1.523,0.289,1.108,1.611c-1.554,4.945-1.49,4.966-6.686,4.966c-5.032,0-10.065,0.037-15.098-0.026
		c-1.212-0.016-1.816,0.268-2.115,1.545C399.626,339.648,398.907,341.549,398.24,343.656z"/>
</g>
</svg>
