<?xml version="1.0" encoding="utf-8"?>
<!-- Generator: Adobe Illustrator 16.0.0, SVG Export Plug-In . SVG Version: 6.00 Build 0)  -->
<!DOCTYPE svg PUBLIC "-//W3C//DTD SVG 1.1//EN" "http://www.w3.org/Graphics/SVG/1.1/DTD/svg11.dtd">
<svg version="1.1" id="Layer_1" xmlns="http://www.w3.org/2000/svg" xmlns:xlink="http://www.w3.org/1999/xlink" x="0px" y="0px"
	 width="500px" height="133px" viewBox="0 184.5 500 133" enable-background="new 0 184.5 500 133" xml:space="preserve">
<g>
	<path fill="#FFFFFF" d="M3.76,208.479c1.356-2.225,3.584-3.463,5.536-5.046c2.221-1.8,4.385-1.845,7.008-1.093
		c5.142,1.474,10.36,2.689,15.654,3.531c0.749,0.119,1.509,0.167,2.252,0.312c0.855,0.166,1.186-0.153,1.152-1.003
		c-0.067-1.663,0.298-3.243,0.9-4.792c2.262-5.821,9.922-7.34,14.071-5.286c2.729,1.351,3.636,3.898,4.123,6.657
		c0.326,1.848,0.075,3.68-0.486,5.44c-0.34,1.066-0.01,1.582,0.902,2.097c3.393,1.917,6.997,3.336,10.653,4.635
		c5.199,1.848,10.478,3.44,15.804,4.879c0.735,0.199,1.442,0.454,2.128,0.793c12.259,6.059,24.531,12.089,36.78,18.168
		c4.856,2.41,9.505,5.196,13.253,9.166c1.381,1.463,2.343,1.957,4.452,1.251c5.385-1.8,9.501,0.52,11.365,5.921
		c0.694,2.011,1.253,4.047,0.938,6.217c-0.05,0.344-0.007,0.699-0.007,1.352c0.924-0.824,1.674-1.453,2.376-2.132
		c4.147-4.003,7.979-8.301,11.81-12.602c3.932-4.414,8.528-7.86,14.359-9.335c2.828-0.715,5.718-0.602,8.564-0.042
		c1.892,0.372,3.383,1.279,3.512,3.49c0.005,0.078,0.047,0.153,0.066,0.23c0.556,2.198,0.521,2.132,2.448,1.12
		c4.284-2.25,8.585-4.461,13.46-5.219c6.357-0.988,11.831,0.851,16.335,5.319c4.909,4.87,8.426,10.552,9.075,17.644
		c0.511,5.586-1.771,10.037-5.794,13.711c-3.32,3.033-7.234,5.111-11.32,6.896c-1.979,0.863-2.121,0.521-0.705,2.561
		c2.45,3.524,5.618,5.998,10.005,6.58c3.913,0.521,7.438-0.615,10.727-2.627c4.999-3.057,8.883-7.302,12.37-11.916
		c2.519-3.334,5.187-6.498,8.506-9.066c1.629-1.262,3.346-2.348,5.45-2.596c0.595-0.07,0.883-0.457,1.209-0.877
		c1.717-2.209,3.488-4.377,5.176-6.608c2.145-2.834,5.062-4.752,7.896-6.753c5.834-4.117,12.077-7.522,18.598-10.421
		c0.849-0.376,1.617-0.867,2.38-1.382c2.204-1.493,4.618-2.287,7.305-2.366c2.908-0.085,4.752,1.35,5.924,3.848
		c0.839,1.789,1.213,3.689,1.428,5.659c0.705,6.48,2.232,12.816,3.513,19.197c1.182,5.893,2.709,11.676,5.242,17.152
		c0.783,1.697,1.586,3.385,2.63,5.131c0.533-0.875,0.543-1.74,0.653-2.519c0.617-4.282,2.774-7.978,4.401-11.874
		c0.23-0.554,0.524-1.084,0.716-1.65c1.707-5.039,4.922-9.107,8.354-13.037c1.789-2.049,3.594-4.082,5.392-6.123
		c0.938-1.062,2.088-1.856,3.284-2.588c1.182-0.723,2.438-0.292,3.625-0.098c4.391,0.719,7.537,3.296,9.932,6.913
		c1.56,2.354,2.611,4.939,3.483,7.609c0.248,0.761,0.52,1.513,0.814,2.255c0.109,0.276,0.134,0.698,0.532,0.719
		c0.411,0.021,0.452-0.403,0.578-0.675c1.341-2.862,2.558-5.781,3.531-8.785c0.938-2.895,2.263-5.525,4.36-7.77
		c1.758-1.881,3.746-2.895,6.396-2.38c2.043,0.396,4.075,0.798,6.025,1.544c1.199,0.46,2.071,1.206,2.712,2.381
		c3.842,7.065,6.388,14.644,8.874,22.243c2.724,8.322,5.661,16.563,9.078,24.631c0.232,0.552,0.489,1.095,0.746,1.637
		c0.979,2.076,0.203,3.954-1.896,4.916c-1.707,0.781-3.426,0.631-5.16,0.318c-6.196-1.115-9.89-5.131-11.979-10.75
		c-1.32-3.553-2.244-7.25-3.399-10.865c-0.937-2.932-1.987-5.825-3.353-8.594c-0.19-0.387-0.41-0.759-0.644-1.186
		c-0.525,0.27-0.528,0.749-0.662,1.128c-2.468,6.974-5.051,13.901-8.173,20.615c-1.114,2.396-2.308,4.755-3.845,6.907
		c-1.134,1.588-2.25,3.248-4.547,3.322c-2.977,0.096-5.641-0.541-7.627-2.962c-2.121-2.583-3.047-5.679-3.765-8.854
		c-0.854-3.788-1.048-7.666-1.459-11.514c-0.33-3.098-0.644-6.195-1.291-9.246c-0.094-0.444-0.069-1.139-0.559-1.235
		c-0.515-0.104-0.681,0.575-0.922,0.954c-1.468,2.312-2.39,4.873-3.329,7.427c-1.714,4.653-2.793,9.505-4.43,14.187
		c-1.316,3.769-3.421,7.026-5.981,10.025c-0.743,0.87-1.854,1.236-2.826,1.775c-1.328,0.736-2.625,1.518-3.925,2.302
		c-2.071,1.25-4.201,1.632-6.516,0.229c-5.218-3.16-8.884-7.586-11.381-13.09c-2.743-6.044-5.322-12.156-7.81-18.311
		c-0.332-0.822-0.762-1.574-1.297-2.283c-0.404-0.536-0.672-0.441-0.975,0.055c-0.166,0.273-0.35,0.536-0.523,0.805
		c-4.104,6.256-8.262,12.479-13.128,18.175c-5.21,6.101-11.687,9.729-19.911,9.671c-6.556-0.046-11.695-4.521-12.688-11.016
		c-0.061-0.387-0.156-0.769-0.275-1.344c-1.634,1.985-3.163,3.865-5.014,5.438c-5.181,4.403-10.918,7.688-17.779,8.565
		c-8.502,1.088-16.144-1.106-23.019-6.182c-6.156-4.543-11.191-10.161-15.493-16.414c-1.722-2.503-2.459-5.534-2.651-8.62
		c-0.309-4.981-0.697-9.963-0.865-14.95c-0.09-2.693,0.044-5.414,0.858-8.309c-1.733,0.925-3.064,1.927-4.381,2.936
		c-11.168,8.543-18.498,19.752-22.84,33.016c-1.595,4.867-2.797,9.833-3.347,14.939c-0.004,0.038-0.019,0.08-0.011,0.117
		c0.486,2.329-0.886,3.245-2.812,3.891c-1.968,0.658-3.833,1.651-5.826,2.203c-2.879,0.795-4.818,0.403-6.469-2.543
		c-0.937-1.673-1.311-3.477-1.417-5.392c-0.181-3.239-1.028-6.381-1.693-9.542c-1.217-5.783-2.549-11.542-3.838-17.311
		c-0.033-0.147-0.129-0.28-0.247-0.528c-0.777,0.897-1.473,1.754-2.222,2.562c-4.195,4.514-9.253,7.871-14.679,10.67
		c-11.423,5.895-23.423,10.227-35.979,13.006c-4.328,0.959-8.646,1.968-12.975,2.922c-0.908,0.201-1.253,0.55-1.049,1.56
		c0.424,2.099,0.172,2.535-1.823,3.423c-2.487,1.105-5.04,2.016-7.769,2.35c-0.788,0.098-1.519-0.057-2.23-0.312
		c-0.825-0.299-1.708-0.556-2.411-1.051c-2.837-2.005-6.126-2.155-9.384-2.372c-3.786-0.252-7.595-0.281-11.365-0.608
		c-3.499-0.307-6.715-1.586-8.363-5.146c-0.243-0.523-0.292-1.03-0.139-1.617c1.092-4.164,3.225-7.542,7.08-9.689
		c0.541-0.303,1.011-0.334,1.588-0.188c2.866,0.72,5.732,1.437,8.661,1.878c2.251,0.339,2.427,0.25,2.13-1.98
		c-0.899-6.766-1.828-13.526-2.774-20.287c-0.974-6.957-1.934-13.916-2.986-20.86c-1.042-6.883-1.73-13.789-1.658-20.756
		c0.008-0.804-0.436-1.131-1.048-1.414c-2.675-1.233-5.542-1.81-8.402-2.365c-4.311-0.836-8.66-1.443-13.017-2.002
		c-2.635-0.338-5.124-1.231-7.42-2.603c-1.456-0.869-2.505-2.094-3.163-3.655C3.76,211.52,3.76,210,3.76,208.479z M54.444,227.989
		c-0.44,0-0.88,0.007-1.319-0.002c-0.556-0.011-0.783,0.235-0.758,0.804c0.192,4.428,0.262,8.864,0.71,13.277
		c0.634,6.234,1.493,12.438,2.594,18.608c1.514,8.493,3.369,16.911,5.474,25.276c0.176,0.698,0.448,0.896,1.165,0.756
		c2.742-0.532,5.496-1.005,8.244-1.502c14.304-2.589,27.814-7.506,40.801-13.946c2.56-1.269,4.912-2.796,6.705-5.115
		c2.748-3.556,2.733-6.832-0.149-10.312c-1.986-2.399-4.39-4.322-6.974-6.002c-12.239-7.957-25.438-13.896-39.269-18.465
		C66.077,229.52,60.35,228.273,54.444,227.989z M269.756,283.214c-0.07,2.638,0.188,2.847,2.246,2.22
		c2.725-0.828,4.771-2.666,6.357-4.891c3.34-4.68,6.938-9.18,9.957-14.084c1.848-3.002,3.479-6.114,4.152-9.63
		c0.147-0.771,0.573-1.784-0.088-2.235c-0.667-0.453-1.492,0.303-2.133,0.732c-5.446,3.652-10.264,8.048-14.409,13.091
		C272.218,272.825,270.146,278.003,269.756,283.214z M215.897,261.67c0.261-5.186-3.629-9.777-8.128-10.079
		c-1.618-0.108-3.141,0.468-3.592,1.556c-1.475,3.547-2,7.209-1.367,11.017c0.368,2.21,1.163,4.224,2.692,5.914
		c0.717,0.792,1.486,1.088,2.55,0.715c1.679-0.588,3.133-1.567,4.67-2.418c1.939-1.071,2.89-2.656,3.071-4.789
		C215.846,262.947,215.863,262.309,215.897,261.67z"/>
	<path fill="#FFFFFF" d="M424.294,276.402c-0.146,8.248-0.311,17.361-0.469,26.475c-0.009,0.539-0.041,1.068-0.575,1.354
		c-3.235,1.733-6.623,2.75-10.337,2.072c-2.271-0.414-3.542-2.043-4.202-4.025c-1.263-3.795-1.515-7.732-1.183-11.717
		c0.302-3.621,0.528-7.248,0.797-10.871c0.383-5.174,0.783-10.349,1.151-15.524c0.129-1.796-0.056-3.59-0.111-5.386
		c-0.161-5.113-0.438-10.229-0.279-15.347c0.052-1.675,0.251-3.344,0.799-4.95c1.099-3.223,3.307-4.785,6.693-4.709
		c0.52,0.012,1.039,0.042,1.557,0.086c2.18,0.188,2.934,1.007,3.329,3.177c0.935,5.11,1.503,10.265,2.08,15.421
		c0.087,0.779-0.31,1.794,0.322,2.286c0.664,0.519,1.467-0.337,2.244-0.394c0.716-0.052,1.446-0.16,2.149-0.072
		c3.975,0.488,7.979,0.354,11.963,0.647c1.043,0.077,1.669-0.557,1.752-1.688c0.137-1.867,0.148-3.73,0.094-5.612
		c-0.103-3.431,0.062-6.873,0.208-10.307c0.143-3.35,0.399-6.695,0.607-10.042c0.322-5.18,0.797-10.347,1.376-15.503
		c0.565-5.037,1.192-10.066,1.728-15.106c0.469-4.419,2.331-6.727,6.759-7.486c4.787-0.82,7.941,0.002,10.539,4.004
		c0.609,0.94,0.726,1.888,0.55,2.964c-1.211,7.406-2.21,14.84-3.089,22.293c-1.28,10.851-1.757,21.733-1.651,32.652
		c0.012,1.146,0.337,1.456,1.479,1.521c8.354,0.471,16.458-1.047,24.515-2.978c2.279-0.546,4.583-0.659,6.895-0.403
		c2.806,0.311,4.534,2.769,4.199,5.833c-0.498,4.547-2.72,7.104-7.438,8.427c-3.625,1.018-7.349,1.53-11.083,1.909
		c-5.399,0.545-10.811,0.992-16.217,1.468c-0.688,0.062-1.241,0.503-1.94,0.562c-0.465,0.039-0.376,0.537-0.332,0.891
		c1.172,9.436,1.371,18.957,2.56,28.39c0.304,2.413,0.064,4.774-0.338,7.13c-0.39,2.276-1.797,3.234-4.095,2.924
		c-1.868-0.255-3.738,0-5.604-0.007c-2.779-0.01-5.269-1.428-6.274-4.011c-1.382-3.546-1.841-7.278-2.012-11.031
		c-0.198-4.352-0.2-8.713-0.274-13.07c-0.035-2.039-0.295-4.06-0.502-6.084c-0.178-1.735-1.186-2.701-2.738-3.27
		c-2.166-0.793-4.443-0.996-6.705-1.172c-2.588-0.201-5.191-0.18-7.787-0.293c-0.84-0.037-1.132,0.281-1.118,1.109
		C424.317,271.139,424.294,273.339,424.294,276.402z"/>
	<path fill="#FFFFFF" d="M430.764,193.801c0.143,0.503-0.198,0.846-0.396,1.211c-1.722,3.205-3.424,6.421-5.218,9.584
		c-0.541,0.954-0.562,1.555,0.293,2.353c2.716,2.538,5.349,5.164,8.003,7.767c0.303,0.297,0.71,0.528,0.811,1.024
		c-0.394,0.358-0.83,0.148-1.235,0.085c-3.829-0.596-7.672-1.135-11.479-1.848c-1.229-0.23-1.698,0.192-2.182,1.182
		c-1.665,3.414-3.406,6.791-5.121,10.18c-0.192,0.38-0.406,0.75-0.729,1.343c-0.525-1.492-0.549-2.808-0.763-4.078
		c-0.47-2.797-0.889-5.604-1.276-8.414c-0.129-0.932-0.519-1.384-1.493-1.492c-3.69-0.406-7.377-0.878-11.063-1.326
		c-0.495-0.06-1.032,0.025-1.536-0.466c0.985-0.543,1.908-1.076,2.853-1.568c2.905-1.518,5.807-3.047,8.739-4.51
		c0.783-0.391,0.995-0.834,0.85-1.685c-0.71-4.135-1.361-8.28-2.031-12.422c-0.03-0.188-0.034-0.381-0.053-0.598
		c0.604-0.073,0.797,0.401,1.079,0.68c2.823,2.774,5.65,5.546,8.43,8.366c0.637,0.646,1.137,0.764,1.96,0.33
		c3.428-1.812,6.891-3.56,10.349-5.316C429.92,193.994,430.263,193.65,430.764,193.801z"/>
</g>
</svg>
