<?xml version="1.0" encoding="utf-8"?>
<!-- Generator: Adobe Illustrator 16.0.0, SVG Export Plug-In . SVG Version: 6.00 Build 0)  -->
<!DOCTYPE svg PUBLIC "-//W3C//DTD SVG 1.1//EN" "http://www.w3.org/Graphics/SVG/1.1/DTD/svg11.dtd">
<svg version="1.1" id="Layer_1" xmlns="http://www.w3.org/2000/svg" xmlns:xlink="http://www.w3.org/1999/xlink" x="0px" y="0px"
	 width="500px" height="319px" viewBox="0 73.5 500 319" enable-background="new 0 73.5 500 319" xml:space="preserve">
<g>
	<path fill="#FFFFFF" d="M48.078,359.923c0-7.424,0.048-14.847-0.039-22.269c-0.019-1.557,0.467-1.916,1.931-1.869
		c6.274,0.191,12.564-0.311,18.828,0.288c12.541,1.196,21.216,11.128,20.811,23.762c-0.262,8.149-2.988,15.129-9.864,19.998
		c-4.239,3.002-9.1,4.017-14.21,4.034c-5.266,0.017-10.532-0.04-15.796,0.033c-1.346,0.02-1.7-0.391-1.689-1.711
		C48.108,374.77,48.078,367.346,48.078,359.923z M53.667,359.723c0,5.711,0.026,11.422-0.023,17.133
		c-0.009,1.105,0.195,1.558,1.439,1.526c3.615-0.09,7.235,0.037,10.849-0.056c3.459-0.088,6.802-0.784,9.781-2.669
		c5.371-3.398,7.737-8.544,8.273-14.651c0.731-8.335-3.872-17.342-13.797-19.255c-4.966-0.958-9.998-0.371-14.996-0.575
		c-1.303-0.054-1.563,0.409-1.552,1.605C53.698,348.43,53.667,354.076,53.667,359.723z"/>
	<path fill="#FFFFFF" d="M207.576,359.852c0-7.424,0.039-14.848-0.034-22.27c-0.014-1.406,0.309-1.85,1.769-1.803
		c6.4,0.212,12.815-0.285,19.209,0.311c11.485,1.069,20.129,10.155,20.519,21.73c0.3,8.919-2.302,16.654-9.898,22.047
		c-4.181,2.967-8.988,3.972-14.032,3.996c-5.33,0.025-10.659-0.03-15.988,0.035c-1.245,0.015-1.584-0.338-1.574-1.588
		C207.606,374.824,207.576,367.338,207.576,359.852z M213.188,359.768c0,5.647,0.043,11.295-0.032,16.941
		c-0.018,1.354,0.394,1.708,1.708,1.672c3.297-0.091,6.598-0.007,9.897-0.035c10.069-0.084,16.586-5.523,18.466-15.389
		c1.961-10.287-4.151-19.548-14.269-21.346c-4.639-0.823-9.373-0.268-14.059-0.443c-1.519-0.059-1.755,0.516-1.74,1.85
		C213.226,348.6,213.188,354.184,213.188,359.768z"/>
	<path fill="#FFFFFF" d="M396.275,357.838c2.854,0,5.711,0.038,8.564-0.02c1.066-0.022,1.587,0.132,1.569,1.414
		c-0.072,5.455-0.036,10.914-0.022,16.371c0.001,0.658-0.124,1.181-0.607,1.701c-10.653,11.465-31.169,9.026-38.626-2.078
		c-7.14-10.629-5.257-26.98,4.419-34.957c8.955-7.383,24.09-6.98,32.68,0.824c0.793,0.721,0.812,1.135,0.12,1.95
		c-2.146,2.533-2.104,2.567-4.799,0.735c-7.622-5.187-18.321-4.883-24.729,1.009c-5.876,5.401-7.503,12.374-6.021,19.995
		c1.303,6.697,5.2,11.511,11.849,13.631c7.012,2.236,13.626,1.375,19.646-3.085c0.737-0.548,1.056-1.127,1.039-2.056
		c-0.054-2.918-0.094-5.84,0.013-8.756c0.05-1.383-0.275-1.856-1.753-1.813c-3.868,0.112-7.742-0.028-11.611,0.073
		c-1.415,0.037-1.838-0.326-1.794-1.773c0.098-3.165,0.013-3.167,3.211-3.167C391.706,357.838,393.99,357.838,396.275,357.838z"/>
	<path fill="#FFFFFF" d="M412.756,367.13c-0.05-10.203,7.27-17.655,17.364-17.685c10.354-0.027,17.601,7.181,17.646,17.556
		c0.045,10.022-7.315,17.437-17.364,17.489C420.164,384.543,412.805,377.303,412.756,367.13z M430.228,379.581
		c7.225-0.003,12.371-5.201,12.388-12.509c0.016-7.414-5.194-12.86-12.31-12.868c-7.228-0.009-12.295,5.228-12.358,12.771
		C417.884,374.273,423.056,379.583,430.228,379.581z"/>
	<path fill="#FFFFFF" d="M178.229,367.895c0,4.789-0.047,9.482,0.03,14.176c0.021,1.328-0.185,1.887-1.714,1.845
		c-3.511-0.097-3.514-0.005-3.514-3.483c0-14.146,0.029-28.293-0.039-42.438c-0.008-1.654,0.364-2.197,2.083-2.12
		c3.149,0.141,3.154,0.031,3.154,3.242c0,8.426,0,16.851,0,25.835c0.93-0.982,1.545-1.648,2.177-2.298
		c3.54-3.637,7.14-7.217,10.593-10.934c1.106-1.191,2.229-1.672,3.8-1.543c1.361,0.112,2.738,0.023,4.531,0.023
		c-2.566,2.562-4.834,4.824-7.1,7.09c-2.513,2.511-4.977,5.074-7.559,7.512c-0.994,0.938-1.095,1.436-0.041,2.457
		c5.054,4.902,10.014,9.901,14.992,14.881c0.471,0.471,1.099,0.832,1.372,1.729c-1.97,0-3.856-0.019-5.742,0.008
		c-0.833,0.013-1.215-0.612-1.694-1.089c-4.627-4.613-9.238-9.243-13.872-13.85C179.287,368.54,179,367.906,178.229,367.895z"/>
	<path fill="#FFFFFF" d="M360.682,383.864c-2.223,0-4.104-0.013-5.988,0.006c-0.831,0.008-1.201-0.646-1.678-1.119
		c-4.543-4.522-9.076-9.053-13.593-13.603c-0.435-0.438-0.726-1.018-1.174-1.66c-0.683,0.917-0.515,1.496-0.517,2.021
		c-0.017,4.315-0.037,8.631,0.012,12.945c0.012,1.049-0.272,1.415-1.376,1.443c-3.842,0.096-3.841,0.141-3.841-3.672
		c0-14.152,0.022-28.306-0.034-42.457c-0.006-1.481,0.355-1.938,1.868-1.896c3.359,0.099,3.361,0.015,3.361,3.462
		c0,7.615,0,15.23,0,22.848c0,0.676,0,1.353,0,2.031c0.806,0.094,1.017-0.458,1.339-0.785c3.783-3.847,7.594-7.666,11.298-11.586
		c1.129-1.193,2.261-1.853,3.938-1.676c1.308,0.139,2.64,0.028,3.993,0.028c0.05,0.774-0.558,1.016-0.919,1.379
		c-4.382,4.413-8.743,8.849-13.214,13.171c-1.124,1.088-0.979,1.639,0.048,2.641c5.042,4.92,10.011,9.913,15.001,14.885
		C359.637,382.701,360.032,383.162,360.682,383.864z"/>
	<path fill="#FFFFFF" d="M282.973,378.188c-3.242,4.238-7.223,6.264-12.154,6.261c-8.116-0.005-14.053-5.573-14.396-13.872
		c-0.265-6.399-0.06-12.816-0.108-19.227c-0.008-0.926,0.295-1.14,1.187-1.176c4.097-0.165,4.094-0.195,4.095,3.805
		c0,4.888-0.027,9.773,0.01,14.66c0.049,6.545,3.479,10.592,9.19,10.911c6.677,0.375,11.442-3.38,11.906-10.001
		c0.401-5.748,0.228-11.542,0.155-17.312c-0.021-1.645,0.342-2.166,2.056-2.084c3.174,0.154,3.18,0.041,3.18,3.197
		c0,9.519-0.036,19.037,0.037,28.557c0.013,1.548-0.341,2.236-1.956,1.978c-0.494-0.079-1.017-0.053-1.52-0.003
		c-0.934,0.092-1.379-0.177-1.369-1.232C283.294,381.32,283.107,379.992,282.973,378.188z"/>
	<path fill="#FFFFFF" d="M123.781,378.581c-1.094,0.317-1.382,1.007-1.855,1.478c-4.469,4.433-9.805,5.422-15.605,3.539
		c-5.738-1.863-8.632-6.254-9.216-12.087c-0.671-6.7-0.132-13.438-0.291-20.157c-0.022-0.944,0.342-1.14,1.217-1.178
		c4.039-0.179,4.036-0.208,4.038,3.825c0.001,5.013-0.061,10.024,0.027,15.036c0.1,5.757,3.041,9.441,8.115,10.402
		c7.002,1.326,13.037-3.496,13.161-10.639c0.097-5.58,0.075-11.166-0.004-16.748c-0.021-1.447,0.296-1.947,1.844-1.896
		c3.461,0.114,3.464,0.024,3.464,3.483c0,9.452-0.032,18.905,0.033,28.358c0.01,1.464-0.336,2.126-1.861,1.88
		c-0.371-0.061-0.767-0.057-1.139-0.001c-1.452,0.218-2.101-0.298-1.947-1.842C123.87,380.936,123.781,379.812,123.781,378.581z"/>
	<path fill="#FFFFFF" d="M313.265,384.491c-7.77-0.021-13.975-4.058-16.413-10.683c-2.679-7.269-0.676-15.736,4.821-20.387
		c6.159-5.21,16.591-5.132,22.722,0.081c0.993,0.845,0.798,1.24,0.02,2.021c-2.093,2.102-2.058,2.136-4.533,0.699
		c-5.355-3.109-12.505-1.896-16.227,2.754c-3.653,4.564-3.432,12.549,0.463,16.752c4.045,4.367,11.617,5.211,16.545,1.61
		c1.454-1.063,2.146-1.03,3.298,0.271c1.86,2.101,1.961,2.031-0.35,3.668C320.514,383.471,317.073,384.582,313.265,384.491z"/>
	<path fill="#FFFFFF" d="M136.325,367.107c0.092-6.842,2.504-12.504,8.917-15.576c6.523-3.127,12.999-2.797,19.076,1.47
		c1.337,0.938,1.645,1.638,0.276,2.981c-1.336,1.312-2.055,1.772-3.91,0.492c-5.088-3.516-12.579-2.261-16.385,2.366
		c-3.768,4.58-3.595,12.543,0.367,16.896c3.972,4.361,11.461,5.092,16.588,1.664c0.583-0.391,1.14-1.467,1.798-1.021
		c1.132,0.769,2.095,1.847,2.948,2.937c0.352,0.449-0.424,0.824-0.786,1.115c-5.941,4.764-12.542,5.301-19.312,2.385
		c-6.568-2.828-9.436-8.311-9.577-15.328C136.323,367.361,136.325,367.234,136.325,367.107z"/>
	<path fill="#FFFFFF" d="M176.336,260.663c-5.934-6.349-11.349-13.088-15.768-20.603c-4.442-7.553-7.935-15.509-10.474-23.89
		c-0.088-0.293-0.234-0.568-0.353-0.852c-1.245-5.412-2.552-10.803-3.214-16.339c-1.672-13.982-0.759-27.767,2.874-41.372
		c0.146-0.547,0.252-1.106,0.376-1.66c2.626-8.214,5.77-16.213,10.198-23.642c15.954-26.763,39.049-44.061,69.434-50.879
		c50.276-11.282,101.18,15.148,121.391,62.511c0.195,0.458,0.442,0.894,0.665,1.34c2.121,5.886,4.167,11.792,5.434,17.939
		c4.305,20.907,2.763,41.338-4.924,61.28c-0.18,0.467-0.293,0.96-0.438,1.441c-3.396,7.572-7.16,14.939-12.073,21.663
		c-17.372,23.779-40.481,38.771-69.563,43.345c-35.373,5.562-66.269-4.437-92.294-29.158
		C177.197,261.398,176.76,261.038,176.336,260.663z M209.069,131.143c0.14-0.115,0.281-0.23,0.42-0.345l0.009-0.006
		c0.347-0.002,0.613-0.124,0.714-0.486c0.296-0.227,0.574-0.484,0.891-0.676c5.863-3.547,12.268-5.505,19.012-6.462
		c0.705,0.043,1.304-0.229,1.974-0.64c-5.081-2.073-10.227-3.375-15.597-4.016c-3.676-0.438-7.327-0.2-10.988-0.286
		c-1.261-0.029-2.084-0.109-1.161-1.612c0.123-0.2,0.111-0.483,0.161-0.729l-0.011,0.009c0.347,0.053,0.626-0.036,0.792-0.371
		c2.093-0.864,4.27-1.446,6.479-1.922c0.647,0.027,1.036-0.32,1.29-0.874c-2.149-1.662-4.668-2.768-6.617-4.678
		c7.951-1.148,15.819-0.775,23.561,1.409c8.229,2.322,15.795,5.902,21.729,12.262c1.104,1.182,2.24,1.87,3.777,2.201
		c7.021,1.513,12.74,5,17.023,10.907c5.531,7.631,9.531,15.957,12.089,25.002c2.077,7.345,3.134,14.752,1.399,22.335
		c-5.181,1.623-10.551,2.143-15.912,2.231c-7.896,0.131-14.185,3.612-19.892,8.612c-4.25,3.723-4.519,7.382-1.926,12.588
		c1.325,2.66,3.448,4.655,5.675,6.547c-0.1,0.361-0.236,0.717-0.295,1.086c-1.068,6.867-0.164,13.597,1.369,20.293
		c1.597,6.973,4.129,13.63,6.718,20.271c-3.164,0.576-6.446,0.777-9.271,2.523c-0.832,0.514-1.437,0.433-2.235,0.061
		c-3.264-1.523-6.531-3.046-9.841-4.463c-3.084-1.318-6.252-2.437-9.587-2.935c-2.298-0.344-2.985,0.3-3.154,2.503
		c-0.296,3.867-0.084,7.729,0.047,11.59c0.192,5.632,0.39,11.271,1.846,16.76c0.75,2.824,1.453,3.158,4.232,2.373
		c0.608-0.172,1.211-0.367,1.799-0.598c4.96-1.938,9.632-4.463,14.279-7.037c5.424,1.918,10.713,1.09,15.94-0.812
		c0.916-0.333,1.315-1.137,1.555-2.027c0.957-0.422,1.703-1.817,3.005-0.65c2.099,4.107,4.213,8.209,6.282,12.332
		c0.494,0.984,1.111,0.887,2.023,0.645c11.362-3.019,21.878-7.867,31.532-14.558c8.413-5.831,15.79-12.735,22.082-20.865
		c4.251-5.491,8.111-11.218,11.167-17.408c3.751-7.598,6.762-15.509,8.366-23.902c0.646-3.377,1.319-6.75,1.71-10.159
		c0.281-2.47,0.271-4.996,0.451-7.465c0.2-2.777,0.194-5.523,0.15-8.288c-0.187-6.419-1.082-12.745-2.55-18.991
		c-12.187-51.838-62.785-86.984-117.457-76.784c-34.48,6.433-59.229,26.319-74.326,57.982c-5.51,11.557-8.341,23.868-8.929,36.675
		c-0.194,3.816-0.217,7.632,0.036,11.448c-0.053,0.587-0.116,1.177,0.237,1.709c-0.015,2.654,0.367,5.266,0.744,7.888
		c1.364,9.479,4.124,18.554,8.175,27.195c6.854,14.617,16.591,27.007,29.312,37.005c9.187,7.221,19.245,12.836,30.375,16.475
		c1.168,0.797,2.581,0.959,3.859,1.471c1.009,0.404,1.578,0.587,1.222-1.049c-2.214-10.164-4.277-20.36-6.418-30.541
		c-2.453-11.663-4.979-23.31-7.393-34.979c-2.924-14.136-5.81-28.281-8.624-42.439c-1.598-8.045-3.147-16.094-2.109-24.402
		c0.713-5.708,2.341-10.985,5.98-15.521c0.385-0.48,0.612-0.949,0.526-1.557c0.256-0.229,0.512-0.458,0.768-0.688
		c0.589,0.002,0.981-0.25,1.104-0.851l-0.029,0.028c0.148-0.119,0.296-0.238,0.444-0.357L209.069,131.143z M267.787,145.528
		c0.25-0.05,0.498-0.101,0.748-0.151c0.178,0.146,0.322,0.086,0.449-0.074c0.81,0.019,1.619,0.038,2.428,0.056
		c0.182,0.063,0.363,0.126,0.546,0.19c1.623,0.528,3.247,1.057,5.012,1.631c-1.903-3.514-4.905-4.833-9.198-4.183
		c-2.809,0.336-4.797,2.1-5.064,4.553C264.242,146.404,266.005,145.94,267.787,145.528z M214.883,149.118
		c3.378-2.062,6.986-2.383,11.028-1.171c-3.272-3.113-7.249-3.401-11.837-1.091c-3.774,1.736-5.246,4.75-4.012,8.474
		C210.792,152.478,212.857,150.814,214.883,149.118z M224.164,176.883c4.057-0.004,7.387-3.319,7.382-7.349
		c-0.004-4.023-3.363-7.364-7.395-7.354c-4.047,0.009-7.391,3.346-7.384,7.369C216.773,173.591,220.098,176.888,224.164,176.883z
		 M273.604,158.896c-3.547-0.025-6.312,2.649-6.361,6.16c-0.053,3.562,2.801,6.48,6.316,6.461c3.406-0.019,6.291-2.901,6.322-6.323
		C279.914,161.755,277.09,158.922,273.604,158.896z"/>
	<path fill="#FFFFFF" d="M329.785,179.892c-3.877,4.123-9.131,5.84-14.122,7.959c-8.336,3.54-16.904,6.462-25.543,9.183
		c-4.847,1.526-9.731,1.396-14.659,0.588c-1.188-0.195-2.378-0.387-3.574-0.484c-3.111-0.25-5.501,1.269-6.555,4.1
		c-0.943,2.535-0.102,5.29,2.252,7.089c2.913,2.227,6.352,3.084,9.891,3.582c8.933,1.256,17.676-0.031,26.365-2.018
		c3.698-0.846,7.373-1.816,11.142-2.336c0.438-0.061,0.879-0.171,1.315-0.164c1.576,0.025,3.337-0.167,4.034,1.724
		c0.694,1.882-0.534,3.178-1.803,4.237c-3.67,3.064-8.102,4.626-12.544,6.161c-10.979,3.792-21.832,2.474-32.682-0.624
		c-6.58-1.878-13.111-3.875-19.342-6.744c-2.229-1.893-4.35-3.889-5.675-6.548c-2.593-5.206-2.325-8.865,1.926-12.588
		c5.708-5,11.996-8.481,19.892-8.612c5.361-0.088,10.731-0.608,15.912-2.231c6.733-1.484,13.368-3.346,20.027-5.126
		c3.906-1.043,7.511-3.142,11.629-3.381c3.589-0.209,7.086,0.321,10.34,1.919C330.073,176.591,330.479,177.73,329.785,179.892z"/>
	<path fill="#FFFFFF" d="M261.754,253.795c0.889,0.01,1.775,0.003,2.664,0.03c1.794,0.057,3.492,0.274,3.759,2.68
		c3.642-2.43,7.138-4.808,10.681-7.112c2.552-1.659,5.177-3.211,8.07-4.209c2.19-0.756,2.93-0.382,3.76,1.821
		c0.944,2.511,1.283,5.149,1.562,7.802c0.621,5.887,0.775,11.768-0.104,17.644c-0.047,0.312-0.09,0.627-0.162,0.934
		c-0.777,3.284-1.215,3.573-4.596,2.985c-5.899-1.027-11.389-3.387-17.019-5.287c-1.302-1.167-2.047,0.229-3.004,0.65
		c-4.14,1.479-8.345,2.188-12.771,1.555c-2.777-0.396-3.945-1.428-3.973-4.25c-0.027-2.912,0.014-5.824-0.02-8.734
		c-0.006-0.473,0.34-1.314-0.542-1.301c-0.575,0.009-0.898,0.632-0.958,1.255c-0.119,1.251-0.185,2.524-0.227,3.761
		c-0.117,3.539-0.937,7.194,0.992,10.555c-4.647,2.574-9.319,5.102-14.279,7.039c-0.588,0.229-1.191,0.425-1.799,0.597
		c-2.779,0.785-3.482,0.451-4.232-2.373c-1.456-5.487-1.654-11.128-1.846-16.76c-0.132-3.861-0.344-7.722-0.047-11.589
		c0.169-2.205,0.856-2.849,3.154-2.504c3.335,0.499,6.503,1.616,9.587,2.935c3.311,1.417,6.577,2.938,9.841,4.463
		c0.799,0.372,1.404,0.453,2.236-0.062C255.309,254.572,258.59,254.371,261.754,253.795z"/>
	<path fill="#FFFFFF" d="M219.754,282.018c-2.507-11.966-5.03-23.928-7.517-35.896c-4.511-21.708-8.999-43.42-13.503-65.13
		c-0.05-0.242-0.185-0.466-0.28-0.699c-0.708-4.362-1.627-8.703-2.08-13.091c-1.043-10.09-0.029-19.85,5.605-28.656
		c1.328-2.076,2.821-4.039,4.819-5.547c0.086,0.607-0.141,1.077-0.526,1.557c-3.64,4.536-5.268,9.812-5.98,15.521
		c-1.038,8.308,0.511,16.356,2.109,24.402c2.813,14.159,5.7,28.303,8.624,42.439c2.414,11.67,4.94,23.317,7.393,34.979
		c2.141,10.182,4.204,20.379,6.418,30.543c0.356,1.635-0.213,1.453-1.222,1.049C222.335,282.975,220.923,282.812,219.754,282.018z"
		/>
	<path fill="#FFFFFF" d="M230.115,123.167c-2.413-1.346-5.137-1.472-7.766-1.887c-6.339-1.002-12.733-1.081-19.125-0.697
		c-1.48,0.089-1.716-0.381-1.202-1.545c0.552-1.25,0.986-2.63,2.482-3.153c-0.05,0.245-0.039,0.528-0.161,0.729
		c-0.923,1.503-0.1,1.583,1.161,1.612c3.661,0.086,7.312-0.152,10.988,0.286c5.371,0.64,10.516,1.942,15.597,4.016
		C231.419,122.938,230.82,123.21,230.115,123.167z"/>
	<path fill="#FFFFFF" d="M249.871,274.572c-1.929-3.36-1.109-7.016-0.992-10.555c0.042-1.236,0.107-2.511,0.227-3.762
		c0.059-0.623,0.383-1.246,0.958-1.255c0.881-0.015,0.536,0.828,0.542,1.301c0.033,2.91-0.008,5.822,0.02,8.734
		c0.027,2.823,1.195,3.853,3.973,4.25c4.426,0.633,8.631-0.074,12.771-1.554c-0.239,0.891-0.64,1.693-1.556,2.026
		C260.584,275.662,255.295,276.49,249.871,274.572z"/>
	<path fill="#FFFFFF" d="M211.764,113.602c0.167-0.88-0.641-0.845-1.075-1.031c-2.655-1.139-5.337-2.215-8.099-3.35
		c1.243-0.594,2.511-0.986,3.847-1.171c1.949,1.911,4.468,3.016,6.617,4.678C212.799,113.281,212.411,113.628,211.764,113.602z"/>
	<path fill="#FFFFFF" d="M207.566,132.31c0.225-0.469,0.61-0.731,1.104-0.851C208.548,132.06,208.155,132.312,207.566,132.31z"/>
	<path fill="#FFFFFF" d="M150.911,191.744c0.451,0.517,0.225,1.129,0.236,1.708C150.795,192.921,150.858,192.332,150.911,191.744z"
		/>
	<path fill="#FFFFFF" d="M204.493,115.894c0.146-0.375,0.463-0.386,0.792-0.371C205.12,115.858,204.84,115.947,204.493,115.894z"/>
	<path fill="#FFFFFF" d="M209.498,130.792c0.115-0.343,0.403-0.432,0.714-0.486C210.111,130.668,209.845,130.789,209.498,130.792z"
		/>
	<path fill="#FFFFFF" d="M268.535,145.377c0.148-0.025,0.3-0.05,0.449-0.074C268.857,145.463,268.713,145.522,268.535,145.377z"/>
	<path fill="#FFFFFF" d="M271.412,145.359c0.182,0.063,0.363,0.126,0.546,0.19C271.775,145.485,271.594,145.422,271.412,145.359z"/>
	<path fill="#FFFFFF" d="M208.642,131.487c0.148-0.119,0.296-0.238,0.444-0.357C208.938,131.249,208.79,131.368,208.642,131.487z"/>
	<path fill="#FFFFFF" d="M209.069,131.143c0.14-0.115,0.281-0.23,0.42-0.345C209.35,130.913,209.209,131.028,209.069,131.143z"/>
	<path fill="#FFFFFF" d="M229.323,167.011c-0.048,1.202-0.646,1.901-1.844,1.935c-1.203,0.034-1.909-0.664-1.945-1.819
		c-0.037-1.17,0.711-1.92,1.844-1.955C228.515,165.138,229.214,165.833,229.323,167.011z"/>
	<path fill="#FFFFFF" d="M276.389,161.377c0.965,0.206,1.666,0.719,1.59,1.766c-0.074,1.009-0.715,1.588-1.769,1.513
		c-0.96-0.068-1.509-0.693-1.504-1.601C274.711,162.035,275.4,161.513,276.389,161.377z"/>
</g>
</svg>
