<?xml version="1.0" encoding="utf-8"?>
<!-- Generator: Adobe Illustrator 16.0.0, SVG Export Plug-In . SVG Version: 6.00 Build 0)  -->
<!DOCTYPE svg PUBLIC "-//W3C//DTD SVG 1.1//EN" "http://www.w3.org/Graphics/SVG/1.1/DTD/svg11.dtd">
<svg version="1.1" id="Layer_1" xmlns="http://www.w3.org/2000/svg" xmlns:xlink="http://www.w3.org/1999/xlink" x="0px" y="0px"
	 width="500px" height="243px" viewBox="0 133.5 500 243" enable-background="new 0 133.5 500 243" xml:space="preserve">
<g>
	<path fill="#FFFFFF" stroke="#FFFFFF" stroke-miterlimit="10" d="M455.91,239.242c-0.781-0.033-1.562-0.096-2.344-0.096
		c-139.949-0.004-279.899-0.004-419.852,0c-0.78,0-1.562,0.062-2.342,0.096c0-32.086,0.01-64.172-0.037-96.258
		c-0.002-1.392,0.18-1.79,1.713-1.789c140.394,0.047,280.787,0.047,421.184,0c1.533-0.001,1.716,0.398,1.712,1.789
		C455.9,175.07,455.91,207.156,455.91,239.242z M139.818,176.892c0,2.425,0.035,4.851-0.005,7.276
		c-0.155,9.116,2.949,17.018,8.842,23.894c5.648,6.592,12.722,11.369,20.06,15.822c0.696,0.423,1.151,0.233,1.73-0.113
		c5.575-3.341,10.96-6.942,15.732-11.39c8.744-8.149,13.574-17.94,13.007-30.159c-0.25-5.409-0.119-10.84,0.009-16.259
		c0.04-1.683-0.594-2.341-2.071-2.831c-6.871-2.282-13.907-3.684-21.125-4.151c-11.644-0.752-23.062,0.35-34.16,4.163
		c-1.467,0.504-2.137,1.149-2.065,2.837C139.925,169.612,139.818,173.254,139.818,176.892z M282.559,188.959
		c-0.662,2.148,0.479,2.907,2.428,3.133c2.201,0.255,4.389,0.524,6.59,0.059c2.841-0.602,4.539-2.398,4.755-5.016
		c0.254-3.087-0.944-4.979-3.933-6.042c-1.403-0.5-2.898-0.76-4.277-1.314c-1.456-0.585-2.152-1.729-1.282-3.243
		c0.779-1.351,2.175-1.486,3.576-1.358c1.188,0.107,2.049,0.544,1.801,1.999c-0.058,0.344,0.091,0.841,0.515,0.768
		c0.946-0.164,2.225,0.734,2.801-0.587c0.647-1.48-0.069-3.886-1.122-4.164c-2.433-0.643-4.894-0.903-7.392-0.346
		c-2.693,0.601-4.201,2.112-4.437,4.5c-0.285,2.893,0.825,4.805,3.546,5.862c1.389,0.541,2.863,0.848,4.262,1.367
		c1.389,0.515,2.379,1.446,1.944,3.084c-0.429,1.625-1.854,2.036-3.216,1.79c-1.204-0.219-3.352,0.69-3.223-1.896
		c0.045-0.868-0.373-1-1.139-1.108C282.703,186.157,281.994,186.959,282.559,188.959z M218.019,172.902
		c-1.717,0-3.141,0.01-4.563-0.005c-0.744-0.007-1.474-0.066-1.396,1.039c0.052,0.749-0.226,1.648,1.082,1.564
		c1.205-0.078,0.868,0.887,0.872,1.514c0.026,3.629,0.009,7.258,0.018,10.886c0.002,0.873,0.131,1.721-1.235,1.665
		c-1.017-0.041-0.672,0.87-0.722,1.442c-0.056,0.633,0.095,1.114,0.9,1.104c1.921-0.021,3.842-0.005,5.763-0.01
		c0.44-0.001,0.92-0.045,0.931-0.61c0.012-0.616,0.294-1.714-0.216-1.769c-2.899-0.306-1.241-2.451-1.598-3.732
		c-0.296-1.059,0.26-1.516,1.395-1.46c1.202,0.058,2.432,0.05,3.618-0.133c3.095-0.481,4.916-2.536,4.985-5.455
		c0.071-3.043-1.507-5.003-4.601-5.77C221.422,172.719,219.566,172.993,218.019,172.902z M249.822,179.373
		c-0.414-0.539-0.06-1.503-0.931-1.53c-1.282-0.039-2.565-0.042-3.847,0.011c-0.727,0.03-0.627,0.66-0.603,1.136
		c0.027,0.518-0.254,1.36,0.587,1.349c1.537-0.021,1.238,0.99,1.239,1.875c0.005,1.996,0.016,3.99-0.003,5.986
		c-0.007,0.59,0.208,1.291-0.841,1.358c-1.151,0.072-0.664,1.054-0.708,1.668c-0.071,0.989,0.695,0.876,1.33,0.878
		c1.425,0.003,2.851,0.001,4.275-0.005c0.557-0.001,1.278,0.125,1.247-0.726c-0.025-0.667,0.526-1.72-0.771-1.818
		c-0.67-0.05-0.852-0.356-0.843-0.931c0.029-1.922-0.042-3.853,0.122-5.765c0.115-1.363,1.09-2.117,2.455-2.249
		c1.379-0.132,2.664,0.163,3.176,1.589c0.785,2.2,0.236,4.513,0.32,6.775c0.02,0.45-0.353,0.527-0.732,0.566
		c-1.309,0.135-0.76,1.161-0.79,1.824c-0.036,0.841,0.685,0.733,1.245,0.736c1.496,0.004,2.994,0,4.49,0.006
		c0.508,0.003,1.082,0.05,1.078-0.667c-0.004-0.607,0.324-1.662-0.279-1.742c-2.033-0.269-1.229-1.726-1.309-2.749
		c-0.137-1.7,0.02-3.431-0.205-5.114c-0.344-2.582-2.209-4.123-4.809-4.311C252.834,177.389,251.221,177.952,249.822,179.373z
		 M278.266,185.527c0-0.214,0-0.428,0-0.642c0-6.917-3.33-8.992-9.449-5.884c-0.228,0.115-0.561,0.433-0.672,0.071
		c-0.838-2.754-3.002-0.646-4.44-1.207c-0.579-0.225-0.831,0.399-0.761,0.963c0.066,0.517-0.286,1.427,0.449,1.442
		c1.93,0.041,1.409,1.377,1.435,2.405c0.043,1.781,0.026,3.563,0.004,5.346c-0.011,0.662,0.229,1.431-0.92,1.547
		c-1.14,0.114-0.521,1.113-0.607,1.71c-0.129,0.857,0.541,0.821,1.125,0.821c1.498-0.001,2.994,0.006,4.49,0.003
		c0.562-0.002,1.276,0.091,1.192-0.77c-0.062-0.65,0.562-1.726-0.786-1.788c-0.66-0.031-0.865-0.317-0.857-0.912
		c0.026-1.853-0.03-3.709,0.084-5.557c0.076-1.25,0.847-2.133,2.097-2.397c1.233-0.261,2.427-0.14,3.306,0.947
		c0.524,0.651,1.007,6.858,0.547,7.54c-0.129,0.189-0.44,0.316-0.687,0.355c-1.314,0.209-0.668,1.215-0.72,1.865
		c-0.069,0.872,0.677,0.712,1.222,0.715c1.498,0.008,2.994-0.001,4.49,0.012c0.631,0.007,1.201-0.082,1.12-0.884
		c-0.063-0.619,0.425-1.626-0.719-1.666c-0.997-0.035-0.949-0.595-0.942-1.257C278.273,187.38,278.266,186.453,278.266,185.527z
		 M321.26,185.418c0-0.57,0.004-1.141-0.002-1.711c-0.029-4.291-1.789-6.073-6.089-6.193c-1.224-0.035-2.391,0.25-3.583,0.475
		c-2.011,0.381-2.41,1.607-2.188,3.389c0.083,0.668,0.207,1.18,0.967,1.005c0.719-0.166,1.973,0.63,2.062-0.7
		c0.089-1.333,0.812-1.485,1.797-1.546c1.232-0.076,2.483-0.124,3.264,1.079c0.932,1.433,0.35,2.465-1.355,2.552
		c-1.775,0.092-3.569,0.12-5.202,0.987c-1.622,0.863-2.39,2.235-2.188,4.043c0.204,1.828,1.298,2.958,3.079,3.397
		c1.981,0.488,3.807,0.17,5.454-1.089c0.237-0.183,0.714-0.965,0.872-0.245c0.53,2.413,2.327,0.811,3.47,1.209
		c0.528,0.186,1.239,0.07,1.152-0.773c-0.065-0.61,0.498-1.591-0.614-1.73c-0.979-0.122-0.885-0.735-0.892-1.371
		C321.256,187.272,321.26,186.345,321.26,185.418z M237.688,185.714c1.279,0,2.56-0.032,3.838,0.012
		c0.853,0.029,1.266-0.133,1.245-1.159c-0.071-3.591-2.436-6.572-5.671-6.987c-4.008-0.514-7.085,1.395-8.046,4.99
		c-1.072,4.009,0.483,7.866,3.789,9.173c2.616,1.036,5.284,0.758,7.962,0.136c1.398-0.325,1.063-1.38,0.973-2.199
		c-0.15-1.366-1.093-0.413-1.586-0.314c-1.201,0.241-2.396,0.335-3.601,0.225c-1.419-0.13-2.582-0.759-3.327-2.017
		c-0.684-1.158-0.807-2.003,1.013-1.875C235.409,185.78,236.55,185.714,237.688,185.714z M342.601,185.723c0-0.003,0-0.006,0-0.008
		c1.214,0,2.429-0.059,3.638,0.017c1.088,0.069,1.494-0.221,1.411-1.417c-0.263-3.831-2.649-6.537-6.134-6.772
		c-4.081-0.277-6.896,1.765-7.648,5.549c-0.832,4.192,0.892,7.73,4.42,8.852c2.444,0.777,4.914,0.522,7.387-0.05
		c1.541-0.356,1.134-1.528,0.983-2.374c-0.195-1.113-1.053-0.261-1.521-0.164c-1.204,0.252-2.398,0.349-3.609,0.24
		c-1.427-0.129-2.601-0.75-3.341-2.011c-0.659-1.118-0.881-2.023,0.996-1.878C340.314,185.795,341.46,185.723,342.601,185.723z
		 M299.818,185.139c0,0.641-0.002,1.281,0,1.921c0.018,4.293,2.162,5.974,6.409,5.21c1.188-0.213,1.24-0.798,1.269-1.739
		c0.035-1.242-0.757-0.927-1.42-0.889c-1.825,0.104-2.602-0.804-2.57-2.569c0.023-1.422,0.117-2.857-0.031-4.264
		c-0.203-1.884,0.34-2.702,2.371-2.458c1.312,0.158,2.092-1.102,1.44-2.113c-0.531-0.826-1.435-0.393-2.15-0.398
		c-1.042-0.009-1.876-0.049-1.632-1.434c0.251-1.436-0.402-1.771-1.771-1.769c-1.402,0.003-2.18,0.259-1.93,1.847
		c0.124,0.789-0.016,1.422-1.072,1.343c-0.854-0.064-0.842,0.573-0.815,1.157c0.024,0.597-0.229,1.417,0.81,1.378
		c1.243-0.046,1.094,0.795,1.092,1.577C299.811,183.005,299.814,184.073,299.818,185.139z M330.162,192.421
		c0.156-0.019,0.51-0.056,0.862-0.101c0.976-0.125,1.957-0.046,1.938-1.601c-0.02-1.75-1.191-1.011-1.929-1.062
		c-1.557-0.107-2.105-1.035-2.143-2.4c-0.046-1.637,0.105-3.289-0.053-4.913c-0.164-1.663,0.455-2.132,2.023-1.986
		c0.759,0.072,1.873,0.553,1.926-1.12c0.052-1.639-0.896-1.482-1.891-1.419c-1.247,0.08-2.353,0.07-2.038-1.701
		c0.283-1.611-0.822-1.403-1.837-1.457c-1.17-0.062-1.975,0.086-1.748,1.56c0.141,0.926,0.04,1.73-1.262,1.616
		c-0.703-0.061-0.791,0.482-0.73,1.013c0.058,0.518-0.282,1.442,0.45,1.436c2.063-0.017,1.514,1.409,1.542,2.5
		c0.044,1.709,0,3.42,0.019,5.129C325.328,190.958,326.867,192.434,330.162,192.421z"/>
	<path fill="#FFFFFF" stroke="#FFFFFF" stroke-miterlimit="10" d="M81.417,293.078c-0.003-13.117,0.026-26.236-0.04-39.354
		c-0.009-1.636,0.355-2.132,2.074-2.125c19.321,0.067,38.642,0.063,57.963,0.006c1.587-0.004,2.08,0.354,2.025,1.99
		c-0.128,3.774-0.125,7.559-0.002,11.334c0.055,1.668-0.379,2.137-2.104,2.127c-13.19-0.078-26.379,0-39.568-0.089
		c-1.852-0.014-2.22,0.533-2.173,2.257c0.124,4.487,0.139,8.985-0.008,13.473c-0.059,1.791,0.567,2.084,2.17,2.078
		c11.906-0.062,23.812,0.016,35.718-0.088c1.947-0.019,2.384,0.53,2.298,2.369c-0.156,3.344-0.12,6.702-0.011,10.049
		c0.049,1.496-0.383,1.893-1.888,1.885c-11.977-0.062-23.955,0.014-35.933-0.076c-1.891-0.014-2.403,0.463-2.354,2.355
		c0.138,5.342,0.107,10.692,0.014,16.041c-0.026,1.551,0.313,2.022,1.972,2.014c13.545-0.078,27.092-0.016,40.638-0.082
		c1.641-0.008,2.198,0.34,2.134,2.082c-0.146,3.918-0.089,7.842-0.022,11.762c0.021,1.186-0.281,1.59-1.532,1.588
		c-19.963-0.037-39.925-0.045-59.888,0.014c-1.565,0.002-1.494-0.743-1.492-1.825C81.427,319.602,81.421,306.338,81.417,293.078z"/>
	<path fill="#FFFFFF" stroke="#FFFFFF" stroke-miterlimit="10" d="M186.732,281.357c0-9.127,0.045-18.256-0.04-27.383
		c-0.016-1.761,0.234-2.482,2.264-2.39c4.199,0.194,8.415,0.115,12.621,0.021c1.332-0.028,1.667,0.361,1.665,1.658
		c-0.035,26.604-0.033,53.207-0.009,79.812c0.001,1.149-0.246,1.622-1.524,1.6c-4.207-0.077-8.416-0.069-12.623-0.002
		c-1.208,0.021-1.614-0.338-1.553-1.557c0.096-1.9,0.025-3.808,0.025-5.734c-0.261,0.047-0.455,0.024-0.497,0.099
		c-6.789,11.521-27.836,12.018-37.548-0.17c-9.575-12.019-9.808-33.377-0.256-45.396c7.099-8.934,20.653-11.717,30.58-6.275
		C182.479,277.088,184.662,279.066,186.732,281.357z M187.265,304.549c0.035-4.096-0.44-8.102-2.245-11.844
		c-2.162-4.486-5.696-6.984-10.706-7.283c-5.3-0.318-9.951,1.207-12.495,6.074c-4.565,8.738-4.509,17.684,0.429,26.287
		c2.607,4.541,6.933,6.334,12.141,5.965c5.487-0.389,9.078-3.307,11.091-8.318C186.883,311.938,187.291,308.277,187.265,304.549z"/>
	<path fill="#FFFFFF" stroke="#FFFFFF" stroke-miterlimit="10" d="M364.834,303.93c2.454-3.129,4.555-6.521,7.221-9.492
		c4.419-4.922,9.372-9.162,15.324-12.137c2.192-1.096,4.492-1.744,6.991-1.674c4.666,0.127,6.788,2.195,6.697,6.916
		c-0.074,3.877-1.325,7.561-2.321,11.262c-2.054,7.631-4.244,15.225-6.346,22.842c-0.396,1.438-0.72,2.906-0.929,4.381
		c-0.178,1.246,0.076,2.5,1.304,3.146c1.111,0.582,2.076-0.11,2.907-0.782c2.643-2.144,4.492-4.939,6.323-7.755
		c0.301-0.459,0.546-1.403,1.389-0.653c0.573,0.508,1.522,0.899,0.744,2.047c-2.646,3.895-5.216,7.846-9.018,10.766
		c-1.828,1.406-3.814,2.449-6.141,2.838c-4.815,0.803-8.169-2.375-7.319-7.211c1.106-6.32,3.187-12.404,4.778-18.609
		c1.555-6.063,3.474-12.039,4.55-18.225c0.608-3.498-1.463-5.305-4.886-4.217c-2.779,0.885-5.026,2.654-7.15,4.572
		c-9.57,8.635-15.684,19.44-19.711,31.543c-1.056,3.174-2.106,6.354-3.013,9.576c-0.358,1.278-0.955,1.684-2.232,1.623
		c-1.99-0.097-3.994-0.111-5.984,0c-1.679,0.096-2.2-0.193-1.662-2.07c4.134-14.441,8.204-28.9,12.183-43.385
		c2.431-8.854,5.199-17.617,7.24-26.576c0.016-0.068,0.045-0.135,0.059-0.205c0.896-4.484,0.331-5.291-4.146-5.891
		c-0.563-0.076-1.136-0.101-1.702-0.134c-0.571-0.032-1.204,0.037-1.136-0.85c0.056-0.724,0.321-1.229,1.146-1.257
		c5.443-0.18,10.712-1.395,15.985-2.633c1.989-0.469,2.583,0.314,1.992,2.67c-1.14,4.558-2.426,9.076-3.662,13.607
		c-3.126,11.473-6.26,22.941-9.379,34.412c-0.127,0.475-0.136,0.979-0.197,1.469c-0.096,0.162-0.195,0.318-0.275,0.484
		c-0.009,0.018,0.092,0.09,0.144,0.137C364.678,304.285,364.757,304.105,364.834,303.93z"/>
	<path fill="#FFFFFF" stroke="#FFFFFF" stroke-miterlimit="10" d="M247.99,254.359c10.553-0.002,21.107,0.033,31.66-0.037
		c1.729-0.01,2.156,0.311,1.771,2.135c-1.144,5.434-2.062,10.912-3.032,16.383c-0.15,0.854-0.281,1.539-1.396,1.406
		c-1.14-0.135-0.771-0.992-0.827-1.633c-0.141-1.562-0.193-3.129-0.386-4.68c-0.716-5.818-3.492-8.644-9.318-9.361
		c-3.049-0.375-6.123-0.252-9.188-0.111c-2.623,0.119-3.607,1.893-4.219,4.107c-2.117,7.688-4.265,15.367-6.395,23.051
		c-3.497,12.625-6.977,25.256-10.49,37.877c-1.733,6.23-0.769,7.836,5.552,8.803c1.542,0.234,3.123,0.203,4.687,0.299
		c0.481,0.029,1.099-0.063,1.088,0.67c-0.01,0.662-0.191,1.301-1.034,1.367c-0.427,0.031-0.855,0.021-1.283,0.021
		c-10.696,0-21.391,0.016-32.087-0.037c-0.648-0.004-1.908,0.701-1.947-0.789c-0.035-1.346,1.058-1.277,1.997-1.299
		c0.285-0.008,0.57-0.016,0.854-0.035c6.466-0.4,8.321-1.811,10.081-8.1c5.717-20.433,11.385-40.881,17.047-61.328
		c0.998-3.604,0.32-4.521-3.473-4.646c-3.416-0.11-6.822-0.047-10.239,0.382c-7.399,0.93-12.205,5.02-15.001,11.746
		c-0.382,0.922-0.724,1.858-1.102,2.78c-0.279,0.687-0.879,0.662-1.448,0.551c-0.763-0.147-0.524-0.771-0.411-1.198
		c1.531-5.781,3.106-11.549,4.629-17.332c0.359-1.359,1.398-0.979,2.249-0.98C226.884,254.354,237.437,254.359,247.99,254.359z"/>
	<path fill="#FFFFFF" stroke="#FFFFFF" stroke-miterlimit="10" d="M256.018,317.375c0.121-16.404,13.961-33.24,30.072-36.422
		c2.676-0.529,5.41-0.525,8.088-0.033c5.653,1.041,8.203,4.996,6.989,10.629c-1.237,5.736-5.296,9.131-10.034,11.852
		c-6.826,3.918-14.312,5.949-22.021,7.173c-1.413,0.223-1.883,0.752-2.09,2.079c-0.463,2.984-0.565,5.986-0.166,8.949
		c0.901,6.703,6.229,10.08,13.381,8.658c4.851-0.963,8.748-3.678,12.445-6.756c0.603-0.504,1.199-1.016,1.762-1.559
		c0.621-0.601,1.117-0.668,1.787,0.014c0.681,0.693,0.537,1.178-0.039,1.797c-6.151,6.633-13.303,11.391-22.621,12.062
		c-9.098,0.656-15.936-4.953-17.081-13.988C256.3,320.35,256.173,318.861,256.018,317.375z M292.047,289.543
		c0.069-4.885-1.816-6.475-5.631-5.91c-2.352,0.346-4.316,1.438-6.057,2.953c-6.033,5.264-9.748,11.965-12.061,19.547
		c-0.451,1.48-0.04,1.779,1.342,1.508c5.226-1.027,10.186-2.736,14.536-5.883C288.697,298.488,291.859,294.361,292.047,289.543z"/>
	<path fill="#FFFFFF" stroke="#FFFFFF" stroke-miterlimit="10" d="M338.073,280.592c3.733,0.016,7.274,0.57,10.054,3.379
		c1.887,1.908,2.518,4.275,2.183,6.871c-0.315,2.465-2.051,4.121-4.474,4.486c-2.653,0.398-4.452-0.398-5.414-2.398
		c-1.014-2.104-0.527-4.352,1.338-6.209c1.495-1.49,1.385-2.076-0.686-2.65c-4.749-1.319-9.242-0.411-12.84,2.773
		c-10.234,9.061-14.576,20.607-12.703,34.107c1.063,7.668,6.612,10.873,14.235,9.258c5.417-1.146,9.52-4.379,13.234-8.211
		c0.908-0.939,1.517-1.078,2.376-0.057c0.375,0.444,0.54,0.748,0.135,1.266c-6.511,8.297-17.044,14.588-28.347,12.043
		c-6.825-1.535-11.014-6.611-12.312-13.98c-3.287-18.625,12.468-37.77,29.596-40.414
		C335.643,280.67,336.865,280.676,338.073,280.592z"/>
	<path fill="#FFFFFF" stroke="#FFFFFF" stroke-miterlimit="10" d="M218.295,349.861c-1.477,5.551-2.793,10.461-4.085,15.375
		c-0.466,1.768,0.882,2.113,2.094,2.719c-2.107,0-4.215,0-6.96,0c2.667-0.9,3.108-2.818,3.639-4.693
		c1.223-4.311,2.472-8.613,3.697-12.924c0.803-2.82,0.667-3.092-2.024-4.615c1.567,0,3.135-0.027,4.7,0.012
		c0.965,0.021,0.953,0.945,1.207,1.543c1.859,4.39,3.673,8.798,5.523,13.187c0.232,0.554,0.264,1.242,1.082,1.72
		c1.23-4.584,2.459-9.068,3.625-13.57c0.419-1.617-0.653-2.252-1.992-2.764c2.11,0,4.219,0,6.329,0
		c-2.114,0.879-2.57,2.786-3.105,4.688c-1.519,5.407-3.079,10.805-4.644,16.2c-0.185,0.642-0.166,1.404-1.107,2.035
		C223.671,362.604,221.107,356.525,218.295,349.861z"/>
	<path fill="#FFFFFF" stroke="#FFFFFF" stroke-miterlimit="10" d="M395.357,359.777c1.432-1.172,2.92-2.279,4.276-3.531
		c1.574-1.451,1.492-1.707-0.576-2.734c2.106,0,4.041,0,5.977,0c-2.469,1.207-4.337,3.121-6.397,4.789
		c-0.894,0.727-0.978,1.373-0.492,2.344c0.729,1.463,1.289,3.01,2.031,4.463c1.057,2.07,1.548,2.082,2.89,0.224
		c0.196-0.274,0.279-0.677,0.732-0.679c-0.214,1.412-1.106,2.877-2.145,3.476c-1.3,0.75-2.395,0.406-3.077-0.834
		c-0.893-1.614-1.624-3.317-2.443-4.976c-0.206-0.411-0.189-1.147-0.813-1.073c-0.543,0.063-1.028,0.508-1.202,1.103
		c-0.382,1.297-0.88,2.581-1.055,3.905c-0.272,2.026-1.397,2.146-3.093,1.668c1.661-6.317,3.303-12.567,4.949-18.817
		c0.412-1.57,1.229-3.336-1.715-3.451c1.539-0.291,3.067-0.683,4.619-0.844c1.303-0.134,0.582,0.807,0.463,1.276
		c-0.941,3.724-1.925,7.437-2.886,11.156c-0.178,0.686-0.302,1.385-0.448,2.077c-0.171,0.203-0.275,0.439-0.056,0.644
		C394.95,360.01,395.199,359.846,395.357,359.777z"/>
	<path fill="#FFFFFF" stroke="#FFFFFF" stroke-miterlimit="10" d="M309.565,356.967c-2.45,4.277-4.604,8.039-6.759,11.801
		c-0.197-0.063-0.396-0.131-0.597-0.194c-0.265-3.302-0.448-6.609-0.828-9.896c-0.204-1.76,0.052-3.793-1.993-4.858
		c0.168-0.142,0.241-0.258,0.334-0.273c3.414-0.643,3.446-0.645,3.967,2.836c0.326,2.182,0.541,4.381,0.869,7.129
		c2.36-3.725,4.511-7.115,6.657-10.504c0.161,0.057,0.321,0.111,0.484,0.168c0.373,3.93,0.748,7.857,1.156,12.127
		c1.872-2.016,3.313-3.918,4.562-5.967c0.874-1.438,1.702-2.867-0.061-4.342c-0.631-0.527-0.551-1.377,0.218-1.799
		c0.73-0.4,1.557-0.31,2.121,0.414c0.582,0.737,0.541,1.584,0.228,2.434c-1.739,4.721-4.993,8.432-8.203,12.15
		c-0.947,1.096-1.091-0.047-1.157-0.711c-0.224-2.197-0.388-4.402-0.588-6.604C309.875,359.771,309.746,358.668,309.565,356.967z"/>
	<path fill="#FFFFFF" stroke="#FFFFFF" stroke-miterlimit="10" d="M339.461,368.512c-2.896-0.033-4.692-1.531-5.018-4.186
		c-0.646-5.225,4.905-11.412,10.175-11.342c2.941,0.041,4.657,1.604,4.931,4.5C350.022,362.496,344.466,368.568,339.461,368.512z
		 M337.368,363.703c-0.069,1.881,0.162,3.18,1.521,3.771c1.358,0.594,2.682,0.209,3.737-0.802c2.487-2.377,3.524-5.446,3.976-8.748
		c0.207-1.52,0.198-3.161-1.395-3.926c-1.654-0.791-3.046,0.153-4.151,1.356C338.758,357.857,337.672,360.893,337.368,363.703z"/>
	<path fill="#FFFFFF" stroke="#FFFFFF" stroke-miterlimit="10" d="M258.393,364.352c-1.678,2.908-5.428,4.662-8.104,4.049
		c-2.188-0.5-3.514-2.448-3.417-5.018c0.169-4.387,4.664-9.584,8.976-10.281c1.401-0.227,3.004-0.461,3.812,1.104
		c0.791,1.535,0.043,2.924-1.02,4.071c-1.775,1.918-4.135,2.785-6.623,3.164c-1.451,0.22-2.162,0.695-2.095,2.246
		c0.069,1.623,0.657,2.767,2.325,3.109c1.938,0.4,3.445-0.533,4.879-1.66C257.426,364.902,257.773,364.73,258.393,364.352z
		 M250.529,360.988c3.07-0.861,5.572-1.771,6.804-4.541c0.349-0.783,0.685-1.715-0.144-2.354c-0.781-0.6-1.664-0.217-2.367,0.302
		C252.695,355.961,251.458,358.133,250.529,360.988z"/>
	<path fill="#FFFFFF" stroke="#FFFFFF" stroke-miterlimit="10" d="M365.939,354.207c0.34-0.23,0.44-0.352,0.562-0.375
		c1.396-0.26,3.032-1.078,4.135-0.617c1.455,0.609-0.57,2.293,0.22,3.566c0.966-0.057,1.182-1.031,1.716-1.594
		c0.837-0.879,1.609-1.834,2.854-2.131c0.846-0.203,1.582,0.036,1.96,0.881c0.349,0.783,0.257,1.596-0.41,2.146
		c-0.662,0.549-1.48,0.644-2.076-0.127c-1.175-1.517-1.724-0.119-2.215,0.539c-2.251,3.002-3.563,6.448-4.613,10.022
		c-0.193,0.656-0.131,1.615-1.316,1.623c-1.139,0.004-1.938,0.041-1.445-1.563c0.98-3.191,1.832-6.427,2.662-9.662
		C368.526,354.752,368.343,354.555,365.939,354.207z M370.485,357.334c-0.127,0.174-0.301,0.316-0.351,0.496
		c-0.084,0.289,0.174,0.346,0.338,0.244c0.146-0.092,0.226-0.314,0.292-0.494C370.779,357.543,370.609,357.438,370.485,357.334z"/>
	<path fill="#FFFFFF" stroke="#FFFFFF" stroke-miterlimit="10" d="M280.533,365.998c-0.246,0.707-0.809,1.162-1.346,1.617
		c-0.922,0.779-2.004,1.268-3.14,0.641c-1.289-0.711-0.625-1.859-0.364-2.855c0.696-2.688,1.373-5.377,2.141-8.041
		c0.473-1.646,1.102-3.26-1.992-3.172c2.691-1.061,4.443-2.965,6.238-4.883c0.574,0.809,0.121,1.412-0.027,1.959
		c-0.342,1.25-0.873,2.461,1.299,2.172c0.338-0.045,0.768,0.019,0.74,0.515c-0.023,0.43-0.385,0.623-0.754,0.547
		c-2.253-0.459-2.502,1.119-2.885,2.694c-0.603,2.488-1.324,4.945-1.951,7.431c-0.163,0.649-0.703,1.537-0.027,1.969
		c0.754,0.482,1.11-0.643,1.721-0.922C280.301,365.779,280.416,365.887,280.533,365.998z"/>
	<path fill="#FFFFFF" stroke="#FFFFFF" stroke-miterlimit="10" d="M280.798,364.992c0.071-0.381,0.444-0.818,0.646-0.66
		c0.512,0.402-0.123,0.652-0.315,0.959C281.018,365.189,280.908,365.092,280.798,364.992z"/>
	<path fill="#FFFFFF" stroke="#FFFFFF" stroke-miterlimit="10" d="M280.186,365.668c0.205-0.225,0.408-0.449,0.612-0.676
		c0.11,0.1,0.22,0.197,0.329,0.299c-0.199,0.234-0.395,0.471-0.594,0.707C280.416,365.887,280.301,365.779,280.186,365.668z"/>
	<path fill="#FFFFFF" stroke="#FFFFFF" stroke-miterlimit="10" d="M139.818,176.892c0-3.637,0.107-7.279-0.048-10.911
		c-0.072-1.688,0.598-2.333,2.065-2.837c11.098-3.813,22.516-4.915,34.16-4.163c7.219,0.467,14.255,1.869,21.125,4.151
		c1.478,0.49,2.111,1.148,2.071,2.831c-0.128,5.419-0.259,10.851-0.009,16.259c0.567,12.219-4.263,22.01-13.007,30.159
		c-4.772,4.447-10.157,8.049-15.732,11.39c-0.579,0.347-1.034,0.536-1.73,0.113c-7.337-4.453-14.411-9.229-20.06-15.822
		c-5.894-6.876-8.997-14.778-8.842-23.894C139.853,181.743,139.818,179.317,139.818,176.892z M176.801,192.039
		c-0.335-3.594-2.058-6.645-3.793-9.689c-1.189-2.357-2.54-3.065-5.125-2.686c-2.04,0.299-4.236,2.256-4.543,4.013
		c-0.067,0.381,0.013,0.966,0.227,0.927c1.73-0.329,3.061,1.524,4.974,0.973c-0.724-0.914-2.391-1.052-1.832-2.437
		c0.509-1.258,1.762-1.632,3.056-1.295c1.132,0.294,1.932,0.944,1.437,2.325c-0.074,0.208-0.465,0.521-0.012,0.623
		c0.275,0.062,0.628-0.217,0.944-0.343c1.406,2.735,2.374,5.636,3.242,8.574c-0.244,0.529-0.032,0.83,0.505,0.847
		c2.004,0.064,3.427,0.646,2.873,3.36c1.186-1.566,2.166-2.945,3.984-3.646c0.851-0.327,0.125-1.53-0.887-1.698
		C180.168,191.609,178.472,191.595,176.801,192.039z M184.046,192.661c0.896,2.682,0.683,5.114-1.374,7.281
		c-1.227,1.292-2.227,0.828-3.262-0.122c-0.467-0.427-0.354-1.248-0.993-1.586c-2.503,2.434-5.474,3.225-8.87,2.525
		c0.075-1.196-0.052-2.385,0.34-3.582c1.339-4.086-0.486-7.123-4.613-7.804c-0.559-0.092-1.135-0.075-1.698-0.149
		c-3.212-0.419-6.513-0.701-7.209-4.873c-0.085-0.509-0.153-1.358-0.888-1.214c-0.745,0.146-0.642,0.987-0.649,1.612
		c-0.004,0.28,0.064,0.562,0.116,0.841c0.623,3.357,0.354,6.459-2.17,9.113c-2.255,2.371-1.267,5.067-0.479,7.694
		c-0.038,0.289-0.074,0.579-0.111,0.868c0.007,0.301,0.013,0.601,0.019,0.902c0.037,0.416,0.072,0.832,0.109,1.248
		c-0.198,0.319-0.174,0.623,0.073,0.906c0.129,2.231,1.466,3.781,2.982,5.205c3.996,3.755,8.582,6.699,13.213,9.578
		c0.32,0.198,0.622,0.33,0.964,0.069c3.374-1.618,7.105-2.95,5.985-7.974c-0.119-0.537-0.181-1.385,0.864-1.333
		c1.275,3.495,2.307,3.81,5.086,1.558c1.996-1.618,3.887-3.349,5.642-5.224c5.63-6.016,9.347-12.959,9.666-21.32
		c0.241-6.334,0.021-12.684,0.151-19.024c0.036-1.77-0.439-2.578-2.208-3.133c-9.562-3.007-19.353-4.102-29.318-3.667
		c-7.426,0.324-14.729,1.492-21.793,3.914c-0.822,0.282-1.544,0.452-1.529,1.649c0.096,7.196-0.044,14.399,0.211,21.589
		c0.149,4.168,1.463,8.125,3.754,11.962c1.141-2.895,2.866-5.341,2.009-8.367c-0.669-2.363-0.1-4.488,0.978-6.579
		c0.982-1.903,2.348-3.594,3.277-5.489c0.605-1.235,2.406-0.894,2.418-1.983c0.014-1.389-0.305-2.815-0.283-4.24
		c0.032-2.201,1.33-3.671,3.167-4.411c1.718-0.693,2.474,1.073,3.318,2.105c0.84,1.024,1.64,1.437,3.03,1.412
		c4.064-0.072,8.121,0.206,12.002,1.608c0.48,0.174,0.629,0.349,0.987-0.37c0.649-1.309,4.236-2.459,5.271-1.978
		c1.264,0.588,1.977,3.266,1.386,5.229c-0.062,0.205-0.126,0.423-0.252,0.587c-0.802,1.053-0.453,1.847,0.341,2.79
		c1.079,1.282,0.976,1.615-0.079,2.983c-0.725-2.703-1.738-3.691-3.503-3.317c-1.242,0.263-2.329,1.054-1.825,2.346
		c0.514,1.317,0.675,3.397,3.388,3.183c-0.595-0.432-0.947-0.583-1.142-0.85c-0.476-0.656-1.301-1.303-0.809-2.205
		c0.303-0.556,1.03-0.701,1.72-0.487c0.986,0.304,1.352,0.979,1.185,1.961c-0.06,0.348-0.242,0.725,0.252,0.87
		c1.298,0.378,1.31,1.552,1.617,2.547c-2.827,1.444-2.83,1.446-1.19,4.108C183.542,191.982,183.803,192.316,184.046,192.661z
		 M157.364,170.403c-0.343,0.516-0.567,0.876-0.813,1.219c-1.11,1.55-0.613,5.978,0.787,7.25c0.471,0.428,0.86,0.384,1.301,0.009
		c0.703-0.597,1.415-1.183,2.116-1.784c0.689-0.59,0.287-1.16-0.085-1.683C159.585,173.895,159.084,171.973,157.364,170.403z
		 M182.846,175.373c-0.016-0.847-0.141-1.949-0.811-1.772c-1.23,0.325-2.125,1.547-2.371,2.714c-0.169,0.8,1.274,1.718,1.828,1.62
		C182.769,177.706,182.583,176.253,182.846,175.373z"/>
	<path fill="#FFFFFF" stroke="#FFFFFF" stroke-miterlimit="10" d="M364.834,303.93c-0.077,0.176-0.156,0.355-0.233,0.535
		c-0.052-0.047-0.151-0.119-0.144-0.137c0.08-0.166,0.181-0.322,0.275-0.484L364.834,303.93z"/>
	<path fill="#FFFFFF" stroke="#FFFFFF" stroke-miterlimit="10" d="M395.357,359.777c-0.158,0.068-0.407,0.231-0.461,0.184
		c-0.221-0.203-0.115-0.439,0.056-0.643C395.088,359.471,395.224,359.625,395.357,359.777z"/>
	<path fill="#FFFFFF" stroke="#FFFFFF" stroke-miterlimit="10" d="M370.485,357.334c0.124,0.104,0.294,0.209,0.279,0.246
		c-0.066,0.18-0.146,0.402-0.292,0.494c-0.164,0.102-0.422,0.045-0.338-0.244C370.186,357.65,370.358,357.508,370.485,357.334z"/>
	<path fill="#FFFFFF" stroke="#FFFFFF" stroke-miterlimit="10" d="M169.548,200.759c-3.097-1.129-3.524-3.817-3.643-6.644
		c-0.641,0.207-0.562,0.617-0.585,0.922c-0.156,1.983-1.21,2.345-2.91,1.7c-2.339-0.886-5.154-1.105-5.811-4.567
		c0.252,4.346-3.239,6.763-4.303,10.228c-0.788-2.627-1.776-5.324,0.479-7.694c2.524-2.654,2.793-5.755,2.17-9.113
		c-0.052-0.279-0.121-0.562-0.116-0.841c0.008-0.625-0.095-1.467,0.649-1.612c0.735-0.145,0.803,0.705,0.888,1.214
		c0.696,4.172,3.997,4.454,7.209,4.873c0.563,0.074,1.139,0.057,1.698,0.149c4.127,0.681,5.952,3.718,4.613,7.804
		C169.496,198.375,169.623,199.563,169.548,200.759z"/>
	<path fill="#FFFFFF" stroke="#FFFFFF" stroke-miterlimit="10" d="M169.548,221.175c-0.986-4.971,2.277-7.859,5.466-10.602
		c1.476-1.271,0.927,0.82,1.383,1.295c-1.045-0.052-0.983,0.796-0.864,1.333C176.653,218.225,172.921,219.557,169.548,221.175z"/>
	<path fill="#FFFFFF" stroke="#FFFFFF" stroke-miterlimit="10" d="M184.511,187.516c1.103,1.829,0.016,3.46-0.465,5.145
		c-0.243-0.345-0.504-0.679-0.726-1.037C181.681,188.962,181.684,188.96,184.511,187.516z"/>
	<path fill="#FFFFFF" stroke="#FFFFFF" stroke-miterlimit="10" d="M152.187,203.267c0.323,0.294,0.319,0.596,0.019,0.902
		C152.2,203.868,152.194,203.567,152.187,203.267z"/>
	<path fill="#FFFFFF" stroke="#FFFFFF" stroke-miterlimit="10" d="M152.315,205.417c0.209,0.287,0.209,0.592,0.073,0.907
		C152.141,206.039,152.117,205.736,152.315,205.417z"/>
	<path fill="#FFFFFF" stroke="#FFFFFF" stroke-miterlimit="10" d="M217.826,178.444c0.465-0.954-1.219-3.188,1.825-2.995
		c2.871,0.183,4.285,1.11,4.274,3.312c-0.011,2.198-1.398,3.239-4.301,3.229C217.826,181.982,217.826,181.982,217.826,178.444z"/>
	<path fill="#FFFFFF" stroke="#FFFFFF" stroke-miterlimit="10" d="M316.072,185.873c0.654,0.23,1.749-0.497,1.672,0.973
		c-0.078,1.526-1.492,2.971-3.084,2.976c-1.16,0.002-2.283-0.385-2.23-1.729C312.525,185.627,314.675,186.3,316.072,185.873z"/>
	<path fill="#FFFFFF" stroke="#FFFFFF" stroke-miterlimit="10" d="M235.662,183.26c-0.285-0.001-0.579,0.043-0.854-0.01
		c-0.655-0.126-1.636,0.442-1.914-0.359c-0.32-0.924,0.305-1.776,1.065-2.376c1.071-0.847,2.264-0.829,3.41-0.223
		c0.951,0.502,1.58,1.467,1.366,2.461c-0.216,1-1.319,0.332-2.009,0.494C236.388,183.326,236.018,183.261,235.662,183.26z"/>
	<path fill="#FFFFFF" stroke="#FFFFFF" stroke-miterlimit="10" d="M340.675,183.26c-0.354,0.001-0.724,0.062-1.062-0.013
		c-0.63-0.139-1.595,0.497-1.846-0.44c-0.229-0.857,0.328-1.664,1.018-2.216c0.96-0.77,2.046-0.92,3.206-0.434
		c1.119,0.468,1.806,1.426,1.656,2.491c-0.17,1.216-1.396,0.375-2.121,0.599C341.266,183.328,340.96,183.26,340.675,183.26z"/>
	<path fill="#FFFFFF" stroke="#FFFFFF" stroke-miterlimit="10" d="M175.003,204.596c-1.201-0.146-3.483,0.371-3.621-1.26
		c-0.146-1.725,2.224-1.418,3.562-1.754c1.366-0.343,2.791-0.564,4.219-0.17c1.469,0.406,1.476,1.143,0.494,2.092
		C178.4,204.721,176.79,204.576,175.003,204.596z"/>
</g>
</svg>
