<?xml version="1.0" encoding="utf-8"?>
<!-- Generator: Adobe Illustrator 16.0.0, SVG Export Plug-In . SVG Version: 6.00 Build 0)  -->
<!DOCTYPE svg PUBLIC "-//W3C//DTD SVG 1.1//EN" "http://www.w3.org/Graphics/SVG/1.1/DTD/svg11.dtd">
<svg version="1.1" id="Layer_1" xmlns="http://www.w3.org/2000/svg" xmlns:xlink="http://www.w3.org/1999/xlink" x="0px" y="0px"
	 width="500px" height="200px" viewBox="0 162.5 500 200" enable-background="new 0 162.5 500 200" xml:space="preserve">
<g>
	<path fill="#FFFFFF" d="M142.321,171.729c0.021,0.966,0.059,1.932,0.059,2.897c0.002,54.191,0.007,108.381-0.023,162.572
		c0,1.266,0.669,2.95-0.725,3.706c-1.393,0.757-2.429-0.733-3.504-1.411c-4.34-2.731-8.604-5.582-12.947-8.312
		c-1.412-0.887-2.029-1.983-2.019-3.656c0.048-7.653,0.043-15.312,0.003-22.971c-0.009-1.559,0.524-2.652,1.818-3.557
		c2.313-1.619,4.538-3.363,6.788-5.07c2.483-1.883,2.49-3.221-0.147-4.916c-9.938-6.395-19.909-12.738-29.871-19.094
		c-3.696-2.361-7.381-4.74-11.116-7.035c-1.287-0.793-1.829-1.787-1.82-3.285c0.042-6.393,0.026-12.786,0.011-19.177
		c-0.004-1.168,0.308-2.15,1.104-3.049c2.166-2.447,4.327-4.903,6.381-7.443c1.804-2.23,1.687-2.814-0.633-4.414
		c-1.433-0.987-2.768-2.042-3.399-3.722c-1.751-4.662-4.975-7.977-9.252-10.408c-1.415-0.803-2.744-1.787-4.015-2.812
		c-1.657-1.336-3.365-2.024-5.537-1.393c-1.757,0.51-2.545-0.194-2.52-2.144c0.083-6.615,0.037-13.231,0.029-19.847
		c-0.001-1.058,0.193-2.059,0.59-3.04c0.274-0.68,0.174-1.325-0.509-1.756c-0.481-0.304-0.983-0.322-1.468-0.007
		c-0.64,0.416-0.776,0.991-0.648,1.738c1.353,7.895,0.295,15.851,0.574,23.775c0.044,1.251-0.691,1.896-1.879,2.079
		c-1.248,0.192-2.497,0.539-3.746,0.538c-4.144-0.005-6.994,1.969-9.463,5.199c-3.515,4.6-7.393,8.921-11.122,13.358
		c-1.858,2.208-2.041,3.404,0.241,5.034c4.02,2.872,5.232,6.539,4.738,11.288c-0.351,3.381-0.108,6.832-0.051,10.25
		c0.025,1.506-0.467,2.688-1.434,3.84c-5.788,6.877-11.506,13.813-17.287,20.701c-1.065,1.268-1.969,2.922-4.081,2.623
		c0-37.028,0-74.054,0-111.08C64.401,171.729,103.361,171.729,142.321,171.729z"/>
	<path fill="#FFFFFF" d="M25.442,330.541c6.884-8.182,13.765-16.363,20.656-24.537c0.641-0.758,1.039-1.562,1.155-2.584
		c0.238-2.088,0.906-2.4,2.764-1.24c3.717,2.32,7.392,4.707,11.078,7.076c19.053,12.254,38.109,24.504,57.142,36.789
		c1.114,0.719,3.044,1.242,2.605,2.902c-0.451,1.697-2.365,1.152-3.702,1.158c-9.434,0.037-18.867-0.006-28.301,0.037
		c-2.389,0.012-4.451-0.621-6.47-1.949c-10.865-7.135-21.791-14.174-32.699-21.244c-1.247-0.809-2.354-1.533-2.561-3.338
		c-0.191-1.658-1.2-0.732-1.783-0.051c-2.364,2.766-4.694,5.559-7.038,8.34c-3.396,4.031-6.804,8.053-10.178,12.102
		c-0.718,0.861-1.501,1.426-2.667,1.258C25.442,340.354,25.442,335.447,25.442,330.541z"/>
	<path fill="#FFFFFF" d="M25.442,292.176c7.433-8.789,14.872-17.572,22.298-26.367c3.305-3.916,6.567-7.867,9.878-11.781
		c1.654-1.954,2.911-2.1,5.48-0.524c5.636,3.457,11.238,6.974,16.851,10.47c13.745,8.569,27.486,17.146,41.233,25.711
		c5.562,3.467,5.66,4.153,0.231,7.77c-2.354,1.57-3.466,3.299-3.254,6.195c0.2,2.735-1.069,3.33-3.433,1.844
		c-17.732-11.164-35.451-22.346-53.172-33.523c-1.077-0.68-2.113-1.377-2.453-2.746c-0.15-0.606,0.023-1.539-0.788-1.693
		c-0.863-0.163-1.2,0.763-1.655,1.296c-4.63,5.422-9.237,10.862-13.842,16.307c-5.038,5.953-10.068,11.91-15.1,17.869
		c-0.606,0.717-1.238,1.332-2.274,0.776C25.442,299.908,25.442,296.043,25.442,292.176z"/>
	<path fill="#FFFFFF" d="M321.65,351.061c-1.879-0.688-3.795-1.301-5.443-2.492c-7.047-5.098-6.443-15.92,1.127-20.235
		c3.918-2.233,8.303-2.642,12.635-3.265c2.717-0.391,5.445-0.637,8.136-1.25c2.043-0.467,3.016-1.629,3.354-3.61
		c0.551-3.228-1.111-6.885-4.074-8.207c-4.528-2.026-9.149-1.808-13.594,0.226c-2.492,1.143-3.834,3.396-4.473,6.073
		c-0.449,1.867-3.818,3.029-5.312,1.847c-0.838-0.662-0.541-1.65-0.369-2.496c1.056-5.24,4.113-8.844,9.129-10.642
		c4.955-1.776,10.048-1.956,15.107-0.528c6.117,1.725,9.174,6.01,9.229,12.84c0.064,7.58,0,15.164,0.027,22.744
		c0.014,3.768,0.082,3.832,3.793,3.817c0.762-0.002,1.201,0.191,1.154,0.923c-0.084,1.295,0.762,3.051-1.258,3.559
		c-3.965,0.994-8.388,0.738-9.195-4.4c-0.031-0.193-0.182-0.367-0.406-0.799c-3.051,3-6.684,4.758-10.643,5.898
		C327.6,351.061,324.625,351.061,321.65,351.061z M326.619,346.111c8.67-0.01,13.83-3.881,14.834-11.254
		c0.229-1.681,0.049-3.414,0.137-5.117c0.07-1.373-0.447-1.684-1.725-1.287c-3.854,1.203-7.857,1.465-11.853,1.791
		c-2.535,0.207-4.991,0.783-7.184,2.156c-2.742,1.719-3.832,4.25-3.488,7.412c0.328,3,2.168,4.752,4.881,5.78
		C323.654,346.139,325.135,346.088,326.619,346.111z"/>
	<path fill="#FFFFFF" d="M448.791,351.061c-13.285-3.01-15.844-15.438-15.1-24.896c0.446-5.683,2.338-10.83,6.403-15.062
		c8.289-8.623,26.31-7.775,30.937,7.039c0.912,2.916,1.565,5.875,1.551,8.955c-0.018,2.944-0.053,3.028-2.951,3.032
		c-8.621,0.011-17.238,0.004-25.856,0.004c-4.693,0-4.693,0-3.757,4.552c2.162,10.521,13.479,15.135,21.863,8.918
		c1.859-1.377,3.021-3.23,3.83-5.357c0.65-1.701,4.615-2.801,6.014-1.672c0.783,0.631,0.275,1.357,0.043,2.029
		c-2.217,6.442-6.562,10.645-13.164,12.459C455.332,351.061,452.061,351.061,448.791,351.061z M453.164,325.145
		c3.932,0,7.865,0.01,11.797-0.006c0.795-0.004,1.578,0.127,1.682-1.164c0.599-7.317-7.071-14.424-14.334-13.211
		c-6.776,1.133-10.936,5.332-12.354,12.244c-0.365,1.789,0.193,2.199,1.854,2.164C445.59,325.092,449.379,325.145,453.164,325.145z"
		/>
	<path fill="#FFFFFF" d="M226.186,351.061c-6.428-1.785-10.596-5.688-11.895-12.43c-0.347-1.805,0.137-2.355,1.948-2.471
		c2.311-0.15,3.571,0.422,4.337,2.879c1.494,4.799,4.623,6.895,9.664,7.041c2.661,0.076,5.333,0.248,7.869-0.992
		c2.731-1.336,4.335-3.453,4.369-6.451c0.034-3.061-1.926-4.824-4.606-5.928c-3.671-1.508-7.641-1.83-11.415-2.92
		c-1.565-0.451-3.131-0.934-4.645-1.533c-8.778-3.467-8.287-14.363-2.729-19.107c5.955-5.086,18.615-4.646,24.131,0.914
		c2.254,2.275,3.238,5.09,3.833,8.127c0.21,1.068-0.233,1.48-1.224,1.654c-2.925,0.518-3.884-0.018-4.874-2.877
		c-1.738-5.016-6.426-6.473-11.609-6.242c-1.828,0.08-3.664,0.504-5.295,1.535c-4.072,2.572-4.11,7.963-0.014,10.473
		c2.445,1.5,5.241,2.05,7.976,2.728c2.81,0.694,5.639,1.321,8.345,2.377c5.338,2.08,8.187,5.904,8.094,10.832
		c-0.097,5.207-3.117,9.248-8.406,11.17c-1.32,0.481-2.691,0.82-4.039,1.224C232.729,351.061,229.458,351.061,226.186,351.061z"/>
	<path fill="#FFFFFF" d="M262.768,351.061c-8.475-2.59-10.459-7.854-10.68-15.281c-0.262-8.838-0.012-17.688-0.1-26.532
		c-0.021-2.224,1.039-2.508,2.885-2.529c1.963-0.024,2.758,0.511,2.73,2.634c-0.107,8.174-0.049,16.352-0.039,24.526
		c0.004,2.16,0.201,4.313,0.883,6.369c1.18,3.551,3.77,5.448,7.436,5.787c8.957,0.821,14.836-4.396,15.033-13.515
		c0.166-7.576,0.074-15.162,0.104-22.742c0.013-2.729,2.232-4.063,4.756-2.856c1.177,0.562,0.759,1.681,0.763,2.567
		c0.028,10.851,0.021,21.701,0.021,32.556c0,1.709,0.004,3.418,0,5.129c-0.009,2.804-2.072,4.117-4.642,2.972
		c-0.748-0.334-0.856-0.974-0.875-1.654c-0.022-0.955-0.006-1.914-0.244-3.088c-2.625,2.668-5.586,4.639-9.106,5.66
		C268.715,351.061,265.74,351.061,262.768,351.061z"/>
	<path fill="#FFFFFF" d="M408.195,351.061c-11.299-2.965-14.652-12.332-14.883-21.174c-0.166-6.363,1.161-12.205,5.073-17.365
		c6.549-8.627,20.326-8.698,27.297-3.032c3.021,2.454,4.505,5.827,5.332,9.532c0.25,1.109,0.015,1.791-1.396,1.865
		c-2.373,0.123-4.084-0.088-5.105-2.889c-1.797-4.916-5.912-7.205-10.973-7.295c-5.012-0.088-9.139,2.008-11.574,6.582
		c-3.608,6.785-3.684,13.869-0.889,20.875c3.324,8.33,12.014,9.572,18.43,6.676c3.344-1.508,5.076-4.422,6.064-7.85
		c0.533-1.844,4.262-3.06,5.797-1.918c0.729,0.543,0.307,1.235,0.164,1.834c-1.621,6.774-5.404,11.631-12.269,13.727
		c-0.424,0.129-0.838,0.287-1.258,0.432C414.736,351.061,411.467,351.061,408.195,351.061z"/>
	<path fill="#FFFFFF" d="M161.356,251.586c0-9.14,0.052-18.282-0.04-27.422c-0.021-2.052,0.647-2.669,2.674-2.656
		c11.593,0.079,23.186,0.087,34.778-0.006c2.147-0.017,2.601,0.811,2.622,2.745c0.021,1.979-0.679,2.549-2.601,2.534
		c-9.586-0.077-19.174,0.023-28.759-0.077c-2.078-0.022-2.686,0.629-2.638,2.665c0.124,5.273,0.143,10.555-0.007,15.827
		c-0.063,2.223,0.736,2.738,2.819,2.712c8.396-0.102,16.794-0.046,25.192-0.039c2.484,0.002,3.805,2.304,2.587,4.484
		c-0.563,1.01-1.563,0.693-2.4,0.695c-8.471,0.027-16.944,0.082-25.415-0.027c-2.129-0.026-2.833,0.576-2.782,2.75
		c0.136,5.867,0.137,11.742,0,17.609c-0.053,2.221,0.762,2.754,2.837,2.734c9.66-0.088,19.322-0.043,28.982-0.033
		c2.729,0.002,4.068,2.258,2.869,4.746c-0.375,0.777-1.051,0.752-1.702,0.752c-12.411,0.014-24.821-0.006-37.232,0.023
		c-1.785,0.004-1.791-1.105-1.79-2.371C161.361,270.016,161.357,260.801,161.356,251.586z"/>
	<path fill="#FFFFFF" d="M136.023,350.002c-3.702,0.756-6.712-0.768-9.747-2.746c-21.233-13.842-42.526-27.588-63.797-41.369
		c-2.861-1.854-4.226-6.295-2.937-9.467c0.577-1.42,1.544-1.148,2.526-0.525c3.14,1.986,6.273,3.984,9.394,6.004
		c22.842,14.775,45.68,29.558,68.518,44.336c0.436,0.283,0.875,0.568,1.276,0.896c0.519,0.424,1.081,0.879,0.932,1.654
		c-0.172,0.9-0.959,1.148-1.689,1.191C139.019,350.061,137.532,350.002,136.023,350.002z"/>
	<path fill="#FFFFFF" d="M261.211,261.434c-4.83,0.002-9.66,0.037-14.49-0.016c-1.682-0.018-2.131,0.496-1.883,2.256
		c0.554,3.934,1.697,7.539,4.605,10.371c6.644,6.471,17.931,4.164,21.507-4.369c0.61-1.459,5.077-2.541,6.116-1.463
		c0.515,0.533,0.146,1.139-0.039,1.664c-3.409,9.631-10.672,13.521-20.223,12.834c-12.681-0.908-17.608-10.762-17.846-20.594
		c-0.115-4.727,0.2-9.336,2.286-13.691c4.001-8.351,11.317-12.316,20.782-11.198c7.627,0.902,13.363,6.744,15.097,15.461
		c0.373,1.887,0.592,3.809,0.799,5.725c0.285,2.672-0.021,3.004-2.67,3.014C270.572,261.445,265.891,261.434,261.211,261.434z
		 M258.338,256.447c3.785,0,7.574-0.055,11.359,0.023c1.869,0.036,2.688-0.556,2.082-2.492c-0.152-0.492-0.162-1.027-0.287-1.529
		c-1.232-4.983-3.984-8.727-9.176-9.854c-5.15-1.12-9.92-0.24-13.5,4.125c-1.774,2.162-2.852,4.649-3.563,7.349
		c-0.485,1.841,0.16,2.427,1.95,2.396C250.914,256.402,254.625,256.445,258.338,256.447z"/>
	<path fill="#FFFFFF" d="M360.873,311.756c3.109-3.02,6.342-5.373,10.643-5.93c8.211-1.064,17.851,2.428,17.947,14.861
		c0.074,9.137-0.012,18.272,0.053,27.412c0.017,2.295-1.416,2.172-2.973,2.184c-1.586,0.012-2.957,0.055-2.941-2.217
		c0.062-8.767,0.033-17.531,0.007-26.297c-0.007-1.404,0.01-2.855-0.322-4.201c-1.387-5.617-5.392-7.188-10.965-6.783
		c-7.029,0.512-11.604,5.725-11.732,12.775c-0.143,7.871-0.063,15.748-0.09,23.623c-0.008,2.813-2.078,4.096-4.697,2.94
		c-1.114-0.492-0.817-1.483-0.821-2.313c-0.025-7.949-0.019-15.9-0.019-23.849c0-4.901,0.111-9.81-0.047-14.709
		c-0.072-2.271,1-2.494,2.826-2.535c1.959-0.043,2.973,0.498,2.783,2.617C360.457,310.043,360.326,310.809,360.873,311.756z"/>
	<path fill="#FFFFFF" d="M181.7,312.162c3.748-3.666,7.383-6.137,12.096-6.477c8.581-0.615,16.884,3.848,16.893,14.192
		c0.008,9.287-0.05,18.572,0.06,27.856c0.026,2.222-0.958,2.589-2.822,2.568c-1.795-0.018-2.909-0.219-2.881-2.51
		c0.11-8.986,0.083-17.977,0.024-26.963c-0.038-5.705-2.783-8.941-7.721-9.85c-8.649-1.586-15.447,4.211-15.608,13.477
		c-0.131,7.574-0.026,15.154-0.034,22.73c-0.002,2.752-2.479,4.194-4.884,2.885c-0.738-0.404-0.713-1.08-0.714-1.732
		c-0.008-13.223,0.01-26.445-0.022-39.668c-0.006-2.312,1.596-1.861,2.941-1.902c1.366-0.041,2.81-0.168,2.684,1.928
		C181.652,309.639,181.7,310.588,181.7,312.162z"/>
	<path fill="#FFFFFF" d="M63.356,350.125c-3.713-0.002-7.429,0.025-11.142-0.01c-4.172-0.037-4.972-0.85-4.975-4.928
		c-0.003-4.604-0.021-9.209,0.01-13.814c0.018-2.494,0.878-3.02,2.976-1.682c8.707,5.547,17.373,11.156,26.053,16.746
		c0.187,0.119,0.374,0.25,0.529,0.405c0.608,0.611,1.596,1.089,1.264,2.152c-0.324,1.043-1.353,1.051-2.236,1.096
		c-1.112,0.06-2.228,0.033-3.342,0.033C69.448,350.127,66.402,350.125,63.356,350.125z"/>
	<path fill="#FFFFFF" d="M161.801,320.111c0.001-9.07,0.09-18.144-0.057-27.211c-0.041-2.529,1.135-2.691,3.101-2.703
		c2.005-0.014,3.101,0.238,3.087,2.732c-0.099,18.211-0.096,36.426-0.002,54.639c0.013,2.486-1.113,2.74-3.113,2.75
		c-2.035,0.01-3.105-0.316-3.069-2.775C161.883,338.398,161.801,329.254,161.801,320.111z"/>
	<path fill="#FFFFFF" d="M211.946,243.935c2.885-4.431,6.702-6.794,11.957-6.787c1.432,0.003,2.187,0.569,1.932,1.966
		c-0.264,1.442,1.168,3.942-1.711,3.97c-7.657,0.072-11.799,6.159-12.049,13.377c-0.255,7.35-0.097,14.713-0.125,22.07
		c-0.01,2.719-2.771,4.264-5.132,2.869c-0.956-0.562-0.728-1.56-0.729-2.412c-0.019-9.219-0.014-18.437-0.014-27.65
		c0-3.642,0.081-7.286-0.024-10.925c-0.062-2.176,1.146-2.376,2.836-2.337c1.636,0.038,3.249-0.125,3.075,2.306
		C211.875,241.56,211.946,242.75,211.946,243.935z"/>
	<path fill="#FFFFFF" d="M298.926,312.691c2.799-4.617,6.793-6.711,11.92-7.053c1.461-0.097,2.105,0.356,2.029,1.819
		c-0.031,0.668-0.045,1.34,0.006,2.006c0.104,1.345-0.389,2.007-1.82,2.181c-2.502,0.303-4.981,0.727-7.033,2.465
		c-3.646,3.086-4.84,7.262-4.965,11.729c-0.198,7.127-0.096,14.259-0.125,21.388c-0.012,2.762-2.203,4.088-4.735,2.879
		c-1.181-0.564-0.779-1.67-0.781-2.562c-0.028-10.621-0.021-21.239-0.021-31.862c0-2.304,0.078-4.605-0.018-6.904
		c-0.076-1.826,0.938-2.109,2.383-2.01c1.392,0.096,3.195-0.513,3.164,1.93C298.91,310.029,298.926,311.359,298.926,312.691z"/>
	<path fill="#FFFFFF" d="M75.006,214.056c0.426,0.032,0.871-0.067,1.153,0.104c3.717,2.242,7.802,4.022,10.491,7.635
		c1.762,2.366,2.614,5.322,4.794,7.456c0.962,0.94,0.048,1.758-0.518,2.516c-0.799,1.067-1.675,0.962-2.691,0.252
		c-3.771-2.642-7.596-5.207-11.339-7.886c-1.182-0.844-2.292-1.099-3.729-0.82c-4.664,0.901-9.344,1.728-14.038,2.457
		c-2.024,0.315-3.597,1.056-4.784,2.811c-0.951,1.403-2.212,2.595-3.334,3.882c-0.701,0.803-1.432,0.952-2.309,0.222
		c-0.851-0.708-0.96-1.441-0.247-2.291c2.1-2.501,4.192-5.008,6.303-7.5c0.781-0.922,1.902-1.062,3.011-1.251
		c4.903-0.832,9.803-1.682,14.701-2.545c0.98-0.173,2.416-0.099,2.17-1.594c-0.26-1.588-1.678-1.107-2.736-0.953
		c-3.231,0.471-6.454,0.997-9.682,1.489c-0.587,0.09-1.181,0.148-1.774,0.172c-0.638,0.026-1.499,0.259-1.554-0.732
		c-0.048-0.872,0.785-0.984,1.428-1.101c1.533-0.279,3.076-0.506,4.615-0.748C68.311,215.101,71.683,214.575,75.006,214.056z"/>
	<path fill="#FFFFFF" d="M234.793,260.061c-0.001,6.318-0.076,12.635,0.042,18.949c0.04,2.129-0.788,2.635-2.744,2.643
		c-2.01,0.011-2.939-0.438-2.924-2.707c0.087-12.709,0.084-25.418,0.002-38.125c-0.014-2.203,0.812-2.761,2.875-2.782
		c2.158-0.021,2.825,0.728,2.79,2.849C234.723,247.277,234.793,253.668,234.793,260.061z"/>
	<path fill="#FFFFFF" d="M84.496,292.592c4.908-0.014,11.025,4.229,12.721,8.811c0.545,1.472,0.12,2.513-1.396,2.939
		c-3.355,0.947-6.726,1.846-10.098,2.734c-0.899,0.236-1.771,0.02-2.577-0.426c-2.875-1.588-5.25-6.854-4.532-10.033
		C79.204,294.008,81.259,292.6,84.496,292.592z"/>
	<path fill="#FFFFFF" d="M71.382,243.547c0,2.815,0.048,5.634-0.016,8.447c-0.051,2.238-0.862,2.668-2.763,1.596
		c-0.129-0.07-0.245-0.174-0.38-0.227c-3.691-1.438-4.978-4.052-4.554-8.005c0.363-3.371,0.049-6.811,0.088-10.22
		c0.033-2.898,1.409-4.531,3.734-4.558c2.218-0.025,3.819,1.776,3.877,4.518C71.429,237.913,71.382,240.731,71.382,243.547z"/>
	<path fill="#FFFFFF" d="M83.88,249.175c-0.001,3.334,0.015,6.668-0.013,10.002c-0.007,0.935,0.25,2.072-0.792,2.603
		c-0.929,0.475-1.641-0.377-2.423-0.75c-2.041-0.973-2.764-2.486-2.689-4.805c0.176-5.479,0.057-10.966,0.058-16.45
		c0-0.592-0.009-1.186,0.022-1.778c0.094-1.798,1-3.031,2.815-3.129c1.92-0.104,2.823,1.27,2.932,2.972
		c0.157,2.436,0.076,4.889,0.089,7.333C83.887,246.507,83.881,247.84,83.88,249.175z"/>
	<path fill="#FFFFFF" d="M53.568,245.164c0-1.999-0.062-3.999,0.019-5.993c0.06-1.462,0.421-2.956,2.232-3.06
		c1.81-0.104,2.458,1.292,2.514,2.78c0.12,3.177,0.18,6.366,0.018,9.537c-0.107,2.103-1.841,3.362-3.384,4.438
		c-1.062,0.741-1.353-0.457-1.375-1.269c-0.056-2.143-0.019-4.29-0.019-6.436C53.572,245.164,53.569,245.164,53.568,245.164z"/>
	<path fill="#FFFFFF" d="M235.142,225.472c-0.002,0.593-0.033,1.188,0.003,1.779c0.102,1.639-0.675,2.305-2.273,2.162
		c-0.589-0.052-1.189-0.052-1.777,0c-1.604,0.145-2.364-0.534-2.27-2.167c0.041-0.739-0.001-1.482,0-2.223
		c0.006-3.511,0.01-3.413,3.607-3.516c1.999-0.056,2.951,0.562,2.72,2.632C235.103,224.578,235.145,225.027,235.142,225.472z"/>
</g>
</svg>
