<?xml version="1.0" encoding="utf-8"?>
<!-- Generator: Adobe Illustrator 16.0.0, SVG Export Plug-In . SVG Version: 6.00 Build 0)  -->
<!DOCTYPE svg PUBLIC "-//W3C//DTD SVG 1.1//EN" "http://www.w3.org/Graphics/SVG/1.1/DTD/svg11.dtd">
<svg version="1.1" id="Layer_1" xmlns="http://www.w3.org/2000/svg" xmlns:xlink="http://www.w3.org/1999/xlink" x="0px" y="0px"
	 width="500px" height="215px" viewBox="0 145.5 500 215" enable-background="new 0 145.5 500 215" xml:space="preserve">
<g>
	<path fill="#FFFFFF" stroke="#FFFFFF" stroke-miterlimit="10" d="M120.021,353.787c1.481,0.102,2.658-0.125,3.841-0.157
		c5.795-0.157,11.509-0.987,17.187-2.065c8.028-1.524,15.688-4.211,22.992-7.83c8.516-4.228,16.381-9.379,23.31-16.004
		c5.337-5.104,10.279-10.51,14.718-16.379c2.752-3.636,4.95-7.637,7.106-11.654c3.186-5.937,5.389-12.241,7.3-18.67
		c0.439-1.473,0.422-1.573-1.074-1.979c-8.64-2.342-17.282-4.675-25.927-7.001c-1.583-0.424-1.827-0.25-2.374,1.562
		c-2.381,7.893-6.165,15.098-10.966,21.752c-3.581,4.962-7.871,9.283-12.779,12.984c-4.894,3.69-10.11,6.809-15.773,9.174
		c-10.959,4.572-22.344,6.424-34.161,5.14c-6.595-0.72-12.968-2.304-19.08-5.052c-6.075-2.73-11.769-5.996-16.985-10.137
		c-4.779-3.797-8.996-8.146-12.556-13.064c-4.579-6.33-8.008-13.286-10.314-20.77c-0.243-0.793-0.705-1.104-1.507-0.928
		c-1.507,0.334-3.016,0.66-4.521,1.004c-7.915,1.812-15.83,3.621-23.742,5.443c-1.304,0.302-1.4,0.539-1.038,1.822
		c0.972,3.436,2.173,6.791,3.482,10.106c5.509,13.944,13.931,25.919,24.837,36.124c10.251,9.594,22.044,16.711,35.407,21.146
		C98.087,351.896,109.069,353.643,120.021,353.787z M135.797,185.101c0.053,1.209,0.89,1.325,1.667,1.492
		c8.673,1.844,16.377,5.848,23.581,10.835c6.092,4.219,11.306,9.399,15.7,15.382c0.903,1.228,1.178,1.253,2.408,0.411
		c7.315-5.014,14.63-10.027,21.95-15.039c1.453-0.994,1.53-1.197,0.517-2.623c-4.526-6.385-9.749-12.146-15.618-17.32
		c-12.053-10.62-25.966-17.702-41.466-21.751c-1.574-0.413-1.748-0.283-2.117,1.274c-1.96,8.282-3.927,16.562-5.904,24.84
		C136.305,183.486,136.017,184.35,135.797,185.101z M218.513,235.603c-0.216-1.009-0.478-2.125-0.696-3.253
		c-2.151-11.223-6.571-21.543-12.456-31.279c-0.847-1.401-1.152-1.438-2.533-0.558c-7.381,4.696-14.764,9.39-22.153,14.072
		c-1.817,1.151-1.835,1.313-0.727,3.137c3.269,5.37,5.866,11.042,7.436,17.151c0.384,1.494,0.709,3.005,1.071,4.506
		c0.152,0.629,0.441,1.1,1.218,1.005c1.019-0.123,2.049-0.181,3.063-0.339c5.668-0.875,11.358-1.584,17.054-2.255
		c2.436-0.289,4.866-0.638,7.29-1.001C217.702,236.693,218.511,236.714,218.513,235.603z M53.083,235.58
		c0.439,0.045,0.664-0.095,0.949-1.031c0.877-2.878,1.777-5.75,3.007-8.505c0.413-0.92,0.157-1.406-0.792-1.812
		c-2.947-1.265-5.853-2.62-8.771-3.952c-5.618-2.562-11.231-5.141-16.853-7.696c-1.318-0.6-1.519-0.512-2.184,0.83
		c-2.012,4.063-3.408,8.356-4.63,12.707c-0.378,1.346-0.233,1.509,1.159,1.886c6.918,1.876,13.831,3.765,20.75,5.637
		C48.084,234.287,50.464,234.893,53.083,235.58z M301.477,260.088c-0.098-0.021-0.188-0.039-0.287-0.062
		c-0.111-0.618-0.222-1.236-0.33-1.854c-0.7-4.096-1.393-8.19-2.105-12.281c-0.158-0.902-0.473-1.75-1.646-1.626
		c-0.967,0.104-1.342,0.762-1.109,2.078c0.449,2.57,0.951,5.135,1.439,7.699c0.561,2.954,1.106,5.91,1.713,8.855
		c0.308,1.506,1.119,2.073,2.385,1.879c1.027-0.156,1.447-0.871,1.691-1.758c1.125-4.123,2.24-8.25,3.377-12.369
		c0.114-0.423,0.103-0.919,0.541-1.334c0.117,0.354,0.216,0.607,0.289,0.866c1.159,4.034,2.312,8.064,3.47,12.099
		c0.087,0.306,0.181,0.605,0.282,0.904c0.348,1.004,0.99,1.598,2.111,1.551c1.113-0.047,1.628-0.754,1.816-1.723
		c0.558-2.871,1.089-5.752,1.604-8.634c0.491-2.765,0.944-5.537,1.415-8.306c0.104-0.602,0.141-1.204-0.411-1.631
		c-0.446-0.342-0.977-0.338-1.473-0.155c-0.699,0.262-0.814,0.936-0.915,1.557c-0.358,2.187-0.681,4.379-1.026,6.566
		c-0.405,2.551-0.818,5.101-1.252,7.786c-0.433-0.454-0.458-0.859-0.564-1.229c-1.309-4.441-2.606-8.888-3.923-13.326
		c-0.241-0.804-0.668-1.48-1.646-1.429c-0.926,0.048-1.204,0.755-1.416,1.519c-0.704,2.556-1.424,5.108-2.142,7.662
		C302.736,255.624,302.107,257.854,301.477,260.088z M59.69,253.969c0.015,0,0.03,0,0.044,0c0,1.385-0.001,2.77,0,4.154
		c0.002,1.426-0.009,2.852,0.017,4.273c0.01,0.549,0.081,1.104,0.177,1.646c0.097,0.562,0.45,0.913,1.026,1.009
		c0.603,0.1,1.174-0.033,1.404-0.613c0.292-0.734,0.577-0.565,1.108-0.246c2.838,1.705,6.089,1.02,7.935-1.722
		c2.097-3.116,2.093-6.436,0.415-9.68c-1.604-3.1-5.32-4.087-8.243-2.316c-0.989,0.6-0.987,0.158-0.998-0.637
		c-0.023-1.819,0.137-3.64-0.157-5.452c-0.132-0.808-0.504-1.351-1.372-1.339c-0.821,0.012-1.163,0.595-1.29,1.309
		c-0.067,0.39-0.063,0.788-0.064,1.185C59.688,248.35,59.69,251.159,59.69,253.969z M281.307,259.416c0.016,0,0.034,0,0.047,0
		c0,3.012-0.022,6.023,0.016,9.032c0.011,0.899,0.203,1.827,1.396,1.834c1.215,0.006,1.336-0.938,1.368-1.837
		c0.052-1.264,0.042-2.533,0.044-3.801c0.002-1.643-0.002-1.643,1.51-0.959c2.789,1.263,5.408,0.666,7.106-1.612
		c2.384-3.202,2.315-7.958-0.159-11.084c-1.602-2.028-5.009-2.79-7.209-1.53c-0.799,0.456-1.412,0.851-1.979-0.255
		c-0.161-0.317-0.598-0.378-0.969-0.283c-0.949,0.241-1.177,0.953-1.174,1.817C281.307,253.633,281.307,256.523,281.307,259.416z
		 M155.753,259.91c0.009,0,0.016,0,0.024,0c0,2.888-0.019,5.777,0.007,8.666c0.014,1.609,0.402,2.115,1.463,2.093
		c0.999-0.021,1.347-0.521,1.37-2.06c0.019-1.305,0.001-2.611,0.006-3.916c0.008-1.286,0.012-1.286,1.197-0.687
		c3.32,1.687,6.463,0.673,8.2-2.641c1.106-2.111,1.141-4.358,0.659-6.597c-1.014-4.709-5.066-6.624-9.361-4.504
		c-0.296,0.145-0.601,0.348-0.83-0.018c-0.469-0.751-1.134-1.029-1.924-0.705c-0.92,0.378-0.804,1.274-0.808,2.056
		C155.746,254.37,155.753,257.143,155.753,259.91z M362.363,254.885c0,2.692-0.014,5.381,0.011,8.073
		c0.004,0.946,0.145,1.89,1.386,1.978c0.949,0.066,1.432-0.605,1.454-2.013c0.023-1.346,0.047-2.69-0.004-4.034
		c-0.043-1.053,0.413-1.421,1.417-1.355c1.066,0.068,2.132,0.033,3.193-0.141c3.358-0.547,5.593-3.194,5.396-6.445
		c-0.21-3.511-2.604-5.883-6.115-6.008c-1.503-0.055-3.007-0.02-4.51-0.018c-1.815,0-2.215,0.387-2.223,2.248
		C362.351,249.741,362.363,252.312,362.363,254.885z M260.408,257.396c0.062,0,0.123,0,0.183,0c0,1.901-0.007,3.802,0.002,5.705
		c0.009,0.772,0.345,1.306,1.181,1.352c0.855,0.049,1.344-0.4,1.463-1.23c0.053-0.389,0.039-0.789,0.044-1.184
		c0.005-2.415-0.048-4.834,0.021-7.249c0.083-2.703,2.562-4.188,4.838-2.96c1.311,0.706,1.701,1.908,1.711,3.296
		c0.017,2.614,0.01,5.229,0.037,7.843c0.01,0.866,0.413,1.477,1.348,1.471c0.925-0.004,1.283-0.571,1.341-1.471
		c0.18-3.003,0.176-6.008-0.021-9.011c-0.248-3.802-3.994-6.086-7.494-4.561c-1.799,0.782-1.797,0.782-1.802-1.221
		c-0.003-1.425,0.011-2.854-0.038-4.277c-0.027-0.788-0.398-1.381-1.287-1.432c-0.888-0.049-1.297,0.48-1.41,1.281
		c-0.069,0.508-0.108,1.024-0.11,1.537C260.406,249.322,260.408,253.357,260.408,257.396z M351.686,254.201c0-0.768,0-1.188,0-1.61
		c0-2.453,0.01-4.907-0.015-7.36c-0.005-0.547-0.079-1.107-0.219-1.636c-0.156-0.6-0.629-0.904-1.25-0.902
		c-0.668,0.003-1.136,0.351-1.309,0.999c-0.087,0.338-0.102,0.702-0.102,1.057c0,3.679,0.004,7.36,0.023,11.039
		c0.015,2.414,0.022,4.828,0.098,7.239c0.027,0.918,0.319,1.781,1.522,1.68c1.108-0.093,1.266-0.909,1.271-1.803
		c0.011-1.028-0.009-2.057,0.015-3.086c0.008-0.334-0.189-0.809,0.207-0.963c0.358-0.138,0.617,0.271,0.871,0.504
		c1.706,1.593,3.394,3.205,5.116,4.779c0.627,0.572,1.373,0.913,2.1,0.172c0.686-0.694,0.324-1.389-0.176-2.012
		c-0.272-0.338-0.589-0.645-0.897-0.943c-1.479-1.433-2.968-2.854-4.444-4.283c-1.131-1.092-1.12-1.104,0.147-2.127
		c1.445-1.17,2.899-2.329,4.31-3.538c0.578-0.5,0.676-1.163,0.129-1.789c-0.509-0.583-1.11-0.519-1.703-0.137
		c-0.302,0.193-0.574,0.422-0.848,0.648C355.017,251.396,353.51,252.67,351.686,254.201z M453.662,257.384
		c0-1.743,0.013-3.485-0.011-5.227c-0.004-0.513-0.036-1.042-0.186-1.523c-0.301-0.994-1.678-1.33-2.116-0.449
		c-0.565,1.142-1.112,0.602-1.766,0.299c-3.479-1.604-6.529-0.521-8.225,2.907c-1.179,2.37-1.262,4.774-0.308,7.242
		c1.612,4.16,5.274,5.457,9.082,3.182c0.496-0.295,0.807-0.492,0.965,0.303c0.125,0.64,0.656,0.857,1.273,0.816
		c0.64-0.045,1.019-0.422,1.129-1.029c0.089-0.465,0.146-0.941,0.148-1.413C453.671,260.787,453.662,259.085,453.662,257.384z
		 M85.126,263.441c0.534,1.328,0.962,1.683,1.764,1.507c1.04-0.226,0.956-1.123,1.095-1.884c0.015-0.076,0.01-0.157,0.004-0.235
		c-0.299-3.677-0.042-7.363-0.153-11.042c-0.014-0.434-0.015-0.876-0.105-1.298c-0.106-0.507-0.475-0.809-0.991-0.905
		c-0.514-0.095-1.05,0.034-1.231,0.498c-0.378,0.964-0.835,0.688-1.506,0.327c-3.245-1.749-6.647-0.68-8.36,2.58
		c-0.993,1.886-1.325,3.866-0.94,5.978c0.658,3.604,2.66,5.645,6.016,6.111C82.435,265.316,83.792,264.575,85.126,263.441z
		 M97.525,254.701c0,0.988-0.006,1.979,0.002,2.968c0.013,1.86,0.005,3.72,0.062,5.578c0.025,0.835,0.295,1.651,1.317,1.671
		c2.452,0.042,4.907,0.032,7.359-0.004c0.719-0.012,1.19-0.459,1.198-1.216c0.006-0.732-0.415-1.181-1.129-1.312
		c-0.348-0.062-0.707-0.063-1.061-0.066c-1.268-0.01-2.532-0.014-3.799,0c-0.735,0.008-1.091-0.303-1.081-1.064
		c0.019-1.307,0.019-2.613-0.011-3.921c-0.02-0.873,0.394-1.196,1.232-1.179c1.227,0.025,2.453,0.017,3.68-0.014
		c0.868-0.021,1.613-0.307,1.617-1.338c0.003-1.062-0.785-1.273-1.637-1.291c-1.266-0.025-2.533-0.029-3.798-0.007
		c-0.742,0.015-1.103-0.282-1.095-1.042c0.013-1.346,0.02-2.691-0.006-4.038c-0.016-0.838,0.405-1.1,1.178-1.089
		c1.424,0.021,2.85,0.026,4.273-0.019c0.856-0.025,1.625-0.312,1.589-1.357c-0.035-1.022-0.765-1.279-1.655-1.279
		c-2.018,0.004-4.036-0.007-6.055,0.002c-1.749,0.007-2.166,0.414-2.176,2.177C97.516,249.475,97.527,252.088,97.525,254.701z
		 M383.517,258.496c0-0.01,0-0.02,0-0.027c1.308,0,2.612,0.022,3.921-0.007c0.895-0.021,1.486-0.405,1.578-1.405
		c0.27-2.953-1.806-6.23-4.534-7.105c-2.894-0.925-6.205,0.43-7.725,3.171c-0.863,1.553-0.895,3.253-0.857,4.968
		c0.062,3.085,1.464,5.387,3.92,6.359c3.077,1.218,5.825,0.544,8.303-1.496c0.589-0.487,0.9-1.152,0.288-1.866
		c-0.57-0.666-1.199-0.463-1.784-0.017c-0.765,0.587-1.585,1.053-2.511,1.31c-2.276,0.628-4.647-0.495-5.266-2.479
		c-0.332-1.084-0.133-1.383,0.988-1.398C381.064,258.486,382.289,258.496,383.517,258.496z M470.435,258.501c0-0.01,0-0.017,0-0.024
		c1.309,0,2.613,0.039,3.921-0.013c1.297-0.049,1.694-0.493,1.668-1.774c-0.02-1.118-0.27-2.198-0.719-3.223
		c-1.798-4.045-6.89-5.12-10.105-2.095c-2.07,1.944-2.625,4.416-2.288,7.164c0.334,2.728,1.335,5.004,4.134,5.97
		c2.975,1.023,5.698,0.508,8.076-1.589c0.54-0.478,0.902-1.053,0.364-1.757c-0.536-0.707-1.148-0.535-1.771-0.104
		c-0.782,0.545-1.594,1.036-2.516,1.309c-2.42,0.705-4.88-0.557-5.407-2.729c-0.188-0.787,0.051-1.137,0.843-1.137
		C467.9,258.501,469.17,258.501,470.435,258.501z M216.357,258.062c1.431-0.133,2.989,0.187,4.508-0.209
		c1.182-0.309,1.579-0.908,1.38-2.09c-0.192-1.138-0.526-2.234-1.075-3.257c-1.891-3.508-6.296-4.465-9.458-2.05
		c-2.49,1.896-3.259,4.496-2.908,7.479c0.324,2.769,1.313,5.207,4.163,6.267c3.008,1.118,5.766,0.422,8.228-1.541
		c0.637-0.511,0.988-1.194,0.375-1.962c-0.618-0.771-1.257-0.396-1.854,0.076c-0.849,0.67-1.77,1.187-2.846,1.406
		c-2.24,0.451-4.504-0.75-5.075-2.703c-0.302-1.039-0.062-1.393,1.014-1.412C213.956,258.05,215.105,258.062,216.357,258.062z
		 M326.64,258.098c0-0.007,0-0.014,0-0.021c1.07,0,2.138,0.01,3.207,0c2.309-0.019,2.739-0.528,2.364-2.78
		c-0.513-3.102-2.471-5.343-5.213-5.966c-2.503-0.562-5.429,0.537-6.798,2.846c-1.829,3.076-1.992,6.356-0.161,9.478
		c2.575,4.392,8.678,3.634,11.409,0.981c0.553-0.534,0.824-1.223,0.236-1.901c-0.587-0.68-1.219-0.325-1.793,0.076
		c-0.68,0.476-1.343,0.972-2.146,1.241c-2.543,0.863-5.097-0.259-5.834-2.575c-0.307-0.967-0.067-1.351,0.931-1.371
		C324.11,258.075,325.375,258.098,326.64,258.098z M341.222,258.096c0-0.007,0-0.015,0-0.021c1.266,0,2.534,0.016,3.8-0.003
		c1.38-0.021,1.846-0.481,1.929-1.846c0.161-2.75-1.929-5.719-4.675-6.631c-2.858-0.947-5.793-0.005-7.41,2.469
		c-1.458,2.237-1.771,4.709-1.168,7.285c0.603,2.565,2.014,4.498,4.684,5.152c2.829,0.693,5.418,0.091,7.622-1.871
		c0.594-0.531,0.795-1.219,0.265-1.904c-0.564-0.729-1.185-0.388-1.759,0.043c-0.731,0.543-1.479,1.051-2.369,1.321
		c-2.413,0.739-4.815-0.312-5.607-2.461c-0.438-1.192-0.233-1.517,1.013-1.532C338.771,258.081,339.997,258.096,341.222,258.096z
		 M186.988,258.084v-0.007c1.228,0,2.455,0,3.682,0c0.04,0,0.08,0,0.12,0c1.387-0.039,1.937-0.644,1.787-2.027
		c-0.107-0.987-0.334-1.952-0.726-2.868c-1.956-4.57-7.952-5.33-11.004-1.406c-1.657,2.13-1.896,4.578-1.507,7.104
		c0.409,2.636,1.726,4.729,4.393,5.56c2.841,0.887,5.471,0.293,7.792-1.59c0.152-0.121,0.283-0.279,0.395-0.44
		c0.371-0.535,0.494-1.097,0.018-1.63c-0.506-0.568-1.076-0.404-1.596-0.027c-0.675,0.491-1.366,0.952-2.141,1.266
		c-2.579,1.043-5.41-0.209-6.077-2.658c-0.239-0.877,0.015-1.287,0.941-1.277C184.372,258.093,185.68,258.084,186.988,258.084z
		 M148.056,258.305c0-0.003,0-0.005,0-0.008c1.266,0,2.533,0.021,3.799-0.005c1.353-0.026,1.852-0.563,1.794-1.925
		c-0.052-1.202-0.365-2.361-0.907-3.422c-1.044-2.04-2.708-3.308-5.026-3.493c-2.51-0.202-4.584,0.662-6.03,2.808
		c-1.179,1.752-1.568,3.702-1.386,5.773c0.247,2.799,1.212,5.23,4.018,6.348c3.071,1.223,5.91,0.586,8.419-1.523
		c0.6-0.506,0.878-1.176,0.328-1.883c-0.554-0.711-1.188-0.428-1.773,0c-0.868,0.633-1.758,1.209-2.835,1.436
		c-2.306,0.488-4.594-0.689-5.188-2.689c-0.318-1.07-0.108-1.393,0.986-1.41C145.521,258.288,146.789,258.305,148.056,258.305z
		 M425.082,264.943c0.315,0,0.636,0.012,0.951-0.002c3.02-0.135,5.499-2.272,5.977-5.16c0.487-2.913-0.793-4.996-3.863-6.273
		c-0.658-0.273-1.34-0.492-2.003-0.755c-0.736-0.287-1.486-0.542-2.154-0.994c-0.819-0.555-1.282-1.307-1.148-2.31
		c0.134-1.031,0.746-1.717,1.729-2.07c1.397-0.51,2.636-0.076,3.844,0.623c0.788,0.459,1.6,0.65,2.146-0.326
		c0.521-0.932-0.085-1.541-0.807-1.938c-2.376-1.3-4.847-1.545-7.246-0.158c-1.748,1.012-2.732,2.599-2.665,4.714
		c0.069,2.036,1.252,3.263,2.962,4.092c0.604,0.294,1.242,0.515,1.863,0.775c0.979,0.413,1.991,0.776,2.941,1.261
		c1.312,0.664,1.797,1.885,1.426,3.292c-0.54,2.083-2.562,3.196-4.852,2.706c-0.954-0.204-1.746-0.732-2.601-1.143
		c-0.629-0.299-1.25-0.284-1.672,0.375c-0.398,0.617-0.286,1.203,0.199,1.735c0.353,0.388,0.793,0.652,1.27,0.854
		C422.562,264.747,423.789,265.011,425.082,264.943z M57.384,258.075c0.006-2.435-0.375-3.897-1.207-5.375
		c-2.184-3.878-7.889-4.33-10.512-0.737c-2.173,2.979-2.292,6.273-0.714,9.545c2.177,4.514,8.327,4.861,11.091,0.688
		C57.01,260.727,57.359,259.082,57.384,258.075z M391.151,257.282c-0.01,0-0.014,0-0.023,0c0,1.741-0.004,3.487,0.007,5.229
		c0,0.354-0.011,0.717,0.051,1.065c0.125,0.771,0.48,1.356,1.366,1.358c0.88,0.004,1.273-0.549,1.38-1.338
		c0.062-0.432,0.052-0.869,0.058-1.305c0.013-2.417-0.033-4.836,0.052-7.247c0.055-1.664,1.254-2.778,2.898-2.909
		c1.543-0.128,2.826,0.814,3.257,2.364c0.163,0.582,0.189,1.168,0.189,1.767c0,2.377,0,4.754,0.017,7.131
		c0.004,0.854,0.359,1.461,1.297,1.535c0.953,0.074,1.352-0.498,1.482-1.344c0.036-0.234,0.074-0.473,0.067-0.707
		c-0.031-2.81,0.159-5.619-0.165-8.428c-0.297-2.553-1.659-4.139-4.166-4.659c-1.483-0.306-2.823,0.04-4.097,0.8
		c-0.324,0.193-0.688,0.535-0.978-0.043c-0.382-0.754-0.979-1.03-1.766-0.74c-0.812,0.301-0.922,1.025-0.922,1.766
		C391.147,253.48,391.151,255.38,391.151,257.282z M405.877,257.364c-0.005,0-0.005,0-0.009,0c0,1.743-0.004,3.485,0.004,5.229
		c0.005,1.636,0.418,2.313,1.395,2.347c1.023,0.029,1.45-0.66,1.46-2.379c0.014-2.537-0.021-5.074,0.057-7.605
		c0.047-1.497,1.232-2.607,2.757-2.807c1.39-0.181,2.808,0.678,3.312,1.988c0.233,0.604,0.28,1.229,0.28,1.866
		c-0.011,2.459-0.022,4.914,0.009,7.371c0.016,1.271,0.87,1.903,1.929,1.481c0.813-0.326,0.897-1.08,0.906-1.787
		c0.032-2.969,0.181-5.94-0.194-8.9c-0.152-1.223-0.648-2.27-1.562-3.118c-1.708-1.579-4.132-1.778-6.519-0.536
		c-0.332,0.172-0.73,0.717-1.085,0.069c-0.406-0.742-0.974-1.06-1.759-0.786c-0.866,0.302-0.969,1.092-0.976,1.862
		C405.864,253.562,405.877,255.461,405.877,257.364z M194.556,256.971c0.006,0,0.012,0,0.018,0c0,2.059-0.028,4.118,0.012,6.176
		c0.017,0.877,0.398,1.56,1.421,1.547c1.013-0.014,1.375-0.666,1.385-1.566c0.014-1.586-0.006-3.171-0.005-4.752
		c0.004-1.387-0.117-2.779,0.142-4.148c0.295-1.572,1.428-2.51,2.976-2.565c1.606-0.06,2.83,0.842,3.261,2.386
		c0.183,0.654,0.239,1.319,0.237,1.998c-0.008,2.335-0.003,4.673,0.002,7.01c0.002,0.955,0.359,1.654,1.435,1.635
		c1.064-0.021,1.263-0.801,1.264-1.656c0-2.932,0.055-5.863-0.043-8.792c-0.124-3.636-3.384-5.846-6.847-4.722
		c-0.562,0.184-1.088,0.475-1.623,0.73c-0.334,0.156-0.68,0.354-0.909-0.109c-0.399-0.811-1.028-1.089-1.858-0.781
		c-0.825,0.309-0.857,1.07-0.862,1.793C194.546,253.09,194.556,255.029,194.556,256.971z M110.093,257.213c0.001,0,0.004,0,0.007,0
		c0,2.141-0.007,4.279,0.004,6.419c0.003,0.779,0.353,1.279,1.198,1.326c0.875,0.048,1.334-0.396,1.447-1.228
		c0.049-0.35,0.037-0.711,0.037-1.066c0.003-2.377-0.016-4.751,0.009-7.129c0.023-2.117,1.424-3.62,3.301-3.609
		c1.843,0.018,3.204,1.463,3.251,3.553c0.049,2.06,0.02,4.121,0.034,6.181c0.003,0.751-0.023,1.511,0.072,2.253
		c0.094,0.729,0.6,1.074,1.35,1.049c0.754-0.025,1.208-0.395,1.246-1.148c0.167-3.28,0.398-6.565-0.05-9.838
		c-0.329-2.414-1.831-3.897-4.231-4.344c-1.529-0.282-2.909,0.045-4.169,0.918c-0.409,0.285-0.726,0.453-0.995-0.179
		c-0.313-0.734-0.926-0.934-1.673-0.728c-0.786,0.218-0.842,0.846-0.841,1.51C110.094,253.172,110.093,255.191,110.093,257.213z
		 M224.216,255.025c0.004,0,0.01,0,0.015,0c0,1.386-0.046,2.772,0.009,4.156c0.128,3.213,2.127,5.152,5.583,5.478
		c3.004,0.284,5.663-1.384,6.223-4.151c0.673-3.32,0.279-6.705,0.248-10.062c-0.002-0.191-0.093-0.387-0.169-0.566
		c-0.228-0.539-0.662-0.769-1.23-0.748c-0.559,0.019-0.984,0.253-1.206,0.799c-0.183,0.457-0.169,0.932-0.171,1.406
		c-0.009,2.612,0.027,5.228-0.043,7.839c-0.052,1.934-1.292,3.012-3.256,3.01c-1.865-0.002-2.944-1.1-3.129-2.992
		c-0.274-2.808-0.112-5.614-0.169-8.422c-0.018-0.902-0.294-1.566-1.344-1.573c-1.051-0.007-1.353,0.65-1.356,1.552
		C224.211,252.174,224.216,253.602,224.216,255.025z M252.807,264.484c1.092,0.104,2.235-0.137,3.313-0.719
		c3.012-1.629,3.161-5.281,0.282-7.08c-1.42-0.887-3.034-1.356-4.527-2.097c-0.686-0.338-1.419-0.659-1.275-1.621
		c0.137-0.937,0.84-1.263,1.666-1.452c0.993-0.229,1.883,0.049,2.735,0.517c0.382,0.209,0.733,0.471,1.116,0.679
		c0.589,0.32,1.152,0.287,1.611-0.242c0.465-0.543,0.342-1.097-0.017-1.638c-0.271-0.414-0.664-0.678-1.093-0.893
		c-1.678-0.853-3.42-1.185-5.292-0.753c-1.866,0.431-3.332,1.87-3.55,3.561c-0.222,1.734,0.488,2.91,2.458,3.908
		c1.379,0.693,2.8,1.307,4.188,1.98c0.724,0.352,1.255,0.896,1.14,1.77c-0.123,0.904-0.808,1.369-1.607,1.551
		c-1.016,0.229-2.053,0.191-3.008-0.326c-0.66-0.359-1.304-0.754-1.979-1.084c-0.481-0.236-1.021-0.305-1.437,0.131
		c-0.428,0.447-0.418,1.01-0.199,1.559c0.198,0.502,0.608,0.817,1.053,1.094C249.704,264.136,251.126,264.557,252.807,264.484z
		 M375.839,283.697c-0.038-0.788-0.064-1.225-0.074-1.655c-0.062-2.722-1.585-3.712-4.077-2.64c-0.327,0.141-0.64,0.32-0.944,0.496
		c-0.315,0.178-0.612,0.168-0.866-0.088c-1.21-1.216-2.507-0.865-3.823-0.229c-0.305,0.148-0.573,0.434-0.948,0.068
		c-0.798-0.771-1.784-0.426-2.706-0.375c-0.44,0.025-0.72,0.332-0.737,0.793c-0.013,0.453,0.051,0.883,0.555,1.07
		c0.288,0.106,0.729,0.061,0.771,0.442c0.145,1.454,0.183,2.919-0.027,4.371c-0.04,0.299-0.402,0.343-0.668,0.415
		c-0.656,0.173-0.703,0.671-0.648,1.216c0.052,0.563,0.449,0.688,0.93,0.692c1.064,0.004,2.136,0,3.202,0.002
		c0.559,0,0.914-0.215,0.926-0.824c0.008-0.5,0.004-0.971-0.688-1.008c-0.509-0.027-0.848-0.322-0.815-0.836
		c0.062-0.873-0.023-1.73-0.078-2.601c-0.063-1.024,1.03-1.925,2.174-1.901c1.231,0.025,1.172,0.974,1.2,1.791
		c0.042,1.146,0.008,2.293,0.015,3.442c0.008,1.989,0.599,2.438,2.551,2.003c0.517-0.115,0.892-0.271,0.901-0.887
		c0.004-0.574-0.07-1.033-0.793-1.057c-0.358-0.015-0.608-0.231-0.627-0.599c-0.056-1.144-0.166-2.301,0.085-3.426
		c0.184-0.832,1.437-1.56,2.265-1.367c0.941,0.218,0.854,1.015,0.858,1.724c0.013,1.188,0,2.375,0.009,3.562
		c0.008,1.896,1.023,2.602,2.851,2.016c0.426-0.14,0.708-0.354,0.741-0.808c0.031-0.464-0.058-0.957-0.562-1.05
		c-1.121-0.207-1.047-1.008-1.011-1.814C375.792,284.209,375.835,283.775,375.839,283.697z M425.843,279.021
		c-0.469,0.043-0.668,0.047-0.857,0.082c-1.815,0.316-2.983,1.375-3.534,3.117c-0.634,1.987-0.311,3.809,1.21,5.25
		c1.375,1.307,3.043,1.361,4.771,0.687c0.297-0.115,0.613-0.562,0.941-0.201c0.246,0.269,0.091,0.69,0.004,1.03
		c-0.402,1.494-2.252,2.135-3.956,1.279c-0.788-0.396-1.399-0.406-1.812,0.358c-0.492,0.91,0.348,1.172,0.91,1.466
		c3.416,1.783,7.021-0.378,7.113-4.279c0.047-1.819,0.005-3.644,0.021-5.467c0.004-0.418-0.108-1.016,0.453-1.09
		c0.852-0.109,1.255-0.5,1.069-1.324c-0.187-0.841-0.956-0.806-1.547-0.711C428.924,279.49,427.237,279.98,425.843,279.021z
		 M298.891,285.843c-0.009,0-0.019,0-0.027,0c0.023,0.515-0.008,1.038,0.088,1.538c0.174,0.938,0.812,1.266,1.607,0.749
		c0.572-0.373,0.953-0.088,1.418,0.101c2.315,0.936,4.824-0.033,5.668-2.182c0.856-2.182-0.254-4.273-2.779-5.178
		c-0.854-0.307-1.748-0.51-2.604-0.812c-0.736-0.263-1.47-0.684-1.244-1.602c0.219-0.91,1.008-1.352,1.908-1.283
		c1.096,0.083,2.104,0.43,2.475,1.67c0.188,0.627,0.69,0.695,1.244,0.611c0.572-0.088,0.623-0.525,0.63-0.979
		c0.005-0.716,0.018-1.427-0.007-2.138c-0.018-0.532-0.328-1.101-0.844-0.88c-1.16,0.494-2.154-0.092-3.219-0.244
		c-1.831-0.264-3.646,0.883-4.155,2.605c-0.545,1.853,0.188,3.406,2.081,4.225c1.051,0.454,2.152,0.789,3.237,1.156
		c0.829,0.277,1.465,0.729,1.306,1.695c-0.154,0.949-0.732,1.543-1.755,1.633c-1.496,0.133-2.54-0.53-3.041-2.057
		c-0.201-0.606-0.487-1.002-1.163-0.928c-0.729,0.083-0.812,0.645-0.824,1.229C298.885,285.129,298.891,285.488,298.891,285.843z
		 M125.795,258.275c0.008,0,0.015,0,0.023,0c0,0.317-0.002,0.633,0,0.951c0.006,1.461-0.012,2.924,0.036,4.388
		c0.026,0.753,0.432,1.267,1.247,1.321c0.859,0.06,1.347-0.385,1.485-1.199c0.072-0.428,0.077-0.866,0.079-1.301
		c0.007-2.965,0.011-5.93,0-8.896c-0.002-0.781,0.101-1.413,1.074-1.517c0.677-0.072,1.072-0.515,1.068-1.205
		c-0.006-0.715-0.442-1.073-1.129-1.117c-0.899-0.056-1.107-0.616-1.053-1.386c0.047-0.67,0.102-1.344-0.049-2.006
		c-0.17-0.755-0.628-1.163-1.425-1.154c-0.826,0.012-1.233,0.494-1.307,1.251c-0.065,0.666-0.062,1.342-0.043,2.013
		c0.018,0.732-0.169,1.221-1.021,1.271c-0.677,0.042-1.089,0.438-1.111,1.152c-0.022,0.729,0.413,1.121,1.064,1.192
		c0.884,0.095,1.084,0.594,1.071,1.377C125.776,255.035,125.795,256.657,125.795,258.275z M457.025,258.165
		c0,0.753-0.014,1.503,0.004,2.255c0.028,1.104-0.103,2.214,0.111,3.312c0.146,0.75,0.543,1.232,1.362,1.203
		c0.816-0.028,1.195-0.549,1.306-1.285c0.065-0.428,0.059-0.867,0.059-1.301c0.004-2.89,0.008-5.775,0-8.662
		c-0.007-0.746,0.129-1.322,1.031-1.422c0.652-0.072,1.112-0.425,1.107-1.156c-0.004-0.769-0.422-1.146-1.172-1.206
		c-0.765-0.058-0.968-0.554-0.964-1.232c0.004-0.671,0.027-1.349-0.047-2.013c-0.089-0.765-0.562-1.208-1.354-1.228
		c-0.755-0.019-1.148,0.41-1.315,1.111c-0.165,0.705-0.152,1.416-0.091,2.125c0.059,0.693-0.09,1.171-0.914,1.193
		c-0.745,0.019-1.188,0.442-1.224,1.183c-0.033,0.721,0.454,1.096,1.094,1.182c0.902,0.119,1.023,0.688,1.017,1.434
		C457.013,255.16,457.025,256.663,457.025,258.165z M434.68,258.146c0.018,0,0.04,0,0.06,0c0,1.778-0.036,3.556,0.02,5.332
		c0.027,0.806,0.398,1.479,1.375,1.455c0.96-0.021,1.271-0.679,1.358-1.496c0.043-0.391,0.026-0.789,0.026-1.185
		c0.006-2.924,0.006-5.851,0.006-8.774c0-0.683,0.068-1.301,0.982-1.276c0.741,0.016,1.093-0.41,1.129-1.095
		c0.043-0.71-0.328-1.125-1.038-1.179c-0.888-0.064-1.094-0.606-1.083-1.378c0.01-0.67,0.004-1.348-0.093-2.009
		c-0.105-0.704-0.575-1.113-1.32-1.111c-0.757,0.004-1.168,0.405-1.241,1.148c-0.065,0.589-0.181,1.181-0.167,1.768
		c0.022,0.811-0.157,1.388-1.079,1.52c-0.621,0.088-1.002,0.503-1.012,1.135c-0.015,0.688,0.391,1.136,1.059,1.22
		c0.888,0.115,1.042,0.66,1.027,1.42C434.66,255.143,434.68,256.646,434.68,258.146z M396.142,288.27c0,0.004,0,0.01,0,0.014
		c0.516,0,1.03-0.004,1.543,0c0.523,0.004,0.965-0.111,1.021-0.732c0.042-0.549-0.009-1.054-0.74-1.096
		c-0.348-0.021-0.682-0.204-0.714-0.525c-0.112-1.296-0.344-2.632,0.203-3.856c0.403-0.91,1.367-1.089,2.242-0.972
		c0.861,0.119,0.687,0.938,0.698,1.543c0.038,1.227,0.054,2.455,0.034,3.68c-0.026,2.167,1.199,2.296,2.827,1.979
		c0.438-0.086,0.703-0.346,0.735-0.801c0.033-0.458-0.023-0.936-0.547-1.054c-0.898-0.203-0.88-0.853-0.892-1.554
		c-0.022-1.34,0.146-2.689-0.188-4.019c-0.358-1.433-1.4-2.036-2.835-1.872c-0.797,0.092-1.642,1.121-2.222,0.439
		c-0.422-0.492-0.134-1.588-0.156-2.416c-0.023-0.659-0.105-1.313-0.862-1.524c-0.81-0.226-1.668-0.313-2.405,0.174
		c-0.634,0.423-0.411,1.458,0.367,1.63c0.709,0.154,0.898,0.519,0.895,1.15c-0.009,2.294-0.005,4.587,0,6.883
		c0,0.621-0.134,1.096-0.898,1.117c-0.652,0.014-0.741,0.477-0.71,0.998c0.034,0.511,0.297,0.804,0.827,0.812
		C394.957,288.273,395.549,288.27,396.142,288.27z M41.713,254.232c-0.017,0-0.034,0-0.05,0c0-2.848,0.006-5.695-0.005-8.542
		c-0.003-0.51-0.049-1.029-0.133-1.532c-0.122-0.729-0.617-1.093-1.333-1.107c-0.745-0.014-1.162,0.436-1.32,1.126
		c-0.071,0.303-0.099,0.625-0.095,0.941c0.064,6.088-0.051,12.178,0.212,18.266c0.04,0.923,0.276,1.74,1.353,1.714
		c1.013-0.029,1.38-0.759,1.376-1.724C41.706,260.326,41.713,257.279,41.713,254.232z M439.663,288.273c0.558,0,1.113,0.004,1.664,0
		c0.511,0,0.848-0.217,0.886-0.75c0.031-0.492,0.008-0.99-0.653-1.056c-0.39-0.036-0.778-0.19-0.812-0.569
		c-0.103-1.256-0.305-2.547,0.168-3.756c0.379-0.957,1.344-1.131,2.204-1.063c0.946,0.071,0.765,0.955,0.783,1.601
		c0.036,1.105,0.022,2.219,0.036,3.325c0.022,2.117,0.46,2.49,2.58,2.279c0.47-0.046,0.892-0.142,0.966-0.681
		c0.068-0.502-0.021-1.011-0.579-1.16c-0.824-0.221-0.835-0.813-0.844-1.478c-0.022-1.304,0.12-2.614-0.152-3.909
		c-0.357-1.671-1.483-2.33-3.166-1.955c-0.656,0.146-1.402,0.967-1.913,0.391c-0.364-0.412-0.148-1.357-0.161-2.062
		c-0.042-1.816-1.214-2.589-2.943-1.949c-0.48,0.18-0.688,0.51-0.676,0.994c0.016,0.432,0.176,0.817,0.659,0.848
		c0.801,0.052,0.949,0.533,0.949,1.21c-0.016,2.22-0.011,4.437-0.005,6.655c0,0.646-0.089,1.185-0.917,1.239
		c-0.632,0.042-0.729,0.519-0.691,1.037c0.043,0.597,0.403,0.815,0.954,0.813C438.558,288.273,439.112,288.277,439.663,288.273z
		 M93.516,249.111c0-1.426,0.005-2.85-0.002-4.274c-0.002-0.565-0.085-1.123-0.567-1.496c-0.436-0.339-0.938-0.429-1.449-0.172
		c-0.63,0.319-0.68,0.918-0.678,1.529c0.005,6.172,0.01,12.346,0.02,18.518c0,0.236,0.003,0.479,0.06,0.707
		c0.165,0.659,0.497,1.216,1.262,1.197c0.687-0.019,1.235-0.364,1.377-1.084c0.114-0.58,0.166-1.175,0.185-1.765
		C93.872,257.882,93.517,253.499,93.516,249.111z M240.639,249.113c-0.663,0.025-1.139,0.315-1.311,0.985
		c-0.066,0.264-0.099,0.542-0.099,0.816c-0.005,3.916-0.017,7.829,0.002,11.742c0.006,1.418,0.604,2.016,1.708,1.805
		c1.035-0.197,1.107-1.023,1.119-1.826c0.033-2.333,0.022-4.666,0.035-6.996c0.009-1.707,0.872-2.818,2.424-3.438
		c0.365-0.146,0.748-0.253,1.12-0.383c0.808-0.285,1.301-0.81,1.086-1.703c-0.236-0.978-1.023-1.121-1.869-1.017
		c-0.732,0.093-1.348,0.481-1.848,0.999c-0.533,0.551-0.891,0.76-1.171-0.197C241.677,249.354,241.215,249.109,240.639,249.113z
		 M135.28,251.178c-0.161-0.404-0.258-0.702-0.393-0.978c-0.253-0.514-0.686-0.77-1.255-0.714c-0.544,0.056-1.024,0.292-1.183,0.847
		c-0.129,0.446-0.176,0.935-0.177,1.399c-0.016,3.408-0.019,6.812,0.001,10.221c0.004,0.667,0.099,1.341,0.206,2.001
		c0.104,0.628,0.521,0.96,1.163,0.979c0.664,0.02,1.178-0.238,1.352-0.912c0.096-0.379,0.114-0.782,0.116-1.176
		c0.011-1.978-0.004-3.961,0.01-5.938c0.017-2.72,0.849-3.884,3.432-4.718c0.864-0.274,1.475-0.684,1.201-1.684
		c-0.282-1.022-1.083-1.164-1.988-0.985C136.778,249.714,136.136,250.458,135.28,251.178z M171.211,257.104c0.004,0,0.007,0,0.011,0
		c0,2.019-0.037,4.039,0.015,6.054c0.032,1.27,0.737,1.805,1.834,1.536c0.909-0.221,0.974-0.981,0.982-1.688
		c0.02-1.937-0.015-3.876-0.043-5.812c-0.035-2.348,0.481-4.5,3.499-5.111c0.115-0.023,0.229-0.062,0.339-0.105
		c0.627-0.246,0.953-0.697,0.896-1.377c-0.062-0.728-0.474-1.156-1.197-1.258c-0.934-0.132-1.722,0.203-2.369,0.844
		c-0.561,0.555-0.989,1.087-1.409-0.156c-0.26-0.767-1.03-0.817-1.719-0.551c-0.76,0.291-0.828,1.006-0.833,1.689
		C171.202,253.145,171.211,255.125,171.211,257.104z M412.8,288.282c0-0.005,0-0.011,0-0.015c0.594,0,1.188,0.006,1.778-0.002
		c0.459-0.008,0.752-0.238,0.799-0.707c0.04-0.447,0.055-0.945-0.52-1.035c-0.798-0.125-0.891-0.652-0.887-1.293
		c0.01-0.752-0.015-1.506,0.01-2.256c0.042-1.199,0.943-2.051,2.183-1.951c1.121,0.088,1.029,1.062,1.062,1.812
		c0.056,1.384,0.023,2.771,0.023,4.153c0,0.882,0.411,1.324,1.305,1.296c0.401-0.013,0.793,0.002,1.188-0.007
		c0.417-0.01,0.814-0.086,0.897-0.584c0.084-0.481,0.116-1.082-0.435-1.217c-1.023-0.244-0.987-0.951-0.973-1.726
		c0.013-0.948,0.036-1.899-0.021-2.847c-0.14-2.56-1.719-3.534-4.041-2.489c-0.614,0.274-1.14,0.424-1.77,0.008
		c-0.75-0.494-1.603-0.285-2.422-0.153c-0.476,0.076-0.621,0.434-0.612,0.877c0.004,0.399-0.023,0.873,0.491,0.941
		c0.94,0.123,0.963,0.77,0.954,1.477c-0.01,0.949-0.006,1.899-0.01,2.848c0,0.521-0.115,0.951-0.75,1.003
		c-0.752,0.058-0.71,0.606-0.683,1.135c0.032,0.654,0.496,0.729,1.007,0.731C411.851,288.284,412.323,288.282,412.8,288.282z
		 M383.493,284.251v-0.007c0.828,0,1.663-0.037,2.492,0.007c1.075,0.062,1.314-0.517,1.14-1.413
		c-0.078-0.382-0.212-0.765-0.388-1.115c-0.941-1.908-3.015-2.99-4.986-2.641c-2.378,0.424-3.842,2.003-4.096,4.423
		c-0.199,1.913,0.991,3.854,2.854,4.642c2.001,0.846,5.031,0.287,6.199-1.131c0.417-0.515,0.4-0.902-0.235-1.222
		c-0.687-0.347-1.172-0.063-1.719,0.349c-1.565,1.176-3.74,0.75-4.495-0.824c-0.323-0.676-0.209-1.068,0.621-1.066
		C381.751,284.251,382.622,284.251,383.493,284.251z M472.195,284.251v-0.007c0.75,0,1.501,0.007,2.257,0
		c1.324-0.02,1.621-0.396,1.32-1.661c-0.46-1.94-2.633-3.616-4.662-3.595c-2.22,0.025-4.206,1.628-4.619,3.73
		c-0.438,2.211,0.397,4.2,2.192,5.193c1.981,1.097,4.831,0.787,6.448-0.703c0.358-0.327,0.801-0.672,0.339-1.18
		c-0.395-0.438-0.937-0.608-1.502-0.297c-0.272,0.15-0.484,0.404-0.746,0.582c-1.422,0.949-3.497,0.5-4.249-0.918
		c-0.359-0.682-0.327-1.153,0.608-1.148C470.454,284.251,471.324,284.251,472.195,284.251z M453.861,284.244
		c0.676,0,1.348-0.046,2.02,0.01c1.9,0.157,1.905-0.697,1.428-2.091c-0.693-2.009-2.904-3.366-4.938-3.122
		c-2.226,0.266-3.971,1.886-4.197,3.889c-0.301,2.654,0.656,4.436,2.835,5.271c2.039,0.784,5.189,0.12,6.154-1.287
		c0.309-0.449,0.267-0.788-0.223-1.07c-0.699-0.403-1.229-0.151-1.822,0.304c-1.441,1.102-3.378,0.834-4.3-0.53
		c-0.218-0.322-0.496-0.673-0.291-1.085c0.198-0.394,0.626-0.272,0.963-0.279C452.28,284.234,453.073,284.246,453.861,284.244z
		 M321.745,288.316c0.118-0.01,0.237-0.02,0.354-0.022c0.526-0.022,1.176,0.209,1.311-0.621c0.121-0.731-0.12-1.214-0.902-1.396
		c-0.562-0.131-0.5-0.646-0.509-1.073c-0.019-1.146-0.004-2.294-0.042-3.438c-0.043-1.121-0.53-1.996-1.608-2.414
		c-1.706-0.666-3.344-0.447-4.853,0.563c-0.398,0.269-0.996,0.626-0.604,1.219c0.363,0.55,0.988,0.608,1.595,0.294
		c0.312-0.162,0.604-0.38,0.926-0.523c0.933-0.416,1.713-0.131,2.291,0.646c0.255,0.344,0.454,0.846,0.219,1.23
		c-0.278,0.447-0.708,0.029-1.065-0.033c-0.232-0.039-0.463-0.122-0.695-0.156c-1.705-0.244-3.299,0.809-3.71,2.44
		c-0.339,1.34,0.473,2.835,1.85,3.312c0.972,0.337,1.956,0.263,2.885-0.188c0.413-0.199,0.77-0.363,1.194-0.023
		C320.785,288.452,321.269,288.423,321.745,288.316z M351.389,283.729c-0.015,2.856,1.816,4.773,4.577,4.793
		c2.918,0.023,4.897-1.912,4.883-4.782c-0.013-2.688-2.056-4.735-4.745-4.751C353.408,278.971,351.405,280.986,351.389,283.729z
		 M346.786,288.521c2.085,0.017,3.354-0.922,3.518-2.582c0.157-1.619-0.844-2.746-2.846-3.184c-0.578-0.125-1.168-0.211-1.746-0.342
		c-0.395-0.092-0.795-0.246-0.806-0.732c-0.014-0.469,0.342-0.695,0.728-0.834c0.902-0.326,1.676-0.059,2.167,0.721
		c0.392,0.613,0.802,0.984,1.534,0.729c0.731-0.256,0.454-0.914,0.505-1.427c0.027-0.312,0.011-0.636-0.027-0.947
		c-0.051-0.405-0.319-0.721-0.707-0.644c-0.979,0.197-1.873-0.158-2.809-0.284c-1.522-0.201-3.088,0.825-3.396,2.181
		c-0.324,1.414,0.386,2.581,2.016,3.163c0.777,0.277,1.604,0.418,2.409,0.625c0.449,0.113,0.861,0.332,0.853,0.845
		c-0.014,0.551-0.449,0.816-0.94,0.918c-1.083,0.222-1.951-0.074-2.5-1.103c-0.269-0.5-0.695-0.785-1.269-0.649
		c-0.661,0.151-0.634,0.723-0.636,1.242c-0.002,0.434,0.006,0.869,0.021,1.305c0.018,0.478,0.281,0.707,0.75,0.742
		C344.665,288.346,345.727,288.438,346.786,288.521z M278.268,256.675c0-2.06,0-4.116,0-6.174c0-0.929-0.365-1.54-1.386-1.533
		c-0.969,0.007-1.306,0.623-1.31,1.48c-0.01,4.116-0.01,8.233-0.002,12.348c0.002,0.886,0.31,1.61,1.328,1.617
		c1.092,0.01,1.373-0.744,1.373-1.685C278.268,260.711,278.27,258.693,278.268,256.675z M326.981,288.279
		c0.631,0,1.267-0.006,1.897,0.003c0.619,0.002,0.969-0.265,0.967-0.921c0-0.605-0.208-1.01-0.897-0.944
		c-0.521,0.049-0.899-0.167-0.936-0.677c-0.09-1.26-0.223-2.553,0.357-3.731c0.456-0.927,1.463-0.811,2.287-1.006
		c0.042-0.009,0.078-0.022,0.116-0.028c0.646-0.138,0.783-0.595,0.727-1.164c-0.069-0.672-0.538-0.836-1.102-0.791
		c-0.726,0.062-1.379,0.342-1.983,0.734c-0.228,0.145-0.426,0.526-0.765,0.068c-0.771-1.041-1.863-0.59-2.85-0.521
		c-0.449,0.031-0.657,0.428-0.647,0.863c0.011,0.454,0.142,0.988,0.661,0.977c1.255-0.033,1.141,0.791,1.136,1.596
		c-0.011,0.869,0,1.74,0,2.611c0,0.633-0.194,1.099-0.94,1.08c-0.71-0.02-0.867,0.438-0.854,1.014
		c0.02,0.67,0.454,0.854,1.043,0.844C325.792,288.271,326.386,288.282,326.981,288.279z M461.289,288.279c0,0,0-0.008,0-0.012
		c0.714,0,1.422,0.012,2.132-0.004c0.551-0.012,0.75-0.365,0.75-0.865c0.004-0.455-0.047-1.002-0.608-0.961
		c-1.285,0.094-1.272-0.709-1.277-1.599c-0.016-2.86,0.103-3.062,2.749-3.839c0.676-0.199,0.875-0.609,0.786-1.234
		c-0.092-0.672-0.587-0.791-1.142-0.744c-0.722,0.065-1.37,0.349-1.968,0.761c-0.235,0.165-0.431,0.479-0.766,0.044
		c-0.73-0.967-1.782-0.623-2.737-0.551c-0.509,0.039-0.719,0.457-0.731,0.936c-0.011,0.469,0.143,0.964,0.677,0.938
		c1.152-0.057,1.147,0.656,1.126,1.465c-0.023,0.906-0.005,1.816-0.005,2.725c0.005,0.627-0.173,1.104-0.927,1.084
		c-0.694-0.02-0.877,0.422-0.866,1.003c0.02,0.66,0.435,0.867,1.031,0.857C460.102,288.271,460.695,288.279,461.289,288.279z
		 M313.426,280.189c-0.018-0.412-0.083-0.895-0.579-0.89c-1.078,0.005-1.062-0.684-1.062-1.438c-0.002-0.375,0.178-0.896-0.23-1.084
		c-0.458-0.209-0.786,0.265-1.103,0.529c-0.237,0.195-0.496,0.469-0.558,0.748c-0.125,0.61-0.389,0.985-0.931,1.375
		c-0.581,0.422-0.632,1.273,0.138,1.654c0.663,0.328,0.673,0.789,0.679,1.35c0.009,1.348-0.033,2.694,0.038,4.039
		c0.087,1.607,1.512,2.566,2.896,2.039c0.523-0.199,0.743-0.553,0.718-1.092c-0.022-0.42-0.1-0.846-0.615-0.857
		c-0.972-0.024-1.034-0.65-1.026-1.383c0.018-0.988,0.016-1.98,0.011-2.971c-0.004-0.584,0.157-1.02,0.84-1.057
		C313.247,281.119,313.444,280.743,313.426,280.189z M392.838,280.211c-0.009-0.361-0.004-0.846-0.444-0.85
		c-1.277-0.016-1.19-0.879-1.199-1.731c-0.004-0.304,0.094-0.681-0.259-0.851c-0.354-0.17-0.58,0.16-0.83,0.324
		c-1.006,0.66-0.965,2.065-1.992,2.767c-0.277,0.192-0.194,0.993,0.339,1.212c0.772,0.32,0.74,0.925,0.74,1.568
		c0,1.307-0.046,2.617,0.042,3.92c0.105,1.582,1.649,2.521,2.979,1.906c0.453-0.209,0.648-0.549,0.625-1.041
		c-0.017-0.477-0.138-0.875-0.718-0.892c-0.829-0.024-0.922-0.58-0.918-1.229c0.011-0.989,0.015-1.98-0.004-2.971
		c-0.009-0.68,0.147-1.168,0.949-1.209C392.718,281.104,392.843,280.695,392.838,280.211z M335.862,288.645
		c0.567-0.101,1.252-0.148,1.325-0.992c0.046-0.478,0.05-1.049-0.604-1.084c-0.967-0.051-1.028-0.662-1.018-1.389
		c0.015-0.947,0.018-1.896,0.005-2.845c-0.014-0.672,0.14-1.168,0.943-1.199c0.574-0.022,0.691-0.436,0.686-0.915
		c-0.004-0.359,0.009-0.851-0.431-0.851c-1.272-0.009-1.203-0.86-1.203-1.718c0-0.983-0.489-0.93-1.13-0.51
		c-0.304,0.199-0.556,0.461-0.668,0.81c-0.188,0.601-0.406,1.077-1.017,1.478c-0.615,0.408-0.598,1.268,0.097,1.686
		c0.642,0.383,0.715,0.854,0.71,1.471c-0.006,1.305-0.026,2.607,0.034,3.911C333.658,287.82,334.578,288.671,335.862,288.645z
		 M408.337,283.003c-0.004,0-0.009,0-0.013,0c0-0.795,0.009-1.588-0.006-2.38c-0.01-0.572-0.079-1.18-0.735-1.342
		c-0.812-0.199-1.683-0.293-2.401,0.236c-0.484,0.356-0.314,1.418,0.271,1.562c0.862,0.209,0.879,0.772,0.87,1.435
		c-0.004,0.834-0.02,1.666,0.005,2.498c0.019,0.68-0.047,1.238-0.867,1.447c-0.587,0.15-0.569,0.697-0.504,1.182
		c0.065,0.489,0.422,0.633,0.858,0.635c0.988,0.006,1.98,0.008,2.973,0.004c0.426,0,0.808-0.104,0.882-0.603
		c0.069-0.479,0.121-0.997-0.5-1.167c-0.737-0.199-0.854-0.723-0.835-1.369C408.352,284.428,408.337,283.714,408.337,283.003z
		 M276.956,247.125c0.931-0.021,1.538-0.65,1.543-1.593c0.004-0.994-0.655-1.644-1.644-1.615c-0.996,0.03-1.567,0.679-1.52,1.722
		C275.382,246.604,275.975,247.148,276.956,247.125z"/>
	<path fill="#FFFFFF" stroke="#FFFFFF" stroke-miterlimit="10" d="M125.593,153.66c1.868,0.394,3.777,0.194,5.664,0.415
		c2.739,0.319,2.77,0.285,2.378,3.016c-1.256,8.734-2.499,17.471-3.738,26.208c-0.21,1.478-0.487,1.74-2.014,1.547
		c-11.472-1.444-22.506,0.463-33.132,4.701c-7.851,3.127-14.851,7.709-21.062,13.501c-4.878,4.549-8.948,9.717-12.406,15.391
		c-1.088,1.783-1.221,1.832-3.034,0.805c-7.856-4.45-15.714-8.894-23.571-13.336c-0.206-0.119-0.415-0.234-0.624-0.348
		c-1.218-0.654-1.317-0.96-0.626-2.122c2.755-4.638,5.773-9.091,9.195-13.266c8.674-10.587,19.067-19.08,31.221-25.361
		c11.051-5.708,22.795-9.232,35.16-10.647c1.725-0.197,3.472-0.142,5.178-0.503C117.984,153.66,121.789,153.66,125.593,153.66z"/>
	<path fill="#FFFFFF" stroke="#FFFFFF" stroke-miterlimit="10" d="M19.559,252.324c0.145-0.451,0.308-0.898,0.436-1.354
		c1.996-7.098,9.983-7.704,13.966-5.14c0.458,0.295,0.865,0.691,1.248,1.084c0.461,0.478,0.576,1.042,0.163,1.617
		c-0.437,0.611-1.033,0.688-1.686,0.4c-0.288-0.125-0.571-0.282-0.819-0.475c-3.954-3.059-9.157-1.726-10.277,4.266
		c-0.512,2.747-0.182,5.365,1.523,7.698c1.446,1.974,4.074,2.735,6.484,1.854c2.074-0.758,3.769-3.321,3.675-5.492
		c-0.031-0.738-0.316-1.096-1.079-1.07c-0.75,0.025-1.503,0-2.256-0.005c-0.792-0.002-1.311-0.373-1.354-1.179
		c-0.043-0.799,0.412-1.25,1.199-1.354c1.617-0.214,3.234-0.226,4.848,0.039c0.816,0.133,1.272,0.615,1.324,1.436
		c0.13,2.121-0.052,4.203-0.944,6.164c-0.75,1.648-1.919,2.912-3.652,3.545c-5.651,2.064-10.642-0.188-12.379-5.812
		c-0.128-0.415-0.278-0.821-0.419-1.231C19.559,255.65,19.559,253.988,19.559,252.324z"/>
	<path fill="#FFFFFF" stroke="#FFFFFF" stroke-miterlimit="10" d="M480.072,288.225c-0.315,0.041-0.63,0.086-0.945,0.116
		c-0.871,0.089-1.375-0.278-1.395-1.182c-0.02-0.962,0.5-1.372,1.422-1.288c0.312,0.027,0.611,0.139,0.918,0.213
		C480.072,286.798,480.072,287.511,480.072,288.225z"/>
	<path fill="#FFFFFF" stroke="#FFFFFF" stroke-miterlimit="10" d="M120.021,353.787c-10.952-0.146-21.934-1.891-32.616-5.432
		c-13.363-4.436-25.156-11.553-35.407-21.146c-10.906-10.205-19.328-22.18-24.837-36.124c-1.309-3.315-2.51-6.672-3.482-10.106
		c-0.362-1.283-0.266-1.521,1.038-1.822c7.912-1.822,15.827-3.633,23.742-5.443c1.505-0.344,3.014-0.67,4.521-1.004
		c0.802-0.178,1.264,0.135,1.507,0.928c2.306,7.482,5.735,14.438,10.314,20.77c3.56,4.918,7.776,9.269,12.556,13.064
		c5.216,4.141,10.91,7.405,16.985,10.137c6.112,2.748,12.485,4.332,19.08,5.052c11.817,1.284,23.202-0.566,34.161-5.14
		c5.663-2.365,10.879-5.482,15.773-9.174c4.908-3.701,9.198-8.022,12.779-12.984c4.802-6.654,8.585-13.859,10.966-21.752
		c0.547-1.812,0.791-1.985,2.374-1.562c8.645,2.326,17.287,4.659,25.927,7.001c1.496,0.405,1.513,0.507,1.074,1.979
		c-1.911,6.429-4.114,12.733-7.3,18.67c-2.156,4.019-4.354,8.02-7.106,11.654c-4.439,5.869-9.381,11.273-14.718,16.379
		c-6.929,6.625-14.794,11.776-23.31,16.004c-7.304,3.619-14.964,6.306-22.992,7.83c-5.677,1.078-11.391,1.908-17.187,2.065
		C122.679,353.662,121.501,353.889,120.021,353.787z"/>
	<path fill="#FFFFFF" stroke="#FFFFFF" stroke-miterlimit="10" d="M135.797,185.101c0.22-0.751,0.508-1.615,0.719-2.498
		c1.977-8.277,3.943-16.558,5.904-24.84c0.369-1.557,0.542-1.687,2.117-1.274c15.5,4.049,29.413,11.131,41.466,21.751
		c5.869,5.173,11.091,10.935,15.618,17.32c1.013,1.425,0.936,1.629-0.517,2.623c-7.319,5.011-14.634,10.025-21.95,15.039
		c-1.23,0.842-1.505,0.817-2.408-0.411c-4.394-5.983-9.608-11.163-15.7-15.382c-7.204-4.988-14.908-8.991-23.581-10.835
		C136.687,186.425,135.85,186.31,135.797,185.101z"/>
	<path fill="#FFFFFF" stroke="#FFFFFF" stroke-miterlimit="10" d="M218.513,235.603c-0.002,1.111-0.812,1.09-1.433,1.186
		c-2.424,0.363-4.854,0.713-7.29,1.001c-5.696,0.671-11.386,1.38-17.054,2.255c-1.014,0.158-2.044,0.216-3.063,0.339
		c-0.777,0.094-1.066-0.376-1.218-1.005c-0.361-1.501-0.687-3.013-1.071-4.506c-1.57-6.109-4.167-11.781-7.436-17.151
		c-1.108-1.824-1.09-1.986,0.727-3.137c7.39-4.682,14.772-9.376,22.153-14.072c1.381-0.88,1.687-0.843,2.533,0.558
		c5.885,9.735,10.305,20.056,12.456,31.279C218.036,233.478,218.297,234.594,218.513,235.603z"/>
	<path fill="#FFFFFF" stroke="#FFFFFF" stroke-miterlimit="10" d="M53.083,235.58c-2.619-0.687-4.999-1.292-7.367-1.937
		c-6.918-1.872-13.832-3.76-20.75-5.637c-1.392-0.377-1.537-0.54-1.159-1.886c1.222-4.351,2.618-8.644,4.63-12.707
		c0.665-1.341,0.866-1.429,2.184-0.83c5.622,2.556,11.235,5.134,16.853,7.696c2.918,1.332,5.825,2.687,8.771,3.952
		c0.949,0.406,1.205,0.892,0.792,1.812c-1.23,2.754-2.13,5.627-3.007,8.505C53.746,235.484,53.521,235.625,53.083,235.58z"/>
	<path fill="#FFFFFF" stroke="#FFFFFF" stroke-miterlimit="10" d="M301.477,260.088c0.631-2.232,1.262-4.464,1.887-6.695
		c0.718-2.554,1.437-5.104,2.142-7.662c0.212-0.764,0.49-1.471,1.416-1.519c0.979-0.051,1.405,0.625,1.646,1.429
		c1.315,4.438,2.614,8.884,3.923,13.326c0.106,0.368,0.133,0.773,0.564,1.229c0.434-2.687,0.847-5.235,1.252-7.786
		c0.347-2.187,0.668-4.379,1.026-6.566c0.1-0.621,0.216-1.295,0.915-1.557c0.496-0.183,1.025-0.188,1.473,0.155
		c0.552,0.427,0.516,1.029,0.411,1.631c-0.471,2.769-0.924,5.542-1.415,8.306c-0.516,2.882-1.047,5.763-1.604,8.634
		c-0.188,0.969-0.703,1.676-1.816,1.723c-1.121,0.047-1.765-0.547-2.112-1.551c-0.102-0.299-0.194-0.6-0.281-0.904
		c-1.156-4.034-2.311-8.064-3.47-12.099c-0.073-0.259-0.172-0.512-0.29-0.866c-0.438,0.415-0.426,0.911-0.541,1.334
		c-1.136,4.119-2.251,8.246-3.376,12.369c-0.244,0.887-0.664,1.602-1.691,1.758c-1.266,0.195-2.077-0.373-2.385-1.879
		c-0.605-2.945-1.152-5.901-1.713-8.855c-0.488-2.564-0.99-5.129-1.439-7.699c-0.23-1.316,0.145-1.974,1.109-2.078
		c1.174-0.123,1.487,0.725,1.646,1.626c0.714,4.09,1.405,8.185,2.105,12.281c0.108,0.618,0.219,1.236,0.33,1.854
		C301.287,260.049,301.379,260.066,301.477,260.088z"/>
	<path fill="#FFFFFF" stroke="#FFFFFF" stroke-miterlimit="10" d="M59.69,253.969c0-2.81-0.002-5.619,0.002-8.429
		c0.001-0.396-0.002-0.795,0.064-1.185c0.126-0.713,0.469-1.297,1.29-1.309c0.867-0.012,1.239,0.531,1.372,1.339
		c0.294,1.812,0.134,3.632,0.157,5.452c0.011,0.795,0.008,1.236,0.998,0.637c2.923-1.771,6.639-0.783,8.243,2.316
		c1.678,3.244,1.682,6.563-0.415,9.68c-1.846,2.74-5.097,3.427-7.935,1.722c-0.531-0.319-0.816-0.488-1.108,0.246
		c-0.23,0.58-0.802,0.713-1.404,0.613c-0.576-0.096-0.929-0.447-1.026-1.009c-0.096-0.541-0.167-1.097-0.177-1.646
		c-0.026-1.422-0.015-2.849-0.017-4.273c-0.001-1.387,0-2.771,0-4.154C59.72,253.969,59.705,253.969,59.69,253.969z M70.154,257.559
		c0.012-1.646-0.257-3.027-1.18-4.205c-1.596-2.035-4.637-1.773-5.828,0.52c-1.131,2.182-1.091,4.413-0.11,6.639
		c0.604,1.368,1.649,2.035,3.173,2.051c1.579,0.015,2.639-0.705,3.292-2.082C69.965,259.502,70.19,258.462,70.154,257.559z"/>
	<path fill="#FFFFFF" stroke="#FFFFFF" stroke-miterlimit="10" d="M281.307,259.416c0-2.893,0-5.783-0.002-8.678
		c-0.002-0.864,0.225-1.576,1.174-1.817c0.371-0.095,0.809-0.034,0.97,0.283c0.565,1.105,1.18,0.711,1.979,0.255
		c2.2-1.26,5.607-0.498,7.21,1.53c2.475,3.126,2.543,7.882,0.158,11.084c-1.699,2.278-4.318,2.875-7.107,1.612
		c-1.51-0.684-1.506-0.684-1.508,0.959c-0.003,1.268,0.006,2.537-0.045,3.801c-0.031,0.898-0.152,1.843-1.369,1.837
		c-1.192-0.007-1.386-0.935-1.396-1.834c-0.038-3.009-0.015-6.021-0.015-9.032C281.341,259.416,281.32,259.416,281.307,259.416z
		 M291.743,256.645c-0.015-1.289-0.269-2.514-0.951-3.625c-0.731-1.187-1.802-1.699-3.188-1.656
		c-1.36,0.047-2.328,0.666-2.924,1.878c-1.078,2.194-1.055,4.401-0.068,6.63c0.638,1.438,1.787,2.09,3.279,2.104
		c1.438,0.015,2.465-0.748,3.11-2.011C291.535,258.923,291.766,257.809,291.743,256.645z"/>
	<path fill="#FFFFFF" stroke="#FFFFFF" stroke-miterlimit="10" d="M155.753,259.91c0-2.77-0.007-5.54,0.005-8.311
		c0.003-0.781-0.112-1.679,0.808-2.057c0.79-0.324,1.455-0.046,1.924,0.705c0.229,0.365,0.533,0.162,0.83,0.018
		c4.295-2.119,8.347-0.205,9.361,4.505c0.482,2.236,0.447,4.483-0.659,6.596c-1.736,3.312-4.879,4.326-8.2,2.641
		c-1.186-0.601-1.189-0.601-1.197,0.686c-0.005,1.306,0.013,2.611-0.006,3.918c-0.023,1.537-0.371,2.039-1.37,2.059
		c-1.062,0.021-1.449-0.482-1.463-2.093c-0.026-2.89-0.007-5.778-0.007-8.666C155.77,259.91,155.762,259.91,155.753,259.91z
		 M158.398,257.044c-0.05,1.063,0.056,2.085,0.475,3.042c0.621,1.417,1.688,2.298,3.27,2.354c1.595,0.057,2.899-0.834,3.49-2.369
		c0.801-2.082,0.829-4.178-0.19-6.206c-0.647-1.296-1.642-2.067-3.192-2.034c-1.505,0.031-2.534,0.688-3.197,2.027
		C158.546,254.88,158.32,255.938,158.398,257.044z"/>
	<path fill="#FFFFFF" stroke="#FFFFFF" stroke-miterlimit="10" d="M362.363,254.885c0-2.57-0.014-5.144,0.007-7.717
		c0.008-1.861,0.406-2.248,2.223-2.248c1.503-0.002,3.007-0.037,4.51,0.018c3.512,0.125,5.905,2.497,6.115,6.007
		c0.195,3.252-2.038,5.898-5.396,6.445c-1.062,0.174-2.127,0.209-3.193,0.142c-1.004-0.064-1.46,0.304-1.417,1.354
		c0.051,1.346,0.027,2.689,0.004,4.035c-0.022,1.406-0.505,2.079-1.454,2.012c-1.241-0.088-1.382-1.029-1.386-1.977
		C362.351,260.266,362.363,257.577,362.363,254.885z M367.619,247.383c0-0.006,0-0.014,0-0.021c-0.473,0-0.949,0.01-1.422,0
		c-0.632-0.014-0.96,0.271-0.965,0.916c-0.016,1.818-0.009,3.633-0.181,5.443c-0.089,0.914,0.449,1.424,1.36,1.409
		c0.867-0.012,1.732-0.101,2.596-0.183c2.094-0.199,3.363-1.594,3.378-3.692c0.021-2.183-1.236-3.646-3.346-3.864
		C368.572,247.342,368.092,247.383,367.619,247.383z"/>
	<path fill="#FFFFFF" stroke="#FFFFFF" stroke-miterlimit="10" d="M260.408,257.396c0-4.039-0.002-8.073,0.004-12.111
		c0.002-0.512,0.041-1.029,0.109-1.537c0.114-0.801,0.523-1.33,1.412-1.281c0.887,0.051,1.258,0.644,1.285,1.432
		c0.049,1.422,0.036,2.852,0.039,4.277c0.004,2.003,0.002,2.003,1.801,1.221c3.502-1.525,7.248,0.759,7.496,4.561
		c0.194,3.003,0.198,6.008,0.02,9.011c-0.059,0.898-0.416,1.467-1.34,1.471c-0.936,0.006-1.34-0.604-1.349-1.471
		c-0.026-2.613-0.021-5.229-0.038-7.843c-0.009-1.387-0.399-2.59-1.709-3.296c-2.277-1.229-4.756,0.257-4.839,2.96
		c-0.067,2.415-0.017,4.834-0.021,7.249c-0.004,0.395,0.009,0.795-0.045,1.184c-0.118,0.83-0.605,1.279-1.463,1.23
		c-0.834-0.046-1.172-0.578-1.18-1.352c-0.009-1.903-0.002-3.804-0.002-5.705C260.531,257.396,260.471,257.396,260.408,257.396z"/>
	<path fill="#FFFFFF" stroke="#FFFFFF" stroke-miterlimit="10" d="M351.686,254.201c1.824-1.531,3.331-2.805,4.848-4.071
		c0.272-0.227,0.546-0.455,0.848-0.648c0.593-0.382,1.194-0.446,1.703,0.137c0.547,0.626,0.449,1.289-0.129,1.789
		c-1.409,1.209-2.863,2.367-4.309,3.537c-1.27,1.023-1.279,1.035-0.148,2.129c1.478,1.43,2.965,2.851,4.444,4.281
		c0.31,0.302,0.625,0.606,0.897,0.944c0.5,0.623,0.86,1.316,0.176,2.013c-0.727,0.74-1.473,0.399-2.1-0.172
		c-1.724-1.576-3.41-3.188-5.116-4.779c-0.254-0.233-0.513-0.643-0.871-0.506c-0.396,0.156-0.198,0.631-0.207,0.963
		c-0.022,1.029-0.004,2.059-0.015,3.088c-0.005,0.893-0.161,1.709-1.27,1.802c-1.204,0.103-1.496-0.762-1.523-1.679
		c-0.074-2.412-0.083-4.826-0.098-7.24c-0.021-3.68-0.023-7.36-0.023-11.039c0-0.355,0.015-0.718,0.102-1.057
		c0.173-0.648,0.641-0.996,1.309-0.999c0.621-0.002,1.094,0.302,1.25,0.902c0.14,0.528,0.214,1.089,0.219,1.636
		c0.023,2.453,0.016,4.907,0.016,7.36C351.686,253.014,351.686,253.434,351.686,254.201z"/>
	<path fill="#FFFFFF" stroke="#FFFFFF" stroke-miterlimit="10" d="M453.662,257.384c0,1.701,0.009,3.403-0.011,5.106
		c-0.004,0.472-0.061,0.947-0.148,1.412c-0.11,0.607-0.489,0.986-1.129,1.029c-0.617,0.041-1.148-0.177-1.273-0.815
		c-0.158-0.796-0.469-0.599-0.965-0.304c-3.808,2.276-7.47,0.979-9.082-3.181c-0.954-2.468-0.871-4.872,0.308-7.241
		c1.694-3.43,4.745-4.512,8.225-2.908c0.652,0.303,1.199,0.843,1.766-0.299c0.438-0.881,1.815-0.545,2.116,0.449
		c0.148,0.48,0.182,1.012,0.186,1.523C453.675,253.898,453.662,255.641,453.662,257.384z M443.264,257.173
		c0.004,1.517,0.375,2.89,0.974,3.793c1.486,2.244,4.556,2.113,5.845-0.241c1.214-2.229,1.157-4.445,0.051-6.695
		c-0.604-1.223-1.577-1.85-2.916-1.887c-1.333-0.035-2.348,0.549-3.062,1.685C443.478,254.91,443.349,256.122,443.264,257.173z"/>
	<path fill="#FFFFFF" stroke="#FFFFFF" stroke-miterlimit="10" d="M85.126,263.441c-1.334,1.134-2.691,1.875-4.407,1.637
		c-3.355-0.469-5.358-2.508-6.016-6.111c-0.385-2.109-0.053-4.092,0.94-5.979c1.713-3.259,5.115-4.328,8.36-2.579
		c0.671,0.36,1.128,0.637,1.506-0.327c0.181-0.464,0.717-0.593,1.231-0.498c0.516,0.097,0.884,0.398,0.991,0.905
		c0.09,0.422,0.092,0.865,0.105,1.298c0.11,3.679-0.146,7.365,0.153,11.042c0.006,0.078,0.01,0.159-0.004,0.235
		c-0.139,0.761-0.056,1.658-1.095,1.883C86.088,265.124,85.66,264.771,85.126,263.441z M85.17,257.354
		c0.053-1.084-0.153-2.119-0.6-3.108c-0.645-1.435-1.654-2.213-3.316-2.183c-1.655,0.027-2.7,0.858-3.286,2.271
		c-0.805,1.938-0.844,3.955-0.023,5.894c0.583,1.381,1.567,2.305,3.241,2.344c1.701,0.041,2.751-0.721,3.416-2.217
		C85.029,259.391,85.225,258.4,85.17,257.354z"/>
	<path fill="#FFFFFF" stroke="#FFFFFF" stroke-miterlimit="10" d="M97.526,254.701c0.001-2.613-0.01-5.227,0.005-7.837
		c0.01-1.763,0.428-2.17,2.176-2.177c2.019-0.01,4.037,0.002,6.055-0.002c0.89,0,1.62,0.257,1.655,1.279
		c0.035,1.044-0.733,1.332-1.589,1.357c-1.424,0.045-2.85,0.039-4.273,0.019c-0.773-0.011-1.194,0.251-1.178,1.089
		c0.025,1.347,0.019,2.692,0.006,4.038c-0.008,0.76,0.353,1.057,1.095,1.042c1.265-0.022,2.532-0.02,3.798,0.007
		c0.852,0.018,1.64,0.229,1.637,1.291c-0.004,1.031-0.75,1.316-1.617,1.338c-1.227,0.029-2.453,0.039-3.68,0.014
		c-0.839-0.02-1.252,0.306-1.232,1.179c0.029,1.308,0.029,2.614,0.011,3.921c-0.011,0.762,0.346,1.072,1.081,1.065
		c1.268-0.015,2.532-0.011,3.799,0c0.354,0.002,0.713,0.004,1.061,0.065c0.714,0.131,1.135,0.578,1.129,1.312
		c-0.008,0.757-0.479,1.204-1.198,1.216c-2.452,0.036-4.907,0.046-7.359,0.004c-1.022-0.02-1.292-0.836-1.317-1.671
		c-0.057-1.858-0.049-3.718-0.062-5.578C97.52,256.682,97.525,255.689,97.526,254.701z"/>
	<path fill="#FFFFFF" stroke="#FFFFFF" stroke-miterlimit="10" d="M383.517,258.496c-1.228,0-2.451-0.01-3.679,0.005
		c-1.121,0.017-1.32,0.315-0.988,1.399c0.617,1.982,2.988,3.105,5.266,2.479c0.926-0.257,1.746-0.723,2.511-1.309
		c0.585-0.447,1.214-0.65,1.784,0.016c0.612,0.714,0.301,1.379-0.288,1.866c-2.479,2.04-5.226,2.714-8.303,1.496
		c-2.456-0.974-3.858-3.274-3.92-6.359c-0.036-1.715-0.006-3.415,0.857-4.968c1.52-2.741,4.831-4.096,7.725-3.171
		c2.729,0.875,4.804,4.153,4.534,7.104c-0.092,1-0.685,1.385-1.579,1.406c-1.308,0.029-2.612,0.007-3.92,0.007
		C383.517,258.479,383.517,258.486,383.517,258.496z M382.372,256.141c0.907,0,1.812-0.013,2.719,0.006
		c0.951,0.016,1.159-0.438,0.909-1.287c-0.464-1.592-1.878-2.725-3.467-2.733c-1.719-0.009-3.336,1.231-3.789,2.853
		c-0.241,0.859,0.074,1.18,0.907,1.168C380.561,256.134,381.463,256.143,382.372,256.141z"/>
	<path fill="#FFFFFF" stroke="#FFFFFF" stroke-miterlimit="10" d="M470.435,258.501c-1.265,0-2.533,0-3.8,0
		c-0.792,0-1.031,0.351-0.843,1.136c0.527,2.174,2.987,3.436,5.407,2.729c0.922-0.271,1.732-0.763,2.516-1.31
		c0.621-0.432,1.233-0.604,1.771,0.104c0.538,0.704,0.176,1.278-0.364,1.757c-2.378,2.098-5.104,2.611-8.076,1.589
		c-2.799-0.966-3.8-3.243-4.134-5.97c-0.337-2.748,0.218-5.221,2.288-7.164c3.217-3.025,8.309-1.95,10.105,2.095
		c0.449,1.023,0.699,2.104,0.719,3.222c0.026,1.281-0.371,1.728-1.668,1.775c-1.308,0.051-2.612,0.012-3.921,0.012
		C470.435,258.484,470.435,258.491,470.435,258.501z M469.373,256.134c0,0.003,0,0.005,0,0.005c0.945,0,1.896,0,2.842,0
		c0.708,0.002,1.004-0.324,0.898-1.041c-0.224-1.555-1.983-2.988-3.671-2.968c-1.83,0.022-3.472,1.429-3.655,3.088
		c-0.069,0.619,0.141,0.908,0.746,0.913C467.479,256.139,468.428,256.134,469.373,256.134z"/>
	<path fill="#FFFFFF" stroke="#FFFFFF" stroke-miterlimit="10" d="M216.357,258.062c-1.252,0-2.401-0.014-3.549,0.004
		c-1.075,0.021-1.316,0.373-1.014,1.412c0.571,1.953,2.835,3.154,5.075,2.703c1.076-0.221,1.997-0.736,2.846-1.406
		c0.598-0.474,1.237-0.849,1.854-0.076c0.613,0.768,0.262,1.451-0.375,1.962c-2.461,1.963-5.22,2.659-8.228,1.541
		c-2.85-1.06-3.839-3.498-4.163-6.267c-0.352-2.981,0.417-5.582,2.908-7.479c3.163-2.415,7.568-1.458,9.458,2.05
		c0.549,1.021,0.883,2.119,1.075,3.257c0.198,1.182-0.198,1.781-1.38,2.09C219.346,258.249,217.789,257.932,216.357,258.062z
		 M215.577,255.874v-0.008c0.987,0,1.974,0.008,2.962-0.005c0.49-0.004,0.818-0.159,0.8-0.766c-0.052-1.675-1.822-3.389-3.626-3.469
		c-1.963-0.092-3.802,1.336-4.022,3.092c-0.103,0.822,0.216,1.18,1.042,1.161C213.68,255.855,214.629,255.874,215.577,255.874z"/>
	<path fill="#FFFFFF" stroke="#FFFFFF" stroke-miterlimit="10" d="M326.64,258.098c-1.265,0-2.528-0.021-3.797,0.008
		c-0.998,0.021-1.236,0.404-0.931,1.371c0.737,2.316,3.291,3.438,5.834,2.575c0.804-0.271,1.467-0.767,2.146-1.241
		c0.574-0.401,1.206-0.756,1.793-0.076c0.588,0.68,0.315,1.367-0.236,1.902c-2.731,2.65-8.834,3.408-11.409-0.981
		c-1.831-3.121-1.668-6.401,0.161-9.478c1.369-2.31,4.295-3.409,6.798-2.847c2.742,0.623,4.7,2.864,5.213,5.966
		c0.375,2.252-0.057,2.762-2.364,2.78c-1.069,0.01-2.137,0-3.207,0C326.64,258.084,326.64,258.091,326.64,258.098z M325.642,255.891
		c0-0.002,0-0.005,0-0.01c0.985,0,1.972,0.012,2.959-0.005c0.538-0.007,0.887-0.178,0.802-0.858
		c-0.22-1.789-1.856-3.271-3.747-3.332c-1.862-0.062-3.509,1.25-3.833,3.035c-0.148,0.812,0.136,1.194,0.982,1.174
		C323.75,255.874,324.697,255.891,325.642,255.891z"/>
	<path fill="#FFFFFF" stroke="#FFFFFF" stroke-miterlimit="10" d="M341.222,258.096c-1.225,0-2.45-0.015-3.679,0.002
		c-1.246,0.018-1.449,0.342-1.013,1.533c0.792,2.148,3.194,3.2,5.607,2.461c0.89-0.271,1.638-0.777,2.369-1.322
		c0.574-0.43,1.193-0.771,1.759-0.043c0.53,0.688,0.329,1.375-0.265,1.905c-2.204,1.962-4.793,2.563-7.622,1.871
		c-2.67-0.653-4.081-2.587-4.684-5.153c-0.603-2.574-0.29-5.047,1.168-7.283c1.617-2.476,4.552-3.417,7.41-2.47
		c2.745,0.913,4.836,3.88,4.675,6.632c-0.083,1.362-0.549,1.824-1.93,1.845c-1.265,0.019-2.533,0.003-3.799,0.003
		C341.222,258.081,341.222,258.089,341.222,258.096z M340.171,255.889c0-0.006,0-0.013,0-0.017c0.987,0,1.978,0.009,2.962-0.006
		c0.646-0.009,0.911-0.306,0.793-0.991c-0.322-1.877-1.869-3.189-3.847-3.208c-1.877-0.015-3.396,1.292-3.731,3.173
		c-0.125,0.721,0.129,1.055,0.858,1.051C338.191,255.883,339.181,255.889,340.171,255.889z"/>
	<path fill="#FFFFFF" stroke="#FFFFFF" stroke-miterlimit="10" d="M186.988,258.084c-1.308,0-2.616,0.009-3.922-0.005
		c-0.926-0.011-1.18,0.401-0.941,1.278c0.667,2.449,3.498,3.699,6.077,2.658c0.775-0.313,1.466-0.774,2.141-1.267
		c0.52-0.377,1.089-0.541,1.596,0.028c0.476,0.533,0.353,1.094-0.018,1.629c-0.112,0.162-0.243,0.318-0.395,0.441
		c-2.321,1.881-4.951,2.476-7.792,1.59c-2.667-0.83-3.984-2.924-4.393-5.561c-0.39-2.525-0.15-4.975,1.507-7.104
		c3.053-3.924,9.048-3.165,11.004,1.406c0.391,0.916,0.619,1.881,0.726,2.867c0.149,1.385-0.4,1.988-1.787,2.027
		c-0.04,0-0.08,0-0.12,0c-1.227,0-2.454,0-3.682,0L186.988,258.084L186.988,258.084z M185.787,255.896c0,0,0-0.002,0-0.006
		c1.028,0,2.057,0.006,3.085,0c0.669-0.002,0.894-0.324,0.785-0.99c-0.283-1.73-1.939-3.174-3.751-3.221
		c-1.798-0.047-3.504,1.329-3.858,3.086c-0.153,0.756,0.093,1.143,0.892,1.133C183.891,255.891,184.838,255.896,185.787,255.896z"/>
	<path fill="#FFFFFF" stroke="#FFFFFF" stroke-miterlimit="10" d="M148.056,258.305c-1.267,0-2.535-0.017-3.801,0.004
		c-1.094,0.02-1.304,0.342-0.986,1.41c0.593,2,2.882,3.18,5.188,2.69c1.078-0.228,1.968-0.802,2.835-1.435
		c0.585-0.429,1.219-0.711,1.773,0c0.55,0.707,0.271,1.375-0.328,1.881c-2.509,2.11-5.349,2.748-8.419,1.524
		c-2.806-1.116-3.771-3.549-4.018-6.348c-0.182-2.071,0.207-4.021,1.386-5.773c1.445-2.146,3.52-3.01,6.03-2.808
		c2.318,0.186,3.982,1.453,5.026,3.492c0.542,1.062,0.855,2.221,0.907,3.423c0.058,1.36-0.441,1.897-1.794,1.925
		c-1.266,0.025-2.533,0.005-3.799,0.005C148.056,258.3,148.056,258.302,148.056,258.305z M146.893,256.107
		c0.99,0,1.98-0.006,2.972,0.002c0.737,0.004,0.956-0.387,0.892-1.067c-0.155-1.687-1.971-3.181-3.886-3.174
		c-1.809,0.007-3.479,1.437-3.656,3.104c-0.078,0.729,0.14,1.15,0.945,1.139C145.07,256.1,145.981,256.109,146.893,256.107z"/>
	<path fill="#FFFFFF" stroke="#FFFFFF" stroke-miterlimit="10" d="M425.082,264.943c-1.293,0.066-2.52-0.196-3.702-0.699
		c-0.477-0.202-0.917-0.469-1.27-0.854c-0.485-0.533-0.599-1.119-0.199-1.736c0.422-0.659,1.043-0.674,1.672-0.375
		c0.854,0.41,1.646,0.938,2.601,1.143c2.288,0.49,4.312-0.623,4.852-2.706c0.371-1.407-0.114-2.628-1.426-3.292
		c-0.95-0.484-1.961-0.848-2.941-1.261c-0.621-0.263-1.261-0.481-1.863-0.774c-1.71-0.83-2.893-2.057-2.962-4.093
		c-0.067-2.115,0.917-3.703,2.665-4.714c2.399-1.388,4.87-1.142,7.246,0.158c0.722,0.396,1.326,1.006,0.807,1.938
		c-0.547,0.977-1.357,0.785-2.146,0.326c-1.208-0.699-2.445-1.133-3.844-0.623c-0.983,0.354-1.597,1.039-1.729,2.07
		c-0.134,1.003,0.329,1.755,1.148,2.311c0.668,0.451,1.418,0.706,2.155,0.993c0.662,0.263,1.344,0.481,2.003,0.755
		c3.069,1.277,4.351,3.36,3.862,6.273c-0.478,2.888-2.957,5.025-5.977,5.16C425.718,264.955,425.397,264.943,425.082,264.943z"/>
	<path fill="#FFFFFF" stroke="#FFFFFF" stroke-miterlimit="10" d="M57.384,258.075c-0.024,1.007-0.374,2.651-1.343,4.118
		c-2.764,4.176-8.914,3.828-11.091-0.687c-1.578-3.271-1.458-6.565,0.714-9.545c2.624-3.593,8.329-3.141,10.512,0.737
		C57.009,254.178,57.39,255.643,57.384,258.075z M50.546,262.548c1.8-0.002,2.77-0.659,3.433-2.208
		c0.854-1.997,0.853-3.98,0.018-5.988c-0.587-1.412-1.581-2.269-3.128-2.342c-1.54-0.074-2.702,0.629-3.354,2.002
		c-1.044,2.196-1.088,4.445,0.021,6.633C48.167,261.891,49.169,262.675,50.546,262.548z"/>
	<path fill="#FFFFFF" stroke="#FFFFFF" stroke-miterlimit="10" d="M391.151,257.282c0-1.902-0.004-3.802,0.006-5.703
		c0-0.74,0.109-1.465,0.922-1.766c0.786-0.29,1.384-0.014,1.766,0.74c0.29,0.578,0.652,0.236,0.978,0.043
		c1.272-0.76,2.612-1.104,4.097-0.8c2.507,0.521,3.869,2.106,4.166,4.659c0.324,2.809,0.134,5.618,0.165,8.428
		c0.007,0.234-0.031,0.473-0.067,0.707c-0.132,0.846-0.529,1.418-1.482,1.344c-0.938-0.074-1.293-0.682-1.297-1.535
		c-0.017-2.377-0.017-4.754-0.017-7.131c0-0.599-0.026-1.185-0.189-1.767c-0.431-1.55-1.714-2.492-3.257-2.365
		c-1.646,0.132-2.845,1.246-2.898,2.91c-0.085,2.411-0.039,4.83-0.052,7.247c-0.006,0.436,0.005,0.873-0.058,1.305
		c-0.105,0.789-0.5,1.342-1.38,1.338c-0.886-0.002-1.24-0.588-1.365-1.358c-0.062-0.351-0.052-0.711-0.052-1.066
		c-0.011-1.741-0.007-3.485-0.007-5.229C391.139,257.282,391.143,257.282,391.151,257.282z"/>
	<path fill="#FFFFFF" stroke="#FFFFFF" stroke-miterlimit="10" d="M405.877,257.364c0-1.903-0.013-3.802,0.004-5.705
		c0.007-0.771,0.108-1.561,0.976-1.862c0.785-0.273,1.353,0.044,1.759,0.786c0.354,0.646,0.753,0.103,1.085-0.069
		c2.387-1.242,4.811-1.042,6.519,0.536c0.913,0.849,1.409,1.896,1.562,3.118c0.375,2.96,0.228,5.932,0.194,8.9
		c-0.009,0.707-0.093,1.461-0.906,1.787c-1.059,0.422-1.913-0.211-1.929-1.481c-0.031-2.457-0.02-4.912-0.009-7.371
		c0-0.639-0.047-1.263-0.28-1.866c-0.504-1.312-1.922-2.169-3.312-1.988c-1.523,0.197-2.71,1.31-2.757,2.807
		c-0.078,2.531-0.043,5.068-0.057,7.605c-0.01,1.719-0.437,2.408-1.46,2.379c-0.977-0.032-1.39-0.711-1.395-2.346
		c-0.008-1.744-0.004-3.486-0.004-5.229C405.872,257.364,405.872,257.364,405.877,257.364z"/>
	<path fill="#FFFFFF" stroke="#FFFFFF" stroke-miterlimit="10" d="M194.556,256.971c0-1.939-0.01-3.881,0.004-5.82
		c0.005-0.724,0.037-1.484,0.862-1.793c0.831-0.308,1.459-0.029,1.858,0.781c0.229,0.465,0.575,0.266,0.909,0.109
		c0.535-0.256,1.062-0.547,1.623-0.73c3.463-1.124,6.723,1.086,6.847,4.722c0.099,2.929,0.043,5.86,0.043,8.792
		c-0.001,0.855-0.2,1.636-1.264,1.656c-1.075,0.021-1.432-0.68-1.435-1.636c-0.005-2.336-0.01-4.674-0.002-7.009
		c0.002-0.679-0.054-1.344-0.237-1.998c-0.431-1.544-1.655-2.445-3.261-2.386c-1.548,0.057-2.681,0.993-2.976,2.565
		c-0.259,1.368-0.138,2.762-0.142,4.148c-0.001,1.581,0.019,3.166,0.005,4.752c-0.01,0.9-0.372,1.555-1.385,1.566
		c-1.022,0.013-1.404-0.67-1.421-1.547c-0.04-2.058-0.012-4.117-0.012-6.177C194.568,256.971,194.562,256.971,194.556,256.971z"/>
	<path fill="#FFFFFF" stroke="#FFFFFF" stroke-miterlimit="10" d="M110.093,257.213c0-2.021,0.001-4.041-0.003-6.061
		c-0.001-0.666,0.056-1.293,0.841-1.511c0.747-0.206,1.36-0.007,1.673,0.728c0.269,0.632,0.586,0.464,0.995,0.179
		c1.26-0.873,2.64-1.2,4.169-0.918c2.4,0.445,3.902,1.931,4.231,4.343c0.448,3.272,0.217,6.559,0.05,9.84
		c-0.038,0.754-0.492,1.123-1.246,1.147c-0.75,0.024-1.256-0.319-1.35-1.049c-0.095-0.742-0.068-1.502-0.072-2.253
		c-0.014-2.059,0.015-4.121-0.034-6.182c-0.047-2.088-1.409-3.535-3.251-3.552c-1.877-0.011-3.278,1.492-3.301,3.609
		c-0.025,2.378-0.006,4.752-0.009,7.129c0,0.356,0.012,0.718-0.037,1.067c-0.112,0.832-0.572,1.273-1.447,1.227
		c-0.845-0.047-1.194-0.547-1.198-1.326c-0.011-2.14-0.004-4.277-0.004-6.419C110.097,257.213,110.094,257.213,110.093,257.213z"/>
	<path fill="#FFFFFF" stroke="#FFFFFF" stroke-miterlimit="10" d="M224.216,255.025c0-1.424-0.004-2.853,0.003-4.276
		c0.003-0.901,0.306-1.559,1.356-1.552c1.05,0.007,1.326,0.671,1.344,1.573c0.057,2.809-0.105,5.615,0.169,8.424
		c0.185,1.893,1.264,2.988,3.129,2.99c1.964,0.002,3.204-1.074,3.256-3.009c0.071-2.612,0.035-5.227,0.043-7.839
		c0.002-0.475-0.012-0.949,0.171-1.406c0.222-0.546,0.647-0.78,1.206-0.799c0.568-0.021,1.002,0.209,1.23,0.748
		c0.076,0.18,0.167,0.375,0.169,0.566c0.031,3.356,0.425,6.741-0.248,10.062c-0.56,2.769-3.219,4.437-6.223,4.151
		c-3.456-0.324-5.456-2.264-5.583-5.479c-0.055-1.383-0.009-2.771-0.009-4.156C224.226,255.025,224.22,255.025,224.216,255.025z"/>
	<path fill="#FFFFFF" stroke="#FFFFFF" stroke-miterlimit="10" d="M252.807,264.484c-1.681,0.072-3.103-0.35-4.42-1.157
		c-0.444-0.275-0.854-0.593-1.053-1.095c-0.219-0.549-0.229-1.109,0.199-1.558c0.416-0.437,0.955-0.366,1.437-0.131
		c0.676,0.33,1.319,0.726,1.979,1.084c0.954,0.519,1.993,0.554,3.008,0.326c0.801-0.181,1.483-0.646,1.606-1.55
		c0.117-0.875-0.416-1.418-1.139-1.771c-1.389-0.675-2.811-1.286-4.188-1.979c-1.97-1-2.68-2.174-2.458-3.909
		c0.218-1.69,1.684-3.13,3.55-3.561c1.872-0.432,3.613-0.1,5.292,0.753c0.429,0.215,0.823,0.479,1.093,0.893
		c0.357,0.541,0.48,1.095,0.016,1.638c-0.459,0.529-1.021,0.562-1.61,0.242c-0.382-0.208-0.734-0.47-1.116-0.679
		c-0.854-0.469-1.742-0.746-2.736-0.516c-0.824,0.188-1.527,0.516-1.664,1.451c-0.145,0.961,0.59,1.283,1.274,1.621
		c1.493,0.739,3.106,1.21,4.526,2.098c2.88,1.797,2.729,5.45-0.281,7.08C255.042,264.35,253.896,264.589,252.807,264.484z"/>
	<path fill="#FFFFFF" stroke="#FFFFFF" stroke-miterlimit="10" d="M375.839,283.697c-0.004,0.078-0.047,0.512-0.064,0.945
		c-0.036,0.807-0.11,1.606,1.011,1.813c0.504,0.093,0.593,0.586,0.562,1.05c-0.034,0.453-0.315,0.668-0.741,0.807
		c-1.826,0.586-2.843-0.117-2.851-2.015c-0.009-1.188,0.004-2.374-0.009-3.563c-0.006-0.709,0.083-1.506-0.858-1.723
		c-0.828-0.191-2.081,0.535-2.265,1.367c-0.251,1.125-0.141,2.282-0.085,3.426c0.019,0.366,0.269,0.584,0.627,0.598
		c0.723,0.023,0.797,0.482,0.793,1.058c-0.011,0.615-0.386,0.771-0.901,0.888c-1.953,0.436-2.543-0.015-2.551-2.004
		c-0.007-1.15,0.027-2.297-0.015-3.441c-0.028-0.818,0.03-1.766-1.2-1.791c-1.145-0.023-2.237,0.877-2.174,1.9
		c0.055,0.869,0.14,1.728,0.078,2.6c-0.031,0.515,0.308,0.81,0.815,0.837c0.69,0.036,0.694,0.508,0.688,1.008
		c-0.012,0.61-0.367,0.825-0.927,0.825c-1.065-0.002-2.137,0.002-3.201-0.002c-0.479-0.004-0.878-0.129-0.93-0.693
		c-0.055-0.545-0.008-1.043,0.648-1.216c0.266-0.072,0.628-0.116,0.668-0.415c0.21-1.452,0.172-2.917,0.027-4.371
		c-0.04-0.383-0.481-0.336-0.771-0.443c-0.504-0.188-0.566-0.615-0.555-1.07c0.019-0.461,0.297-0.766,0.737-0.791
		c0.922-0.051,1.908-0.396,2.705,0.375c0.375,0.363,0.646,0.078,0.949-0.069c1.316-0.638,2.613-0.987,3.823,0.228
		c0.254,0.258,0.551,0.267,0.866,0.088c0.306-0.176,0.617-0.354,0.944-0.495c2.492-1.072,4.017-0.081,4.077,2.64
		C375.773,282.475,375.801,282.909,375.839,283.697z"/>
	<path fill="#FFFFFF" stroke="#FFFFFF" stroke-miterlimit="10" d="M425.843,279.021c1.396,0.959,3.081,0.469,4.787,0.196
		c0.591-0.094,1.36-0.129,1.547,0.712c0.186,0.824-0.219,1.215-1.069,1.324c-0.562,0.074-0.449,0.672-0.453,1.09
		c-0.016,1.823,0.026,3.646-0.021,5.467c-0.093,3.901-3.697,6.062-7.113,4.279c-0.562-0.294-1.402-0.556-0.91-1.466
		c0.41-0.765,1.022-0.756,1.812-0.358c1.704,0.854,3.554,0.215,3.956-1.279c0.087-0.34,0.242-0.764-0.004-1.03
		c-0.328-0.358-0.646,0.086-0.941,0.201c-1.729,0.676-3.396,0.62-4.771-0.687c-1.521-1.441-1.844-3.263-1.21-5.25
		c0.551-1.742,1.719-2.801,3.534-3.117C425.175,279.068,425.374,279.064,425.843,279.021z M425.94,286.55
		c1.495-0.012,2.694-1.233,2.694-2.745c0.006-1.472-1.265-2.826-2.659-2.848c-1.402-0.021-2.632,1.288-2.648,2.826
		C423.309,285.391,424.414,286.561,425.94,286.55z"/>
	<path fill="#FFFFFF" stroke="#FFFFFF" stroke-miterlimit="10" d="M298.891,285.843c0-0.354-0.006-0.714,0-1.067
		c0.014-0.584,0.096-1.146,0.824-1.229c0.676-0.074,0.962,0.32,1.163,0.928c0.501,1.525,1.545,2.188,3.041,2.058
		c1.021-0.091,1.601-0.685,1.755-1.634c0.159-0.969-0.477-1.418-1.306-1.695c-1.085-0.367-2.187-0.702-3.237-1.156
		c-1.893-0.818-2.626-2.372-2.081-4.224c0.509-1.724,2.324-2.87,4.155-2.606c1.062,0.152,2.059,0.738,3.219,0.244
		c0.516-0.221,0.826,0.348,0.844,0.88c0.023,0.711,0.012,1.423,0.007,2.138c-0.007,0.453-0.058,0.891-0.63,0.979
		c-0.554,0.084-1.056,0.016-1.244-0.611c-0.371-1.24-1.379-1.587-2.475-1.67c-0.9-0.066-1.689,0.373-1.908,1.283
		c-0.226,0.918,0.508,1.339,1.244,1.602c0.854,0.303,1.749,0.508,2.604,0.812c2.525,0.902,3.637,2.996,2.779,5.178
		c-0.844,2.147-3.353,3.116-5.668,2.182c-0.465-0.188-0.846-0.474-1.418-0.101c-0.797,0.517-1.435,0.188-1.607-0.749
		c-0.096-0.5-0.062-1.023-0.088-1.537C298.872,285.843,298.882,285.843,298.891,285.843z"/>
	<path fill="#FFFFFF" stroke="#FFFFFF" stroke-miterlimit="10" d="M125.795,258.275c0-1.618-0.019-3.24,0.01-4.861
		c0.014-0.783-0.187-1.282-1.071-1.377c-0.652-0.071-1.086-0.463-1.064-1.191c0.022-0.716,0.435-1.111,1.111-1.153
		c0.851-0.051,1.039-0.539,1.021-1.271c-0.018-0.671-0.022-1.347,0.043-2.013c0.073-0.758,0.481-1.24,1.307-1.251
		c0.797-0.009,1.254,0.398,1.425,1.154c0.15,0.662,0.096,1.336,0.049,2.006c-0.054,0.77,0.154,1.33,1.053,1.386
		c0.688,0.044,1.123,0.402,1.129,1.116c0.004,0.691-0.391,1.134-1.068,1.207c-0.974,0.103-1.077,0.733-1.074,1.516
		c0.011,2.966,0.007,5.932,0,8.896c-0.001,0.434-0.006,0.873-0.079,1.301c-0.139,0.814-0.626,1.258-1.485,1.199
		c-0.815-0.057-1.221-0.569-1.247-1.322c-0.048-1.463-0.03-2.928-0.036-4.389c-0.002-0.317,0-0.633,0-0.949
		C125.81,258.275,125.803,258.275,125.795,258.275z"/>
	<path fill="#FFFFFF" stroke="#FFFFFF" stroke-miterlimit="10" d="M457.025,258.165c0-1.502-0.014-3.005,0.011-4.509
		c0.008-0.746-0.113-1.313-1.017-1.434c-0.64-0.087-1.127-0.462-1.094-1.182c0.036-0.74,0.479-1.164,1.224-1.183
		c0.824-0.022,0.973-0.5,0.913-1.193c-0.062-0.709-0.073-1.42,0.092-2.125c0.167-0.701,0.562-1.13,1.315-1.111
		c0.792,0.02,1.266,0.463,1.354,1.228c0.074,0.664,0.051,1.342,0.047,2.013c-0.004,0.679,0.199,1.175,0.964,1.232
		c0.75,0.059,1.168,0.438,1.172,1.206c0.005,0.731-0.455,1.084-1.107,1.156c-0.902,0.1-1.038,0.676-1.031,1.422
		c0.008,2.887,0.004,5.772,0,8.662c0,0.434,0.008,0.873-0.059,1.301c-0.109,0.735-0.488,1.256-1.306,1.285
		c-0.819,0.029-1.218-0.453-1.362-1.203c-0.214-1.099-0.083-2.207-0.111-3.312C457.013,259.668,457.025,258.918,457.025,258.165z"/>
	<path fill="#FFFFFF" stroke="#FFFFFF" stroke-miterlimit="10" d="M434.68,258.146c0-1.502-0.02-3.006,0.008-4.506
		c0.016-0.761-0.14-1.306-1.026-1.42c-0.668-0.085-1.072-0.531-1.059-1.221c0.01-0.632,0.391-1.047,1.012-1.135
		c0.922-0.132,1.103-0.709,1.079-1.52c-0.014-0.587,0.102-1.179,0.167-1.768c0.073-0.744,0.484-1.144,1.241-1.148
		c0.745-0.002,1.215,0.408,1.32,1.111c0.097,0.662,0.103,1.339,0.093,2.009c-0.011,0.771,0.195,1.313,1.083,1.378
		c0.71,0.054,1.081,0.469,1.038,1.181c-0.036,0.684-0.388,1.108-1.129,1.094c-0.914-0.023-0.982,0.595-0.982,1.275
		c0,2.926,0,5.853-0.006,8.775c0,0.396,0.017,0.794-0.026,1.186c-0.089,0.816-0.398,1.476-1.358,1.496
		c-0.977,0.022-1.348-0.65-1.375-1.455c-0.056-1.777-0.02-3.555-0.02-5.334C434.72,258.146,434.696,258.146,434.68,258.146z"/>
	<path fill="#FFFFFF" stroke="#FFFFFF" stroke-miterlimit="10" d="M396.142,288.27c-0.593,0-1.185,0.006-1.776-0.002
		c-0.53-0.009-0.793-0.302-0.827-0.812c-0.031-0.521,0.058-0.984,0.71-0.998c0.766-0.021,0.898-0.496,0.898-1.117
		c-0.005-2.296-0.009-4.589,0-6.883c0.005-0.633-0.186-0.996-0.895-1.15c-0.778-0.172-1.001-1.207-0.367-1.63
		c0.737-0.487,1.597-0.397,2.405-0.174c0.757,0.211,0.839,0.865,0.862,1.524c0.022,0.828-0.266,1.924,0.156,2.416
		c0.58,0.682,1.425-0.348,2.222-0.439c1.435-0.164,2.477,0.439,2.835,1.872c0.333,1.328,0.165,2.679,0.188,4.019
		c0.012,0.701-0.008,1.351,0.892,1.554c0.522,0.118,0.58,0.596,0.547,1.054c-0.032,0.455-0.297,0.715-0.735,0.801
		c-1.628,0.316-2.854,0.188-2.827-1.979c0.02-1.225,0.004-2.453-0.034-3.68c-0.013-0.604,0.163-1.424-0.698-1.543
		c-0.875-0.117-1.839,0.062-2.242,0.972c-0.547,1.226-0.315,2.562-0.203,3.856c0.032,0.321,0.366,0.506,0.714,0.525
		c0.731,0.042,0.782,0.547,0.74,1.096c-0.056,0.621-0.496,0.736-1.021,0.732c-0.513-0.004-1.027,0-1.543,0
		C396.142,288.277,396.142,288.271,396.142,288.27z"/>
	<path fill="#FFFFFF" stroke="#FFFFFF" stroke-miterlimit="10" d="M41.713,254.232c0,3.047-0.007,6.094,0.004,9.142
		c0.004,0.965-0.363,1.694-1.376,1.724c-1.077,0.026-1.313-0.791-1.353-1.714c-0.263-6.088-0.148-12.178-0.212-18.266
		c-0.003-0.316,0.024-0.638,0.095-0.941c0.159-0.691,0.576-1.14,1.32-1.126c0.716,0.014,1.211,0.378,1.333,1.107
		c0.084,0.503,0.13,1.022,0.133,1.532c0.011,2.847,0.005,5.696,0.005,8.542C41.68,254.232,41.696,254.232,41.713,254.232z"/>
	<path fill="#FFFFFF" stroke="#FFFFFF" stroke-miterlimit="10" d="M439.663,288.277c-0.551,0-1.105-0.004-1.663,0
		c-0.551,0.003-0.911-0.219-0.954-0.813c-0.038-0.519,0.061-0.995,0.691-1.036c0.828-0.057,0.917-0.594,0.917-1.24
		c-0.006-2.22-0.011-4.437,0.005-6.655c0-0.677-0.148-1.158-0.949-1.209c-0.483-0.03-0.645-0.417-0.659-0.849
		c-0.013-0.484,0.194-0.814,0.676-0.994c1.729-0.64,2.901,0.133,2.943,1.949c0.013,0.705-0.203,1.65,0.161,2.062
		c0.511,0.576,1.257-0.245,1.913-0.391c1.683-0.375,2.809,0.285,3.166,1.955c0.272,1.295,0.13,2.605,0.152,3.909
		c0.009,0.663,0.02,1.257,0.844,1.478c0.56,0.149,0.647,0.658,0.579,1.16c-0.074,0.539-0.496,0.635-0.966,0.681
		c-2.12,0.211-2.558-0.162-2.58-2.279c-0.014-1.106,0-2.22-0.036-3.325c-0.02-0.646,0.163-1.527-0.783-1.601
		c-0.86-0.065-1.825,0.106-2.204,1.063c-0.473,1.209-0.27,2.5-0.168,3.756c0.032,0.379,0.422,0.533,0.812,0.569
		c0.661,0.064,0.686,0.562,0.653,1.056c-0.038,0.533-0.375,0.75-0.886,0.75C440.776,288.277,440.221,288.273,439.663,288.277z"/>
	<path fill="#FFFFFF" stroke="#FFFFFF" stroke-miterlimit="10" d="M93.516,249.111c0.001,4.388,0.356,8.771,0.208,13.161
		c-0.02,0.59-0.071,1.185-0.185,1.765c-0.143,0.72-0.69,1.065-1.377,1.084c-0.765,0.019-1.097-0.538-1.262-1.197
		c-0.057-0.229-0.06-0.471-0.06-0.707c-0.009-6.172-0.014-12.346-0.02-18.518c-0.001-0.611,0.048-1.21,0.678-1.529
		c0.51-0.257,1.013-0.167,1.449,0.172c0.482,0.373,0.565,0.931,0.567,1.496C93.521,246.262,93.516,247.686,93.516,249.111z"/>
	<path fill="#FFFFFF" stroke="#FFFFFF" stroke-miterlimit="10" d="M240.639,249.113c0.576-0.004,1.038,0.241,1.197,0.788
		c0.28,0.957,0.638,0.748,1.171,0.197c0.5-0.518,1.115-0.906,1.848-0.999c0.846-0.104,1.633,0.039,1.869,1.017
		c0.215,0.896-0.278,1.418-1.086,1.702c-0.372,0.131-0.755,0.236-1.12,0.384c-1.552,0.618-2.415,1.729-2.424,3.438
		c-0.013,2.33-0.002,4.662-0.035,6.996c-0.012,0.803-0.084,1.629-1.119,1.825c-1.104,0.211-1.702-0.387-1.708-1.805
		c-0.019-3.913-0.007-7.826-0.002-11.742c0-0.272,0.033-0.553,0.099-0.816C239.5,249.429,239.976,249.139,240.639,249.113z"/>
	<path fill="#FFFFFF" stroke="#FFFFFF" stroke-miterlimit="10" d="M135.28,251.178c0.856-0.72,1.498-1.464,2.483-1.656
		c0.905-0.179,1.706-0.037,1.988,0.985c0.274,1-0.337,1.408-1.201,1.685c-2.583,0.834-3.415,1.996-3.432,4.717
		c-0.014,1.979,0.001,3.962-0.01,5.939c-0.002,0.393-0.02,0.797-0.116,1.176c-0.174,0.674-0.688,0.931-1.352,0.912
		c-0.641-0.021-1.059-0.354-1.163-0.98c-0.107-0.66-0.201-1.334-0.206-2.001c-0.02-3.408-0.017-6.812-0.001-10.22
		c0.001-0.467,0.048-0.953,0.177-1.4c0.159-0.555,0.639-0.791,1.183-0.847c0.569-0.056,1.001,0.2,1.255,0.714
		C135.022,250.476,135.119,250.771,135.28,251.178z"/>
	<path fill="#FFFFFF" stroke="#FFFFFF" stroke-miterlimit="10" d="M171.211,257.104c0-1.979-0.01-3.959,0.005-5.938
		c0.005-0.684,0.073-1.398,0.833-1.689c0.689-0.267,1.459-0.216,1.719,0.551c0.42,1.244,0.849,0.711,1.409,0.156
		c0.647-0.641,1.436-0.976,2.369-0.844c0.724,0.102,1.135,0.53,1.197,1.258c0.057,0.68-0.268,1.131-0.896,1.377
		c-0.11,0.043-0.224,0.082-0.339,0.105c-3.018,0.611-3.534,2.766-3.499,5.111c0.028,1.937,0.063,3.875,0.043,5.812
		c-0.009,0.707-0.073,1.47-0.982,1.688c-1.097,0.269-1.802-0.268-1.834-1.537c-0.052-2.014-0.015-4.034-0.015-6.053
		C171.219,257.104,171.215,257.104,171.211,257.104z"/>
	<path fill="#FFFFFF" stroke="#FFFFFF" stroke-miterlimit="10" d="M412.8,288.282c-0.477,0-0.949,0.002-1.422,0
		c-0.511-0.005-0.975-0.078-1.007-0.732c-0.027-0.526-0.069-1.077,0.683-1.135c0.635-0.051,0.75-0.481,0.75-1.003
		c0.004-0.947,0-1.896,0.01-2.848c0.009-0.707-0.014-1.354-0.954-1.477c-0.516-0.068-0.487-0.542-0.491-0.941
		c-0.009-0.443,0.138-0.801,0.612-0.877c0.819-0.131,1.672-0.34,2.422,0.153c0.63,0.416,1.154,0.269,1.77-0.008
		c2.322-1.045,3.901-0.069,4.041,2.489c0.056,0.947,0.032,1.898,0.021,2.847c-0.016,0.772-0.052,1.479,0.973,1.726
		c0.551,0.136,0.519,0.734,0.435,1.217c-0.083,0.498-0.48,0.574-0.897,0.585c-0.396,0.008-0.786-0.007-1.188,0.006
		c-0.894,0.028-1.305-0.414-1.305-1.295c0-1.384,0.031-2.771-0.023-4.154c-0.031-0.75,0.061-1.723-1.062-1.812
		c-1.238-0.1-2.141,0.752-2.183,1.951c-0.023,0.75,0,1.504-0.01,2.256c-0.004,0.641,0.089,1.168,0.887,1.293
		c0.573,0.091,0.56,0.589,0.52,1.035c-0.047,0.47-0.34,0.699-0.799,0.707c-0.592,0.008-1.186,0.002-1.778,0.002
		C412.8,288.271,412.8,288.277,412.8,288.282z"/>
	<path fill="#FFFFFF" stroke="#FFFFFF" stroke-miterlimit="10" d="M383.493,284.251c-0.871,0-1.742,0-2.613,0
		c-0.83-0.002-0.945,0.392-0.621,1.067c0.755,1.574,2.929,2,4.495,0.822c0.547-0.412,1.032-0.693,1.719-0.348
		c0.637,0.318,0.652,0.707,0.235,1.221c-1.168,1.418-4.198,1.978-6.199,1.131c-1.862-0.787-3.053-2.728-2.854-4.641
		c0.254-2.42,1.718-3.999,4.096-4.423c1.973-0.351,4.045,0.731,4.986,2.64c0.176,0.353,0.31,0.734,0.388,1.116
		c0.176,0.896-0.063,1.474-1.14,1.413c-0.829-0.044-1.664-0.007-2.492-0.007V284.251L383.493,284.251z M382.396,282.771
		c0-0.004,0-0.01,0-0.017c0.634,0,1.265,0.004,1.895,0c0.64-0.005,0.777-0.243,0.413-0.797c-0.952-1.435-2.934-1.622-4.088-0.358
		c-0.235,0.26-0.561,0.547-0.449,0.914c0.144,0.467,0.598,0.241,0.926,0.254C381.528,282.782,381.963,282.771,382.396,282.771z"/>
	<path fill="#FFFFFF" stroke="#FFFFFF" stroke-miterlimit="10" d="M472.195,284.251c-0.871,0-1.741,0-2.612-0.002
		c-0.937-0.005-0.969,0.468-0.608,1.149c0.752,1.416,2.827,1.865,4.249,0.916c0.262-0.176,0.474-0.431,0.746-0.58
		c0.565-0.312,1.107-0.144,1.502,0.295c0.462,0.509,0.021,0.854-0.339,1.181c-1.617,1.49-4.467,1.8-6.448,0.703
		c-1.795-0.993-2.632-2.983-2.192-5.193c0.413-2.104,2.399-3.706,4.619-3.731c2.029-0.021,4.202,1.654,4.662,3.596
		c0.301,1.266,0.004,1.643-1.32,1.661c-0.756,0.007-1.507,0-2.257,0L472.195,284.251L472.195,284.251z M471.13,282.787
		c0-0.014,0-0.028,0-0.042c0.589,0,1.184,0.022,1.771-0.007c0.604-0.03,0.752-0.312,0.417-0.852
		c-0.94-1.498-3.369-1.479-4.291,0.043c-0.328,0.541-0.328,0.891,0.456,0.859C470.027,282.77,470.579,282.787,471.13,282.787z"/>
	<path fill="#FFFFFF" stroke="#FFFFFF" stroke-miterlimit="10" d="M453.861,284.246c-0.788,0-1.581-0.012-2.373,0.005
		c-0.337,0.007-0.765-0.112-0.963,0.28c-0.205,0.412,0.073,0.762,0.291,1.084c0.922,1.365,2.857,1.632,4.3,0.531
		c0.593-0.455,1.123-0.707,1.821-0.305c0.489,0.282,0.531,0.621,0.224,1.07c-0.965,1.408-4.115,2.07-6.154,1.287
		c-2.179-0.836-3.136-2.616-2.835-5.271c0.228-2.002,1.973-3.621,4.197-3.888c2.034-0.244,4.245,1.114,4.938,3.122
		c0.479,1.395,0.474,2.248-1.428,2.091C455.209,284.198,454.537,284.244,453.861,284.246z M452.795,282.779c0-0.01,0-0.016,0-0.024
		c0.636,0,1.266,0.007,1.896-0.002c0.52-0.006,0.751-0.168,0.44-0.721c-0.909-1.603-3.393-1.688-4.383-0.14
		c-0.131,0.199-0.307,0.406-0.214,0.648c0.134,0.333,0.453,0.24,0.723,0.238C451.771,282.777,452.284,282.779,452.795,282.779z"/>
	<path fill="#FFFFFF" stroke="#FFFFFF" stroke-miterlimit="10" d="M321.745,288.316c-0.478,0.105-0.96,0.136-1.365-0.184
		c-0.426-0.34-0.781-0.176-1.194,0.023c-0.929,0.449-1.913,0.523-2.885,0.188c-1.377-0.479-2.188-1.974-1.85-3.312
		c0.411-1.633,2.005-2.686,3.71-2.44c0.232,0.034,0.463,0.117,0.695,0.156c0.357,0.062,0.787,0.479,1.065,0.032
		c0.235-0.385,0.036-0.887-0.219-1.229c-0.578-0.778-1.358-1.063-2.291-0.646c-0.321,0.144-0.612,0.361-0.926,0.522
		c-0.605,0.314-1.23,0.257-1.595-0.294c-0.394-0.593,0.204-0.949,0.604-1.219c1.509-1.012,3.146-1.23,4.853-0.564
		c1.078,0.42,1.565,1.295,1.608,2.416c0.038,1.145,0.023,2.293,0.042,3.438c0.009,0.429-0.055,0.943,0.509,1.072
		c0.782,0.184,1.023,0.664,0.902,1.396c-0.135,0.83-0.783,0.598-1.311,0.621C321.982,288.298,321.863,288.309,321.745,288.316z
		 M318.092,286.771c0.688-0.078,1.547-0.226,1.788-1.195c0.153-0.611-1.015-1.355-1.985-1.262c-0.743,0.07-1.484,0.367-1.488,1.227
		C316.396,286.45,317.051,286.82,318.092,286.771z"/>
	<path fill="#FFFFFF" stroke="#FFFFFF" stroke-miterlimit="10" d="M351.389,283.729c0.018-2.742,2.021-4.758,4.715-4.74
		c2.689,0.016,4.732,2.062,4.745,4.751c0.016,2.87-1.965,4.807-4.883,4.782C353.205,288.503,351.374,286.586,351.389,283.729z
		 M356.083,286.552c1.523,0.003,2.616-1.134,2.648-2.747c0.026-1.447-1.262-2.839-2.637-2.848c-1.391-0.01-2.628,1.316-2.641,2.836
		C353.44,285.377,354.557,286.552,356.083,286.552z"/>
	<path fill="#FFFFFF" stroke="#FFFFFF" stroke-miterlimit="10" d="M346.786,288.521c-1.061-0.084-2.121-0.178-3.184-0.258
		c-0.469-0.035-0.732-0.266-0.75-0.742c-0.016-0.436-0.022-0.871-0.021-1.305c0.002-0.521-0.025-1.091,0.636-1.242
		c0.572-0.136,1,0.149,1.269,0.649c0.549,1.028,1.417,1.323,2.5,1.103c0.491-0.102,0.928-0.367,0.94-0.918
		c0.011-0.513-0.402-0.73-0.853-0.845c-0.806-0.207-1.632-0.348-2.409-0.625c-1.63-0.582-2.34-1.749-2.016-3.163
		c0.31-1.354,1.874-2.382,3.396-2.181c0.936,0.126,1.828,0.481,2.809,0.284c0.388-0.077,0.656,0.236,0.708,0.644
		c0.037,0.312,0.055,0.636,0.026,0.947c-0.051,0.513,0.228,1.171-0.505,1.427s-1.144-0.115-1.534-0.729
		c-0.491-0.778-1.265-1.047-2.167-0.721c-0.386,0.139-0.74,0.365-0.728,0.834c0.011,0.486,0.411,0.641,0.806,0.732
		c0.578,0.131,1.168,0.217,1.746,0.342c2.002,0.438,3.003,1.562,2.846,3.184C350.141,287.602,348.871,288.538,346.786,288.521z"/>
	<path fill="#FFFFFF" stroke="#FFFFFF" stroke-miterlimit="10" d="M278.268,256.675c0.002,2.019,0,4.036,0.006,6.056
		c0,0.938-0.282,1.692-1.375,1.684c-1.019-0.007-1.325-0.732-1.328-1.617c-0.006-4.113-0.006-8.23,0.003-12.348
		c0.004-0.857,0.341-1.474,1.31-1.48c1.02-0.007,1.387,0.604,1.387,1.533C278.268,252.559,278.268,254.615,278.268,256.675z"/>
	<path fill="#FFFFFF" stroke="#FFFFFF" stroke-miterlimit="10" d="M326.981,288.279c-0.597,0.003-1.189-0.008-1.782,0.005
		c-0.589,0.01-1.023-0.175-1.043-0.843c-0.014-0.575,0.145-1.033,0.854-1.016c0.746,0.02,0.94-0.447,0.94-1.078
		c0-0.871-0.011-1.744,0-2.613c0.005-0.805,0.119-1.627-1.136-1.596c-0.521,0.014-0.65-0.521-0.661-0.976
		c-0.01-0.437,0.198-0.832,0.647-0.863c0.985-0.067,2.079-0.521,2.85,0.521c0.339,0.459,0.537,0.076,0.765-0.067
		c0.604-0.394,1.259-0.674,1.983-0.733c0.562-0.045,1.031,0.118,1.102,0.791c0.058,0.568-0.08,1.025-0.727,1.162
		c-0.038,0.006-0.074,0.021-0.116,0.029c-0.824,0.195-1.831,0.079-2.287,1.006c-0.58,1.18-0.447,2.473-0.357,3.73
		c0.035,0.511,0.413,0.727,0.936,0.678c0.689-0.064,0.897,0.339,0.897,0.945c0.002,0.656-0.348,0.922-0.967,0.92
		C328.248,288.273,327.612,288.279,326.981,288.279z"/>
	<path fill="#FFFFFF" stroke="#FFFFFF" stroke-miterlimit="10" d="M461.289,288.279c-0.594,0-1.188-0.008-1.776,0.003
		c-0.598,0.01-1.013-0.197-1.031-0.857c-0.011-0.581,0.172-1.021,0.866-1.003c0.754,0.02,0.932-0.457,0.927-1.084
		c0-0.908-0.02-1.818,0.005-2.725c0.021-0.809,0.026-1.521-1.126-1.465c-0.534,0.025-0.688-0.471-0.677-0.938
		c0.014-0.479,0.224-0.896,0.731-0.936c0.955-0.072,2.007-0.416,2.737,0.551c0.335,0.436,0.529,0.121,0.766-0.044
		c0.598-0.412,1.246-0.694,1.968-0.761c0.555-0.047,1.05,0.071,1.142,0.744c0.089,0.625-0.11,1.035-0.786,1.234
		c-2.646,0.777-2.765,0.979-2.749,3.839c0.005,0.89-0.008,1.69,1.277,1.599c0.562-0.041,0.612,0.506,0.608,0.961
		c0,0.5-0.199,0.854-0.75,0.865c-0.71,0.016-1.418,0.004-2.132,0.004C461.289,288.271,461.289,288.273,461.289,288.279z"/>
	<path fill="#FFFFFF" stroke="#FFFFFF" stroke-miterlimit="10" d="M313.426,280.191c0.02,0.552-0.179,0.928-0.786,0.961
		c-0.683,0.037-0.844,0.474-0.84,1.058c0.005,0.989,0.007,1.981-0.011,2.97c-0.008,0.732,0.056,1.358,1.026,1.385
		c0.517,0.012,0.593,0.438,0.615,0.856c0.025,0.539-0.193,0.894-0.718,1.093c-1.384,0.526-2.809-0.433-2.896-2.041
		c-0.071-1.344-0.029-2.69-0.038-4.037c-0.006-0.562-0.016-1.021-0.679-1.351c-0.77-0.381-0.719-1.233-0.138-1.655
		c0.542-0.389,0.806-0.764,0.931-1.375c0.062-0.277,0.319-0.552,0.558-0.746c0.315-0.267,0.645-0.738,1.103-0.531
		c0.408,0.188,0.229,0.709,0.23,1.084c0,0.757-0.018,1.443,1.062,1.439C313.343,279.296,313.408,279.777,313.426,280.191z"/>
	<path fill="#FFFFFF" stroke="#FFFFFF" stroke-miterlimit="10" d="M392.838,280.211c0.005,0.484-0.12,0.895-0.689,0.925
		c-0.802,0.041-0.958,0.529-0.949,1.21c0.019,0.988,0.015,1.979,0.004,2.969c-0.004,0.65,0.089,1.205,0.918,1.23
		c0.58,0.016,0.701,0.415,0.718,0.893c0.023,0.49-0.172,0.832-0.625,1.041c-1.329,0.612-2.873-0.324-2.979-1.908
		c-0.087-1.303-0.042-2.612-0.042-3.92c0-0.644,0.032-1.246-0.74-1.567c-0.533-0.218-0.616-1.021-0.339-1.212
		c1.027-0.7,0.986-2.105,1.992-2.766c0.25-0.166,0.477-0.494,0.831-0.324c0.352,0.169,0.254,0.546,0.258,0.85
		c0.009,0.854-0.078,1.717,1.199,1.73C392.834,279.365,392.829,279.85,392.838,280.211z"/>
	<path fill="#FFFFFF" stroke="#FFFFFF" stroke-miterlimit="10" d="M335.862,288.645c-1.284,0.026-2.204-0.822-2.271-2.147
		c-0.062-1.304-0.04-2.606-0.034-3.911c0.006-0.617-0.068-1.088-0.71-1.471c-0.693-0.417-0.712-1.276-0.097-1.686
		c0.609-0.4,0.828-0.877,1.017-1.478c0.112-0.349,0.364-0.609,0.668-0.81c0.641-0.42,1.13-0.475,1.13,0.51
		c0,0.856-0.069,1.709,1.204,1.718c0.438,0,0.426,0.491,0.43,0.851c0.007,0.479-0.11,0.893-0.686,0.916
		c-0.805,0.03-0.957,0.526-0.943,1.198c0.013,0.947,0.01,1.897-0.005,2.845c-0.012,0.727,0.051,1.338,1.018,1.389
		c0.654,0.035,0.65,0.606,0.605,1.084C337.114,288.495,336.431,288.544,335.862,288.645z"/>
	<path fill="#FFFFFF" stroke="#FFFFFF" stroke-miterlimit="10" d="M408.337,283.003c0,0.711,0.015,1.425-0.004,2.138
		c-0.02,0.646,0.098,1.17,0.835,1.369c0.621,0.17,0.569,0.688,0.5,1.167c-0.074,0.498-0.456,0.603-0.882,0.603
		c-0.991,0.004-1.983,0.002-2.973-0.004c-0.438-0.002-0.794-0.146-0.858-0.635c-0.065-0.484-0.083-1.031,0.504-1.182
		c0.82-0.209,0.886-0.768,0.867-1.447c-0.023-0.832-0.009-1.664-0.005-2.498c0.009-0.66-0.008-1.226-0.87-1.435
		c-0.585-0.144-0.755-1.204-0.271-1.562c0.72-0.529,1.591-0.437,2.401-0.236c0.656,0.162,0.727,0.77,0.735,1.342
		c0.015,0.792,0.006,1.585,0.006,2.38C408.328,283.003,408.333,283.003,408.337,283.003z"/>
	<path fill="#FFFFFF" stroke="#FFFFFF" stroke-miterlimit="10" d="M276.956,247.125c-0.981,0.023-1.574-0.521-1.619-1.486
		c-0.049-1.043,0.522-1.692,1.521-1.722c0.986-0.029,1.646,0.621,1.643,1.615C278.494,246.475,277.887,247.104,276.956,247.125z"/>
	<path fill="#FFFFFF" stroke="#FFFFFF" stroke-miterlimit="10" d="M70.154,257.559c0.036,0.903-0.189,1.943-0.653,2.92
		c-0.653,1.377-1.713,2.098-3.292,2.084c-1.524-0.017-2.569-0.684-3.173-2.053c-0.981-2.225-1.021-4.455,0.11-6.638
		c1.191-2.293,4.231-2.556,5.828-0.519C69.897,254.529,70.166,255.913,70.154,257.559z"/>
	<path fill="#FFFFFF" stroke="#FFFFFF" stroke-miterlimit="10" d="M291.743,256.645c0.021,1.164-0.208,2.278-0.742,3.318
		c-0.646,1.264-1.674,2.023-3.11,2.012c-1.492-0.015-2.643-0.666-3.279-2.104c-0.985-2.229-1.01-4.435,0.068-6.63
		c0.596-1.213,1.562-1.831,2.924-1.879c1.388-0.043,2.457,0.472,3.188,1.658C291.477,254.131,291.729,255.354,291.743,256.645z"/>
	<path fill="#FFFFFF" stroke="#FFFFFF" stroke-miterlimit="10" d="M158.398,257.044c-0.079-1.104,0.148-2.164,0.655-3.187
		c0.663-1.342,1.692-1.996,3.197-2.028c1.55-0.033,2.545,0.739,3.192,2.034c1.019,2.027,0.991,4.123,0.19,6.207
		c-0.591,1.535-1.896,2.425-3.49,2.369c-1.582-0.057-2.649-0.938-3.27-2.354C158.454,259.129,158.349,258.107,158.398,257.044z"/>
	<path fill="#FFFFFF" stroke="#FFFFFF" stroke-miterlimit="10" d="M367.619,247.383c0.473,0,0.953-0.041,1.422,0.008
		c2.108,0.219,3.365,1.682,3.346,3.864c-0.015,2.099-1.284,3.493-3.378,3.692c-0.861,0.082-1.729,0.171-2.596,0.183
		c-0.911,0.015-1.449-0.495-1.36-1.409c0.172-1.811,0.165-3.625,0.181-5.443c0.005-0.645,0.333-0.93,0.965-0.916
		c0.473,0.01,0.949,0,1.422,0C367.619,247.369,367.619,247.377,367.619,247.383z"/>
	<path fill="#FFFFFF" stroke="#FFFFFF" stroke-miterlimit="10" d="M443.264,257.173c0.085-1.051,0.214-2.263,0.891-3.347
		c0.715-1.137,1.729-1.721,3.062-1.686c1.339,0.037,2.312,0.666,2.916,1.889c1.106,2.248,1.163,4.467-0.051,6.695
		c-1.289,2.354-4.357,2.484-5.845,0.24C443.639,260.062,443.268,258.688,443.264,257.173z"/>
	<path fill="#FFFFFF" stroke="#FFFFFF" stroke-miterlimit="10" d="M85.17,257.354c0.055,1.047-0.141,2.037-0.568,3
		c-0.665,1.494-1.715,2.256-3.416,2.215c-1.674-0.039-2.657-0.961-3.241-2.342c-0.821-1.938-0.782-3.955,0.023-5.895
		c0.586-1.411,1.631-2.242,3.286-2.271c1.662-0.029,2.671,0.748,3.316,2.184C85.017,255.234,85.223,256.271,85.17,257.354z"/>
	<path fill="#FFFFFF" stroke="#FFFFFF" stroke-miterlimit="10" d="M382.372,256.141c-0.909,0.002-1.812-0.007-2.721,0.006
		c-0.833,0.011-1.148-0.31-0.907-1.168c0.453-1.621,2.07-2.861,3.789-2.854c1.589,0.01,3.003,1.143,3.467,2.734
		c0.25,0.848,0.042,1.302-0.909,1.285C384.184,256.128,383.279,256.141,382.372,256.141z"/>
	<path fill="#FFFFFF" stroke="#FFFFFF" stroke-miterlimit="10" d="M469.373,256.134c-0.945,0-1.896,0.005-2.84-0.003
		c-0.605-0.005-0.815-0.294-0.746-0.913c0.185-1.659,1.825-3.063,3.655-3.088c1.688-0.021,3.447,1.413,3.671,2.968
		c0.104,0.717-0.19,1.043-0.898,1.041c-0.945,0-1.896,0-2.842,0C469.373,256.139,469.373,256.136,469.373,256.134z"/>
	<path fill="#FFFFFF" stroke="#FFFFFF" stroke-miterlimit="10" d="M215.577,255.874c-0.948,0-1.897-0.019-2.845,0.007
		c-0.825,0.02-1.144-0.339-1.042-1.16c0.22-1.757,2.059-3.185,4.022-3.093c1.804,0.08,3.574,1.794,3.626,3.468
		c0.018,0.606-0.31,0.762-0.8,0.768c-0.988,0.012-1.975,0.004-2.962,0.004L215.577,255.874L215.577,255.874z"/>
	<path fill="#FFFFFF" stroke="#FFFFFF" stroke-miterlimit="10" d="M325.642,255.891c-0.943,0-1.892-0.017-2.837,0.004
		c-0.848,0.021-1.132-0.362-0.982-1.174c0.324-1.785,1.971-3.099,3.833-3.035c1.891,0.061,3.527,1.543,3.747,3.332
		c0.085,0.682-0.264,0.853-0.802,0.858c-0.987,0.017-1.974,0.005-2.959,0.005C325.642,255.886,325.642,255.889,325.642,255.891z"/>
	<path fill="#FFFFFF" stroke="#FFFFFF" stroke-miterlimit="10" d="M340.171,255.889c-0.99,0-1.979-0.006-2.965,0.002
		c-0.729,0.004-0.983-0.33-0.858-1.051c0.335-1.881,1.854-3.188,3.731-3.173c1.978,0.019,3.523,1.331,3.847,3.208
		c0.118,0.686-0.146,0.982-0.793,0.991c-0.984,0.015-1.975,0.006-2.962,0.006C340.171,255.876,340.171,255.883,340.171,255.889z"/>
	<path fill="#FFFFFF" stroke="#FFFFFF" stroke-miterlimit="10" d="M185.787,255.896c-0.949,0-1.896-0.008-2.847,0.002
		c-0.799,0.01-1.045-0.377-0.892-1.133c0.354-1.757,2.06-3.133,3.858-3.086c1.812,0.047,3.469,1.489,3.751,3.221
		c0.108,0.666-0.116,0.988-0.785,0.99c-1.029,0.006-2.058,0-3.085,0C185.787,255.895,185.787,255.896,185.787,255.896z"/>
	<path fill="#FFFFFF" stroke="#FFFFFF" stroke-miterlimit="10" d="M146.893,256.107c-0.911,0.002-1.822-0.01-2.732,0.004
		c-0.805,0.013-1.023-0.409-0.945-1.139c0.177-1.668,1.847-3.099,3.656-3.104c1.916-0.007,3.731,1.487,3.886,3.174
		c0.063,0.683-0.155,1.071-0.892,1.067C148.873,256.104,147.882,256.107,146.893,256.107z"/>
	<path fill="#FFFFFF" stroke="#FFFFFF" stroke-miterlimit="10" d="M50.546,262.548c-1.376,0.127-2.379-0.657-3.011-1.903
		c-1.108-2.188-1.064-4.437-0.021-6.633c0.652-1.373,1.814-2.076,3.354-2.002c1.547,0.073,2.541,0.93,3.128,2.342
		c0.835,2.008,0.837,3.991-0.018,5.988C53.315,261.889,52.346,262.546,50.546,262.548z"/>
	<path fill="#FFFFFF" stroke="#FFFFFF" stroke-miterlimit="10" d="M425.94,286.55c-1.526,0.011-2.633-1.159-2.613-2.767
		c0.018-1.538,1.246-2.848,2.648-2.826c1.396,0.021,2.665,1.376,2.659,2.848C428.636,285.316,427.438,286.538,425.94,286.55z"/>
	<path fill="#FFFFFF" stroke="#FFFFFF" stroke-miterlimit="10" d="M382.396,282.771c-0.434,0-0.867,0.012-1.305-0.004
		c-0.328-0.013-0.782,0.213-0.926-0.254c-0.11-0.367,0.214-0.654,0.449-0.914c1.154-1.264,3.136-1.076,4.088,0.358
		c0.364,0.554,0.227,0.792-0.413,0.797c-0.63,0.004-1.261,0-1.895,0C382.396,282.762,382.396,282.768,382.396,282.771z"/>
	<path fill="#FFFFFF" stroke="#FFFFFF" stroke-miterlimit="10" d="M471.13,282.787c-0.551,0-1.103-0.02-1.647,0.003
		c-0.784,0.03-0.784-0.317-0.456-0.858c0.922-1.522,3.351-1.541,4.291-0.043c0.335,0.537,0.187,0.819-0.417,0.852
		c-0.588,0.029-1.182,0.006-1.771,0.006C471.13,282.759,471.13,282.773,471.13,282.787z"/>
	<path fill="#FFFFFF" stroke="#FFFFFF" stroke-miterlimit="10" d="M452.795,282.779c-0.511,0-1.022-0.002-1.538,0
		c-0.27,0.003-0.589,0.096-0.723-0.237c-0.093-0.242,0.083-0.449,0.214-0.647c0.99-1.55,3.474-1.463,4.383,0.139
		c0.311,0.553,0.078,0.715-0.44,0.721c-0.63,0.01-1.26,0.002-1.896,0.002C452.795,282.766,452.795,282.771,452.795,282.779z"/>
	<path fill="#FFFFFF" stroke="#FFFFFF" stroke-miterlimit="10" d="M318.092,286.771c-1.041,0.049-1.694-0.321-1.687-1.23
		c0.004-0.859,0.745-1.155,1.488-1.227c0.972-0.094,2.14,0.649,1.985,1.262C319.639,286.547,318.778,286.693,318.092,286.771z"/>
	<path fill="#FFFFFF" stroke="#FFFFFF" stroke-miterlimit="10" d="M356.083,286.552c-1.526,0-2.643-1.175-2.628-2.759
		c0.013-1.52,1.25-2.846,2.641-2.836c1.375,0.009,2.663,1.398,2.637,2.848C358.699,285.418,357.606,286.555,356.083,286.552z"/>
</g>
</svg>
