<?xml version="1.0" encoding="utf-8"?>
<!-- Generator: Adobe Illustrator 16.0.0, SVG Export Plug-In . SVG Version: 6.00 Build 0)  -->
<!DOCTYPE svg PUBLIC "-//W3C//DTD SVG 1.1//EN" "http://www.w3.org/Graphics/SVG/1.1/DTD/svg11.dtd">
<svg version="1.1" id="Layer_1" xmlns="http://www.w3.org/2000/svg" xmlns:xlink="http://www.w3.org/1999/xlink" x="0px" y="0px"
	 width="500px" height="161.75px" viewBox="0 176.5 500 161.75" enable-background="new 0 176.5 500 161.75" xml:space="preserve">
<g>
	<path fill="#FFFFFF" d="M82.703,273.016c-10.02-1.095-19.657-3.317-27.932-9.522c-3.309-2.479-5.948-5.562-8.001-9.146
		c-0.287-0.502-0.529-0.832-1.219-0.802c-12.953,0.558-25.777,2.04-38.358,5.29c-0.481,0.124-0.951,0.311-1.438,0.393
		c-0.268,0.045-0.683,0.392-0.826-0.146c-0.137-0.512,0.381-0.468,0.623-0.53c2.087-0.54,4.177-1.079,6.282-1.548
		c10.75-2.393,21.639-3.667,32.639-4.054c1.452-0.052,1.298-0.017,0.89-1.415c-0.505-1.733-1.492-2.121-3.217-2.164
		c-9.386-0.234-18.732,0.16-28.05,1.316c-2.889,0.357-5.754,0.853-8.624,1.326c-0.315,0.053-0.819,0.379-0.901-0.23
		c-0.065-0.486,0.485-0.381,0.744-0.43c5.15-0.988,10.342-1.677,15.568-2.104c7.687-0.63,15.386-0.776,23.204-0.482
		c-0.506-1.98-1.111-3.857-1.455-5.781c-1.398-7.833-2.052-15.681,0.095-23.502c1.331-4.849,3.736-9.128,7.059-12.885
		c0.528-0.597,0.659-1.057,0.403-1.842c-2.398-7.363-1.611-14.587,1.033-21.723c0.298-0.804,0.914-0.753,1.52-0.77
		c3.477-0.095,6.729,0.876,9.915,2.138c4.306,1.706,8.286,4.017,12.117,6.593c0.596,0.4,1.095,0.502,1.831,0.317
		c13.26-3.332,26.574-3.511,39.913-0.501c0.828,0.187,1.402,0.053,2.066-0.381c4.954-3.233,10.103-6.073,15.892-7.543
		c1.656-0.42,3.339-0.646,5.06-0.655c1.062-0.005,1.622,0.334,1.992,1.402c2.26,6.516,2.993,13.107,1.195,19.852
		c-0.155,0.58-0.015,0.895,0.365,1.294c6.693,7.042,9.783,15.461,9.69,25.142c-0.061,6.298-0.392,12.554-1.976,18.733
		c1.754,0,3.48,0.024,5.206-0.004c11.559-0.192,23.046,0.528,34.428,2.633c0.204,0.036,0.403,0.102,0.604,0.155
		c0.188,0.051,0.449,0.039,0.407,0.338c-0.043,0.314-0.257,0.371-0.547,0.32c-1.31-0.228-2.621-0.449-3.933-0.666
		c-10.882-1.793-21.843-2.336-32.856-2.039c-0.333,0.009-0.665,0.041-0.998,0.056c-2.59,0.113-2.542,0.13-3.423,2.521
		c-0.311,0.842,0.013,0.891,0.662,0.92c2.163,0.1,4.327,0.199,6.488,0.336c11.27,0.709,22.402,2.295,33.315,5.262
		c0.16,0.043,0.345,0.039,0.479,0.121c0.178,0.108,0.555,0.043,0.462,0.432c-0.102,0.43-0.401,0.303-0.685,0.23
		c-1.408-0.354-2.816-0.707-4.226-1.054c-7.48-1.843-15.073-2.981-22.732-3.754c-4.437-0.446-8.885-0.674-13.333-0.909
		c-0.509-0.025-1.021-0.171-1.34,0.534c-3.538,7.821-9.871,12.438-17.705,15.269c-5.735,2.072-11.673,3.22-17.75,3.668
		c-1.851,0.309-3.719,0.242-5.582,0.221C99.398,273.146,91.047,273.5,82.703,273.016z M139.175,241.274
		c0.16-0.476-0.094-0.91-0.193-1.336c-1.522-6.5-7.242-14.722-17.354-15.185c-5.582-0.256-11.139,0.208-16.696,0.586
		c-6.034,0.411-12.06,0.259-18.079-0.164c-4.896-0.344-9.781-0.732-14.685-0.189c-8.24,0.911-15.405,8.049-16.34,16.289
		c-0.18,2.248-0.132,4.489,0.176,6.724c0.894,6.478,3.78,11.729,9.432,15.257c5.278,3.295,11.205,4.526,17.261,5.215
		c7.542,0.855,15.119,0.85,22.696,0.646c6.075-0.163,12.134-0.453,18.033-2.115c7.11-2.002,12.288-6.117,14.513-13.387
		C139.169,249.594,139.502,245.461,139.175,241.274z"/>
	<path fill="#FFFFFF" d="M256.24,276.781c0,6.166-0.023,12.33,0.023,18.496c0.006,1.018-0.353,1.6-1.207,2.084
		c-5.208,2.957-10.819,4.582-16.757,5.149c-6.184,0.593-12.317,0.25-18.322-1.351c-11.112-2.961-17.726-10.396-20.719-21.28
		c-1.985-7.221-2.284-14.596-1.858-22.028c0.322-5.623,1.148-11.144,3.063-16.471c4.083-11.362,12.101-17.887,24.07-19.393
		c8.504-1.07,16.927-0.608,25.155,2.01c0.948,0.302,1.849,0.719,2.709,1.228c0.58,0.343,0.803,0.787,0.646,1.452
		c-0.935,3.954-1.837,7.915-2.797,11.862c-0.195,0.802-0.76,1.106-1.63,0.798c-5.256-1.862-10.707-2.295-16.225-2.076
		c-4.363,0.173-8.489,1.136-11.836,4.188c-3.004,2.74-4.585,6.286-5.373,10.179c-1.666,8.23-1.704,16.453,0.849,24.523
		c1.696,5.363,5.044,9.252,10.812,10.438c4.043,0.833,8.113,0.507,12.164-0.104c0.52-0.08,0.659-0.381,0.658-0.871
		c-0.011-4.624-0.023-9.248,0.01-13.872c0.006-0.776-0.392-0.753-0.932-0.751c-2.791,0.012-5.583,0.012-8.374,0.004
		c-1.42-0.004-1.701-0.27-1.706-1.672c-0.012-3.791-0.012-7.582,0-11.373c0.004-1.393,0.308-1.695,1.688-1.696
		c8.04-0.006,16.08-0.005,24.121-0.001c1.379,0.002,1.764,0.391,1.766,1.78C256.243,264.283,256.24,270.532,256.24,276.781z"/>
	<path fill="#FFFFFF" d="M329.75,262.88c0-12.163,0-24.327,0-36.49c0-1.759,0.163-1.922,1.936-1.923
		c4.291-0.002,8.581-0.004,12.871,0.001c1.525,0.002,1.713,0.197,1.715,1.755c0.003,8.54,0.017,17.079-0.021,25.618
		c-0.004,0.951,0.196,1.259,1.211,1.25c6.581-0.05,13.163-0.046,19.744-0.004c0.964,0.006,1.256-0.221,1.251-1.228
		c-0.043-8.415-0.024-16.828-0.024-25.243c0.001-2.102,0.053-2.151,2.202-2.151c4.166,0,8.332-0.003,12.497,0.001
		c1.57,0.002,1.849,0.264,1.849,1.783c0.003,24.368,0.003,48.735,0.001,73.104c-0.001,1.526-0.367,1.883-1.926,1.885
		c-4.249,0.003-8.498,0.003-12.747,0c-1.676-0.002-1.932-0.258-1.93-1.982c0.016-9.912,0.02-19.826,0.078-29.74
		c0.007-1.023-0.227-1.318-1.279-1.311c-6.498,0.051-12.996,0.05-19.494,0.001c-1.086-0.008-1.448,0.199-1.442,1.39
		c0.057,9.871,0.033,19.743,0.031,29.616c0,1.795-0.226,2.025-1.986,2.026c-4.166,0.003-8.332,0.002-12.497,0.001
		c-1.752-0.001-2.038-0.281-2.038-1.995C329.75,287.123,329.75,275.002,329.75,262.88z"/>
	<path fill="#FFFFFF" d="M460.082,297.244c-0.151,0.979-0.263,1.83-0.418,2.674c-0.165,0.896-0.673,1.346-1.646,1.334
		c-3.038-0.031-6.079-0.021-9.119-0.006c-1.052,0.006-1.522-0.518-1.556-1.518c-0.011-0.332-0.004-0.666-0.004-0.998
		c0-23.947,0-47.896,0.001-71.842c0-0.416-0.013-0.836,0.033-1.248c0.087-0.771,0.501-1.181,1.322-1.18
		c4.623,0.01,9.245,0.012,13.868,0c1.208-0.003,1.433,0.724,1.43,1.72c-0.012,3.748-0.005,7.497-0.005,11.245
		c0.001,4.373,0,8.745,0,13.125c0.45,0.167,0.703-0.192,1.003-0.341c5.661-2.817,11.61-3.739,17.794-2.414
		c6.705,1.437,10.648,5.915,12.688,12.244c1.882,5.836,1.98,11.857,1.662,17.902c-0.239,4.529-0.803,9.011-2.373,13.311
		c-2.565,7.023-7.584,10.713-15.025,11.296c-6.085,0.476-11.821-0.519-17.147-3.577c-0.432-0.248-0.848-0.523-1.258-0.807
		C460.932,297.889,460.547,297.588,460.082,297.244z M480.855,274.473c0.003-1.898-0.054-4.389-0.609-6.841
		c-0.955-4.207-3.05-6.376-6.887-6.769c-3.272-0.336-6.312,0.625-9.213,2.096c-0.554,0.279-0.486,0.707-0.486,1.154
		c-0.002,7.285,0.008,14.568-0.017,21.854c-0.002,0.633,0.213,0.986,0.755,1.26c2.686,1.351,5.539,2.029,8.528,1.934
		c4.543-0.146,6.514-1.945,7.331-6.391C480.729,280.219,480.781,277.646,480.855,274.473z"/>
	<path fill="#FFFFFF" d="M119.734,283.748c0.023,0.07,0.032,0.145,0.025,0.217c0.068,0.094,0.136,0.188,0.203,0.28
		c0.394,1.753,0.412,3.542,0.422,5.321c0.028,5.271,0.008,10.543,0.014,15.814c0,0.453,0.05,0.905,0.076,1.359
		c-0.011,1.697-0.188,3.412,0,5.088c0.37,3.295,1.989,5.811,5.102,7.245c1.816,0.837,2.128,1.989,0.943,3.198
		c-0.149-0.01-0.274,0.021-0.324,0.187l0.014-0.017c-2.861,0.33-5.626-0.153-8.351-0.986c-0.212-0.12-0.416-0.258-0.637-0.357
		c-3.248-1.481-5.171-3.951-5.592-7.525c-0.308-2.611,0.002-5.24-0.171-7.857c0.008-4.195,0.074-8.392-0.004-12.586
		c-0.034-1.861-0.416-3.71-1.243-5.414c-0.309-0.637-0.61-1.322-1.423-1.775c0,6.625,0,13.089,0,19.552
		c-0.011,4.604-0.121,9.212,0.005,13.812c0.072,2.625,0.77,5.109,3.41,6.473c0.847,1.685,0.731,2.22-0.705,3.26
		c-0.498,0.085-0.996,0.169-1.494,0.254c-2.761-0.387-5.226-1.486-7.474-3.105c-2.542-2.258-3.479-5.104-3.392-8.469
		c0.112-4.24,0.009-8.488-0.002-12.732c0.004-4.084,0.007-8.168,0.011-12.252c0.066-0.065,0.068-0.135,0.008-0.205
		c0.069-2.682,0.11-5.363-0.021-8.045c0.073-0.119,0.02-0.188-0.094-0.229c-0.598-1.051-1.243-1.116-2.062-0.214
		c-0.029,0.064-0.058,0.128-0.087,0.191c-0.188,6.922-0.089,13.846-0.065,20.769c-0.014,4.19-0.107,8.386-0.017,12.573
		c0.073,3.377-0.87,6.273-3.332,8.629c-2.438,1.829-5.134,2.977-8.211,3.125c-0.253-0.018-0.506-0.035-0.759-0.055
		c-1.477-0.991-1.594-1.625-0.64-3.467c2.129-1.164,3.356-2.912,3.364-5.381c0.015-4.971-0.008-9.941-0.015-14.912
		c0-6.558,0-13.115,0-19.865c-0.793,0.475-1.146,1.065-1.456,1.685c-0.545,1.086-0.887,2.241-1.012,3.444
		c-0.516,4.986-0.175,9.984-0.211,14.979c-0.014,1.781-0.09,3.564-0.029,5.343c0.16,4.685-1.605,8.198-5.999,10.184
		c-2.824,1.092-5.765,1.367-8.761,1.254c-0.585-0.295-1.274-0.492-1.265-1.346c0.011-0.902,0.554-1.441,1.282-1.832
		c0.399-0.213,0.836-0.355,1.245-0.555c2.954-1.438,4.558-3.755,4.566-7.086c0.005-1.574-0.034-3.15-0.053-4.728
		c0.026-4.118,0.045-8.236,0.087-12.354c0.008-0.818-0.459-0.578-0.904-0.492c-2.992,0.584-6.001,0.865-9.055,0.649
		c-6.281-0.442-11.29-3.159-14.868-8.354c-1.198-1.738-2.207-3.609-3.274-5.438c-1.806-3.091-4.187-5.561-7.472-7.098
		c-0.978-0.459-1.912-1.016-2.651-1.832c-0.953-1.053-0.775-1.857,0.562-2.362c1.972-0.743,3.943-0.438,5.863,0.19
		c3.886,1.277,6.766,3.852,8.879,7.274c1.937,3.14,4.219,5.897,7.653,7.447c5.251,2.37,10.358,1.504,15.388-0.806
		c0.499-0.229,0.5-0.604,0.604-0.984c0.648-2.382,1.636-4.598,3.179-6.545c0.119,0.143,0.269,0.186,0.44,0.117
		c3.296-1.283,6.809-1.52,10.243-1.572c5.88-0.093,11.792-0.539,17.653,0.427c4.889,0.806,8.809,3.031,11.1,7.628
		C119.127,283.236,119.197,283.711,119.734,283.748z M69.394,288.865c0.734-0.072,1.514-0.217,1.529-1.008
		c0.016-0.846-0.739-1.118-1.494-1.099c-0.726,0.021-1.499,0.188-1.453,1.116C68.018,288.721,68.783,288.783,69.394,288.865z
		 M63.685,288.768c0.822,0.015,1.524-0.151,1.497-0.912c-0.032-0.891-0.82-1.166-1.608-1.184c-0.626-0.013-1.36,0.071-1.329,0.914
		C62.28,288.529,63.065,288.689,63.685,288.768z M55.706,282.92c-0.025-0.854-0.968-1.799-1.708-1.795
		c-0.625,0.004-0.881,0.379-0.881,0.948c0,0.802,0.907,1.688,1.683,1.687C55.431,283.76,55.649,283.375,55.706,282.92z
		 M58.423,284.961c-0.829-0.045-1.405,0.146-1.336,0.812c0.097,0.938,0.824,1.369,1.719,1.47c0.617,0.067,1.175-0.226,1.113-0.843
		C59.825,285.471,59.111,285.032,58.423,284.961z M52.208,278.719c0.018-0.818-0.817-1.736-1.514-1.746
		c-0.61-0.01-0.783,0.391-0.814,0.873c-0.051,0.799,0.773,1.699,1.494,1.689C51.953,279.527,52.149,279.165,52.208,278.719z
		 M48.283,275.623c0.364-0.074,0.781-0.217,0.699-0.75c-0.12-0.782-0.654-1.223-1.418-1.303c-0.422-0.045-0.74,0.273-0.701,0.682
		C46.937,275.033,47.429,275.488,48.283,275.623z M74.526,285.475c-0.493,0.074-1.07,0.318-1.084,1.072
		c-0.013,0.654,0.517,0.964,1.07,0.934c0.987-0.057,0.345-0.975,0.637-1.438C75.357,285.708,75.148,285.414,74.526,285.475z
		 M45.748,272.374c-0.158-0.595-0.557-0.894-1.162-0.917c-0.4-0.018-0.83,0.08-0.782,0.561c0.062,0.616,0.575,0.881,1.14,0.955
		C45.359,273.027,45.659,272.828,45.748,272.374z"/>
	<path fill="#FFFFFF" d="M428.23,297.652c-3.935,2.378-7.988,4.008-12.378,4.711c-4.754,0.762-9.477,0.545-14.054-0.967
		c-5.856-1.934-8.64-6.377-9.554-12.235c-0.271-1.737-0.31-3.481-0.311-5.229c-0.007-11-0.005-22-0.003-33
		c0-1.872,0.127-1.998,1.994-1.999c4.291-0.002,8.582-0.006,12.874,0.002c1.527,0.003,1.729,0.21,1.73,1.749
		c0.004,10.25,0.003,20.5,0.001,30.75c0,1.418,0.086,2.823,0.462,4.201c0.526,1.936,1.835,3.018,3.76,3.352
		c3.638,0.633,6.989-0.234,10.188-1.967c0.719-0.391,0.688-0.932,0.688-1.562c-0.004-11.333-0.003-22.666-0.003-33.999
		c0-0.333,0.005-0.667,0.001-1c-0.014-1.097,0.511-1.548,1.619-1.54c4.375,0.031,8.75,0.007,13.124,0.017
		c1.452,0.003,1.672,0.227,1.673,1.681c0.006,7.458,0.003,14.916,0.003,22.375c0,8.791,0.001,17.582-0.001,26.373
		c0,1.669-0.212,1.878-1.867,1.882c-2.625,0.006-5.25-0.041-7.873,0.03c-1.123,0.029-1.6-0.473-1.753-1.477
		C428.453,299.146,428.356,298.49,428.23,297.652z"/>
	<path fill="#FFFFFF" d="M294.684,276.207c0-4.697-0.024-8.571,0.019-12.445c0.01-0.865-0.224-1.15-1.106-1.123
		c-1.957,0.062-3.916,0.037-5.873,0.014c-1.336-0.018-1.692-0.391-1.699-1.733c-0.012-2.708,0.022-5.416-0.017-8.123
		c-0.016-1.069,0.451-1.58,1.468-1.806c2.062-0.459,4.103-1.023,6.166-1.474c0.772-0.169,1.074-0.456,1.064-1.301
		c-0.047-4.29,0.009-8.581-0.043-12.871c-0.014-1.09,0.316-1.446,1.423-1.433c4.498,0.053,8.998,0.052,13.496,0.001
		c1.126-0.013,1.419,0.41,1.408,1.467c-0.041,4.124,0.012,8.248-0.025,12.371c-0.008,0.806,0.19,1.046,1.019,1.031
		c2.999-0.052,5.998-0.026,8.998-0.018c1.43,0.003,1.779,0.346,1.781,1.737c0.008,3.458,0.006,6.915,0.001,10.372
		c-0.002,1.438-0.316,1.774-1.742,1.782c-2.957,0.016-5.915,0.037-8.872-0.016c-0.875-0.016-1.201,0.121-1.193,1.123
		c0.056,6.54,0.018,13.08,0.033,19.619c0.009,3.377,1.842,5.312,5.213,5.628c1.669,0.157,3.327,0.024,4.988-0.075
		c1.425-0.086,1.805,0.24,1.808,1.67c0.008,3.041-0.007,6.08-0.002,9.121c0.001,0.775-0.179,1.34-1.054,1.588
		c-5.862,1.664-11.745,1.883-17.543-0.103c-5.702-1.952-8.535-6.328-9.387-12.103C294.338,284.553,294.841,279.958,294.684,276.207z
		"/>
	<path fill="#FFFFFF" d="M280.784,274.872c0,7.998,0.002,15.997-0.002,23.995c-0.001,2.043-0.332,2.361-2.405,2.363
		c-3.874,0.002-7.748,0.006-11.623-0.002c-2.013-0.004-2.508-0.504-2.508-2.5c-0.001-15.955-0.001-31.91,0-47.865
		c0-1.755,0.346-2.093,2.127-2.094c4.082-0.002,8.165-0.001,12.248,0c1.986,0,2.162,0.169,2.162,2.107
		C280.785,258.875,280.784,266.873,280.784,274.872z"/>
	<path fill="#FFFFFF" d="M281.796,235.358c0.013,5.142-3.987,9.258-9.065,9.327c-4.976,0.067-9.205-4.144-9.229-9.191
		c-0.026-5.186,4.054-9.355,9.158-9.361C277.739,226.128,281.783,230.211,281.796,235.358z"/>
	<path fill="#FFFFFF" d="M119.734,283.748c-0.538-0.037-0.607-0.512-0.783-0.865c-2.291-4.597-6.21-6.822-11.1-7.628
		c-5.861-0.966-11.773-0.521-17.653-0.427c-3.434,0.054-6.947,0.289-10.243,1.572c-0.172,0.066-0.321,0.024-0.44-0.117
		c0.815-1.33,2.161-2.145,3.188-3.268c8.344,0.483,16.695,0.131,25.042,0.229c1.862,0.021,3.73,0.088,5.582-0.221
		c1.154,1.289,2.615,2.278,3.583,3.748C118.319,278.91,119.642,281.079,119.734,283.748z"/>
	<path fill="#FFFFFF" d="M38.938,273.967c0.458,1.701,0.886,3.412,1.39,5.1c0.24,0.804-0.037,1.408-0.579,1.889
		c-0.468,0.415-1.064,0.396-1.637,0.107c-0.688-0.35-0.933-0.957-0.854-1.656C37.471,277.51,38.184,275.752,38.938,273.967z"/>
	<path fill="#FFFFFF" d="M119.963,284.245c-0.067-0.095-0.135-0.187-0.203-0.28C119.893,284.012,120.007,284.07,119.963,284.245z"/>
	<path fill="#FFFFFF" d="M99.137,304.98c-0.771,0.006-1.541,0.011-2.312,0.016c-0.024-6.923-0.123-13.846,0.065-20.768
		c0.092-0.035,0.121-0.1,0.087-0.192c0.819-0.903,1.464-0.837,2.062,0.214c0.031,0.076,0.063,0.152,0.095,0.229
		c0.131,2.683,0.091,5.364,0.021,8.047c-0.029,0.016-0.084,0.041-0.082,0.047c0.02,0.055,0.048,0.104,0.074,0.156
		C99.144,296.812,99.141,300.896,99.137,304.98z"/>
	<path fill="#FFFFFF" d="M87.215,305.509c-0.886,0.163-1.773,0.302-2.679,0.243c0.036-4.994-0.305-9.992,0.211-14.979
		c0.125-1.205,0.467-2.359,1.012-3.445c0.311-0.618,0.663-1.21,1.456-1.686C87.215,292.395,87.215,298.952,87.215,305.509z"/>
	<path fill="#FFFFFF" d="M111.458,305.715c-0.874-0.261-1.775-0.21-2.67-0.225c0-6.463,0-12.926,0-19.551
		c0.812,0.453,1.114,1.139,1.423,1.774c0.827,1.704,1.209,3.554,1.243,5.414C111.532,297.323,111.466,301.52,111.458,305.715z"/>
	<path fill="#FFFFFF" d="M126.519,322.273c-0.108,0.062-0.216,0.123-0.324,0.186C126.245,322.295,126.37,322.264,126.519,322.273z"
		/>
	<path fill="#FFFFFF" d="M99.147,292.729c-0.026-0.052-0.055-0.103-0.074-0.156c-0.002-0.006,0.053-0.031,0.082-0.047
		C99.216,292.596,99.214,292.663,99.147,292.729z"/>
	<path fill="#FFFFFF" d="M96.978,284.036c0.034,0.094,0.005,0.157-0.087,0.192C96.919,284.164,96.948,284.102,96.978,284.036z"/>
	<path fill="#FFFFFF" d="M99.134,284.479c-0.031-0.076-0.063-0.151-0.095-0.229C99.154,284.292,99.207,284.359,99.134,284.479z"/>
	<path fill="#FFFFFF" d="M130.273,244.676c-0.074,3.796-0.966,7.264-3.668,10.15c-3.299,3.523-7.538,2.943-10.335-0.211
		c-4.609-5.199-4.675-14.765,0.043-20.006c3.705-4.115,9.159-3.125,12.001,2.052C129.683,239.154,130.363,241.816,130.273,244.676z
		 M114.93,244.831c-0.028,2.257,0.508,4.361,1.897,6.188c2.136,2.808,5.562,2.804,7.706,0.014c2.538-3.304,2.593-8.949,0.12-12.312
		c-2.215-3.012-5.723-3.028-7.928-0.01C115.401,240.524,114.89,242.597,114.93,244.831z"/>
	<path fill="#FFFFFF" d="M75.156,257.259c-3.172-0.183-5.359-1.735-6.744-4.29c-3.118-5.748-3.098-11.523,0.334-17.146
		c0.889-1.457,2.179-2.618,3.809-3.3c3.166-1.324,6.214,0.348,7.883,2.382c1.965,2.395,2.818,5.199,3.092,8.25
		c0.354,3.951-0.453,7.581-2.778,10.815C79.347,255.922,77.42,257.04,75.156,257.259z M81.5,245.504
		c0.006-3.111-0.703-5.366-1.98-6.99c-2.125-2.702-5.375-2.743-7.551-0.094c-2.698,3.283-2.708,9.419-0.021,12.703
		c2.225,2.72,5.493,2.684,7.623-0.107C80.962,249.191,81.458,247.071,81.5,245.504z"/>
	<path fill="#FFFFFF" d="M97.519,264.889c-1.946,0.012-4.065-1.393-4.814-3.234c-0.192-0.475-0.292-0.903,0.229-1.186
		c0.572-0.31,0.852,0.108,1.039,0.549c1.359,3.188,5.757,3.291,7.257,0.045c0.203-0.438,0.454-0.875,1.02-0.617
		c0.612,0.275,0.49,0.775,0.244,1.268C101.493,263.715,99.866,264.756,97.519,264.889z"/>
	<path fill="#FFFFFF" d="M99.771,255.844c-0.02,1.143-1.052,2.15-2.178,2.123c-1.149-0.027-2.117-1.035-2.107-2.193
		c0.01-1.2,0.952-2.179,2.114-2.195C98.802,253.559,99.792,254.592,99.771,255.844z"/>
	<path fill="#FFFFFF" d="M118.842,242.515c-0.903-0.067-1.434-0.581-1.425-1.496s0.573-1.478,1.482-1.474
		c0.92,0.004,1.468,0.619,1.464,1.503C120.359,241.939,119.815,242.476,118.842,242.515z"/>
	<path fill="#FFFFFF" d="M74.941,241.033c0.003,0.874-0.774,1.668-1.653,1.689c-0.922,0.021-1.751-0.819-1.721-1.745
		c0.029-0.873,0.844-1.649,1.713-1.632C74.157,239.363,74.938,240.157,74.941,241.033z"/>
</g>
</svg>
