<?xml version="1.0" encoding="utf-8"?>
<!-- Generator: Adobe Illustrator 16.0.0, SVG Export Plug-In . SVG Version: 6.00 Build 0)  -->
<!DOCTYPE svg PUBLIC "-//W3C//DTD SVG 1.1//EN" "http://www.w3.org/Graphics/SVG/1.1/DTD/svg11.dtd">
<svg version="1.1" id="Layer_1" xmlns="http://www.w3.org/2000/svg" xmlns:xlink="http://www.w3.org/1999/xlink" x="0px" y="0px"
	 width="500px" height="213px" viewBox="0 147.5 500 213" enable-background="new 0 147.5 500 213" xml:space="preserve">
<g>
	<path fill="#FFFFFF" stroke="#FFFFFF" stroke-miterlimit="10" d="M124.581,348.083c0.453-3.599,0.164-7.219,0.162-10.819
		c-0.005-1.555,0.46-1.957,2-1.957c42.536,0.041,85.072,0.032,127.604,0.036c0.357,0,0.715,0.041,1.576,0.097
		c-5.673,4.943-11.595,8.469-18.271,10.713c-2.116,0.714-4.276,1.291-6.417,1.932C195.684,348.083,160.13,348.083,124.581,348.083z"
		/>
	<path fill="#FFFFFF" stroke="#FFFFFF" stroke-miterlimit="10" d="M227.926,159.784c5.214,0.063,10.018,1.753,14.667,3.873
		c4.725,2.156,9.058,4.954,12.972,8.477c-0.668,0.686-1.406,0.372-2.045,0.372c-42.118,0.02-84.236,0.001-126.352,0.066
		c-2.005,0.002-2.476-0.558-2.442-2.49c0.065-3.585,0.31-7.189-0.145-10.773c0.156,0,0.313,0,0.469,0
		c0.689,0.789,1.617,0.466,2.441,0.466C160.969,159.789,194.446,159.786,227.926,159.784z"/>
	<path fill="#FFFFFF" stroke="#FFFFFF" stroke-miterlimit="10" d="M19.811,184.324c0.733,0.452,1.535,0.176,2.293,0.176
		c29.086,0.02,58.169,0.038,87.25-0.03c2.04-0.004,2.769,0.438,2.613,2.58c-0.208,2.814-0.144,5.659-0.018,8.484
		c0.075,1.628-0.381,2.15-2.069,2.123c-6.209-0.102-12.418-0.041-18.628-0.041c-22.717,0-45.431,0.004-68.149-0.003
		c-1.099,0-2.194-0.047-3.294-0.076C19.811,193.131,19.811,188.726,19.811,184.324z"/>
	<path fill="#FFFFFF" stroke="#FFFFFF" stroke-miterlimit="10" d="M111.836,159.308c0.028,3.923,0.022,7.846,0.099,11.768
		c0.024,1.128-0.358,1.593-1.481,1.456c-0.308-0.039-0.627-0.006-0.942-0.006c-29.901,0-59.8-0.001-89.701-0.003
		c0-3.854,0.08-7.71-0.041-11.56c-0.049-1.417,0.285-1.694,1.691-1.694C51.586,159.323,81.712,159.308,111.836,159.308z"/>
	<path fill="#FFFFFF" stroke="#FFFFFF" stroke-miterlimit="10" d="M20.754,348.083c0-3.619,0.046-7.237-0.024-10.854
		c-0.026-1.315,0.153-1.93,1.742-1.924c29.495,0.049,58.987,0.049,88.485,0.002c1.56-0.002,1.795,0.582,1.774,1.928
		c-0.053,3.613,0.025,7.23,0.051,10.852C82.106,348.083,51.431,348.083,20.754,348.083z"/>
	<path fill="#FFFFFF" stroke="#FFFFFF" stroke-miterlimit="10" d="M491.269,159.308c0.004,3.847-0.021,7.692,0.021,11.538
		c0.013,1.081-0.081,1.711-1.467,1.709c-25.443-0.046-50.89-0.04-76.334-0.053c-0.15,0-0.303-0.078-0.594-0.158
		c1.091-4.458,3.399-8.521,4.284-13.035C441.872,159.308,466.57,159.308,491.269,159.308z"/>
	<path fill="#FFFFFF" stroke="#FFFFFF" stroke-miterlimit="10" d="M355.947,159.798c1.926,4.024,3.156,8.298,4.835,12.725
		c-1.021,0-1.706,0-2.394,0c-24.844,0-49.689-0.025-74.529,0.049c-1.996,0.005-2.486-0.539-2.448-2.481
		c0.062-3.59,0.308-7.195-0.147-10.782c0.158,0,0.312,0,0.473,0c0.768,0.828,1.774,0.463,2.666,0.463
		C308.251,159.798,332.1,159.795,355.947,159.798z"/>
	<path fill="#FFFFFF" stroke="#FFFFFF" stroke-miterlimit="10" d="M491.743,323.541c-0.938-0.064-1.87-0.186-2.805-0.186
		c-20.21-0.01-40.424-0.041-60.633,0.039c-2.053,0.008-2.771-0.453-2.613-2.588c0.201-2.734,0.167-5.507,0.01-8.25
		c-0.106-1.869,0.482-2.365,2.344-2.351c13.369,0.078,26.738,0.028,40.108,0.043c7.86,0.011,15.727,0.05,23.59,0.076
		C491.743,314.73,491.743,319.136,491.743,323.541z"/>
	<path fill="#FFFFFF" stroke="#FFFFFF" stroke-miterlimit="10" d="M425.672,348.083c0.028-3.53,0.16-7.063,0.029-10.59
		c-0.068-1.806,0.498-2.199,2.235-2.194c21.27,0.062,42.536,0.04,63.807,0.04c0,3.697-0.085,7.396,0.037,11.089
		c0.048,1.42-0.284,1.697-1.689,1.694C468.618,348.062,447.145,348.083,425.672,348.083z"/>
	<path fill="#FFFFFF" stroke="#FFFFFF" stroke-miterlimit="10" d="M282.204,348.083c0-3.69,0.06-7.386-0.028-11.074
		c-0.033-1.362,0.411-1.698,1.729-1.694c20.734,0.035,41.468,0.035,62.199,0c1.32-0.004,1.764,0.332,1.73,1.694
		c-0.09,3.688-0.029,7.386-0.029,11.074C325.938,348.083,304.07,348.083,282.204,348.083z"/>
	<path fill="#FFFFFF" stroke="#FFFFFF" stroke-miterlimit="10" d="M386.503,348.083c-1.331-3.76-2.626-7.524-4.013-11.263
		c-0.435-1.163-0.195-1.526,1.042-1.502c2.812,0.058,5.633,0.018,8.592,0.018c-1.112,4.457-3.28,8.4-4.208,12.747
		C387.445,348.083,386.972,348.083,386.503,348.083z"/>
	<path fill="#FFFFFF" stroke="#FFFFFF" stroke-miterlimit="10" d="M227.926,159.784c-33.479,0.002-66.957,0.005-100.435-0.009
		c-0.824,0-1.75,0.323-2.441-0.465c34.295,0,68.587,0,102.882,0C227.933,159.468,227.932,159.625,227.926,159.784z"/>
	<path fill="#FFFFFF" stroke="#FFFFFF" stroke-miterlimit="10" d="M355.947,159.798c-23.849-0.003-47.696-0.001-71.547-0.028
		c-0.894,0-1.897,0.366-2.668-0.463c24.854,0,49.709,0,74.565,0C356.183,159.472,356.066,159.635,355.947,159.798z"/>
	<path fill="#FFFFFF" stroke="#FFFFFF" stroke-miterlimit="10" d="M425.339,242.239c-0.105,0.254-0.215,0.511-0.32,0.765
		c-2.062,4.96-2.062,4.96-7.363,4.96c-21.381,0-42.767-0.041-64.146,0.056c-2.463,0.013-4.021-0.423-4.419-3.091
		c-0.132-0.883-0.618-1.714-1.172-3.174c-0.069,0.892-0.105,1.148-0.106,1.406c-0.052,4.803-0.051,4.803-4.737,4.803
		c-11.009,0-22.014-0.048-33.018,0.044c-1.889,0.018-2.433-0.516-2.337-2.366c0.147-2.98,0.103-5.976,0.011-8.96
		c-0.043-1.389,0.286-1.903,1.806-1.899c23.976,0.047,47.953,0.045,71.928,0.002c1.269-0.003,1.777,0.479,2.151,1.571
		c0.973,2.847,2.038,5.661,3.32,9.193c1.288-3.522,2.369-6.341,3.328-9.2c0.379-1.136,0.918-1.564,2.165-1.563
		c23.819,0.039,47.635,0.041,71.454,0c1.43-0.003,1.922,0.357,1.867,1.838c-0.109,3.143-0.117,6.293,0.004,9.433
		c0.062,1.621-0.555,1.942-2.039,1.938c-11.95-0.055-23.896-0.075-35.848,0.016c-1.874,0.016-2.324-0.63-2.148-2.308
		c0.121-1.12,0.022-2.265,0.022-3.4C425.605,242.283,425.472,242.258,425.339,242.239z"/>
	<path fill="#FFFFFF" stroke="#FFFFFF" stroke-miterlimit="10" d="M197.992,310.25c23.508,0,47.018,0.029,70.525-0.051
		c2.229-0.012,2.67,0.523,2.082,2.619c-0.828,2.947-1.537,5.914-2.936,8.673c-0.688,1.351-1.604,1.886-3.16,1.885
		c-45.837-0.034-91.675-0.037-137.513,0.007c-1.753,0.006-2.348-0.456-2.257-2.242c0.144-2.824,0.171-5.67-0.005-8.486
		c-0.131-2.021,0.578-2.454,2.5-2.446C150.817,310.27,174.402,310.25,197.992,310.25z"/>
	<path fill="#FFFFFF" stroke="#FFFFFF" stroke-miterlimit="10" d="M197.969,197.611c-23.514,0-47.027-0.026-70.542,0.045
		c-2.017,0.007-2.806-0.394-2.628-2.562c0.209-2.578,0.174-5.194,0.012-7.778c-0.128-1.991,0.352-2.708,2.535-2.657
		c6.837,0.161,13.682,0.061,20.523,0.061c38.693,0,77.383,0.024,116.079-0.062c2.297-0.006,3.42,0.804,4.239,2.762
		c1.194,2.839,1.955,5.793,2.647,8.775c0.224,0.965-0.017,1.521-1.146,1.423c-0.545-0.052-1.1-0.007-1.649-0.007
		C244.684,197.611,221.325,197.611,197.969,197.611z"/>
	<path fill="#FFFFFF" stroke="#FFFFFF" stroke-miterlimit="10" d="M207.66,273.045c-18.011,0-36.018-0.029-54.027,0.046
		c-1.943,0.009-2.594-0.454-2.469-2.452c0.179-2.9,0.102-5.818,0.022-8.729c-0.04-1.46,0.317-2.042,1.959-2.039
		c32.792,0.049,65.583,0.036,98.375,0.028c0.813,0,1.547,0.086,2.193,0.646c3.512,3.049,6.879,6.231,9.357,10.22
		c0.359,0.577,1.068,1.223,0.744,1.881c-0.424,0.844-1.41,0.377-2.131,0.381C243.679,273.051,225.669,273.045,207.66,273.045z"/>
	<path fill="#FFFFFF" stroke="#FFFFFF" stroke-miterlimit="10" d="M207.875,234.82c17.933,0,35.859-0.006,53.792,0.018
		c0.726,0.001,1.745-0.456,2.131,0.366c0.353,0.734-0.44,1.431-0.848,2.073c-2.449,3.912-5.771,7.03-9.22,10.029
		c-0.723,0.629-1.547,0.656-2.424,0.656c-32.715-0.008-65.428-0.018-98.145,0.03c-1.611,0.003-2.02-0.532-1.979-2.023
		c0.084-2.985,0.125-5.98-0.015-8.961c-0.081-1.748,0.403-2.253,2.208-2.237c10.616,0.092,21.233,0.048,31.849,0.048
		C192.778,234.82,200.329,234.82,207.875,234.82z"/>
	<path fill="#FFFFFF" stroke="#FFFFFF" stroke-miterlimit="10" d="M66.788,310.25c14.542,0,29.086,0.032,43.627-0.043
		c1.874-0.012,2.431,0.506,2.338,2.357c-0.152,2.98-0.117,5.977-0.01,8.959c0.049,1.479-0.477,1.871-1.888,1.852
		c-4.875-0.073-9.751-0.027-14.622-0.027c-24.292,0-48.583-0.033-72.871,0.057c-2.229,0.008-2.792-0.649-2.66-2.748
		c0.177-2.739,0.163-5.508,0.001-8.247c-0.103-1.792,0.467-2.209,2.217-2.201C37.546,310.279,52.167,310.25,66.788,310.25z"/>
	<path fill="#FFFFFF" stroke="#FFFFFF" stroke-miterlimit="10" d="M325.132,197.611c-13.754,0-27.508-0.039-41.261,0.044
		c-1.979,0.013-2.578-0.537-2.449-2.496c0.17-2.661,0.172-5.35-0.003-8.009c-0.129-1.98,0.521-2.48,2.47-2.475
		c20.748,0.071,41.501,0.044,62.251,0.044c5.658,0,11.319,0.048,16.977-0.034c1.471-0.023,2.242,0.319,2.674,1.846
		c0.832,2.938,1.774,5.868,2.928,8.697c0.888,2.181,0.12,2.426-1.849,2.418C352.957,197.58,339.046,197.611,325.132,197.611z"/>
	<path fill="#FFFFFF" stroke="#FFFFFF" stroke-miterlimit="10" d="M447.375,197.611c-13.758,0-27.518-0.03-41.276,0.035
		c-1.915,0.008-2.518-0.31-1.73-2.311c1.149-2.915,2.077-5.921,3.007-8.918c0.375-1.209,0.896-1.736,2.286-1.732
		c26.574,0.047,53.154,0.05,79.725-0.004c1.621-0.002,1.964,0.548,1.914,2.016c-0.102,2.907-0.137,5.823,0.008,8.726
		c0.086,1.737-0.38,2.242-2.181,2.232C475.209,197.573,461.292,197.611,447.375,197.611z"/>
	<path fill="#FFFFFF" stroke="#FFFFFF" stroke-miterlimit="10" d="M429.901,222.825c-10.846,0-21.688,0-32.531,0
		c-2.829,0-2.825,0-1.809-2.755c1.085-2.942,2.21-5.872,3.207-8.843c0.394-1.174,1.006-1.524,2.212-1.524
		c20.978,0.033,41.953,0.037,62.937-0.004c1.48-0.005,1.873,0.486,1.831,1.895c-0.093,3.062-0.129,6.132,0.008,9.192
		c0.075,1.711-0.545,2.083-2.146,2.076C452.37,222.797,441.136,222.825,429.901,222.825z"/>
	<path fill="#FFFFFF" stroke="#FFFFFF" stroke-miterlimit="10" d="M343.08,222.825c-11.004,0-22.007-0.042-33.019,0.046
		c-1.869,0.013-2.445-0.5-2.343-2.365c0.154-2.821,0.159-5.664-0.006-8.485c-0.106-1.896,0.532-2.345,2.362-2.335
		c14.309,0.073,28.615,0.039,42.922,0.039c6.212,0,12.421,0.074,18.632-0.045c1.738-0.034,2.499,0.565,3.003,2.152
		c0.952,2.987,1.992,5.95,3.192,8.844c0.729,1.758,0.494,2.207-1.494,2.192C365.248,222.782,354.165,222.825,343.08,222.825z"/>
	<path fill="#FFFFFF" stroke="#FFFFFF" stroke-miterlimit="10" d="M315.028,323.348c-10.22,0-20.435-0.041-30.65,0.041
		c-1.756,0.016-2.317-0.434-2.22-2.225c0.158-2.898,0.146-5.818,0.003-8.717c-0.083-1.723,0.353-2.28,2.173-2.246
		c6.521,0.119,13.045,0.047,19.568,0.047c13.906,0,27.817,0.029,41.728-0.041c1.746-0.012,2.323,0.396,2.221,2.195
		c-0.158,2.82-0.159,5.664-0.001,8.484c0.108,1.902-0.387,2.532-2.412,2.508C335.301,323.287,325.163,323.348,315.028,323.348z"/>
	<path fill="#FFFFFF" stroke="#FFFFFF" stroke-miterlimit="10" d="M354.826,259.996c21.499,0,42.699,0,64.179,0
		c-1.479,4.213-2.889,8.27-4.316,12.314c-0.312,0.883-1.099,0.733-1.791,0.733c-17.291,0-34.582,0.002-51.872-0.004
		c-0.594,0-1.259,0.178-1.564-0.649C357.942,268.292,356.401,264.207,354.826,259.996z"/>
	<path fill="#FFFFFF" stroke="#FFFFFF" stroke-miterlimit="10" d="M387.08,285.04c6.988,0,13.976,0.051,20.96-0.036
		c1.747-0.021,1.964,0.441,1.358,1.971c-1.24,3.129-2.396,6.297-3.469,9.487c-0.406,1.215-0.944,1.718-2.31,1.71
		c-11.146-0.061-22.293-0.052-33.442-0.011c-1.204,0.006-1.802-0.343-2.197-1.535c-1.111-3.345-2.338-6.646-3.604-9.933
		c-0.537-1.401-0.136-1.693,1.271-1.682C372.794,285.066,379.936,285.04,387.08,285.04z"/>
	<path fill="#FFFFFF" stroke="#FFFFFF" stroke-miterlimit="10" d="M251.041,209.726c6.436,0,12.873,0.046,19.307-0.033
		c1.617-0.018,2.002,0.489,1.805,2.044c-0.395,3.122-1.034,6.178-1.864,9.207c-0.353,1.281-0.894,1.928-2.407,1.919
		c-12.09-0.066-24.174-0.056-36.263-0.012c-1.382,0.005-1.957-0.317-1.909-1.824c0.105-3.214,0.099-6.436,0.005-9.65
		c-0.042-1.414,0.522-1.683,1.785-1.672C238.007,209.753,244.526,209.726,251.041,209.726z"/>
	<path fill="#FFFFFF" stroke="#FFFFFF" stroke-miterlimit="10" d="M250.904,298.137c-6.438,0-12.871-0.035-19.306,0.027
		c-1.39,0.016-1.947-0.299-1.894-1.811c0.116-3.136,0.092-6.28,0.008-9.42c-0.037-1.377,0.275-1.938,1.803-1.931
		c12.166,0.058,24.329,0.05,36.496,0.011c1.236-0.007,1.829,0.411,2.171,1.588c0.922,3.168,1.575,6.379,1.981,9.655
		c0.185,1.479-0.233,1.919-1.718,1.906C263.936,298.102,257.421,298.137,250.904,298.137z"/>
	<path fill="#FFFFFF" stroke="#FFFFFF" stroke-miterlimit="10" d="M66.208,222.825c-5.974,0-11.945-0.037-17.915,0.028
		c-1.483,0.019-2.094-0.33-2.025-1.958c0.137-3.137,0.093-6.287,0.016-9.427c-0.032-1.31,0.351-1.772,1.714-1.766
		c12.181,0.045,24.359,0.041,36.54,0.003c1.289-0.004,1.815,0.312,1.774,1.705c-0.091,3.141-0.137,6.291,0.014,9.425
		c0.085,1.795-0.677,2.037-2.201,2.02C78.15,222.784,72.178,222.825,66.208,222.825z"/>
	<path fill="#FFFFFF" stroke="#FFFFFF" stroke-miterlimit="10" d="M66.087,247.963c-5.966,0-11.932-0.036-17.899,0.026
		c-1.384,0.015-1.958-0.312-1.91-1.82c0.105-3.215,0.09-6.44,0.005-9.655c-0.035-1.346,0.401-1.729,1.734-1.725
		c12.169,0.044,24.339,0.054,36.509-0.011c1.542-0.008,1.827,0.552,1.785,1.915c-0.085,3.059-0.113,6.126,0.009,9.184
		c0.065,1.641-0.422,2.151-2.094,2.122C78.18,247.903,72.132,247.963,66.087,247.963z"/>
	<path fill="#FFFFFF" stroke="#FFFFFF" stroke-miterlimit="10" d="M66.168,273.048c-5.964,0-11.934-0.049-17.899,0.034
		c-1.519,0.021-2.055-0.366-1.995-1.95c0.117-3.134,0.075-6.28,0.014-9.419c-0.024-1.22,0.185-1.846,1.643-1.841
		c12.249,0.052,24.495,0.04,36.745,0.008c1.22-0.005,1.653,0.374,1.628,1.615c-0.07,3.295-0.086,6.597,0.008,9.89
		c0.039,1.398-0.484,1.701-1.771,1.689C78.417,273.016,72.295,273.048,66.168,273.048z"/>
	<path fill="#FFFFFF" stroke="#FFFFFF" stroke-miterlimit="10" d="M445.716,285.04c5.975,0,11.945,0.054,17.916-0.036
		c1.637-0.025,2.188,0.43,2.12,2.104c-0.129,3.137-0.084,6.287-0.015,9.427c0.027,1.229-0.385,1.627-1.614,1.622
		c-12.256-0.033-24.515-0.041-36.771,0.011c-1.464,0.005-1.65-0.638-1.631-1.849c0.059-3.064,0.104-6.133-0.016-9.19
		c-0.065-1.644,0.433-2.151,2.097-2.124C433.773,285.094,439.747,285.04,445.716,285.04z"/>
	<path fill="#FFFFFF" stroke="#FFFFFF" stroke-miterlimit="10" d="M327.984,298.137c-6.129,0-12.258-0.039-18.381,0.027
		c-1.424,0.018-1.921-0.387-1.877-1.852c0.104-3.217,0.075-6.441,0.011-9.662c-0.027-1.229,0.387-1.637,1.614-1.633
		c12.333,0.031,24.671,0.031,37.002,0.004c1.136-0.004,1.496,0.389,1.476,1.506c-0.061,3.22-0.092,6.443,0.012,9.664
		c0.052,1.512-0.367,2.006-1.942,1.984C339.927,298.084,333.955,298.137,327.984,298.137z"/>
	<path fill="#FFFFFF" stroke="#FFFFFF" stroke-miterlimit="10" d="M66.288,285.04c5.971,0,11.946,0.054,17.914-0.036
		c1.638-0.025,2.187,0.436,2.118,2.104c-0.129,3.14-0.084,6.289-0.014,9.43c0.028,1.23-0.39,1.624-1.616,1.62
		c-12.259-0.032-24.518-0.04-36.774,0.01c-1.464,0.005-1.652-0.642-1.627-1.853c0.06-3.061,0.106-6.129-0.017-9.188
		c-0.067-1.646,0.438-2.149,2.102-2.121C54.346,285.094,60.316,285.04,66.288,285.04z"/>
	<path fill="#FFFFFF" stroke="#FFFFFF" stroke-miterlimit="10" d="M445.738,273.048c-6.045,0-12.092-0.034-18.138,0.029
		c-1.384,0.015-1.948-0.289-1.896-1.81c0.115-3.213,0.088-6.436,0.009-9.653c-0.032-1.347,0.42-1.742,1.749-1.736
		c12.168,0.04,24.337,0.04,36.51,0c1.305-0.006,1.806,0.351,1.771,1.716c-0.084,3.219-0.104,6.441,0.005,9.657
		c0.054,1.491-0.458,1.845-1.872,1.828C457.828,273.007,451.786,273.048,445.738,273.048z"/>
	<path fill="#FFFFFF" stroke="#FFFFFF" stroke-miterlimit="10" d="M327.771,259.9c5.966,0,11.935,0.076,17.895-0.047
		c1.827-0.039,2.26,0.528,2.179,2.254c-0.138,3.055-0.087,6.121-0.016,9.184c0.028,1.234-0.193,1.796-1.63,1.791
		c-12.248-0.061-24.493-0.053-36.739-0.008c-1.334,0.008-1.765-0.387-1.728-1.729c0.082-3.217,0.101-6.438-0.009-9.652
		c-0.049-1.51,0.526-1.834,1.911-1.82C315.68,259.938,321.725,259.9,327.771,259.9z"/>
	<path fill="#FFFFFF" stroke="#FFFFFF" stroke-miterlimit="10" d="M171.061,298.137c-5.968,0-11.935-0.053-17.902,0.035
		c-1.566,0.023-2.035-0.456-1.988-1.992c0.103-3.135,0.082-6.279,0.008-9.419c-0.032-1.349,0.464-1.751,1.778-1.745
		c12.169,0.034,24.34,0.041,36.509-0.006c1.393-0.006,1.72,0.489,1.688,1.778c-0.078,3.137-0.107,6.28,0.008,9.421
		c0.055,1.546-0.421,1.984-1.964,1.96C183.152,298.087,177.105,298.137,171.061,298.137z"/>
	<path fill="#FFFFFF" stroke="#FFFFFF" stroke-miterlimit="10" d="M171.045,209.726c6.047,0,12.091,0.047,18.135-0.033
		c1.519-0.02,2.041,0.372,1.98,1.946c-0.122,3.136-0.082,6.283-0.011,9.42c0.028,1.266-0.258,1.801-1.67,1.794
		c-12.169-0.047-24.34-0.041-36.51-0.005c-1.295,0.002-1.826-0.365-1.792-1.731c0.077-3.138,0.09-6.283-0.006-9.421
		c-0.043-1.507,0.375-2.033,1.972-2.007C159.108,209.783,165.077,209.726,171.045,209.726z"/>
	<path fill="#FFFFFF" stroke="#FFFFFF" stroke-miterlimit="10" d="M386.946,310.25c4.086,0,8.168,0.04,12.251-0.021
		c1.479-0.026,1.741,0.396,1.228,1.769c-1.208,3.229-2.354,6.487-3.379,9.78c-0.414,1.338-1.155,1.607-2.415,1.594
		c-5.024-0.057-10.052-0.064-15.08,0.007c-1.297,0.017-1.996-0.37-2.424-1.625c-1.123-3.26-2.284-6.511-3.576-9.704
		c-0.656-1.625-0.078-1.844,1.377-1.818C378.933,310.29,382.942,310.25,386.946,310.25z"/>
</g>
</svg>
