<?xml version="1.0" encoding="utf-8"?>
<!-- Generator: Adobe Illustrator 16.0.0, SVG Export Plug-In . SVG Version: 6.00 Build 0)  -->
<!DOCTYPE svg PUBLIC "-//W3C//DTD SVG 1.1//EN" "http://www.w3.org/Graphics/SVG/1.1/DTD/svg11.dtd">
<svg version="1.1" id="Layer_1" xmlns="http://www.w3.org/2000/svg" xmlns:xlink="http://www.w3.org/1999/xlink" x="0px" y="0px"
	 width="500px" height="72px" viewBox="0 229.5 500 72" enable-background="new 0 229.5 500 72" xml:space="preserve">
<g>
	<path fill="#FFFFFF" stroke="#FFFFFF" stroke-miterlimit="10" d="M52.945,260.579c0,2.817-0.001,5.418,0,8.017
		c0,7.698-0.008,15.396,0.014,23.094c0.002,0.689-0.142,0.938-0.89,0.924c-2.861-0.047-5.722-0.034-8.582-0.006
		c-0.623,0.009-0.844-0.127-0.844-0.803c0.02-16.957,0.02-33.912,0.001-50.868c-0.001-0.639,0.195-0.777,0.793-0.77
		c2.521,0.029,5.045,0.031,7.566-0.001c0.587-0.008,0.929,0.162,1.255,0.665c6.56,10.175,13.141,20.341,19.716,30.506
		c0.121,0.187,0.255,0.366,0.505,0.724c0-0.633,0-1.062,0-1.488c-0.001-9.831,0.006-19.662-0.016-29.494
		c-0.002-0.69,0.145-0.929,0.888-0.916c2.861,0.047,5.721,0.035,8.582,0.006c0.614-0.007,0.848,0.108,0.845,0.795
		c-0.021,16.955-0.021,33.913-0.002,50.865c0.001,0.624-0.176,0.789-0.789,0.781c-2.519-0.032-5.046-0.037-7.565,0.004
		c-0.613,0.014-0.927-0.221-1.236-0.7c-4.495-6.994-9.007-13.979-13.513-20.963c-2.098-3.255-4.193-6.509-6.29-9.763
		C53.287,261.037,53.176,260.898,52.945,260.579z"/>
	<path fill="#FFFFFF" stroke="#FFFFFF" stroke-miterlimit="10" d="M407.82,266.307c0-8.428,0.009-16.851-0.021-25.275
		c0-0.685,0.17-0.871,0.863-0.87c6.863,0.034,13.731-0.086,20.591,0.067c5.465,0.124,10.137,2.147,13.361,6.78
		c2.356,3.386,3.113,7.188,2.65,11.26c-0.414,3.651-2.018,6.676-4.802,9.064c-1.13,0.973-2.373,1.771-3.769,2.309
		c-0.614,0.236-0.819,0.428-0.452,1.129c3.649,6.974,7.258,13.967,10.874,20.957c0.442,0.857,0.433,0.867-0.52,0.867
		c-3.381,0.002-6.762-0.015-10.139,0.012c-0.576,0.006-0.869-0.178-1.125-0.7c-3.157-6.492-6.354-12.968-9.514-19.459
		c-0.277-0.578-0.605-0.776-1.242-0.761c-1.844,0.041-3.692,0.066-5.534-0.008c-0.84-0.035-0.965,0.258-0.963,1.006
		c0.029,6.317-0.002,12.637,0.036,18.955c0.005,0.819-0.235,0.986-1,0.973c-2.78-0.045-5.564-0.04-8.347-0.002
		c-0.741,0.012-0.974-0.188-0.974-0.951C407.829,283.207,407.82,274.756,407.82,266.307z M418.102,256.219
		c0,2.051,0.02,4.102-0.012,6.156c-0.007,0.562,0.122,0.786,0.729,0.756c1.038-0.05,2.078,0.01,3.115-0.02
		c2.465-0.064,4.941,0.223,7.389-0.15c3.97-0.604,6.438-3.889,5.676-8.092c-0.589-3.279-3.254-5.425-6.614-5.478
		c-3.192-0.05-6.389-0.007-9.584-0.031c-0.539-0.002-0.716,0.155-0.709,0.703C418.117,252.115,418.102,254.168,418.102,256.219z"/>
	<path fill="#FFFFFF" stroke="#FFFFFF" stroke-miterlimit="10" d="M217.692,292.46c-0.251,0.211-0.494,0.127-0.716,0.13
		c-3.458,0.008-6.918-0.007-10.375,0.018c-0.544,0.002-0.822-0.166-1.062-0.666c-3.166-6.52-6.363-13.021-9.527-19.541
		c-0.269-0.557-0.583-0.727-1.184-0.713c-1.896,0.041-3.795,0.041-5.693,0c-0.627-0.014-0.781,0.188-0.778,0.791
		c0.021,6.348,0.012,12.691,0.012,19.035c0,1.084,0,1.084-1.043,1.084c-2.835,0-5.671-0.018-8.503,0.012
		c-0.58,0.006-0.746-0.156-0.746-0.743c0.017-16.982,0.017-33.964,0-50.943c0-0.57,0.131-0.755,0.73-0.754
		c6.917,0.024,13.835-0.061,20.75,0.058c4.398,0.077,8.371,1.537,11.549,4.692c2.37,2.355,3.781,5.258,4.274,8.567
		c0.452,3.027,0.251,6.008-0.99,8.857c-1.497,3.43-4.048,5.807-7.443,7.284c-0.677,0.297-0.845,0.47-0.459,1.202
		c2.888,5.496,5.716,11.023,8.567,16.538C215.928,289.064,216.814,290.766,217.692,292.46z M188.367,256.17c0,1.973,0,3.947,0,5.922
		c0,1.025,0,1.025,1.062,1.025c1.404,0,2.808,0.025,4.208-0.008c1.97-0.049,3.949,0.186,5.909-0.143
		c4.024-0.672,6.439-3.921,5.609-8.275c-0.592-3.107-3.245-5.235-6.452-5.295c-3.217-0.059-6.442-0.008-9.662-0.036
		c-0.573-0.005-0.689,0.216-0.682,0.73C188.379,252.116,188.367,254.143,188.367,256.17z"/>
	<path fill="#FFFFFF" stroke="#FFFFFF" stroke-miterlimit="10" d="M455.208,266.312c0-8.426,0.008-16.848-0.014-25.274
		c-0.002-0.663,0.136-0.877,0.846-0.876c10.948,0.024,21.894,0.023,32.84,0.005c0.615,0,0.855,0.111,0.846,0.795
		c-0.046,2.547-0.038,5.097-0.003,7.644c0.011,0.624-0.174,0.783-0.788,0.78c-7.482-0.02-14.975-0.002-22.462-0.03
		c-0.765-0.004-1.019,0.153-1.005,0.973c0.05,3.405,0.022,6.812,0.022,10.219c0,1.022,0.002,1.022,0.992,1.022
		c6.237,0,12.479,0.012,18.719-0.014c0.688-0.002,0.939,0.137,0.924,0.887c-0.053,2.47-0.045,4.939-0.003,7.41
		c0.013,0.703-0.163,0.916-0.896,0.916c-6.268-0.031-12.532-0.008-18.798-0.035c-0.746-0.006-0.965,0.179-0.955,0.939
		c0.04,3.641,0.033,7.28,0.004,10.921c-0.007,0.652,0.183,0.823,0.827,0.822c7.515-0.022,15.029-0.006,22.543-0.026
		c0.653-0.004,0.895,0.118,0.879,0.842c-0.048,2.545-0.035,5.096-0.005,7.645c0.01,0.598-0.181,0.732-0.752,0.732
		c-10.997-0.018-21.995-0.019-32.99,0c-0.627,0.002-0.782-0.182-0.779-0.789C455.215,283.312,455.208,274.812,455.208,266.312z"/>
	<path fill="#FFFFFF" stroke="#FFFFFF" stroke-miterlimit="10" d="M224.597,258.375c0-5.797,0.014-11.596-0.013-17.393
		c-0.004-0.654,0.18-0.824,0.825-0.816c2.885,0.033,5.772,0.035,8.655-0.002c0.667-0.009,0.815,0.206,0.812,0.837
		c-0.019,10.972-0.009,21.944-0.016,32.917c-0.003,1.625,0.149,3.214,0.768,4.73c1.08,2.646,3.016,4.279,5.804,4.92
		c2.054,0.47,4.079,0.383,6.042-0.361c3.385-1.282,4.938-3.941,5.367-7.387c0.181-1.473,0.144-2.955,0.144-4.436
		c-0.004-10.09,0.007-20.177-0.02-30.267c-0.003-0.732,0.151-0.97,0.928-0.956c2.809,0.05,5.617,0.037,8.424,0.005
		c0.623-0.008,0.841,0.122,0.841,0.799c-0.027,11.47,0.114,22.935-0.082,34.397c-0.121,6.888-3.386,12.129-9.579,15.382
		c-2.66,1.397-5.512,2.062-8.515,2.2c-4.821,0.227-9.282-0.829-13.213-3.69c-4.15-3.024-6.461-7.153-7.025-12.25
		c-0.323-2.927-0.102-5.866-0.136-8.802C224.569,264.927,224.597,261.65,224.597,258.375z"/>
	<path fill="#FFFFFF" stroke="#FFFFFF" stroke-miterlimit="10" d="M397.209,257.712c0,5.644-0.041,11.283,0.016,16.927
		c0.036,3.467-0.753,6.686-2.55,9.637c-2.627,4.316-6.519,6.941-11.373,8.067c-5.702,1.323-11.225,0.784-16.278-2.356
		c-4.692-2.916-7.355-7.194-8.104-12.68c-0.141-1.037-0.141-2.072-0.141-3.108c-0.004-11.025,0.006-22.052-0.019-33.073
		c-0.003-0.725,0.141-0.979,0.921-0.964c2.81,0.051,5.616,0.044,8.429,0.002c0.696-0.012,0.856,0.19,0.853,0.87
		c-0.021,10.947-0.021,21.892-0.002,32.84c0,1.582,0.169,3.156,0.759,4.656c0.938,2.367,2.57,4,4.995,4.798
		c2.546,0.834,5.092,0.767,7.514-0.368c3.192-1.494,4.528-4.253,4.812-7.634c0.202-2.411,0.111-4.83,0.116-7.244
		c0.009-8.996,0.012-17.994-0.009-26.99c-0.003-0.678,0.12-0.941,0.881-0.929c2.858,0.05,5.72,0.03,8.577,0.01
		c0.542-0.003,0.785,0.108,0.627,0.697c-0.065,0.243-0.021,0.516-0.021,0.778C397.209,247.001,397.209,252.355,397.209,257.712z"/>
	<path fill="#FFFFFF" stroke="#FFFFFF" stroke-miterlimit="10" d="M110.495,239.716c4.348,0.093,8.437,0.63,12.201,2.652
		c1.586,0.853,3.032,1.901,4.351,3.132c0.283,0.266,0.335,0.433,0.026,0.736c-1.914,1.873-3.813,3.76-5.702,5.659
		c-0.331,0.334-0.547,0.334-0.894,0.021c-2.3-2.083-5.096-2.951-8.116-3.135c-1.913-0.115-3.841-0.195-5.709,0.447
		c-2.72,0.932-4.393,2.972-4.5,5.829c-0.084,2.209,0.935,3.885,2.927,4.932c1.476,0.777,3.084,1.016,4.704,1.264
		c3.402,0.521,6.866,0.727,10.143,1.902c4.97,1.779,7.747,5.348,8.565,10.521c0.496,3.133,0.38,6.201-0.791,9.184
		c-1.259,3.207-3.487,5.566-6.435,7.262c-3.309,1.902-6.922,2.695-10.719,2.83c-4.02,0.141-7.978-0.162-11.812-1.447
		c-3.078-1.031-5.76-2.725-8.094-4.977c-0.355-0.344-0.399-0.555-0.02-0.928c1.93-1.893,3.841-3.806,5.739-5.73
		c0.351-0.357,0.549-0.361,0.934-0.018c2.877,2.557,6.324,3.629,10.11,3.903c2.09,0.152,4.152,0.136,6.181-0.375
		c1.832-0.461,3.472-1.276,4.422-3.037c2.065-3.823,0.002-8.157-4.309-8.931c-2.802-0.501-5.64-0.812-8.451-1.279
		c-3.242-0.537-6.304-1.568-8.821-3.792c-2.324-2.053-3.515-4.726-3.954-7.741c-0.458-3.16-0.248-6.266,1-9.249
		c1.694-4.056,4.756-6.662,8.792-8.208C104.965,240.108,107.787,239.773,110.495,239.716z"/>
	<path fill="#FFFFFF" stroke="#FFFFFF" stroke-miterlimit="10" d="M272.675,265.732c-0.03-2.146-0.034-4.849,0.161-7.543
		c0.264-3.549,0.821-7.043,2.885-10.059c3.137-4.589,7.491-7.283,13.004-8.131c3.562-0.549,7.03-0.239,10.43,0.922
		c5.291,1.806,8.781,5.453,10.803,10.596c0.523,1.33,0.881,2.711,1.18,4.107c0.111,0.523,0.063,0.764-0.556,0.761
		c-3.044-0.022-6.085-0.018-9.129-0.007c-0.431,0.003-0.615-0.127-0.748-0.574c-0.804-2.713-2.177-5.031-4.927-6.169
		c-4.766-1.972-11.555-0.156-12.377,7.009c-0.527,4.637-0.496,9.282-0.398,13.93c0.053,2.402,0.12,4.824,0.73,7.182
		c0.854,3.296,3.593,5.602,6.992,5.984c2.926,0.33,5.533-0.254,7.631-2.422c1.144-1.18,1.853-2.629,2.271-4.207
		c0.144-0.541,0.388-0.737,0.97-0.73c2.963,0.03,5.927,0.023,8.892,0.003c0.567-0.002,0.787,0.095,0.653,0.744
		c-0.796,3.954-2.347,7.539-5.195,10.451c-2.202,2.249-4.853,3.812-7.918,4.603c-6.229,1.601-12.151,1.031-17.553-2.699
		c-4.332-2.994-6.727-7.158-7.365-12.381C272.67,273.502,272.67,269.898,272.675,265.732z"/>
	<path fill="#FFFFFF" stroke="#FFFFFF" stroke-miterlimit="10" d="M146.595,270.918c0-6.863-0.016-13.73,0.023-20.594
		c0.004-0.823-0.242-0.979-1.003-0.969c-3.952,0.037-7.904,0.004-11.857,0.03c-0.628,0.007-0.789-0.184-0.779-0.79
		c0.029-2.575,0.024-5.148,0.001-7.722c-0.007-0.542,0.149-0.706,0.699-0.706c12.064,0.015,24.13,0.018,36.196-0.001
		c0.598,0,0.742,0.178,0.735,0.75c-0.025,2.575-0.029,5.149,0,7.723c0.01,0.585-0.163,0.749-0.747,0.746
		c-4.031-0.024-8.062,0.003-12.091-0.028c-0.704-0.006-0.91,0.168-0.91,0.895c0.024,13.781,0.016,27.562,0.018,41.346
		c0,0.996,0,0.996-1.009,0.996c-2.835,0-5.669-0.018-8.502,0.014c-0.615,0.008-0.789-0.164-0.786-0.782
		C146.603,284.855,146.595,277.889,146.595,270.918z"/>
	<path fill="#FFFFFF" stroke="#FFFFFF" stroke-miterlimit="10" d="M328.067,270.932c0-6.892-0.016-13.781,0.017-20.673
		c0-0.723-0.199-0.908-0.911-0.9c-3.977,0.032-7.955,0.002-11.932,0.027c-0.613,0.005-0.802-0.155-0.795-0.78
		c0.036-2.575,0.026-5.149,0.007-7.723c-0.007-0.528,0.125-0.715,0.688-0.715c12.063,0.017,24.131,0.018,36.194-0.001
		c0.611-0.001,0.729,0.21,0.725,0.763c-0.022,2.523-0.029,5.046,0.002,7.566c0.014,0.674-0.168,0.897-0.87,0.893
		c-3.898-0.033-7.803-0.022-11.701-0.014c-1.304,0.001-1.136-0.153-1.137,1.1c-0.005,13.705-0.002,27.406-0.002,41.109
		c0,1.011,0,1.011-0.999,1.011c-2.78,0-5.562-0.028-8.345,0.019c-0.738,0.014-0.963-0.168-0.958-0.934
		C328.079,284.764,328.067,277.846,328.067,270.932z"/>
	<path fill="#FFFFFF" stroke="#FFFFFF" stroke-miterlimit="10" d="M20.985,266.314c0-8.397,0.009-16.792-0.017-25.189
		c-0.001-0.725,0.134-0.981,0.922-0.966c2.884,0.051,5.771,0.036,8.655,0.007c0.592-0.007,0.738,0.166,0.738,0.744
		c-0.017,16.977-0.017,33.951,0.001,50.928c0,0.643-0.206,0.773-0.796,0.77c-2.912-0.026-5.823-0.028-8.735,0.002
		c-0.62,0.008-0.781-0.176-0.779-0.788C20.993,283.318,20.985,274.816,20.985,266.314z"/>
</g>
</svg>
