<?xml version="1.0" encoding="utf-8"?>
<!-- Generator: Adobe Illustrator 16.0.0, SVG Export Plug-In . SVG Version: 6.00 Build 0)  -->
<!DOCTYPE svg PUBLIC "-//W3C//DTD SVG 1.1//EN" "http://www.w3.org/Graphics/SVG/1.1/DTD/svg11.dtd">
<svg version="1.1" id="Layer_1" xmlns="http://www.w3.org/2000/svg" xmlns:xlink="http://www.w3.org/1999/xlink" x="0px" y="0px"
	 width="500px" height="313px" viewBox="0 67.5 500 313" enable-background="new 0 67.5 500 313" xml:space="preserve">
<g>
	<path fill="#FFFFFF" stroke="#FFFFFF" stroke-miterlimit="10" d="M225.835,201.748c3.017-9.533,7.11-18.665,10.594-28.022
		c1.13-3.038,2.302-6.065,2.943-9.914c-15.422,7.27-30.838,14.54-46.259,21.808c-0.099-0.177-0.197-0.352-0.299-0.524
		c13.969-8.325,27.928-16.651,41.893-24.975c-0.037-0.27-0.076-0.539-0.109-0.808c-11.461-0.911-22.921-1.821-34.379-2.733
		c-0.007-0.169-0.007-0.339-0.015-0.509c11.797-0.812,23.596-1.623,35.49-2.441c-0.438-1.31-1.602-1.42-2.457-1.854
		c-19.503-9.875-39.023-19.724-58.54-29.573c-0.022-0.484-0.038-0.972-0.063-1.454c21.556,9.072,43.108,18.141,65.613,27.615
		c-5.329-16.606-10.396-32.396-15.462-48.186c0.236-0.104,0.47-0.209,0.706-0.312c6.814,15.623,13.624,31.252,20.845,47.81
		c10.698-24.378,20.962-47.763,31.23-71.15c0.267,0.084,0.537,0.168,0.812,0.255c-1.211,3.834-2.386,7.679-3.644,11.501
		c-6.286,19.125-12.61,38.237-18.851,57.377c-0.366,1.117-1.571,2.573-0.44,3.538c1.08,0.917,2.358-0.4,3.481-0.872
		c21.47-9.01,42.921-18.054,64.393-27.061c1.022-0.426,2.021-1.14,3.92-0.762c-23.41,12.401-46.335,24.542-69.694,36.914
		c13.71,8.453,26.939,16.598,40.166,24.745c-0.193,0.383-0.393,0.757-0.587,1.138c-14.038-6.592-28.069-13.184-42.89-20.143
		c2.875,8.509,5.539,16.407,8.308,24.602c-2.183-0.297-2.433-1.769-3.056-2.759c-3.465-5.525-6.815-11.118-10.271-16.647
		c-0.461-0.74-0.753-2.047-1.748-1.972c-1.225,0.095-1.186,1.517-1.546,2.433c-4.157,10.616-8.296,21.243-12.449,31.861
		c-0.162,0.416-0.467,0.779-0.708,1.169C230.453,201.812,228.143,201.781,225.835,201.748z"/>
	<path fill="#FFFFFF" stroke="#FFFFFF" stroke-miterlimit="10" d="M189.342,315.182c-0.678-2.08-0.017-2.631,2.237-2.918
		c6.256-0.806,10.421,1.2,14.113,6.637c6.659,9.795,14.256,18.953,21.47,28.39c1.196-0.741,0.633-1.776,0.636-2.583
		c0.047-9.781,0.112-19.561-0.029-29.335c-0.037-2.513,0.739-3.261,3.158-3.046c2.311,0.203,4.664,0.197,6.978-0.006
		c2.451-0.215,3.149,0.632,3.124,3.093c-0.113,12.687-0.047,25.376-0.047,38.063c0.003,5.125-0.084,10.246,0.035,15.365
		c0.044,2.114-0.386,2.85-2.796,3.104c-6.111,0.641-10.188-1.215-13.781-6.586c-6.396-9.56-13.749-18.474-20.709-27.652
		c-0.32-0.428-0.426-1.107-1.512-1.078c0,9.008,0,18.018,0,27.036c0,8.167-0.003,8.224-8.344,8.112
		c-1.487-0.02-3.219,0.869-4.515-0.672c1.142-0.867,0.753-2.117,0.753-3.229c0.021-16.495,0.023-32.993,0-49.487
		C190.108,317.289,190.533,316.021,189.342,315.182z"/>
	<path fill="#FFFFFF" stroke="#FFFFFF" stroke-miterlimit="10" d="M163.512,313.055c3.88-1.537,7.905-0.525,11.855-0.535
		c1.561-0.002,0.934,1.875,0.937,2.899c0.051,11.638,0.036,23.267,0.036,34.897c0,6.279-0.096,12.562,0.044,18.844
		c0.047,2.176-0.693,2.527-2.754,2.77c-6.086,0.699-10.188-1.146-13.78-6.56c-6.22-9.382-13.454-18.089-20.27-27.08
		c-0.458-0.604-0.944-1.194-1.867-2.367c0,11.298-0.11,21.831,0.073,32.361c0.053,2.913-0.75,4.026-3.641,3.56
		c-3.097-0.501-6.354,0.906-9.363-0.753c1.549-0.597,0.995-1.946,0.999-3.013c0.033-16.881,0.033-33.76,0.003-50.639
		c-0.003-1.062,0.533-2.426-1.051-2.977c-0.437-1.47-0.007-2.163,1.647-2.113c2.674,0.078,5.354,0.101,8.026-0.017
		c1.778-0.076,2.377,1.254,3.193,2.317c7.921,10.344,15.817,20.703,23.717,31.062c0.415,0.539,0.843,1.071,2.135,1.512
		c0-11.148,0-22.298,0-33.445C163.957,313.574,164.061,313.339,163.512,313.055z"/>
	<path fill="#FFFFFF" stroke="#FFFFFF" stroke-miterlimit="10" d="M288.484,243.014c-9.203,0.003-18.406,0.073-27.605-0.045
		c-2.422-0.031-3.291,0.672-3.162,3.16c0.646,12.025,3.786,22.803,14.764,29.589c6.485,4.007,13.729,4.9,21.194,4.3
		c5.81-0.465,11.583-1.188,16.942-3.729c1.611-0.762,2.518-0.178,2.705,1.42c0.213,1.762,2.84,3.781-0.476,5.262
		c-4.722,2.104-9.7,3.356-14.799,3.875c-6.954,0.711-13.921,1.029-20.821-0.777c-11.787-3.088-20.141-10.354-24.408-21.559
		c-6.227-16.334-5.124-32.512,3.726-47.715c9.692-16.653,32.841-22.363,48.099-12.075c8.343,5.63,12.173,14.106,14.094,23.653
		c0.744,3.683,0.695,7.396,0.831,11.121c0.095,2.648-0.602,3.649-3.478,3.589C306.89,242.895,297.684,243.014,288.484,243.014z
		 M283.975,236.135c7.914,0,15.83,0.002,23.744-0.002c1.405,0,2.86,0.211,2.848-1.99c-0.149-22.564-17.965-32.008-34.996-25.003
		c-10.182,4.182-14.498,13.215-16.936,23.344c-0.64,2.668-0.307,3.865,2.985,3.742C269.062,235.947,276.523,236.144,283.975,236.135
		z"/>
	<path fill="#FFFFFF" stroke="#FFFFFF" stroke-miterlimit="10" d="M355.872,216.085c6.396-10.281,15.171-15.6,26.5-16.182
		c16.249-0.84,28.225,9.162,30.745,25.268c0.508,3.226,0.804,6.457,0.797,9.731c-0.035,15.727-0.149,31.458,0.111,47.176
		c0.062,3.798-1.717,3.669-4.381,3.74c-2.86,0.078-4.316-0.244-4.261-3.84c0.231-15.143,0.086-30.287,0.105-45.43
		c0.007-4.57-0.661-9.022-1.828-13.438c-4.355-16.412-21.292-19.531-32.992-13.127c-9.286,5.081-14.263,13.119-14.271,23.913
		c-0.021,15.845-0.013,31.686-0.02,47.526c-0.003,4.341-0.021,4.112-4.667,4.413c-3.423,0.215-4.216-0.941-4.202-4.268
		c0.093-24.344-0.03-48.69-0.086-73.038c0-0.696,0-1.396-0.035-2.096c-0.207-4.68-0.207-4.54,4.58-4.657
		c2.455-0.06,3.188,0.724,3.194,3.149C355.179,208.391,354.953,211.901,355.872,216.085z"/>
	<path fill="#FFFFFF" stroke="#FFFFFF" stroke-miterlimit="10" d="M82.141,215.765c1.948-0.852,2.276-2.188,2.969-3.17
		c11.873-16.78,38.887-17.106,49.825-0.579c4.757,7.194,5.924,15.366,6.026,23.68c0.187,15.605,0,31.21,0.125,46.813
		c0.021,2.654-0.783,3.642-3.366,3.271c-0.797-0.113-1.64-0.115-2.441-0.01c-2.48,0.338-3.153-0.72-3.129-3.141
		c0.114-11.294,0.146-22.592,0.018-33.887c-0.081-7.432,0.66-14.896-0.751-22.295c-2.344-12.3-10.265-19.41-21.86-19.546
		c-13.943-0.159-26.266,12.011-26.369,26.291c-0.121,16.305-0.179,32.613,0.062,48.912c0.06,3.82-1.748,3.672-4.404,3.719
		c-2.808,0.052-4.318-0.195-4.285-3.832c0.193-22.124,0.113-44.251,0.059-66.377c-0.006-3.717-0.232-7.439-0.555-11.144
		c-0.173-1.982,0.391-2.648,2.423-2.69c5.067-0.115,5.186-0.22,5.609,4.725C82.347,209.452,82.141,212.436,82.141,215.765z"/>
	<path fill="#FFFFFF" stroke="#FFFFFF" stroke-miterlimit="10" d="M352.334,371.831c3.561-9.958,6.963-19.478,10.362-28.992
		c3.325-9.315,6.683-18.622,9.943-27.961c0.608-1.75,1.35-2.558,3.412-2.573c9.997-0.102,10.02-0.187,13.432,9.172
		c5.771,15.854,11.46,31.739,17.312,47.562c0.9,2.443,0.38,2.956-2.04,2.824c-3.709-0.202-8.182,1.092-10.935-0.568
		c-2.81-1.689-2.794-6.591-3.694-10.15c-0.81-3.193-2.148-4.645-5.67-4.293c-3.693,0.365-7.452,0.181-11.177,0.041
		c-1.819-0.066-2.693,0.51-3.171,2.301c-0.936,3.484-2.093,6.904-3.164,10.351c-0.341,1.087-0.451,2.317-2.094,2.301
		C360.812,371.801,356.774,371.831,352.334,371.831z M379.926,327.43c-1.216,3.959-2.19,7.165-3.177,10.366
		c-2.604,8.462-2.607,8.417,6.264,8.067c1.838-0.072,2.478-0.329,1.809-2.357C383.148,338.448,381.699,333.32,379.926,327.43z"/>
	<path fill="#FFFFFF" stroke="#FFFFFF" stroke-miterlimit="10" d="M26.869,341.956c-0.003-8.845,0.083-17.692-0.06-26.533
		c-0.041-2.469,0.698-3.179,3.136-3.103c6.742,0.201,13.507-0.105,20.239,0.289c9.349,0.551,15.622,5.142,17.658,12.287
		c3.266,11.479-4.201,21.916-16.632,23.127c-2.891,0.281-5.811,0.342-8.717,0.306c-1.854-0.026-2.387,0.657-2.36,2.45
		c0.088,6.05-0.058,12.103,0.077,18.15c0.047,2.233-0.52,3.162-2.903,2.943c-2.305-0.213-4.663-0.204-6.973-0.004
		c-2.64,0.229-3.6-0.521-3.533-3.385C27,359.646,26.873,350.801,26.869,341.956z M40.084,330.102c0,7.881,0.003,7.9,8.034,7.022
		c1.255-0.14,2.544-0.382,3.715-0.847c2.437-0.973,3.45-3.023,3.54-5.534c0.091-2.421-0.347-4.646-2.709-6.011
		c-1.785-1.029-3.741-1.183-5.728-1.238C40.081,323.312,40.081,323.312,40.084,330.102z"/>
	<path fill="#FFFFFF" stroke="#FFFFFF" stroke-miterlimit="10" d="M77.35,342.15c0-8.963,0.07-17.928-0.051-26.887
		c-0.032-2.269,0.58-2.979,2.906-2.947c9.54,0.123,19.089,0.123,28.628,0c2.363-0.029,3.209,0.51,3.18,3.053
		c-0.086,8.148,0.022,8.148-8.149,8.148c-3.723,0-7.449,0.06-11.172-0.027c-1.634-0.036-2.302,0.467-2.247,2.184
		c0.105,3.139,0.105,6.286-0.011,9.426c-0.073,1.946,0.853,2.321,2.538,2.299c5.008-0.071,10.012,0.026,15.015-0.059
		c1.731-0.025,2.385,0.406,2.455,2.311c0.326,8.818,0.394,8.818-8.521,8.818c-3.142,0.004-6.283,0.043-9.425-0.019
		c-1.478-0.031-1.94,0.522-2.064,2.016c-0.878,10.251-0.916,10.251,9.167,10.248c3.724,0,7.451,0.076,11.174-0.038
		c1.781-0.054,2.371,0.467,2.442,2.34c0.335,8.815,0.4,8.812-8.493,8.812c-7.914,0-15.831-0.126-23.741,0.069
		c-2.816,0.069-3.785-0.543-3.708-3.561C77.496,359.611,77.353,350.88,77.35,342.15z"/>
	<path fill="#FFFFFF" stroke="#FFFFFF" stroke-miterlimit="10" d="M452.958,313.047c0.562-1.168,1.636-0.648,2.465-0.652
		c9.669-0.043,19.336,0.032,29.009-0.08c2.239-0.024,2.94,0.57,2.938,2.91c-0.023,8.297,0.076,8.297-8.347,8.297
		c-3.614,0-7.229,0.07-10.834-0.03c-1.745-0.046-2.536,0.397-2.451,2.315c0.134,3.023,0.141,6.062-0.02,9.084
		c-0.11,2.094,0.788,2.547,2.659,2.512c5.006-0.092,10.021,0.025,15.026-0.061c1.702-0.031,2.424,0.326,2.517,2.264
		c0.411,8.871,0.481,8.867-8.499,8.867c-3.146,0-6.294,0.062-9.436-0.021c-1.635-0.047-2.435,0.504-2.226,2.198
		c0.017,0.113,0.004,0.232,0,0.35c-0.403,9.707-0.403,9.707,9.338,9.71c3.728,0,7.461,0.083,11.184-0.038
		c1.835-0.062,2.341,0.549,2.414,2.374c0.333,8.785,0.39,8.785-8.184,8.785c-8.153,0-16.312,0.026-24.467-0.037
		c-1.039-0.008-2.343,0.681-3.125-0.685c0.804-0.493,0.791-0.971-0.021-1.438c-0.32-18.163-0.305-36.325-0.009-54.485
		C453.915,314.504,453.943,313.79,452.958,313.047z"/>
	<path fill="#FFFFFF" stroke="#FFFFFF" stroke-miterlimit="10" d="M292.382,311.632c5.343-0.204,10.353,1.002,15.106,3.492
		c1.945,1.021,2.295,2.054,0.863,3.694c-0.148,0.174-0.248,0.391-0.37,0.59c-1.279,2.082-2.111,4.83-3.96,6.053
		c-1.883,1.253-3.979-1.438-6.198-1.831c-3.122-0.551-6.204-1.151-9.296-0.022c-2.08,0.756-3.663,2.097-4.032,4.406
		c-0.375,2.352,0.864,3.993,2.674,5.285c2.197,1.574,4.74,2.45,7.192,3.502c2.672,1.143,5.421,2.161,7.939,3.586
		c6.596,3.73,9.203,9.551,8.327,17.01c-0.879,7.574-5.249,12.108-12.354,14.394c-9.719,3.124-18.291,0.481-26.422-4.908
		c-1.716-1.138-1.875-2.13-0.451-3.503c0.08-0.082,0.152-0.176,0.223-0.27c1.523-2.053,2.641-4.854,4.678-5.971
		c2.367-1.302,4.198,1.963,6.542,2.701c3.497,1.1,6.956,2.04,10.604,1.195c4.394-1.016,5.678-5.626,2.501-8.854
		c-1.921-1.951-4.442-2.939-6.894-4.015c-2.556-1.118-5.22-2.024-7.658-3.354c-8.373-4.569-11.59-11.287-9.763-19.932
		c1.539-7.271,8.16-12.471,16.912-13.232C289.816,311.537,291.107,311.632,292.382,311.632z"/>
	<path fill="#FFFFFF" stroke="#FFFFFF" stroke-miterlimit="10" d="M225.835,201.748c2.308,0.035,4.619,0.063,6.928,0.099
		c-4.378,11.4-8.731,22.81-13.151,34.193c-6.066,15.622-12.268,31.19-18.204,46.864c-0.97,2.566-2.392,2.875-4.685,2.869
		c-2.37-0.01-3.963-0.189-5.021-2.938c-10.008-25.955-20.186-51.842-30.374-77.73c-0.894-2.278-0.878-3.338,2.06-3.327
		c5.725,0.02,5.684-0.096,7.817,5.422c8.356,21.602,16.737,43.191,25.117,64.782c0.199,0.515,0.458,1.009,1.022,2.238
		c2.885-7.375,5.532-14.111,8.159-20.854c6.509-16.697,13.008-33.399,19.523-50.096C225.23,202.739,225.561,202.254,225.835,201.748
		z"/>
	<path fill="#FFFFFF" stroke="#FFFFFF" stroke-miterlimit="10" d="M459.906,239.483c0.004,7.453,0,14.901,0.004,22.351
		c0,1.165-0.004,2.329,0.031,3.493c0.383,11.969,6.11,16.663,17.835,14.621c3.9-0.677,4.391-0.22,4.628,3.565
		c0.104,1.612-0.461,2.375-1.927,2.743c-5.147,1.304-10.389,1.709-15.54,0.438c-8.413-2.074-12.93-9.155-13.408-20.147
		c-0.696-16.17-0.295-32.347-0.386-48.517c-0.053-9.234-0.012-9.23-9.238-9.239c-2.481-0.001-5.181,0.756-4.977-3.584
		c0.14-2.874,1.011-3.611,3.655-3.417c2.662,0.194,5.356-0.055,8.028,0.072c2.085,0.099,3.24-0.634,2.812-2.773
		c-0.731-3.6,0.375-7.202-0.189-10.774c-0.354-2.229,1.309-2.391,2.688-2.906c5.979-2.229,5.979-2.227,5.984,4.005
		c0.004,2.911,0.175,5.835-0.051,8.729c-0.219,2.83,0.602,3.887,3.62,3.763c5.812-0.243,11.646,0.102,17.451-0.142
		c3.235-0.133,2.757,1.791,2.88,3.769c0.144,2.25-0.355,3.396-2.999,3.314c-5.929-0.177-11.873,0.054-17.807-0.106
		c-2.46-0.066-3.18,0.722-3.148,3.159C459.982,221.092,459.906,230.288,459.906,239.483z"/>
	<path fill="#FFFFFF" stroke="#FFFFFF" stroke-miterlimit="10" d="M341.827,347.662c0,7.213-0.063,14.427,0.041,21.639
		c0.031,1.969-0.525,2.686-2.534,2.562c-2.545-0.155-5.131-0.2-7.672,0.011c-2.514,0.21-3.079-0.74-3.06-3.14
		c0.11-13.959-0.031-27.92,0.128-41.879c0.031-2.857-0.87-3.436-3.521-3.396c-8.653,0.125-8.591,0.025-8.368-8.553
		c0.052-1.952,0.575-2.6,2.579-2.582c10.471,0.089,20.944,0.094,31.411-0.004c2.036-0.021,2.484,0.662,2.518,2.58
		c0.146,8.559,0.209,8.67-8.312,8.554c-2.607-0.036-3.351,0.641-3.274,3.271C341.951,333.695,341.823,340.684,341.827,347.662z"/>
	<path fill="#FFFFFF" stroke="#FFFFFF" stroke-miterlimit="10" d="M431.583,347.662c0,7.104-0.104,14.206,0.058,21.302
		c0.055,2.354-0.673,3.054-2.936,2.896c-3.229-0.226-7.421,1.002-9.457-0.601c-2.178-1.717-0.661-6.091-0.688-9.294
		c-0.098-11.643-0.146-23.286,0.033-34.922c0.045-2.996-0.912-3.643-3.726-3.592c-8.952,0.154-8.914,0.045-8.173-9.092
		c0.121-1.485,0.556-2.016,2.052-2.01c10.827,0.039,21.657,0.035,32.484,0c1.312-0.006,1.996,0.395,1.877,1.775
		c-0.007,0.113-0.003,0.234,0.004,0.35c0.68,8.976,0.68,9.077-8.227,8.976c-2.565-0.03-3.438,0.569-3.366,3.258
		C431.707,333.688,431.583,340.68,431.583,347.662z"/>
	<path fill="#FFFFFF" stroke="#FFFFFF" stroke-miterlimit="10" d="M39.745,243.481c0,13.039-0.143,26.08,0.083,39.115
		c0.069,4.021-2.37,3.049-4.539,3.168c-2.337,0.125-4.128,0.281-4.11-3.244c0.158-25.729,0.122-51.459,0.029-77.188
		c-0.011-2.691,0.649-3.662,3.475-3.55c5.991,0.232,5.024-0.396,5.046,5.026C39.773,219.032,39.745,231.256,39.745,243.481z"/>
	<path fill="#FFFFFF" stroke="#FFFFFF" stroke-miterlimit="10" d="M124.735,314.459c1.586,0.549,1.048,1.914,1.051,2.977
		c0.029,16.881,0.029,33.758-0.003,50.638c-0.003,1.063,0.551,2.418-0.999,3.014c-0.073-9.263-0.193-18.524-0.203-27.786
		C124.575,333.686,124.68,324.07,124.735,314.459z"/>
	<path fill="#FFFFFF" stroke="#FFFFFF" stroke-miterlimit="10" d="M189.342,315.182c1.189,0.842,0.767,2.107,0.771,3.211
		c0.023,16.494,0.021,32.992,0,49.487c0,1.111,0.389,2.363-0.753,3.228c-0.065-12.272-0.159-24.547-0.183-36.822
		C189.167,327.915,189.284,321.547,189.342,315.182z"/>
	<path fill="#FFFFFF" stroke="#FFFFFF" stroke-miterlimit="10" d="M174.633,120.747c0.024,0.482,0.04,0.97,0.062,1.454
		c-2.982-0.862-5.552-2.478-8.196-3.948c0.152-0.343,0.305-0.684,0.459-1.026C169.515,118.397,172.078,119.573,174.633,120.747z"/>
	<path fill="#FFFFFF" stroke="#FFFFFF" stroke-miterlimit="10" d="M452.958,313.047c0.985,0.743,0.957,1.457-0.062,2.141
		C452.68,314.467,452.602,313.752,452.958,313.047z"/>
	<path fill="#FFFFFF" stroke="#FFFFFF" stroke-miterlimit="10" d="M452.903,369.673c0.812,0.466,0.821,0.947,0.02,1.438
		C452.916,370.63,452.91,370.15,452.903,369.673z"/>
	<path fill="#FFFFFF" stroke="#FFFFFF" stroke-miterlimit="10" d="M163.512,313.055c0.547,0.284,0.445,0.521-0.06,0.719
		C163.474,313.535,163.495,313.296,163.512,313.055z"/>
</g>
</svg>
