<?xml version="1.0" encoding="utf-8"?>
<!-- Generator: Adobe Illustrator 16.0.0, SVG Export Plug-In . SVG Version: 6.00 Build 0)  -->
<!DOCTYPE svg PUBLIC "-//W3C//DTD SVG 1.1//EN" "http://www.w3.org/Graphics/SVG/1.1/DTD/svg11.dtd">
<svg version="1.1" id="Layer_1" xmlns="http://www.w3.org/2000/svg" xmlns:xlink="http://www.w3.org/1999/xlink" x="0px" y="0px"
	 width="500px" height="380px" viewBox="0 68.5 500 380" enable-background="new 0 68.5 500 380" xml:space="preserve">
<g>
	<path fill="#FFFFFF" d="M396.604,244.036c7.802-4.793,15.644-9.344,24.945-10.844c25.102-4.044,49.135,11.89,55.036,36.708
		c5.585,23.482-7.451,47.865-30.077,56.263c-2.019,0.749-4.024,1.528-6.038,2.295c0.855-3.745-1.929-6.28-3.464-9.044
		c-0.734-1.323-2.002-2.443-2.346-4.125c-0.369-1.807-0.22-3.903-2.532-4.725c-0.479-0.17-0.383-0.963-0.633-1.34
		c-1.16-1.748,0.394-5.092-3.18-5.439c-0.383-0.037-0.35-0.614-0.193-0.969c0.41-0.932-0.184-1.444-0.84-1.799
		c-0.83-0.451-1.178-1.064-1.14-1.98c0.028-0.663-0.353-1.241-0.89-1.452c-2.473-0.971-2.396-3.44-2.473-5.233
		c-0.07-1.664-0.337-2.213-1.843-2.43c-0.6-0.086-0.766-0.727-1.082-1.234c-1.245-2.002,0.183-5.318-3.097-6.311
		c-0.187-0.057-0.265-0.508-0.371-0.783c-0.815-2.099-0.406-4.791-3.025-6.033c-0.347-0.162-0.356-0.946-0.617-1.388
		c-1.101-1.858-0.033-4.821-2.973-5.786c-0.316-0.104-0.479-0.895-0.575-1.393c-0.104-0.53-0.165-1.154-0.647-1.357
		c-2.867-1.203-2.243-4.033-2.93-6.229c-0.215-0.688,0.004-1.576-0.907-1.843c-2.229-0.646-2.808-2.825-3.433-4.455
		c-0.669-1.743-2.789-3.234-1.655-5.579c0.08-0.166-0.452-0.851-0.805-0.964C397.539,246.152,397.159,245.034,396.604,244.036z"/>
	<path fill="#FFFFFF" d="M199.465,421.236c-6.55,2.774-13.27,5.109-19.889,7.692c-5.72,2.231-11.452,4.45-17.149,6.751
		c-4.681,1.891-9.399,3.686-14.066,5.616c-16.165,6.693-33.977-5.637-33.681-23.171c0.104-6.145,2.311-11.379,6.115-16.131
		c8.185-10.227,16.256-20.542,24.383-30.812c0.548-0.693,1.171-1.328,1.76-1.988c0.884,0.51,0.672,1.923,1.575,2.238
		c2.497,0.867,4.518,2.502,6.415,4.166c1.744,1.528,4.315,1.614,5.704,3.225c3.441,3.988,8.999,5.037,12.248,9.199
		c0.234,0.299,0.791,0.44,1.215,0.482c1.303,0.128,1.972,1.01,2.839,1.865c1.713,1.688,3.528,3.474,6.318,3.083
		c0.047,0.856-0.233,1.853,0.991,2.187c0.677,0.185,1.01-1.203,1.714-0.436c0.917,1.001-0.713,0.773-0.75,1.366
		c-0.027,0.438,0.235,0.795,0.534,0.903c2.71,0.998,1.97,4.224,3.999,5.953c1.888,1.61,2.278,4.706,3.645,7.033
		c1.543,2.629,2.682,5.543,2.843,8.699c0.018,0.355,0.059,1.025,0.384,0.897C198.011,419.509,198.387,421.189,199.465,421.236z"/>
	<path fill="#FFFFFF" d="M396.604,244.036c0.557,0.999,0.937,2.116,2.219,2.528c0.353,0.113,0.885,0.798,0.805,0.964
		c-1.134,2.345,0.986,3.836,1.655,5.58c0.625,1.629,1.204,3.809,3.433,4.455c0.911,0.267,0.692,1.153,0.907,1.842
		c0.687,2.197,0.062,5.027,2.93,6.23c0.482,0.203,0.545,0.827,0.647,1.357c0.097,0.498,0.259,1.287,0.575,1.392
		c2.938,0.966,1.873,3.929,2.973,5.787c0.261,0.44,0.271,1.226,0.617,1.388c2.619,1.241,2.21,3.936,3.025,6.033
		c0.106,0.275,0.186,0.727,0.371,0.783c3.278,0.991,1.852,4.309,3.097,6.311c0.316,0.51,0.482,1.148,1.082,1.234
		c1.506,0.217,1.771,0.766,1.843,2.43c0.075,1.793,0,4.264,2.473,5.233c0.537,0.211,0.918,0.789,0.89,1.452
		c-0.038,0.916,0.31,1.529,1.14,1.98c0.656,0.354,1.25,0.867,0.84,1.799c-0.155,0.354-0.188,0.932,0.193,0.969
		c3.572,0.349,2.02,3.691,3.18,5.439c0.25,0.377,0.152,1.17,0.633,1.34c2.312,0.82,2.163,2.918,2.532,4.725
		c0.344,1.682,1.61,2.802,2.346,4.125c1.535,2.764,4.319,5.299,3.464,9.044c-0.272,0.073-0.546,0.147-0.818,0.223
		c-0.675-0.79-0.853-0.292-0.966,0.372c-5.914,2.499-11.977,4.604-17.984,6.85c-4.197,1.57-8.357,3.347-12.524,5.051
		c-0.816,0.335-1.616,0.773-2.554,0.664c-0.327-0.598-0.684-1.262-0.463-1.907c0.915-2.683-2.849-4.026-1.878-6.709
		c0.041-0.113-0.21-0.431-0.388-0.507c-1.099-0.467-1.369-1.479-1.706-2.459c-0.115-0.336-0.133-0.883-0.596-0.811
		c-2.186,0.346-2.091-0.867-1.757-2.379c0.089-0.396,0.006-0.945-0.217-1.279c-0.836-1.259-0.973-2.953-2.625-3.722
		c-1.431-0.666,0.224-2.176-0.51-2.996c-2.354-2.634-2.52-6.62-5.53-8.831c-0.455-0.336-0.336-0.953-0.509-1.423
		c-0.5-1.358-0.517-3.549-1.706-3.882c-3.016-0.844-2.565-3.324-2.382-5.014c0.167-1.529-0.293-2.066-1.305-2.325
		c-1.812-0.464-2.354-1.511-2.199-3.257c0.188-2.127,0.06-4.08-2.774-4.467c-1.164-0.158-0.884-1.269-0.605-1.996
		c0.413-1.078,0.105-1.719-0.893-2.125c-0.741-0.301-0.992-1.103-1.519-1.534c-2.144-1.757-0.588-5.132-3.107-6.759
		c-0.548-0.354-0.658-1.39-1.67-1.494c-0.695-0.07-1.542-0.717-1.283-1.271c1.043-2.228-0.672-3.838-1.48-5.269
		c-1.083-1.912-0.821-5.895-5.053-4.471c0.438-1.703,3.454-0.932,2.655-3.354c8.189-4.71,16.373-9.428,24.569-14.123
		c1.675-0.959,3.396-1.833,5.097-2.747c0.12-0.089,0.24-0.177,0.36-0.266C396.302,244.174,396.452,244.105,396.604,244.036z
		 M401.23,327.661c-0.261-0.345-0.375-0.497-0.489-0.647c-0.146,0.11-0.377,0.195-0.42,0.338c-0.083,0.275-0.024,0.592,0.364,0.572
		C400.865,327.916,401.037,327.76,401.23,327.661z"/>
	<path fill="#FFFFFF" d="M366.124,261.38c0.799,2.422-2.218,1.649-2.655,3.354c4.23-1.424,3.969,2.558,5.053,4.47
		c0.81,1.431,2.523,3.041,1.48,5.269c-0.259,0.555,0.588,1.199,1.283,1.271c1.012,0.104,1.122,1.14,1.67,1.494
		c2.521,1.627,0.965,5.001,3.106,6.758c0.526,0.434,0.777,1.232,1.52,1.535c0.998,0.404,1.306,1.046,0.893,2.125
		c-0.277,0.728-0.559,1.838,0.605,1.996c2.834,0.386,2.962,2.34,2.773,4.467c-0.152,1.746,0.389,2.792,2.2,3.256
		c1.012,0.259,1.472,0.796,1.305,2.326c-0.185,1.688-0.634,4.169,2.382,5.013c1.189,0.333,1.206,2.522,1.706,3.882
		c0.173,0.469,0.054,1.088,0.509,1.422c3.012,2.211,3.176,6.198,5.53,8.832c0.732,0.82-0.922,2.33,0.51,2.996
		c1.652,0.77,1.789,2.463,2.625,3.723c0.223,0.334,0.306,0.882,0.217,1.279c-0.334,1.51-0.429,2.725,1.757,2.379
		c0.463-0.074,0.479,0.475,0.595,0.81c0.338,0.979,0.608,1.993,1.706,2.459c0.179,0.075,0.43,0.394,0.389,0.507
		c-0.972,2.684,2.793,4.025,1.878,6.709c-0.221,0.646,0.136,1.311,0.463,1.907c-2.972,1.858-6.365,2.718-9.581,3.983
		c-8.485,3.344-17.009,6.588-25.519,9.865c-0.69,0.266-1.396,0.492-2.095,0.737l-0.684-3.946c-0.578-0.922-0.697-1.938-0.644-3
		c0.058-1.123-0.28-2.062-1.389-2.56c-0.634-0.284-0.966-0.919-1.457-1.292c-1.646-1.252-1.216-3.247-1.965-4.744
		c-1.253-2.505-2.795-4.798-3.92-7.449c-1.155-2.721-2.274-6.156-5.573-7.638c-0.503-0.226-0.438-0.894-0.456-1.419
		c-0.02-0.586,0.153-1.235-0.268-1.729c-1.688-1.976-3.295-3.974-3.398-6.758c-0.011-0.29-0.37-0.701-0.665-0.824
		c-2.415-1.016-2.438-3.281-2.799-5.336c-0.131-0.742-0.017-1.691-0.88-1.854c-1.687-0.318-2.05-1.672-2.278-2.893
		c-0.434-2.31-0.749-4.576-2.853-6.098c-0.315-0.229-0.581-0.792-0.561-1.184c0.187-3.392-1.801-6.229-2.652-9.314
		c-0.737-2.669-0.969-5.204-1.125-7.855c-0.02-0.323-0.312-0.631-0.477-0.945l-0.087-0.104l0.091-0.099
		c9.595-5.416,19.188-10.836,28.785-16.246C364.143,262.375,365.142,261.893,366.124,261.38z"/>
	<path fill="#FFFFFF" d="M59.58,142.126c-7.481-4.292-14.992-8.415-20.035-15.921C26.466,106.74,37.846,78.59,60.84,74.101
		c4.09-0.799,8.193-0.795,12.476-0.27c5.962,0.731,11.039,2.908,15.66,6.368c2.693,2.017,5.424,4.087,7.524,6.804
		c-0.728,0.281-0.718,1.07-1.094,1.565c-1.139,1.502-0.513,3.985-2.227,4.911c-3.342,1.806-3.59,6.078-6.747,7.925
		c-0.055,0.032-0.095,0.122-0.106,0.191c-0.44,2.678-2.934,4.241-3.688,6.707c-0.579,1.896-2.839,2.361-3.35,3.965
		c-0.833,2.618-3.028,4.393-3.856,6.878c-0.635,1.907-2.941,2.293-3.354,3.965c-0.627,2.541-3.138,3.849-3.689,6.422
		c-0.163,0.761-0.475,1.97-1.457,2.389c-2.5,1.066-2.186,4.298-4.444,5.637c-0.652,0.387-0.816,1.792-0.171,2.686
		c1.016,1.408,0.374,2.318-0.768,3.152c-0.16-0.101-0.319-0.201-0.479-0.301C61.111,141.943,60.332,142.055,59.58,142.126z"/>
	<path fill="#FFFFFF" d="M208.019,183.601c-10.13,0.027-20.261,0.115-30.391,0.03c-1.997-0.017-2.475,0.522-2.458,2.479
		c0.083,9.235-0.004,18.472-0.031,27.709c-7.082-4.353-14.176-8.688-21.244-13.066c-8.879-5.5-17.737-11.035-26.605-16.554
		c0.1-1.118,1.304-1.374,1.732-2.386c1.246-2.943,3.407-5.358,5.223-7.969c1.943-2.795,3.71-5.707,5.657-8.503
		c1.894-2.719,3.533-5.734,5.38-8.479c1.652-2.457,3.093-5.17,5.08-7.328c1.575-1.71,2.169-3.899,3.679-5.645
		c1.027-1.188,2.769-2.265,2.879-4.214c4.317,2.656,7.853,6.275,11.666,9.544c8.977,7.695,17.889,15.465,26.805,23.23
		C199.627,176.137,203.812,179.882,208.019,183.601z"/>
	<path fill="#FFFFFF" d="M199.465,421.236c-1.078-0.047-1.454-1.729-2.854-1.179c-0.325,0.128-0.366-0.542-0.384-0.897
		c-0.161-3.156-1.299-6.07-2.843-8.699c-1.366-2.327-1.757-5.423-3.645-7.033c-2.029-1.729-1.289-4.955-3.999-5.953
		c-0.298-0.108-0.561-0.466-0.534-0.903c0.037-0.593,1.667-0.365,0.75-1.366c-0.704-0.768-1.037,0.619-1.714,0.436
		c-1.225-0.334-0.944-1.33-0.991-2.186c3.432-5.67,6.86-11.342,10.297-17.008c2.95-4.863,5.895-9.729,8.869-14.578
		c2.433-3.967,4.905-7.907,7.359-11.859c0.11-0.136,0.22-0.271,0.33-0.406l-0.041,0.035c2.163-0.484,3.746-2.128,5.77-2.889
		c0.136,2.636,1.79,4.784,2.711,7.095c1.078,2.702,3.394,5.037,4.23,7.956c0.784,2.738,3.685,4.152,3.95,7.174
		c0.257,2.92,3.515,4.457,3.717,7.495c0.099,1.483,0.808,2.646,2.095,3.472c0.502,0.32,0.678,0.894,0.83,1.51
		c0.523,2.115,0.759,4.39,2.85,5.762c0.327,0.215,0.546,0.704,0.66,1.111c0.616,2.193,2.145,3.855,3.202,5.773
		c1.013,1.838,2.684,3.437,3.001,5.521c0.235,1.541,0.435,3.049,0.999,4.502c-13.833,5.37-27.667,10.741-41.5,16.112
		C201.563,420.627,200.395,420.562,199.465,421.236z"/>
	<path fill="#FFFFFF" d="M244.083,404.119c-0.564-1.453-0.764-2.961-0.999-4.502c-0.318-2.085-1.989-3.684-3.001-5.521
		c-1.057-1.918-2.586-3.58-3.202-5.773c-0.114-0.407-0.333-0.896-0.66-1.111c-2.091-1.372-2.327-3.646-2.85-5.762
		c-0.152-0.616-0.328-1.188-0.83-1.51c-1.287-0.824-1.996-1.987-2.095-3.472c-0.202-3.038-3.46-4.575-3.717-7.495
		c-0.266-3.021-3.166-4.436-3.95-7.174c-0.836-2.919-3.152-5.254-4.23-7.956c-0.921-2.311-2.575-4.459-2.711-7.095
		c0.148-0.094,0.297-0.186,0.446-0.278c0.648,0.021,1.331,0.101,1.41-0.838c1.681-1.093,3.666-1.675,5.159-3.082
		c10.655-0.002,21.31-0.004,31.965-0.006c2.623,1.755,3.65,4.385,4.097,7.362c0.06,0.395,0.36,0.886,0.696,1.082
		c3.378,1.986,3.275,6.082,5.324,8.926c0.965,1.338,1.531,3.718,2.51,4.874c2.361,2.793,3.09,6.309,4.822,9.315
		c1.869,3.239,3.906,6.637,5.113,10.323c0.366,1.12,0.747,2.354,1.501,3.196c0.845,0.943,0.863,1.771,0.54,2.804
		c-7.572,2.959-15.142,5.929-22.721,8.871C252.504,400.93,248.29,402.515,244.083,404.119z"/>
	<path fill="#FFFFFF" d="M334.389,279.366c0.165,0.313,0.457,0.622,0.477,0.946c0.157,2.65,0.388,5.187,1.125,7.854
		c0.853,3.087,2.839,5.924,2.652,9.313c-0.021,0.393,0.244,0.955,0.561,1.185c2.104,1.521,2.419,3.788,2.853,6.099
		c0.229,1.221,0.594,2.572,2.278,2.891c0.863,0.162,0.749,1.111,0.88,1.854c0.361,2.056,0.384,4.32,2.799,5.335
		c0.295,0.124,0.654,0.535,0.665,0.825c0.104,2.784,1.711,4.782,3.398,6.758c0.421,0.492,0.248,1.142,0.268,1.728
		c0.02,0.525-0.047,1.193,0.456,1.42c3.299,1.48,4.418,4.917,5.573,7.638c1.125,2.651,2.667,4.944,3.92,7.449
		c0.749,1.497,0.319,3.491,1.965,4.743c0.491,0.373,0.823,1.009,1.457,1.293c1.107,0.496,1.445,1.437,1.39,2.56
		c-0.056,1.063,0.063,2.078,0.643,3l0.684,3.946c-6.892,2.682-13.776,5.375-20.674,8.042c-8.632,3.339-17.27,6.659-25.909,9.978
		c-0.549,0.211-1.13,0.342-1.694,0.508c0.089-1.035-1.782-0.465-1.423-1.781c0.455-1.66-2.395-5.586-4.14-5.527
		c-1.062,0.034-1.342-0.51-1.489-1.225c-0.184-0.872,0.561-0.812,1.144-0.938c1.499-0.327,1.271-1.698,0.614-2.144
		c-1.489-1.008-2.627-2.258-3.672-3.651l0.012,0.011c0.295-2.975-1.842-5.109-2.977-7.486c-0.629-1.319-1.279-2.825-2.143-4.125
		c-1.361-2.053-1.994-4.824-5.121-5.111c-0.023-0.002-0.037-0.136-0.055-0.207c10.049-0.023,20.099-0.047,30.146-0.079
		c0.533-0.002,0.987,0.271,1.463,0.356c0.972,0.181,1.769-0.174,1.805-1.366c0.016-0.521,0.007-1.043,0.007-1.563
		c0-19.207-0.001-38.416,0.002-57.623C334.326,281.299,334.366,280.333,334.389,279.366z M335.015,308.001
		c0.073,0,0.146,0,0.221-0.001c0-5.652,0-11.309,0-16.961c-0.073,0-0.146,0-0.221,0
		C335.015,296.693,335.015,302.348,335.015,308.001z"/>
	<path fill="#FFFFFF" d="M156.921,139.675c-0.111,1.95-1.853,3.027-2.879,4.214c-1.51,1.746-2.104,3.934-3.679,5.645
		c-1.986,2.158-3.427,4.872-5.08,7.328c-1.847,2.745-3.486,5.76-5.38,8.479c-1.947,2.796-3.714,5.708-5.657,8.503
		c-1.815,2.611-3.977,5.026-5.223,7.969c-0.428,1.012-1.633,1.268-1.732,2.386c-9.837-6.119-19.674-12.237-29.512-18.356
		c-0.539-1.292-0.169-2.353,0.985-3.027c2.398-1.402,2.578-4.269,4.047-6.305c0.947-1.312,1.729-2.935,2.887-4.211
		c1.066-1.177,2.602-1.964,2.515-3.953c-0.035-0.816,0.961-1.208,1.652-1.262c1.654-0.128,1.976-1.104,1.793-2.443
		c-0.205-1.508,0.396-2.634,1.574-3.441c1.581-1.085,3.765-1.569,3.744-4.133c-0.002-0.244,0.476-0.576,0.797-0.723
		c1.008-0.462,1.144-1.306,1.048-2.239c-0.256-2.506,1.168-3.832,3.266-4.659c1.066-0.42,1.59-1.035,1.741-2.276
		c0.201-1.662,0.442-3.508,1.315-4.854c1.184-1.824,3.183-3.075,4.16-5.146c0.298-0.632,0.957-0.623,1.567-0.598
		c8.645,7.285,17.211,14.66,25.589,22.252c0.137,0.178,0.274,0.357,0.412,0.536C156.96,139.455,156.976,139.559,156.921,139.675z
		 M128.508,122.991c-0.051-0.589-0.5-0.586-0.94-0.607c-0.862-0.041-1.162,0.418-1.122,1.219c0.03,0.595,0.236,1.054,0.908,0.895
		C128.089,124.325,128.271,123.631,128.508,122.991z M105.835,156.725c0.556-0.151,0.883-0.513,0.839-1.094
		c-0.043-0.571-0.392-0.978-0.979-0.952c-0.878,0.038-0.715,0.753-0.702,1.305C105.006,156.491,105.28,156.786,105.835,156.725z"/>
	<path fill="#FFFFFF" d="M209.777,350.009c-2.455,3.952-4.926,7.894-7.359,11.859c-2.974,4.849-5.919,9.715-8.869,14.577
		c-3.437,5.668-6.865,11.339-10.297,17.009c-2.79,0.39-4.605-1.397-6.318-3.084c-0.868-0.854-1.537-1.737-2.839-1.865
		c-0.424-0.042-0.981-0.185-1.215-0.483c-3.249-4.162-8.807-5.211-12.248-9.198c-1.388-1.609-3.959-1.695-5.704-3.226
		c-1.897-1.664-3.918-3.298-6.415-4.166c-0.903-0.314-0.691-1.729-1.575-2.238c4.524-5.812,9.02-11.646,13.58-17.428
		c4.838-6.138,9.738-12.225,14.611-18.334c0.032,2.381,0.177,4.769,0.056,7.143c-0.083,1.628,0.505,1.941,2.015,1.934
		c11.918-0.057,23.835-0.027,35.753-0.021c0.371,0,0.742,0.043,1.113,0.065c-1.333,2.361-2.666,4.724-3.999,7.087
		c0,0,0.041-0.035,0.04-0.035C209.997,349.738,209.888,349.873,209.777,350.009z"/>
	<path fill="#FFFFFF" d="M300.902,342.542c0.018,0.071,0.029,0.205,0.055,0.207c3.127,0.287,3.759,3.06,5.121,5.112
		c0.862,1.299,1.514,2.805,2.143,4.125c1.135,2.377,3.271,4.512,2.977,7.486c-0.682,0.104-1.371,0.223-1.101,1.182
		c0.047,0.166,0.336,0.402,0.476,0.38c1.037-0.177,0.443-1.028,0.612-1.572c1.046,1.396,2.184,2.644,3.673,3.651
		c0.656,0.443,0.885,1.814-0.614,2.144c-0.583,0.128-1.326,0.066-1.145,0.938c0.148,0.715,0.429,1.259,1.49,1.225
		c1.745-0.059,4.594,3.867,4.139,5.527c-0.358,1.316,1.513,0.746,1.424,1.781c-5.519,2.192-11.022,4.418-16.556,6.57
		c-7.269,2.827-14.558,5.602-21.843,8.385c-0.761,0.291-1.553,0.498-2.331,0.744c0.323-1.031,0.305-1.859-0.54-2.804
		c-0.754-0.843-1.135-2.076-1.501-3.196c-1.207-3.687-3.244-7.084-5.113-10.324c-1.732-3.006-2.461-6.521-4.822-9.314
		c-0.979-1.156-1.545-3.536-2.51-4.874c-2.049-2.843-1.946-6.938-5.324-8.925c-0.336-0.197-0.637-0.688-0.696-1.083
		c-0.445-2.978-1.474-5.607-4.097-7.362C270.18,342.544,285.541,342.543,300.902,342.542z M306.594,352.945
		c-0.054,0.123-0.106,0.248-0.16,0.371c0.124,0.053,0.274,0.175,0.364,0.14c0.088-0.034,0.114-0.228,0.168-0.351
		C306.842,353.052,306.719,352.998,306.594,352.945z"/>
	<path fill="#FFFFFF" d="M61.549,143.396c1.142-0.834,1.784-1.744,0.768-3.152c-0.645-0.895-0.481-2.299,0.171-2.686
		c2.259-1.339,1.944-4.571,4.444-5.637c0.982-0.419,1.294-1.628,1.457-2.389c0.551-2.573,3.062-3.881,3.689-6.422
		c0.413-1.672,2.719-2.058,3.354-3.965c0.828-2.486,3.023-4.261,3.856-6.878c0.511-1.604,2.771-2.07,3.35-3.965
		c0.753-2.465,3.248-4.028,3.688-6.707c0.012-0.069,0.052-0.159,0.106-0.191c3.156-1.848,3.405-6.119,6.747-7.925
		c1.713-0.926,1.088-3.409,2.227-4.911c0.375-0.495,0.366-1.284,1.094-1.565c2.352,1.353,4.263,3.262,6.272,5.036
		c4.866,4.298,9.975,8.322,14.6,12.893c-0.797,0.085-1.08,0.573-1.234,1.326c-0.714,3.479-2.801,6.169-4.955,8.888
		c-1.94,2.45-3.533,5.175-5.274,7.782c-0.038,0.056-0.036,0.146-0.034,0.219c0.036,1.41-0.581,2.228-2.04,2.402
		c-0.784,0.093-1.264,0.641-0.983,1.414c0.53,1.464-0.488,2.196-1.281,3.042c-1.159,1.234-2.498,2.396-2.825,4.125
		c-0.224,1.181-0.637,1.938-1.865,2.114c-1.002,0.144-1.492,0.656-1.12,1.688c0.172,0.478,0.155,0.895-0.225,1.215
		c-2.151,1.811-2.896,4.498-4.35,6.714c-0.909,1.386-2.106,2.774-3.17,4.031c-1.735,2.051-2.218,4.293-2.998,6.549
		c-0.989,0.389-1.748-1.902-2.838-0.218C75.303,151.947,68.426,147.671,61.549,143.396z"/>
	<path fill="#FFFFFF" d="M82.179,156.223c1.09-1.685,1.849,0.607,2.838,0.218c0.78-2.256,1.263-4.498,2.998-6.549
		c1.064-1.257,2.261-2.646,3.17-4.031c1.454-2.216,2.199-4.903,4.35-6.714c0.38-0.32,0.397-0.737,0.225-1.215
		c-0.372-1.032,0.118-1.544,1.12-1.688c1.228-0.176,1.641-0.933,1.865-2.114c0.328-1.728,1.667-2.89,2.825-4.125
		c0.793-0.845,1.811-1.577,1.281-3.042c-0.28-0.773,0.2-1.321,0.983-1.414c1.459-0.174,2.076-0.992,2.04-2.402
		c-0.002-0.073-0.003-0.163,0.034-0.219c1.742-2.607,3.334-5.333,5.274-7.782c2.153-2.718,4.241-5.409,4.955-8.888
		c0.155-0.753,0.438-1.241,1.234-1.326c2.768,2.334,5.633,4.564,8.267,7.04c1.698,1.596,3.42,3.146,5.234,4.601
		c-0.61-0.025-1.269-0.035-1.567,0.598c-0.978,2.071-2.977,3.322-4.16,5.146c-0.873,1.346-1.115,3.192-1.315,4.854
		c-0.15,1.241-0.675,1.856-1.741,2.276c-2.098,0.827-3.521,2.153-3.266,4.659c0.095,0.933-0.04,1.777-1.048,2.239
		c-0.321,0.147-0.799,0.479-0.797,0.723c0.021,2.564-2.164,3.048-3.744,4.133c-1.178,0.808-1.779,1.933-1.574,3.441
		c0.183,1.339-0.139,2.315-1.793,2.443c-0.69,0.054-1.687,0.446-1.652,1.262c0.087,1.989-1.448,2.776-2.515,3.953
		c-1.158,1.276-1.94,2.899-2.887,4.211c-1.47,2.036-1.649,4.902-4.047,6.305c-1.155,0.675-1.524,1.736-0.985,3.027
		C92.579,162.636,87.379,159.43,82.179,156.223z"/>
	<path fill="#FFFFFF" d="M334.25,277.805c-0.039-1.099-0.113-2.197-0.113-3.296c-0.006-29.35-0.006-58.699,0-88.048
		c0-0.735,0.078-1.471,0.12-2.198c0.046,0.362,0.125,0.716,0.125,1.069c0.005,30.317,0.004,60.635-0.004,90.952
		C334.378,276.791,334.295,277.298,334.25,277.805z"/>
	<path fill="#FFFFFF" d="M59.58,142.126c0.752-0.071,1.532-0.183,1.491,0.968C60.47,142.93,59.964,142.622,59.58,142.126z"/>
	<path fill="#FFFFFF" d="M438.685,329.052c0.114-0.663,0.291-1.161,0.967-0.372C439.412,329.02,439.054,329.051,438.685,329.052z"/>
	<path fill="#FFFFFF" d="M156.873,139.361c-0.138-0.179-0.275-0.357-0.412-0.536C156.716,138.913,156.904,139.053,156.873,139.361z"
		/>
	<path fill="#FFFFFF" d="M396.15,244.243c-0.12,0.089-0.24,0.178-0.36,0.267C395.91,244.421,396.03,244.333,396.15,244.243z"/>
	<path fill="#FFFFFF" d="M234.968,258.125c3.01-7.167,5.917-13.97,8.708-20.82c0.625-1.533,1.416-2.065,3.11-2.014
		c4.808,0.146,4.812,0.052,6.644,4.388c3.02,7.152,6.035,14.305,9.203,21.815c-2.5,0-4.757-0.018-7.012,0.007
		c-1.325,0.015-1.354-1.172-1.497-1.878c-0.505-2.479-1.962-3.207-4.289-2.846c-0.728,0.111-1.503,0.111-2.231-0.002
		c-3.137-0.491-5.512,0.168-6.081,3.779c-0.11,0.698-0.512,0.961-1.232,0.952c-3.503-0.049-7.007-0.085-10.51-0.057
		c-0.925,0.008-1.312-0.556-1.727-1.171c-1.245-1.848-2.587-3.645-3.681-5.577c-0.766-1.354-1.889-1.388-3.04-1.161
		c-1.298,0.257-0.526,1.459-0.737,2.223c-0.039,0.139-0.006,0.297-0.006,0.445c-0.005,5.633-0.57,6.073-6.289,5.249
		c-0.971-0.142-1.018-0.614-1.017-1.338c0.006-7.828,0.018-15.656-0.018-23.484c-0.004-0.944,0.383-1.102,1.191-1.097
		c4.397,0.025,8.8-0.103,13.192,0.047c3.963,0.135,7.548,2.955,8.367,6.24c1.029,4.128-0.283,7.609-3.962,10.013
		c-0.885,0.579-0.908,0.866-0.323,1.638C232.803,254.891,233.768,256.389,234.968,258.125z M223.715,248.029c0,0.01,0,0.021,0,0.032
		c0.74,0,1.488,0.071,2.219-0.015c1.728-0.201,2.894-1.047,3.003-2.931c0.114-1.961-1.022-3.217-2.997-3.329
		c-5.536-0.312-5.438-0.31-5.562,4.101c-0.051,1.803,0.508,2.425,2.227,2.149C222.967,247.979,223.345,248.029,223.715,248.029z
		 M247.945,244.198c-0.409,0.948-0.725,1.652-1.018,2.365c-2.056,4.992-2.055,4.994,3.625,4.448
		C249.969,248.704,248.945,246.6,247.945,244.198z"/>
	<path fill="#FFFFFF" d="M218.705,322.721c-9.238-0.002-18.477-0.037-27.714,0.033c-1.511,0.012-2.128-0.286-2.01-1.926
		c0.149-2.075,0.164-4.18-0.003-6.252c-0.141-1.742,0.49-2.061,2.114-2.055c16.167,0.063,32.334,0.039,48.501,0.039
		c2.458,0,4.919,0.06,7.375-0.026c1.225-0.043,1.727,0.257,1.667,1.585c-0.103,2.306-0.117,4.623,0.005,6.927
		c0.076,1.433-0.437,1.713-1.774,1.704C237.48,322.691,228.093,322.721,218.705,322.721z"/>
	<path fill="#FFFFFF" d="M279.475,247.387c0,4.533-0.048,8.388,0.027,12.24c0.025,1.333-0.15,1.93-1.75,1.917
		c-5.415-0.041-5.416,0.036-5.416-5.409c0-6.26,0.049-12.521-0.036-18.781c-0.02-1.464,0.413-1.708,1.823-1.872
		c3.505-0.409,5.959,0.567,7.929,3.7c2.081,3.31,4.763,6.242,7.619,9.902c0-4.24,0.115-7.841-0.049-11.43
		c-0.083-1.823,0.524-2.176,2.21-2.143c5.041,0.1,5.043,0.029,5.043,5.067c0,6.41-0.043,12.82,0.034,19.229
		c0.017,1.367-0.353,1.6-1.698,1.76c-3.381,0.406-5.635-0.68-7.539-3.6C285.367,254.436,282.516,251.26,279.475,247.387z"/>
	<path fill="#FFFFFF" d="M207.617,247.806c3.505,1.656,5.098,4.28,4.556,7.276c-0.605,3.341-3.18,5.708-7.14,5.9
		c-4.98,0.24-9.979,0.07-14.969,0.131c-0.978,0.012-1.059-0.459-1.057-1.229c0.017-7.673,0.033-15.346-0.015-23.019
		c-0.007-1.123,0.386-1.345,1.409-1.334c4.468,0.045,8.94-0.077,13.406,0.037c4.733,0.121,7.648,3.269,7.183,7.469
		C210.756,245.144,209.444,246.494,207.617,247.806z M199.816,250.878c-0.003,0.031-0.006,0.062-0.009,0.093
		c-0.818,0-1.636,0.006-2.453-0.002c-0.627-0.005-1.312,0.01-1.175,0.885c0.195,1.25-0.771,3.348,0.524,3.603
		c2.244,0.442,4.744,0.644,7.021-0.315c0.878-0.371,1.259-1.201,1.135-2.197c-0.115-0.918-0.657-1.549-1.51-1.707
		C202.19,251.018,200.996,250.988,199.816,250.878z M199.45,245.841c0-0.005,0-0.01,0-0.014c0.665,0,1.339,0.07,1.993-0.015
		c1.201-0.157,2.461-0.44,2.504-1.96c0.047-1.642-1.081-2.34-2.557-2.438c-1.399-0.092-2.807-0.039-4.211-0.044
		c-0.437-0.002-0.788-0.013-0.97,0.592c-0.773,2.568,0.143,3.88,2.797,3.88C199.154,245.841,199.302,245.841,199.45,245.841z"/>
	<path fill="#FFFFFF" d="M208.748,216.566c0-3.797,0.046-7.594-0.026-11.39c-0.024-1.224,0.264-1.646,1.577-1.628
		c5.88,0.074,11.762,0.065,17.643,0.006c1.317-0.013,1.799,0.297,1.804,1.728c0.019,4.532,0.085,4.531-4.327,4.531
		c-2.68,0-5.366,0.106-8.038-0.037c-1.721-0.092-1.486,0.93-1.479,1.961c0.007,1.007-0.297,2.027,1.462,1.94
		c3.193-0.158,6.4-0.012,9.601-0.064c1.019-0.017,1.388,0.224,1.434,1.343c0.182,4.493,0.23,4.49-4.297,4.49
		c-2.308,0-4.621,0.097-6.922-0.031c-1.711-0.095-1.312,1.032-1.247,1.888c0.064,0.852-0.688,2.193,1.237,2.149
		c3.721-0.086,7.445,0.015,11.166-0.049c1.134-0.02,1.493,0.266,1.518,1.465c0.102,4.869,0.15,4.868-4.785,4.868
		c-4.913,0-9.828-0.041-14.74,0.029c-1.243,0.018-1.64-0.299-1.612-1.583C208.802,224.311,208.748,220.438,208.748,216.566z"/>
	<path fill="#FFFFFF" d="M309.684,261.967c-4.414-0.021-8.023-1.148-11.322-3.386c-1.075-0.729-1.196-1.255-0.246-2.192
		c1.001-0.988,1.646-2.546,2.808-3.108c1.308-0.634,2.331,1.101,3.618,1.54c1.988,0.681,3.962,1.211,6.082,0.927
		c0.919-0.123,1.833-0.312,1.938-1.444c0.104-1.128-0.729-1.529-1.627-1.795c-1.485-0.441-2.981-0.849-4.47-1.287
		c-0.921-0.271-1.854-0.524-2.746-0.875c-3.825-1.498-5.159-3.387-5.101-7.142c0.052-3.346,1.951-6.054,5.322-7.179
		c5.033-1.68,9.8-0.871,14.295,1.87c0.875,0.534,1.073,1.019,0.375,1.889c-0.929,1.155-1.488,2.805-2.65,3.518
		c-1.244,0.763-2.412-0.922-3.714-1.299c-1.514-0.438-3.011-0.798-4.594-0.646c-0.896,0.086-1.6,0.511-1.757,1.424
		c-0.158,0.906,0.558,1.404,1.256,1.619c1.837,0.565,3.738,0.921,5.567,1.506c2.912,0.93,5.9,1.862,6.955,5.246
		c1.412,4.529-1.161,8.918-6.021,10.248C312.222,261.792,310.75,262.075,309.684,261.967z"/>
	<path fill="#FFFFFF" d="M242.564,203.742c3.203,0,6.41,0.093,9.607-0.04c1.543-0.064,1.802,0.489,1.79,1.873
		c-0.039,4.476,0.016,4.476-4.503,4.476c-3.199,0-3.199,0-3.199,3.298c0,4.767-0.05,9.535,0.031,14.301
		c0.025,1.462-0.232,2.075-1.906,2.064c-5.427-0.035-5.428,0.04-5.428-5.443c0-4.246-0.033-8.492,0.022-12.737
		c0.015-1.123-0.247-1.656-1.469-1.5c-0.732,0.094-1.49,0.058-2.232,0.008c-1.312-0.089-3.388,0.591-3.776-0.311
		c-0.65-1.513-0.311-3.473-0.292-5.244c0.011-1.087,0.944-0.724,1.523-0.729C236.009,203.726,239.287,203.742,242.564,203.742z"/>
	<path fill="#FFFFFF" d="M207.154,213.282c0,2.682,0.104,5.369-0.024,8.045c-0.198,4.175-2.743,7.33-6.515,8.332
		c-4.31,1.145-9.84-0.385-11.75-3.43c-0.931-1.484,0.854-2.045,1.56-2.51c0.985-0.649,1.175-2.927,3.054-1.854
		c0.686,0.391,1.247,1.02,2.026,1.325c2.461,0.965,4.363-0.257,4.375-2.902c0.023-4.917,0.055-9.835-0.05-14.75
		c-0.034-1.557,0.397-2.009,1.972-2.001c5.372,0.023,5.372-0.04,5.372,5.275c0,1.49,0,2.98,0,4.47
		C207.167,213.282,207.161,213.282,207.154,213.282z"/>
	<path fill="#FFFFFF" d="M263.324,248.323c0-3.718,0.044-7.438-0.025-11.153c-0.021-1.186,0.2-1.64,1.539-1.658
		c5.691-0.077,5.691-0.129,5.691,5.517c0,6.246-0.034,12.493,0.027,18.737c0.015,1.289-0.199,1.771-1.658,1.774
		c-5.574,0.012-5.574,0.076-5.574-5.41C263.324,253.527,263.324,250.926,263.324,248.323z"/>
	<path fill="#FFFFFF" d="M210.067,349.637c1.333-2.361,2.666-4.725,3.999-7.086c2.93,0,5.858,0,8.788,0.001
		c-1.494,1.406-3.479,1.988-5.16,3.081c-0.53,0.18-1.083,0.316-1.41,0.838c-0.148,0.094-0.297,0.187-0.446,0.278
		C213.812,347.51,212.23,349.152,210.067,349.637z"/>
	<path fill="#FFFFFF" d="M401.23,327.661c-0.193,0.099-0.365,0.255-0.545,0.263c-0.39,0.02-0.447-0.297-0.364-0.572
		c0.043-0.143,0.272-0.228,0.42-0.338C400.855,327.164,400.971,327.316,401.23,327.661z"/>
	<path fill="#FFFFFF" d="M209.777,350.009c0.11-0.136,0.22-0.271,0.33-0.405C209.997,349.738,209.888,349.873,209.777,350.009z"/>
	<path fill="#FFFFFF" d="M216.283,346.471c0.327-0.521,0.88-0.658,1.41-0.838C217.614,346.57,216.931,346.491,216.283,346.471z"/>
	<path fill="#FFFFFF" d="M335.015,308.001c0-5.653,0-11.308,0-16.962c0.073,0,0.146,0,0.221,0c0,5.652,0,11.309,0,16.961
		C335.161,308.001,335.088,308.001,335.015,308.001z"/>
	<path fill="#FFFFFF" d="M128.508,122.991c-0.238,0.64-0.419,1.334-1.154,1.507c-0.672,0.159-0.878-0.3-0.908-0.895
		c-0.04-0.801,0.26-1.26,1.122-1.219C128.008,122.405,128.457,122.402,128.508,122.991z"/>
	<path fill="#FFFFFF" d="M105.832,156.726c-0.552,0.06-0.826-0.234-0.838-0.741c-0.014-0.552-0.177-1.268,0.702-1.305
		c0.587-0.025,0.936,0.381,0.979,0.952C106.718,156.212,106.391,156.574,105.832,156.726z"/>
	<path fill="#FFFFFF" d="M311.185,359.462c-0.169,0.544,0.425,1.396-0.612,1.572c-0.14,0.022-0.429-0.214-0.476-0.38
		c-0.271-0.959,0.419-1.076,1.101-1.182L311.185,359.462z"/>
	<path fill="#FFFFFF" d="M306.595,352.945c0.124,0.053,0.247,0.105,0.371,0.16c-0.054,0.123-0.08,0.315-0.168,0.351
		c-0.09,0.035-0.24-0.087-0.364-0.14C306.486,353.193,306.54,353.068,306.595,352.945z"/>
</g>
</svg>
