<?xml version="1.0" encoding="utf-8"?>
<!-- Generator: Adobe Illustrator 16.0.0, SVG Export Plug-In . SVG Version: 6.00 Build 0)  -->
<!DOCTYPE svg PUBLIC "-//W3C//DTD SVG 1.1//EN" "http://www.w3.org/Graphics/SVG/1.1/DTD/svg11.dtd">
<svg version="1.1" id="Layer_1" xmlns="http://www.w3.org/2000/svg" xmlns:xlink="http://www.w3.org/1999/xlink" x="0px" y="0px"
	 width="500px" height="104px" viewBox="0 225.5 500 104" enable-background="new 0 225.5 500 104" xml:space="preserve">
<g>
	<path fill="#FFFFFF" stroke="#FFFFFF" stroke-miterlimit="10" d="M62.056,321.009c-8.792,0-17.584-0.036-26.375,0.029
		c-1.739,0.017-3.056-0.375-4.334-1.67c-8.544-8.658-17.153-17.249-25.796-25.812c-1.176-1.168-1.688-2.347-1.683-4.02
		c0.055-17.891,0.068-35.778-0.009-53.665c-0.013-2.146,0.588-2.75,2.736-2.742c17.788,0.083,35.576,0.064,53.36,0.017
		c1.555-0.004,2.672,0.456,3.763,1.558c8.784,8.854,17.601,17.673,26.453,26.455c1.099,1.091,1.572,2.201,1.568,3.761
		c-0.047,17.784-0.063,35.572,0.013,53.358c0.008,2.104-0.52,2.806-2.71,2.777C80.044,320.939,71.048,321.009,62.056,321.009z
		 M35.591,239.347c-7.658,0-15.321,0.07-22.979-0.045c-2.148-0.032-3.034,0.345-3.017,2.798c0.119,15.22,0.085,30.441,0.025,45.662
		c-0.004,1.574,0.512,2.648,1.603,3.729c7.407,7.329,14.784,14.692,22.101,22.106c1.172,1.188,2.348,1.672,4.015,1.664
		c15.116-0.06,30.236-0.08,45.353,0.018c2.284,0.014,2.932-0.588,2.915-2.901c-0.106-15.221-0.077-30.438-0.025-45.66
		c0.008-1.651-0.426-2.862-1.624-4.046c-7.274-7.173-14.502-14.39-21.666-21.673c-1.274-1.298-2.587-1.698-4.33-1.681
		C50.507,239.387,43.049,239.347,35.591,239.347z"/>
	<path fill="#FFFFFF" stroke="#FFFFFF" stroke-miterlimit="10" d="M364.605,291.132c0-8.677,0.047-17.354-0.039-26.034
		c-0.018-1.924,0.451-2.645,2.535-2.674c8.009-0.109,8.009-0.186,8.009,7.86c0,3.575-0.034,7.149,0.021,10.723
		c0.013,0.97-0.533,2.288,0.393,2.847c1.215,0.73,2.07-0.713,2.812-1.318c2.19-1.781,4.573-2.975,7.326-3.471
		c9.081-1.64,18.807,4.405,21.594,13.707c3.056,10.195-0.148,20.338-8.446,25.78c-5.455,3.58-16.809,3.964-21.035-1.803
		c-0.512-0.699-1.224-1.668-2.25-1.131c-0.827,0.428-0.418,1.481-0.389,2.237c0.061,1.432-0.469,1.89-1.927,1.989
		c-8.608,0.599-8.604,0.638-8.604-7.885C364.605,305.02,364.605,298.077,364.605,291.132z M397.189,300.41
		c0.009-6.432-3.541-11.686-8.545-12.645c-6.21-1.189-11.716,2.504-13.301,8.922c-1.727,6.974,1.433,13.838,7.225,15.683
		C390.337,314.848,397.173,309.253,397.189,300.41z"/>
	<path fill="#FFFFFF" stroke="#FFFFFF" stroke-miterlimit="10" d="M175.024,284.596c0.366-4.77,0.366-4.77,4.986-4.77
		c6.166,0,6.166,0,6.166,6.205c0,10.516-0.06,21.029,0.047,31.539c0.021,2.128-0.523,3.006-2.701,2.705
		c-1.002-0.139-2.037-0.025-3.061-0.025c-5.028,0-5.028,0-5.446-5.309c-3.485,3.692-7.334,6.32-12.396,6.567
		c-10.088,0.492-17.789-5.095-20.12-15.015c-2.079-8.844-0.43-16.988,6.495-23.211C156.644,276.415,166.07,277.025,175.024,284.596z
		 M164.102,312.904c6.308,0.014,11.52-5.865,11.503-12.971c-0.018-7.166-4.667-12.263-11.213-12.289
		c-6.618-0.031-11.208,5.129-11.204,12.59C153.196,307.41,157.922,312.895,164.102,312.904z"/>
	<path fill="#FFFFFF" stroke="#FFFFFF" stroke-miterlimit="10" d="M331.905,283.45c1.192-0.204,1.675-1.071,2.355-1.642
		c4.454-3.725,9.342-4.164,14.588-1.982c5.084,2.113,7.074,6.311,7.168,11.438c0.162,8.982,0.03,17.971,0.111,26.957
		c0.013,1.637-0.546,2.016-2.11,2.07c-8.871,0.314-8.871,0.357-8.871-8.466c0-5.515,0.033-11.029-0.021-16.546
		c-0.047-5.018-2.067-7.512-5.996-7.575c-4.231-0.067-7.348,2.959-7.496,7.547c-0.137,4.081-0.039,8.17-0.043,12.255
		c0,3.471-0.109,6.948,0.043,10.413c0.085,1.945-0.597,2.504-2.441,2.365c-1.932-0.146-3.892-0.151-5.817,0
		c-1.943,0.151-2.65-0.411-2.638-2.499c0.077-17.77,0.077-35.538,0-53.309c-0.01-2.07,0.674-2.69,2.63-2.498
		c2.616,0.258,6.009-1.082,7.675,0.535c1.679,1.629,0.469,5.029,0.528,7.65c0.094,4.186,0.038,8.374,0.056,12.559
		C331.624,282.9,331.756,283.078,331.905,283.45z"/>
	<path fill="#FFFFFF" stroke="#FFFFFF" stroke-miterlimit="10" d="M435.229,321.1c-10.808,0.578-21.722-6.222-22.483-20.459
		c-0.584-10.854,6.431-21.076,20.907-21.875c11.051-0.607,21.13,6.854,22.345,19.984C456.955,309.085,448.799,320.604,435.229,321.1
		z M423.425,299.877c-0.024,7.465,4.347,12.329,11.004,12.229c6.507-0.099,11.145-5.104,11.137-12.021
		c-0.014-7.224-4.297-11.828-11.029-11.854C427.588,288.2,423.45,292.534,423.425,299.877z"/>
	<path fill="#FFFFFF" stroke="#FFFFFF" stroke-miterlimit="10" d="M248.619,284.414c2.902-4.206,6.605-6.158,11.511-5.896
		c7.373,0.391,12.304,4.973,12.47,12.383c0.196,9.089,0.061,18.181,0.142,27.271c0.013,1.568-0.427,2.203-2.066,2.109
		c-2.14-0.122-4.301-0.164-6.432,0.008c-2.003,0.164-2.365-0.691-2.349-2.473c0.072-7.657,0.01-15.319,0.018-22.979
		c0.005-6.476-4.363-7.703-8.303-6.996c-3.259,0.586-5.406,3.735-5.44,7.903c-0.06,7.252-0.086,14.505,0.025,21.756
		c0.029,2.025-0.354,3.005-2.634,2.789c-2.625-0.242-6.052,0.782-7.701-0.539c-1.76-1.408-0.55-4.975-0.571-7.592
		c-0.067-9.499,0.141-19.003-0.119-28.496c-0.089-3.357,1.027-4.325,4.079-3.848c0.596,0.094,1.223,0.013,1.836,0.013
		C247.775,279.826,247.775,279.826,248.619,284.414z"/>
	<path fill="#FFFFFF" stroke="#FFFFFF" stroke-miterlimit="10" d="M229.194,295.386c0,4.087,0.039,8.175-0.004,12.261
		c-0.06,5.695-2.796,9.722-7.965,11.959c-6.405,2.777-12.918,2.674-19.284-0.127c-5.238-2.299-7.604-6.734-7.739-12.205
		c-0.209-8.477-0.03-16.961-0.115-25.441c-0.013-1.675,0.601-2.105,2.144-2.03c2.144,0.104,4.3,0.148,6.436-0.011
		c1.964-0.146,2.382,0.658,2.365,2.465c-0.073,7.663-0.103,15.33,0.034,22.988c0.08,4.383,2.591,6.977,6.396,7.098
		c4.603,0.146,7.083-2.385,7.13-7.527c0.068-7.355,0.094-14.715-0.025-22.069c-0.039-2.158,0.341-3.017,2.791-2.985
		c7.893,0.094,7.893-0.021,7.893,7.963c0,2.555,0,5.11,0,7.666C229.233,295.386,229.216,295.386,229.194,295.386z"/>
	<path fill="#FFFFFF" stroke="#FFFFFF" stroke-miterlimit="10" d="M278.08,300.104c0.26-8.637,3.57-15.711,11.745-19.461
		c8.515-3.906,16.655-2.615,24.1,3.137c1.411,1.094,1.24,1.828-0.013,2.771c-0.651,0.49-1.304,1.014-1.832,1.626
		c-2.178,2.548-4.04,3.419-7.458,1.121c-4.279-2.877-10.274-0.938-13.302,3.265c-3.319,4.61-2.894,11.776,0.938,15.886
		c3.56,3.817,9.367,4.727,13.634,1.763c1.913-1.328,3.081-1.436,4.316,0.559c0.319,0.51,0.822,0.905,1.24,1.352
		c3.674,3.88,3.755,4.021-1.058,6.635c-7.135,3.872-14.516,3.922-21.633,0.104C281.438,314.934,278.293,308.348,278.08,300.104z"/>
	<path fill="#FFFFFF" stroke="#FFFFFF" stroke-miterlimit="10" d="M456.419,280.273c4.15,0,7.691,0.011,11.229-0.004
		c1.312-0.006,1.969,0.859,2.619,1.809c1.724,2.5,3.542,4.938,5.188,7.486c1.002,1.549,1.675,1.453,2.612-0.017
		c1.582-2.478,3.304-4.864,4.866-7.353c0.769-1.215,1.611-1.984,3.158-1.95c3.162,0.073,6.324,0.022,9.609,0.022
		c-0.123,2.313-1.893,3.465-2.919,4.998c-2.816,4.196-5.749,8.319-8.731,12.397c-1.202,1.635-1.271,3.021-0.081,4.69
		c3.977,5.594,7.866,11.248,12.171,17.424c-3.941,0-7.433,0.037-10.923-0.021c-1.134-0.019-1.713-0.949-2.263-1.832
		c-1.491-2.408-2.958-4.84-4.539-7.188c-1.022-1.52-2.186-2.327-3.307,0.029c-0.389,0.813-1.011,1.518-1.519,2.271
		c-4.899,7.249-4.899,7.256-13.718,6.76c-0.656-0.036-1.539,0.308-1.862-0.597c-0.247-0.688,0.456-1.047,0.788-1.532
		c3.636-5.231,7.164-10.541,10.944-15.664c1.133-1.534,0.801-2.577-0.081-3.78C465.419,292.438,461.145,286.67,456.419,280.273z"/>
	<path fill="#FFFFFF" stroke="#FFFFFF" stroke-miterlimit="10" d="M124.246,290.527c0-8.791,0.061-17.577-0.042-26.365
		c-0.025-2.035,0.354-3.03,2.629-2.766c2.907,0.334,6.807-1.256,8.489,0.637c1.445,1.624,0.508,5.428,0.508,8.268
		c0.025,15.635-0.03,31.271,0.06,46.904c0.013,2.266-0.367,3.414-2.94,3.081c-2.8-0.362-6.563,1.194-8.191-0.636
		c-1.397-1.567-0.485-5.232-0.498-7.971C124.226,304.629,124.246,297.578,124.246,290.527z"/>
	<path fill="#FFFFFF" stroke="#FFFFFF" stroke-miterlimit="10" d="M184.422,259.805c0,2.361-0.056,4.074,0.017,5.781
		c0.06,1.314-0.145,2.061-1.772,2.035c-1.534-0.023-1.884-0.62-1.871-2.01c0.056-5.406,0.132-10.816-0.03-16.218
		c-0.068-2.282,1.611-2.71,2.57-1.945c1.628,1.3,2.565,0.298,3.827-0.177c2.94-1.108,5.403-0.185,7.415,2.033
		c2.041,2.248,2.382,6.482,0.741,9.158c-1.606,2.628-4.036,3.563-7.049,3.156C187.038,261.452,185.977,260.889,184.422,259.805z
		 M192.391,254.622c0.094-2.69-1.368-4.643-3.605-4.815c-2.313-0.181-4.266,1.835-4.359,4.505c-0.09,2.539,1.577,4.521,3.865,4.594
		C190.699,258.982,192.301,257.312,192.391,254.622z"/>
	<path fill="#FFFFFF" stroke="#FFFFFF" stroke-miterlimit="10" d="M202.551,259.958c0,2.185-0.047,3.888,0.017,5.587
		c0.052,1.309-0.183,2.066-1.79,2.076c-1.534,0.006-1.862-0.58-1.845-1.967c0.06-5.396,0.136-10.795-0.03-16.188
		c-0.068-2.171,1.245-2.806,2.489-2.028c1.598,1,2.569,0.269,3.856-0.198c2.945-1.065,5.396-0.106,7.36,2.156
		c2.05,2.361,2.378,6.039,0.81,8.875c-1.505,2.711-3.938,3.677-6.93,3.385C205.18,261.527,203.995,260.975,202.551,259.958z
		 M210.524,254.286c-0.068-2.581-1.808-4.499-4.062-4.483c-2.403,0.017-4.019,1.99-3.95,4.828c0.063,2.704,1.691,4.4,4.1,4.273
		C208.904,258.788,210.588,256.796,210.524,254.286z"/>
	<path fill="#FFFFFF" stroke="#FFFFFF" stroke-miterlimit="10" d="M177.599,254.245c0,1.628,0.021,3.258-0.005,4.887
		c-0.038,2.058-1.866,3.353-3.191,1.994c-1.351-1.381-1.875-0.452-2.834-0.009c-2.796,1.287-6.205,0.441-7.944-1.918
		c-1.96-2.661-1.904-7.031,0.124-9.699c1.832-2.412,5.263-3.358,7.889-2.048c1.01,0.505,1.513,1.074,2.876,0.087
		c1.189-0.859,3.47-0.782,3.12,2.131C177.449,251.175,177.599,252.721,177.599,254.245z M173.963,254.328
		c0.021-2.546-1.729-4.534-3.98-4.523c-2.19,0.011-3.984,2.054-3.993,4.554c-0.008,2.486,1.815,4.572,3.977,4.545
		C172.135,258.878,173.942,256.809,173.963,254.328z"/>
	<path fill="#FFFFFF" stroke="#FFFFFF" stroke-miterlimit="10" d="M264.132,254.375c0,1.635,0.025,3.271-0.009,4.904
		c-0.038,1.859-2.173,3.205-3.034,1.908c-1.419-2.149-2.08-0.371-3.009,0.027c-2.65,1.143-5.953,0.336-7.739-1.951
		c-2.122-2.716-2.105-6.951,0.034-9.699c1.98-2.544,5.165-3.428,7.9-2.128c0.959,0.454,1.51,1.321,2.863,0.081
		c0.854-0.778,3.312-0.895,3.021,1.956C263.995,251.094,264.132,252.741,264.132,254.375z M256.512,249.8
		c-2.232,0.079-3.929,2.062-3.921,4.595c0.009,2.519,1.772,4.51,3.998,4.508c2.353-0.002,4.058-2.032,4.011-4.778
		C260.552,251.503,258.868,249.72,256.512,249.8z"/>
	<path fill="#FFFFFF" stroke="#FFFFFF" stroke-miterlimit="10" d="M151.181,248.334c5.697-2.9,8.565-1.138,8.587,4.955
		c0.004,1.938-0.021,3.873,0.009,5.811c0.021,1.265,0.175,2.346-1.777,2.332c-1.765-0.016-1.999-0.764-1.939-2.205
		c0.081-2.035,0.018-4.08,0.018-6.117c0.004-1.684-0.435-3.252-2.403-3.204c-1.786,0.042-2.574,1.319-2.511,3.155
		c0.077,2.141-0.06,4.285,0.043,6.42c0.068,1.44-0.375,1.937-1.871,1.938c-1.525,0-1.875-0.562-1.862-1.965
		c0.063-5.506,0.072-11.012-0.004-16.516c-0.021-1.549,0.604-1.867,1.99-1.86c1.325,0.009,1.811,0.435,1.743,1.767
		C151.112,244.571,151.181,246.306,151.181,248.334z"/>
	<path fill="#FFFFFF" stroke="#FFFFFF" stroke-miterlimit="10" d="M284.545,255.213c1.262,3.234,3.346,4.195,5.93,2.578
		c1.58-0.993,2.752-0.876,4.115,0.092c-2.429,3.499-5.578,4.651-9.201,3.405c-3.105-1.067-4.99-4.151-4.729-7.737
		c0.252-3.469,2.479-5.994,6.12-6.586c3.047-0.499,5.607,0.507,7.428,3.113c0.968,1.389,1.743,3.074,1.006,4.553
		c-0.635,1.273-2.391,0.499-3.635,0.555C289.271,255.283,286.957,255.213,284.545,255.213z M288.04,253.43
		c1.095-0.789,3.265,0.903,3.379-1.211c0.095-1.639-1.729-2.372-3.362-2.393c-1.648-0.023-3.435,0.732-3.35,2.38
		C284.811,254.357,286.979,252.621,288.04,253.43z"/>
	<path fill="#FFFFFF" stroke="#FFFFFF" stroke-miterlimit="10" d="M214.756,247.476c6.699-1.038,3.87,5.749,6.899,7.542
		c1.019-1.348,1.534-3.123,2.037-4.842c0.733-2.508,2.114-3.505,4.918-2.546c-2.454,6.31-4.926,12.606-7.351,18.92
		c-0.717,1.864-2.298,1.188-3.358,0.938c-1.117-0.262-0.371-1.394-0.013-1.995c1.9-3.228,1.325-6.306-0.115-9.536
		C216.589,253.293,215.796,250.45,214.756,247.476z"/>
	<path fill="#FFFFFF" stroke="#FFFFFF" stroke-miterlimit="10" d="M295.771,247.469c6.721-1.05,3.817,5.624,6.959,7.393
		c1.058-1.135,1.504-3.01,2.023-4.752c0.76-2.542,2.103-3.492,4.858-2.436c-2.408,6.228-4.854,12.435-7.198,18.681
		c-0.686,1.836-2.169,1.487-3.277,1.18c-1.734-0.488-0.388-1.747-0.051-2.383c1.51-2.844,1.309-5.512,0.025-8.405
		C297.809,253.803,296.908,250.682,295.771,247.469z"/>
	<path fill="#FFFFFF" stroke="#FFFFFF" stroke-miterlimit="10" d="M234.624,247.425c6.55-0.923,4.065,5.578,7.019,7.638
		c1.146-1.396,1.599-3.254,2.08-4.972c0.682-2.457,1.875-3.429,4.586-2.453c-1.518,4.262-3.018,8.54-4.564,12.801
		c-0.478,1.306-1.688,0.793-2.638,0.938c-1.33,0.203-1.765-0.635-2.123-1.653C237.573,255.721,236.146,251.721,234.624,247.425z"/>
	<path fill="#FFFFFF" stroke="#FFFFFF" stroke-miterlimit="10" d="M273.921,250.657c0-2.649,0.103-5.306-0.038-7.948
		c-0.099-1.773,0.532-2.227,2.237-2.201c1.563,0.021,2.104,0.409,2.075,2.05c-0.098,5.604-0.098,11.211,0,16.816
		c0.029,1.646-0.521,2.024-2.08,2.048c-1.704,0.025-2.322-0.438-2.232-2.203C274.023,256.37,273.921,253.512,273.921,250.657z"/>
	<path fill="#FFFFFF" stroke="#FFFFFF" stroke-miterlimit="10" d="M271.411,251.072c0,2.854-0.111,5.715,0.038,8.56
		c0.103,2.013-1.125,1.675-2.34,1.757c-1.385,0.094-1.994-0.254-1.969-1.817c0.084-5.706,0.103-11.415-0.01-17.121
		c-0.038-1.794,0.78-1.901,2.189-1.926c1.506-0.03,2.209,0.279,2.128,1.99C271.312,245.362,271.411,248.219,271.411,251.072z"/>
	<path fill="#FFFFFF" stroke="#FFFFFF" stroke-miterlimit="10" d="M34.521,310.455c0-5.98-0.137-11.498,0.06-17.005
		c0.089-2.539-0.823-3.13-3.167-3.056c-4.799,0.153-9.61-0.004-14.413,0.067c-2.109,0.032-3-0.071-1.734-2.601
		c1.475-2.948,3.269-4.198,6.627-3.854c3.337,0.346,6.742,0.002,10.113,0.105c1.743,0.055,2.625-0.303,2.553-2.319
		c-0.136-3.778-0.111-7.565-0.008-11.345c0.042-1.635-0.763-2.652-1.807-3.69c-5.08-5.042-10.13-10.11-15.188-15.172
		c-0.362-0.36-0.695-0.758-1.091-1.078c-1.833-1.479-2.062-4.021-0.929-5.154c1.261-1.268,3.746-1.11,5.455,0.611
		c5.332,5.37,10.74,10.661,16.011,16.086c1.334,1.372,2.681,1.923,4.569,1.851c3.575-0.137,7.159-0.121,10.73-0.004
		c1.782,0.06,2.28-0.594,2.242-2.295c-0.098-4.189-0.051-8.384-0.021-12.575c0.013-1.554,4.419-5.102,5.881-4.748
		c1.031,0.247,0.605,1.166,0.609,1.783c0.039,5.011,0.162,10.026-0.038,15.027c-0.098,2.401,0.724,2.884,2.936,2.821
		c5.685-0.151,11.379-0.049,17.499-0.049c-1.1,2.035-2.045,3.686-2.898,5.389c-0.639,1.27-1.73,1.219-2.876,1.215
		c-4.087-0.013-8.183,0.094-12.265-0.047c-1.943-0.066-2.434,0.617-2.37,2.459c0.145,4.287-0.908,8.919,0.396,12.778
		c1.274,3.761,5.519,6.112,8.425,9.118c2.842,2.939,5.779,5.785,8.655,8.692c0.631,0.638,1.603,1.159,1.564,2.169
		c-0.051,1.366,0.827,3.369-0.533,3.953c-1.534,0.658-3.478,0.609-5.042-1.021c-4.53-4.721-9.427-9.1-13.773-13.976
		c-2.928-3.282-6.082-4.763-10.424-4.206c-2.314,0.297-4.701,0.139-7.044,0.027c-1.858-0.089-2.519,0.57-2.446,2.464
		c0.132,3.47-0.196,6.97,0.106,10.42c0.273,3.112-0.647,5.062-3.695,5.94C36.431,309.46,35.731,309.895,34.521,310.455z
		 M54.483,277.052c0-6.562,0-6.562-6.465-6.562c-0.205,0-0.409,0-0.614,0c-6.584,0-6.584,0-6.584,6.725c0,6.863,0,6.863,6.75,6.863
		C54.483,284.077,54.483,284.077,54.483,277.052z"/>
</g>
</svg>
