<?xml version="1.0" encoding="utf-8"?>
<!-- Generator: Adobe Illustrator 16.0.0, SVG Export Plug-In . SVG Version: 6.00 Build 0)  -->
<!DOCTYPE svg PUBLIC "-//W3C//DTD SVG 1.1//EN" "http://www.w3.org/Graphics/SVG/1.1/DTD/svg11.dtd">
<svg version="1.1" id="Layer_1" xmlns="http://www.w3.org/2000/svg" xmlns:xlink="http://www.w3.org/1999/xlink" x="0px" y="0px"
	 width="500px" height="147px" viewBox="0 171.5 500 147" enable-background="new 0 171.5 500 147" xml:space="preserve">
<g>
	<path fill="#FFFFFF" d="M29.118,195.943c7.791,0,15.582,0.024,23.372-0.027c1.155-0.007,1.493,0.263,1.489,1.464
		c-0.043,15.681-0.044,31.362,0,47.044c0.004,1.248-0.319,1.567-1.565,1.564c-15.681-0.044-31.362-0.043-47.044,0
		c-1.203,0.003-1.463-0.339-1.461-1.491c0.038-15.731,0.039-31.463-0.002-47.194c-0.002-1.122,0.269-1.396,1.39-1.389
		C13.236,195.968,21.177,195.943,29.118,195.943z"/>
	<path fill="#FFFFFF" d="M84.118,195.943c7.84,0,15.68,0.023,23.519-0.025c1.136-0.006,1.509,0.235,1.505,1.456
		c-0.045,15.729-0.041,31.458-0.004,47.187c0.002,1.106-0.264,1.43-1.403,1.427c-15.779-0.039-31.558-0.037-47.337-0.003
		c-1.051,0.003-1.327-0.279-1.325-1.327c0.033-15.828,0.036-31.658-0.004-47.487c-0.003-1.144,0.429-1.25,1.382-1.246
		C68.34,195.958,76.229,195.943,84.118,195.943z"/>
	<path fill="#FFFFFF" d="M59.095,276.143c0-7.89,0.024-15.777-0.028-23.666c-0.007-1.117,0.271-1.402,1.396-1.398
		c15.727,0.039,31.454,0.039,47.181,0.002c1.154-0.003,1.501,0.266,1.498,1.468c-0.042,15.679-0.042,31.354,0,47.032
		c0.004,1.243-0.317,1.576-1.567,1.57c-15.677-0.041-31.354-0.041-47.032,0c-1.196,0.006-1.482-0.328-1.474-1.492
		C59.12,291.818,59.095,283.98,59.095,276.143z"/>
	<path fill="#FFFFFF" d="M28.967,301.132c-7.792,0-15.584-0.026-23.376,0.028c-1.256,0.008-1.697-0.223-1.691-1.612
		c0.056-15.634,0.05-31.267,0.007-46.899c-0.004-1.239,0.304-1.576,1.56-1.573c15.634,0.046,31.268,0.049,46.902-0.005
		c1.369-0.006,1.627,0.4,1.624,1.68c-0.044,15.584-0.045,31.167,0.002,46.752c0.004,1.312-0.315,1.676-1.651,1.664
		C44.551,301.098,36.758,301.132,28.967,301.132z"/>
	<path fill="#FFFFFF" d="M174.658,264.802c2.955-8.932,6.641-17.224,10.046-25.628c2.845-7.022,5.762-14.016,8.595-21.042
		c0.356-0.882,0.78-1.197,1.734-1.186c4.145,0.053,8.292,0.054,12.437,0c1.003-0.013,1.241,0.307,1.24,1.272
		c-0.027,20.18-0.028,40.359,0.002,60.541c0.001,1.046-0.283,1.363-1.334,1.339c-2.795-0.068-5.594-0.057-8.391-0.006
		c-0.961,0.018-1.302-0.257-1.301-1.262c0.029-13.139-0.011-26.275,0.042-39.413c0.014-3.333,0.294-6.665,0.437-9.654
		c-6.016,16.141-12.984,32.229-19.399,48.537c-0.547,1.39-1.197,1.976-2.696,1.8c-1.723-0.205-3.843,0.645-5.1-0.334
		c-1.172-0.914-1.485-2.951-2.13-4.513c-5.575-13.501-11.149-26.999-16.69-40.511c-0.593-1.446-0.974-2.978-1.36-4.179
		c0,2.688,0,5.623,0,8.558c0,13.137-0.018,26.273,0.027,39.412c0.004,1.244-0.333,1.619-1.578,1.568
		c-2.394-0.098-4.799-0.115-7.19,0.004c-1.391,0.071-1.632-0.44-1.629-1.705c0.04-17.133,0.026-34.267,0.026-51.4
		c0-2.947,0.029-5.895-0.016-8.841c-0.013-0.889,0.218-1.221,1.168-1.211c4.445,0.045,8.892,0.065,13.336-0.012
		c1.104-0.019,1.309,0.609,1.609,1.364c4.976,12.506,9.953,25.011,14.948,37.507C172.62,258.632,173.606,261.505,174.658,264.802z"
		/>
	<path fill="#FFFFFF" d="M458.713,261.938c0,5.545-0.029,11.09,0.021,16.633c0.012,1.113-0.195,1.582-1.447,1.535
		c-2.644-0.104-5.295-0.088-7.939-0.006c-1.166,0.035-1.514-0.289-1.508-1.49c0.045-11.088-0.002-22.178,0.062-33.266
		c0.008-1.438-0.328-1.936-1.797-1.807c-1.537,0.137-3.097,0-4.644,0.043c-0.746,0.021-1.074-0.167-1.057-0.992
		c0.047-2.247,0.047-4.496,0-6.743c-0.019-0.815,0.293-1.015,1.045-0.997c1.746,0.042,3.498-0.031,5.244,0.031
		c0.93,0.033,1.196-0.301,1.188-1.207c-0.02-2.594-0.231-5.211,0.17-7.78c1.349-8.559,7.779-13.741,16.642-13.511
		c1.598,0.042,3.188,0.115,4.746,0.54c0.653,0.178,1.043,0.4,1.026,1.186c-0.043,2.447-0.043,4.896-0.002,7.342
		c0.019,1.021-0.416,0.874-1.082,0.597c-1.442-0.599-2.959-0.969-4.521-0.833c-3.707,0.322-5.695,2.404-6.076,6.537
		c-0.191,2.082-0.041,4.192-0.084,6.289c-0.017,0.689,0.303,0.832,0.906,0.83c4.646-0.015,9.293-0.029,13.938,0.008
		c0.967,0.008,1.014-0.498,1.008-1.224c-0.02-2.647,0.013-5.295-0.02-7.941c-0.008-0.739,0.143-1.16,0.963-1.392
		c2.922-0.829,5.832-1.712,8.717-2.668c0.988-0.328,1.084,0.022,1.078,0.851c-0.022,3.647,0.029,7.294-0.035,10.938
		c-0.018,1.097,0.258,1.483,1.412,1.448c2.746-0.084,5.496,0.008,8.24-0.046c0.934-0.02,1.205,0.298,1.184,1.202
		c-0.055,2.146-0.051,4.295-0.004,6.442c0.021,0.864-0.287,1.11-1.127,1.098c-2.795-0.044-5.594,0.012-8.391-0.033
		c-0.91-0.015-1.32,0.168-1.312,1.215c0.064,7.042-0.026,14.084,0.117,21.125c0.115,5.561,4.176,7.922,9.279,5.469
		c1.256-0.604,1.483-0.447,1.438,0.871c-0.076,2.047-0.053,4.097-0.006,6.144c0.021,0.813-0.207,1.294-1.022,1.556
		c-3.882,1.244-7.81,1.625-11.794,0.631c-4.879-1.219-7.393-4.594-8.352-9.338c-0.318-1.576-0.375-3.171-0.375-4.771
		c0-7.144-0.027-14.285,0.029-21.427c0.01-1.201-0.342-1.502-1.508-1.484c-4.293,0.066-8.591,0.065-12.884,0
		c-1.147-0.017-1.52,0.25-1.504,1.463C458.75,250.65,458.713,256.294,458.713,261.938z"/>
	<path fill="#FFFFFF" d="M329.6,281.096c-7.764-0.062-14.396-2.521-18.934-9.188c-3.098-4.556-3.924-9.726-3.76-15.119
		c0.125-4.084,0.85-8.033,2.783-11.672c3.536-6.66,9.28-10.071,16.598-11.085c3.889-0.54,7.758-0.438,11.584,0.533
		c6.918,1.755,11.688,5.994,13.924,12.736c2.475,7.464,2.342,14.959-1.195,22.109c-3.274,6.621-8.862,10.194-16.069,11.358
		C332.902,281.029,331.262,281.168,329.6,281.096z M342.205,257.048c0.022-1.329-0.103-3.014-0.418-4.688
		c-1.08-5.708-5.129-9.484-10.402-9.685c-6.67-0.253-11.022,2.792-12.66,8.832c-0.793,2.933-0.852,5.917-0.598,8.913
		c0.791,9.277,9.15,14.455,17.432,10.829c2.099-0.918,3.652-2.394,4.72-4.401C341.846,263.895,342.215,260.695,342.205,257.048z"/>
	<path fill="#FFFFFF" d="M393.064,257.801c-0.095-3.883,0.485-7.654,2.045-11.234c2.562-5.891,6.959-9.772,13.086-11.625
		c5.012-1.516,10.137-1.686,15.231-0.523c7.035,1.604,11.984,5.78,14.402,12.624c2.318,6.561,2.387,13.266-0.008,19.794
		c-3.287,8.961-10.113,13.412-19.441,14.183c-4.469,0.367-8.893-0.021-13.035-1.932c-7.916-3.652-11.553-10.177-12.271-18.593
		C392.998,259.604,393.064,258.699,393.064,257.801z M404.113,257.553c-0.054,2.213,0.215,4.381,0.891,6.493
		c1.729,5.421,5.824,8.245,11.828,8.152c5.688-0.089,9.271-2.88,10.76-8.543c1.123-4.278,1.125-8.603-0.106-12.862
		c-1.41-4.876-5.226-7.921-9.97-8.115c-6.028-0.248-10.104,2.13-12.096,7.108C404.424,252.273,404.055,254.881,404.113,257.553z"/>
	<path fill="#FFFFFF" d="M386.053,245.585c-3.127-1.933-6.184-3.064-9.541-3.252c-1.35-0.076-2.698-0.089-3.998,0.369
		c-1.647,0.582-2.948,1.54-3.194,3.399c-0.261,1.981,0.311,3.641,2.106,4.754c1.576,0.976,3.269,1.703,4.976,2.401
		c2.448,1.007,4.803,2.171,7.008,3.666c6.762,4.581,6.504,15.085,0.643,19.931c-3.127,2.584-6.766,3.779-10.711,4.142
		c-4.69,0.431-9.246-0.294-13.682-1.858c-0.92-0.324-1.326-0.777-1.297-1.832c0.084-2.943,0.028-5.89,0.028-8.844
		c0.636-0.209,0.929,0.316,1.318,0.555c4.152,2.521,8.547,4.051,13.494,3.391c3.373-0.452,4.924-2.448,4.305-5.512
		c-0.201-0.989-0.76-1.709-1.535-2.308c-1.924-1.479-4.19-2.286-6.358-3.29c-1.625-0.755-3.24-1.54-4.834-2.363
		c-8.314-4.3-8.547-16.777-0.824-21.907c4.338-2.882,9.115-3.611,14.156-3.174c2.284,0.198,4.532,0.664,6.731,1.358
		c0.887,0.28,1.256,0.731,1.232,1.709C386.01,239.7,386.053,242.485,386.053,245.585z"/>
	<path fill="#FFFFFF" d="M272.203,246.451c-0.898-0.566-1.553-0.993-2.223-1.395c-5.711-3.438-12.508-3.237-17.121,0.528
		c-2.284,1.864-3.697,4.289-4.409,7.131c-0.826,3.305-0.882,6.633-0.004,9.921c1.974,7.399,9.016,11.192,16.654,9.033
		c2.127-0.601,4.133-1.479,5.952-2.741c0.767-0.531,1.188-0.718,1.164,0.529c-0.049,2.547-0.024,5.097-0.004,7.645
		c0.006,0.607-0.137,1.008-0.726,1.312c-8.188,4.271-23.889,4.596-31.205-6.909c-6.293-9.896-4.425-27.692,7.33-34.324
		c7.458-4.208,15.264-4.443,23.264-1.698c0.971,0.333,1.395,0.844,1.357,1.96C272.141,240.337,272.203,243.236,272.203,246.451z"/>
	<path fill="#FFFFFF" d="M290.789,241.859c1.271-1.975,2.381-3.948,4.225-5.394c3.107-2.438,6.596-2.873,10.336-2.082
		c0.531,0.112,1.045,0.254,1.039,1.024c-0.026,3.28-0.012,6.561-0.012,10.008c-1.268-0.601-2.4-1.071-3.611-1.348
		c-4.396-1.005-7.908,0.511-10.094,4.465c-1.387,2.505-1.883,5.235-1.883,8.071c0,7.291-0.039,14.584,0.037,21.875
		c0.014,1.373-0.4,1.672-1.682,1.623c-2.646-0.097-5.295-0.062-7.939-0.011c-0.91,0.019-1.189-0.251-1.188-1.178
		c0.026-14.283,0.024-28.566,0.004-42.85c-0.002-0.852,0.131-1.249,1.125-1.225c2.846,0.068,5.692,0.05,8.539,0.008
		c0.838-0.012,1.146,0.231,1.121,1.099C290.752,237.917,290.789,239.888,290.789,241.859z"/>
	<path fill="#FFFFFF" d="M229.565,257.479c0,6.992-0.039,13.986,0.033,20.979c0.014,1.357-0.395,1.695-1.691,1.646
		c-2.594-0.1-5.195-0.058-7.791-0.016c-0.913,0.016-1.314-0.161-1.311-1.225c0.037-14.285,0.034-28.571,0.005-42.857
		c-0.002-0.951,0.312-1.177,1.203-1.161c2.747,0.049,5.496,0.064,8.241-0.006c1.068-0.027,1.338,0.33,1.332,1.358
		C229.546,243.291,229.565,250.385,229.565,257.479z"/>
	<path fill="#FFFFFF" d="M224.379,215.678c3.607,0.024,6.468,2.795,6.452,6.251c-0.017,3.44-2.915,6.115-6.602,6.092
		c-3.618-0.023-6.415-2.67-6.435-6.09C217.772,218.376,220.64,215.653,224.379,215.678z"/>
</g>
</svg>
