<?xml version="1.0" encoding="utf-8"?>
<!-- Generator: Adobe Illustrator 16.0.0, SVG Export Plug-In . SVG Version: 6.00 Build 0)  -->
<!DOCTYPE svg PUBLIC "-//W3C//DTD SVG 1.1//EN" "http://www.w3.org/Graphics/SVG/1.1/DTD/svg11.dtd">
<svg version="1.1" id="Layer_1" xmlns="http://www.w3.org/2000/svg" xmlns:xlink="http://www.w3.org/1999/xlink" x="0px" y="0px"
	 width="500px" height="266px" viewBox="0 120.5 500 266" enable-background="new 0 120.5 500 266" xml:space="preserve">
<g>
	<path fill="#FFFFFF" stroke="#FFFFFF" stroke-miterlimit="10" d="M326.477,272.568c-3.541,1.826-7.3,2.703-11.282,2.703
		c-11.104,0-22.214,0.041-33.317-0.018c-10.847-0.053-18.757-4.969-23.648-14.658c-12.684-25.11-25.345-50.24-38.022-75.361
		c-1.765-3.496-3.558-6.98-5.336-10.465c-0.205-0.396-0.289-0.883-0.799-1.045c-0.056-0.022-0.109-0.039-0.165-0.048
		c0.093-0.694-0.204-1.283-0.513-1.874c-1.474-2.832-2.941-5.672-4.412-8.513c-1.111-2.225-2.182-4.477-3.347-6.676
		c-0.561-1.062-0.847-2.297-1.815-3.123c-1.406-3.479-3.039-6.846-4.941-10.084c-0.697-1.409-1.319-2.857-2.106-4.213
		c-2.577-4.395-6.096-7.801-10.768-9.941c2.279-1.261,4.75-1.953,7.305-2.378c0.345-0.059,0.721-0.011,0.998-0.297
		c13.255,0,26.51,0,39.771,0c0.235,0.084,0.462,0.207,0.706,0.244c8.649,1.361,15.056,5.93,19.054,13.687
		c5.126,9.947,10.112,19.97,15.148,29.958c8.847,17.53,17.676,35.069,26.545,52.582c0.867,1.706,1.507,3.552,2.756,5.051
		c1.238,2.975,2.689,5.844,4.312,8.625c1.356,3.333,3.16,6.454,4.734,9.684c0.481,0.986,0.79,2.093,1.642,2.877
		c1.406,3.123,2.926,6.192,4.622,9.163c0.388,1.33,1.081,2.521,1.766,3.697C318.034,266.709,321.552,270.4,326.477,272.568z"/>
	<path fill="#FFFFFF" stroke="#FFFFFF" stroke-miterlimit="10" d="M316.891,191.555c2.674-5.313,5.328-10.639,8.019-15.938
		c5.961-11.754,11.91-23.508,17.922-35.234c3.821-7.468,9.955-11.916,18.186-13.496c0.246-0.047,0.517-0.031,0.646-0.308
		c2.441,0,4.896,0,7.345,0c0.42,0.549,1.099,0.403,1.652,0.526c15.989,3.521,24.438,21.093,17.069,35.719
		c-8.279,16.445-16.654,32.841-24.991,49.262c-0.136,0.27-0.313,0.516-0.478,0.768c-0.576-0.19-1.176-0.322-1.725-0.574
		c-7.569-3.513-15.127-7.042-22.69-10.561c-5.994-2.796-11.988-5.574-17.967-8.406C318.841,192.824,317.647,192.535,316.891,191.555
		z"/>
	<path fill="#FFFFFF" stroke="#FFFFFF" stroke-miterlimit="10" d="M431.416,379.295c-0.757-0.717-0.931-1.6-0.931-2.625
		c0.017-19.423,0.012-38.85,0.012-58.273c0-2.315,0.498-2.787,2.924-2.789c2.566-0.004,3.061,0.444,3.076,2.81
		c0.006,0.871,0.017,1.737-0.006,2.604c-0.022,0.859-0.073,1.724-0.136,2.86c1.352-2.146,2.701-4.006,4.517-5.46
		c8.986-7.156,22.896-4.703,28.461,5.448c5.3,9.667,5.378,19.812,0.179,29.553c-5.687,10.634-18.27,12.009-25.598,8.144
		c-2.627-1.387-4.705-3.375-6.354-5.826c-0.247-0.367-0.48-0.742-0.684-1.057c0,7.228-0.022,14.436,0.022,21.646
		c0.011,1.126-0.241,2.084-0.896,2.967C434.475,379.295,432.945,379.295,431.416,379.295z M453.584,357.697
		c3.384-0.03,7.631-2.574,10.225-7.436c3.671-6.891,3.647-14.098,0.718-21.244c-2.33-5.672-7.249-8.807-13.144-8.726
		c-5.771,0.078-10.785,3.507-12.947,9.097c-2.432,6.282-2.471,12.646,0.057,18.924C440.9,354.309,445.617,357.673,453.584,357.697z"
		/>
	<path fill="#FFFFFF" stroke="#FFFFFF" stroke-miterlimit="10" d="M26.641,316.881c0.978-1.179,3.758-1.775,5.13-1.078
		c1.021,0.52,1.164,1.493,1.166,2.481c0.005,2.489,0.112,4.985-0.104,7.519c1.308-2.132,2.78-4.098,4.584-5.826
		c6.685-6.408,16.405-6.654,22.333-3.943c4.126,1.895,6.013,5.477,6.914,9.689c0.445,2.09,0.633,4.225,0.63,6.373
		c-0.012,9.072-0.008,18.147-0.001,27.221c0,1.097,0.071,2.301-1.129,2.771c-1.446,0.562-3.009,0.664-4.429-0.132
		c-0.863-0.481-0.836-1.429-0.835-2.315c0.01-8.514,0.014-17.031,0.001-25.548c-0.003-2.448-0.148-4.886-0.856-7.252
		c-1.152-3.88-3.845-6.022-7.884-6.292c-9.31-0.619-17.279,5.76-18.81,14.992c-0.38,2.279-0.322,4.566-0.327,6.854
		c-0.01,5.562,0,11.119-0.005,16.674c-0.001,1.219,0.203,2.675-1.307,3.093c-1.595,0.435-3.32,0.765-4.722-0.661
		c-0.098-0.102-0.232-0.171-0.35-0.255C26.641,346.453,26.641,331.666,26.641,316.881z"/>
	<path fill="#FFFFFF" stroke="#FFFFFF" stroke-miterlimit="10" d="M182.724,235.512c-2.849,5.678-5.697,11.356-8.55,17.031
		c-1.511,2.994-3.037,5.982-4.556,8.979c-5.052,9.943-16.012,15.391-26.924,13.381c-11.051-2.03-19.45-11.108-20.517-22.295
		c-0.441-4.593,0.229-9.05,2.339-13.21c4.232-8.345,8.493-16.67,12.745-25.006c0.123,0.468,0.546,0.546,0.91,0.714
		c5.673,2.614,11.351,5.222,17.007,7.872c8.606,4.027,17.197,8.081,25.786,12.14C181.536,235.383,182.103,235.542,182.724,235.512z"
		/>
	<path fill="#FFFFFF" stroke="#FFFFFF" stroke-miterlimit="10" d="M316.891,191.555c0.758,0.98,1.95,1.27,2.986,1.757
		c5.979,2.832,11.973,5.61,17.967,8.406c7.563,3.519,15.121,7.048,22.69,10.561c0.549,0.252,1.147,0.384,1.725,0.574
		c-2.318,4.628-4.621,9.264-6.963,13.88c-2.572,5.07-5.172,10.127-7.76,15.188c-0.151-0.031-0.313-0.042-0.448-0.101
		c-11.015-5.146-22.022-10.304-33.043-15.446c-4-1.868-8.012-3.706-12.027-5.558c2.822-5.61,5.629-11.23,8.471-16.83
		C312.594,199.833,314.751,195.698,316.891,191.555z"/>
	<path fill="#FFFFFF" stroke="#FFFFFF" stroke-miterlimit="10" d="M182.724,235.512c-0.621,0.03-1.188-0.129-1.759-0.396
		c-8.589-4.059-17.18-8.112-25.786-12.14c-5.656-2.65-11.334-5.258-17.007-7.872c-0.364-0.168-0.787-0.246-0.91-0.714
		c3.745-7.44,7.482-14.88,11.237-22.312c0.887-1.754,1.826-3.485,2.745-5.225c0.678-0.003,1.296,0.258,1.885,0.535
		c9.796,4.577,19.585,9.166,29.371,13.76c4.762,2.238,9.628,4.261,14.241,6.81c-1.594,3.112-3.199,6.219-4.773,9.345
		c-2.859,5.678-5.706,11.361-8.568,17.043C183.2,234.75,182.954,235.125,182.724,235.512z"/>
	<path fill="#FFFFFF" stroke="#FFFFFF" stroke-miterlimit="10" d="M196.741,207.959c-4.613-2.549-9.479-4.571-14.241-6.81
		c-9.786-4.594-19.575-9.183-29.371-13.76c-0.589-0.277-1.207-0.538-1.885-0.535c3.971-7.854,7.95-15.709,11.925-23.563
		c0.34,0.086,0.707,0.112,1.022,0.257c9.264,4.311,18.53,8.625,27.788,12.964c5.562,2.607,11.106,5.261,16.661,7.891
		C204.896,192.367,200.809,200.154,196.741,207.959z"/>
	<path fill="#FFFFFF" stroke="#FFFFFF" stroke-miterlimit="10" d="M157.087,325.867c3.343-6.148,8.141-10.328,15.14-11.244
		c5.046-0.658,9.929,0.064,13.646,4.076c2.661,2.874,3.691,6.516,3.759,10.27c0.182,10.442,0.104,20.895,0.123,31.346
		c0.006,1.229-0.7,1.869-1.843,2.047c-0.6,0.091-1.222,0.074-1.829,0.055c-1.958-0.059-2.653-0.748-2.667-2.729
		c-0.025-3.769,0.003-7.539-0.009-11.314c-0.017-5.555-0.045-11.109-0.078-16.664c-0.011-1.432-0.258-2.829-0.577-4.225
		c-1.294-5.646-5.429-7.815-10.902-7.053c-6.461,0.897-10.078,5.254-12.45,10.918c-1.217,2.907-1.63,5.969-1.627,9.106
		c0.001,6.319,0.001,12.639-0.003,18.962c0,1.131,0.075,2.406-1.316,2.771c-1.478,0.391-3.045,0.601-4.399-0.395
		c-0.738-0.544-0.636-1.441-0.633-2.264c0.003-8.463,0.02-16.926-0.012-25.385c-0.008-2.033-0.149-4.067-0.514-6.076
		c-1.022-5.664-5.099-8.562-10.845-7.684c-6.501,0.994-10.224,5.246-12.708,10.902c-1.223,2.783-1.706,5.736-1.7,8.777
		c0.016,6.425,0.01,12.848,0.003,19.271c-0.003,1.123,0.087,2.403-1.268,2.824c-1.47,0.448-3.012,0.571-4.419-0.304
		c-0.394-0.246-0.596-0.694-0.639-1.174c-0.064-0.759-0.153-1.522-0.153-2.283c-0.01-12.996-0.01-25.994-0.002-38.991
		c0-0.608,0.066-1.22,0.118-1.824c0.022-0.252,0.045-0.517,0.137-0.751c0.466-1.162,2.013-1.579,4.382-1.198
		c1.234,0.195,1.692,1.027,1.7,2.165c0.018,2.549,0.006,5.1,0.006,7.715c0.529-0.201,0.589-0.754,0.812-1.144
		c4.352-7.532,12.926-11.336,21.08-9.397c5.135,1.219,7.958,4.604,9.21,9.538C156.721,324.951,156.659,325.443,157.087,325.867z"/>
	<path fill="#FFFFFF" stroke="#FFFFFF" stroke-miterlimit="10" d="M298.021,326.17c2.201-4.186,5.069-7.219,8.892-9.264
		c5.147-2.756,10.577-3.211,16.141-1.583c5.52,1.614,7.944,5.835,8.907,11.141c0.393,2.154,0.505,4.349,0.51,6.535
		c0.006,8.617,0.006,17.233,0,25.844c0,3.22-1.894,4.496-5.008,3.394c-0.745-0.266-1.21-0.736-1.315-1.521
		c-0.085-0.652-0.157-1.314-0.157-1.967c-0.034-9.325-0.051-18.656-0.106-27.98c-0.012-1.009-0.185-2.031-0.409-3.018
		c-1.029-4.667-3.933-7.057-8.712-7.238c-9.03-0.342-16.583,5.949-18.135,15.062c-0.349,2.025-0.342,4.057-0.342,6.09
		c0,5.916-0.007,11.827,0,17.736c0,1.16-0.028,2.371-1.372,2.766c-1.479,0.426-3.025,0.611-4.398-0.348
		c-0.699-0.489-0.654-1.338-0.654-2.105c-0.012-2.646-0.006-5.3-0.006-7.949c0-17.076,0-34.152,0.006-51.227
		c0-0.607-0.012-1.225,0.062-1.829c0.101-0.913,0.649-1.549,1.546-1.649c1.01-0.108,2.051-0.148,3.049,0.008
		c1.422,0.228,1.775,1.34,1.771,2.634c-0.007,4.991,0.028,9.985-0.011,14.981C298.246,318.374,298.471,322.068,298.021,326.17z"/>
	<path fill="#FFFFFF" stroke="#FFFFFF" stroke-miterlimit="10" d="M219.474,339.171c-5.303,0-10.608-0.003-15.908,0.005
		c-0.6,0.004-1.361-0.273-1.277,0.889c0.588,8.188,4.98,15.039,13.435,17.104c5.781,1.415,11.216,0.3,16.118-3.165
		c2.28-1.608,3.084-1.433,4.484,0.931c0.849,1.422,0.692,2.481-0.639,3.457c-14.07,10.327-36.743,4.877-39.679-15.341
		c-1.3-8.985,0.768-17.166,7.924-23.401c7.146-6.224,19.163-7.014,26.332-1.783c4.904,3.583,6.975,8.73,7.778,14.527
		c0.174,1.252,0.241,2.531,0.264,3.803c0.031,2.142-0.79,2.968-2.925,2.974C230.076,339.182,224.775,339.171,219.474,339.171z
		 M217.089,334.32c3.67,0,7.337,0,11.004,0c4.067,0,4.067,0,3.219-3.99c-1.387-6.514-6.749-10.893-13.04-10.645
		c-7.771,0.305-13.821,5.521-15.446,13.229c-0.235,1.118-0.14,1.457,1.121,1.438C208.327,334.27,212.705,334.32,217.089,334.32z"/>
	<path fill="#FFFFFF" stroke="#FFFFFF" stroke-miterlimit="10" d="M362.17,339.171c-5.199,0-10.404,0.05-15.604-0.037
		c-1.351-0.022-1.568,0.421-1.495,1.647c0.861,14.168,16.342,21.689,28.561,13.849c0.342-0.218,0.679-0.453,1.009-0.687
		c2.162-1.51,2.886-1.369,4.286,0.838c1.015,1.605,0.823,2.646-0.768,3.771c-5.138,3.619-10.854,5.171-17.145,4.89
		c-11.529-0.51-20.914-9.068-22.331-20.522c-0.936-7.535,0.369-14.532,5.249-20.569c6.941-8.582,21.016-10.597,29.392-4.201
		c4.336,3.307,6.375,7.944,7.289,13.172c0.269,1.561,0.381,3.132,0.375,4.723c-0.013,2.436-0.712,3.13-3.216,3.13
		C372.567,339.173,367.369,339.171,362.17,339.171z M359.816,334.32c3.928,0,7.844,0,11.766,0c3.098,0,3.148-0.014,2.61-3.055
		c-1.322-7.406-6.331-11.758-13.317-11.531c-7.882,0.262-13.585,5.346-15.339,13.119c-0.235,1.033-0.19,1.528,1.143,1.504
		C351.06,334.264,355.441,334.32,359.816,334.32z"/>
	<path fill="#FFFFFF" stroke="#FFFFFF" stroke-miterlimit="10" d="M415.381,353.504c-1.562,2.721-3.445,5.079-5.955,6.919
		c-5.696,4.183-15.063,4.034-20.617-0.347c-7.008-5.53-6.693-16.208,0.662-21.424c3.703-2.635,8-3.668,12.409-4.332
		c3.895-0.59,7.811-0.717,11.731-0.588c1.182,0.039,1.546-0.336,1.417-1.463c-0.129-1.104-0.051-2.248-0.246-3.344
		c-1.031-5.537-4.493-8.438-10.157-8.689c-4.241-0.192-8.151,0.859-11.838,2.908c-2.303,1.271-4.562,0.027-4.757-2.607
		c-0.073-0.905,0.363-1.598,1.126-2.025c7.099-4,14.604-5.479,22.46-2.81c6.487,2.207,9.261,7.459,9.652,13.905
		c0.601,9.969,0.146,19.963,0.214,29.947c0.012,0.988,0.027,2.168-1.188,2.582c-1.379,0.475-2.818,0.559-4.141-0.186
		c-0.739-0.417-0.834-1.243-0.829-2.023C415.342,357.79,415.213,355.652,415.381,353.504z M415.012,341.282
		c0-0.306-0.039-0.616,0.012-0.913c0.253-1.469-0.313-1.907-1.811-1.85c-3.042,0.123-6.101-0.014-9.137,0.381
		c-3.301,0.427-6.55,1.039-9.418,2.826c-4.769,2.971-5.698,9.031-2.051,13.172c3.444,3.922,10.751,4.354,15.379,0.838
		C412.748,352.12,414.625,347.053,415.012,341.282z"/>
	<path fill="#FFFFFF" stroke="#FFFFFF" stroke-miterlimit="10" d="M104.227,353.496c-1.85,3.309-4.157,6.158-7.516,7.888
		c-6.394,3.289-12.782,2.944-18.667-1.084c-7.46-5.106-7.205-16.448,0.307-21.667c4.457-3.093,9.606-4.042,14.862-4.619
		c3.148-0.348,6.304-0.309,9.464-0.318c0.452,0,0.993,0.227,1.186-0.566c1.175-4.852-2.134-10.814-6.858-12.279
		c-2.433-0.752-4.917-0.787-7.411-0.445c-2.859,0.392-5.514,1.371-8.03,2.789c-2.231,1.252-4.622-0.159-4.689-2.75
		c-0.018-0.766,0.31-1.4,0.982-1.787c7.633-4.377,15.644-5.902,23.969-2.358c5.615,2.396,7.93,7.382,8.281,13.132
		c0.612,10.079,0.166,20.184,0.221,30.271c0.014,2.243-0.792,2.784-3.428,2.724c-2.043-0.043-2.72-0.706-2.726-2.802
		C104.163,357.583,104.072,355.544,104.227,353.496z M103.86,341.363c0-0.303-0.042-0.616,0.008-0.913
		c0.256-1.523-0.301-2.005-1.881-1.933c-2.992,0.143-5.999-0.01-8.988,0.375c-3.296,0.418-6.534,1.037-9.423,2.799
		c-3.049,1.863-4.572,4.613-4.277,8.18c0.29,3.51,2.226,6.014,5.45,7.303c4.324,1.729,8.535,1.277,12.264-1.58
		C101.656,352.039,103.461,347.018,103.86,341.363z"/>
	<path fill="#FFFFFF" stroke="#FFFFFF" stroke-miterlimit="10" d="M302.018,220.816c4.017,1.852,8.027,3.689,12.027,5.558
		c11.021,5.143,22.028,10.3,33.043,15.446c0.135,0.059,0.297,0.069,0.448,0.101c-2.012,4.238-4.135,8.423-6.376,12.549
		c-0.426-0.266-0.84-0.575-1.3-0.786c-5.064-2.351-10.157-4.665-15.223-7.025c-6.816-3.179-13.619-6.392-20.421-9.605
		c-0.525-0.246-1.053-0.375-1.619-0.327c-1.623-2.781-3.074-5.65-4.312-8.625C299.428,225.62,300.654,223.187,302.018,220.816z"/>
	<path fill="#FFFFFF" stroke="#FFFFFF" stroke-miterlimit="10" d="M267.566,363.436c-10.319,0-19.21-6.133-22.459-16.01
		c-3.457-10.511-0.129-21.949,8.202-28.188c8.594-6.422,21.457-6.41,30.012,0.035c2.022,1.521,1.631,4.562-0.729,5.633
		c-0.997,0.451-1.775-0.092-2.521-0.639c-2.582-1.883-5.377-3.225-8.57-3.802c-10.079-1.821-19.782,5.373-20.902,15.552
		c-0.734,6.659,0.778,12.578,5.877,17.2c6.361,5.778,16.381,6.033,23.896,0.718c0.246-0.181,0.487-0.365,0.733-0.553
		c1.978-1.492,2.729-1.502,3.844-0.025c1.584,2.1,1.49,3.144-0.454,4.629C279.725,361.643,274.368,363.555,267.566,363.436z"/>
	<path fill="#FFFFFF" stroke="#FFFFFF" stroke-miterlimit="10" d="M208.641,184.403c-5.555-2.63-11.099-5.283-16.661-7.891
		c-9.258-4.339-18.524-8.653-27.788-12.964c-0.315-0.146-0.683-0.171-1.022-0.257c1.762-3.482,3.521-6.964,5.28-10.449
		c0.293,0.084,0.598,0.137,0.87,0.263c5.679,2.627,11.359,5.244,17.023,7.894c7.048,3.3,14.052,6.695,21.144,9.905
		c2.118,0.961,4.082,2.312,6.418,2.773c0.056,0.009,0.109,0.025,0.165,0.048C212.51,177.412,210.596,180.916,208.641,184.403z"/>
	<path fill="#FFFFFF" stroke="#FFFFFF" stroke-miterlimit="10" d="M213.904,173.678c-2.336-0.462-4.3-1.812-6.418-2.773
		c-7.092-3.21-14.096-6.605-21.144-9.905c-5.664-2.65-11.345-5.267-17.023-7.894c-0.272-0.126-0.577-0.179-0.87-0.263
		c1.139-2.263,2.125-4.603,3.486-6.745c0.201,0.431,0.51,0.745,0.95,0.947c1.811,0.81,3.625,1.605,5.424,2.448
		c8.381,3.924,16.74,7.916,25.163,11.756c1.765,0.804,3.39,2.143,5.507,2.042c1.471,2.84,2.938,5.681,4.412,8.513
		C213.7,172.395,213.997,172.983,213.904,173.678z"/>
	<path fill="#FFFFFF" stroke="#FFFFFF" stroke-miterlimit="10" d="M302.6,236.725c0.565-0.048,1.092,0.081,1.618,0.327
		c6.802,3.214,13.604,6.427,20.421,9.605c5.064,2.361,10.157,4.676,15.223,7.024c0.46,0.211,0.874,0.521,1.3,0.787
		c-1.21,2.625-2.453,5.233-3.938,7.721c-0.246-0.438-0.705-0.562-1.108-0.754c-7.351-3.429-14.685-6.91-22.079-10.234
		c-1.624-0.731-3.114-1.97-5.06-1.916c-0.852-0.784-1.159-1.891-1.642-2.877C305.759,243.179,303.955,240.058,302.6,236.725z"/>
	<path fill="#FFFFFF" stroke="#FFFFFF" stroke-miterlimit="10" d="M208.979,163.291c-2.117,0.101-3.742-1.238-5.507-2.042
		c-8.423-3.84-16.782-7.832-25.163-11.756c-1.799-0.843-3.613-1.639-5.424-2.448c-0.44-0.202-0.749-0.516-0.95-0.947
		c0.891-2.096,1.916-4.121,3.082-6.076c0.25,0.543,0.709,0.84,1.225,1.082c7.319,3.403,14.603,6.88,21.967,10.171
		c1.821,0.812,3.474,2.171,5.608,2.219c0.969,0.826,1.255,2.062,1.815,3.123C206.798,158.814,207.868,161.066,208.979,163.291z"/>
	<path fill="#FFFFFF" stroke="#FFFFFF" stroke-miterlimit="10" d="M203.817,153.492c-2.135-0.048-3.787-1.406-5.608-2.219
		c-7.364-3.291-14.647-6.768-21.967-10.171c-0.516-0.241-0.975-0.538-1.225-1.082c0.973-2.286,2.463-4.185,4.267-5.863
		c0.006,0.771,0.616,0.992,1.165,1.25c5.306,2.501,10.617,5.005,15.934,7.496c0.784,0.367,1.61,0.594,2.493,0.504
		C200.778,146.646,202.411,150.013,203.817,153.492z"/>
	<path fill="#FFFFFF" stroke="#FFFFFF" stroke-miterlimit="10" d="M308.975,249.285c1.944-0.054,3.436,1.185,5.06,1.916
		c7.396,3.324,14.729,6.807,22.079,10.234c0.403,0.19,0.862,0.316,1.108,0.754c-1.074,2.106-2.252,4.139-4.312,5.465
		c-0.039-0.723-0.678-0.825-1.16-1.053c-4.768-2.25-9.535-4.535-14.348-6.679c-1.232-0.546-2.369-1.42-3.805-1.476
		C311.899,255.479,310.381,252.408,308.975,249.285z"/>
	<path fill="#FFFFFF" stroke="#FFFFFF" stroke-miterlimit="10" d="M198.876,143.408c-0.883,0.09-1.709-0.137-2.493-0.504
		c-5.316-2.49-10.628-4.994-15.934-7.496c-0.549-0.258-1.159-0.479-1.165-1.25c1.894-2.112,4.132-3.745,6.718-4.905
		c4.672,2.14,8.19,5.546,10.768,9.941C197.557,140.551,198.179,141.999,198.876,143.408z"/>
	<path fill="#FFFFFF" stroke="#FFFFFF" stroke-miterlimit="10" d="M313.597,258.448c1.436,0.056,2.571,0.93,3.805,1.476
		c4.812,2.145,9.579,4.43,14.348,6.68c0.481,0.227,1.121,0.33,1.16,1.053c-1.675,2.25-3.929,3.74-6.433,4.912
		c-4.925-2.168-8.441-5.858-11.114-10.422C314.678,260.969,313.983,259.777,313.597,258.448z"/>
</g>
</svg>
