<?xml version="1.0" encoding="utf-8"?>
<!-- Generator: Adobe Illustrator 16.0.0, SVG Export Plug-In . SVG Version: 6.00 Build 0)  -->
<!DOCTYPE svg PUBLIC "-//W3C//DTD SVG 1.1//EN" "http://www.w3.org/Graphics/SVG/1.1/DTD/svg11.dtd">
<svg version="1.1" id="Layer_1" xmlns="http://www.w3.org/2000/svg" xmlns:xlink="http://www.w3.org/1999/xlink" x="0px" y="0px"
	 width="500px" height="122px" viewBox="0 202.5 500 122" enable-background="new 0 202.5 500 122" xml:space="preserve">
<g>
	<path fill="#FFFFFF" stroke="#FFFFFF" stroke-miterlimit="10" d="M67.778,208.329c8.272-0.006,15.645,2.596,21.904,8.867
		c14.304,14.332,27.109,29.929,39.657,45.763c1.756,2.217,1.488,3.346-0.902,4.699c-8.75,4.953-17.873,9.111-27.227,12.781
		c-2.72,1.069-4.948,0.569-7.095-1.42c-8.808-8.17-16.274-17.529-23.949-26.711c-6.11-7.309-12.121-14.718-19.308-21.035
		c-4.805-4.223-10.326-7.227-16.35-9.339c-0.827-0.29-2.005-0.28-2.113-1.413c-0.105-1.111,1.062-1.356,1.783-1.848
		C44.218,211.831,55.39,208.598,67.778,208.329z"/>
	<path fill="#FFFFFF" stroke="#FFFFFF" stroke-miterlimit="10" d="M349.459,268.746c-2.025,5.947-4.047,11.896-6.076,17.842
		c-0.219,0.646-0.449,1.29-0.684,1.934c-1.795,4.924-2.176,5.103-7.525,4.531c-1.172-0.125-1.264-0.869-1.553-1.634
		c-2.553-6.756-4.961-13.562-7.139-20.448c-0.218-0.683-0.438-1.365-1.023-1.969c0,7.219-0.072,14.438,0.047,21.656
		c0.029,1.874-0.395,2.593-2.344,2.392c-1.66-0.171-3.355-0.079-5.033-0.02c-0.996,0.036-1.295-0.325-1.293-1.313
		c0.027-11.136,0.031-22.273,0-33.412c-0.004-1.064,0.439-1.254,1.354-1.246c4.047,0.031,8.092,0.064,12.131-0.02
		c1.229-0.023,1.518,0.618,1.824,1.557c2.028,6.135,4.096,12.26,6.149,18.385c0.213,0.644,0.422,1.285,0.736,2.242
		c2.006-7.129,4.229-13.838,6.535-20.521c0.358-1.037,0.657-1.696,1.977-1.664c3.812,0.093,7.627,0.072,11.439,0.01
		c1.172-0.02,1.6,0.268,1.594,1.522c-0.047,10.985-0.047,21.971,0,32.954c0.008,1.275-0.453,1.547-1.604,1.513
		c-2.514-0.069-5.039-0.12-7.551,0.017c-1.488,0.08-1.74-0.451-1.729-1.803c0.065-7.475,0.032-14.949,0.032-22.428
		C349.635,268.798,349.549,268.773,349.459,268.746z"/>
	<path fill="#FFFFFF" stroke="#FFFFFF" stroke-miterlimit="10" d="M59.258,320.13c-2.788-12.118-3.245-23.705,0.726-35.114
		c3.65-10.483,4.823-21.33,5.414-32.299c0.028-0.533,0.062-1.064,0.106-1.597c0.003-0.046,0.098-0.085,0.358-0.302
		c3.627,4.145,7.286,8.277,10.888,12.459c3.332,3.869,6.58,7.812,9.914,11.678c0.897,1.041,1.306,2.104,1.251,3.506
		c-0.123,3.196-0.107,6.4-0.094,9.604c0.004,0.978-0.208,1.678-1.074,2.308C75.795,298.365,66.571,307.982,59.258,320.13z"/>
	<path fill="#FFFFFF" stroke="#FFFFFF" stroke-miterlimit="10" d="M150.126,208.717c-13.837,13.416-22.986,28.539-21.515,48.578
		c-2.44-1.523-3.971-3.592-5.593-5.545c-1.946-2.344-3.759-4.8-5.749-7.106c-0.747-0.869-0.673-1.44-0.166-2.368
		c1.388-2.54,2.599-5.174,3.353-7.984c1.105-4.115,3.766-6.24,8.021-6.587c0.794-0.065,2.518,0.745,2.364-1.109
		c-0.127-1.535-0.36-3.366-2.412-3.685c-1.652-0.258-3.34-0.272-5.009-0.425c-1.211-0.109-2.521-0.011-3.603-0.453
		c-3.334-1.356-5.914-0.021-8.384,1.981c-1.89,1.532-3.559,3.329-5.701,4.561c-1.207,0.694-2.128,0.899-2.984-0.519
		c-0.544-0.901-1.248-1.774-2.062-2.434c-2.102-1.701-1.728-3.676-0.814-5.733c1.996-4.488,5.533-7.108,10.182-8.43
		c8.828-2.51,17.889-2.66,26.957-2.735C141.249,208.689,145.487,208.717,150.126,208.717z"/>
	<path fill="#FFFFFF" stroke="#FFFFFF" stroke-miterlimit="10" d="M414.738,277.023c0-5.908,0.062-11.816-0.041-17.726
		c-0.029-1.71,0.305-2.473,2.19-2.267c1.662,0.182,3.355,0.085,5.035,0.023c0.998-0.039,1.316,0.314,1.316,1.311
		c-0.025,11.138-0.029,22.277,0,33.419c0.002,1.069-0.463,1.278-1.379,1.243c-1.3-0.051-2.604-0.107-3.892,0.015
		c-1.438,0.133-2.371-0.377-3.274-1.507c-5.008-6.237-10.285-12.27-14.604-19.094c-0.713,0.566-0.352,1.3-0.354,1.904
		c-0.033,5.645-0.07,11.293,0.018,16.935c0.021,1.415-0.34,1.866-1.764,1.767c-1.824-0.131-3.662-0.072-5.492-0.018
		c-0.988,0.025-1.332-0.318-1.33-1.313c0.027-11.141,0.021-22.28,0.004-33.422c0-0.858,0.26-1.31,1.168-1.228
		c0.152,0.018,0.31,0.009,0.461,0c6.193-0.232,6.207-0.243,10.033,4.57C406.844,266.678,410.965,271.637,414.738,277.023z"/>
	<path fill="#FFFFFF" stroke="#FFFFFF" stroke-miterlimit="10" d="M279.275,292.479c-3.791,0.39-7.203,0.679-10.599,1.119
		c-1.29,0.168-1.346-0.75-1.631-1.453c-1.521-3.729-3.086-7.443-4.45-11.23c-0.519-1.441-1.4-1.611-2.609-1.479
		c-1.586,0.176-0.793,1.424-0.812,2.129c-0.097,3.353-0.085,6.709-0.021,10.062c0.021,1.085-0.282,1.446-1.397,1.413
		c-2.667-0.075-5.337-0.073-8.002-0.002c-1.2,0.032-1.552-0.36-1.548-1.558c0.041-10.978,0.026-21.955,0.02-32.933
		c0-0.812-0.034-1.526,1.128-1.483c6.542,0.236,13.12-0.57,19.624,0.516c4.108,0.689,7.354,2.711,8.162,7.158
		c0.815,4.537-0.412,8.515-4.253,11.291c-1.256,0.91-1.43,1.466-0.696,2.812C274.586,283.234,276.82,287.721,279.275,292.479z
		 M259.133,268.119c0,1.145-0.008,2.291,0.003,3.436c0.005,0.526-0.058,1.117,0.755,1.108c1.519-0.019,3.062,0.188,4.465-0.621
		c1.802-1.044,2.639-3.489,1.914-5.616c-0.721-2.117-3.237-3.383-6.168-2.6c-2.041,0.544-0.521,2.564-0.965,3.837
		C259.09,267.801,259.131,267.969,259.133,268.119z"/>
	<path fill="#FFFFFF" stroke="#FFFFFF" stroke-miterlimit="10" d="M314.311,225.628c0,4.915,0,9.833,0,14.748
		c0,5.483,0,5.483-5.586,5.483c-2.93,0-2.93,0-2.93-3.039c0-10.29,0.031-20.58-0.039-30.87c-0.01-1.525,0.324-1.874,1.933-2.092
		c4.426-0.604,7.311,1.018,9.844,4.661c3.631,5.22,8,9.921,11.705,15.354c0-0.631,0-1.261,0-1.896
		c0-5.488,0.026-10.975-0.023-16.463c-0.012-1.14,0.221-1.66,1.49-1.593c2.279,0.117,5.166-0.741,6.676,0.357
		c1.455,1.06,0.422,4.125,0.437,6.302c0.059,9.07-0.031,18.142,0.071,27.21c0.021,1.76-0.526,1.959-2.146,2.148
		c-3.808,0.45-6.277-0.915-8.568-3.995C323.09,236.458,318.516,231.337,314.311,225.628z"/>
	<path fill="#FFFFFF" stroke="#FFFFFF" stroke-miterlimit="10" d="M177.624,277.008c0-5.938,0.057-11.877-0.038-17.814
		c-0.025-1.606,0.227-2.365,2.059-2.161c1.656,0.188,3.353,0.106,5.025,0.018c1.228-0.063,1.54,0.411,1.535,1.582
		c-0.037,10.978-0.035,21.956-0.003,32.933c0.003,1.066-0.276,1.535-1.41,1.471c-1.367-0.075-2.75-0.104-4.114,0.005
		c-1.362,0.108-2.209-0.417-3.056-1.472c-4.998-6.234-10.253-12.266-14.579-19.047c-0.797,0.437-0.405,1.111-0.409,1.617
		c-0.035,5.719-0.073,11.437,0.015,17.151c0.021,1.427-0.368,1.858-1.777,1.756c-1.745-0.125-3.509-0.108-5.255-0.005
		c-1.257,0.076-1.501-0.421-1.497-1.568c0.038-10.979,0.044-21.955-0.006-32.935c-0.006-1.265,0.44-1.636,1.578-1.467
		c0.075,0.011,0.152,0.003,0.229,0c6.049-0.107,6.074-0.125,9.807,4.551C169.75,266.66,173.88,271.623,177.624,277.008z"/>
	<path fill="#FFFFFF" stroke="#FFFFFF" stroke-miterlimit="10" d="M178.352,229.776c0-2.253,0-4.506,0-6.76
		c0-3.814,0.053-7.628-0.028-11.44c-0.028-1.294,0.344-1.73,1.65-1.656c2.196,0.127,5.065-0.729,6.421,0.362
		c1.431,1.149,0.417,4.138,0.43,6.316c0.054,8.999-0.013,18,0.056,26.998c0.013,1.642-0.251,2.193-2.14,2.362
		c-3.708,0.331-6.151-0.856-8.409-3.896c-4.152-5.594-8.821-10.805-12.927-17.279c0,6.538-0.145,12.445,0.07,18.339
		c0.087,2.415-0.673,3.065-2.887,2.756c-1.858-0.261-4.354,0.819-5.445-0.449c-0.921-1.072-0.332-3.477-0.335-5.293
		c-0.016-9.305,0.059-18.611-0.059-27.916c-0.025-1.989,0.643-2.146,2.406-2.367c4.187-0.519,6.845,1.082,9.254,4.456
		C170.152,219.557,174.506,224.359,178.352,229.776z"/>
	<path fill="#FFFFFF" stroke="#FFFFFF" stroke-miterlimit="10" d="M303.117,227.668c-0.035,11.143-7.443,18.938-17.947,18.876
		c-10.518-0.06-17.828-7.881-17.802-19.037c0.024-10.352,7.862-18.309,17.964-18.24C295.49,209.337,303.146,217.26,303.117,227.668z
		 M278.74,228.317c-0.057,2.094,0.154,4.6,1.162,6.942c0.975,2.261,2.6,3.668,5.229,3.709c2.729,0.043,4.582-1.312,5.438-3.721
		c1.693-4.791,1.781-9.698,0.125-14.527c-0.836-2.434-2.637-3.845-5.338-3.875c-2.642-0.029-4.525,1.245-5.597,3.864
		C278.828,223.009,278.68,225.434,278.74,228.317z"/>
	<path fill="#FFFFFF" stroke="#FFFFFF" stroke-miterlimit="10" d="M280.633,269.532c0-3.585,0.079-7.173-0.037-10.755
		c-0.046-1.453,0.408-1.807,1.789-1.74c2.355,0.115,4.736,0.167,7.088-0.01c1.842-0.139,2.101,0.606,2.076,2.218
		c-0.078,6.024-0.012,12.05,0,18.073c0.004,1.685,0.098,3.363,0.576,4.982c0.604,2.032,1.725,3.521,4.051,3.772
		c2.441,0.27,4.127-0.702,5.16-2.89c0.895-1.895,1.266-3.912,1.277-5.984c0.039-6.025,0.113-12.053-0.004-18.074
		c-0.033-1.787,0.508-2.216,2.172-2.092c1.973,0.146,3.963,0.066,5.944,0.021c0.945-0.021,1.386,0.242,1.363,1.279
		c-0.146,7.623,0.342,15.261-0.262,22.871c-0.488,6.172-4.043,10.17-10.063,11.785c-4.091,1.1-8.183,0.923-12.188-0.276
		c-5.513-1.647-8.695-6.04-8.894-12.2c-0.119-3.66-0.021-7.32-0.021-10.982C280.652,269.532,280.643,269.532,280.633,269.532z"/>
	<path fill="#FFFFFF" stroke="#FFFFFF" stroke-miterlimit="10" d="M375.758,245.856c-3.395,0-6.811-0.031-10.229,0.02
		c-0.939,0.016-1.125-0.556-1.345-1.213c-0.646-1.945-1.364-3.87-1.911-5.841c-0.293-1.048-0.716-1.522-1.863-1.493
		c-2.818,0.072-5.642,0.078-8.455-0.004c-1.148-0.031-1.59,0.472-1.945,1.451c-0.729,1.996-1.625,3.931-2.35,5.928
		c-0.312,0.856-0.746,1.191-1.652,1.171c-2.352-0.048-4.703-0.015-7.299-0.015c2.541-6.263,4.99-12.298,7.441-18.332
		c2.172-5.344,4.383-10.674,6.5-16.04c0.459-1.159,1.028-1.651,2.325-1.574c2.431,0.145,5.328-0.703,7.171,0.359
		c1.84,1.062,1.997,4.214,2.862,6.46c3.457,9,6.894,18.01,10.304,27.028C375.541,244.366,376.018,244.955,375.758,245.856z
		 M352.516,231.581c2.216,0,4.265-0.012,6.306,0.008c0.7,0.007,1.209-0.068,0.955-0.983c-1.084-3.842-2.152-7.687-3.298-11.787
		C355.133,223.149,353.879,227.186,352.516,231.581z"/>
	<path fill="#FFFFFF" stroke="#FFFFFF" stroke-miterlimit="10" d="M225.34,245.859c-3.33,0-6.67-0.025-10.012,0.015
		c-0.938,0.012-1.325-0.376-1.575-1.248c-0.547-1.898-1.267-3.744-1.809-5.642c-0.336-1.179-0.848-1.893-2.202-1.647
		c-0.443,0.08-0.914,0.007-1.37,0.015c-2.662,0.035-5.771-0.765-7.86,0.349c-2.005,1.067-2.216,4.444-3.158,6.824
		c-0.463,1.166-1.131,1.445-2.236,1.342c-2.159-0.201-5.173,0.964-6.239-0.488c-0.871-1.188,1.174-3.788,1.963-5.744
		c3.725-9.226,7.527-18.419,11.184-27.676c0.642-1.624,1.45-2.301,3.153-2.032c0.744,0.116,1.521,0.019,2.283,0.019
		c4.598,0,4.6,0,6.188,4.18c3.672,9.655,7.353,19.306,10.995,28.97C224.958,243.925,225.516,244.719,225.34,245.859z
		 M206.074,218.799c-1.421,4.592-2.656,8.589-3.956,12.786c2.092,0,3.921-0.121,5.729,0.034c1.717,0.147,1.645-0.613,1.291-1.84
		C208.149,226.353,207.218,222.913,206.074,218.799z"/>
	<path fill="#FFFFFF" stroke="#FFFFFF" stroke-miterlimit="10" d="M365.215,274.914c0-5.333,0.062-10.672-0.039-16.002
		c-0.031-1.553,0.478-1.868,1.916-1.85c6.021,0.076,12.039,0.08,18.06-0.002c1.487-0.021,1.903,0.375,1.895,1.877
		c-0.035,4.836,0.029,4.836-4.863,4.836c-0.303,0-0.606,0-0.912,0c-5.379,0-5.329,0-5.311,5.356c0.006,1.368,0.301,1.881,1.762,1.81
		c2.508-0.123,5.025,0.015,7.541-0.056c1.119-0.03,1.556,0.206,1.595,1.478c0.146,5.312,0.198,5.301-5.109,5.315
		c-1.824,0.007-4.232-0.603-5.314,0.315c-1.278,1.085-0.18,3.591-0.459,5.447c-0.354,2.405,0.556,3.142,2.943,2.965
		c2.955-0.217,5.941-0.008,8.91-0.076c1.1-0.023,1.377,0.322,1.424,1.41c0.215,5.285,0.252,5.283-5.066,5.283
		c-5.717,0-11.432-0.057-17.145,0.041c-1.549,0.024-1.879-0.477-1.855-1.92C365.26,285.734,365.215,280.323,365.215,274.914z"/>
	<path fill="#FFFFFF" stroke="#FFFFFF" stroke-miterlimit="10" d="M199.604,293.729c-3.955-0.199-7.319-0.678-10.34-2.554
		c-0.834-0.52-1.302-0.983-0.567-1.92c0.279-0.356,0.455-0.791,0.686-1.185c0.651-1.107,1.065-2.676,2.034-3.187
		c0.911-0.481,1.988,1.035,3.113,1.403c0.792,0.256,1.604,0.537,2.424,0.598c1.908,0.139,3.761-0.185,4.708-2.078
		c0.945-1.894,0.222-3.627-1.2-4.965c-2.607-2.453-5.475-4.643-7.955-7.212c-4.353-4.512-3.447-10.7,1.838-14.044
		c2.119-1.34,4.472-1.947,6.917-2.113c3.162-0.215,6.21,0.397,9.133,1.643c0.977,0.417,1.62,0.886,0.787,1.996
		c-0.179,0.238-0.259,0.55-0.393,0.82c-0.542,1.09-0.833,2.508-1.7,3.17c-0.845,0.644-1.988-0.715-3.128-0.674
		c-0.146,0.008-0.292-0.096-0.443-0.109c-1.743-0.17-3.771-0.637-4.69,1.306c-0.916,1.938,0.903,3.008,2.113,4.076
		c2.453,2.172,5.083,4.151,7.123,6.754c5.548,7.078,2.196,16.093-6.65,17.823C202.004,293.555,200.546,293.621,199.604,293.729z"/>
	<path fill="#FFFFFF" stroke="#FFFFFF" stroke-miterlimit="10" d="M468.15,293.703c-3.371-0.158-6.656-0.645-9.652-2.377
		c-1.039-0.602-1.492-1.207-0.654-2.288c0.23-0.297,0.367-0.665,0.56-0.993c0.647-1.109,1.075-2.669,2.043-3.166
		c0.633-0.326,2.045,0.924,3.131,1.407c1.053,0.468,2.164,0.733,3.334,0.628c1.674-0.146,3.139-0.67,3.895-2.333
		c0.728-1.604,0.146-2.997-0.871-4.22c-2.063-2.476-4.823-4.188-7.125-6.409c-1.547-1.49-3.02-3.015-3.618-5.159
		c-1.316-4.705,0.996-9.109,5.967-11.126c4.863-1.976,9.684-1.466,14.432,0.517c0.941,0.394,1.385,0.867,0.685,1.84
		c-0.177,0.242-0.281,0.539-0.418,0.812c-0.539,1.086-0.828,2.492-1.691,3.179c-0.982,0.782-2.139-0.679-3.338-0.634
		c-0.373,0.017-0.748-0.139-1.125-0.162c-1.474-0.096-3.099-0.187-3.844,1.334c-0.791,1.617,0.489,2.71,1.563,3.687
		c1.805,1.635,3.721,3.158,5.49,4.834c3.897,3.686,6.277,7.951,4.186,13.455C479.342,291.134,474.377,293.779,468.15,293.703z"/>
	<path fill="#FFFFFF" stroke="#FFFFFF" stroke-miterlimit="10" d="M441.004,257.094c4.73,0,9.461,0.04,14.189-0.025
		c1.258-0.018,1.688,0.281,1.705,1.627c0.067,5.08,0.125,5.041-4.884,5.101c-1.807,0.021-4.264-0.833-5.248,0.379
		c-0.911,1.123-0.342,3.482-0.346,5.3c-0.018,7.17-0.078,14.344,0.043,21.514c0.031,1.789-0.502,2.186-2.16,2.074
		c-2.198-0.146-4.43-0.147-6.631,0c-1.705,0.117-2.188-0.388-2.17-2.133c0.102-8.314-0.016-16.633,0.092-24.947
		c0.023-1.853-0.528-2.359-2.301-2.242c-2.203,0.148-4.422-0.014-6.633,0.057c-1.058,0.033-1.41-0.248-1.463-1.38
		c-0.242-5.321-0.283-5.319,5.049-5.319C433.832,257.094,437.418,257.094,441.004,257.094z"/>
	<path fill="#FFFFFF" stroke="#FFFFFF" stroke-miterlimit="10" d="M228.977,257.094c4.731,0,9.462,0.042,14.192-0.027
		c1.293-0.018,1.663,0.365,1.683,1.672c0.077,5.037,0.126,5.025-4.949,5.046c-1.741,0.006-4.042-0.563-5.081,0.315
		c-1.234,1.047-0.383,3.43-0.397,5.226c-0.054,7.249-0.073,14.495,0.018,21.743c0.02,1.602-0.391,2.095-2.002,1.994
		c-2.355-0.144-4.733-0.138-7.091,0c-1.561,0.09-1.895-0.467-1.883-1.933c0.065-8.392-0.031-16.786,0.083-25.177
		c0.025-1.885-0.574-2.322-2.309-2.212c-2.203,0.143-4.425-0.011-6.633,0.054c-1.068,0.031-1.407-0.297-1.465-1.404
		c-0.277-5.298-0.315-5.295,4.854-5.295C221.653,257.094,225.315,257.094,228.977,257.094z"/>
	<path fill="#FFFFFF" stroke="#FFFFFF" stroke-miterlimit="10" d="M234.736,209.945c4.65,0,9.299,0.056,13.945-0.033
		c1.406-0.027,1.773,0.349,1.773,1.765c-0.007,4.957,0.058,4.957-4.965,4.957c-5.518,0-5.518,0-5.518,5.551
		c0,7.315-0.038,14.631,0.033,21.944c0.013,1.386-0.3,1.865-1.75,1.787c-2.355-0.13-4.734-0.178-7.081,0.009
		c-1.881,0.153-2.059-0.656-2.046-2.222c0.069-8.306-0.014-16.612,0.07-24.918c0.016-1.659-0.333-2.319-2.12-2.192
		c-2.273,0.165-4.571-0.005-6.855,0.06c-1.042,0.029-1.417-0.203-1.467-1.365c-0.229-5.344-0.276-5.343,5.006-5.343
		C227.421,209.945,231.08,209.945,234.736,209.945z"/>
	<path fill="#FFFFFF" stroke="#FFFFFF" stroke-miterlimit="10" d="M378.572,227.833c0-5.414,0.037-10.83-0.025-16.244
		c-0.016-1.249,0.271-1.731,1.613-1.675c2.51,0.108,5.037,0.124,7.545-0.002c1.51-0.077,1.732,0.534,1.727,1.853
		c-0.055,8.39,0.019,16.778-0.063,25.167c-0.017,1.727,0.334,2.426,2.231,2.322c3.119-0.172,6.252-0.001,9.379-0.071
		c1.15-0.026,1.548,0.244,1.58,1.491c0.14,5.207,0.191,5.206-4.938,5.206c-5.646,0-11.289-0.062-16.93,0.038
		c-1.627,0.028-2.22-0.258-2.17-2.071C378.666,238.514,378.572,233.173,378.572,227.833z"/>
	<path fill="#FFFFFF" stroke="#FFFFFF" stroke-miterlimit="10" d="M138.666,274.807c0-5.334,0.058-10.672-0.037-16.004
		c-0.027-1.451,0.406-1.802,1.788-1.74c2.51,0.112,5.03,0.084,7.542,0.006c1.189-0.035,1.57,0.332,1.566,1.545
		c-0.042,10.976-0.043,21.951,0.001,32.927c0.005,1.261-0.47,1.534-1.61,1.504c-2.59-0.063-5.184-0.085-7.772,0.009
		c-1.238,0.045-1.514-0.395-1.502-1.552C138.696,285.936,138.666,280.373,138.666,274.807z"/>
	<path fill="#FFFFFF" stroke="#FFFFFF" stroke-miterlimit="10" d="M253.904,227.646c0-5.184,0.098-10.37-0.051-15.549
		c-0.056-1.888,0.58-2.285,2.291-2.186c2.354,0.137,4.729,0.104,7.084,0.005c1.25-0.051,1.506,0.394,1.502,1.559
		c-0.041,10.975-0.043,21.952,0.002,32.927c0.006,1.238-0.394,1.539-1.558,1.502c-2.514-0.079-5.034-0.114-7.545,0.01
		c-1.457,0.072-1.774-0.435-1.757-1.803C253.947,238.622,253.904,233.135,253.904,227.646z"/>
	<path fill="#FFFFFF" stroke="#FFFFFF" stroke-miterlimit="10" d="M492.934,259.761c-0.75,1.288-1.371,2.358-2.164,3.724
		c-0.752-1.35-1.35-2.42-2.207-3.963c-0.102,1.527-0.172,2.568-0.241,3.609c-1.017-1.678-0.621-3.428-0.711-5.131
		c-0.021-0.365,0.286-0.461,0.629-0.453c0.438,0.012,0.646,0.254,0.828,0.627c0.53,1.074,1.108,2.127,1.813,3.471
		c0.551-0.953,0.91-1.73,1.414-2.399c0.459-0.604,0.443-1.918,1.562-1.611c0.954,0.263,0.521,1.355,0.428,1.996
		c-0.174,1.162,0.863,3.024-0.572,3.308C492.857,263.104,493.729,260.947,492.934,259.761z"/>
	<path fill="#FFFFFF" stroke="#FFFFFF" stroke-miterlimit="10" d="M484.301,263.236c-1.512-1.582,1.314-4.615-2.396-5.447
		c1.729-0.439,3.151-0.219,4.707-0.092C482.951,258.436,485.988,261.667,484.301,263.236z"/>
</g>
</svg>
