<?xml version="1.0" encoding="utf-8"?>
<!-- Generator: Adobe Illustrator 16.0.0, SVG Export Plug-In . SVG Version: 6.00 Build 0)  -->
<!DOCTYPE svg PUBLIC "-//W3C//DTD SVG 1.1//EN" "http://www.w3.org/Graphics/SVG/1.1/DTD/svg11.dtd">
<svg version="1.1" id="Layer_1" xmlns="http://www.w3.org/2000/svg" xmlns:xlink="http://www.w3.org/1999/xlink" x="0px" y="0px"
	 width="500px" height="164px" viewBox="0 157.5 500 164" enable-background="new 0 157.5 500 164" xml:space="preserve">
<g>
	<path fill="#FFFFFF" stroke="#FFFFFF" stroke-miterlimit="10" d="M411.081,268.89c0,2.691,0,4.911,0,7.132
		c0,11.672-0.018,23.345,0.027,35.018c0.004,1.237-0.283,1.662-1.578,1.604c-2.53-0.105-5.076-0.105-7.608,0
		c-1.286,0.058-1.583-0.348-1.578-1.594c0.045-15.123,0.029-30.246,0.029-45.368c0-4.518,0.027-9.033-0.024-13.549
		c-0.011-1.004,0.274-1.298,1.273-1.276c2.943,0.063,5.889,0.073,8.829-0.005c1.099-0.029,1.723,0.322,2.315,1.252
		c5.585,8.764,11.226,17.492,16.846,26.229c0.302,0.467,0.62,0.923,1.058,1.576c0.997-1.515,1.941-2.91,2.848-4.324
		c5.02-7.802,10.046-15.596,15.019-23.427c0.624-0.983,1.288-1.345,2.442-1.309c2.944,0.085,5.889,0.067,8.828,0.007
		c0.946-0.021,1.195,0.265,1.193,1.199c-0.022,19.789-0.021,39.583,0,59.373c0.004,0.916-0.224,1.23-1.182,1.208
		c-2.788-0.061-5.584-0.083-8.372,0.007c-1.198,0.041-1.407-0.388-1.403-1.479c0.035-13.497,0.024-26.994,0.014-40.493
		c0-0.53,0.148-1.083-0.206-1.771c-2.288,3.408-4.508,6.712-6.728,10.021c-3.895,5.813-7.782,11.628-11.676,17.441
		c-0.939,1.402-0.949,1.404-1.877,0.02c-5.833-8.725-11.662-17.453-17.498-26.177C411.854,269.875,411.598,269.569,411.081,268.89z"
		/>
	<path fill="#FFFFFF" stroke="#FFFFFF" stroke-miterlimit="10" d="M213.107,281.6c0,18.415-13.843,32.026-32.567,32.021
		c-18.081,0-31.917-13.746-31.926-31.715c-0.008-18.236,14.068-32.052,32.653-32.037C199.388,249.883,213.106,263.552,213.107,281.6
		z M181.01,303.631c4.742-0.003,9.301-1.48,12.68-4.342c7.07-5.989,9.267-13.741,7.431-22.579
		c-1.605-7.739-6.177-13.332-13.835-15.77c-7.494-2.383-14.54-1.118-20.365,4.335c-5.795,5.426-7.562,12.36-6.558,20.122
		C161.708,295.818,170.534,303.633,181.01,303.631z"/>
	<path fill="#FFFFFF" stroke="#FFFFFF" stroke-miterlimit="10" d="M335.802,270.564c0-6.089,0.031-12.18-0.025-18.27
		c-0.011-1.125,0.256-1.484,1.42-1.445c2.687,0.089,5.382,0.104,8.064-0.004c1.279-0.051,1.489,0.418,1.484,1.559
		c-0.038,10.908-0.02,21.82-0.024,32.73c-0.005,2.699,0.182,5.368,0.958,7.975c1.848,6.218,6.485,9.985,12.961,10.379
		c4.757,0.286,9.221-0.497,12.745-4.101c2.642-2.705,3.785-6.077,4.128-9.743c0.21-2.166,0.26-4.352,0.264-6.53
		c0.023-10.251,0.03-20.502-0.017-30.753c-0.004-1.211,0.328-1.551,1.522-1.51c2.687,0.087,5.381,0.062,8.07,0.008
		c0.946-0.02,1.348,0.195,1.343,1.243c-0.031,11.469,0.021,22.938-0.043,34.408c-0.023,3.859-0.522,7.686-1.84,11.353
		c-3.322,9.281-10.178,14.059-19.702,15.392c-4.568,0.636-9.126,0.492-13.589-0.693c-9.84-2.602-15.26-9.242-17.109-19.054
		c-0.451-2.397-0.619-4.82-0.615-7.261C335.813,281.019,335.802,275.791,335.802,270.564z"/>
	<path fill="#FFFFFF" stroke="#FFFFFF" stroke-miterlimit="10" d="M223.108,281.706c0-9.693,0.039-19.386-0.04-29.076
		c-0.014-1.53,0.444-1.797,1.859-1.788c7.661,0.074,15.324,0.015,22.986,0.045c3.469,0.014,6.868,0.547,10.13,1.767
		c9.639,3.605,13.77,12.119,12.74,21.633c-1.147,10.61-9.052,16.313-18.276,17.967c-5.541,0.99-11.133,0.48-16.703,0.521
		c-1.485,0.01-1.839,0.384-1.812,1.842c0.092,5.53,0.003,11.061,0.064,16.592c0.012,1.152-0.311,1.473-1.449,1.437
		c-2.584-0.084-5.177-0.099-7.761,0c-1.342,0.054-1.785-0.262-1.775-1.71C223.145,301.19,223.108,291.447,223.108,281.706z
		 M234.029,271.822c0,3.302,0.027,6.6-0.019,9.899c-0.011,0.898,0.206,1.248,1.18,1.235c3.957-0.052,7.92,0.026,11.875-0.038
		c3.814-0.062,7.387-0.981,10.069-3.898c2.976-3.234,3.328-7.12,2.034-11.107c-1.332-4.108-4.632-6.058-8.675-6.694
		c-5.188-0.822-10.437-0.223-15.656-0.39c-0.876-0.026-0.81,0.522-0.81,1.096C234.032,265.225,234.029,268.523,234.029,271.822z"/>
	<path fill="#FFFFFF" stroke="#FFFFFF" stroke-miterlimit="10" d="M306.742,286.973c0,8.021-0.027,16.044,0.028,24.062
		c0.009,1.265-0.338,1.654-1.606,1.608c-2.532-0.095-5.078-0.118-7.61,0.005c-1.457,0.07-1.87-0.325-1.865-1.82
		c0.062-14.009,0.035-28.021,0.035-42.03c0-2.132-0.054-4.266,0.025-6.395c0.035-1.084-0.339-1.369-1.388-1.362
		c-5.531,0.047-11.068-0.012-16.6,0.05c-1.218,0.011-1.699-0.254-1.641-1.576c0.107-2.484,0.071-4.976,0.013-7.462
		c-0.024-0.953,0.306-1.193,1.221-1.189c15.938,0.021,31.877,0.023,47.816-0.004c0.992-0.002,1.179,0.375,1.164,1.248
		c-0.048,2.539-0.071,5.078,0.007,7.616c0.03,1.086-0.34,1.369-1.384,1.36c-5.432-0.045-10.864,0.03-16.295-0.055
		c-1.474-0.022-1.981,0.268-1.963,1.885C306.797,270.933,306.742,278.954,306.742,286.973z"/>
	<path fill="#FFFFFF" stroke="#FFFFFF" stroke-miterlimit="10" d="M119.541,305.382c-4.172-2.073-8.095-4.574-12.044-7.033
		c-5.575-3.477-11.183-6.908-16.57-10.68c0.03-0.451-0.006-0.918,0.098-1.35c0.935-3.955,1.884-7.909,2.85-11.854
		c1.133-4.628,2.288-9.253,3.434-13.88c0.017-0.114,0.031-0.227,0.047-0.339l0.071-0.043l0.071,0.044
		c0.304-0.001,0.614,0.036,0.91-0.01c5.684-0.889,11.411-1.323,17.153-1.47c2.888-0.072,5.778-0.004,8.667-0.019
		c0.483-0.002,1.029,0.188,1.415-0.301c0.17-0.005,0.344-0.009,0.515-0.013c-0.922,6.819-1.844,13.638-2.765,20.455
		c-0.319-0.147-0.675-0.247-0.956-0.45c-7.001-5.025-13.986-10.076-21.006-15.077c-0.998-0.712-1.801-1.813-3.193-1.876
		c-0.04-0.132-0.079-0.265-0.119-0.399c-0.039,0.026-0.079,0.052-0.117,0.078c0.075,0.108,0.151,0.219,0.227,0.328
		c0.096,0.284,0.16,0.584,0.289,0.854c3.097,6.417,6.223,12.823,9.301,19.251c2.773,5.79,5.568,11.566,8.598,17.232
		C117.554,300.959,118.794,303.058,119.541,305.382z"/>
	<path fill="#FFFFFF" stroke="#FFFFFF" stroke-miterlimit="10" d="M29.455,197.854c3.318-6.12,6.745-12.178,10.571-17.999
		c6.246,2.312,12.306,5.039,18.166,8.198c1.4,0.754,2.94,1.308,4.112,2.458c-9.851,0.241-28.97,4.621-32.146,7.435
		c8.276,2.102,16.097,5.187,23.624,9.031c-0.808,1.624-1.612,3.251-2.422,4.875c-2.64,5.284-5.281,10.566-7.924,15.849
		c-1.325-1.872-1.94-4.081-2.903-6.123c-1.982-4.2-3.818-8.463-5.777-12.672C33.032,205.202,31.226,201.537,29.455,197.854z"/>
	<path fill="#FFFFFF" stroke="#FFFFFF" stroke-miterlimit="10" d="M97.308,260.584c-1.145,4.626-2.3,9.251-3.433,13.88
		c-0.966,3.946-1.915,7.899-2.85,11.854c-0.104,0.434-0.068,0.899-0.098,1.352c-3.807-2.402-7.596-4.833-11.429-7.197
		c-6.154-3.798-12.337-7.55-18.509-11.323l0.119-0.052c0.424-0.158,0.841-0.335,1.273-0.466c7.941-2.427,15.934-4.652,24.094-6.234
		C90.07,261.699,93.649,260.906,97.308,260.584z"/>
	<path fill="#FFFFFF" stroke="#FFFFFF" stroke-miterlimit="10" d="M60.457,268.865c-6.491-3.492-12.941-7.059-19.695-10.029
		c-3.324-1.461-6.692-2.821-10.039-4.229c0.565-0.265,0.712-0.837,0.941-1.333c2.474-5.324,4.988-10.632,7.38-15.993
		c1.339-3,3.003-5.855,4.067-8.979l0.003-0.003c0.086,0.006,0.171,0.014,0.258,0.025c0.804,1.794,1.639,3.576,2.411,5.386
		c3.446,8.067,6.912,16.125,10.293,24.218C57.592,261.551,59.26,265.113,60.457,268.865z"/>
	<path fill="#FFFFFF" stroke="#FFFFFF" stroke-miterlimit="10" d="M60.457,268.865c-1.197-3.752-2.864-7.314-4.379-10.936
		c-3.382-8.096-6.847-16.154-10.293-24.219c-0.773-1.81-1.607-3.592-2.412-5.387c0.022-0.119,0.044-0.237,0.066-0.356
		c0.691,0.312,1.384,0.621,2.075,0.932c8.655,3.887,17.019,8.313,25.015,13.428c-0.022,0.201-0.002,0.416-0.07,0.6
		c-2.239,6.051-4.509,12.089-6.719,18.151c-0.962,2.643-2.131,5.222-2.632,8.02l-0.12,0.052
		C60.766,269.139,60.55,269.118,60.457,268.865z"/>
	<path fill="#FFFFFF" stroke="#FFFFFF" stroke-miterlimit="10" d="M43.112,228.302c-1.063,3.125-2.728,5.978-4.067,8.979
		c-2.392,5.361-4.907,10.668-7.38,15.994c-0.229,0.495-0.377,1.067-0.941,1.334c-3.957-1.23-7.858-2.634-11.896-3.607
		c-4.841-1.164-9.74-1.846-14.71-2.056c-0.015-0.101-0.033-0.202-0.048-0.301l-0.023,0.024c0.432-0.258,0.896-0.472,1.292-0.777
		c8.721-6.699,18.167-12.132,28.362-16.25C36.786,230.395,39.822,228.988,43.112,228.302z"/>
	<path fill="#FFFFFF" stroke="#FFFFFF" stroke-miterlimit="10" d="M98.239,261.487c1.391,0.062,2.196,1.164,3.193,1.876
		c7.021,5.001,14.005,10.052,21.007,15.077c0.28,0.203,0.635,0.303,0.956,0.45c-1.092,8.495-2.182,16.988-3.282,25.481
		c-0.049,0.382,0.037,0.823-0.335,1.113c-0.027,0.021-0.091,0.02-0.126,0.002c-0.042-0.021-0.071-0.069-0.109-0.105
		c-0.746-2.323-1.986-4.423-3.125-6.549c-3.029-5.666-5.824-11.442-8.598-17.232c-3.078-6.428-6.205-12.833-9.301-19.251
		c-0.129-0.27-0.193-0.569-0.289-0.853L98.239,261.487z"/>
	<path fill="#FFFFFF" stroke="#FFFFFF" stroke-miterlimit="10" d="M43.112,228.302c-3.29,0.686-6.326,2.092-9.412,3.34
		c-10.196,4.117-19.642,9.55-28.362,16.25c-0.396,0.305-0.86,0.519-1.292,0.777c1.955-4.165,3.869-8.35,5.874-12.49
		c2.511-5.192,5.098-10.347,7.65-15.519c0.504,0.029,1.015,0.014,1.509,0.098c6.42,1.087,12.689,2.752,18.742,5.142
		c1.794,0.709,3.818,0.969,5.293,2.4L43.112,228.302z"/>
	<path fill="#FFFFFF" stroke="#FFFFFF" stroke-miterlimit="10" d="M43.115,228.299c-1.475-1.431-3.5-1.691-5.293-2.4
		c-6.054-2.39-12.322-4.055-18.742-5.142c-0.495-0.084-1.006-0.069-1.509-0.098c3.703-7.737,7.685-15.327,11.886-22.805
		c1.771,3.683,3.578,7.347,5.3,11.05c1.958,4.209,3.797,8.474,5.777,12.672c0.963,2.042,1.58,4.251,2.904,6.123
		c0.006,0.089,0.006,0.18,0.001,0.268c-0.023,0.119-0.044,0.237-0.066,0.356C43.286,228.312,43.201,228.304,43.115,228.299z"/>
	<path fill="#FFFFFF" stroke="#FFFFFF" stroke-miterlimit="10" d="M62.305,190.511c-1.172-1.149-2.711-1.703-4.112-2.458
		c-5.86-3.16-11.921-5.886-18.166-8.198c2.681-4.693,5.75-9.133,8.815-13.577c0.182-0.263,0.344-0.523,0.689-0.202
		c0.034,0.196,0.021,0.42,0.111,0.583c3.882,6.852,7.71,13.729,11.412,20.68c0.531,0.997,0.894,2.151,1.849,2.897
		c-0.002,0.144-0.007,0.289-0.009,0.434c-0.096,0.036-0.192,0.077-0.286,0.113C62.505,190.694,62.405,190.603,62.305,190.511z"/>
	<path fill="#FFFFFF" stroke="#FFFFFF" stroke-miterlimit="10" d="M90.955,193.265c0.122,0.075,0.241,0.15,0.362,0.225
		c-0.646,1.429-1.238,2.882-1.95,4.276c-1.354,2.649-2.324,5.487-3.943,8.006c-5.356-3.909-10.728-7.794-16.329-11.352
		c-1.867-1.185-3.885-2.138-5.583-3.586c0.155-0.232,0.386-0.304,0.651-0.312c6.052-0.134,12.084,0.069,18.061,1.124
		C85.138,192.164,88.044,192.722,90.955,193.265z"/>
	<path fill="#FFFFFF" stroke="#FFFFFF" stroke-miterlimit="10" d="M62.902,190.239c-0.955-0.747-1.318-1.9-1.849-2.898
		c-3.701-6.951-7.53-13.828-11.412-20.68c-0.092-0.164-0.077-0.387-0.111-0.584c5.316,2.172,10.28,5.021,15.186,7.973
		c1.992,1.2,4.036,2.333,5.837,3.831c-0.296,0.408-0.625,0.792-0.886,1.218C67.405,182.806,65.154,186.525,62.902,190.239z"/>
	<path fill="#FFFFFF" stroke="#FFFFFF" stroke-miterlimit="10" d="M85.424,205.772c1.619-2.519,2.587-5.357,3.943-8.006
		c0.712-1.394,1.303-2.847,1.95-4.276c0.511,0.16,0.879,0.496,1.156,0.944c-0.645,0.424-0.096,0.833,0.076,1.157
		c3.438,6.542,6.922,13.06,10.345,19.609c1.423,2.723,2.949,5.4,4.11,8.254c-0.854-0.252-1.454-0.897-2.074-1.457
		C98.658,216.311,92.064,211.015,85.424,205.772z"/>
	<path fill="#FFFFFF" stroke="#FFFFFF" stroke-miterlimit="10" d="M62.902,190.239c2.252-3.713,4.502-7.432,6.764-11.141
		c0.262-0.427,0.589-0.812,0.886-1.218c4.858,2.92,9.316,6.398,13.769,9.878c2.264,1.77,4.57,3.493,6.632,5.508
		c-2.909-0.543-5.817-1.101-8.73-1.619c-5.977-1.055-12.009-1.258-18.061-1.125c-0.265,0.007-0.497,0.08-0.651,0.312
		c-0.207-0.054-0.412-0.109-0.619-0.162C62.896,190.527,62.899,190.382,62.902,190.239z"/>
	<path fill="#FFFFFF" stroke="#FFFFFF" stroke-miterlimit="10" d="M126.158,258.436c-0.171,0.004-0.343,0.008-0.515,0.013
		l0.002,0.002c-0.009-0.254-0.054-0.487-0.321-0.597l-0.003,0.003c-0.046-0.194-0.053-0.41-0.146-0.577
		c-5.645-10.142-11.026-20.428-16.384-30.726c-0.232-0.446-0.526-0.871-0.494-1.412c3.508,2.807,6.621,6.049,9.923,9.082
		c3.343,3.067,6.435,6.399,9.877,9.362C127.663,248.563,126.815,253.485,126.158,258.436z"/>
	<path fill="#FFFFFF" stroke="#FFFFFF" stroke-miterlimit="10" d="M107.003,223.455c-1.161-2.854-2.686-5.531-4.111-8.254
		c-3.424-6.549-6.908-13.067-10.345-19.609c-0.171-0.326-0.72-0.733-0.076-1.157c6.406,5.565,12.657,11.299,18.581,17.381
		c-0.852,4.178-2.231,8.199-3.661,12.202C107.262,223.83,107.132,223.645,107.003,223.455z"/>
	<path fill="#FFFFFF" stroke="#FFFFFF" stroke-miterlimit="10" d="M128.096,243.586c-3.443-2.961-6.535-6.295-9.877-9.362
		c-3.302-3.034-6.415-6.274-9.923-9.08c-0.212-0.267-0.421-0.532-0.631-0.798c5.036,0.84,9.832,2.517,14.608,4.248
		c2.358,0.856,4.671,1.838,7.004,2.762c0.272,0.159,0.536,0.355,0.481,0.701C129.189,235.897,128.884,239.776,128.096,243.586z"/>
	<path fill="#FFFFFF" stroke="#FFFFFF" stroke-miterlimit="10" d="M129.276,231.355c-2.333-0.925-4.646-1.905-7.004-2.762
		c-4.776-1.731-9.573-3.408-14.608-4.248c-0.085-0.007-0.173-0.004-0.258,0.01c-0.004-0.11-0.01-0.224-0.015-0.339
		c1.43-4.003,2.808-8.024,3.661-12.202c5.282,5.181,10.278,10.636,15.261,16.099C127.336,229.031,128.291,230.206,129.276,231.355z"
		/>
	<path fill="#FFFFFF" stroke="#FFFFFF" stroke-miterlimit="10" d="M494.508,253.6c-1.601,2.334-2.94,4.287-4.391,6.404
		c-1.441-2.09-2.8-4.062-4.16-6.031c-0.099,0.013-0.195,0.023-0.292,0.035c0,2.287,0.087,4.579-0.047,6.859
		c-0.052,0.81,0.842,2.4-0.728,2.358c-1.45-0.038-0.648-1.605-0.681-2.44c-0.112-2.885-0.056-5.776-0.029-8.668
		c0.008-0.439-0.319-1.092,0.432-1.266c0.641-0.153,1.14,0.042,1.533,0.652c1.263,1.958,2.575,3.88,3.995,6.007
		c1.232-1.854,2.376-3.57,3.521-5.288c0.227-0.339,0.464-0.664,0.675-1.008c0.35-0.557,0.896-0.425,1.372-0.359
		c0.604,0.086,0.38,0.631,0.38,0.985c0.018,3.498,0.009,6.995,0.009,10.495c0,0.506,0.087,1.013-0.726,1.006
		c-0.759-0.004-0.778-0.433-0.778-0.983c0.009-2.434,0.006-4.867,0-7.301C494.594,254.719,494.555,254.385,494.508,253.6z"/>
	<path fill="#FFFFFF" stroke="#FFFFFF" stroke-miterlimit="10" d="M477.52,257.856c0,1.368,0.032,2.742-0.016,4.11
		c-0.016,0.554,0.387,1.413-0.801,1.371c-1.176-0.043-0.732-0.907-0.739-1.446c-0.042-2.741-0.073-5.484,0.005-8.221
		c0.036-1.126-0.271-1.59-1.433-1.441c-0.648,0.085-1.317-0.003-1.976,0.015c-0.547,0.017-0.684-0.275-0.7-0.758
		c-0.021-0.555,0.264-0.672,0.752-0.667c2.737,0.014,5.478,0.005,8.218,0.005c0.418,0.002,0.815-0.012,0.834,0.6
		c0.014,0.586-0.212,0.853-0.797,0.818c-0.101-0.004-0.202,0-0.305,0.004c-3.043,0.134-3.043,0.135-3.043,3.175
		C477.52,256.231,477.52,257.045,477.52,257.856z"/>
	<path fill="#FFFFFF" stroke="#FFFFFF" stroke-miterlimit="10" d="M4.067,248.645c0.017,0.099,0.033,0.2,0.048,0.301
		c-0.082-0.035-0.163-0.073-0.245-0.107C3.936,248.774,4.002,248.709,4.067,248.645z"/>
	<path fill="#FFFFFF" stroke="#FFFFFF" stroke-miterlimit="10" d="M70.528,242.328c6.135,3.523,11.946,7.556,17.781,11.546
		c3.044,2.08,6.031,4.242,9.046,6.371c-0.016,0.111-0.031,0.224-0.047,0.339c-3.66,0.322-7.239,1.115-10.835,1.814
		c-8.16,1.581-16.152,3.806-24.093,6.234c-0.432,0.13-0.849,0.309-1.273,0.466c0.501-2.798,1.669-5.377,2.632-8.02
		c2.209-6.062,4.479-12.101,6.719-18.151C70.525,242.744,70.506,242.529,70.528,242.328z"/>
	<path fill="#FFFFFF" stroke="#FFFFFF" stroke-miterlimit="10" d="M97.498,260.246c1.778-6.82,3.479-13.657,5.551-20.398
		c0.623,0.511,1.246,1.02,1.867,1.532c4.971,4.104,9.912,8.244,14.924,12.294c1.785,1.441,3.27,3.294,5.48,4.182l0.003-0.003
		c0.002,0.256,0.073,0.472,0.321,0.597l-0.002-0.002c-0.387,0.489-0.932,0.299-1.415,0.301c-2.889,0.015-5.779-0.057-8.667,0.019
		c-5.742,0.146-11.469,0.581-17.153,1.47C98.112,260.282,97.801,260.245,97.498,260.246z"/>
	<path fill="#FFFFFF" stroke="#FFFFFF" stroke-miterlimit="10" d="M98.229,261.495c-0.073-0.109-0.151-0.219-0.227-0.328
		c0.038-0.027,0.078-0.052,0.117-0.076c0.04,0.132,0.079,0.265,0.119,0.398L98.229,261.495z"/>
	<path fill="#FFFFFF" stroke="#FFFFFF" stroke-miterlimit="10" d="M62.606,190.785c-2.944,5.397-5.884,10.794-8.824,16.191
		c-7.527-3.845-15.349-6.929-23.624-9.031c3.176-2.815,22.294-7.193,32.146-7.435C62.405,190.603,62.505,190.694,62.606,190.785z"/>
	<path fill="#FFFFFF" stroke="#FFFFFF" stroke-miterlimit="10" d="M125.32,257.856c-2.209-0.886-3.694-2.74-5.48-4.182
		c-5.014-4.051-9.955-8.19-14.924-12.294c-0.621-0.512-1.244-1.021-1.867-1.532c1.454-5.163,2.907-10.325,4.358-15.493
		c0.085-0.015,0.171-0.018,0.258-0.01c0.21,0.266,0.419,0.531,0.631,0.797c-0.032,0.54,0.262,0.964,0.494,1.411
		c5.358,10.298,10.739,20.583,16.384,30.726C125.267,257.446,125.274,257.662,125.32,257.856z"/>
	<path fill="#FFFFFF" stroke="#FFFFFF" stroke-miterlimit="10" d="M125.645,258.448c-0.247-0.123-0.319-0.342-0.321-0.597
		C125.591,257.963,125.636,258.196,125.645,258.448z"/>
</g>
</svg>
