<?xml version="1.0" encoding="utf-8"?>
<!-- Generator: Adobe Illustrator 16.0.0, SVG Export Plug-In . SVG Version: 6.00 Build 0)  -->
<!DOCTYPE svg PUBLIC "-//W3C//DTD SVG 1.1//EN" "http://www.w3.org/Graphics/SVG/1.1/DTD/svg11.dtd">
<svg version="1.1" id="Layer_1" xmlns="http://www.w3.org/2000/svg" xmlns:xlink="http://www.w3.org/1999/xlink" x="0px" y="0px"
	 width="500px" height="279px" viewBox="0 98.5 500 279" enable-background="new 0 98.5 500 279" xml:space="preserve">
<g>
	<path fill="#FFFFFF" d="M10.67,247.539c0.957-2.007,0.877-4.236,1.339-6.351c3.192-14.601,12.373-23.955,25.754-29.738
		c9.176-3.965,18.845-6.327,28.437-8.942c64.98-17.717,129.963-35.426,194.95-53.124c54.515-14.846,109.037-29.668,163.548-44.531
		c2.172-0.592,4.463-0.577,6.567-1.43c3.396,0,6.788,0,10.184,0c0.146,0.395,0.501,0.324,0.81,0.363
		c6.713,0.853,12.801,3.267,18.155,7.418c9.074,7.035,13.788,16.659,16.32,27.586c0.593,2.557,0.606,5.223,1.525,7.71
		c0,61.354,0,122.707,0,184.061c-0.475,0.203-0.335,0.646-0.381,1.006c-0.791,6.234-2.345,12.254-5.312,17.828
		c-7.01,13.166-18.521,19.746-32.771,22.33c-2.315,0.42-4.722,0.275-6.964,1.131c-125.709,0-251.418,0-377.127,0
		c-2.672-1.027-5.543-0.961-8.308-1.494c-18.639-3.592-31.29-15.879-35.221-34.43c-0.584-2.76-1.009-5.553-1.507-8.33
		C10.67,301.582,10.67,274.561,10.67,247.539z M244.465,359.625c60.629,0,121.258-0.002,181.887,0.004
		c3.789,0,7.557-0.201,11.292-0.869c10.648-1.902,19.253-6.715,23.992-16.953c2.676-5.779,3.633-11.953,3.638-18.25
		c0.034-56.582,0.029-113.167,0.005-169.749c-0.003-5.827-0.894-11.549-2.73-17.096c-5.021-15.155-16.501-22.239-32.142-19.561
		c-7.115,1.218-13.975,3.59-20.937,5.484c-67.829,18.448-135.649,36.922-203.473,55.391c-46.805,12.745-93.61,25.485-140.41,38.249
		c-8.275,2.257-16.604,4.358-24.401,8.075c-7.705,3.673-13.41,9.098-15.822,17.558c-1.321,4.633-1.592,9.378-1.605,14.128
		c-0.062,21.667-0.063,43.334,0.001,65.001c0.012,4.097,0.22,8.199,1.014,12.257c2.271,11.597,8.544,19.817,19.904,23.75
		c5.534,1.916,11.283,2.581,17.117,2.581C122.685,359.625,183.575,359.625,244.465,359.625z"/>
	<path fill="#FFFFFF" d="M295.686,269.273c1.16,0.896,2.154,1.631,3.114,2.408c3.824,3.098,5.778,7.002,5.761,12.035
		c-0.029,8.217-0.299,16.438,0.207,24.653c0.265,4.304,0.979,8.541,1.743,12.772c0.394,2.176-0.233,3.213-2.353,3.248
		c-4.895,0.082-9.79,0.051-14.686,0.025c-1.838-0.008-2.383-1.377-2.675-2.85c-1.092-5.512-1.737-11.071-1.741-16.696
		c-0.005-7.179-0.005-14.358,0.004-21.538c0.002-1.247-0.08-2.475-0.592-3.632c-0.732-1.663-1.969-2.509-3.828-2.452
		c-5.494,0.165-5.494,0.152-5.494,5.628c0,12.661,0.004,25.323,0,37.985c-0.002,2.932-0.629,3.562-3.555,3.566
		c-4.178,0.01-8.354,0.021-12.531-0.004c-2.225-0.014-3.049-0.848-3.151-3.062c-0.021-0.456-0.007-0.913-0.007-1.37
		c0-37.269,0-74.536,0-111.803c0-3.487,0.271-3.884,3.543-4.792c7.584-2.106,15.164-4.229,22.767-6.273
		c9.986-2.685,19.17,3.28,21.396,13.812c0.381,1.798,0.521,3.609,0.521,5.439c-0.003,12.662-0.167,25.327,0.07,37.983
		c0.112,6.113-2.368,10.507-7.148,13.912C296.627,268.572,296.213,268.886,295.686,269.273z M275.139,238.88
		c0,6.451,0.023,12.901-0.021,19.353c-0.009,1.232,0.243,1.617,1.55,1.258c1.688-0.465,3.445-0.672,5.166-1.018
		c1.811-0.367,2.852-1.461,3.011-3.332c0.078-0.906,0.212-1.812,0.214-2.721c0.016-9.774,0.024-19.548-0.007-29.323
		c-0.005-1.617-0.055-3.252-0.586-4.817c-0.663-1.953-1.405-2.366-3.364-1.827c-1.502,0.414-2.976,0.968-4.5,1.255
		c-1.254,0.236-1.496,0.859-1.486,2.014C275.162,226.108,275.137,232.494,275.139,238.88z"/>
	<path fill="#FFFFFF" d="M383.444,227.368c0-18.34,0.021-36.679-0.035-55.019c-0.006-1.8,0.621-2.906,2.273-3.36
		c9.342-2.565,18.64-5.307,28.054-7.562c6.73-1.612,12.128,1.262,16.244,6.538c3.366,4.316,4.747,9.42,4.778,14.803
		c0.1,17.099,0.09,34.198,0.062,51.297c-0.013,8.047-2.638,14.844-9.872,19.179c-3.539,2.119-7.448,3.035-11.567,3.049
		c-2.609,0.008-5.225,0.078-7.83-0.031c-1.376-0.057-1.742,0.362-1.73,1.732c0.063,8.092,0.032,16.186,0.03,24.277
		c-0.002,3.022-0.76,3.774-3.818,3.779c-4.372,0.006-8.745,0.016-13.117-0.001c-2.791-0.011-3.47-0.698-3.47-3.468
		C383.442,264.178,383.444,245.773,383.444,227.368z M403.854,210.381c0,6.978-0.022,13.956,0.019,20.934
		c0.01,1.607-0.729,3.736,0.33,4.673c0.891,0.788,2.971,0.264,4.523,0.268c4.366,0.012,6.042-1.642,6.044-5.976
		c0.009-13.76,0.012-27.521-0.008-41.281c-0.001-1.167-0.085-2.348-0.272-3.499c-0.382-2.325-1.324-3.024-3.672-2.574
		c-1.78,0.341-3.496,1.021-5.275,1.374c-1.329,0.264-1.741,0.818-1.728,2.212C403.895,194.469,403.854,202.425,403.854,210.381z"/>
	<path fill="#FFFFFF" d="M370.484,223.198c-0.001,14.555-0.184,29.112,0.052,43.663c0.222,13.76-9.112,20.048-19.521,21.441
		c-7.045,0.943-13.804,0.139-20.034-3.436c-6.904-3.958-10.452-9.971-10.455-17.979c-0.011-25.584-0.006-51.169-0.004-76.754
		c0-2.805,0.392-3.373,3.102-4.135c4.444-1.249,8.9-2.456,13.359-3.653c1.718-0.461,2.782,0.217,3.074,1.956
		c0.118,0.701,0.096,1.43,0.096,2.146c0.005,24.671,0.005,49.342,0.001,74.013c-0.001,1.772,0.174,3.517,0.86,5.165
		c0.999,2.396,2.525,3.289,5.251,3.124c2.621-0.158,4.44-1.517,5.035-3.854c0.354-1.394,0.436-2.826,0.435-4.271
		c-0.014-26.369-0.011-52.736-0.01-79.104c0-2.973,0.277-3.338,3.24-4.159c4.01-1.111,8.021-2.219,12.034-3.306
		c2.163-0.586,3.198,0.12,3.458,2.346c0.068,0.58,0.026,1.173,0.026,1.761C370.484,193.175,370.484,208.187,370.484,223.198z"/>
	<path fill="#FFFFFF" d="M154.349,278.188c0-14.16-0.001-28.32,0-42.48c0-2.709,0.33-3.193,3.027-3.959
		c6.441-1.827,12.875-3.684,19.349-5.391c7.71-2.032,13.589,0.851,16.904,8.116c2.512,5.504,3.358,11.387,3.403,17.326
		c0.132,17.357,0.101,34.717,0.027,52.073c-0.046,10.737-6.208,18.229-16.457,20.257c-1.142,0.227-2.332,0.288-3.5,0.292
		c-6.46,0.026-12.92,0.021-19.38,0.009c-2.628-0.006-3.368-0.744-3.37-3.367C154.345,306.77,154.349,292.479,154.349,278.188z
		 M170.885,276.545c0,9.128,0,18.256,0,27.385c0,4.658,0,4.658,4.62,4.657c3.971-0.001,5.114-1.092,5.118-5.101
		c0.019-18.256,0.007-36.512,0.01-54.768c0-1.445-0.163-2.86-0.703-4.21c-0.619-1.547-1.615-2.281-3.358-1.699
		c-1.293,0.431-2.615,0.863-3.957,1.033c-1.567,0.198-1.762,1.03-1.756,2.385C170.908,256.334,170.885,266.439,170.885,276.545z"/>
	<path fill="#FFFFFF" d="M207.609,270.82c0-16.637-0.001-33.274,0-49.912c0-2.573,0.421-3.214,2.857-3.89
		c10.649-2.954,21.306-5.88,31.963-8.802c1.66-0.455,2.871,0.34,2.921,2.096c0.134,4.625,0.176,9.254,0.188,13.881
		c0.004,1.71-1.179,2.513-2.675,2.921c-4.956,1.35-9.901,2.738-14.88,3.995c-1.476,0.373-2.085,0.875-2.06,2.569
		c0.119,8.088,0.098,16.181,0.014,24.27c-0.016,1.538,0.416,1.896,1.86,1.686c2.577-0.374,5.174-0.604,7.764-0.892
		c1.96-0.217,3.05,0.548,3.096,2.521c0.104,4.434,0.092,8.87,0.044,13.307c-0.02,1.809-1.393,2.396-2.907,2.589
		c-2.778,0.354-5.562,0.711-8.354,0.88c-1.241,0.074-1.49,0.504-1.485,1.637c0.041,8.286,0.053,16.572-0.01,24.858
		c-0.01,1.3,0.479,1.461,1.588,1.462c4.889,0.003,9.778,0.089,14.667,0.148c2.48,0.03,3.151,0.693,3.187,3.119
		c0.056,3.846,0.145,7.69,0.16,11.535c0.011,2.794-0.848,3.629-3.605,3.631c-10.309,0.008-20.618,0.008-30.926,0
		c-2.769-0.002-3.405-0.664-3.405-3.502C207.608,304.227,207.609,287.523,207.609,270.82z"/>
	<path fill="#FFFFFF" d="M135.91,290.061c2.237,1.731,4.549,3.315,6.208,5.625c1.646,2.291,2.584,4.781,2.536,7.638
		c-0.099,5.88,0.279,11.702,1.857,17.418c0.754,2.733-0.114,3.672-3.024,3.688c-3.066,0.02-6.135-0.072-9.197,0.03
		c-1.925,0.063-2.875-0.837-3.344-2.567c-1.059-3.914-1.784-7.853-1.695-11.943c0.058-2.66,0.361-5.355-0.284-7.993
		c-0.576-2.354-2.114-3.521-4.491-3.498c-4.8,0.047-4.8,0.047-4.799,4.76c0,5.872,0.012,11.743-0.003,17.614
		c-0.007,2.891-0.712,3.587-3.583,3.602c-2.936,0.014-5.872,0.015-8.807-0.002c-2.592-0.014-3.405-0.811-3.406-3.356
		c-0.005-24.009,0.009-48.017-0.028-72.024c-0.002-1.711,0.676-2.79,2.234-3.211c8.086-2.189,15.989-5.122,24.303-6.388
		c8.059-1.228,13.417,3.326,13.757,12.032c0.342,8.728,0.2,17.477,0.142,26.216c-0.025,3.801-1.935,6.836-4.652,9.358
		C138.494,288.113,137.212,289.02,135.91,290.061z M119.667,269.256c0,2.018-0.045,4.035,0.014,6.051
		c0.049,1.674-0.731,3.846,0.344,4.879c1.014,0.976,3.089-0.093,4.703-0.179c3.089-0.163,4.343-1.321,4.457-4.499
		c0.163-4.549,0.106-9.105,0.092-13.66c-0.003-1.097-0.171-2.199-0.326-3.291c-0.237-1.664-1.221-2.401-2.874-2.031
		c-1.833,0.412-3.639,0.949-5.472,1.367c-0.952,0.219-0.951,0.848-0.945,1.604C119.681,262.749,119.668,266.003,119.667,269.256z"/>
	<path fill="#FFFFFF" d="M95.608,285.343c-0.214,6.905,0.374,13.831-0.356,20.718c-0.76,7.155-3.354,13.474-9.796,17.366
		c-8.988,5.433-24.765,3.763-29.36-12.112c-0.8-2.766-1.234-5.582-1.226-8.476c0.023-9.065-0.02-18.13,0.017-27.194
		c0.039-9.803,4.567-16.709,13.519-20.72c3.336-1.495,6.768-2.665,10.405-3.166c9.397-1.293,15.667,3.759,16.482,13.255
		C95.873,271.784,95.387,278.566,95.608,285.343z M79.859,289.046c0-5.347,0.006-10.692-0.004-16.039
		c-0.003-1.767-0.295-3.474-2.146-4.241c-1.933-0.804-3.573,0.033-4.968,1.338c-1.834,1.715-2.448,4.026-2.471,6.391
		c-0.092,9.518-0.092,19.037-0.046,28.556c0.015,3.021,2.083,4.907,4.973,4.822c3.158-0.093,4.649-1.666,4.659-4.981
		C79.871,299.607,79.86,294.327,79.859,289.046z"/>
	<path fill="#FFFFFF" d="M365.278,305.359c11.553,0.002,23.104-0.002,34.655,0.002c3.04,0.003,3.827,0.783,3.835,3.803
		c0.011,3.98,0.015,7.963-0.003,11.943c-0.01,2.625-0.926,3.572-3.504,3.574c-23.363,0.008-46.729,0.008-70.094,0.002
		c-2.598-0.002-3.491-0.918-3.504-3.561c-0.02-3.98-0.011-7.962-0.002-11.943c0.006-3.104,0.7-3.814,3.765-3.815
		C342.045,305.357,353.662,305.359,365.278,305.359z"/>
</g>
</svg>
