<?xml version="1.0" encoding="utf-8"?>
<!-- Generator: Adobe Illustrator 16.0.0, SVG Export Plug-In . SVG Version: 6.00 Build 0)  -->
<!DOCTYPE svg PUBLIC "-//W3C//DTD SVG 1.1//EN" "http://www.w3.org/Graphics/SVG/1.1/DTD/svg11.dtd">
<svg version="1.1" id="Layer_1" xmlns="http://www.w3.org/2000/svg" xmlns:xlink="http://www.w3.org/1999/xlink" x="0px" y="0px"
	 width="500px" height="96px" viewBox="0 215.5 500 96" enable-background="new 0 215.5 500 96" xml:space="preserve">
<g>
	<path fill="#FFFFFF" d="M40.603,220.806c1.923,0.656,3.808,1.482,5.778,1.929c2.917,0.661,5.761-0.331,8.617-0.803
		c6.577-1.087,13.099-1.36,19.472,1.12c2.265,0.881,4.149,2.267,5.784,4.057c1.6,1.752,3.117,3.613,5.341,4.662
		c0.6,0.283,0.947,0.79,0.728,1.453c-0.239,0.726-0.89,0.949-1.576,0.847c-1.337-0.198-2.672-0.322-4.025-0.364
		c-3.794-0.115-7.542,0.475-11.316,0.652c-0.634,0.03-0.968,0.335-1.275,0.822c-2.207,3.5-5.652,5.037-9.487,5.939
		c-0.363,0.085-0.75,0.11-1.123,0.098c-0.548-0.018-1.167-0.089-1.308-0.72c-0.139-0.626,0.477-0.736,0.899-0.958
		c1.196-0.629,2.254-1.414,3.179-2.885c-3.097,0.562-5.667,1.665-8.302,2.533c-9.808,3.23-16.314,10.041-20.732,19.123
		c-0.282,0.58-0.283,1.062-0.101,1.679c0.699,2.362,0.855,4.771,0.367,7.204c-0.095,0.476-0.108,1.087-0.585,1.246
		c-0.584,0.194-0.768-0.459-1.041-0.828c-1.29-1.743-1.885-1.813-3.451-0.295c-1.242,1.205-2.436,2.459-3.662,3.683
		c-0.263,0.261-0.558,0.604-0.976,0.409c-0.535-0.253-0.325-0.736-0.209-1.135c0.662-2.28,1.3-4.566,2.574-6.615
		c1.444-2.324,1.807-4.807,1.668-7.579c-0.246-4.931,1.168-9.6,3.198-14.079c1.568-3.459,3.373-6.769,5.788-9.725
		c0.788-0.964,1.436-2.026,1.964-3.162c1.28-2.751,0.65-4.629-2.016-6.071c-0.492-0.266-1.257-0.29-1.329-1.033
		c-0.089-0.915,0.974-0.687,1.311-1.203C36.706,220.806,38.654,220.806,40.603,220.806z"/>
	<path fill="#FFFFFF" d="M493.613,296.795c-1.525,3.73-4.58,4.758-8.292,4.938c-4.646,0.222-9.276,0.261-13.916-0.059
		c-3.597-0.247-6.288-2.131-6.859-5.111c-0.25-1.309-0.111-2.689-0.16-4.037c-0.023-0.637,0.303-0.866,0.894-0.85
		c0.377,0.012,0.756-0.001,1.136-0.001c3.162-0.003,3.204-0.006,3.405,3.104c0.092,1.438,1.055,1.927,2.152,1.947
		c4.596,0.08,9.194,0.121,13.786-0.006c1.911-0.054,2.561-1.218,2.405-3.466c-0.106-1.562-0.671-2.002-2.675-2.01
		c-3.73-0.013-7.463-0.011-11.194-0.001c-1.629,0.005-3.229-0.207-4.806-0.6c-2.66-0.66-4.484-2.263-4.916-4.994
		c-0.865-5.483,0.53-8.871,6.023-9.879c0.952-0.176,1.931-0.33,2.894-0.313c4.157,0.067,8.314-0.196,12.474,0.205
		c4.989,0.481,7.266,3.006,7.061,7.974c-0.038,0.924-0.335,1.271-1.234,1.188c-0.482-0.044-0.979-0.058-1.458,0.002
		c-1.715,0.212-2.931-0.013-2.658-2.254c0.103-0.83-0.516-1.515-1.449-1.695c-0.529-0.103-1.06-0.278-1.591-0.282
		c-3.839-0.031-7.679-0.094-11.517-0.012c-2.384,0.051-3.165,0.708-3.284,2.289c-0.178,2.37,0.566,3.123,3.335,3.154
		c3.841,0.047,7.681,0.004,11.521,0.021c0.917,0.003,1.845,0.013,2.748,0.152c2.913,0.448,5.141,1.837,6.178,4.75
		C493.613,292.898,493.613,294.848,493.613,296.795z"/>
	<path fill="#FFFFFF" d="M90.71,264.973c-2.172,0-4.305-0.059-6.433,0.012c-4.479,0.15-8.964,0.17-13.433,0.593
		c-3.787,0.358-7.434,1.317-11.032,2.491c-2.567,0.839-5.083,1.857-7.684,2.564c-2.328,0.635-4.196,1.854-5.876,3.512
		c-0.882,0.869-1.86,1.651-2.856,2.392c-0.812,0.604-1.362,0.448-1.511-0.69c-0.55-4.223-1.16-4.783-5.63-5.359
		c-0.213-0.028-0.436-0.047-0.633-0.125c-0.601-0.235-1.36-0.441-1.33-1.223c0.034-0.873,0.856-1.082,1.541-1.164
		c1.573-0.188,3.114,0.24,4.666,0.416c1.499,0.168,2.989,0.434,4.471,0.719c0.752,0.145,1.229-0.275,1.757-0.64
		c5.302-3.646,10.563-7.37,16.144-10.571c4.025-2.312,8.257-4.26,12.403-6.358c1.464-0.741,2.55-1.691,2.801-3.48
		c0.154-1.096,0.145-2.028-0.615-2.863c-0.343-0.377-0.642-0.788-0.386-1.304c0.268-0.54,0.794-0.685,1.364-0.707
		c0.942-0.035,1.639,0.441,2.291,1.046c1.515,1.404,2.839,2.977,4.02,4.662c0.611,0.873,1.296,1.221,2.408,1.204
		c8.3-0.129,16.365,1.097,24.014,4.472c2.333,1.029,4.592,2.177,6.087,4.402c0.571,0.85,1.605,1.051,2.492,1.44
		c0.62,0.272,1.497,0.444,1.244,1.397c-0.209,0.793-0.852,1.239-1.714,1.229c-1.515-0.02-3.031-0.016-4.542-0.1
		c-2.64-0.145-5.279-0.315-7.914-0.541c-1.361-0.114-2.42,0.177-3.493,1.166c-2.314,2.138-4.887,3.928-8.128,4.451
		c-1.875,0.305-3.652-0.01-5.386-0.697c-0.455-0.182-0.988-0.414-0.992-0.952c-0.004-0.566,0.675-0.402,1.005-0.644
		C90.116,265.514,90.565,265.52,90.71,264.973z"/>
	<path fill="#FFFFFF" d="M397.162,241.513c0-5.626,0.03-11.252-0.025-16.877c-0.012-1.125,0.292-1.461,1.438-1.456
		c9.413,0.044,18.826,0.009,28.238,0.039c1.778,0.005,3.561,0.184,5.312,0.544c4.771,0.98,7.831,3.791,8.822,8.584
		c1.148,5.562,1.195,11.206,0.221,16.771c-1.225,6.981-5.235,10.45-12.44,10.601c-10.165,0.211-20.337,0.074-30.506,0.131
		c-1.073,0.006-1.07-0.521-1.068-1.297C397.17,252.873,397.162,247.193,397.162,241.513z M416.966,229.903
		c-3.678,0-7.355,0.017-11.034-0.013c-0.826-0.007-1.269,0.097-1.263,1.117c0.042,7.031,0.032,14.063,0.009,21.095
		c-0.003,0.83,0.252,1.146,1.112,1.135c7.461-0.107,14.926,0.209,22.383-0.176c3.458-0.179,5.086-1.656,5.65-5.111
		c0.655-4.022,0.589-8.102,0.155-12.127c-0.468-4.342-2.37-5.858-6.79-5.911C423.781,229.871,420.373,229.904,416.966,229.903z"/>
	<path fill="#FFFFFF" d="M281.232,243.632c1.941,1.679,2.643,3.746,2.611,6.142c-0.035,2.812-0.095,5.628,0.026,8.437
		c0.063,1.418-0.423,1.762-1.729,1.645c-1.232-0.112-2.494-0.112-3.728-0.002c-1.365,0.123-1.927-0.215-1.82-1.731
		c0.151-2.154,0.042-4.325,0.038-6.489c-0.008-4.153-0.837-5.048-5.029-5.101c-4.813-0.06-9.631-0.014-14.444-0.015
		c-1.46,0-2.921-0.008-4.382,0.002c-2.412,0.018-2.094-0.269-2.107,2.033c-0.02,3.246-0.053,6.492,0.021,9.736
		c0.025,1.163-0.218,1.669-1.499,1.569c-1.507-0.114-3.034-0.117-4.54,0.002c-1.284,0.102-1.496-0.408-1.491-1.563
		c0.043-10.17,0.021-20.339,0.03-30.509c0.001-1.455-0.476-3.379,0.26-4.241c0.862-1.008,2.851-0.316,4.344-0.323
		c8.114-0.036,16.228-0.027,24.343-0.009c1.782,0.003,3.561,0.15,5.309,0.528c4.029,0.872,6.369,3.541,6.678,7.872
		c0.161,2.26,0.121,4.542,0.04,6.81C284.083,240.537,283.057,242.228,281.232,243.632z M262.423,229.903
		c-3.463,0-6.927,0.031-10.39-0.02c-1-0.015-1.438,0.181-1.396,1.311c0.088,2.432,0.086,4.872,0.002,7.304
		c-0.041,1.158,0.346,1.445,1.465,1.437c6.438-0.05,12.879-0.013,19.318-0.037c0.913-0.003,1.842-0.106,2.736-0.285
		c1.552-0.311,2.488-1.244,2.549-2.897c0.025-0.703,0.025-1.407,0.025-2.11c-0.002-3.684-0.984-4.674-4.73-4.698
		C268.809,229.886,265.616,229.903,262.423,229.903z"/>
	<path fill="#FFFFFF" d="M354.75,241.585c0-5.575,0.029-11.149-0.022-16.724c-0.011-1.201,0.214-1.696,1.585-1.689
		c10.986,0.059,21.974,0.055,32.959,0.004c1.306-0.006,1.744,0.377,1.612,1.649c-0.171,1.652,0.703,3.875-0.369,4.816
		c-0.931,0.817-3.096,0.254-4.715,0.257c-7.306,0.01-14.613,0.032-21.919-0.023c-1.189-0.009-1.631,0.259-1.534,1.508
		c0.115,1.506,0.12,3.036,0,4.542c-0.109,1.383,0.249,1.821,1.737,1.805c8.01-0.086,16.021-0.014,24.029-0.068
		c1.236-0.008,1.746,0.256,1.612,1.58c-0.122,1.232-0.102,2.493-0.004,3.73c0.091,1.157-0.33,1.445-1.45,1.439
		c-8.011-0.045-16.021,0.008-24.029-0.054c-1.415-0.01-2.035,0.259-1.904,1.833c0.152,1.827,0.11,3.681,0.01,5.516
		c-0.066,1.208,0.285,1.556,1.521,1.548c8.389-0.057,16.778,0.023,25.166-0.074c1.673-0.02,2.199,0.432,1.981,2.045
		c-0.198,1.482,0.638,3.478-0.341,4.342c-0.834,0.736-2.773,0.259-4.225,0.26c-10.013,0.011-20.025-0.021-30.038,0.035
		c-1.355,0.009-1.715-0.372-1.695-1.715C354.796,252.626,354.75,247.105,354.75,241.585z"/>
	<path fill="#FFFFFF" d="M155.361,241.556c0-5.626,0.025-11.253-0.021-16.878c-0.009-1.099,0.269-1.501,1.44-1.496
		c9.521,0.043,19.042,0.017,28.563,0.035c0.968,0.001,1.945,0.105,2.904,0.247c4.418,0.652,6.773,3.182,7.281,7.613
		c0.28,2.438,0.193,4.859-0.065,7.278c-0.556,5.209-3.249,7.769-8.59,8.104c-7.294,0.458-14.599,0.103-21.898,0.199
		c-2.07,0.027-2.071,0.005-2.072,2.11c-0.001,3.192-0.06,6.384,0.029,9.574c0.036,1.254-0.373,1.598-1.565,1.514
		c-1.399-0.101-2.819-0.113-4.216,0.002c-1.382,0.115-1.857-0.25-1.831-1.746C155.421,252.593,155.361,247.074,155.361,241.556z
		 M174.385,229.903c-3.407,0-6.815,0.034-10.222-0.021c-0.992-0.016-1.305,0.281-1.28,1.275c0.062,2.541,0.042,5.083,0.008,7.625
		c-0.011,0.82,0.246,1.145,1.11,1.142c6.814-0.026,13.629,0.03,20.443-0.037c2.826-0.028,3.631-0.973,3.635-3.759
		c0.001-0.649,0-1.298,0-1.947c-0.001-3.496-0.73-4.243-4.284-4.273C180.659,229.882,177.522,229.903,174.385,229.903z"/>
	<path fill="#FFFFFF" d="M442.231,259.83c3.9-6.572,7.617-12.836,11.336-19.098c3.227-5.434,6.478-10.852,9.657-16.311
		c0.536-0.921,1.123-1.293,2.185-1.238c1.938,0.102,4.149-0.493,5.756,0.258c1.617,0.757,2.178,3.09,3.168,4.748
		c6.011,10.06,11.981,20.145,17.963,30.222c0.216,0.366,0.414,0.743,0.772,1.387c-2.902,0-5.609,0.013-8.317-0.011
		c-0.518-0.005-0.63-0.549-0.841-0.9c-1.029-1.713-2.065-3.422-3.029-5.172c-0.411-0.75-0.89-1.055-1.774-1.049
		c-7.623,0.036-15.248,0.039-22.872-0.005c-0.907-0.005-1.351,0.341-1.756,1.067c-0.975,1.742-2.027,3.441-3.024,5.174
		c-0.308,0.537-0.58,0.957-1.329,0.943C447.592,259.802,445.06,259.83,442.231,259.83z M458.998,246.08
		c5.67,0,10.965-0.006,16.259,0.007c0.771,0.001,1.011-0.204,0.563-0.926c-0.568-0.918-1.1-1.86-1.648-2.789
		c-2.106-3.562-4.217-7.124-6.487-10.959C464.747,236.372,461.96,241.077,458.998,246.08z"/>
	<path fill="#FFFFFF" d="M189.1,259.829c2.89-4.868,5.586-9.412,8.284-13.954c4.223-7.108,8.471-14.203,12.642-21.342
		c0.607-1.038,1.271-1.423,2.441-1.351c1.883,0.116,4.033-0.46,5.592,0.273c1.576,0.743,2.111,3.015,3.075,4.629
		c6.011,10.069,11.986,20.16,17.964,30.249c0.238,0.399,0.775,0.804,0.507,1.274c-0.263,0.467-0.885,0.209-1.342,0.209
		c-2.27,0.002-4.872,0.646-6.718-0.25c-1.854-0.901-2.491-3.642-3.631-5.59c-0.559-0.955-1.165-1.328-2.294-1.319
		c-7.412,0.055-14.826,0.051-22.239,0.003c-1.067-0.008-1.66,0.312-2.154,1.265c-0.872,1.675-1.897,3.271-2.864,4.896
		c-0.3,0.505-0.536,1.031-1.304,1.021C194.523,259.809,191.987,259.829,189.1,259.829z M214.542,231.396
		c-2.765,4.685-5.421,9.193-8.087,13.696c-0.356,0.602-0.438,0.993,0.475,0.991c5.332-0.009,10.665-0.004,16.294-0.004
		C220.266,241.076,217.449,236.312,214.542,231.396z"/>
	<path fill="#FFFFFF" d="M326.484,251.105c4.933-8.941,9.756-17.632,14.511-26.36c0.62-1.14,1.291-1.648,2.627-1.573
		c2.152,0.122,4.315,0.033,6.445,0.033c0.275,0.578-0.126,0.895-0.317,1.243c-6.3,11.395-12.624,22.776-18.895,34.187
		c-0.525,0.955-1.112,1.271-2.156,1.217c-1.941-0.1-4.17,0.506-5.753-0.264c-1.602-0.777-2.077-3.156-3.02-4.846
		c-5.603-10.051-11.145-20.136-16.755-30.183c-0.686-1.228-0.354-1.413,0.857-1.371c1.837,0.064,3.683,0.098,5.516-0.012
		c1.165-0.07,1.722,0.416,2.247,1.375c4.591,8.388,9.227,16.75,13.852,25.118C325.875,250.085,326.124,250.492,326.484,251.105z"/>
	<path fill="#FFFFFF" d="M170.005,291.241c-2.404-0.093-5.209,0.106-8.018-0.261c-4.47-0.588-6.753-3.203-6.719-7.961
		c0.03-4.302,2.465-6.935,6.84-7.312c5.068-0.438,10.143-0.455,15.209,0.007c4.609,0.421,7.054,3.372,6.807,7.994
		c-0.046,0.847-0.313,1.175-1.145,1.116c-0.593-0.042-1.19-0.008-1.785-0.008c-2.276,0-2.294,0.002-2.557-2.284
		c-0.098-0.858-0.494-1.419-1.327-1.625c-0.576-0.142-1.165-0.308-1.75-0.313c-3.894-0.031-7.79-0.105-11.68,0.002
		c-2.526,0.07-3.349,1.073-3.151,3.27c0.101,1.123,0.662,1.803,1.797,1.939c0.801,0.1,1.607,0.219,2.412,0.225
		c3.57,0.025,7.14,0.004,10.71,0.017c0.863,0.003,1.744-0.022,2.588,0.125c5.87,1.026,8.535,6.933,5.513,12.147
		c-1.414,2.439-3.809,3.098-6.333,3.312c-5.01,0.428-10.029,0.398-15.049,0.045c-5.123-0.361-8.257-4.457-7.1-9.326
		c0.107-0.453,0.305-0.658,0.746-0.664c0.433-0.004,0.865-0.018,1.298-0.008c1.025,0.021,2.25-0.289,3.024,0.166
		c0.929,0.545,0.284,1.889,0.381,2.874c0.144,1.456,1.126,2.009,2.312,2.025c4.542,0.073,9.087,0.089,13.628-0.003
		c1.79-0.036,2.7-1.333,2.603-3.236c-0.087-1.688-0.782-2.247-2.851-2.26C174.409,291.232,172.407,291.241,170.005,291.241z"/>
	<path fill="#FFFFFF" d="M392.123,275.438c2.53,0.156,5.611-0.231,8.682,0.227c3.729,0.557,6.17,2.738,6.67,6.447
		c0.586,4.347,0.58,8.732,0.006,13.08c-0.479,3.613-3.13,6.134-6.703,6.435c-5.709,0.479-11.427,0.351-17.148,0.112
		c-5.633-0.234-8.074-3.186-8.366-7.924c-0.223-3.611-0.423-7.242,0.097-10.832c0.767-5.301,3.347-7.455,8.765-7.537
		C386.608,275.406,389.096,275.438,392.123,275.438z M391.413,296.792c2.325,0,4.651,0.035,6.977-0.009
		c2.573-0.051,3.681-1.139,3.711-3.656c0.036-3.029,0.044-6.059-0.007-9.086c-0.04-2.389-1.101-3.467-3.508-3.492
		c-4.759-0.051-9.519-0.053-14.276,0c-2.385,0.027-3.429,1.15-3.449,3.536c-0.025,2.976-0.018,5.949-0.003,8.924
		c0.014,2.649,1.062,3.726,3.741,3.775C386.869,296.826,389.142,296.792,391.413,296.792z"/>
	<path fill="#FFFFFF" d="M212.518,301.915c-2.491-0.058-5.35,0.034-8.215-0.203c-4.33-0.358-7.284-3.104-7.457-7.478
		c-0.147-3.729-0.197-7.476,0.018-11.194c0.205-3.536,1.904-7.172,7.779-7.466c5.718-0.285,11.467-0.469,17.171,0.102
		c4.6,0.46,6.642,2.381,7.218,6.913c0.537,4.224,0.619,8.538-0.109,12.767c-0.687,3.992-3.277,6.092-7.289,6.319
		c-1.454,0.083-2.907,0.191-4.362,0.232C215.812,301.945,214.35,301.915,212.518,301.915z M213.113,280.527
		c-2.378,0-4.756-0.03-7.133,0.009c-2.553,0.043-3.638,1.128-3.675,3.692c-0.042,2.862-0.033,5.728-0.007,8.592
		c0.025,2.832,1.122,3.949,3.926,3.966c4.54,0.024,9.079,0.022,13.618,0c2.574-0.015,3.807-1.181,3.859-3.734
		c0.062-2.972,0.051-5.944,0.005-8.917c-0.038-2.412-1.194-3.549-3.622-3.595C217.76,280.497,215.437,280.531,213.113,280.527z"/>
	<path fill="#FFFFFF" d="M118.668,294.479c-0.643,1.068-1.548,1.567-2.371,2.129c-10.425,7.099-21.855,8.51-33.955,5.875
		c-6.818-1.483-13.148-4.237-19.1-7.84c-10.678-6.461-22.121-10.188-34.71-9.992c-7.044,0.11-13.853,1.373-20.381,4.057
		c-0.241,0.1-0.486,0.189-0.877,0.059c0.705-0.471,1.387-0.979,2.119-1.4c9.136-5.27,18.992-6.877,29.372-5.662
		c8.712,1.021,16.735,4.107,24.388,8.277c9.132,4.977,18.929,7.49,29.298,7.922c8.557,0.357,16.918-0.744,25.115-3.182
		C117.868,294.63,118.181,294.584,118.668,294.479z"/>
	<path fill="#FFFFFF" d="M425.745,282.781c0,5.886-0.046,11.449,0.031,17.011c0.02,1.381-0.271,1.877-1.764,1.837
		c-3.792-0.098-3.794-0.021-3.794-3.833c0-6.817,0.029-13.637-0.025-20.455c-0.011-1.243,0.278-1.665,1.604-1.655
		c4.907,0.041,4.878,0.021,8.432,3.461c5.013,4.854,10.07,9.656,15.113,14.479c0.187,0.179,0.404,0.322,0.624,0.496
		c0.533-0.485,0.297-1.06,0.299-1.552c0.021-5.088,0.04-10.176-0.01-15.262c-0.011-1.123,0.17-1.629,1.48-1.623
		c4.234,0.021,4.234-0.037,4.234,4.203c0,6.656-0.03,13.313,0.026,19.969c0.012,1.332-0.414,1.615-1.727,1.797
		c-3.59,0.494-6.039-0.981-8.473-3.493c-4.888-5.047-10.089-9.792-15.162-14.658C426.447,283.32,426.227,283.168,425.745,282.781z"
		/>
	<path fill="#FFFFFF" d="M305.952,286.364c0,2.866,0.021,5.731-0.005,8.598c-0.034,3.729-1.582,5.952-5.264,6.451
		c-6.377,0.862-12.826,0.916-19.203-0.017c-3.621-0.527-5.272-2.604-5.35-6.263c-0.126-6.106-0.037-12.221-0.072-18.329
		c-0.007-0.879,0.354-1.063,1.155-1.103c4.595-0.222,4.593-0.239,4.593,4.31c0,4.704-0.007,9.409,0.004,14.113
		c0.006,1.993,0.58,2.632,2.598,2.652c4.434,0.044,8.867,0.037,13.303,0.004c2.064-0.016,2.705-0.694,2.711-2.756
		c0.014-5.57,0.044-11.142-0.025-16.709c-0.017-1.293,0.36-1.646,1.638-1.629c3.919,0.051,3.919-0.002,3.919,3.861
		C305.952,281.82,305.952,284.094,305.952,286.364z"/>
	<path fill="#FFFFFF" d="M291.348,241.407c0-5.565,0.037-11.13-0.029-16.694c-0.017-1.229,0.332-1.606,1.541-1.532
		c1.615,0.099,3.244,0.08,4.86,0.004c1.027-0.048,1.271,0.346,1.267,1.31c-0.026,11.346-0.032,22.692,0.009,34.038
		c0.003,1.097-0.347,1.393-1.384,1.348c-1.672-0.072-3.353-0.072-5.022,0c-1.011,0.045-1.271-0.305-1.264-1.293
		C291.369,252.861,291.348,247.134,291.348,241.407z"/>
	<path fill="#FFFFFF" d="M331.336,275.721c4.327,0,8.654,0.053,12.979-0.031c1.325-0.026,1.625,0.422,1.606,1.66
		c-0.05,3.457,0.002,3.459-3.517,3.459c-2.271,0-4.545,0.058-6.813-0.024c-1.159-0.041-1.456,0.366-1.445,1.481
		c0.048,5.84-0.021,11.682,0.053,17.521c0.017,1.364-0.25,1.884-1.754,1.844c-3.836-0.099-3.838-0.021-3.838-3.799
		c0-5.19-0.029-10.383,0.022-15.575c0.011-1.136-0.335-1.498-1.473-1.472c-2.919,0.069-5.841-0.021-8.759,0.045
		c-1.206,0.024-1.741-0.24-1.728-1.604c0.039-3.504-0.028-3.504,3.469-3.504C323.873,275.721,327.604,275.721,331.336,275.721z"/>
	<path fill="#FFFFFF" d="M241.938,288.629c0-3.84,0.031-7.68-0.021-11.52c-0.014-1.022,0.234-1.403,1.339-1.418
		c4.207-0.051,4.207-0.092,4.207,4.045c0,5.084,0.037,10.168-0.028,15.25c-0.016,1.214,0.324,1.562,1.542,1.545
		c5.082-0.066,10.167,0.005,15.25-0.053c1.153-0.015,1.45,0.356,1.447,1.473c-0.009,3.64,0.034,3.64-3.645,3.64
		c-6.165,0-12.33-0.036-18.494,0.029c-1.292,0.014-1.654-0.356-1.627-1.636C241.991,296.2,241.938,292.414,241.938,288.629z"/>
	<path fill="#FFFFFF" d="M356.86,288.693c0-3.834,0.032-7.67-0.021-11.502c-0.015-1.09,0.258-1.496,1.43-1.5
		c4.152-0.02,4.152-0.062,4.152,4.088c0,6.75-0.024,13.502,0.024,20.25c0.008,1.156-0.228,1.601-1.5,1.594
		c-4.085-0.021-4.085,0.033-4.085-4.021C356.86,294.634,356.86,291.663,356.86,288.693z"/>
</g>
</svg>
