<?xml version="1.0" encoding="utf-8"?>
<!-- Generator: Adobe Illustrator 16.0.0, SVG Export Plug-In . SVG Version: 6.00 Build 0)  -->
<!DOCTYPE svg PUBLIC "-//W3C//DTD SVG 1.1//EN" "http://www.w3.org/Graphics/SVG/1.1/DTD/svg11.dtd">
<svg version="1.1" id="Layer_1" xmlns="http://www.w3.org/2000/svg" xmlns:xlink="http://www.w3.org/1999/xlink" x="0px" y="0px"
	 width="500px" height="220px" viewBox="0 144.5 500 220" enable-background="new 0 144.5 500 220" xml:space="preserve">
<g>
	<path fill="#FFFFFF" d="M241.122,173.229c3.716-2.025,7.437-4.042,11.144-6.084c0.881-0.486,1.424-0.593,1.4,0.718
		c-0.359,18.769,0.623,37.553-0.65,56.311c-0.754-0.713-0.09-1.838-0.918-2.899c0.098,4.748-0.986,9.048-1.498,13.42
		c0,0,0.069-0.071,0.068-0.07c-1.728,2.197-2.941,4.659-3.738,7.331c0,0,0.059-0.041,0.058-0.041c-0.46,0.088-0.581,0.419-0.6,0.826
		c-0.9,1.256-2.324,1.73-4.176,2.593c1.583,0.312,2.667,0.527,3.749,0.741c-0.047,1.052,0.698,1.141,1.358,0.897
		c1.235-0.456,2.683-0.821,2.562-2.637l-0.028,0.064c0.192-0.183,0.384-0.363,0.577-0.545c0,0,0.007-0.006,0.007-0.005
		c0.926,0.083,1.495-0.395,2.292-0.869c3.129-1.853,2.438-5.541,4.321-7.935c0.543-0.688,0.688-2.125-0.307-3.059
		c0.312-1.679,0.62-3.357,0.931-5.035c0.094,0.785,0.188,1.569,0.282,2.355c0.437-1.692,0.826-3.37,0.842-5.052
		c0.015-1.46-0.612-0.095-0.948-0.076c0.791-18.821,0.385-37.649,0.385-56.472c-0.957-1.494-1.021-2.642,1.14-2.929
		c0.048,0.957,1.267,1.37,1.081,2.476c-0.28,1.672,0.915,1.712,2.074,1.737c0,0.319,0,0.638,0,0.957
		c-0.922,0.18-1.754,0.829-1.729,1.606c0.028,0.868,1.133,0.341,1.729,0.558c0.089,17.197,0.51,34.396-0.32,51.585
		c-0.102,2.093,0.023,4.284-1.121,6.215c-0.189,0.166-0.521,0.312-0.546,0.5c-0.369,2.967-1.39,5.635-2.915,8.245
		c-0.693,1.186-1.787,2.607-1.32,4.306l-0.002,0.003c-0.258,0.02-0.621-0.064-0.756,0.074c-2.232,2.282-4.453,4.522-7.725,5.368
		c-0.469,0.121-0.825,1.232-0.954,1.936c-0.094,0.515,0.472,0.812,1.063,0.892c3.032,0.404,5.956,0.479,8.612-1.508
		c0.745-0.557,0.65-0.851,0.225-1.401c3.736-3.029,6.229-6.901,7.75-11.433c1.949-5.81,2.613-11.839,2.662-17.904
		c0.137-17.23,0.057-34.465,0.197-51.695c0.021-2.75-0.004-5.06-3.316-5.666l0.039,0.058c-0.217-0.618,0.06-0.934,0.621-1.189
		c2.416-1.099,4.521-2.832,7.148-3.498l-0.03-0.054c0.005,17.612-0.001,35.224,0.024,52.836c0.009,5.991-0.21,11.969-0.994,17.911
		c-1.059,8.016-3.016,15.672-9.178,21.521c-0.805-0.179-1.521-0.062-2.139,0.544c-1.621,1.585-3.43,2.781-5.761,3.12
		c-1.344,0.196-1.668,1.324-1.711,2.526l-0.008,0.008c-2.762-0.665-4.618-2.891-6.432-4.645c-2.088-2.019-5.305-3.097-6.192-6.333
		c-0.068-0.25-0.708-0.419-1.106-0.489c-0.95-0.167-1.657-0.77-2.007-1.522c-1.529-3.287-2.928-6.716-2.955-10.349
		c-0.124-16.489-0.056-32.981-0.08-49.472c-0.001-0.883,0.266-1.82-0.567-3.25c0,17.031,0,33.467,0,49.903
		c-0.438-16.481-0.435-32.959-0.445-49.437c0-0.667,0.153-0.959,0.879-1.267c2.289-0.971,4.511-2.118,6.711-3.282
		C240.623,174.874,241.879,174.612,241.122,173.229z M258.957,215.189c0.081-0.005,0.161-0.01,0.242-0.015
		c0-15.555,0-31.109,0-46.665c-0.081,0.001-0.161,0.002-0.242,0.002C258.957,184.071,258.957,199.63,258.957,215.189z"/>
	<path fill="#FFFFFF" d="M231.448,305.588c1.633,0.338,0.825,1.654,0.829,2.451c0.062,11.773,0.042,23.548,0.034,35.322
		c-0.002,3.041,0.707,3.99,3.655,4.592c0.854,0.175,1.692,0.059,1.658,1.387c-0.034,1.354-0.853,1.239-1.736,1.237
		c-4.935-0.011-9.87-0.017-14.805-0.015c-0.871,0-1.72,0.166-1.799-1.195c-0.079-1.348,0.754-1.285,1.631-1.383
		c2.478-0.276,4.001-1.482,3.997-4.166c-0.008-6.062,0-12.121-0.019-18.18c-0.002-0.32-0.208-0.64-0.318-0.957
		c0.139-0.3-0.015-0.527-0.276-0.529c-4.881-0.068-9.763-0.12-14.645-0.141c-0.102,0-0.208,0.415-0.312,0.637
		c-0.208,0.184-0.414,0.367-0.621,0.549c-0.6,0.666-1.022,1.439-0.85,2.339c1.072,5.618,0.031,11.284,0.41,16.923
		c0.224,3.343,1.261,4.297,4.687,3.672c0.174,0.006,0.35,0.01,0.523,0.016c-0.067,1.146-0.984,1.479-1.812,1.48
		c-4.668,0.021-9.34,0.29-14.003-0.143c-0.162-0.015-0.296-0.319-0.458-0.506c0.54-0.58,1.754-0.156,1.72-1.328
		c2.361-0.569,2.294-2.528,2.314-4.295c0.063-5.636,0.027-11.273,0.025-16.91c-0.003-6.766,0.033-13.53-0.051-20.295
		c-0.02-1.629,0.292-3.56-1.794-4.418c-0.306-1.045-1.595-0.945-2.146-1.863c1.162-0.344,2.254-0.326,3.43-0.338
		c3.925-0.036,7.848-0.42,11.771-0.672c0.301-0.013,0.601-0.023,0.903-0.037c-0.319,0.604,1.402,2.606-1.316,1.632
		c-1.501-0.538-3.267,2.129-4.204,3.563c-1.314,2.016,0.589,3.172,0.545,4.827c-0.096,3.714-0.593,7.399-0.597,11.111
		c-0.003,2.657,0.578,2.897,3.219,2.751c4.051-0.227,8.145-0.445,12.17,0.14c1.6,0.231,1.809-0.251,1.802-1.515
		c-0.012-2.941-0.008-5.887,0.01-8.83c0.012-1.816-0.294-3.729,0.167-5.43c0.988-3.639,0.328-5.125-3.327-6.127
		c-0.831-0.229-1.632-0.558-2.447-0.838c0.015-0.274,0.03-0.549,0.045-0.826c4.028,0.675,8.106,0.521,12.131,0.291
		c1.92-0.109,3.935,0.736,5.794-0.327c0.624,1.881-0.67,2.13-2.001,2.348c-0.975-0.586-2.595-0.698-2.752,0.073
		c-0.264,1.299-2.232,2.529-0.547,4.076c-0.343,0.279-0.592,0.213-0.745-0.202c0.002,11.237,0.002,22.476,0.002,33.713
		c0.338-0.657,0.412-1.329,0.412-2c0.008-9.615,0.016-19.229-0.006-28.847C231.744,307.467,231.552,306.527,231.448,305.588z
		 M201.957,303.85c-0.094,0-0.187,0-0.281,0c0,13.723,0,27.445,0,41.17c0.094,0,0.187,0,0.281,0
		C201.957,331.295,201.957,317.57,201.957,303.85z"/>
	<path fill="#FFFFFF" d="M303.371,298.614c5.913-0.444,5.909-0.444,5.906,5.312c-0.004,13.011-0.004,26.024,0,39.036
		c0.003,3.943,0.301,4.299,4.22,5.217c-0.144,1.611-1.337,1.512-2.467,1.51c-4.363-0.002-8.726-0.006-13.087-0.01
		c0,0-0.002-0.164-0.002-0.162c-0.367-0.92-1.32-2.121-1.824-0.851c-0.768,1.942-2.072,1.312-3.303,1.575
		c-2.084,0.449-3.575-0.844-5.262-1.59c-0.414-0.807-0.824-1.611-1.263-2.465c-0.579,0.662-1.16,1.33-1.742,1.996
		c-3.151,1.892-6.459,2.733-10.187,2.076c-1.271-0.227-2.211-1.498-3.631-1.003l-0.015,0.007c0.2-0.558,0.017-1.015-0.381-1.402
		c-1.886-1.854-1.591-4.223-1.593-6.541c-0.001-1.32,0.76-2.43,1.811-2.459c3.68-0.1,1.916-1.869,1.202-3.375l-0.021,0.027
		c0.738,0.104,1.18-0.154,1.179-0.959l-0.024,0.012c0.778,0.055,1.566,0.129,2.256-0.349c2.453-1.702,5.057-3.069,7.992-3.753
		c0.102-0.021,0.072-0.611,0.105-0.936c0.943-0.396,1.89-0.79,2.833-1.188c0.774-2.881,1.124-5.781,0.422-8.732
		c-0.101-0.412,0.13-1.202-0.771-0.627c-1-1.379-1.901-2.896-3.969-2.713c-0.458-1.502-1.562-0.926-2.501-0.742
		c-1.499,0.293-2.993,0.729-4.329-0.455c4.094-1.803,8.241-1.84,12.443-0.412c3.311,1.124,5.32,4.205,5.338,8.359
		c0.027,6.498,0.01,12.996,0.014,19.496c0,0.779,0,1.561,0.034,2.34c0.048,0.976,0.188,2.049,1.349,2.199
		c1.219,0.158,1.582-0.859,1.748-1.839c0.201-1.19,0.438-2.396,0.441-3.595c0.003-1.159,0.424-1.492,1.532-1.454
		c1.213,0.046,1.127,0.778,1.06,1.591c-0.162,1.948-0.318,3.897-0.477,5.848c-0.003,0,0.031-0.037,0.031-0.037
		c-0.116,0.029-0.236,0.059-0.354,0.087c0.128,0.17,0.256,0.341,0.387,0.512c3.115,0.597,4.623-0.646,4.659-3.813
		c0.152-13.131-0.262-26.265,0.188-39.396c0.031-0.874,0.117-1.992-1.247-2.162l0.006,0.009c0.142-1.697-0.74-1.845-2.045-1.349
		c-0.687-0.317-1.636,0.235-2.149-0.647c0.76-1.39,1.959-1.771,3.475-1.668c1.47,0.099,2.968,0.186,4.42,0.004
		c2.173-0.269,2.587,0.68,2.576,2.643c-0.069,13.712-0.039,27.425-0.022,41.138c0.002,0.817-0.23,1.698,0.522,2.981
		c0-1.397,0-2.254,0-3.109c0.003-12.932,0.006-25.861,0.009-38.795C308.868,298.54,308.869,298.54,303.371,298.614z M285.91,331.455
		c-2.497-0.618-5.583,0.811-6.753,3.121c-3.339,2.613-4.952,5.914-4.142,10.22c0.352,1.865,0.938,3.634,2.986,4.111
		c2.006,0.468,4.04-0.71,4.932-1.993C286.139,342.298,286.775,336.969,285.91,331.455z"/>
	<path fill="#FFFFFF" d="M271.871,156.996c2.925-1.707,5.852-3.415,8.857-5.169c0.252,0.451,0.467,0.653,0.465,0.854
		c-0.149,22.005,0.324,44.013-0.267,66.015c-0.135,5.018-0.626,10.022-1.87,14.915c-1.232-1.014-0.678-2.697-1.434-4.277
		c-0.74,1.255-0.67,2.345-0.43,3.235c0.766,2.85,0.91,5.452-1.754,7.467c-0.446,0.338-0.019,0.785-0.024,1.18
		c-0.058,2.869-1.274,5.157-3.542,6.898c-0.08-0.31-0.066-0.694-0.489-0.759c-0.079-0.013-0.286,0.195-0.274,0.276
		c0.065,0.422,0.445,0.413,0.76,0.488c-0.238,1.405-1.068,2.378-2.016,3.438c-2.646,2.961-6.478,3.779-9.709,5.644
		c-2.5,1.442-6.726,0.153-8.068-1.788c0,0,0.008-0.008,0.007-0.008c0.944,0.06,1.897,0.23,2.827,0.15
		c1.834-0.156,3.863,0.939,5.471-0.783l-0.059,0.056c0.949,0.067,1.887,0.12,2.082-1.16c2.81-2.377,5.523-4.848,7.752-7.803
		c0.691-0.032,0.576-0.543,0.585-0.982l-0.025,0.025c1.105,0.191,1.541-0.551,1.857-1.385c0.788-2.074,1.868-4.108,2.229-6.259
		c0.467-2.769,2.245-5.478,0.797-8.435c0.291-3.532,0.746-7.061,0.851-10.599c0.548-18.63,0.155-37.265,0.26-55.897
		c0.026-4.647,0.001-4.647-4.868-5.386L271.871,156.996z"/>
	<path fill="#FFFFFF" d="M18.429,340.865c-0.052-0.346-0.105-0.688-0.159-1.033c0.764-0.697,0.475-1.619,0.477-2.449
		c0.02-10.384,0.02-20.768,0-31.15c-0.002-0.625,0.276-1.334-0.548-2.137c0,11.657,0,23.057,0,34.455
		c-0.058-8.383-0.118-16.765-0.171-25.146c-0.016-2.42-0.063-4.844-0.005-7.264c0.065-2.697-0.801-4.562-3.809-4.783
		c-1.085-0.08-2.063-0.291-1.232-1.748c1.724,0.246,3.45-0.506,5.079-0.297c3.259,0.418,6.471,0.496,9.708,0.035
		c0.729-0.104,1.128,0.244,1.434,0.816l-0.073,0.072c-1.443-0.141-2.371,0.625-3.085,1.761c-0.124,0.121-0.248,0.239-0.369,0.358
		c-1.427,1.004-1.517,2.572-1.722,4.093c-1.264,0.218-1.003,1.215-1.004,2.034c-0.012,9.759-0.014,19.518-0.002,29.275
		c0.001,0.812-0.273,1.822,1.011,2.02c0.574,2.296,2.959,4.258,1.283,6.998c-0.079,0.127-0.32,1.889,0.986,0.621
		c0.508-0.492,1.245-0.496,1.613,0.035c2.122,3.066,5.399,2.475,8.403,2.754c0.707,0.065,1.152-0.271,1.278-0.99
		c3.559,0.008,5.069-2.678,6.751-5.139c0.094,0.207,0.093,0.825,0.44,0.266c0.221-0.359,0.048-0.961,0.052-1.455l-0.014,0.031
		c1.288-0.498,1.081-1.621,1.081-2.64c0.006-10.545,0.009-21.092-0.003-31.638c-0.001-0.745,0.237-1.579-0.496-2.172
		c-0.259-2.737-1.281-4.838-4.358-5.221c-0.774-0.135-0.95-0.664-0.815-1.33c0.132-0.647,0.621-0.629,1.182-0.645
		c2.211-0.05,4.221,0.198,5.104,2.998c0.158-2.294,1.336-2.915,3.224-2.604c0.62,0.102,1.203-0.076,1.451-0.772
		c0.294-0.003,0.588-0.003,0.883-0.003c0.035,0.956,1.674,0.529,1.442,1.504c-0.288,1.213-1.47,0.621-2.223,0.696
		c-1.711,0.17-2.61,0.952-3.484,2.506c-0.945,1.683-0.26,3.165-0.291,4.7c-0.242,11.908,0.352,23.828-0.539,35.729l0.018-0.031
		c-1.197,0.147-1.416,0.684-0.637,1.61c0.053,0.179-0.008,0.298-0.182,0.364c-1.186-0.003-1.48,0.665-1.288,1.701
		c-1.631,2.108-3.841,3.172-6.428,3.549c-1.546-0.872-3.275-0.619-4.833-0.391c-2.334,0.344-4.48-0.104-6.493-1.01
		c-1.102-0.494-2.087-0.691-3.217-0.57c0,0,0.037,0.035,0.036,0.035c-0.081-0.322-0.056-0.752-0.259-0.947
		c-1.984-1.907-4.073-3.713-3.959-6.861C19.688,340.857,18.962,340.83,18.429,340.865z"/>
	<path fill="#FFFFFF" d="M415.583,330.529c0.198-0.041,0.396-0.084,0.591-0.127c1.879,0.412,3.117,0.009,3.085-2.256
		c-0.028-2.06-0.028-4.107,0.459-6.148c0.305-1.277-0.145-2.262-1.264-3.334c-1.75-1.678-3.895-2.053-5.945-2.829l-0.022-0.022
		c0.812-1.061,2.3,0.008,3.129-0.994c5.479,1.09,9.555,3.67,9.45,9.606c-0.112,6.474-0.025,12.951-0.024,19.429
		c0,0.691-0.017,1.383,0.019,2.072c0.051,0.967,0.135,2.085,1.219,2.348c1.37,0.332,1.63-0.924,2.027-1.857
		c2.102-0.819-0.145-3.212,1.562-4.324c1.01,2.207-0.357,4.428,0.323,6.525c-0.553,2.867-2.546,3.938-5.195,4.035
		c-3.305,0.125-4.852-1.222-6.413-5.617c-1.844,2.312-3.773,4.334-6.532,5.219c-1.043-0.512-2.159-0.502-3.286-0.475
		c-1.036,0.027-2.201,0.181-2.972-0.602c-1.373-1.396-3.308-1.85-4.766-3.07c-2.209-4.959-0.836-9.121,4.131-12.522
		c0.428,0.002,0.98,0.182,1.262-0.021c2.601-1.871,5.541-2.998,8.527-4.039C415.423,331.359,415.582,330.996,415.583,330.529z
		 M415.558,347.561c1.164-0.009,1.14-0.797,1.062-1.619c1.183-2.812,1.722-5.742,1.837-8.793c0.184-4.902,0.234-4.899-4.364-3.119
		c-0.294-0.139-0.659-0.467-0.871-0.387c-5.845,2.182-8.306,8.133-6.323,14.32c0.842,2.63,2.603,2.344,4.461,2.237
		c1.853-0.108,3.997,0.079,4.218-2.675L415.558,347.561z"/>
	<path fill="#FFFFFF" d="M141.617,347.301c0.617,0.575,1.375,0.817,2.191,0.915c-0.625,0.701,1.819,1.22,0.132,1.943
		c-1.025,0.442-5.293-1.271-5.303-2.255c-0.04-3.687-3.294-1.721-4.746-2.856c-4.949-6.702-5.009-13.97-2.482-21.532
		c1.375-0.789,2.081-1.937,1.903-3.556l-0.014,0.021c1.501-0.481,2.308-1.576,2.686-3.049c2.354-1.738,4.852-3.125,7.869-3.264
		c4.657-0.212,8.147,1.838,10.74,5.582c0.989,1.43,1.661,3.023,2.195,4.666c0.808,2.48,2.004,5.438,0.906,7.538
		c-1.229,2.353-4.458,0.741-6.781,0.884c-4.562,0.279-9.148,0.184-13.723,0.242c-1.388,1.285-0.786,2.705-0.268,4.118
		c0.005,0.182,0.011,0.364,0.016,0.546C137.197,341.201,138.161,344.832,141.617,347.301z M150.438,324.236
		c-0.78-2.707-0.993-5.682-3.568-7.541c0.04-0.23,0.158-0.647,0.109-0.668c-4.285-1.797-6.987,1.043-9.879,3.367
		c-0.112,0.092-0.504-0.14-0.559,0.237c-0.036,0.247-0.1,0.642,0.027,0.739c1.341,1.023,0.466,2.559,0.911,3.775
		c-0.051,0.947,0.024,1.924-0.179,2.836c-0.445,2.002,0.278,2.548,2.259,2.451c3.625-0.175,7.265-0.09,10.9-0.111
		c-1.13,1.203-2.807,0.048-4.549,1.084c1.722,0,2.908,0.044,4.09-0.016c0.726-0.037,1.229-0.322,0.484-1.084
		c-0.003-0.129,0.037-0.24,0.122-0.336c1.132-2.076,0.068-4.234,0.523-6.602C150.25,323.053,150.566,323.701,150.438,324.236z
		 M141.579,330.091c-0.626,0.009-1.333-0.472-2.042,0.114C140.234,330.504,140.884,330.423,141.579,330.091z"/>
	<path fill="#FFFFFF" d="M190.247,346.521c0.128-0.041,0.232-0.006,0.313,0.103c0.053,0.435,0.139,0.844,0.671,0.935l-0.065-0.059
		c0.312,0.843,1.03,0.57,1.638,0.598c1.114-0.094,0.943,0.694,0.951,1.371c0.01,0.786-0.566,0.746-1.071,0.752
		c-0.69,0.006-1.379-0.039-2.068-0.061c-0.755-1.764-1.41-0.28-2.1,0.064c-0.328,0.006-0.656,0.012-0.984,0.021
		c-0.234-0.312,0.416-1.371-0.772-0.874c-1.737,0.729-2.351-0.069-2.373-1.748c-0.011-0.844-0.137-1.693-0.298-2.523
		c-0.028-0.144,0.083-0.901-0.752-0.424c-0.978,0.561-1.059,0.371-0.881-0.554c0.174-0.906,1.493-1.662,0.382-2.747
		c0.026-3.869,0.882-7.727,0.376-11.592c-0.509-3.905-0.154-8.086-3.131-11.32c0.437-0.668,0.633-2.066,1.76-0.52
		c0.378,0.52,0.894,1.131,1.45,0.104c0-4.039,0.006-8.075-0.003-12.114c-0.009-3.813-0.413-4.273-4.1-4.765
		c-0.032-0.731,0.211-1.515-0.387-2.146l0.191-0.09l0.137,0.159c2.081,0.025,4.162,0.066,6.244,0.073
		c3.037,0.016,3.677,0.656,3.677,3.754c0,13.102,0.001,26.203,0.001,39.307C189.055,343.771,188.937,345.344,190.247,346.521z"/>
	<path fill="#FFFFFF" d="M347.481,321.816c-1.284,2.343-1.628,4.873-1.599,7.511c0.049,4.305,0.225,8.625-0.055,12.913
		c-0.21,3.232,0.989,5.164,3.869,6.35c1.28,0.526,1.24,0.622-0.219,1.622c-4.459-1.067-9.039-0.155-13.617-0.67
		c0.445-0.931,1.043-1.226,1.856-1.457c1.604-0.455,3.015-1.921,2.888-3.255c-0.396-4.15-0.515-8.29-0.518-12.447
		c-0.001-7.89,0-15.777,0.01-23.67c0-0.775-0.019-1.568,0.118-2.328c0.73-4.092,0.73-4.092-3.084-5.841
		c-0.396-0.183-1.059-0.089-1.159-0.771c3.283-0.244,6.529-0.828,9.824-0.6c0.013,6.858,0.025,13.715,0.038,20.571
		c-0.001,0.763-0.001,1.526-0.001,2.313C346.467,321.957,346.726,320.186,347.481,321.816z"/>
	<path fill="#FFFFFF" d="M483.324,333.46c-6.271-0.002-12.545-0.003-18.815-0.005c-0.189-1.375-0.025-2.173,1.798-2.055
		c3.076,0.199,6.174,0.055,9.263,0.055c-3.16-0.54-6.326-0.408-9.479-0.586c-2.098-0.116-2.913,0.531-2.452,2.605
		c-0.536,1.59,0.098,3.209-0.123,4.81c-0.876,1.155-0.068,2.312-0.047,3.477c0.049,2.357,0.908,4.084,2.715,5.695
		c2.142,1.909,4.084,3.659,7.249,2.808c0.709-0.191,1.676-0.356,2.646,0.602c-2.192,0.799-4.105,0.871-6.193,0.746
		c-2.669-0.156-4.547-2.273-7.141-2.381c-0.455-0.438-0.907-0.877-1.362-1.315c0.185-1.188-0.295-1.835-1.524-1.867l0.022,0.026
		c-0.354-3.078-2.733-5.529-2.704-8.771c0.004-0.441-0.479,0.372-0.81,0.469c-0.026-0.24-0.052-0.479-0.077-0.718
		c0.015-0.739,0.605-1.227,0.59-2.108c-0.066-3.59,0.273-7.156,1.417-10.621c0.361-1.094,1.558-1.934,1.074-3.293l0.002-0.002
		c1.857-0.34,2.398-1.838,2.935-3.34c-0.002,0-0.002,0-0.003,0.002c1.488,0.238,2.402-1.055,3.659-1.379
		c1.671-0.433,3.487-1.555,4.895,0.556c-2.606,0.181-4.352,1.478-5.812,3.688c-1.739,2.633-1.236,5.502-1.62,8.293
		c-0.207,1.502,0.468,1.701,1.738,1.672c3.1-0.076,6.212-0.152,9.304,0.023c1.838,0.105,2.505-0.496,2.287-2.244
		c0.717-1.812,0.694-3.843,0.16-5.486c-0.594-1.838-0.334-4.699-3.439-4.931l-0.024-0.019c-0.206-0.146-0.414-0.293-0.62-0.438
		l0.017,0.023c-0.005-0.705-1.357-0.588-0.916-1.655c1.146,0.108,2.204,0.067,3.406,0.685c1.262,0.644,2.243,1.94,3.823,1.949
		l0.003,0.008c0.239,1.199,0.505,2.383,1.993,2.645c0,0,0.034,0.079,0.034,0.081c0.253,0.63-0.448,1.751,0.926,1.81
		c0.07,0.24,0.141,0.479,0.209,0.721c-0.106,1.562,0.049,3.035,0.645,4.556c1.25,3.194,0.477,4.229-2.824,4.229
		c-4.312,0.002-8.623,0-12.934,0c3.51,0.504,7.026,0.41,10.536,0.541C479.603,333.089,481.537,332.467,483.324,333.46z"/>
	<path fill="#FFFFFF" d="M114.605,303.874c0.065-0.878,0.13-1.759,0.195-2.638c2.392,0.281,1.75,2.097,1.87,3.589
		c0.238,2.972-0.656,6,0.451,8.926c0.02,0.176,0.04,0.351,0.06,0.524c-0.05,0.068-0.137,0.137-0.143,0.211
		c-0.006,0.068,0.058,0.193,0.116,0.211c2.148,0.647,4.372,0.145,6.557,0.388c0.7,0.078,1.497-0.231,1.576,0.696
		c0.075,0.89-0.741,1.082-1.475,1.043c-1.372-0.079-2.758,0.238-4.121-0.274c-0.802-0.303-1.758-0.593-1.971,0.778
		c-0.198,0.209-0.397,0.42-0.597,0.626c-0.139,0.211-0.4,0.421-0.4,0.63c-0.034,9.312-0.058,18.628-0.034,27.939
		c0.003,0.826,0.162,1.861,1.516,1.3c2.322,1.685,4.582,0.888,5.686-2.025c1.03-2.719,0.248-5.653,0.987-8.409
		c2.086-0.158,2.379,1.012,2.307,2.781c-0.1,2.424-0.08,4.842-1.153,7.089c-1.164,2.44-2.981,3.957-5.813,3.972
		c-3.075-0.912-6.186-1.744-8.571-4.099c-0.058-0.181-0.116-0.36-0.174-0.543c0.064-0.058,0.184-0.116,0.184-0.176
		c-0.06-8.633-0.12-17.271-0.213-25.903c-0.007-0.695,0.334-1.48-0.558-2.414c0,8.793,0,17.269,0,25.743
		c-0.051-7.803-0.09-15.604-0.166-23.411c-0.01-1.017,0.271-2.087-0.312-3.054c-0.043-0.716-0.413-0.767-1.03-0.606
		c-1.807,0.472-2.279-0.475-2.078-2.062c2.031-1.289,4.105-2.526,5.417-4.649C114.604,309.123,115.465,306.305,114.605,303.874z"/>
	<path fill="#FFFFFF" d="M248.947,314.84c1.913-1.718,4.161-1.193,6.366-0.96c-0.42,0.588-0.338,0.81,0.447,0.927
		c1.715,0.254,3.17,1.032,4.484,2.229c3.648,3.316,5.254,7.396,5.51,12.302c0.1,1.897-0.295,2.474-1.889,2.062
		c-1.811-0.469-3.531,0.092-5.297,0.059c-3.367-0.066-6.738-0.036-10.108-0.014c-0.791,0.007-1.83-0.396-2.049,0.929l-0.062,0.132
		c0,0-0.145-0.013-0.144-0.013c-0.616,0.098-0.921,0.493-0.875,1.079c0.173,2.229-0.11,4.664,0.727,6.611
		c0.695,1.617,0.398,4.129,2.831,4.801l0.055,0.104c0.03,0.43,0.097,0.829,0.646,0.874c0.51,0.483,1.021,0.967,1.53,1.449
		c-0.303,1.462,0.533,1.752,1.742,1.754c2.451,0.004,4.919,0.257,7.341-0.877c-0.199,0.866-0.929,1.272-0.74,2.03l0.021-0.021
		c-1.114-0.022-2.273-0.255-3.336-0.026c-3.104,0.662-5.665-0.22-8.487-1.604c-1.797-0.884-2.469-3.211-4.717-3.162
		c-0.088-0.159-0.174-0.319-0.262-0.478c-0.127-2.797-2.195-4.877-2.662-7.635c-0.868-5.142-0.407-9.981,1.461-14.851
		c0.667-1.738,2.582-2.788,2.43-4.866l0.121-0.127c0.779,0.525,1.333,0.262,1.979-0.359
		C246.91,316.324,247.96,315.615,248.947,314.84z M255.145,316.281c-0.237-0.417-0.635-0.439-1.047-0.422
		c-2.742,0.32-5.403,1.145-6.526,3.816c-1.061,2.523-1.309,5.338-1.442,8.117c-0.059,1.245,0.228,1.668,1.529,1.624
		c2.854-0.094,5.731-0.229,8.563,0.033c2.617,0.243,3.647-0.593,3.199-3.181c0.904,0.666,0.079,1.84,0.825,2.729
		c0.582-2.034,0.293-4.152-0.144-5.785c-0.477-1.788-0.348-4.453-2.916-5.285C256.507,317.379,255.826,316.83,255.145,316.281z"/>
	<path fill="#FFFFFF" d="M324.87,311.062c0.049,1.107,0.096,2.217,0.143,3.326c0.017,1.014,0.031,2.03,0.047,3.047
		c-0.025,9.553-0.053,19.107-0.079,28.66c0.122,0.803-0.499,2.026,1.119,1.986l-0.036-0.021c1.236,1.568,2.936,1.562,4.141-0.019
		c2.283-2.651,2.062-5.876,2.112-9.054c0.015-0.915-0.489-2.188,1.295-2.182c1.794,0.006,1.256,1.295,1.273,2.194
		c0.074,3.603,0.054,7.197-2.512,10.151c-1.267,0.222-2.504,0.482-3.056,1.871c-0.396,0.062-0.788,0.127-1.184,0.189
		c-2.112-1.566-4.688-1.064-7.037-1.562c-2.417-1.947-2.719-4.724-2.743-7.502c-0.072-7.273-0.12-14.551,0.024-21.821
		c0.047-2.31-0.501-3.33-2.93-2.949c-0.642,0.103-1.671,0.438-1.806-0.815c-0.101-0.941-0.01-1.778,1.24-1.808
		c0.905,0.161,1.725-0.085,2.46-0.581c3.208-2.163,5.042-5.183,5.562-9.008c0.139-1.027-0.29-2.158,0.902-3.07
		c0,4.034,0,8.069,0,12.69C324.848,313.256,324.041,311.968,324.87,311.062z M324.375,318.475c-0.085,0.02-0.171,0.041-0.256,0.06
		c0,8.598,0,17.196,0,25.797c0.085-0.002,0.171-0.002,0.256-0.003C324.375,335.71,324.375,327.093,324.375,318.475z"/>
	<path fill="#FFFFFF" d="M376.014,319.377c4.274-4.795,10.265-6.107,15.719-3.447c-0.321,0.748,1.084,0.918,0.549,1.825
		c-0.938-0.399-1.842-0.858-2.795-1.172c-1.428-0.468-2.952-1.278-4.06,0.589c-4.704,2.031-6.837,5.768-7.232,10.729
		c-0.289,3.629-0.262,7.255-0.104,10.882c-1.371,2.086-0.226,3.646,1.077,5.174l-0.006-0.015c0.053,0.838-0.417,1.92,1.001,2.111
		l0.018,0.043c-0.062,2.699,1.952,3.618,3.976,3.963c1.357,0.232,3.103,0.961,4.362-0.57c2.727-0.426,3.87-2.49,4.825-4.717
		c0.44-1.024,0.731-2.11,1.159-3.141c0.438-1.053,0.112-3.111,1.997-2.564c1.743,0.506,0.691,2.162,0.469,3.326
		c-0.405,2.123-1.089,4.146-2.6,5.779c-2.056,1.193-4.103,2.398-5.854,4.031l-0.089,0.015c-1.886-1.561-3.756-0.501-5.63,0.041
		c-0.35-0.087-0.698-0.173-1.047-0.259c-1.284-1.625-3.131-2.277-4.999-2.896c-3.523-3.228-5.444-7.244-5.891-11.985
		c0.467-1.404,0.437-2.856,0.525-4.313c0.146-2.373,0.101-4.892,1.546-6.902c0.885-1.229,1.123-2.424,1.036-3.813l0.001-0.003
		C375.486,321.812,376.17,320.913,376.014,319.377z"/>
	<path fill="#FFFFFF" d="M90.644,348.128c0.991-0.026,2.029,0.063,2.603-1.024c1.343,0.115,1.562-0.691,1.562-1.793
		c-0.006-8.677,0.017-17.354,0.009-26.028c-0.001-0.817,0.195-1.865-1.19-1.822l0.035,0.041c0.116-1.962-2.112-1.194-3.188-2.646
		c2.584,0,4.713,0,6.844,0c-0.003-0.112-0.007-0.229-0.011-0.34c-0.697-0.218-1.395-0.433-2.092-0.646
		c1.565-0.035,3.13-0.072,4.696-0.107c0.023,10.104,0.034,20.206,0.08,30.309c0.005,1.135-0.421,2.543,1.297,2.959
		c0.154,0.188,0.307,0.371,0.458,0.554c0.607,0.704,1.825,0.595,2.395,2.099c-4.451,0-8.707,0.027-12.962-0.018
		C89.854,349.648,90.788,348.657,90.644,348.128z"/>
	<path fill="#FFFFFF" d="M162.667,339.893c-0.045-0.25-0.089-0.498-0.134-0.748c-0.011-4.139-0.021-8.275-0.031-12.412
		c0.199-3.084,1.842-5.498,3.657-7.828c1.305-0.045,1.618-0.875,1.576-1.989l0.018-0.017c1.14,0.043,2.078-0.201,3.078-0.957
		c2.283-1.729,4.904-1.362,7.962-0.799c-1.238,0.941-2.205,0.571-3.081,0.654c-0.771,0.072-1.632-0.083-1.744,1.053
		c-0.081,0.125-0.187,0.151-0.316,0.077c-1.271-0.229-1.928,0.201-1.702,1.582c-0.307,0.613-0.663,1.206-0.916,1.843
		c-1.416,3.568-1.937,7.293-1.88,11.112c-0.268,0.187-0.755,0.356-0.771,0.563c-0.261,3.158-0.3,6.305,0.976,9.305l-0.051-0.061
		c0.434,1.439-0.334,3.314,1.532,4.236l-0.004-0.013c-0.11,0.853-0.219,1.702-0.33,2.555c1.582,0.039,2.618,1.712,4.292,1.447
		c0.505-0.08,1.135-0.373,1.124,0.45c-0.012,0.873-0.769,0.789-1.362,0.705c-4.892-0.701-8.231-3.328-10.026-7.971
		C164.136,341.654,163.901,340.407,162.667,339.893z"/>
	<path fill="#FFFFFF" d="M76.537,321.341c-0.176-0.624-0.352-1.247-0.528-1.872c0.549-0.801,0.01-1.486-0.344-2.095
		c-0.447-0.771-1.12-1.582-0.304-2.295c0.856-0.748,1.782-0.017,2.608,0.43c3.226,1.735,4.291,4.642,4.307,8.079
		c0.021,4.498,0.006,8.994,0.005,13.492c0,2.768-0.079,5.538,0.023,8.302c0.056,1.509,0.545,0.306,0.852,0.044
		c0.139,2.868,2.526,2.34,4.251,2.811c-0.335,1.018-0.938,1.543-2.11,1.479c-1.63-0.091-3.279-0.132-4.902,0.01
		c-2.541,0.219-3.339-0.996-3.317-3.345c0.058-6.42,0.012-12.841,0.012-19.262c0.001-1.995,0.025-3.99,0.011-5.986
		c-0.002-0.217,0.223-0.812-0.412-0.511C76.556,320.684,76.584,321.092,76.537,321.341z"/>
	<path fill="#FFFFFF" d="M435.446,348.216c0.661-0.946,0.963-1.972,0.957-3.149c-0.031-7.17,0.016-14.338-0.032-21.504
		c-0.024-3.625-0.828-4.664-4.008-5.68c-0.203-1.374,0.209-2.252,1.776-2.04c1.924,0.261,3.973,0.423,5.782,0.453
		c2.355,0.038,1.686,1.11,1.729,2.152c0.111,2.68-0.053,5.386,0.249,8.04c0.658,5.82,0.096,11.619,0.261,17.426
		c-0.232,0.006-0.463,0.009-0.694,0.014c0-4.041,0-8.08,0-12.121c-0.271,0.008-0.542,0.015-0.813,0.021
		c0,4.104,0.09,8.209-0.038,12.311c-0.062,2.066,0.208,3.916,1.616,5.494l-0.091,0.09c-1.074,1.104-2.142,1.885-3.212-0.021
		c-0.243-0.429-0.719-0.606-1.083-0.261C435.814,351.395,436.048,349.002,435.446,348.216z"/>
	<path fill="#FFFFFF" d="M83.156,345.426c-0.307,0.262-0.796,1.465-0.852-0.044c-0.103-2.764-0.023-5.534-0.023-8.302
		c0.001-4.498,0.016-8.994-0.005-13.492c-0.017-3.438-1.081-6.344-4.307-8.079c-0.826-0.444-1.752-1.178-2.608-0.43
		c-0.815,0.713-0.143,1.524,0.304,2.295c0.354,0.608,0.893,1.294,0.344,2.095c-2.498-2.854-5.252-3.027-7.95-0.363
		c-2.585,2.551-3.72,5.834-3.842,9.353c-0.181,5.261-0.106,10.532-0.062,15.799c0.008,0.913,0.401,1.822,0.616,2.731
		c-1.319,0.037-1.253-0.903-1.253-1.784c0.005-6.5-0.137-13.005,0.098-19.497c0.092-2.547-0.287-4.957-0.722-7.395
		c-0.208-1.168,0.655-2.871-1.042-3.373c-1.201-0.356-2.583-0.055-3.872-0.168c-1.037-0.095-1.988,0.652-3.055,0.195
		c-0.368-0.158-0.666,0.168-0.699,0.543c-0.042,0.461,0.278,0.458,0.667,0.488c2.59,0.188,3.466,1.8,3.462,4.184
		c-0.018,7.976-0.07,15.948,0.029,23.922c0.028,2.27-0.936,3.562-2.9,4.371c-0.396,0.162-1.13,0.041-0.98,1.043
		c4.412,0,8.829,0,13.352,0c-0.42-1.088-1.3-1.203-2.116-1.367c-0.667-0.133-1.207-0.289-0.95-1.148
		c1.054,0.339,2.088,0.807,3.17,0.979c0.982,0.154,1.002,0.639,0.997,1.418c-0.007,0.895-0.308,1.205-1.217,1.195
		c-4.511-0.031-9.023-0.009-13.535,0.002c-0.743,0.002-1.4-0.043-1.434-1.039c-0.03-0.865,0.073-1.451,1.179-1.574
		c2.918-0.319,3.761-2.17,3.722-4.924c-0.099-7.026-0.028-14.056-0.021-21.084c0.003-3.371-0.292-4.924-3.952-4.998
		c-0.972-0.019-1.085-0.545-1.1-1.338c-0.018-0.933,0.479-1.227,1.273-1.252c2.949-0.094,5.898-0.149,8.845-0.281
		c1.138-0.051,0.983,0.692,0.988,1.369c0.009,1.514,0.003,3.026,0.003,4.705c1.216-0.475,1.406-1.394,1.889-2.05
		c2.469-3.36,5.731-4.894,9.914-4.431c4.055,0.447,6.958,3.333,7.377,7.798c0.633,6.747,0.14,13.524,0.269,20.287
		C83.179,342.997,83.158,344.21,83.156,345.426z"/>
	<path fill="#FFFFFF" d="M435.446,348.216c0.602,0.786,0.368,3.179,2.398,1.228c0.364-0.348,0.84-0.17,1.083,0.26
		c1.07,1.904,2.138,1.123,3.214,0.02c0.167,1.235,0.911,0.955,2.053,1.063c-0.795-0.916-1.362-1.071-1.964-1.152
		c-1.408-1.577-1.68-3.428-1.616-5.495c0.128-4.101,0.038-8.207,0.038-12.31c0.271-0.009,0.544-0.015,0.813-0.022
		c0,4.041,0,8.082,0,12.121c0.231-0.004,0.462-0.007,0.694-0.013c-0.165-5.808,0.397-11.604-0.261-17.427
		c-0.302-2.653-0.138-5.359-0.249-8.039c-0.044-1.042,0.627-2.114-1.729-2.152c-1.811-0.029-3.858-0.191-5.782-0.453
		c-1.567-0.212-1.979,0.666-1.776,2.04c-1.113-1.799-0.94-2.411,0.812-2.511c2.511-0.141,5.037-0.091,7.542-0.303
		c1.438-0.118,1.57,0.539,1.533,1.66c-0.057,1.707-0.014,3.414-0.014,5.826c1.105-1.953,1.78-3.392,2.676-4.678
		c2.097-3.014,5.209-4.055,7.854-2.764c2.653,1.295,4.016,5.164,2.915,8.398c-0.477,1.402-1.377,2.473-2.949,2.573
		c-1.385,0.09-2.618-0.387-3.196-1.765c-0.774-1.844-0.987-3.719,0.401-5.398c0.414-0.5,1.032-0.826,1.583-1.253
		c-1.934-0.879-3.268-0.497-4.688,1.55c-2.238,3.219-3.029,6.959-3.525,10.76c-0.622,4.748-0.377,9.53-0.367,14.301
		c0.007,3.427,0.936,4.424,4.369,4.828c0.912,0.104,1.919-0.188,1.894,1.387c-0.027,1.681-1.154,1.195-1.991,1.201
		c-4.34,0.033-8.681,0.047-13.02-0.01c-0.736-0.01-1.843,0.597-2.147-0.744c-0.333-1.461,0.814-1.609,1.764-1.957
		C434.371,348.779,434.9,348.477,435.446,348.216z M455.182,321.137c-0.159-0.781,0.354-1.984-0.759-2.781
		c-0.789,1.51-2.589-0.146-3.555,1.185c-0.537,0.741-0.953,1.372-0.89,2.306c0.104,1.547,0.419,3.031,2.234,3.266
		C453.938,325.331,455.164,323.674,455.182,321.137z M443.708,324.111c-0.019-0.432-0.066-0.867-0.649-0.821
		c-0.379,0.028-0.659,0.336-0.577,0.664c0.094,0.37,0.344,0.905,0.625,0.979C443.646,325.072,443.689,324.533,443.708,324.111z
		 M445.96,350.218c-0.085,0.091-0.175,0.187-0.263,0.281c0.131,0.067,0.265,0.194,0.394,0.192c0.189-0.008,0.512-0.022,0.306-0.361
		C446.342,350.24,446.121,350.255,445.96,350.218z"/>
	<path fill="#FFFFFF" d="M252.076,255.409c1.344,1.942,5.568,3.231,8.068,1.788c3.231-1.863,7.063-2.682,9.709-5.643
		c0.946-1.061,1.776-2.034,2.016-3.438l0.005-0.005c2.269-1.741,3.485-4.029,3.542-6.898c0.007-0.395-0.422-0.842,0.025-1.18
		c2.664-2.015,2.519-4.617,1.752-7.467c-0.239-0.891-0.311-1.98,0.431-3.235c0.756,1.58,0.2,3.263,1.435,4.277
		c-1.895,9.103-4.985,17.472-13.69,22.416c-3.315,1.884-6.767,3.125-10.669,2.36c-1.208-0.237-2.537-0.503-3.311-1.397
		c-2.146-2.489-5.007-4.172-7.436-6.289c-2.334-2.035-4.113-4.731-6.924-6.284c-1.916-1.058-2.691-3.087-3.277-5.123
		c-1.336-4.629-1.677-9.391-1.696-14.165c-0.058-14.926,0.003-29.852-0.083-44.778c-0.012-1.847,0.631-2.834,2.224-3.577
		c2.349-1.096,4.622-2.355,6.928-3.543c0.755,1.382-0.501,1.644-1.242,2.037c-2.2,1.164-4.422,2.311-6.711,3.282
		c-0.726,0.307-0.879,0.6-0.879,1.267c0.011,16.478,0.007,32.956,0.445,49.437c0-16.437,0-32.872,0-49.903
		c0.833,1.431,0.566,2.368,0.567,3.25c0.024,16.491-0.044,32.982,0.08,49.472c0.027,3.632,1.425,7.062,2.955,10.349
		c0.35,0.753,1.057,1.356,2.007,1.522c0.398,0.07,1.039,0.239,1.106,0.489c0.887,3.237,4.104,4.315,6.192,6.333
		C247.458,252.52,249.314,254.744,252.076,255.409z"/>
	<path fill="#FFFFFF" d="M364.628,322.562c0.509,6.037,0.062,12.082,0.231,18.121c0.05,1.812,0.168,3.621,0.254,5.428
		c-0.666,0.226-1.418-1.038-2.016,0.102c-0.156,0.299-0.37,0.838-0.245,0.969c0.587,0.616,1.199,0.528,2.022,0.164
		c0.909-0.404,1.5,0.59,2.067,1.182c0.242,0.255-0.008,0.662-0.331,0.849c-2.508,1.442-4.258-0.954-6.416-1.291
		c-0.944-0.147-0.825-0.989-0.826-1.663c-0.009-7.449-0.023-14.9,0.016-22.354c0.007-1.021,0.334-2.036,0.455-3.062
		c0.144-1.196,1.378-1.166,2.021-1.807c0.381-0.38,1.01,0.229,1.087,0.75c0.267,1.786,1.229,3.358,1.178,5.276
		c-0.144,5.455-0.075,10.916-0.049,16.373c0.003,0.562-0.368,1.269,0.55,1.875C364.628,336.395,364.628,329.479,364.628,322.562z"/>
	<path fill="#FFFFFF" d="M364.628,322.562c0,6.916,0,13.832,0,20.912c-0.918-0.606-0.547-1.312-0.55-1.875
		c-0.026-5.457-0.095-10.918,0.049-16.373c0.053-1.918-0.911-3.49-1.178-5.276c-0.077-0.521-0.706-1.13-1.087-0.75
		c-0.645,0.641-1.879,0.61-2.021,1.807c-0.121,1.024-0.448,2.04-0.455,3.062c-0.039,7.451-0.023,14.902-0.016,22.354
		c0.001,0.674-0.118,1.516,0.826,1.663c2.159,0.337,3.909,2.733,6.416,1.291c0.323-0.187,0.573-0.595,0.331-0.849
		c-0.567-0.592-1.158-1.586-2.067-1.183c-0.823,0.365-1.437,0.453-2.022-0.163c-0.125-0.131,0.089-0.67,0.245-0.969
		c0.598-1.141,1.35,0.124,2.016-0.102c0.518,1.51,1.893,1.679,3.141,1.84c1.007,0.131,1.301,0.508,1.277,1.477
		c-0.028,1.127-0.646,1.208-1.532,1.193c-2.514-0.042-5.036-0.123-7.544,0.003c-1.709,0.089-2.189-0.443-2.166-2.181
		c0.104-7.805,0.05-15.612,0.042-23.418c-0.001-1.041,0.046-2.101-0.128-3.115c-0.322-1.912-0.827-3.812-2.994-4.477
		c-2.131-0.647-3.938,0.131-5.438,1.613c-0.847,0.841-1.534,1.841-2.291,2.77c-0.756-1.631-1.015,0.141-1.646,0.244
		c0-0.787,0-1.553,0.001-2.314c1.336-0.73,1.612-2.367,2.768-3.247c1.031-0.785,1.753-2.228,3.439-1.675
		c0.076,0.39,0.104,0.834,0.663,0.794c0.089-0.007,0.243-0.244,0.229-0.355c-0.056-0.396-0.392-0.43-0.711-0.454
		c0.539-0.5,0.92-1.299,1.883-1.014c1.003,3.398,2.169-0.068,3.248,0.076C361.336,313.927,364.863,318.738,364.628,322.562z
		 M358.032,315.908c-0.728,0.15-0.874,0.656-0.628,1.154c0.382,0.775,0.22,2.097,1.424,2.131c0.811,0.021,0.574-0.93,0.521-1.442
		C359.264,316.923,359.077,316.05,358.032,315.908z"/>
	<path fill="#FFFFFF" d="M345.799,299.175c-3.295-0.229-6.541,0.354-9.824,0.599c0.102,0.683,0.764,0.588,1.159,0.771
		c3.814,1.749,3.814,1.749,3.084,5.841c-0.137,0.761-0.118,1.552-0.118,2.328c-0.01,7.892-0.011,15.78-0.01,23.67
		c0.003,4.157,0.121,8.298,0.518,12.447c0.127,1.334-1.284,2.8-2.888,3.255c-0.813,0.232-1.411,0.525-1.856,1.457
		c4.578,0.514,9.159-0.398,13.618,0.67c-4.689,0.889-9.419,0.176-14.128,0.344c-0.866,0.028-0.809-0.69-0.837-1.31
		c-0.029-0.69,0.165-0.987,0.921-1.245c3.948-1.338,3.941-1.381,3.941-5.438c0.001-12.289-0.005-24.578-0.009-36.866
		c-0.003-3.425-0.327-3.847-3.655-4.382c-0.746-0.118-1.37-0.146-1.341-1.131c0.021-0.713-0.038-1.465,0.953-1.502
		c3.37-0.131,6.74-0.246,10.113-0.319C345.858,298.354,345.821,298.835,345.799,299.175z"/>
	<path fill="#FFFFFF" d="M133.892,345.048c1.451,1.136,4.706-0.829,4.746,2.856c0.01,0.984,4.278,2.697,5.303,2.255
		c1.687-0.726-0.758-1.242-0.132-1.943c5.704,1.181,9.685-1.571,11.333-7.844c0.197-0.754,0.275-1.558,0.583-2.259
		c0.287-0.656,0.902-0.211,1.365-0.124c0.49,0.093,0.905,0.168,1.003,0.903c0.481,3.616-3.588,9.979-7.024,10.856
		c0.007-0.453,0.297-1.476-0.098-1.25c-1.541,0.884-3.439,0.239-5.163,1.229c1.993,1.101,3.628-0.082,5.293-0.012
		c-2.673,2.479-5.93,1.969-8.955,1.342C138.619,350.33,135.734,348.3,133.892,345.048z"/>
	<path fill="#FFFFFF" d="M415.614,314.818c-0.829,1.002-2.315-0.066-3.129,0.992c-0.4,0.073-0.801,0.146-1.201,0.219
		c0.11,0.199,0.175,0.507,0.34,0.574c0.756,0.319,0.802-0.264,0.885-0.77c2.052,0.775,4.195,1.15,5.945,2.829
		c1.119,1.071,1.567,2.058,1.264,3.334c-0.487,2.041-0.487,4.09-0.459,6.147c0.032,2.266-1.206,2.67-3.085,2.256
		c1.859-0.51,2.633-1.66,2.311-3.617c-0.151-0.928-0.028-1.898-0.036-2.85c-0.054-6.071-4.121-8.644-9.726-6.119
		c-0.771,0.35-1.463,0.871-2.423,1.453c2.677,1.601,3.548,3.791,2.61,6.571c-0.592,1.755-1.844,2.663-3.74,2.538
		c-1.953-0.129-2.9-1.329-3.224-3.131c-0.896-5,3.014-9.691,8.768-10.471C412.336,314.559,413.984,314.447,415.614,314.818z
		 M402.429,324.266c0.441,1.594,1.325,3.017,2.875,3.129c2.354,0.172,2.542-2.056,2.976-3.681c0.272-1.022-2.399-4.222-3.367-4.056
		C402.179,320.125,403.615,322.823,402.429,324.266z M406.755,317.562c-0.063-0.274-0.242-0.485-0.501-0.32
		c-0.269,0.172-0.593,0.434-0.659,0.713c-0.139,0.577,0.354,0.428,0.638,0.361C406.596,318.23,406.764,317.939,406.755,317.562z"/>
	<path fill="#FFFFFF" d="M219.414,300.107c0.814,0.281,1.616,0.608,2.447,0.838c3.654,1.004,4.314,2.488,3.327,6.129
		c-0.461,1.699-0.155,3.611-0.167,5.429c-0.019,2.942-0.022,5.888-0.01,8.83c0.006,1.265-0.203,1.746-1.802,1.515
		c-4.025-0.584-8.119-0.365-12.17-0.14c-2.641,0.146-3.222-0.093-3.219-2.751c0.003-3.712,0.5-7.396,0.597-11.111
		c0.044-1.656-1.859-2.812-0.545-4.826c0.938-1.437,2.703-4.104,4.204-3.564c2.718,0.977,0.997-1.028,1.316-1.631
		c1.419-0.022,0.768,1.064,0.841,1.684c0.109,0.928-0.682,0.73-1.248,0.86c-3.863,0.881-4.168,1.271-4.176,5.227
		c-0.007,4.41,0.047,8.822-0.029,13.231c-0.025,1.464,0.228,2.182,1.941,2.132c4.147-0.119,8.302-0.088,12.451-0.021
		c1.378,0.021,1.771-0.488,1.755-1.81c-0.058-4.843-0.03-9.685-0.014-14.528c0.01-2.656-1.458-3.884-3.93-4.229
		C220.242,301.268,219.014,301.667,219.414,300.107z"/>
	<path fill="#FFFFFF" d="M162.667,339.893c1.234,0.516,1.468,1.764,1.867,2.791c1.795,4.643,5.134,7.27,10.026,7.971
		c0.593,0.085,1.35,0.169,1.362-0.705c0.011-0.823-0.619-0.53-1.124-0.45c-1.674,0.265-2.71-1.408-4.292-1.446
		c0.111-0.853,0.22-1.703,0.33-2.556c1.254,1.881,2.499,3.81,5.204,3.461c2.885-0.375,4.472-2.317,5.575-4.791
		c0.413-0.928,0.816-1.858,1.224-2.788c1.11,1.083-0.208,1.84-0.383,2.745c-0.177,0.925-0.097,1.113,0.881,0.554
		c0.835-0.479,0.724,0.28,0.752,0.424c0.161,0.83,0.287,1.681,0.298,2.523c0.022,1.68,0.636,2.477,2.373,1.748
		c1.188-0.497,0.538,0.562,0.772,0.874c-0.333,0.082-0.667,0.174-1.002,0.25c-2.16,0.5-3.333-0.069-2.877-2.56
		c0.083-0.447,0.178-1.026-0.292-1.424c-5.08,5.023-8.695,6.137-13.021,3.961c-2.903-1.459-4.935-3.791-6.304-6.683
		C163.449,342.553,163.116,341.195,162.667,339.893z"/>
	<path fill="#FFFFFF" d="M190.247,346.521c-1.31-1.179-1.191-2.752-1.191-4.295c0-13.103-0.001-26.203-0.001-39.306
		c0-3.097-0.64-3.739-3.677-3.754c-2.082-0.007-4.163-0.048-6.244-0.073c3.246-1.052,6.621-0.443,9.927-0.701
		c1.265-0.101,0.68,1.366,0.682,2.098c0.041,12.492,0.048,24.986,0.013,37.48C189.747,340.837,189.834,343.686,190.247,346.521z"/>
	<path fill="#FFFFFF" d="M385.427,317.172c1.106-1.867,2.632-1.057,4.06-0.589c0.953,0.312,1.856,0.772,2.795,1.172
		c0.535-0.907-0.87-1.078-0.549-1.825c4.09,2.402,5.978,7.172,4.549,11.521c-0.583,1.773-1.772,2.713-3.694,2.551
		c-1.762-0.15-2.754-1.102-3.146-2.854c-0.861-3.834,0.142-5.694,3.603-6.444C391.616,317.684,389.504,316.703,385.427,317.172z
		 M395.812,325.518c0.02-1.733-2.094-3.619-3.868-3.42c-2.271,0.258-1.155,1.783-1.014,2.952c0.039,0.318-0.114,0.669-0.205,0.997
		c-0.412,1.535,0.625,2.547,1.614,3.161c1.07,0.663,1.803-0.586,2.572-1.242C395.723,327.273,395.913,326.391,395.812,325.518z"/>
	<path fill="#FFFFFF" d="M46.909,344.01c0.891-11.898,0.297-23.818,0.539-35.728c0.031-1.536-0.654-3.019,0.291-4.701
		c0.874-1.554,1.772-2.336,3.484-2.506c0.753-0.075,1.935,0.517,2.223-0.696c0.232-0.975-1.408-0.548-1.442-1.504
		c0.908-0.189,1.773-0.271,1.901,0.997c0.104,1.032-0.7,1.233-1.426,1.521c-3.948,1.57-4.373,2.152-4.381,6.506
		c-0.018,9.346,0.034,18.688-0.003,28.033C48.082,338.665,48.318,341.468,46.909,344.01z"/>
	<path fill="#FFFFFF" d="M462.743,349.23c2.594,0.105,4.472,2.224,7.141,2.381c2.088,0.123,4.001,0.052,6.193-0.747
		c-0.97-0.958-1.937-0.794-2.646-0.603c-3.165,0.854-5.107-0.896-7.249-2.807c-1.807-1.611-2.666-3.338-2.715-5.695
		c-0.021-1.164-0.829-2.32,0.047-3.477c0.389,1.49,0.705,3.004,1.173,4.471c2.432,7.607,9.236,9.154,14.418,3.754
		c0.311,0.825,0.035,2.049,1.446,2.12C476.128,353.811,468.129,354.08,462.743,349.23z"/>
	<path fill="#FFFFFF" d="M246.411,332.37c0.22-1.323,1.259-0.922,2.049-0.929c3.37-0.022,6.741-0.053,10.108,0.014
		c1.766,0.033,3.486-0.527,5.297-0.059c1.594,0.412,1.986-0.164,1.889-2.062c-0.256-4.906-1.861-8.983-5.51-12.302
		c-1.314-1.195-2.77-1.975-4.484-2.229c-0.785-0.116-0.867-0.338-0.447-0.926c6.636,1.183,9.25,6.06,10.863,11.84
		c0.184,0.661,0.223,1.362,0.33,2.044c-0.445,0.576-0.502,1.121,0.119,1.616c0.676,2.278,0.129,3.188-2.531,3.086
		C258.208,332.24,252.307,332.38,246.411,332.37z"/>
	<path fill="#FFFFFF" d="M37.52,349.195c-0.126,0.719-0.572,1.057-1.278,0.99c-3.004-0.279-6.281,0.312-8.403-2.754
		c-0.369-0.531-1.105-0.527-1.613-0.035c-1.306,1.268-1.064-0.494-0.986-0.621c1.676-2.74-0.709-4.702-1.283-6.998l-0.008,0.01
		c1.321-0.162,1.021-1.191,1.022-1.998c0.015-9.782,0.015-19.562-0.001-29.342c-0.001-0.801,0.314-1.84-1.016-1.997l-0.001-0.002
		c0.205-1.521,0.295-3.089,1.722-4.093c-0.056,12.449-0.175,24.896-0.131,37.344c0.018,5.013,2.189,7.646,7.23,9.511
		c1.41,0.724,2.823,0.722,4.238,0.019C37.18,349.217,37.35,349.207,37.52,349.195z"/>
	<path fill="#FFFFFF" d="M95.771,298.287c0.769-0.322,1.537-0.309,2.303,0.009c0.021,0.153,0.111,0.249,0.267,0.281
		c0.15,0.083,0.19,0.2,0.118,0.354c2.541,4.521,1.984,6.342-2.612,8.531h0.003c-0.109-0.773-0.424-1.189-1.248-0.715l-0.102-0.086
		c0.309-0.66,0.455-1.422,0.072-2.006c-1.519-2.315-0.836-4.047,1.261-5.506C96.231,298.878,95.973,298.564,95.771,298.287z"/>
	<path fill="#FFFFFF" d="M274.307,318.907c0.245,0.062,0.492,0.128,0.738,0.19c-0.07,0.584,0.396,0.918,0.615,1.373
		c0.925,1.92,0.355,4.709-1.064,5.615c-1.236,0.788-2.537-0.189-3.785,0.166l0.006,0.009c-0.002-0.721,0.199-1.462-0.207-2.144
		c-0.225,0.212-0.445,0.424-0.67,0.636c-0.053-0.521-0.106-1.041-0.162-1.562c-0.073-1.366,1.634-2.383,0.76-3.902l0.031-0.104
		C271.854,319.62,272.948,317.505,274.307,318.907z"/>
	<path fill="#FFFFFF" d="M101.289,347.027c-1.718-0.416-1.292-1.824-1.297-2.959c-0.045-10.103-0.057-20.205-0.08-30.309
		c1.501,0.307,0.766,1.506,0.772,2.252c0.058,8.459,0.054,16.922,0.022,25.383C100.699,343.303,100.789,345.184,101.289,347.027z"/>
	<path fill="#FFFFFF" d="M259.461,350.314c-0.188-0.758,0.541-1.162,0.74-2.029c-2.422,1.134-4.891,0.881-7.34,0.877
		c-1.211-0.002-2.045-0.292-1.743-1.754c5.812,3.27,11.308-0.885,12.397-5.82c0.145-0.656,0.344-1.318,0.633-1.924
		c0.365-0.764-0.088-2.268,1.752-1.766c1.748,0.475,0.832,1.506,0.729,2.404c-0.646,0.859-1.733-1.068-1.854,0.024
		c-0.188,1.655-1.596,2.928-1.24,4.664l0.006-0.005c-1.57,0.177-0.757,1.914-1.654,2.531c-0.057,0.106-0.113,0.215-0.172,0.321
		c0.109-0.056,0.219-0.11,0.328-0.167c0.238,0.139,0.475,0.276,0.712,0.413C261.9,349.189,260.802,349.932,259.461,350.314z"/>
	<path fill="#FFFFFF" d="M303.371,298.614c5.498-0.074,5.497-0.074,5.497,5.389c-0.003,12.933-0.006,25.863-0.009,38.795
		c0,0.856,0,1.712,0,3.109c-0.754-1.283-0.521-2.164-0.522-2.981c-0.017-13.713-0.047-27.426,0.022-41.138
		c0.011-1.963-0.403-2.91-2.576-2.642c-1.452,0.181-2.95,0.094-4.419-0.004c-1.517-0.104-2.716,0.277-3.476,1.666
		c0,0.004-0.106-0.097-0.106-0.097s0.047-0.138,0.048-0.134c0.021-0.438,0.046-0.879,0.066-1.321
		C299.593,297.95,301.546,298.835,303.371,298.614z"/>
	<path fill="#FFFFFF" d="M76.537,321.341c0.047-0.249,0.019-0.657,0.152-0.721c0.634-0.302,0.41,0.294,0.412,0.511
		c0.014,1.996-0.01,3.991-0.011,5.986c0,6.421,0.045,12.842-0.012,19.262c-0.022,2.35,0.777,3.562,3.317,3.344
		c1.623-0.141,3.272-0.1,4.902-0.009c1.172,0.065,1.775-0.461,2.11-1.479c0.636,2.297,0.628,2.334-1.515,2.359
		c-2.339,0.029-4.685-0.105-7.016,0.045c-1.782,0.112-2.397-0.391-2.378-2.27C76.589,339.361,76.539,330.352,76.537,321.341z"/>
	<path fill="#FFFFFF" d="M302.078,302.798c1.363,0.17,1.277,1.288,1.247,2.162c-0.45,13.131-0.036,26.265-0.188,39.396
		c-0.037,3.168-1.544,4.41-4.66,3.813c0.049-0.067,0.147-0.147,0.137-0.205c-0.028-0.137-0.107-0.262-0.168-0.394
		c0,0-0.035,0.037-0.032,0.037c2.61,0.369,4.133-0.615,4.142-2.989c0.053-13.275,0.033-26.552,0.008-39.825
		C302.559,304.127,302.246,303.463,302.078,302.798z"/>
	<path fill="#FFFFFF" d="M243.909,317.674c0.151,2.078-1.764,3.128-2.43,4.866c-1.868,4.868-2.329,9.709-1.461,14.851
		c0.466,2.758,2.534,4.838,2.662,7.635c-4.679-5.637-4.591-12.129-3.362-18.818C239.928,322.87,241.319,319.947,243.909,317.674z"/>
	<path fill="#FFFFFF" d="M324.87,311.062c-0.829,0.905-0.022,2.193-1.062,3.726c0-4.621,0-8.656,0-12.69
		c-1.192,0.912-0.765,2.043-0.902,3.07c-0.52,3.825-2.354,6.846-5.562,9.008c-0.735,0.496-1.555,0.742-2.46,0.581
		c5.17-2.475,7.134-6.894,7.428-12.312c0.054-0.952-0.093-1.875,1.407-1.844c1.583,0.03,1.244,1.064,1.243,1.953
		c-0.003,1.288-0.06,2.576-0.094,3.865c-0.657,1.419-0.613,2.838,0,4.257C324.966,310.803,324.967,310.934,324.87,311.062z"/>
	<path fill="#FFFFFF" d="M173.968,316.85c0.112-1.136,0.973-0.979,1.744-1.053c0.876-0.083,1.843,0.287,3.081-0.654
		c-3.059-0.563-5.679-0.931-7.962,0.799c-1,0.756-1.938,1-3.078,0.957c4.974-4.717,9.929-4.352,15.542,1.148
		c-0.557,1.028-1.073,0.417-1.451-0.102c-1.127-1.549-1.324-0.149-1.76,0.519C178.351,316.77,176.362,316.042,173.968,316.85z"/>
	<path fill="#FFFFFF" d="M198.938,347.65c0.035,1.172-1.18,0.748-1.72,1.328c0.162,0.187,0.296,0.492,0.458,0.506
		c4.663,0.433,9.335,0.164,14.003,0.143c0.828-0.003,1.745-0.335,1.812-1.48c1.415,0.095,0.728,1.213,0.697,1.768
		c-0.056,0.999-1.02,0.671-1.646,0.674c-4.906,0.02-9.814,0.012-14.721,0.003c-0.829-0.001-1.755,0.236-1.88-1.11
		c-0.112-1.207,0.5-1.472,1.496-1.524C197.941,347.93,198.438,347.757,198.938,347.65z"/>
	<path fill="#FFFFFF" d="M90.644,348.128c0.144,0.529-0.79,1.521,0.535,1.534c4.255,0.045,8.511,0.018,12.962,0.018
		c-0.57-1.504-1.788-1.395-2.395-2.099c1.436,0.278,3.774-0.363,3.751,1.774c-0.028,2.578-2.431,1.076-3.658,1.158
		c-3.614,0.237-7.253,0.088-10.884,0.088c-0.667,0-1.511,0.222-1.467-0.879C89.517,348.979,89.048,347.773,90.644,348.128z"/>
	<path fill="#FFFFFF" d="M29.201,300.164c-0.306-0.572-0.706-0.921-1.434-0.816c-3.236,0.461-6.448,0.383-9.708-0.035
		c-1.629-0.209-3.355,0.543-5.079,0.297c-0.137-1.201,0.754-0.877,1.361-0.879c4.903-0.008,9.806,0.008,14.71,0.008
		c0.86,0,1.713-0.189,1.762,1.185c0.043,1.213-0.519,1.39-1.524,1.468c-1.092,0.084-2.166,0.396-3.248,0.609
		c0.716-1.137,1.643-1.902,3.087-1.762c0.087,0.062,0.172,0.127,0.258,0.191C29.325,300.34,29.263,300.253,29.201,300.164z"/>
	<path fill="#FFFFFF" d="M480.553,348.629c-1.411-0.07-1.137-1.295-1.446-2.12c0.982-1.643,1.763-3.378,2.338-5.204
		c1.53,0.949,0.314-1.796,1.674-1.147c0.436,1.155,0.078,2.405,0.162,3.63C482.83,345.658,481.977,347.305,480.553,348.629z"/>
	<path fill="#FFFFFF" d="M479.158,318.43c-1.58-0.009-2.562-1.307-3.823-1.949c-1.202-0.615-2.261-0.576-3.406-0.685
		c-0.441,1.067,0.911,0.95,0.916,1.655c-0.663-0.194-1.326-0.389-1.989-0.584c-1.405-2.109-3.223-0.987-4.894-0.557
		c-1.257,0.325-2.171,1.619-3.659,1.381C467.29,313.221,474.395,313.531,479.158,318.43z"/>
	<path fill="#FFFFFF" d="M45.332,306.45c0.733,0.593,0.495,1.427,0.496,2.172c0.013,10.546,0.01,21.093,0.003,31.638
		c0,1.018,0.207,2.141-1.081,2.639c0.92-4.963,0.389-9.977,0.465-14.967C45.323,320.773,45.299,313.609,45.332,306.45z"/>
	<path fill="#FFFFFF" d="M242.941,345.502c2.248-0.049,2.92,2.278,4.717,3.162c2.823,1.386,5.383,2.268,8.486,1.604
		c1.062-0.228,2.223,0.006,3.336,0.027C253.582,352.971,247.374,351.171,242.941,345.502z"/>
	<path fill="#FFFFFF" d="M271.757,335.486c0.714,1.507,2.478,3.275-1.202,3.375c-1.051,0.029-1.812,1.14-1.811,2.461
		c0.002,2.316-0.293,4.688,1.593,6.539c0.397,0.39,0.581,0.847,0.381,1.404C266.389,345.698,266.846,339.652,271.757,335.486z"/>
	<path fill="#FFFFFF" d="M18.198,338.551c0-11.398,0-22.798,0-34.455c0.824,0.803,0.546,1.512,0.548,2.137
		c0.02,10.384,0.02,20.768,0,31.15c-0.001,0.83,0.288,1.752-0.477,2.449C18.247,339.402,18.222,338.979,18.198,338.551z"/>
	<path fill="#FFFFFF" d="M325.06,317.436c-0.016-1.017-0.03-2.033-0.047-3.047c2.408,0.03,4.816,0.103,7.225,0.074
		c1.094-0.013,1.738,0.104,1.755,1.486c0.016,1.375-0.592,1.521-1.704,1.494C329.879,317.389,327.47,317.432,325.06,317.436z
		 M329.616,316.809c0,0.004,0,0.006,0,0.01c0.6,0,1.209,0.062,1.796-0.018c0.659-0.09,1.623-0.211,1.554-0.988
		c-0.074-0.877-1.064-0.979-1.832-0.955c-0.999,0.031-1.946,0.709-3.003,0.191c-0.614-0.3-1.432-0.098-1.539,0.428
		c-0.136,0.649,0.606,1.14,1.234,1.303C328.387,316.924,329.017,316.809,329.616,316.809z"/>
	<path fill="#FFFFFF" d="M212.969,348.131c-3.426,0.625-4.462-0.329-4.687-3.672c-0.379-5.639,0.662-11.305-0.41-16.923
		c-0.172-0.897,0.25-1.673,0.85-2.339c0.028,5.783,0.061,11.564,0.083,17.347C208.821,346.682,209.004,346.934,212.969,348.131z"/>
	<path fill="#FFFFFF" d="M274.307,318.907c-1.357-1.402-2.453,0.713-3.738,0.278c0.94-1.914,2.259-3.434,4.361-4.113
		c1.336,1.186,2.83,0.751,4.329,0.457c0.939-0.184,2.043-0.76,2.501,0.742C278.945,316.219,276.036,315.893,274.307,318.907z"/>
	<path fill="#FFFFFF" d="M297.943,349.68c4.361,0.004,8.724,0.01,13.087,0.01c1.13,0.002,2.323,0.104,2.467-1.508
		c0.782,1.084,1.238,2.305-0.671,2.361c-4.671,0.145-9.346,0.05-14.02,0.061C298.167,350.604,297.836,350.355,297.943,349.68z"/>
	<path fill="#FFFFFF" d="M231.448,305.588c0.104,0.939,0.296,1.879,0.299,2.819c0.021,9.616,0.014,19.231,0.006,28.847
		c0,0.671-0.074,1.344-0.412,2c0-11.236,0-22.475-0.002-33.713C231.339,305.538,231.448,305.588,231.448,305.588z"/>
	<path fill="#FFFFFF" d="M237.384,299.246c-1.859,1.064-3.875,0.218-5.794,0.327c-4.024,0.229-8.103,0.384-12.131-0.29
		c0.081-0.389,0.333-0.557,0.718-0.557c5.496,0.004,10.993,0.008,16.491,0.012C237.032,298.738,237.332,298.811,237.384,299.246z"/>
	<path fill="#FFFFFF" d="M212.487,298.859c-3.923,0.252-7.846,0.636-11.771,0.673c-1.176,0.011-2.269-0.007-3.43,0.337
		c0.552,0.918,1.841,0.818,2.146,1.863c-0.675-0.123-1.344-0.301-2.024-0.351c-0.88-0.063-1.701,0.035-1.632-1.323
		c0.064-1.259,0.772-1.354,1.716-1.343C202.49,298.771,207.488,298.812,212.487,298.859z"/>
	<path fill="#FFFFFF" d="M483.324,333.46c-1.787-0.993-3.723-0.371-5.578-0.442c-3.51-0.129-7.026-0.037-10.536-0.541
		c4.31,0,8.621,0.002,12.933,0c3.302,0,4.075-1.033,2.825-4.229c-0.596-1.521-0.751-2.992-0.645-4.557
		c0.985,2.773,1.799,5.582,1.79,8.561C484.111,332.777,484.368,333.568,483.324,333.46z"/>
	<path fill="#FFFFFF" d="M118.204,347.823c-1.354,0.562-1.513-0.474-1.516-1.3c-0.024-9.312,0-18.627,0.034-27.939
		c0-0.209,0.261-0.419,0.4-0.63c0.034,8.377,0.08,16.755,0.093,25.131C117.218,344.745,117.277,346.366,118.204,347.823z"/>
	<path fill="#FFFFFF" d="M93.628,317.459c1.385-0.043,1.189,1.005,1.19,1.822c0.008,8.676-0.015,17.353-0.009,26.027
		c0,1.103-0.219,1.909-1.562,1.795c0.764-1.178,1.009-2.444,0.998-3.86c-0.051-7.419-0.037-14.839-0.009-22.259
		C94.241,319.758,94.114,318.584,93.628,317.459z"/>
	<path fill="#FFFFFF" d="M459.369,321.031c0.481,1.359-0.713,2.199-1.074,3.292c-1.144,3.465-1.484,7.03-1.417,10.622
		c0.016,0.882-0.575,1.367-0.59,2.107C455.448,331.354,456.114,325.943,459.369,321.031z"/>
	<path fill="#FFFFFF" d="M256.744,231.987c0.994,0.933,0.85,2.371,0.307,3.059c-1.884,2.394-1.193,6.082-4.32,7.935
		c-0.799,0.474-1.365,0.952-2.292,0.869C253.717,240.521,255.299,236.29,256.744,231.987z"/>
	<path fill="#FFFFFF" d="M51.119,298.878c-0.249,0.697-0.832,0.874-1.451,0.772c-1.888-0.312-3.066,0.31-3.224,2.604
		c-0.883-2.8-2.893-3.048-5.104-2.998c-0.561,0.016-1.05-0.004-1.182,0.645c-0.134,0.666,0.041,1.195,0.815,1.33
		c-1.471,0.338-1.218-0.683-1.264-1.545c-0.058-1.094,0.667-0.979,1.351-0.969C44.413,298.77,47.766,298.823,51.119,298.878z"/>
	<path fill="#FFFFFF" d="M259.374,164.778c-2.159,0.287-2.097,1.435-1.14,2.929c-1.379-0.343-2.76-0.682-4.139-1.022
		c3.27-1.893,6.051-4.636,10.006-5.001l-0.041-0.058c-1.26,0.153-1.401,1.125-1.541,2.101c-1.182-0.035-2.343-0.012-3.152,1.056
		L259.374,164.778z"/>
	<path fill="#FFFFFF" d="M373.967,322.087c0.087,1.39-0.151,2.586-1.036,3.813c-1.445,2.012-1.398,4.529-1.546,6.901
		c-0.09,1.457-0.06,2.91-0.525,4.314C369.864,331.688,370.779,326.652,373.967,322.087z"/>
	<path fill="#FFFFFF" d="M117.72,317.328c0.213-1.371,1.169-1.081,1.971-0.778c1.363,0.515,2.75,0.195,4.121,0.274
		c0.734,0.039,1.549-0.153,1.475-1.043c-0.079-0.93-0.875-0.618-1.576-0.696c-2.185-0.243-4.409,0.261-6.557-0.388
		c-0.058-0.018-0.123-0.143-0.116-0.211c0.006-0.074,0.093-0.143,0.143-0.211c2.486,0.461,4.995,0.175,7.49,0.175
		c1.266,0,1.586,0.435,1.628,1.647c0.047,1.329-0.619,1.361-1.583,1.336C122.384,317.374,120.052,317.361,117.72,317.328z"/>
	<path fill="#FFFFFF" d="M270.73,349.259c1.422-0.495,2.36,0.776,3.633,1.003c3.727,0.657,7.033-0.186,10.186-2.076
		C281.182,352.2,274.498,352.721,270.73,349.259z"/>
	<path fill="#FFFFFF" d="M110.886,343.839c0-8.476,0-16.95,0-25.743c0.892,0.934,0.55,1.719,0.558,2.414
		c0.093,8.635,0.153,17.271,0.213,25.903c0,0.06-0.12,0.118-0.184,0.176C110.941,345.744,110.77,344.822,110.886,343.839z"/>
	<path fill="#FFFFFF" d="M287.555,348.654c1.686,0.744,3.176,2.037,5.262,1.589c1.229-0.265,2.533,0.368,3.302-1.575
		c0.504-1.271,1.457-0.07,1.823,0.85c-0.976-0.701-1.109,0.428-1.551,0.767C293.577,352.443,289.26,351.67,287.555,348.654z"/>
	<path fill="#FFFFFF" d="M23.849,349.232c1.13-0.121,2.115,0.076,3.217,0.57c2.013,0.904,4.159,1.354,6.493,1.01
		c1.558-0.229,3.287-0.481,4.833,0.391C33.309,352.279,28.376,352.25,23.849,349.232z"/>
	<path fill="#FFFFFF" d="M401.026,348.105c1.458,1.223,3.393,1.677,4.766,3.071c0.77,0.781,1.935,0.63,2.972,0.603
		c1.127-0.028,2.243-0.038,3.286,0.474C406.849,353.386,403.039,351.951,401.026,348.105z"/>
	<path fill="#FFFFFF" d="M248.887,344.98c-2.433-0.672-2.136-3.184-2.831-4.801c-0.837-1.947-0.554-4.384-0.727-6.611
		c-0.046-0.586,0.259-0.981,0.875-1.079C246.062,336.877,246.815,341.07,248.887,344.98z"/>
	<path fill="#FFFFFF" d="M95.216,313.868c0.697,0.215,1.395,0.43,2.092,0.646c0.003,0.112,0.007,0.229,0.011,0.34
		c-2.13,0-4.259,0-6.844,0c1.076,1.451,3.304,0.685,3.188,2.646c-0.961-0.605-2.034-0.9-3.142-0.93
		c-0.999-0.021-1.033-0.586-1.05-1.336c-0.019-0.836,0.239-1.264,1.147-1.264C92.151,313.975,93.683,313.908,95.216,313.868z"/>
	<path fill="#FFFFFF" d="M95.846,307.464c4.596-2.19,5.153-4.01,2.612-8.532c2.026,0.889,2.877,3.1,2.06,5.791
		C99.828,306.993,98.37,308.198,95.846,307.464z"/>
	<path fill="#FFFFFF" d="M270.811,326.253c1.248-0.354,2.549,0.622,3.785-0.166c1.422-0.905,1.989-3.696,1.064-5.616
		c-0.221-0.455-0.686-0.787-0.615-1.373c2.234,1.644,2.739,4.844,1.09,6.92C274.792,327.707,272.811,327.795,270.811,326.253z"/>
	<path fill="#FFFFFF" d="M430.19,348.617c-0.682-2.1,0.687-4.319-0.323-6.526c-1.707,1.112,0.538,3.505-1.562,4.324
		c0.104-1.192,0.261-2.38,0.289-3.573c0.025-0.955,0.112-1.619,1.361-1.635c1.339-0.02,1.316,0.716,1.209,1.643
		C430.934,344.788,431.097,346.793,430.19,348.617z"/>
	<path fill="#FFFFFF" d="M250.6,234.695c0.512-4.372,1.596-8.673,1.498-13.42c0.828,1.061,0.164,2.186,0.918,2.899
		c-0.121,3.126-0.522,6.209-1.389,9.224C251.461,233.982,251.4,234.625,250.6,234.695z"/>
	<path fill="#FFFFFF" d="M283.243,329.531c-0.033,0.324-0.004,0.912-0.104,0.936c-2.938,0.684-5.541,2.051-7.992,3.754
		c-0.689,0.478-1.479,0.401-2.258,0.348C275.975,332.134,279.568,330.753,283.243,329.531z"/>
	<path fill="#FFFFFF" d="M141.617,347.301c-3.456-2.469-4.42-6.1-4.679-10.056c0.827,0.632,0.974,1.569,1.121,2.507
		C138.509,342.615,140.165,344.91,141.617,347.301z"/>
	<path fill="#FFFFFF" d="M415.583,330.529c-0.001,0.467-0.16,0.83-0.637,0.996c-2.986,1.039-5.929,2.168-8.527,4.037
		c-0.28,0.203-0.834,0.022-1.262,0.021C408.24,333.087,411.886,331.757,415.583,330.529z"/>
	<path fill="#FFFFFF" d="M95.771,298.287c0.202,0.277,0.46,0.591,0.063,0.865c-2.097,1.457-2.78,3.188-1.261,5.505
		c0.383,0.584,0.237,1.346-0.072,2.006C92.035,303.657,92.571,300.122,95.771,298.287z"/>
	<path fill="#FFFFFF" d="M111.646,347.132c2.385,2.354,5.496,3.187,8.571,4.099C115.59,351.807,113.441,350.777,111.646,347.132z"/>
	<path fill="#FFFFFF" d="M162.503,326.732c0.01,4.136,0.02,8.272,0.031,12.41C161.476,335.009,161.412,330.872,162.503,326.732z"/>
	<path fill="#FFFFFF" d="M18.429,340.865c0.534-0.035,1.259-0.008,1.238,0.594c-0.114,3.148,1.975,4.954,3.959,6.861
		c0.203,0.195,0.178,0.625,0.259,0.947C20.545,347.455,19.087,344.419,18.429,340.865z"/>
	<path fill="#FFFFFF" d="M321.098,349.652c2.351,0.498,4.925-0.004,7.037,1.562C325.577,351.646,323.13,351.588,321.098,349.652z"/>
	<path fill="#FFFFFF" d="M456.365,337.771c0.33-0.097,0.812-0.91,0.81-0.469c-0.03,3.241,2.351,5.692,2.704,8.771
		C457.834,343.677,456.909,340.802,456.365,337.771z"/>
	<path fill="#FFFFFF" d="M388.517,349.488c-1.261,1.529-3.005,0.803-4.362,0.57c-2.022-0.346-4.037-1.265-3.976-3.965
		C382.19,349.111,385,350.168,388.517,349.488z"/>
	<path fill="#FFFFFF" d="M263.535,344.992c-0.355-1.736,1.053-3.008,1.24-4.664c0.121-1.094,1.209,0.835,1.854-0.023
		c0.149,1.42-1.106,2.389-1.194,3.73C264.562,343.879,264.436,345.201,263.535,344.992z"/>
	<path fill="#FFFFFF" d="M463.639,333.477c-0.461-2.076,0.354-2.724,2.452-2.606c3.151,0.178,6.317,0.046,9.479,0.586
		c-3.089,0-6.187,0.146-9.263-0.056c-1.823-0.117-1.987,0.681-1.798,2.056C464.219,333.462,463.929,333.471,463.639,333.477z"/>
	<path fill="#FFFFFF" d="M209.343,324.648c0.104-0.222,0.209-0.637,0.312-0.637c4.882,0.021,9.764,0.071,14.645,0.141
		c0.262,0.003,0.415,0.229,0.276,0.529C219.498,324.671,214.42,324.66,209.343,324.648z"/>
	<path fill="#FFFFFF" d="M117.121,313.751c-1.107-2.926-0.213-5.954-0.451-8.926c-0.119-1.492,0.522-3.308-1.87-3.589
		c2.134-1.016,2.393-0.928,2.403,1.104C117.222,306.146,117.153,309.948,117.121,313.751z"/>
	<path fill="#FFFFFF" d="M246.93,241.956c0.797-2.672,2.01-5.133,3.738-7.331C250.572,237.655,249.194,240.032,246.93,241.956z"/>
	<path fill="#FFFFFF" d="M285.729,318.984c0.899-0.575,0.67,0.215,0.771,0.627c0.702,2.951,0.353,5.853-0.422,8.732
		C286.288,325.212,286.342,322.085,285.729,318.984z"/>
	<path fill="#FFFFFF" d="M483.279,343.786c-0.084-1.224,0.272-2.474-0.162-3.63c-1.358-0.647-0.144,2.098-1.674,1.146
		c0.104-0.595,0.149-1.203,0.321-1.773c0.268-0.889,0.97-0.434,1.515-0.4c0.743,0.044,1.117,0.432,0.926,1.188
		C483.911,341.475,483.938,342.725,483.279,343.786z"/>
	<path fill="#FFFFFF" d="M114.605,303.874c0.86,2.431,0,5.249-1.888,6.181C113.641,308.083,114.079,305.965,114.605,303.874z"/>
	<path fill="#FFFFFF" d="M388.514,352.203c1.752-1.633,3.799-2.838,5.854-4.031C393.044,350.43,391.021,351.669,388.514,352.203z"/>
	<path fill="#FFFFFF" d="M382.795,352.259c1.874-0.542,3.744-1.602,5.63-0.041C386.554,352.7,384.679,352.954,382.795,352.259z"/>
	<path fill="#FFFFFF" d="M107.3,314.705c-0.201,1.588,0.271,2.533,2.078,2.062c0.618-0.16,0.987-0.109,1.03,0.605
		c-0.928,0.02-1.858,0.09-2.781,0.038c-0.578-0.031-1.466,0.392-1.546-0.724C106.014,315.75,105.87,314.732,107.3,314.705z"/>
	<path fill="#FFFFFF" d="M248.947,314.84c-0.986,0.775-2.037,1.484-2.938,2.348c-0.646,0.621-1.2,0.887-1.979,0.359
		C245.404,316.162,246.726,314.684,248.947,314.84z"/>
	<path fill="#FFFFFF" d="M379.166,343.955c-1.303-1.527-2.448-3.088-1.077-5.174C378.447,340.506,378.807,342.23,379.166,343.955z"
		/>
	<path fill="#FFFFFF" d="M232.084,305.743c-1.685-1.548,0.283-2.777,0.547-4.076c0.157-0.772,1.777-0.659,2.752-0.073
		C232.671,301.693,232.668,303.949,232.084,305.743z"/>
	<path fill="#FFFFFF" d="M376.749,349.104c1.868,0.619,3.715,1.271,4.999,2.896C379.785,351.545,378.16,350.509,376.749,349.104z"/>
	<path fill="#FFFFFF" d="M249.881,244.335c0.12,1.816-1.328,2.182-2.562,2.637c-0.66,0.244-1.405,0.155-1.358-0.897
		C247.504,246.025,248.557,244.875,249.881,244.335z"/>
	<path fill="#FFFFFF" d="M257.85,224.179c0.336-0.019,0.963-1.384,0.949,0.076c-0.016,1.682-0.404,3.36-0.842,5.052
		c-0.096-0.786-0.188-1.57-0.282-2.355C257.732,226.028,257.793,225.103,257.85,224.179z"/>
	<path fill="#FFFFFF" d="M330.203,348.042c-1.205,1.579-2.903,1.587-4.141,0.019C327.446,348.717,328.826,348.718,330.203,348.042z"
		/>
	<path fill="#FFFFFF" d="M263.535,344.992c0.9,0.209,1.027-1.113,1.9-0.957c-0.316,1.279-0.998,2.339-1.939,3.242
		c-0.535-0.772,0.286-1.521,0.045-2.289L263.535,344.992z"/>
	<path fill="#FFFFFF" d="M462.306,317.689c-0.536,1.5-1.077,2.998-2.935,3.338C460.026,319.633,460.948,318.469,462.306,317.689z"/>
	<path fill="#FFFFFF" d="M133.312,319.96c0.178,1.619-0.528,2.767-1.903,3.556C131.874,322.236,132.269,320.926,133.312,319.96z"/>
	<path fill="#FFFFFF" d="M357.354,313.871c-1.078-0.145-2.244,3.322-3.247-0.076C355.193,313.631,356.278,313.557,357.354,313.871z"
		/>
	<path fill="#FFFFFF" d="M135.985,316.934c-0.378,1.471-1.185,2.565-2.686,3.049C133.886,318.691,134.654,317.564,135.985,316.934z"
		/>
	<path fill="#FFFFFF" d="M329.317,351.023c0.552-1.388,1.789-1.648,3.056-1.871C331.646,350.255,330.557,350.764,329.317,351.023z"
		/>
	<path fill="#FFFFFF" d="M263.541,344.988c0.241,0.769-0.58,1.517-0.045,2.289c-0.247,0.27-0.494,0.539-0.741,0.81
		c-0.237-0.137-0.474-0.274-0.712-0.413l-0.156-0.156C262.784,346.9,261.971,345.164,263.541,344.988z"/>
	<path fill="#FFFFFF" d="M136.922,336.699c-0.518-1.413-1.12-2.833,0.268-4.118C137.1,333.954,137.012,335.327,136.922,336.699z"/>
	<path fill="#FFFFFF" d="M376.014,319.377c0.156,1.536-0.526,2.436-2.046,2.707C374.366,320.967,375.114,320.115,376.014,319.377z"
		/>
	<path fill="#FFFFFF" d="M270.536,319.29c0.874,1.521-0.833,2.536-0.759,3.901C269.523,321.792,269.746,320.486,270.536,319.29z"/>
	<path fill="#FFFFFF" d="M167.735,316.914c0.042,1.113-0.271,1.943-1.576,1.988C166.222,317.873,167.006,317.415,167.735,316.914z"
		/>
	<path fill="#FFFFFF" d="M188.517,350.225c0.689-0.345,1.344-1.828,2.1-0.063C189.917,350.182,189.216,350.203,188.517,350.225z"/>
	<path fill="#FFFFFF" d="M481.154,321.081c-1.488-0.263-1.754-1.444-1.993-2.646C480.051,319.146,480.725,320.021,481.154,321.081z"
		/>
	<path fill="#FFFFFF" d="M37.01,349.229c-1.415,0.703-2.828,0.705-4.238-0.019C34.185,349.217,35.598,349.223,37.01,349.229z"/>
	<path fill="#FFFFFF" d="M459.855,346.047c1.229,0.032,1.709,0.68,1.524,1.867C460.656,347.469,460.156,346.839,459.855,346.047z"/>
	<path fill="#FFFFFF" d="M178.804,299.023c0.598,0.633,0.355,1.414,0.387,2.146C177.964,300.652,178.419,299.834,178.804,299.023z"
		/>
	<path fill="#FFFFFF" d="M324.869,310.677c-0.613-1.419-0.657-2.838,0-4.257C324.869,307.839,324.869,309.258,324.869,310.677z"/>
	<path fill="#FFFFFF" d="M269.939,324.754c0.224-0.212,0.444-0.424,0.668-0.636c0.408,0.682,0.205,1.423,0.209,2.144
		C270.225,325.936,270.035,325.371,269.939,324.754z"/>
	<path fill="#FFFFFF" d="M300.039,301.458c1.305-0.496,2.186-0.351,2.045,1.349C301.4,302.355,300.721,301.907,300.039,301.458z"/>
	<path fill="#FFFFFF" d="M44.819,347.654c-0.192-1.036,0.102-1.704,1.288-1.701C45.793,346.605,45.48,347.262,44.819,347.654z"/>
	<path fill="#FFFFFF" d="M326.1,348.082c-1.618,0.04-0.997-1.184-1.119-1.986C325.354,346.757,325.727,347.42,326.1,348.082z"/>
	<path fill="#FFFFFF" d="M46.29,345.589c-0.778-0.928-0.56-1.463,0.637-1.61C46.977,344.62,46.649,345.109,46.29,345.589z"/>
	<path fill="#FFFFFF" d="M482.114,322.973c-1.374-0.06-0.673-1.181-0.926-1.811C481.721,321.648,481.97,322.284,482.114,322.973z"/>
	<path fill="#FFFFFF" d="M380.161,346.053c-1.418-0.191-0.948-1.273-1.001-2.111C379.495,344.646,379.827,345.35,380.161,346.053z"
		/>
	<path fill="#FFFFFF" d="M272.914,334.557c0.001,0.805-0.439,1.062-1.18,0.959C271.998,335.036,272.311,334.619,272.914,334.557z"/>
	<path fill="#FFFFFF" d="M94.602,306.749c0.824-0.476,1.139-0.06,1.248,0.715C95.259,307.531,94.918,307.161,94.602,306.749z"/>
	<path fill="#FFFFFF" d="M44.763,342.867c-0.004,0.494,0.169,1.096-0.052,1.455c-0.347,0.561-0.347-0.059-0.44-0.266
		C44.435,343.661,44.6,343.264,44.763,342.867z"/>
	<path fill="#FFFFFF" d="M192.804,348.098c-0.608-0.025-1.327,0.245-1.638-0.598C191.786,347.496,192.507,347.218,192.804,348.098z"
		/>
	<path fill="#FFFFFF" d="M297.896,299.258c-0.021,0.442-0.045,0.885-0.066,1.321C297.659,300.127,297.607,299.684,297.896,299.258z"
		/>
	<path fill="#FFFFFF" d="M266.625,329.38c-0.621-0.495-0.564-1.04-0.119-1.616C266.546,328.305,266.586,328.841,266.625,329.38z"/>
	<path fill="#FFFFFF" d="M246.388,242.741c0.019-0.407,0.14-0.738,0.6-0.826C246.788,242.19,246.587,242.466,246.388,242.741z"/>
	<path fill="#FFFFFF" d="M249.588,345.959c-0.55-0.045-0.617-0.445-0.646-0.874C249.159,345.377,249.374,345.668,249.588,345.959z"
		/>
	<path fill="#FFFFFF" d="M191.231,347.559c-0.533-0.091-0.618-0.5-0.671-0.935C191.238,346.607,191.155,347.141,191.231,347.559z"/>
	<path fill="#FFFFFF" d="M98.34,298.577c-0.156-0.032-0.246-0.128-0.267-0.281C98.299,298.266,98.433,298.314,98.34,298.577z"/>
	<path fill="#FFFFFF" d="M250.43,243.854c-0.193,0.183-0.385,0.363-0.577,0.545C250.045,244.218,250.237,244.037,250.43,243.854z"/>
	<path fill="#FFFFFF" d="M258.957,215.189c0-15.559,0-31.118,0-46.677c0.081,0,0.161-0.001,0.242-0.002c0,15.555,0,31.109,0,46.665
		C259.118,215.179,259.038,215.184,258.957,215.189z"/>
	<path fill="#FFFFFF" d="M256.305,242.965c-1.924,3.22-4.826,5.258-8.441,6.74c3.521,1.811,6.225,0.285,8.908-1.382
		c0.424,0.551,0.52,0.845-0.227,1.402c-2.656,1.987-5.58,1.914-8.612,1.507c-0.591-0.078-1.158-0.375-1.063-0.891
		c0.129-0.704,0.485-1.814,0.954-1.936c3.271-0.846,5.492-3.086,7.725-5.368C255.684,242.901,256.047,242.985,256.305,242.965z"/>
	<path fill="#FFFFFF" d="M261.693,249.21c-2.123,2.589-5.062,3.899-8.536,5.14c2.683,0.905,4.961,0.547,7.224,0.42
		c-1.607,1.723-3.637,0.625-5.471,0.782c-0.93,0.08-1.883-0.092-2.827-0.149c0.044-1.203,0.368-2.332,1.712-2.527
		c2.331-0.339,4.141-1.535,5.76-3.12C260.174,249.149,260.889,249.032,261.693,249.21z"/>
	<path fill="#FFFFFF" d="M261.088,229.912c-0.172,4.871-1.742,9.229-4.781,13.051c-0.467-1.699,0.627-3.121,1.32-4.306
		c1.525-2.61,2.546-5.278,2.915-8.245C260.566,230.224,260.898,230.077,261.088,229.912z"/>
	<path fill="#FFFFFF" d="M262.529,166.833c0,0.718,0,1.438,0,2.157c-1.159-0.024-2.354-0.064-2.074-1.736
		c0.186-1.106-1.033-1.519-1.081-2.476l-0.007,0.004C261.164,164.319,261.191,166.587,262.529,166.833z"/>
	<path fill="#FFFFFF" d="M262.529,169.947c0,0.722,0,1.443,0,2.165c-0.596-0.217-1.699,0.31-1.729-0.558
		C260.775,170.775,261.607,170.127,262.529,169.947z"/>
	<path fill="#FFFFFF" d="M201.957,303.85c0,13.723,0,27.445,0,41.17c-0.094,0-0.187,0-0.281,0c0-13.725,0-27.447,0-41.17
		C201.77,303.85,201.863,303.85,201.957,303.85z"/>
	<path fill="#FFFFFF" d="M285.91,331.455c-2.379,0.766-4.572,1.927-6.753,3.121C280.327,332.266,283.413,330.837,285.91,331.455z"/>
	<path fill="#FFFFFF" d="M298.443,347.57c0.062,0.132,0.141,0.257,0.168,0.394c0.013,0.058-0.088,0.138-0.135,0.205
		c-0.131-0.171-0.259-0.342-0.387-0.512C298.207,347.629,298.327,347.602,298.443,347.57z"/>
	<path fill="#FFFFFF" d="M270.716,244.904c2.464-5.106,3.946-10.509,4.884-16.08c1.449,2.958-0.328,5.666-0.795,8.435
		c-0.363,2.151-1.443,4.185-2.23,6.259C272.257,244.354,271.82,245.095,270.716,244.904z"/>
	<path fill="#FFFFFF" d="M260.322,254.824c0.35-1.006,1.203-1.104,2.082-1.162C262.209,254.943,261.271,254.893,260.322,254.824z"/>
	<path fill="#FFFFFF" d="M271.869,248.117c-0.312-0.075-0.693-0.065-0.76-0.488c-0.012-0.082,0.195-0.289,0.274-0.276
		c0.423,0.065,0.409,0.449,0.489,0.759L271.869,248.117z"/>
	<path fill="#FFFFFF" d="M270.156,245.861c0.035-0.421,0.16-0.792,0.585-0.982C270.732,245.318,270.85,245.829,270.156,245.861z"/>
	<path fill="#FFFFFF" d="M23.956,339.777c-1.284-0.196-1.01-1.205-1.011-2.02c-0.011-9.759-0.009-19.518,0.002-29.275
		c0-0.819-0.26-1.816,1.004-2.034l0.001,0.002c-0.001,11.112-0.003,22.226-0.005,33.337L23.956,339.777z"/>
	<path fill="#FFFFFF" d="M414.093,334.029c-3.688,1.994-6.763,4.527-7.055,9.088c-0.152,2.361,0.054,4.822,2.504,6.109
		c2.445,1.284,4.253-0.299,6.034-1.701c-0.221,2.754-2.365,2.565-4.218,2.675c-1.858,0.106-3.619,0.393-4.461-2.237
		c-1.981-6.188,0.479-12.14,6.323-14.32C413.434,333.562,413.799,333.891,414.093,334.029z"/>
	<path fill="#FFFFFF" d="M415.558,347.561c0.354-0.541,0.709-1.08,1.062-1.619C416.696,346.764,416.722,347.552,415.558,347.561z"/>
	<path fill="#FFFFFF" d="M146.87,316.695c-4.367-1.233-6.891,0.031-8.416,4.265c-0.376,1.044-0.653,2.124-0.976,3.188
		c-0.445-1.217,0.43-2.752-0.911-3.775c-0.127-0.098-0.063-0.492-0.027-0.739c0.055-0.377,0.447-0.146,0.559-0.237
		c2.893-2.324,5.595-5.164,9.879-3.367C147.028,316.048,146.91,316.465,146.87,316.695z"/>
	<path fill="#FFFFFF" d="M150.605,328.973c-0.056-1.578-0.112-3.156-0.167-4.731c0.128-0.539-0.188-1.188,0.689-1.869
		C150.673,324.738,151.737,326.896,150.605,328.973z"/>
	<path fill="#FFFFFF" d="M150.483,329.309c0.745,0.762,0.242,1.047-0.484,1.084c-1.182,0.06-2.368,0.016-4.09,0.016
		c1.743-1.036,3.419,0.119,4.548-1.084C150.456,329.324,150.483,329.309,150.483,329.309z"/>
	<path fill="#FFFFFF" d="M141.579,330.091c-0.695,0.332-1.345,0.413-2.042,0.114C140.246,329.619,140.953,330.1,141.579,330.091z"/>
	<path fill="#FFFFFF" d="M476.753,328.301c-0.438-3.678-0.449-7.49-3.279-10.417c3.105,0.23,2.847,3.093,3.439,4.931
		C477.447,324.458,477.47,326.489,476.753,328.301z"/>
	<path fill="#FFFFFF" d="M473.448,317.866c-0.206-0.146-0.414-0.293-0.619-0.438C473.034,317.573,473.242,317.721,473.448,317.866z"
		/>
	<path fill="#FFFFFF" d="M259.421,326.271c-0.362-2.885-0.755-5.758-2.233-8.342c2.568,0.832,2.439,3.497,2.916,5.285
		c0.437,1.633,0.726,3.751,0.144,5.785C259.5,328.111,260.325,326.938,259.421,326.271z"/>
	<path fill="#FFFFFF" d="M255.145,316.281c-0.463,0.141-0.865,0.137-1.047-0.422C254.51,315.842,254.906,315.864,255.145,316.281z"
		/>
	<path fill="#FFFFFF" d="M324.375,318.475c0,8.618,0,17.235,0,25.854c-0.085,0.001-0.171,0.001-0.256,0.003
		c0-8.601,0-17.199,0-25.797C324.204,318.516,324.29,318.493,324.375,318.475z"/>
	<path fill="#FFFFFF" d="M169.154,331.464c0.068,3.289,0.136,6.579,0.205,9.868c-1.276-3-1.237-6.146-0.976-9.305
		C168.399,331.82,168.886,331.65,169.154,331.464z"/>
	<path fill="#FFFFFF" d="M169.308,341.271c1.16,1.178,0.958,2.847,1.532,4.236C168.974,344.587,169.742,342.712,169.308,341.271z"/>
	<path fill="#FFFFFF" d="M173.652,316.927c-0.568,0.527-1.135,1.056-1.702,1.582C171.724,317.128,172.381,316.695,173.652,316.927z"
		/>
	<path fill="#FFFFFF" d="M64.788,347.001c-0.257,0.858,0.283,1.017,0.95,1.149c0.816,0.164,1.696,0.279,2.116,1.365
		c-4.523,0-8.939,0-13.352,0c-0.15-1.002,0.583-0.88,0.98-1.043c1.964-0.81,2.929-2.102,2.9-4.371
		c-0.1-7.973-0.047-15.945-0.029-23.92c0.004-2.385-0.872-3.996-3.462-4.185c-0.389-0.03-0.709-0.028-0.667-0.488
		c0.033-0.375,0.331-0.702,0.699-0.543c1.067,0.457,2.018-0.29,3.055-0.196c1.29,0.114,2.671-0.188,3.872,0.168
		c1.697,0.502,0.834,2.207,1.042,3.373c0.436,2.438,0.814,4.849,0.722,7.396c-0.235,6.491-0.093,12.997-0.098,19.497
		c0,0.881-0.066,1.822,1.253,1.785C64.772,346.991,64.788,347.001,64.788,347.001z"/>
	<path fill="#FFFFFF" d="M455.182,321.137c-0.018,2.537-1.242,4.194-2.968,3.973c-1.815-0.232-2.13-1.717-2.233-3.265
		c-0.064-0.934,0.352-1.563,0.889-2.306c0.966-1.329,2.766,0.324,3.555-1.184C455.536,319.152,455.021,320.355,455.182,321.137z"/>
	<path fill="#FFFFFF" d="M443.708,324.111c-0.019,0.422-0.062,0.961-0.603,0.82c-0.281-0.072-0.531-0.607-0.625-0.979
		c-0.082-0.328,0.198-0.637,0.577-0.664C443.642,323.244,443.689,323.68,443.708,324.111z"/>
	<path fill="#FFFFFF" d="M442.23,349.633c0.602,0.081,1.169,0.236,1.964,1.152c-1.142-0.108-1.886,0.172-2.053-1.062
		C442.141,349.723,442.23,349.633,442.23,349.633z"/>
	<path fill="#FFFFFF" d="M445.96,350.218c0.161,0.037,0.382,0.022,0.437,0.112c0.206,0.339-0.115,0.354-0.306,0.361
		c-0.129,0.002-0.263-0.125-0.394-0.192C445.785,350.402,445.875,350.309,445.96,350.218z"/>
	<path fill="#FFFFFF" d="M358.032,315.908c1.045,0.142,1.23,1.015,1.316,1.843c0.054,0.515,0.289,1.465-0.521,1.442
		c-1.204-0.034-1.042-1.354-1.424-2.131C357.158,316.564,357.306,316.061,358.032,315.908z"/>
	<path fill="#FFFFFF" d="M352.225,314.809c0.319,0.024,0.655,0.06,0.71,0.455c0.017,0.11-0.139,0.35-0.228,0.354
		c-0.559,0.041-0.587-0.404-0.663-0.794L352.225,314.809z"/>
	<path fill="#FFFFFF" d="M151.1,349.719c-1.665-0.07-3.3,1.111-5.293,0.012c1.724-0.99,3.622-0.347,5.163-1.229
		c0.395-0.226,0.104,0.797,0.098,1.25L151.1,349.719z"/>
	<path fill="#FFFFFF" d="M402.429,324.266c1.188-1.441-0.25-4.141,2.482-4.606c0.968-0.166,3.641,3.032,3.367,4.056
		c-0.434,1.625-0.622,3.854-2.976,3.682C403.754,327.281,402.87,325.859,402.429,324.266z"/>
	<path fill="#FFFFFF" d="M406.753,317.562c0.011,0.379-0.157,0.67-0.521,0.754c-0.284,0.065-0.775,0.216-0.638-0.361
		c0.066-0.279,0.392-0.541,0.659-0.713C406.513,317.076,406.69,317.287,406.753,317.562z"/>
	<path fill="#FFFFFF" d="M412.509,315.835c-0.083,0.506-0.129,1.089-0.885,0.771c-0.165-0.068-0.229-0.377-0.34-0.574
		c0.4-0.073,0.801-0.146,1.201-0.219L412.509,315.835z"/>
	<path fill="#FFFFFF" d="M395.812,325.518c0.102,0.873-0.09,1.758-0.899,2.448c-0.771,0.656-1.502,1.905-2.572,1.242
		c-0.989-0.614-2.026-1.626-1.614-3.161c0.091-0.328,0.244-0.679,0.205-0.997c-0.143-1.169-1.258-2.694,1.014-2.952
		C393.719,321.896,395.831,323.783,395.812,325.518z"/>
	<path fill="#FFFFFF" d="M23.948,339.787c0.002-11.111,0.003-22.225,0.005-33.337c1.331,0.157,1.015,1.196,1.017,1.997
		c0.016,9.779,0.016,19.56,0.001,29.342C24.968,338.596,25.269,339.625,23.948,339.787z"/>
	<path fill="#FFFFFF" d="M262.043,347.674c-0.109,0.057-0.219,0.111-0.328,0.167c0.059-0.106,0.115-0.215,0.172-0.321
		C261.887,347.518,262.043,347.674,262.043,347.674z"/>
	<path fill="#FFFFFF" d="M29.201,300.164c0.062,0.089,0.124,0.176,0.186,0.266c-0.086-0.064-0.171-0.129-0.258-0.191
		C29.128,300.236,29.201,300.164,29.201,300.164z"/>
	<path fill="#FFFFFF" d="M329.616,316.809c-0.601,0-1.229,0.115-1.79-0.029c-0.628-0.163-1.37-0.652-1.234-1.303
		c0.107-0.524,0.925-0.728,1.539-0.428c1.057,0.518,2.004-0.16,3.003-0.191c0.768-0.023,1.758,0.078,1.832,0.955
		c0.069,0.777-0.895,0.898-1.554,0.988c-0.587,0.079-1.196,0.018-1.796,0.018C329.616,316.814,329.616,316.812,329.616,316.809z"/>
	<path fill="#FFFFFF" d="M262.529,166.833c-1.338-0.246-1.365-2.514-3.162-2.051c0.811-1.068,1.972-1.09,3.152-1.056
		C262.521,164.762,262.525,165.797,262.529,166.833z"/>
</g>
</svg>
