<?xml version="1.0" encoding="utf-8"?>
<!-- Generator: Adobe Illustrator 16.0.0, SVG Export Plug-In . SVG Version: 6.00 Build 0)  -->
<!DOCTYPE svg PUBLIC "-//W3C//DTD SVG 1.1//EN" "http://www.w3.org/Graphics/SVG/1.1/DTD/svg11.dtd">
<svg version="1.1" id="Layer_1" xmlns="http://www.w3.org/2000/svg" xmlns:xlink="http://www.w3.org/1999/xlink" x="0px" y="0px"
	 width="500px" height="145px" viewBox="0 166.5 500 145" enable-background="new 0 166.5 500 145" xml:space="preserve">
<g>
	<path fill="#FFFFFF" d="M231.414,298.646c-9.684,0-18.919,0-28.337,0c0-28.905,0-57.595,0-86.521c8.88,0,17.666,0,26.754,0
		c0,2.828,0,5.465,0,9.114c1.553-1.32,2.462-2.051,3.325-2.833c12.986-11.758,33.39-13.203,46.305-3.365
		c7.93,6.041,10.719,14.527,10.848,23.882c0.27,19.766,0.082,39.538,0.082,59.625c-9.283,0-18.631,0-28.365,0
		c-0.082-1.393-0.243-2.852-0.246-4.312c-0.021-15.825,0.048-31.652-0.047-47.479c-0.051-8.523-3.094-12.624-10.062-14.16
		c-10.188-2.244-19.175,3.897-19.617,14.326c-0.637,14.98-0.468,29.996-0.636,44.997
		C231.394,294.011,231.414,296.102,231.414,298.646z"/>
	<path fill="#FFFFFF" d="M160.709,244.702c1.521-9.404-4.288-13.67-11.445-14.458c-8.723-0.961-16.555,1.388-23.861,5.96
		c-1.073,0.671-2.13,1.368-3.394,2.181c-4.005-5.561-7.938-11.022-12.41-17.232c4.1-2.508,7.887-5.354,12.092-7.299
		c13.631-6.305,27.925-6.819,42.24-3.11c14.332,3.712,23.511,15.447,23.954,30.694c0.531,18.255,0.404,36.531,0.537,54.796
		c0.006,0.781-0.237,1.562-0.383,2.464c-8.257,0-16.367,0-24.683,0c-0.274-2.599-0.535-5.064-0.731-6.933
		c-5.684,2.717-10.925,6.284-16.701,7.762c-12.564,3.211-24.864,2.455-34.698-7.504c-9.713-9.834-8.895-27.812,1.289-37.135
		c8.021-7.344,17.792-9.759,28.235-10.142C147.347,244.506,153.962,244.702,160.709,244.702z M160.566,261.718
		c-4.933,0-9.694-0.17-14.435,0.066c-2.736,0.136-5.549,0.612-8.136,1.495c-4.457,1.522-6.876,5.537-6.539,9.984
		c0.328,4.324,3.507,8.034,8.152,8.721C152.429,283.88,163.245,276.057,160.566,261.718z"/>
	<path fill="#FFFFFF" d="M6.761,211.899c10.198,0,19.844-0.083,29.483,0.125c0.988,0.021,2.383,1.602,2.842,2.756
		c5.958,14.982,11.778,30.019,17.646,45.037c0.453,1.16,0.999,2.283,1.814,4.134c3.578-9.245,6.888-17.759,10.168-26.283
		c2.917-7.578,5.855-15.149,8.665-22.768c0.778-2.111,1.765-3.126,4.243-3.074c8.139,0.173,16.284,0.055,24.427,0.07
		c0.772,0.001,1.545,0.149,2.813,0.281c-1.171,2.731-2.205,5.144-3.24,7.557c-10.844,25.269-21.726,50.521-32.47,75.832
		c-1.072,2.522-2.329,3.461-5.109,3.373c-6.973-0.224-13.958-0.129-20.936-0.039c-1.975,0.026-3.118-0.5-3.961-2.455
		c-11.815-27.381-23.719-54.722-35.591-82.079C7.287,213.753,7.139,213.09,6.761,211.899z"/>
	<path fill="#FFFFFF" d="M493.239,211.886c-3.27,7.664-6.249,14.691-9.265,21.705c-8.938,20.798-17.926,41.575-26.789,62.404
		c-0.896,2.108-1.885,2.991-4.28,2.932c-7.212-0.178-14.432-0.104-21.646-0.036c-1.802,0.017-2.92-0.354-3.73-2.238
		c-11.855-27.506-23.806-54.97-35.721-82.451c-0.22-0.506-0.295-1.077-0.533-1.981c1.187-0.123,2.174-0.312,3.161-0.315
		c8.265-0.023,16.528,0.074,24.789-0.066c2.391-0.041,3.422,0.816,4.261,3.011c5.758,15.065,11.667,30.072,17.539,45.093
		c0.417,1.07,0.917,2.107,1.687,3.861c0.757-1.763,1.312-2.938,1.778-4.152c5.706-14.839,11.455-29.665,17.041-44.549
		c0.929-2.476,2.184-3.327,4.815-3.277C475.061,211.988,483.779,211.886,493.239,211.886z"/>
	<path fill="#FFFFFF" d="M335.935,211.932c5.239,0,9.844,0,14.598,0c0,7.351,0,14.296,0,21.708c-4.64,0-9.326,0-14.43,0
		c0,21.896,0,43.336,0,64.999c-9.652,0-18.877,0-28.407,0c0-21.568,0-42.92,0-64.718c-2.883,0-5.477,0-8.32,0
		c0-7.468,0-14.494,0-21.809c2.58-0.131,5.104-0.258,8.027-0.406c0-8.726,0-17.379,0-26.296c9.638,0,18.873,0,28.532,0
		C335.935,193.961,335.935,202.61,335.935,211.932z"/>
	<path fill="#FFFFFF" d="M359.501,212.136c9.262,0,18.508,0,27.98,0c0,28.792,0,57.446,0,86.414c-9.201,0-18.429,0-27.98,0
		C359.501,269.885,359.501,241.137,359.501,212.136z"/>
	<path fill="#FFFFFF" d="M389.143,189.175c-0.01,8.813-7.275,16.08-15.924,15.925c-8.664-0.154-15.556-7.21-15.556-15.928
		c0-8.808,7.264-16.068,15.911-15.904C382.221,173.432,389.152,180.515,389.143,189.175z"/>
</g>
</svg>
