<?xml version="1.0" encoding="utf-8"?>
<!-- Generator: Adobe Illustrator 16.0.0, SVG Export Plug-In . SVG Version: 6.00 Build 0)  -->
<!DOCTYPE svg PUBLIC "-//W3C//DTD SVG 1.1//EN" "http://www.w3.org/Graphics/SVG/1.1/DTD/svg11.dtd">
<svg version="1.1" id="Layer_1" xmlns="http://www.w3.org/2000/svg" xmlns:xlink="http://www.w3.org/1999/xlink" x="0px" y="0px"
	 width="500px" height="169px" viewBox="0 186.5 500 169" enable-background="new 0 186.5 500 169" xml:space="preserve">
<g>
	<path fill="#FFFFFF" d="M54.661,279.229c4.261-13.358,8.479-26.287,12.485-39.278c1.762-5.716,4.894-9.608,11.252-9.63
		c6.451-0.022,9.488,4.196,11.229,9.737c4.01,12.759,8,25.525,12.18,38.868c2.28-1.858,2.393-4.163,2.995-6.112
		c3.409-11.025,6.668-22.099,10.079-33.125c2.411-7.792,7.657-10.868,14.434-8.657c6.429,2.097,8.81,7.374,6.121,15.079
		c-6.519,18.683-13.201,37.311-20.031,55.884c-2.803,7.619-6.95,10.35-13.751,10.209c-7.332-0.15-10.354-4.954-12.318-11.061
		c-3.461-10.762-6.98-21.502-11.021-33.935c-4.076,12.603-7.542,23.614-11.21,34.56c-2.646,7.896-6.839,10.797-14.054,10.422
		c-5.445-0.28-9.067-3.354-10.798-8.031c-7.369-19.909-14.644-39.861-21.478-59.959c-2.418-7.113,0.465-11.578,7.038-13.397
		c6.094-1.687,11.448,1.159,13.512,7.638c3.878,12.175,7.532,24.421,11.228,36.653C52.972,276.482,53.192,277.915,54.661,279.229z"
		/>
	<path fill="#FFFFFF" d="M321.988,236.447c10.051-6.711,20.077-8.813,30.735-5.313c16.283,5.348,22.278,18.55,24.938,33.929
		c3.77,21.815-9.294,42.963-29.092,47.484c-9.574,2.188-15.907,0.35-26.645-7.73c-4.5,6.924-8.815,9.193-14.626,6.983
		c-6.104-2.319-7.558-7.416-7.533-13.532c0.123-29.568,0.058-59.142,0.059-88.712c0-0.621-0.014-1.242,0.007-1.861
		c0.228-7.167,4.353-12,10.483-12.287c6.379-0.298,11.324,4.402,11.594,11.879C322.24,216.574,321.988,225.883,321.988,236.447z
		 M322.021,271.753c-0.253,3.862,0.787,8.658,3.271,13.081c6.34,11.288,20.579,11.523,27.03,0.288
		c5.112-8.905,5.009-18.209,0.163-27.162c-4.808-8.881-15.766-11.214-23.251-5.112C323.702,257.354,321.995,263.65,322.021,271.753z
		"/>
	<path fill="#FFFFFF" d="M157.516,278.585c0.935,12.892,16.137,18.337,28.16,14.082c3.862-1.365,7.453-3.503,11.164-5.291
		c5.8-2.797,10.087-2.009,13.152,2.419c2.955,4.27,2.106,8.707-2.944,12.996c-12.197,10.355-39.75,16.879-58.55,1.02
		c-14.967-12.625-18.401-37.646-7.418-55.476c9.245-15.01,26.363-22.065,42.672-17.588c16.617,4.562,29.521,20.949,29.771,37.81
		c0.099,6.707-2.91,9.911-9.691,10.004c-7.649,0.103-15.301,0.024-22.952,0.024C173.235,278.585,165.591,278.585,157.516,278.585z
		 M173.852,263.943c4.327,0,8.668-0.211,12.978,0.062c4.029,0.255,4.508-1.504,3.487-4.766c-2.151-6.876-8.974-11.748-16.473-11.667
		c-7.426,0.08-14.564,5.703-16.458,12.717c-0.754,2.794,0.038,3.758,2.866,3.684C164.783,263.854,169.319,263.941,173.852,263.943z"
		/>
	<path fill="#FFFFFF" d="M263.004,278.582c-7.027,0.003-14.064,0.236-21.078-0.077c-4.773-0.217-4.592,1.627-3.049,5.036
		c4.062,8.969,16.126,13.146,27.321,9.046c4.04-1.479,7.844-3.619,11.725-5.517c4.66-2.28,8.864-1.984,12.099,2.385
		c3.486,4.706,2.33,9.281-1.86,12.576c-14.528,11.424-30.833,14.486-48.28,8.242c-15.064-5.393-24.238-19.615-24.696-36.664
		c-0.641-23.836,14.009-41.616,36.167-43.896c22.078-2.271,43.424,18.008,42.301,40.187c-0.299,5.914-2.842,8.52-8.944,8.646
		C277.475,278.695,270.238,278.582,263.004,278.582z M254.212,263.936c4.733,0,9.47-0.074,14.201,0.029
		c2.618,0.059,3.114-1.138,2.692-3.433c-1.262-6.884-8.416-12.667-16.146-12.949c-7.743-0.283-15.513,5.416-17.123,12.524
		c-0.541,2.388-0.327,3.976,2.791,3.869C245.15,263.82,249.683,263.938,254.212,263.936z"/>
	<path fill="#FFFFFF" d="M442.713,278.582c5.732-14.372,10.734-27.197,15.971-39.927c3.041-7.391,9.024-10.084,15.263-7.29
		c6.084,2.727,7.692,8.019,4.579,15.699c-10.45,25.761-20.948,51.504-31.444,77.247c-1.788,4.387-3.432,8.851-5.541,13.078
		c-3.27,6.555-8.667,8.529-14.857,5.834c-5.577-2.429-7.247-7.045-5.006-13.92c0.318-0.978,0.593-2.021,1.145-2.865
		c9.534-14.602,7.844-28.77-0.048-43.715c-5.934-11.234-9.92-23.502-14.688-35.345c-3.282-8.15-1.669-13.411,4.745-16.099
		c6.506-2.724,12.271,0.283,15.289,8.221C432.854,251.957,437.449,264.466,442.713,278.582z"/>
	<path fill="#FFFFFF" d="M381.737,253.76c0.002-15.102-0.042-30.203,0.02-45.304c0.032-7.786,3.988-12.699,10.262-13.045
		c6.628-0.365,11.662,4.382,11.72,12.387c0.221,30.822,0.228,61.646-0.013,92.468c-0.062,7.836-4.646,12.029-11.356,11.932
		c-6.612-0.098-10.563-4.612-10.607-12.512C381.676,284.378,381.735,269.066,381.737,253.76z"/>
</g>
</svg>
