<?xml version="1.0" encoding="utf-8"?>
<!-- Generator: Adobe Illustrator 16.0.0, SVG Export Plug-In . SVG Version: 6.00 Build 0)  -->
<!DOCTYPE svg PUBLIC "-//W3C//DTD SVG 1.1//EN" "http://www.w3.org/Graphics/SVG/1.1/DTD/svg11.dtd">
<svg version="1.1" id="Layer_1" xmlns="http://www.w3.org/2000/svg" xmlns:xlink="http://www.w3.org/1999/xlink" x="0px" y="0px"
	 width="500px" height="209px" viewBox="0 115.5 500 209" enable-background="new 0 115.5 500 209" xml:space="preserve">
<g>
	<path fill="#FFFFFF" d="M7.194,184.455c2.691,0.01,5.383,0.028,8.074,0.028c34.039,0.002,68.078,0.001,102.117,0.002
		c2.131,0,2.122-0.002,1.238,1.921c-19.5,42.436-39.016,84.865-58.445,127.334c-0.934,2.042-1.959,2.693-4.198,2.678
		c-16.262-0.107-32.525-0.05-48.787-0.044C7.194,272.4,7.194,228.428,7.194,184.455z M28.566,290.652
		c0.745-0.231,1.05-0.369,1.37-0.422c7.897-1.271,15.807-2.479,23.693-3.818c4.8-0.814,3.838,0.456,4.003-4.553
		c0.042-1.242-0.347-1.731-1.591-2.004c-8.745-1.906-17.471-3.899-26.203-5.866c-4.803-1.082-9.609-2.15-14.407-3.257
		c-1.15-0.267-1.966-0.353-1.839,1.279c0.117,1.506,0.074,3.028,0.008,4.541c-0.043,1,0.359,1.326,1.323,1.494
		c4.849,0.846,9.685,1.77,14.523,2.672c4.276,0.799,8.55,1.604,12.825,2.406c-8.829,1.371-17.64,2.543-26.465,3.613
		c-1.586,0.191-2.466,0.552-2.225,2.396c0.181,1.378,0.06,2.8,0.026,4.2c-0.018,0.739,0.192,1.094,1.004,1.198
		c2.052,0.264,4.089,0.646,6.133,0.969c7.262,1.151,14.523,2.299,21.785,3.448c-1.655,0.445-3.308,0.697-4.962,0.938
		c-7.53,1.09-15.057,2.202-22.594,3.237c-1.062,0.146-1.42,0.483-1.38,1.554c0.078,2.071,0.09,4.152-0.001,6.223
		c-0.061,1.377,0.382,1.584,1.654,1.254c12.729-3.297,25.472-6.54,38.209-9.803c4.267-1.095,4.225-1.099,4.18-5.524
		c-0.011-1.084-0.398-1.466-1.402-1.627C47.182,293.73,38.133,292.23,28.566,290.652z M37.4,249.347
		c0-2.411-0.061-4.824,0.026-7.231c0.043-1.206-0.39-1.573-1.535-1.505c-1.454,0.086-2.922-0.041-4.37,0.088
		c-4.662,0.419-9.248,1.183-13.186,3.976c-6.729,4.772-6.244,14.394,0.917,18.45c1.417,0.803,2.944,1.364,4.526,1.768
		c4.991,1.272,10.084,1.471,15.185,1.246c3.911-0.172,7.818-0.533,11.488-2.14c5.797-2.536,8.383-7.964,6.642-14.05
		c-1.472-5.149-8.326-9.417-13.792-8.639c-0.708,0.101-0.795,0.438-0.791,0.996c0.009,1.458,0.064,2.92-0.019,4.373
		c-0.061,1.07,0.287,1.452,1.382,1.517c1.102,0.065,2.204,0.33,3.258,0.753c2.259,0.91,3.493,2.468,3.463,4.476
		c-0.024,1.681-1.223,2.991-3.584,3.718c-2.756,0.846-5.605,0.996-8.474,0.993c-1.064-0.003-1.153-0.561-1.145-1.387
		C37.417,254.281,37.401,251.814,37.4,249.347z M49.295,233.896c0.796,0,1.459-0.001,2.122,0c5.485,0.001,5.611,0.013,6.096-5.406
		c0.43-4.807-1.109-9.944-5.79-12.31c-4.973-2.513-12.118-1.406-16.096,2.514c-1.653,1.63-2.881,3.573-4.203,5.452
		c-1.036,1.473-2.089,2.926-3.826,3.679c-3.182,1.377-6.453-0.65-6.604-4.103c-0.08-1.833,0.367-3.562,1.097-5.216
		c0.396-0.896,0.358-1.358-0.786-1.336c-1.906,0.038-3.814,0.041-5.72-0.003c-0.938-0.021-1.275,0.378-1.356,1.276
		c-0.115,1.28-0.438,2.543-0.524,3.822c-0.325,4.829,0.46,9.35,5.046,11.979c4.606,2.643,9.235,2.211,13.563-0.929
		c1.829-1.328,3.325-3.004,4.847-4.65c1.484-1.604,2.824-3.348,4.509-4.757c2.348-1.963,4.755-2.261,6.97-0.909
		c1.747,1.066,2.421,3.339,1.794,6.19C50.1,230.711,49.703,232.218,49.295,233.896z M39.512,203.667
		c5.495,0,10.99-0.033,16.484,0.026c1.21,0.013,1.738-0.245,1.638-1.567c-0.114-1.505-0.122-3.034,0.001-4.538
		c0.118-1.439-0.43-1.759-1.792-1.752c-10.037,0.055-20.073,0.029-30.11,0.029c-4.031,0-4.031,0-4.068-4.108
		c-0.001-0.112-0.012-0.226,0.001-0.336c0.114-0.902-0.182-1.32-1.188-1.284c-1.904,0.068-3.813,0.054-5.718,0.005
		c-0.88-0.023-1.162,0.292-1.158,1.166c0.028,6.167,0.024,12.335,0.004,18.503c-0.003,0.803,0.151,1.251,1.099,1.225
		c1.961-0.055,3.926-0.057,5.886,0.001c0.961,0.028,1.105-0.437,1.083-1.229c-0.038-1.4,0.081-2.811-0.035-4.203
		c-0.124-1.48,0.276-2.014,1.892-1.98C28.857,203.738,34.186,203.667,39.512,203.667z"/>
	<path fill="#FFFFFF" d="M492.805,256.135c-17.55,0.002-35.1,0.023-52.647-0.029c-1.455-0.004-1.877,0.324-1.896,1.815
		c-0.107,8.584-0.022,17.142,2.062,25.544c0.579,2.334,1.339,4.612,2.412,6.768c4.398,8.83,14.876,9.854,20.981,2.057
		c3.172-4.05,4.507-8.805,5.183-13.79c0.231-1.716,0.336-3.456,0.395-5.188c0.026-0.806,0.271-1.045,1.068-1.041
		c6.393,0.026,12.783,0.021,19.176,0.006c0.656-0.004,1.024,0.074,1.008,0.888c-0.273,12.274-2.709,23.915-10.507,33.801
		c-5.624,7.13-13.219,10.813-22.195,11.804c-6.906,0.762-13.646,0.203-20.08-2.56c-8.802-3.778-14.263-10.741-17.952-19.28
		c-3.334-7.718-4.904-15.881-5.746-24.195c-1.113-11.01-1.197-22.055-0.645-33.09c0.632-12.62,2.272-25.072,7.693-36.693
		c3.677-7.883,8.895-14.406,17.154-17.846c13.169-5.484,31.979-3.079,42.487,12.896c5.065,7.7,7.884,16.226,9.677,25.154
		c1.093,5.438,1.787,10.936,2.063,16.479c0.013,0.267-0.042,0.571,0.311,0.687C492.805,245.591,492.805,250.863,492.805,256.135z
		 M452.408,237.971c4.368,0,8.738-0.07,13.104,0.042c1.338,0.034,1.592-0.474,1.64-1.597c0.205-4.824,0.062-9.639-0.681-14.404
		c-0.731-4.71-1.867-9.321-4.867-13.21c-4.08-5.291-11.492-5.984-16.45-1.55c-2.139,1.91-3.498,4.342-4.488,6.981
		c-2.763,7.361-3.139,15.044-3.028,22.794c0.016,1.08,0.659,0.945,1.331,0.945C443.447,237.97,447.928,237.971,452.408,237.971z"/>
	<path fill="#FFFFFF" d="M296.271,120.851c10.376,11.537,20.739,23.083,31.148,34.589c0.811,0.895,0.97,1.33-0.062,2.187
		c-3.533,2.934-7,5.95-10.424,9.013c-0.829,0.743-1.198,0.514-1.829-0.178c-5.887-6.463-11.832-12.87-17.682-19.365
		c-0.994-1.105-1.443-0.988-2.365,0.039c-5.771,6.417-11.627,12.753-17.402,19.164c-0.795,0.883-1.26,1.01-2.25,0.24
		c-3.535-2.744-7.139-5.407-10.776-8.014c-0.968-0.693-1.049-1.054-0.226-1.973c10.283-11.473,20.521-22.986,30.76-34.5
		c0.311-0.348,0.852-0.586,0.771-1.2C296.048,120.851,296.16,120.851,296.271,120.851z"/>
	<path fill="#FFFFFF" d="M196.219,258.331c0,3.14,0,6.276,0,9.417c0,15.648-0.014,31.297,0.026,46.945
		c0.004,1.271-0.246,1.714-1.633,1.697c-6.786-0.08-13.573-0.062-20.359-0.012c-1.16,0.008-1.633-0.148-1.631-1.507
		c0.042-42.964,0.039-85.926,0.012-128.889c0-1.123,0.221-1.531,1.451-1.524c10.04,0.057,20.08-0.057,30.118,0.078
		c7.387,0.099,14.583,1.349,21.29,4.665c8.445,4.174,14.114,10.769,16.592,19.842c3.035,11.11,2.761,22.179-1.714,32.898
		c-2.914,6.982-7.798,12.234-14.975,15.039c-1.372,0.537-0.578,1.22-0.357,1.791c4.918,12.754,9.866,25.498,14.813,38.24
		c2.282,5.877,4.554,11.76,6.882,17.618c0.495,1.245,0.604,1.784-1.11,1.763c-7.234-0.091-14.47-0.064-21.706-0.011
		c-1.122,0.009-1.627-0.321-2.09-1.368c-8.146-18.429-16.348-36.832-24.539-55.24c-0.235-0.531-0.499-1.051-0.749-1.574
		C196.433,258.243,196.326,258.287,196.219,258.331z M196.18,224.7c0,5.44,0.025,10.881-0.022,16.32
		c-0.009,0.984,0.235,1.318,1.259,1.436c2.254,0.261,4.485,0.172,6.708-0.137c6.958-0.966,12.41-4.061,14.959-10.997
		c1.441-3.919,1.629-8.021,1.054-12.104c-0.819-5.82-3.735-10.113-9.547-12.02c-4.438-1.456-8.939-1.195-13.457-0.429
		c-1.014,0.172-0.963,0.852-0.961,1.611C196.188,213.821,196.181,219.261,196.18,224.7z"/>
	<path fill="#FFFFFF" d="M308.717,256.143c-8.523,0-17.05,0-25.574-0.002c-0.783-0.002-1.533-0.154-1.568,1.086
		c-0.288,10.224-0.127,20.396,3.263,30.215c0.435,1.261,1.006,2.49,1.656,3.654c4.118,7.367,12.642,8.68,18.873,2.906
		c3.747-3.47,5.332-8.039,6.379-12.859c0.56-2.58,0.766-5.207,0.88-7.838c0.035-0.787,0.225-1.043,1.04-1.039
		c6.395,0.031,12.788,0.022,19.182,0.012c0.628,0,1.072,0.043,1.041,0.88c-0.471,12.353-2.78,24.147-10.801,34.069
		c-5.678,7.026-13.248,10.601-22.157,11.553c-7.149,0.766-14.1,0.121-20.679-2.924c-8.744-4.047-14.032-11.232-17.575-19.877
		c-3.188-7.775-4.637-15.963-5.455-24.285c-0.969-9.846-0.921-19.717-0.619-29.578c0.395-12.86,1.94-25.553,7.032-37.545
		c2.57-6.057,6.101-11.459,11.339-15.586c6.582-5.185,14.182-6.916,22.383-6.384c15.606,1.011,25.148,10.101,31.195,23.691
		c3.552,7.981,5.344,16.434,6.457,25.064c0.992,7.698,1.104,15.42,0.99,23.163c-0.021,1.312-0.388,1.664-1.706,1.654
		C325.767,256.109,317.242,256.143,308.717,256.143z M295.6,237.971c4.432,0,8.861-0.045,13.291,0.029
		c1.195,0.021,1.509-0.355,1.521-1.501c0.058-4.938,0.104-9.873-0.711-14.761c-0.75-4.486-1.836-8.877-4.6-12.633
		c-4.365-5.934-12.467-6.404-17.508-1.037c-1.556,1.655-2.646,3.602-3.471,5.698c-2.928,7.449-3.333,15.248-3.209,23.124
		c0.018,1.061,0.572,1.099,1.393,1.094C286.736,237.956,291.168,237.971,295.6,237.971z"/>
	<path fill="#FFFFFF" d="M65.599,316.354c3.271-7.039,6.416-13.812,9.562-20.584c16.955-36.492,33.916-72.982,50.839-109.491
		c0.617-1.331,1.295-1.86,2.847-1.838c7.344,0.106,14.691,0.076,22.037,0.019c1.218-0.009,1.618,0.24,1.617,1.549
		c-0.037,42.954-0.035,85.907-0.006,128.861c0,1.149-0.262,1.522-1.471,1.512c-6.448-0.062-12.897-0.062-19.345,0.002
		c-1.225,0.013-1.459-0.386-1.45-1.516c0.053-6.169-0.014-12.337,0.058-18.504c0.014-1.271-0.32-1.576-1.578-1.568
		c-8.916,0.06-17.832,0.054-26.748,0.004c-1.076-0.006-1.521,0.359-1.933,1.318c-2.729,6.358-5.539,12.681-8.311,19.021
		c-0.292,0.67-0.458,1.25-1.462,1.243C82.128,316.333,74,316.354,65.599,316.354z M130.253,223.698
		c-0.107-0.03-0.214-0.062-0.322-0.094c-6.943,16.737-13.886,33.476-20.891,50.361c6.732,0,13.177-0.048,19.621,0.037
		c1.4,0.02,1.621-0.445,1.618-1.7C130.24,256.102,130.253,239.899,130.253,223.698z"/>
	<path fill="#FFFFFF" d="M385.011,261.62c0,17.664-0.016,35.328,0.032,52.991c0.004,1.367-0.298,1.795-1.725,1.777
		c-6.616-0.078-13.235-0.084-19.853,0.004c-1.448,0.02-1.715-0.412-1.713-1.771c0.039-35.271,0.015-70.545,0.076-105.817
		c0.002-1.814-0.524-2.182-2.22-2.151c-5.774,0.104-11.553,0.012-17.326,0.065c-1.094,0.01-1.399-0.277-1.392-1.383
		c0.055-6.448,0.051-12.897,0.003-19.346c-0.009-1.114,0.206-1.532,1.444-1.53c20.805,0.04,41.61,0.039,62.415,0.002
		c1.198-0.002,1.492,0.349,1.482,1.509c-0.055,6.449-0.052,12.898-0.001,19.346c0.008,1.099-0.281,1.414-1.399,1.403
		c-6-0.058-12.001,0.045-17.999-0.074c-1.659-0.033-1.858,0.561-1.854,1.98C385.026,226.291,385.011,243.955,385.011,261.62z"/>
	<path fill="#FFFFFF" d="M31.442,253.537c0.001,0.335,0.001,0.67,0.001,1.006c0,3.917-0.002,3.943-3.98,3.588
		c-1.672-0.148-3.32-0.515-4.775-1.41c-2.768-1.703-2.688-5.068,0.18-6.577c2.396-1.26,5.028-1.349,7.664-1.356
		c0.767-0.004,0.928,0.408,0.916,1.063C31.425,251.078,31.441,252.309,31.442,253.537z"/>
</g>
</svg>
