<?xml version="1.0" encoding="utf-8"?>
<!-- Generator: Adobe Illustrator 16.0.0, SVG Export Plug-In . SVG Version: 6.00 Build 0)  -->
<!DOCTYPE svg PUBLIC "-//W3C//DTD SVG 1.1//EN" "http://www.w3.org/Graphics/SVG/1.1/DTD/svg11.dtd">
<svg version="1.1" id="Layer_1" xmlns="http://www.w3.org/2000/svg" xmlns:xlink="http://www.w3.org/1999/xlink" x="0px" y="0px"
	 width="500px" height="181px" viewBox="0 184.5 500 181" enable-background="new 0 184.5 500 181" xml:space="preserve">
<g>
	<path fill="#FFFFFF" d="M107.417,359.473c-46.287-0.053-83.796-37.582-83.716-83.758c0.081-46.227,37.626-83.583,83.945-83.522
		c46.301,0.06,83.779,37.565,83.699,83.756C191.265,322.107,153.667,359.523,107.417,359.473z M74.479,299.162
		c6.182-0.32,11.295-1.18,16.294-0.74c18.623,1.639,37.211,3.672,55.804,5.633c4.328,0.457,8.248,1.004,10.938-3.904
		c1.99-3.631,1.673-8.123-2.161-10.295c-14.752-8.342-27.618-19.151-40.332-30.223c-5.813-5.062-10.654-10.443-11.851-18.422
		c-0.422-2.813-1.494-5.531-2.3-8.284c-1.75-5.979-3.521-11.952-5.407-18.348c-4.571,3.547-7.681,7.546-9.775,12.219
		c-2.706,6.039-4.985,12.268-7.613,18.343c-1.172,2.711-2.567,5.364-4.174,7.839c-3.163,4.879-7.178,9.309-9.716,14.474
		c-7.539,15.342-10.941,32.063-15.395,48.444c-1.369,5.039-0.087,8.23,3.324,11.609c18.844,18.664,41.223,26.908,67.655,23.064
		c4.923-0.719,9.708-2.377,14.914-3.693c-8.269-13.795-16.102-26.898-24.01-39.955c-0.429-0.707-1.483-1.432-2.271-1.461
		c-9.06-0.346-18.123-0.713-27.187-0.742c-4.69-0.014-9.384,0.631-14.215,0.988c0.644-6.875,3.809-12.482,7.7-17.934
		c-1.915-0.666-3.468-1.211-5.024-1.748c-1.602-0.553-3.207-1.098-4.865-1.666c2.227-3.924,9.329-8.699,13.164-9.068
		c-1.283,1.975-2.58,3.971-3.915,6.023c3.598,1.512,6.814,2.865,9.937,4.182C80.847,290.021,77.844,294.332,74.479,299.162z
		 M119.289,255.756c0-9.585,0-18.526,0-27.468c-0.308-0.221-0.615-0.441-0.922-0.663c-2.039,2.308-3.778,5.012-6.186,6.833
		c-3.928,2.971-4.813,6.406-3.089,10.775c0.615,1.561,0.953,3.484,2.077,4.537C113.404,251.859,116.096,253.458,119.289,255.756z"/>
	<path fill="#FFFFFF" d="M223.177,244.879c2.762-12.8,5.523-25.602,8.264-38.305c0.425-0.12,0.633-0.222,0.844-0.232
		c9.179-0.436,9.146-0.428,11.013,8.519c1.982,9.506,4.032,18.999,6.073,28.492c0.108,0.499,0.419,0.953,0.93,2.068
		c2.219-13.374,4.324-26.058,6.46-38.928c2.71,0,5.435,0,8.527,0c-0.937,5.261-1.815,10.427-2.781,15.578
		c-2.149,11.501-4.438,22.979-6.44,34.507c-0.412,2.375-1.394,2.803-3.474,2.809c-6.695,0.021-6.707,0.086-8.146-6.455
		c-2.396-10.885-4.771-21.772-7.17-32.657c-0.159-0.72-0.453-1.411-0.957-2.944c-3.157,14.453-6.133,28.067-9.143,41.833
		c-3.171,0-6.233,0-9.783,0c-3.245-17.437-6.506-34.968-9.806-52.701c2.892,0,5.52,0,8.558,0c2.137,12.754,4.28,25.549,6.424,38.344
		C222.773,244.831,222.975,244.855,223.177,244.879z"/>
	<path fill="#FFFFFF" d="M420.381,327.211c-3.182-3.664-2.537-7.092,0.07-9.818c-1.492-2.699-3.357-4.92-4.006-7.455
		c-2.756-10.768,2.709-17.813,13.739-17.729c6.156,0.045,12.312,0.678,18.453,1.049c0.689,4.594,0.689,4.594-4.037,6.404
		c0.144,2.281,0.451,4.568,0.4,6.846c-0.176,7.459-4.588,11.881-12.057,12.23c-1.328,0.062-2.693-0.154-3.982,0.082
		c-1.125,0.207-2.164,0.873-3.242,1.338c1.004,0.754,1.924,1.979,3.027,2.18c4.021,0.736,8.1,1.141,12.16,1.645
		c4.184,0.521,7.481,2.214,8.395,6.718c0.931,4.588-0.045,8.692-4.074,11.457c-1.866,1.28-4.063,2.618-6.223,2.838
		c-5.113,0.512-10.317,0.726-15.442,0.394c-4.863-0.312-8.783-2.742-9.697-8C412.99,332.34,415.969,329.314,420.381,327.211z
		 M431.518,339.941c2.248-0.613,5.185-0.979,7.636-2.267c1.27-0.668,2.274-2.977,2.264-4.532c-0.008-0.963-2.033-2.449-3.367-2.754
		c-3.104-0.701-6.336-1.025-9.526-1.103c-1.556-0.035-3.521,0.416-4.591,1.41c-1.19,1.106-2.174,3.108-2.11,4.676
		c0.049,1.213,1.633,2.867,2.92,3.408C426.604,339.57,428.814,339.531,431.518,339.941z M423.611,305.436
		c-0.013,4.914,1.887,6.818,6.812,6.838c4.805,0.019,7.099-2.141,7.121-6.7c0.023-4.695-2.119-6.781-6.977-6.793
		C425.557,298.768,423.623,300.615,423.611,305.436z"/>
	<path fill="#FFFFFF" d="M314.615,327.195c-2.904-4.367-2.826-5.74,0.567-10.391c-3.26-2.49-4.684-5.902-4.985-9.98
		c-0.638-8.576,3.59-13.916,12.176-14.529c3.379-0.246,6.82,0.482,10.238,0.602c3.405,0.115,6.821,0.023,10.145,0.023
		c1.012,4.807,1.012,4.807-3.471,6.635c0,2.752,0.197,5.375-0.037,7.961c-0.621,6.881-4.744,10.771-11.662,11.213
		c-1.436,0.093-2.912-0.146-4.313,0.095c-1.104,0.188-2.123,0.875-3.183,1.342c0.998,0.756,1.91,1.985,3.01,2.188
		c4.021,0.731,8.103,1.139,12.164,1.641c4.056,0.498,7.222,2.16,8.312,6.43c1.195,4.676-0.174,9.402-4.103,11.773
		c-8.545,5.162-17.727,5.598-26.688,1.502c-6.289-2.871-6.404-11.068-0.703-14.984C312.807,328.217,313.592,327.807,314.615,327.195
		z M324.809,339.662c0.062,0.152,0.123,0.307,0.185,0.463c2.93-0.811,6.051-1.246,8.703-2.602c1.207-0.615,1.967-3.045,1.981-4.662
		c0.008-0.807-2.016-2.08-3.293-2.363c-3.008-0.666-6.106-1.025-9.188-1.186c-1.472-0.076-3.408,0.119-4.369,1.014
		c-1.363,1.27-2.865,3.371-2.726,4.98c0.121,1.409,2.229,3.014,3.82,3.825C321.285,339.828,323.16,339.525,324.809,339.662z
		 M324.914,312.182c4.953-0.018,6.926-1.965,6.883-6.793c-0.043-4.709-2.104-6.625-7.111-6.609
		c-4.875,0.019-6.911,2.044-6.881,6.839C317.836,310.352,319.84,312.201,324.914,312.182z"/>
	<path fill="#FFFFFF" d="M404.527,223.627c2.414,0.229,5.194-1.261,5.787,2.518c6.723-3.604,13.219-5.209,19.768-0.161
		c3.961-2.487,8.314-3.443,12.984-3.043c4.946,0.423,8.881,3.505,9.047,8.144c0.321,9.057,0.096,18.133,0.096,27.429
		c-2.637,0-5.111,0-7.943,0c0-7.627,0.017-15.135-0.01-22.643c-0.006-2.264,0.633-5.377-2.502-5.644
		c-2.9-0.248-5.936,0.747-8.85,1.453c-0.373,0.091-0.513,1.736-0.517,2.663c-0.041,7.968-0.022,15.937-0.022,24.15
		c-2.717,0-5.189,0-8.062,0c0-7.675,0.004-15.288-0.006-22.901c-0.002-2.186,0.486-5.137-2.449-5.354
		c-2.907-0.216-5.934,0.733-8.844,1.437c-0.387,0.094-0.553,1.749-0.559,2.682c-0.043,7.967-0.023,15.935-0.023,24.14
		c-2.754,0-5.225,0-7.895,0C404.527,246.939,404.527,235.465,404.527,223.627z"/>
	<path fill="#FFFFFF" d="M404.375,326.678c-4.701,0.736-8.854,1.873-13.018,1.916c-5.203,0.053-9.048-3.871-9.646-8.762
		c-0.791-6.449,1.355-10.613,6.773-12.434c2.264-0.762,4.731-0.941,7.118-1.308c1.957-0.297,3.933-0.475,5.849-0.7
		c0.764-4.334-0.422-6.091-4.562-6.019c-4.039,0.071-8.067,0.692-12.43,1.103c0.229,0.274-0.008,0.125-0.008-0.027
		c0.026-7.309-1.547-6.477,6.32-7.713c3.524-0.553,7.278-0.392,10.829,0.129c5.013,0.734,7.869,3.631,8.064,8.631
		c0.34,8.699,0.094,17.426,0.094,26.371C407.588,327.959,405.014,329.23,404.375,326.678z M401.916,311.221
		c-3.246,0.402-6.096,0.559-8.852,1.15c-3.121,0.67-3.707,3.129-3.371,5.924c0.323,2.695,2.094,3.879,4.586,3.742
		c1.944-0.105,3.934-0.514,5.766-1.168c0.801-0.285,1.691-1.479,1.787-2.342C402.082,316.266,401.916,313.955,401.916,311.221z"/>
	<path fill="#FFFFFF" d="M482.109,313.439c-7.166,0-14.011,0-20.812,0c-0.762,4.459,1.133,7.682,5.312,7.92
		c4.557,0.262,9.164-0.367,14.225-0.633c0,1.108,0.137,2.924-0.07,4.7c-0.075,0.654-0.924,1.681-1.5,1.736
		c-5.125,0.521-10.317,1.487-15.393,1.086c-5.582-0.44-9.139-4.306-10.34-9.822c-1.59-7.274-2.162-14.639,2.547-21.051
		c4.363-5.942,10.75-5.955,17.178-4.524c5.842,1.301,8.103,5.825,8.785,11.198C482.414,306.98,482.109,309.998,482.109,313.439z
		 M474.129,307.619c0.164-3.008,0.312-6.264-2.59-7.406c-2.187-0.859-5.312-0.709-7.518,0.205c-2.712,1.125-3.38,4.096-2.966,7.201
		C465.428,307.619,469.691,307.619,474.129,307.619z"/>
	<path fill="#FFFFFF" d="M267.865,328.748c-2.439-0.838-4.301-1.48-6.232-2.145c-3.496,0.662-7.396,1.881-11.335,2.035
		c-6.176,0.235-10.055-3.617-10.832-9.839c-0.722-5.756,2.435-10.405,8.254-11.893c1.91-0.49,3.922-0.582,5.896-0.826
		c1.969-0.244,3.94-0.455,5.872-0.677c0.791-4.145-0.299-5.969-4.213-5.983c-4.146-0.017-8.293,0.611-12.887,0.992
		c0-1.425-0.142-3.168,0.068-4.869c0.085-0.688,0.833-1.696,1.455-1.853c5.584-1.395,11.11-2.317,16.917-0.481
		c4.492,1.422,6.797,4.34,6.947,8.595C268.076,310.416,267.865,319.045,267.865,328.748z M259.93,311.209
		c-3.215,0.381-5.967,0.574-8.66,1.07c-2.313,0.426-3.574,2.061-3.804,4.406c-0.315,3.188,1.521,5.235,4.789,5.405
		c4.871,0.253,7.647-1.471,7.675-4.771C259.939,315.465,259.93,313.609,259.93,311.209z"/>
	<path fill="#FFFFFF" d="M391.027,256.341c-4.55,2.716-9.32,4.067-14.593,2.565c-4.661-1.325-7.254-4.639-7.538-9.727
		c-0.318-5.681,1.704-9.305,6.545-11.019c2.149-0.762,4.504-0.993,6.782-1.348c2.175-0.338,4.369-0.524,6.531-0.774
		c0.693-4.34-0.065-5.885-4.174-6.029c-4.125-0.145-8.285,0.666-12.896,1.102c0-1.202-0.227-2.843,0.084-4.375
		c0.189-0.934,1.05-2.189,1.882-2.458c5.254-1.704,10.651-1.998,16.032-0.667c4.509,1.115,7.146,4.044,7.314,8.715
		c0.295,8.082,0.25,16.177,0.223,24.266c0,0.71-0.981,2.053-1.403,2.012c-1.582-0.153-3.123-0.758-4.681-1.192
		C391.102,257.053,391.064,256.697,391.027,256.341z M389.148,241.864c-3.181,0.391-6.031,0.356-8.591,1.207
		c-1.448,0.481-2.954,2.231-3.471,3.739c-0.678,1.978-0.377,4.836,2.094,5.224c2.769,0.435,5.859,0.019,8.539-0.858
		c0.902-0.295,1.103-3.109,1.383-4.811C389.316,245.081,389.148,243.734,389.148,241.864z"/>
	<path fill="#FFFFFF" d="M298.125,241.199c-0.062,1.107-0.123,2.213-0.189,3.318c-0.771,12.655-12.049,19.071-23.526,13.389
		c-3.527-1.746-6.007-4.668-6.341-8.403c-0.498-5.552-0.653-11.25,0.039-16.76c0.625-4.94,4.068-8.394,9.201-9.226
		c3.119-0.506,6.43-0.755,9.529-0.289c6.51,0.978,10.193,5.391,10.959,12.335C298.002,237.43,298.02,239.319,298.125,241.199z
		 M290.002,241.263c-0.086-0.003-0.17-0.007-0.252-0.01c0-1.771,0.033-3.542-0.02-5.311c-0.019-0.537-0.256-1.072-0.42-1.599
		c-1.066-3.415-3.191-4.844-7.021-4.733c-3.627,0.106-5.973,1.556-6.381,5.011c-0.486,4.125-0.559,8.378-0.133,12.506
		c0.397,3.857,2.803,5.484,6.621,5.581c3.821,0.099,6.348-1.744,7.112-5.512C289.902,245.265,289.852,243.244,290.002,241.263z"/>
	<path fill="#FFFFFF" d="M370.773,325.439c-5.353,3.199-10.853,4.338-16.714,2.592c-3.646-1.084-6.073-3.703-6.186-7.412
		c-0.273-9.059-0.09-18.131-0.09-27.443c2.586,0,5.059,0,7.947,0c0,7.318-0.021,14.592,0.012,21.863
		c0.012,2.367-0.662,5.115,2.307,6.328c3.441,1.406,6.785,0.465,9.875-1.137c0.623-0.322,0.812-1.912,0.822-2.924
		c0.068-7.089,0.205-14.185-0.037-21.265c-0.113-3.321,1.656-3.244,3.932-3.133c2.146,0.104,4.427-0.629,4.355,3.106
		c-0.205,10.506-0.072,21.021-0.072,31.797C374.354,328.008,371.758,329.23,370.773,325.439z"/>
	<path fill="#FFFFFF" d="M304.461,327.938c-2.764,0-5.162,0-8.027,0c0-4.801,0-9.516,0-14.231c0-2.99,0.047-5.983-0.014-8.974
		c-0.09-4.157-1.904-5.84-6.014-5.629c-0.99,0.051-1.977,0.232-2.963,0.369c-2.996,0.414-4.49,1.662-4.344,5.16
		c0.313,7.625,0.098,15.271,0.098,23.166c-2.603,0-5.072,0-7.779,0c0-11.492,0-23.039,0-35.469c2.346,0.803,4.266,1.461,7.143,2.445
		c3.269-1.832,7.949-3.324,13.076-2.371c5.738,1.063,8.641,4.152,8.773,9.949C304.605,310.756,304.461,319.166,304.461,327.938z"/>
	<path fill="#FFFFFF" d="M332.482,258.572c-2.791,0-5.177,0-7.877,0c0-9.246,0-18.39,0-27.805c-2.22-0.156-4.148-0.292-6.017-0.424
		c-0.914-4.687-0.949-4.841,3.332-5.913c2.016-0.504,2.816-1.32,2.584-3.365c-0.147-1.312-0.033-2.656-0.024-3.985
		c0.051-7.104,3.862-11.085,10.973-11.451c0.772-0.04,1.549-0.03,2.322-0.029c6.575,0.009,6.76,0.238,5.856,6.347
		c-3.463,0.804-7.426,0.653-9.576,2.553c-1.797,1.589-1.477,5.576-2.205,9.036c3.978,0,7.121,0,10.41,0c0,2.439,0,4.489,0,6.911
		c-3.146,0-6.192,0-9.778,0c0,4.942,0,9.532,0,14.122C332.482,249.104,332.482,253.641,332.482,258.572z"/>
	<path fill="#FFFFFF" d="M207.668,327.869c0-17.402,0-34.646,0-52.125c2.554,0,5.03,0,7.926,0c0,14.836,0,29.625,0,44.797
		c7.648,0,14.898,0,22.396,0c0,2.631,0,4.883,0,7.328C227.902,327.869,217.876,327.869,207.668,327.869z"/>
	<path fill="#FFFFFF" d="M304.125,206.463c2.432,0,4.83,0,7.709,0c0,1.177,0,2.346,0,3.515c0.002,12.755-0.01,25.509,0.012,38.263
		c0.004,1.712-0.094,3.126,2.056,4.329c1.118,0.625,0.764,3.889,1.063,5.894c-6.703,1.451-11.02-1.448-11.072-7.354
		c-0.131-14.526-0.045-29.058-0.031-43.584C303.861,207.217,304.008,206.911,304.125,206.463z"/>
	<path fill="#FFFFFF" d="M345.955,222.902c2.629,0.864,4.533,1.489,6.795,2.232c2.818-0.629,6.41-1.531,10.043-2.208
		c3.094-0.577,4.605,0.728,4.109,4.012c-0.146,0.967-0.104,1.963-0.134,2.65c-3.364,0.327-6.534,0.543-9.674,0.973
		c-2.131,0.292-3.067,1.485-3.004,3.888c0.183,6.98-0.08,13.974,0.131,20.951c0.093,3.014-1.194,3.592-3.741,3.363
		c-2.188-0.197-4.681,0.781-4.599-3.197C346.098,245.055,345.955,234.537,345.955,222.902z"/>
	<path fill="none" d="M74.479,299.162c3.364-4.83,6.367-9.141,9.52-13.664c-3.122-1.316-6.339-2.67-9.937-4.182
		c1.335-2.053,2.632-4.049,3.915-6.023c-3.834,0.369-10.937,5.145-13.164,9.068c1.658,0.567,3.263,1.113,4.865,1.666
		c1.556,0.537,3.11,1.082,5.024,1.748c-3.891,5.451-7.057,11.059-7.7,17.934c4.831-0.357,9.524-1.002,14.215-0.988
		c9.063,0.029,18.127,0.396,27.187,0.742c0.789,0.029,1.843,0.754,2.271,1.461c7.908,13.057,15.741,26.16,24.01,39.955
		c-5.206,1.316-9.991,2.975-14.914,3.693c-26.432,3.844-48.811-4.4-67.655-23.064c-3.411-3.379-4.693-6.57-3.324-11.609
		c4.454-16.381,7.856-33.104,15.395-48.444c2.538-5.165,6.553-9.595,9.716-14.474c1.606-2.476,3.002-5.128,4.174-7.839
		c2.628-6.076,4.907-12.304,7.613-18.343c2.094-4.672,5.204-8.672,9.775-12.219c1.887,6.396,3.657,12.37,5.407,18.348
		c0.806,2.752,1.878,5.47,2.3,8.284c1.196,7.979,6.037,13.359,11.851,18.422c12.714,11.07,25.58,21.881,40.332,30.223
		c3.833,2.172,4.151,6.664,2.161,10.295c-2.69,4.908-6.61,4.361-10.938,3.904c-18.593-1.961-37.182-3.994-55.804-5.633
		C85.775,297.982,80.662,298.842,74.479,299.162z M122.504,278.844c0.151-0.385,0.303-0.77,0.454-1.154
		c-3.78-1.645-7.438-3.729-11.37-4.821c-5.084-1.41-5.325-0.972-6.558,4.459c2.214,0.549,4.759,0.588,6.581,1.754
		C115.501,281.574,118.924,280.236,122.504,278.844z"/>
	<path fill="none" d="M119.289,255.756c-3.193-2.298-5.885-3.896-8.12-5.986c-1.124-1.052-1.462-2.976-2.077-4.537
		c-1.724-4.369-0.838-7.805,3.089-10.775c2.408-1.821,4.146-4.525,6.186-6.833c0.307,0.222,0.615,0.441,0.922,0.663
		C119.289,237.229,119.289,246.17,119.289,255.756z"/>
	<path fill="#FFFFFF" d="M122.504,278.844c-3.58,1.393-7.003,2.73-10.894,0.236c-1.822-1.166-4.366-1.205-6.581-1.754
		c1.233-5.43,1.474-5.869,6.558-4.459c3.933,1.094,7.59,3.178,11.37,4.822C122.807,278.074,122.656,278.459,122.504,278.844z"/>
</g>
</svg>
