<?xml version="1.0" encoding="utf-8"?>
<!-- Generator: Adobe Illustrator 16.0.0, SVG Export Plug-In . SVG Version: 6.00 Build 0)  -->
<!DOCTYPE svg PUBLIC "-//W3C//DTD SVG 1.1//EN" "http://www.w3.org/Graphics/SVG/1.1/DTD/svg11.dtd">
<svg version="1.1" id="Layer_1" xmlns="http://www.w3.org/2000/svg" xmlns:xlink="http://www.w3.org/1999/xlink" x="0px" y="0px"
	 width="500px" height="116px" viewBox="0 197.5 500 116" enable-background="new 0 197.5 500 116" xml:space="preserve">
<g>
	<path fill="#FFFFFF" d="M13.277,295.775c0.867-2.809,2.817-4.4,5.465-5.642c9.519-4.459,17.068-11.092,21.761-20.675
		c0.433-0.884,0.8-1.8,1.177-2.709c0.835-2.014,2.284-3.355,4.266-4.27c10.832-4.988,19.228-12.446,23.772-23.735
		c0.795-1.976,2.152-3.338,4.081-4.172c4.62-1.996,8.807-4.688,12.588-7.992c4.996-4.365,8.924-9.52,11.308-15.765
		c0.944-2.475,2.806-3.882,5.228-4.688c1.117,0,2.233,0,3.349,0c1.5,0.601,2.959,1.254,3.979,2.602c3.05,4.027,1.655,9.43-3,11.388
		c-3.074,1.292-5.959,2.909-8.67,4.832c-6.508,4.616-11.619,10.411-14.729,17.83c-0.694,1.656-1.386,3.259-2.885,4.366
		c-0.614,0.453-1.29,0.777-1.979,1.087c-9.956,4.465-17.715,11.272-22.549,21.186c-0.417,0.854-0.743,1.752-1.105,2.632
		c-0.802,1.949-2.182,3.312-4.115,4.151c-9.682,4.206-17.291,10.713-22.269,20.125c-0.414,0.782-0.872,1.565-1.127,2.403
		c-0.9,2.946-2.709,4.974-5.678,5.91c-1.116,0-2.233,0-3.349,0c-0.652-0.298-1.321-0.563-1.954-0.896
		c-1.887-0.993-2.859-2.707-3.562-4.62C13.277,298.008,13.277,296.893,13.277,295.775z"/>
	<path fill="#FFFFFF" d="M74.945,304.643c-1.634-0.635-3.181-1.369-4.25-2.871c-2.798-3.93-1.362-9.22,3.068-11.125
		c5.615-2.416,10.569-5.807,14.901-10.104c3.988-3.956,7.041-8.53,9.108-13.772c1.162-2.945,3.473-4.562,6.594-4.647
		c2.983-0.084,5.324,1.291,6.705,4.019c1.975,3.902,0.168,8.353-3.885,10.117c-9.969,4.342-17.706,11.137-22.604,20.967
		c-0.292,0.586-0.595,1.178-0.793,1.799c-0.918,2.877-2.78,4.773-5.692,5.619C77.046,304.643,75.996,304.643,74.945,304.643z"/>
	<path fill="#FFFFFF" d="M46.967,304.643c-1.993-0.648-3.71-1.672-4.76-3.568c-2.182-3.941-0.653-8.594,3.474-10.389
		c4.308-1.873,8.245-4.328,11.849-7.326c5.422-4.512,9.609-9.934,12.167-16.553c0.951-2.461,2.77-3.972,5.312-4.523
		c3.7-0.807,7.325,1.336,8.455,4.896c1.16,3.656-0.541,7.444-4.099,8.948c-2.306,0.976-4.521,2.108-6.63,3.444
		c-6.849,4.338-12.35,9.938-16.01,17.238c-0.367,0.732-0.761,1.469-0.997,2.248c-0.873,2.881-2.779,4.687-5.608,5.582
		C49.069,304.643,48.018,304.643,46.967,304.643z"/>
	<path fill="#FFFFFF" d="M13.277,240.018c0.803-2.889,2.795-4.496,5.469-5.742c9.206-4.288,16.559-10.666,21.334-19.77
		c0.608-1.159,1.11-2.378,1.604-3.593c1.866-4.587,7.359-6.108,11.281-3.107c4.351,3.33,3.499,10.256-1.57,12.396
		c-5.888,2.485-11.063,6.004-15.516,10.567c-3.66,3.75-6.518,8.05-8.427,12.951c-1.242,3.186-3.898,5.159-6.979,5.159
		c-3.099,0-5.729-1.962-6.946-5.176c-0.069-0.183-0.167-0.355-0.25-0.532C13.277,242.12,13.277,241.069,13.277,240.018z"/>
	<path fill="#FFFFFF" d="M102.922,304.643c-1.332-0.556-2.659-1.094-3.682-2.192c-2.092-2.25-2.586-5.669-1.164-8.421
		c1.457-2.818,4.487-4.303,7.762-3.801c2.913,0.446,5.382,2.89,5.92,5.855c0.648,3.572-1.423,7.091-4.855,8.253
		c-0.279,0.095-0.553,0.203-0.829,0.306C105.023,304.643,103.973,304.643,102.922,304.643z"/>
	<path fill="#FFFFFF" d="M13.277,268.391c0.296-0.83,0.483-1.695,0.923-2.479c1.642-2.923,5.03-4.387,8.215-3.521
		c3.428,0.933,5.593,3.891,5.464,7.467c-0.115,3.187-2.578,6.054-5.781,6.729c-3.616,0.765-7.258-1.321-8.418-4.821
		c-0.133-0.402-0.269-0.807-0.403-1.209C13.277,269.834,13.277,269.111,13.277,268.391z"/>
	<path fill="#FFFFFF" d="M13.277,212.829c0.299-0.931,0.492-1.89,0.969-2.77c1.58-2.913,4.942-4.369,8.218-3.511
		c3.301,0.864,5.492,3.838,5.396,7.324c-0.087,3.169-2.614,6.158-5.732,6.782c-4.062,0.813-7.846-1.721-8.658-5.792
		c-0.044-0.222-0.128-0.437-0.193-0.655C13.277,213.748,13.277,213.289,13.277,212.829z"/>
	<path fill="#FFFFFF" d="M13.277,299.125c0.704,1.913,1.675,3.627,3.562,4.62c0.633,0.333,1.302,0.601,1.954,0.896
		c-1.675,0-3.35-0.019-5.024,0.014c-0.424,0.008-0.514-0.081-0.506-0.506C13.295,302.475,13.277,300.8,13.277,299.125z"/>
	<path fill="#FFFFFF" d="M313.082,265.411c0-0.703,0-1.091,0-1.479c0-11.591-0.001-23.182,0-34.772c0-1.404,0.005-1.407,1.416-1.409
		c2.431-0.002,4.86-0.002,7.29,0c1.408,0.001,1.414,0.004,1.414,1.436c0.001,16.024,0.001,32.046,0.001,48.072
		c0,1.543-0.032,3.088,0.012,4.631c0.024,0.859-0.31,1.156-1.158,1.133c-1.673-0.047-3.349-0.029-5.022-0.006
		c-0.604,0.01-1.053-0.184-1.469-0.627c-4.304-4.605-8.621-9.195-12.934-13.793c-3.479-3.712-6.954-7.429-10.434-11.141
		c-3.233-3.448-6.472-6.893-9.704-10.34c-0.221-0.235-0.424-0.484-0.671-0.768c-0.304,0.483-0.187,0.882-0.187,1.255
		c-0.008,11.294-0.006,22.589-0.007,33.886c0,1.516-0.004,1.518-1.534,1.519c-2.464,0.001-4.927-0.024-7.39,0.013
		c-0.856,0.014-1.216-0.213-1.215-1.158c0.024-17.666,0.022-35.332,0.003-52.997c-0.001-0.867,0.279-1.157,1.136-1.129
		c1.574,0.052,3.153,0.046,4.728,0.001c0.754-0.022,1.293,0.217,1.805,0.774c4.165,4.553,8.357,9.081,12.535,13.623
		c4.135,4.493,8.26,8.994,12.389,13.492c2.753,2.998,5.506,5.996,8.259,8.994C312.52,264.811,312.697,264.998,313.082,265.411z"/>
	<path fill="#FFFFFF" d="M361.543,284.018c-15.132,0.348-28.691-11.871-28.53-28.813c0.147-15.443,11.927-28.507,28.458-28.541
		c16.387-0.034,28.631,12.96,28.529,29.06C389.893,272.598,376.303,284.331,361.543,284.018z M361.45,274.627
		c0.395,0,0.789,0.021,1.182-0.006c0.393-0.025,0.779-0.104,1.169-0.154c5.66-0.73,10.039-3.52,13.067-8.328
		c2.602-4.132,3.397-8.705,2.762-13.504c-0.593-4.46-2.426-8.372-5.737-11.479c-3.914-3.676-8.568-5.302-13.946-4.86
		c-4.598,0.378-8.488,2.242-11.573,5.625c-4.567,5.007-5.938,10.975-4.805,17.553C345.089,268.303,352.599,274.634,361.45,274.627z"
		/>
	<path fill="#FFFFFF" d="M233.062,284.018c-14.78,0.299-28.491-11.438-28.454-28.597c0.035-15.911,12.159-28.776,28.535-28.758
		c16.783,0.019,28.679,13.574,28.453,29.33C261.366,271.893,248.52,284.324,233.062,284.018z M214.823,255.456
		c-0.017,1.394,0.084,2.765,0.351,4.121c1.983,10.108,10.856,16.108,20.233,14.894c5.083-0.66,9.304-2.925,12.209-7.123
		c4.925-7.117,5.209-14.685,1.012-22.183c-5.137-9.177-17.179-11.805-25.769-5.765C217.34,243.282,214.95,248.831,214.823,255.456z"
		/>
	<path fill="#FFFFFF" d="M175.132,283.007c-6.993,0-13.986,0.001-20.979-0.001c-1.442,0-1.355-0.012-1.47-1.386
		c-0.132-1.565,0.372-2.808,1.271-4.078c9.442-13.344,18.834-26.724,28.235-40.096c0.178-0.253,0.579-0.51,0.386-0.829
		c-0.173-0.285-0.607-0.13-0.924-0.13c-8.897-0.006-17.794-0.004-26.691-0.006c-1.463,0-1.464-0.005-1.466-1.477
		c-0.001-2.035,0.029-4.071-0.014-6.106c-0.018-0.824,0.203-1.166,1.099-1.165c13.756,0.023,27.512,0.022,41.268,0.001
		c0.857-0.001,1.132,0.269,1.14,1.13c0.015,1.532-0.198,2.863-1.14,4.225c-9.224,13.336-18.362,26.731-27.519,40.113
		c-0.196,0.286-0.62,0.577-0.458,0.916c0.17,0.356,0.654,0.163,0.995,0.163c9.061,0.01,18.123,0.007,27.184,0.008
		c1.478,0.001,1.479,0.005,1.481,1.475c0.002,1.969,0.003,3.938-0.001,5.908c-0.003,1.301-0.031,1.332-1.321,1.333
		C189.183,283.008,182.157,283.007,175.132,283.007z"/>
	<path fill="#FFFFFF" d="M399.824,255.35c0-8.701,0-17.401,0.001-26.102c0-1.495,0.005-1.498,1.45-1.498
		c12.181-0.001,24.36-0.001,36.542,0c1.425,0,1.429,0.003,1.431,1.418c0.004,2.102,0.004,4.203,0,6.304
		c-0.002,1.445-0.006,1.447-1.501,1.447c-8.799,0.001-17.598,0-26.396,0.001c-1.41,0-1.412,0.002-1.412,1.389
		c-0.003,3.71,0.027,7.421-0.021,11.13c-0.013,0.958,0.305,1.229,1.239,1.226c8.34-0.028,16.679-0.019,25.019-0.017
		c1.523,0,1.525,0.004,1.526,1.526c0.001,2.103,0.004,4.202-0.002,6.304c-0.003,1.231-0.046,1.277-1.275,1.278
		c-8.34,0.003-16.679,0.001-25.019,0.002c-1.467,0-1.468,0.003-1.47,1.439c0,6.829,0.002,13.657-0.001,20.487
		c-0.001,1.297-0.021,1.316-1.323,1.319c-2.463,0.004-4.926,0.003-7.389,0c-1.385-0.001-1.397-0.014-1.397-1.457
		C399.824,272.814,399.824,264.082,399.824,255.35z"/>
	<path fill="#FFFFFF" d="M447.898,255.289c0-8.699-0.001-17.398,0-26.097c0.001-1.438,0.006-1.442,1.406-1.442
		c12.146-0.001,24.291-0.001,36.438,0c1.431,0,1.433,0.004,1.435,1.389c0.003,2.101,0.002,4.202,0,6.303
		c-0.001,1.474-0.002,1.477-1.443,1.478c-8.767,0.001-17.53,0-26.295,0.001c-1.417,0-1.42,0.001-1.42,1.379
		c-0.001,3.677-0.001,7.354,0,11.03c0.002,1.312,0.005,1.316,1.304,1.316c8.305,0.002,16.609,0,24.915,0.002
		c1.534,0,1.536,0.002,1.537,1.517c0.001,2.067,0.003,4.136-0.001,6.204c-0.003,1.372-0.017,1.389-1.362,1.389
		c-8.239,0.004-16.479,0.001-24.719,0.002c-1.674,0-1.674,0-1.674,1.624c0,6.763,0.002,13.525-0.001,20.287
		c-0.001,1.319-0.013,1.333-1.302,1.335c-2.494,0.006-4.989,0.006-7.483,0.001c-1.292-0.002-1.332-0.038-1.333-1.323
		C447.897,272.885,447.898,264.087,447.898,255.289z"/>
	<path fill="#FFFFFF" d="M104.592,234.263c4.125,0.004,7.245,3.159,7.237,7.318c-0.008,4.033-3.254,7.292-7.249,7.28
		c-4.015-0.013-7.343-3.333-7.357-7.34C97.209,237.496,100.496,234.259,104.592,234.263z"/>
	<path fill="#FFFFFF" d="M76.277,206.291c3.562-0.002,6.483,2.38,7.159,5.838c0.669,3.424-1.188,6.892-4.374,8.166
		c-4.559,1.823-8.62,4.465-12.343,7.627c-4.879,4.145-8.652,9.131-11.166,15.042c-0.154,0.362-0.292,0.731-0.43,1.1
		c-1.132,3.036-4.283,5.104-7.305,4.792c-3.514-0.362-6.313-2.914-6.757-6.159c-0.475-3.468,1.35-6.598,4.484-7.974
		c8.24-3.617,15.074-8.977,20.13-16.493c1.545-2.297,2.785-4.75,3.803-7.326C70.633,207.986,73.166,206.292,76.277,206.291z"/>
</g>
</svg>
