<svg xmlns="http://www.w3.org/2000/svg" width="440" height="154" viewBox="0 0 440 154"><path fill="#A12830" d="M289.3 110.7c-18.2 12.9-39.7 26.4-62.8 40.6l-.9.5c-.3.2-.4.6-.2 1 .2.3.6.4 1 .2l.8-.4c19.6-10.2 42.2-22.4 64.8-34.9.1-.1.2-.1.4-.2-1.3-2.1-2.4-4.4-3.1-6.8zm119.2-96.5c-28.6-31.6-212.7-3.2-291 13.9l-1.8.4c-.4.1-.6.4-.6.8.1.4.4.6.8.6l1.8-.4C182.5 18 317.4 2 346.5 30.8c8.9 8.8 6.7 20.1-3.5 33.4 5.5 3.6 9.5 9.2 11.3 16.2 40-26.7 66.9-52.1 54.2-66.2z"/><g fill="#003A6F"><path d="M300.9 102.4c.4 11.1 7.4 20.2 16.6 20.2 17.8 0 25.3-21.8 24.8-36.4-.4-11.1-7.6-20.2-16.7-20.2-15.4 0-25.2 21.7-24.7 36.4zm-9.4-.6c-.7-19 14.2-38.3 35.8-38.3 14.4 0 23.9 9.6 24.4 24.3.7 20-13.2 38.3-35.8 38.3-14.4 0-23.9-9.6-24.4-24.3zM87.2 96.8c-.8.3-1.8.6-3 .8-1.2.3-3.5.7-6.7 1.2-2.2.4-3.8.8-4.7 1.5-.9.6-1.4 1.4-1.5 2.3-.2 1 .1 1.8 1 2.4.9.6 2.3.9 4.3.9 1.5 0 3-.2 4.5-.7 1.5-.5 2.7-1.1 3.7-1.9.7-.6 1.2-1.4 1.6-2.3.1-.7.4-2.1.8-4.2zM106 85.1c-.1 1.7-.4 3.3-.8 5.9l-3.2 17.8c-.3 1.6.3 2.8 1.8 3.7l-.1.7H85.5l-.2-4.5c-2.6 1.6-5.8 2.9-8.7 3.7-2.9.7-5.2 1.1-8.7 1.1-5.9 0-9.2-.6-11.5-2.6-2.4-2.1-3.5-3.5-3.4-6.4.1-1.7.9-3.8 2.2-5.3 1.3-1.5 3-2.5 4.8-3.4 1.9-.9 4.1-1.5 7.3-2s7.7-1 13.7-1.5c3.1-.3 5.1-1 6-1.3 1.3-.5 1.7-1 1.9-2 .3-1.8-.2-2.9-2.7-3.4-6.5-1.3-18.8.8-25.1 2.4l3.4-9.3c8.3-1.2 16.2-2 24.4-2 13-.1 17.2 3.6 17.1 8.4zM158.6 113.2l6.3-35.6h17.4l-6.3 35.6h-17.4zm7.3-43.8c.5-2.9 5.1-5.3 10.3-5.3 5.2 0 8.9 2.4 8.4 5.3s-5.2 5.3-10.3 5.3c-5.2 0-9-2.4-8.4-5.3zM244.1 96.9c-.8.3-1.8.6-3 .8-1.2.3-3.5.7-6.8 1.2-2.2.4-3.8.8-4.7 1.5-.8.6-1.3 1.4-1.5 2.3-.2 1 .2 1.8 1 2.4.9.6 2.3.9 4.4.9 1.5 0 3-.2 4.5-.7 1.5-.5 2.7-1.1 3.7-1.9.7-.6 1.2-1.4 1.5-2.3.2-.7.5-2.1.9-4.2zm18.7-11.7c-.1 1.7-.4 3.3-.9 5.9l-3.1 17.8c-.3 1.6.3 2.8 1.8 3.7l-.1.6h-18.2l-.1-4.5c-2.7 1.6-5.9 2.9-8.7 3.7-2.9.8-5.2 1.1-8.7 1.1-5.9 0-9.2-.6-11.5-2.6-2.4-2.1-3.5-3.5-3.4-6.4.1-1.7.9-3.8 2.2-5.3 1.3-1.5 3-2.5 4.8-3.4 1.9-.9 4.1-1.5 7.3-2.1 3.2-.5 7.7-1 13.7-1.5 3.1-.3 5-1 5.9-1.3 1.3-.5 1.8-1 2-2.1.3-1.8-.3-2.9-2.7-3.4-6.6-1.3-18.8.8-25.1 2.4l3.4-9.3c8.4-1.2 16.1-2 24.4-2 12.9.2 17.1 3.9 17 8.7zM50.6 100.4c-5.7 1.1-8.8 1.6-14.4 1.6-8.3 0-14.9-4.1-14.6-11.7.3-5 6.2-15.7 21.4-15.7 4.8 0 8.5.8 13.5 3.7L58.7 66c-6.8-2.6-11.3-3-17.2-2.9-19.9.2-39 9.2-41.3 27.6-2.4 18.7 20.4 23.4 30.5 23.3 5.8 0 11.9-.3 17.6-.8l2.3-12.8zM191.9 77.4l1.2-7.2 18.2-4-1.9 11.2h8.9l-1.7 7.2H208l-5.2 28.6s-17.5-.1-17.6 0l5.2-28.5h-6.6l1.3-7.2h6.8zM280.5 113.2h-17.8l8.9-49.6 17.3.5M135.6 86c-2.3 0-4.3.7-6.2 2.1-1.8 1.4-3 3.4-3.4 6.1-.5 3.1-.2 5.3 1 6.7 1.2 1.4 3 2.1 5.4 2.1 1.6 0 3.2-.3 4.4-.9 1.5-.8 2.5-1.6 3.4-2.9 1-1.4 1.6-2.9 1.9-4.7.5-2.8.1-4.9-1.2-6.3-1.3-1.5-3-2.2-5.3-2.2zm-31.7 39.5l8.5-47.7h15.3l-1.2 6.1c1.3-1.8 3.4-3.3 6.4-4.5 2.9-1.2 6.3-2.1 9.9-2.1 4 0 6.4.2 9.4 1.8s5 3.8 6.2 6.8c1.1 2.9 1.4 6.1.8 9.7-1 5.9-3.9 10.5-8.6 13.9-4.7 3.4-8.9 4.3-14.8 4.3-2.1 0-3.9-.2-5.4-.6-1.4-.4-2.6-.8-3.5-1.4-.8-.6-1.7-1.3-2.9-2.6l-2.8 16.3h-17.3zM419.7 90.4c-.1-2.9-1.5-4.8-4.5-4.8-7.1 0-14.7 14-16 19.6 11.6 0 20.7-7 20.5-14.8zm1.5 21.9l1.4.9c-3.5 7.1-10.6 12.8-18.9 12.8-6.8 0-12.4-4.5-12.7-13-.5-15.2 13.7-29.4 25.4-29.4 5 0 9.7 2.2 9.9 7.6.4 12.1-16.6 15.8-27.8 16.1-.4 1.3-.5 2.5-.4 4.5.2 5 3.2 9.3 9.5 9.3 5.4-.2 10.8-4.5 13.6-8.8z"/><path d="M351.4 90c1.2-.2 3.2-.4 4-.4 1.3 0 2.5.2 2.5 1.5 0 .8-1.3 6.2-1.6 7.4l-2.7 12c-1.1 4.9-2.3 10-3.3 14.1h7l3.9-18.9c12-12.4 16.6-16.5 19.4-16.5 1.3 0 2.1.7 2.2 2.2.1 2.2-1.3 7.2-1.8 8.6l-4 13.8c-.9 3.1-1.6 5.9-1.5 7.9.1 3 2 4.4 4.7 4.4 5.1 0 8.8-5.3 12-10.5l-.9-1.7c-1.3 2.1-4.3 6.7-6.7 6.7-.8 0-1.5-.5-1.5-1.8-.1-1.6.6-4 1.1-5.6l4.4-16.2c1.2-4.5 1.8-7.3 1.7-8.9-.1-3-1.9-4.4-4.6-4.4-4.6 0-10.7 3.3-23.6 18.2h-.2l1.6-7.2c.9-4 1.7-8.1 2.6-10.9-4.5 1.6-10.8 3.4-14.8 4.2l.1 2z"/></g><path fill="#003A6F" d="M427.4 77.1c0-3.6 2.9-6.2 6.3-6.2s6.2 2.6 6.2 6.2-2.9 6.2-6.2 6.2c-3.5 0-6.3-2.6-6.3-6.2zm6.3 5.2c2.8 0 5-2.2 5-5.2 0-2.9-2.2-5.1-5-5.1s-5 2.2-5 5.1c-.1 3 2.1 5.2 5 5.2zm-1.4-1.6h-1.1v-7.1h2.7c1.7 0 2.5.6 2.5 2 0 1.3-.8 1.8-1.9 2l2 3.1h-1.2l-1.9-3.1h-1.2v3.1zm1.3-4c.9 0 1.7-.1 1.7-1.2 0-.9-.8-1-1.6-1h-1.5v2.2h1.4z"/></svg>